%TF.GenerationSoftware,Altium Limited,Altium Designer,23.9.2 (47)*%
G04 Layer_Color=65535*
%FSLAX25Y25*%
%MOIN*%
%TF.SameCoordinates,F944BC78-FABB-4A85-9D96-7E9E55BFA98D*%
%TF.FilePolarity,Positive*%
%TF.FileFunction,Legend,Top*%
%TF.Part,Single*%
G01*
G75*
%TA.AperFunction,NonConductor*%
%ADD57C,0.00787*%
%ADD58C,0.01280*%
%ADD59C,0.00394*%
%ADD60C,0.01181*%
%ADD61C,0.01000*%
D57*
X-5906Y23622D02*
G03*
X3937Y23622I4921J-9843D01*
G01*
X-23425Y24803D02*
G03*
X-23425Y25591I0J394D01*
G01*
D02*
G03*
X-23425Y24803I0J-394D01*
G01*
X27409Y37598D02*
G03*
X28197Y37598I394J0D01*
G01*
D02*
G03*
X27409Y37598I-394J0D01*
G01*
X21244Y109681D02*
G03*
X21441Y109656I0J-772D01*
G01*
X21591Y108913D02*
G03*
X21197Y108913I-197J0D01*
G01*
D02*
G03*
X21591Y108913I197J0D01*
G01*
X50000Y-68307D02*
G03*
X50000Y-68307I-394J0D01*
G01*
X-7480Y41221D02*
G03*
X-6693Y41221I394J0D01*
G01*
D02*
G03*
X-7480Y41221I-394J0D01*
G01*
X-5906Y23622D02*
X3937D01*
X-41134Y-19677D02*
Y-7095D01*
X-60441Y-19677D02*
X-41134D01*
X-60441D02*
Y-7095D01*
X-41134D01*
X-40630Y-5717D02*
Y295D01*
X-30118Y9154D02*
X-28150D01*
X-30118Y3445D02*
X-28150D01*
X-63484Y-73622D02*
X-34252D01*
X-53740Y-99606D02*
X-34252D01*
X-68110Y99114D02*
Y128347D01*
X-42126Y108858D02*
Y128347D01*
X45866Y111811D02*
X75098D01*
X45866Y137795D02*
X65354D01*
X-14752Y137284D02*
X9244D01*
Y111535D02*
Y137284D01*
X-14752Y111535D02*
X9244D01*
X11220Y-23934D02*
X20276D01*
Y-35745D02*
Y-23934D01*
X11220Y-35745D02*
X20276D01*
X11220D02*
Y-23934D01*
X4232Y-23737D02*
X9843D01*
X-3347Y-3937D02*
X1378D01*
X-3347Y-9843D02*
X1378D01*
D58*
X24362Y94291D02*
G03*
X24362Y94291I-640J0D01*
G01*
D59*
X-11614Y-6890D02*
G03*
X-12008Y-6890I-197J0D01*
G01*
D02*
G03*
X-11614Y-6890I197J0D01*
G01*
X28465Y2165D02*
G03*
X28465Y23425I0J10630D01*
G01*
D02*
G03*
X28465Y2165I0J-10630D01*
G01*
X26228Y43307D02*
Y44094D01*
X41976Y43307D02*
Y44094D01*
X34488Y4134D02*
X37209Y1413D01*
X37217Y1422D02*
X40012Y4123D01*
X34488Y4134D02*
X37233Y6787D01*
X40010Y4124D01*
D60*
X15709Y12795D02*
G03*
X15709Y12795I-197J0D01*
G01*
D61*
X15231Y-76227D02*
Y-70229D01*
X18230D01*
X19230Y-71229D01*
Y-73228D01*
X18230Y-74228D01*
X15231D01*
X17230D02*
X19230Y-76227D01*
X25228D02*
X21229D01*
X25228Y-72229D01*
Y-71229D01*
X24228Y-70229D01*
X22229D01*
X21229Y-71229D01*
X27227D02*
X28227Y-70229D01*
X30226D01*
X31226Y-71229D01*
Y-72229D01*
X30226Y-73228D01*
X31226Y-74228D01*
Y-75228D01*
X30226Y-76227D01*
X28227D01*
X27227Y-75228D01*
Y-74228D01*
X28227Y-73228D01*
X27227Y-72229D01*
Y-71229D01*
X28227Y-73228D02*
X30226D01*
X158843Y-160781D02*
X156843D01*
X157843D01*
Y-165779D01*
X156843Y-166779D01*
X155844D01*
X154844Y-165779D01*
X164841Y-160781D02*
X160842D01*
Y-163779D01*
X162842Y-162780D01*
X163841D01*
X164841Y-163779D01*
Y-165779D01*
X163841Y-166779D01*
X161842D01*
X160842Y-165779D01*
X55662Y-6963D02*
X61660D01*
Y-9962D01*
X60661Y-10962D01*
X58661D01*
X57662Y-9962D01*
Y-6963D01*
Y-8963D02*
X55662Y-10962D01*
Y-16960D02*
Y-12961D01*
X59661Y-16960D01*
X60661D01*
X61660Y-15960D01*
Y-13961D01*
X60661Y-12961D01*
X61660Y-18959D02*
Y-22958D01*
X60661D01*
X56662Y-18959D01*
X55662D01*
X48182Y-6963D02*
X54180D01*
Y-9962D01*
X53180Y-10962D01*
X51181D01*
X50181Y-9962D01*
Y-6963D01*
Y-8963D02*
X48182Y-10962D01*
Y-16960D02*
Y-12961D01*
X52181Y-16960D01*
X53180D01*
X54180Y-15960D01*
Y-13961D01*
X53180Y-12961D01*
X54180Y-22958D02*
X53180Y-20959D01*
X51181Y-18959D01*
X49182D01*
X48182Y-19959D01*
Y-21958D01*
X49182Y-22958D01*
X50181D01*
X51181Y-21958D01*
Y-18959D01*
X-11691Y31739D02*
Y25741D01*
X-8692D01*
X-7693Y26741D01*
Y30740D01*
X-8692Y31739D01*
X-11691D01*
X-1695Y25741D02*
X-5693D01*
X-1695Y29740D01*
Y30740D01*
X-2694Y31739D01*
X-4693D01*
X-5693Y30740D01*
X-34009Y28435D02*
X-40007D01*
Y31434D01*
X-39007Y32434D01*
X-37008D01*
X-36008Y31434D01*
Y28435D01*
Y30435D02*
X-34009Y32434D01*
Y38432D02*
Y34433D01*
X-38008Y38432D01*
X-39007D01*
X-40007Y37432D01*
Y35433D01*
X-39007Y34433D01*
X-34009Y40431D02*
Y42431D01*
Y41431D01*
X-40007D01*
X-39007Y40431D01*
X-42277Y28223D02*
X-48275D01*
Y31222D01*
X-47275Y32222D01*
X-45276D01*
X-44276Y31222D01*
Y28223D01*
Y30222D02*
X-42277Y32222D01*
Y38220D02*
Y34221D01*
X-46275Y38220D01*
X-47275D01*
X-48275Y37220D01*
Y35221D01*
X-47275Y34221D01*
X-42277Y44218D02*
Y40219D01*
X-46275Y44218D01*
X-47275D01*
X-48275Y43218D01*
Y41219D01*
X-47275Y40219D01*
X-50151Y28285D02*
X-56149D01*
Y31284D01*
X-55149Y32283D01*
X-53150D01*
X-52150Y31284D01*
Y28285D01*
Y30284D02*
X-50151Y32283D01*
Y34283D02*
Y36282D01*
Y35282D01*
X-56149D01*
X-55149Y34283D01*
X-73745Y28103D02*
Y34101D01*
X-70746D01*
X-69747Y33102D01*
Y31102D01*
X-70746Y30103D01*
X-73745D01*
X-71746D02*
X-69747Y28103D01*
X-63749D02*
X-67747D01*
X-63749Y32102D01*
Y33102D01*
X-64748Y34101D01*
X-66748D01*
X-67747Y33102D01*
X-58750Y28103D02*
Y34101D01*
X-61749Y31102D01*
X-57751D01*
X-49963Y14204D02*
X-50963Y15204D01*
X-52962D01*
X-53962Y14204D01*
Y10205D01*
X-52962Y9206D01*
X-50963D01*
X-49963Y10205D01*
X-43965Y9206D02*
X-47964D01*
X-43965Y13204D01*
Y14204D01*
X-44965Y15204D01*
X-46964D01*
X-47964Y14204D01*
X-37967Y15204D02*
X-41966D01*
Y12205D01*
X-39966Y13204D01*
X-38967D01*
X-37967Y12205D01*
Y10205D01*
X-38967Y9206D01*
X-40966D01*
X-41966Y10205D01*
X-72321Y-21410D02*
Y-26409D01*
X-71321Y-27408D01*
X-69322D01*
X-68322Y-26409D01*
Y-21410D01*
X-62324Y-27408D02*
X-66323D01*
X-62324Y-23410D01*
Y-22410D01*
X-63324Y-21410D01*
X-65324D01*
X-66323Y-22410D01*
X-74139Y6843D02*
Y12842D01*
X-71140D01*
X-70140Y11842D01*
Y9843D01*
X-71140Y8843D01*
X-74139D01*
X-72140D02*
X-70140Y6843D01*
X-64142D02*
X-68141D01*
X-64142Y10842D01*
Y11842D01*
X-65142Y12842D01*
X-67141D01*
X-68141Y11842D01*
X-58144Y12842D02*
X-62143D01*
Y9843D01*
X-60144Y10842D01*
X-59144D01*
X-58144Y9843D01*
Y7843D01*
X-59144Y6843D01*
X-61143D01*
X-62143Y7843D01*
X-19436Y13804D02*
X-13438D01*
Y10806D01*
X-14438Y9806D01*
X-16437D01*
X-17437Y10806D01*
Y13804D01*
Y11805D02*
X-19436Y9806D01*
Y3808D02*
Y7806D01*
X-15437Y3808D01*
X-14438D01*
X-13438Y4807D01*
Y6807D01*
X-14438Y7806D01*
Y1808D02*
X-13438Y809D01*
Y-1191D01*
X-14438Y-2190D01*
X-15437D01*
X-16437Y-1191D01*
Y-191D01*
Y-1191D01*
X-17437Y-2190D01*
X-18436D01*
X-19436Y-1191D01*
Y809D01*
X-18436Y1808D01*
X-24016Y28316D02*
Y32314D01*
X-25015Y33314D01*
X-27015D01*
X-28014Y32314D01*
Y28316D01*
X-27015Y27316D01*
X-25015D01*
X-26015Y29315D02*
X-24016Y27316D01*
X-25015D02*
X-24016Y28316D01*
X-22016Y27316D02*
X-20017D01*
X-21017D01*
Y33314D01*
X-22016Y32314D01*
X-32640Y-10107D02*
X-33640Y-9107D01*
X-35640D01*
X-36639Y-10107D01*
Y-14106D01*
X-35640Y-15105D01*
X-33640D01*
X-32640Y-14106D01*
X-26642Y-15105D02*
X-30641D01*
X-26642Y-11107D01*
Y-10107D01*
X-27642Y-9107D01*
X-29641D01*
X-30641Y-10107D01*
X-21644Y-15105D02*
Y-9107D01*
X-24643Y-12106D01*
X-20644D01*
X79404Y123773D02*
Y129771D01*
X82403D01*
X83403Y128771D01*
Y126772D01*
X82403Y125772D01*
X79404D01*
X81403D02*
X83403Y123773D01*
X89401D02*
X85402D01*
X89401Y127771D01*
Y128771D01*
X88401Y129771D01*
X86402D01*
X85402Y128771D01*
X91400D02*
X92400Y129771D01*
X94399D01*
X95399Y128771D01*
Y124772D01*
X94399Y123773D01*
X92400D01*
X91400Y124772D01*
Y128771D01*
X-41007Y-64930D02*
X-42006Y-63930D01*
X-44006D01*
X-45005Y-64930D01*
Y-68928D01*
X-44006Y-69928D01*
X-42006D01*
X-41007Y-68928D01*
X-35008Y-69928D02*
X-39007D01*
X-35008Y-65929D01*
Y-64930D01*
X-36008Y-63930D01*
X-38008D01*
X-39007Y-64930D01*
X-33009D02*
X-32010Y-63930D01*
X-30010D01*
X-29010Y-64930D01*
Y-65929D01*
X-30010Y-66929D01*
X-31010D01*
X-30010D01*
X-29010Y-67929D01*
Y-68928D01*
X-30010Y-69928D01*
X-32010D01*
X-33009Y-68928D01*
X-63565Y-61065D02*
Y-55067D01*
X-60566D01*
X-59567Y-56067D01*
Y-58066D01*
X-60566Y-59066D01*
X-63565D01*
X-61566D02*
X-59567Y-61065D01*
X-57567D02*
X-55568D01*
X-56568D01*
Y-55067D01*
X-57567Y-56067D01*
X-52569Y-60066D02*
X-51569Y-61065D01*
X-49570D01*
X-48570Y-60066D01*
Y-56067D01*
X-49570Y-55067D01*
X-51569D01*
X-52569Y-56067D01*
Y-57067D01*
X-51569Y-58066D01*
X-48570D01*
X-142732Y-108025D02*
X-144731D01*
X-143732D01*
Y-113023D01*
X-144731Y-114023D01*
X-145731D01*
X-146731Y-113023D01*
X-136734Y-114023D02*
X-140733D01*
X-136734Y-110024D01*
Y-109024D01*
X-137734Y-108025D01*
X-139733D01*
X-140733Y-109024D01*
X-35282Y117747D02*
X-36282Y118747D01*
X-38282D01*
X-39281Y117747D01*
Y113749D01*
X-38282Y112749D01*
X-36282D01*
X-35282Y113749D01*
X-29284Y112749D02*
X-33283D01*
X-29284Y116748D01*
Y117747D01*
X-30284Y118747D01*
X-32283D01*
X-33283Y117747D01*
X-27285Y112749D02*
X-25286D01*
X-26285D01*
Y118747D01*
X-27285Y117747D01*
X25135Y57723D02*
Y52725D01*
X26135Y51725D01*
X28134D01*
X29134Y52725D01*
Y57723D01*
X31133Y51725D02*
X33133D01*
X32133D01*
Y57723D01*
X31133Y56724D01*
X48607Y55149D02*
X47607Y56149D01*
X45608D01*
X44608Y55149D01*
Y51150D01*
X45608Y50151D01*
X47607D01*
X48607Y51150D01*
X54605Y50151D02*
X50606D01*
X54605Y54149D01*
Y55149D01*
X53605Y56149D01*
X51606D01*
X50606Y55149D01*
X46850Y25621D02*
X45851Y26621D01*
X43851D01*
X42852Y25621D01*
Y21623D01*
X43851Y20623D01*
X45851D01*
X46850Y21623D01*
X48850Y20623D02*
X50849D01*
X49849D01*
Y26621D01*
X48850Y25621D01*
X-36039Y-33040D02*
X-37039Y-32040D01*
X-39038D01*
X-40038Y-33040D01*
Y-37039D01*
X-39038Y-38038D01*
X-37039D01*
X-36039Y-37039D01*
X-34040Y-33040D02*
X-33040Y-32040D01*
X-31041D01*
X-30041Y-33040D01*
Y-34040D01*
X-31041Y-35039D01*
X-32040D01*
X-31041D01*
X-30041Y-36039D01*
Y-37039D01*
X-31041Y-38038D01*
X-33040D01*
X-34040Y-37039D01*
X46488Y-78603D02*
X47487Y-77604D01*
Y-75604D01*
X46488Y-74604D01*
X42489D01*
X41489Y-75604D01*
Y-77604D01*
X42489Y-78603D01*
X41489Y-80603D02*
Y-82602D01*
Y-81602D01*
X47487D01*
X46488Y-80603D01*
X41489Y-85601D02*
Y-87600D01*
Y-86601D01*
X47487D01*
X46488Y-85601D01*
X38220Y-78785D02*
X39219Y-77785D01*
Y-75786D01*
X38220Y-74786D01*
X34221D01*
X33221Y-75786D01*
Y-77785D01*
X34221Y-78785D01*
X33221Y-80784D02*
Y-82783D01*
Y-81784D01*
X39219D01*
X38220Y-80784D01*
X33221Y-89781D02*
Y-85782D01*
X37220Y-89781D01*
X38220D01*
X39219Y-88781D01*
Y-86782D01*
X38220Y-85782D01*
X45851Y-38158D02*
X44851Y-37158D01*
X42852D01*
X41852Y-38158D01*
Y-42157D01*
X42852Y-43156D01*
X44851D01*
X45851Y-42157D01*
X47850Y-37158D02*
X51849D01*
Y-38158D01*
X47850Y-42157D01*
Y-43156D01*
X66173Y-40339D02*
X67172Y-39339D01*
Y-37340D01*
X66173Y-36340D01*
X62174D01*
X61174Y-37340D01*
Y-39339D01*
X62174Y-40339D01*
X66173Y-42338D02*
X67172Y-43338D01*
Y-45337D01*
X66173Y-46337D01*
X65173D01*
X64173Y-45337D01*
X63174Y-46337D01*
X62174D01*
X61174Y-45337D01*
Y-43338D01*
X62174Y-42338D01*
X63174D01*
X64173Y-43338D01*
X65173Y-42338D01*
X66173D01*
X64173Y-43338D02*
Y-45337D01*
X58299Y-39945D02*
X59298Y-38945D01*
Y-36946D01*
X58299Y-35947D01*
X54300D01*
X53300Y-36946D01*
Y-38945D01*
X54300Y-39945D01*
X59298Y-45943D02*
X58299Y-43944D01*
X56299Y-41945D01*
X54300D01*
X53300Y-42944D01*
Y-44944D01*
X54300Y-45943D01*
X55300D01*
X56299Y-44944D01*
Y-41945D01*
X74047Y-40733D02*
X75046Y-39733D01*
Y-37734D01*
X74047Y-36734D01*
X70048D01*
X69048Y-37734D01*
Y-39733D01*
X70048Y-40733D01*
Y-42732D02*
X69048Y-43732D01*
Y-45731D01*
X70048Y-46731D01*
X74047D01*
X75046Y-45731D01*
Y-43732D01*
X74047Y-42732D01*
X73047D01*
X72047Y-43732D01*
Y-46731D01*
X202233Y-84767D02*
X200234D01*
X201234D01*
Y-89766D01*
X200234Y-90765D01*
X199234D01*
X198235Y-89766D01*
X208231Y-84767D02*
X206232Y-85767D01*
X204233Y-87766D01*
Y-89766D01*
X205232Y-90765D01*
X207232D01*
X208231Y-89766D01*
Y-88766D01*
X207232Y-87766D01*
X204233D01*
X70229Y103954D02*
X76227D01*
Y100955D01*
X75228Y99955D01*
X73228D01*
X72229Y100955D01*
Y103954D01*
Y101955D02*
X70229Y99955D01*
Y97956D02*
Y95957D01*
Y96956D01*
X76227D01*
X75228Y97956D01*
Y92958D02*
X76227Y91958D01*
Y89959D01*
X75228Y88959D01*
X74228D01*
X73228Y89959D01*
Y90958D01*
Y89959D01*
X72229Y88959D01*
X71229D01*
X70229Y89959D01*
Y91958D01*
X71229Y92958D01*
X54875Y103167D02*
X60873D01*
Y100168D01*
X59873Y99168D01*
X57874D01*
X56874Y100168D01*
Y103167D01*
Y101168D02*
X54875Y99168D01*
Y97169D02*
Y95169D01*
Y96169D01*
X60873D01*
X59873Y97169D01*
X54875Y88172D02*
Y92170D01*
X58874Y88172D01*
X59873D01*
X60873Y89171D01*
Y91171D01*
X59873Y92170D01*
X29572Y110267D02*
X28572Y111267D01*
X26573D01*
X25573Y110267D01*
Y106268D01*
X26573Y105269D01*
X28572D01*
X29572Y106268D01*
X31571Y105269D02*
X33571D01*
X32571D01*
Y111267D01*
X31571Y110267D01*
X36570D02*
X37569Y111267D01*
X39569D01*
X40569Y110267D01*
Y109267D01*
X39569Y108268D01*
X40569Y107268D01*
Y106268D01*
X39569Y105269D01*
X37569D01*
X36570Y106268D01*
Y107268D01*
X37569Y108268D01*
X36570Y109267D01*
Y110267D01*
X37569Y108268D02*
X39569D01*
X42639Y79771D02*
Y74772D01*
X43639Y73773D01*
X45638D01*
X46638Y74772D01*
Y79771D01*
X52636D02*
X50637Y78771D01*
X48638Y76772D01*
Y74772D01*
X49637Y73773D01*
X51636D01*
X52636Y74772D01*
Y75772D01*
X51636Y76772D01*
X48638D01*
X6843Y105135D02*
X12842D01*
Y102136D01*
X11842Y101137D01*
X9843D01*
X8843Y102136D01*
Y105135D01*
Y103136D02*
X6843Y101137D01*
Y99137D02*
Y97138D01*
Y98138D01*
X12842D01*
X11842Y99137D01*
X6843Y91140D02*
X12842D01*
X9843Y94139D01*
Y90140D01*
X969Y64598D02*
X-31Y65597D01*
X-2030D01*
X-3030Y64598D01*
Y60599D01*
X-2030Y59599D01*
X-31D01*
X969Y60599D01*
X6967Y65597D02*
X2968D01*
Y62598D01*
X4967Y63598D01*
X5967D01*
X6967Y62598D01*
Y60599D01*
X5967Y59599D01*
X3968D01*
X2968Y60599D01*
X-17203Y54967D02*
Y49969D01*
X-16203Y48970D01*
X-14204D01*
X-13204Y49969D01*
Y54967D01*
X-11205Y53968D02*
X-10205Y54967D01*
X-8206D01*
X-7206Y53968D01*
Y52968D01*
X-8206Y51968D01*
X-9206D01*
X-8206D01*
X-7206Y50969D01*
Y49969D01*
X-8206Y48970D01*
X-10205D01*
X-11205Y49969D01*
X17354Y44307D02*
X18353Y45306D01*
Y47306D01*
X17354Y48305D01*
X13355D01*
X12355Y47306D01*
Y45306D01*
X13355Y44307D01*
X12355Y39308D02*
X18353D01*
X15354Y42307D01*
Y38309D01*
X14324Y71671D02*
X20322D01*
Y68672D01*
X19322Y67672D01*
X17323D01*
X16323Y68672D01*
Y71671D01*
Y69671D02*
X14324Y67672D01*
Y65673D02*
Y63673D01*
Y64673D01*
X20322D01*
X19322Y65673D01*
X20322Y60674D02*
Y56676D01*
X19322D01*
X15324Y60674D01*
X14324D01*
X29510Y65899D02*
Y71897D01*
X32509D01*
X33509Y70897D01*
Y68898D01*
X32509Y67898D01*
X29510D01*
X31510D02*
X33509Y65899D01*
X35508D02*
X37508D01*
X36508D01*
Y71897D01*
X35508Y70897D01*
X44506Y71897D02*
X42506Y70897D01*
X40507Y68898D01*
Y66898D01*
X41506Y65899D01*
X43506D01*
X44506Y66898D01*
Y67898D01*
X43506Y68898D01*
X40507D01*
X-1030Y89387D02*
X4967D01*
Y86388D01*
X3968Y85389D01*
X1969D01*
X969Y86388D01*
Y89387D01*
Y87388D02*
X-1030Y85389D01*
Y83389D02*
Y81390D01*
Y82390D01*
X4967D01*
X3968Y83389D01*
X4967Y74392D02*
Y78391D01*
X1969D01*
X2968Y76392D01*
Y75392D01*
X1969Y74392D01*
X-31D01*
X-1030Y75392D01*
Y77391D01*
X-31Y78391D01*
X31434Y143338D02*
X30435Y144338D01*
X28435D01*
X27436Y143338D01*
Y139339D01*
X28435Y138340D01*
X30435D01*
X31434Y139339D01*
X37432Y138340D02*
X33434D01*
X37432Y142338D01*
Y143338D01*
X36433Y144338D01*
X34433D01*
X33434Y143338D01*
X43431Y138340D02*
X39432D01*
X43431Y142338D01*
Y143338D01*
X42431Y144338D01*
X40431D01*
X39432Y143338D01*
X71198Y142944D02*
X70199Y143944D01*
X68199D01*
X67199Y142944D01*
Y138945D01*
X68199Y137946D01*
X70199D01*
X71198Y138945D01*
X77196Y137946D02*
X73198D01*
X77196Y141945D01*
Y142944D01*
X76196Y143944D01*
X74197D01*
X73198Y142944D01*
X79196D02*
X80195Y143944D01*
X82195D01*
X83194Y142944D01*
Y138945D01*
X82195Y137946D01*
X80195D01*
X79196Y138945D01*
Y142944D01*
X-33345Y99062D02*
Y93064D01*
X-29346D01*
X-23348D02*
X-27347D01*
X-23348Y97063D01*
Y98062D01*
X-24348Y99062D01*
X-26347D01*
X-27347Y98062D01*
X-12872Y108511D02*
Y103513D01*
X-11873Y102513D01*
X-9873D01*
X-8874Y103513D01*
Y108511D01*
X-6874D02*
X-2876D01*
Y107511D01*
X-6874Y103513D01*
Y102513D01*
X-68128Y135977D02*
Y141975D01*
X-65128D01*
X-64129Y140976D01*
Y138976D01*
X-65128Y137977D01*
X-68128D01*
X-66128D02*
X-64129Y135977D01*
X-62129D02*
X-60130D01*
X-61130D01*
Y141975D01*
X-62129Y140976D01*
X-57131D02*
X-56131Y141975D01*
X-54132D01*
X-53132Y140976D01*
Y139976D01*
X-54132Y138976D01*
X-53132Y137977D01*
Y136977D01*
X-54132Y135977D01*
X-56131D01*
X-57131Y136977D01*
Y137977D01*
X-56131Y138976D01*
X-57131Y139976D01*
Y140976D01*
X-56131Y138976D02*
X-54132D01*
X-66097Y93338D02*
X-67097Y94338D01*
X-69096D01*
X-70096Y93338D01*
Y89339D01*
X-69096Y88340D01*
X-67097D01*
X-66097Y89339D01*
X-64098Y88340D02*
X-62099D01*
X-63098D01*
Y94338D01*
X-64098Y93338D01*
X-59100Y89339D02*
X-58100Y88340D01*
X-56100D01*
X-55101Y89339D01*
Y93338D01*
X-56100Y94338D01*
X-58100D01*
X-59100Y93338D01*
Y92338D01*
X-58100Y91339D01*
X-55101D01*
X-105365Y180235D02*
Y186233D01*
X-103366Y184233D01*
X-101367Y186233D01*
Y180235D01*
X-99367D02*
X-97368D01*
X-98368D01*
Y186233D01*
X-99367Y185233D01*
X15735Y32633D02*
Y26635D01*
X18734D01*
X19733Y27634D01*
Y31633D01*
X18734Y32633D01*
X15735D01*
X21733Y31633D02*
X22732Y32633D01*
X24732D01*
X25731Y31633D01*
Y30633D01*
X24732Y29634D01*
X23732D01*
X24732D01*
X25731Y28634D01*
Y27634D01*
X24732Y26635D01*
X22732D01*
X21733Y27634D01*
X56419Y-83221D02*
Y-88220D01*
X57419Y-89219D01*
X59418D01*
X60418Y-88220D01*
Y-83221D01*
X65416Y-89219D02*
Y-83221D01*
X62417Y-86221D01*
X66416D01*
X-8935Y-36765D02*
Y-41763D01*
X-7936Y-42763D01*
X-5936D01*
X-4937Y-41763D01*
Y-36765D01*
X1061D02*
X-2937D01*
Y-39764D01*
X-938Y-38764D01*
X62D01*
X1061Y-39764D01*
Y-41763D01*
X62Y-42763D01*
X-1938D01*
X-2937Y-41763D01*
X45700Y-11856D02*
X46700Y-10856D01*
Y-8856D01*
X45700Y-7857D01*
X41701D01*
X40702Y-8856D01*
Y-10856D01*
X41701Y-11856D01*
X40702Y-13855D02*
Y-15854D01*
Y-14854D01*
X46700D01*
X45700Y-13855D01*
X40702Y-21852D02*
X46700D01*
X43701Y-18853D01*
Y-22852D01*
X10387Y-13749D02*
X9387Y-12749D01*
X7388D01*
X6388Y-13749D01*
Y-17747D01*
X7388Y-18747D01*
X9387D01*
X10387Y-17747D01*
X12386Y-18747D02*
X14386D01*
X13386D01*
Y-12749D01*
X12386Y-13749D01*
X17385Y-12749D02*
X21383D01*
Y-13749D01*
X17385Y-17747D01*
Y-18747D01*
X13174Y3786D02*
X11174D01*
X12174D01*
Y-1212D01*
X11174Y-2212D01*
X10175D01*
X9175Y-1212D01*
X18172Y-2212D02*
Y3786D01*
X15173Y787D01*
X19172D01*
X-16022Y-11174D02*
Y-17172D01*
X-13023D01*
X-12023Y-16173D01*
Y-12174D01*
X-13023Y-11174D01*
X-16022D01*
X-7025Y-17172D02*
Y-11174D01*
X-10024Y-14173D01*
X-6025D01*
X27210Y-50363D02*
X26210Y-49363D01*
X24211D01*
X23211Y-50363D01*
Y-54361D01*
X24211Y-55361D01*
X26210D01*
X27210Y-54361D01*
X29209Y-55361D02*
X31209D01*
X30209D01*
Y-49363D01*
X29209Y-50363D01*
X34207D02*
X35207Y-49363D01*
X37207D01*
X38206Y-50363D01*
Y-51363D01*
X37207Y-52362D01*
X36207D01*
X37207D01*
X38206Y-53362D01*
Y-54361D01*
X37207Y-55361D01*
X35207D01*
X34207Y-54361D01*
X13233Y-58040D02*
X12234Y-57040D01*
X10234D01*
X9235Y-58040D01*
Y-62039D01*
X10234Y-63038D01*
X12234D01*
X13233Y-62039D01*
X15233Y-63038D02*
X17232D01*
X16232D01*
Y-57040D01*
X15233Y-58040D01*
X24230Y-57040D02*
X22230Y-58040D01*
X20231Y-60039D01*
Y-62039D01*
X21231Y-63038D01*
X23230D01*
X24230Y-62039D01*
Y-61039D01*
X23230Y-60039D01*
X20231D01*
X32434Y-37915D02*
X38432D01*
Y-40914D01*
X37432Y-41914D01*
X35433D01*
X34433Y-40914D01*
Y-37915D01*
Y-39914D02*
X32434Y-41914D01*
Y-46912D02*
X38432D01*
X35433Y-43913D01*
Y-47912D01*
X-5952Y-45652D02*
X46D01*
Y-48651D01*
X-953Y-49651D01*
X-2953D01*
X-3952Y-48651D01*
Y-45652D01*
Y-47651D02*
X-5952Y-49651D01*
Y-51650D02*
Y-53649D01*
Y-52650D01*
X46D01*
X-953Y-51650D01*
Y-56648D02*
X46Y-57648D01*
Y-59648D01*
X-953Y-60647D01*
X-4952D01*
X-5952Y-59648D01*
Y-57648D01*
X-4952Y-56648D01*
X-953D01*
X6921Y-54572D02*
X7920Y-53572D01*
Y-51573D01*
X6921Y-50573D01*
X2922D01*
X1922Y-51573D01*
Y-53572D01*
X2922Y-54572D01*
X1922Y-56571D02*
Y-58571D01*
Y-57571D01*
X7920D01*
X6921Y-56571D01*
Y-61570D02*
X7920Y-62569D01*
Y-64569D01*
X6921Y-65568D01*
X2922D01*
X1922Y-64569D01*
Y-62569D01*
X2922Y-61570D01*
X6921D01*
X-12764Y-26029D02*
X-11765Y-25029D01*
Y-23030D01*
X-12764Y-22030D01*
X-16763D01*
X-17763Y-23030D01*
Y-25029D01*
X-16763Y-26029D01*
X-17763Y-28028D02*
Y-30027D01*
Y-29028D01*
X-11765D01*
X-12764Y-28028D01*
X-11765Y-37025D02*
Y-33026D01*
X-14764D01*
X-13764Y-35026D01*
Y-36026D01*
X-14764Y-37025D01*
X-16763D01*
X-17763Y-36026D01*
Y-34026D01*
X-16763Y-33026D01*
X94880Y-84692D02*
Y-78694D01*
X97879D01*
X98879Y-79694D01*
Y-81693D01*
X97879Y-82693D01*
X94880D01*
X96879D02*
X98879Y-84692D01*
X100878D02*
X102877D01*
X101878D01*
Y-78694D01*
X100878Y-79694D01*
X105877Y-84692D02*
X107876D01*
X106876D01*
Y-78694D01*
X105877Y-79694D01*
X95395Y-75834D02*
Y-69836D01*
X98394D01*
X99394Y-70835D01*
Y-72835D01*
X98394Y-73834D01*
X95395D01*
X97395D02*
X99394Y-75834D01*
X101393Y-74834D02*
X102393Y-75834D01*
X104392D01*
X105392Y-74834D01*
Y-70835D01*
X104392Y-69836D01*
X102393D01*
X101393Y-70835D01*
Y-71835D01*
X102393Y-72835D01*
X105392D01*
X95395Y-66975D02*
Y-60977D01*
X98394D01*
X99394Y-61977D01*
Y-63976D01*
X98394Y-64976D01*
X95395D01*
X97395D02*
X99394Y-66975D01*
X105392Y-60977D02*
X103393Y-61977D01*
X101393Y-63976D01*
Y-65976D01*
X102393Y-66975D01*
X104392D01*
X105392Y-65976D01*
Y-64976D01*
X104392Y-63976D01*
X101393D01*
X95395Y-58117D02*
Y-52119D01*
X98394D01*
X99394Y-53119D01*
Y-55118D01*
X98394Y-56118D01*
X95395D01*
X97395D02*
X99394Y-58117D01*
X105392Y-52119D02*
X101393D01*
Y-55118D01*
X103393Y-54119D01*
X104392D01*
X105392Y-55118D01*
Y-57117D01*
X104392Y-58117D01*
X102393D01*
X101393Y-57117D01*
X95395Y-49259D02*
Y-43261D01*
X98394D01*
X99394Y-44260D01*
Y-46260D01*
X98394Y-47260D01*
X95395D01*
X97395D02*
X99394Y-49259D01*
X101393Y-44260D02*
X102393Y-43261D01*
X104392D01*
X105392Y-44260D01*
Y-45260D01*
X104392Y-46260D01*
X103393D01*
X104392D01*
X105392Y-47260D01*
Y-48259D01*
X104392Y-49259D01*
X102393D01*
X101393Y-48259D01*
X32828Y-12325D02*
X38826D01*
Y-15324D01*
X37826Y-16323D01*
X35827D01*
X34827Y-15324D01*
Y-12325D01*
Y-14324D02*
X32828Y-16323D01*
X38826Y-18323D02*
Y-22321D01*
X37826D01*
X33827Y-18323D01*
X32828D01*
X-4967Y-12718D02*
X1030D01*
Y-15717D01*
X31Y-16717D01*
X-1969D01*
X-2968Y-15717D01*
Y-12718D01*
Y-14717D02*
X-4967Y-16717D01*
X31Y-18716D02*
X1030Y-19716D01*
Y-21715D01*
X31Y-22715D01*
X-969D01*
X-1969Y-21715D01*
X-2968Y-22715D01*
X-3968D01*
X-4967Y-21715D01*
Y-19716D01*
X-3968Y-18716D01*
X-2968D01*
X-1969Y-19716D01*
X-969Y-18716D01*
X31D01*
X-1969Y-19716D02*
Y-21715D01*
X95395Y-40401D02*
Y-34403D01*
X98394D01*
X99394Y-35402D01*
Y-37402D01*
X98394Y-38401D01*
X95395D01*
X97395D02*
X99394Y-40401D01*
X105392D02*
X101393D01*
X105392Y-36402D01*
Y-35402D01*
X104392Y-34403D01*
X102393D01*
X101393Y-35402D01*
X178633Y102233D02*
X176634D01*
X177634D01*
Y97234D01*
X176634Y96235D01*
X175634D01*
X174635Y97234D01*
X180633Y101233D02*
X181632Y102233D01*
X183632D01*
X184631Y101233D01*
Y100233D01*
X183632Y99234D01*
X182632D01*
X183632D01*
X184631Y98234D01*
Y97234D01*
X183632Y96235D01*
X181632D01*
X180633Y97234D01*
X170333Y177133D02*
X168334D01*
X169334D01*
Y172134D01*
X168334Y171135D01*
X167334D01*
X166335Y172134D01*
X172333Y171135D02*
X174332D01*
X173332D01*
Y177133D01*
X172333Y176133D01*
%TF.MD5,a9e6e1e0db217f5ce09bfcaadfefc1b9*%
M02*
