%TF.GenerationSoftware,Altium Limited,Altium Designer,23.9.2 (47)*%
G04 Layer_Color=8388736*
%FSLAX25Y25*%
%MOIN*%
%TF.SameCoordinates,F944BC78-FABB-4A85-9D96-7E9E55BFA98D*%
%TF.FilePolarity,Negative*%
%TF.FileFunction,Soldermask,Top*%
%TF.Part,Single*%
G01*
G75*
%TA.AperFunction,SMDPad,CuDef*%
%ADD62R,0.03556X0.04343*%
G04:AMPARAMS|DCode=63|XSize=17.06mil|YSize=21.39mil|CornerRadius=4.91mil|HoleSize=0mil|Usage=FLASHONLY|Rotation=180.000|XOffset=0mil|YOffset=0mil|HoleType=Round|Shape=RoundedRectangle|*
%AMROUNDEDRECTD63*
21,1,0.01706,0.01158,0,0,180.0*
21,1,0.00724,0.02139,0,0,180.0*
1,1,0.00981,-0.00362,0.00579*
1,1,0.00981,0.00362,0.00579*
1,1,0.00981,0.00362,-0.00579*
1,1,0.00981,-0.00362,-0.00579*
%
%ADD63ROUNDEDRECTD63*%
G04:AMPARAMS|DCode=64|XSize=17.06mil|YSize=25.32mil|CornerRadius=4.91mil|HoleSize=0mil|Usage=FLASHONLY|Rotation=180.000|XOffset=0mil|YOffset=0mil|HoleType=Round|Shape=RoundedRectangle|*
%AMROUNDEDRECTD64*
21,1,0.01706,0.01551,0,0,180.0*
21,1,0.00724,0.02532,0,0,180.0*
1,1,0.00981,-0.00362,0.00776*
1,1,0.00981,0.00362,0.00776*
1,1,0.00981,0.00362,-0.00776*
1,1,0.00981,-0.00362,-0.00776*
%
%ADD64ROUNDEDRECTD64*%
%ADD65R,0.06706X0.06706*%
%ADD66R,0.04343X0.03556*%
%ADD67R,0.04737X0.04737*%
%ADD68R,0.03359X0.06816*%
%ADD69R,0.06115X0.07296*%
%ADD70R,0.01981X0.02178*%
%ADD71R,0.04540X0.06706*%
%ADD72R,0.01725X0.04225*%
%ADD73R,0.05918X0.06509*%
%ADD74R,0.13202X0.07887*%
%ADD75R,0.06509X0.05918*%
%ADD76R,0.03654X0.03556*%
%ADD77R,0.04737X0.04737*%
%ADD78R,0.04698X0.04501*%
%ADD79R,0.07887X0.13202*%
%ADD80R,0.12611X0.07099*%
%ADD81R,0.25210X0.23635*%
%ADD82R,0.04934X0.02178*%
%ADD83R,0.02178X0.04934*%
%ADD84R,0.09698X0.09698*%
%ADD85R,0.07887X0.07887*%
%ADD86R,0.01587X0.03950*%
%ADD87R,0.03950X0.01587*%
%ADD88R,0.06410X0.02572*%
%ADD89R,0.06706X0.06706*%
%ADD90R,0.02769X0.02375*%
%TA.AperFunction,ComponentPad*%
%ADD91C,0.07099*%
%ADD92R,0.07099X0.07099*%
%TA.AperFunction,ViaPad*%
%ADD93C,0.20485*%
%TA.AperFunction,ComponentPad*%
%ADD94C,0.06706*%
%ADD95R,0.06706X0.06706*%
%ADD96C,0.31509*%
%ADD97R,0.07099X0.07099*%
%ADD98C,0.05493*%
%ADD99R,0.05493X0.05493*%
%TA.AperFunction,ViaPad*%
%ADD100C,0.03950*%
%ADD101C,0.03556*%
%ADD102C,0.05800*%
D62*
X29662Y-65748D02*
D03*
X23151D02*
D03*
X-67823Y23622D02*
D03*
X-61311D02*
D03*
X-61417Y16929D02*
D03*
X-67929D02*
D03*
X80315Y134646D02*
D03*
X86827D02*
D03*
X-62205Y-66929D02*
D03*
X-55693D02*
D03*
X90854Y-37402D02*
D03*
X84342D02*
D03*
Y-46260D02*
D03*
X90854D02*
D03*
X84342Y-55118D02*
D03*
X90854D02*
D03*
Y-63976D02*
D03*
X84342D02*
D03*
Y-72835D02*
D03*
X90854D02*
D03*
X84342Y-81693D02*
D03*
X90854D02*
D03*
X-46957Y137008D02*
D03*
X-40445D02*
D03*
D63*
X170079Y166850D02*
D03*
X172441D02*
D03*
X174803D02*
D03*
X177165D02*
D03*
X179527D02*
D03*
X181890D02*
D03*
X184252D02*
D03*
X-140945Y-127480D02*
D03*
X-138583D02*
D03*
X-136221D02*
D03*
X-133858D02*
D03*
X-131496D02*
D03*
X-129134D02*
D03*
X-126772D02*
D03*
D64*
X168898Y155984D02*
D03*
X171260D02*
D03*
X173622D02*
D03*
X175984D02*
D03*
X178347D02*
D03*
X180709D02*
D03*
X183071D02*
D03*
X185433D02*
D03*
X-142126Y-116614D02*
D03*
X-139764D02*
D03*
X-137402D02*
D03*
X-135039D02*
D03*
X-132677D02*
D03*
X-130315D02*
D03*
X-127953D02*
D03*
X-125591D02*
D03*
D65*
X-147638Y-147638D02*
D03*
D66*
X54724Y-26665D02*
D03*
Y-33177D02*
D03*
X47638Y-33177D02*
D03*
Y-26665D02*
D03*
X-39764Y24122D02*
D03*
Y17610D02*
D03*
X-47244Y24122D02*
D03*
Y17610D02*
D03*
X-53937Y17717D02*
D03*
Y24228D02*
D03*
X28607Y-46884D02*
D03*
Y-40372D02*
D03*
X32480Y-26584D02*
D03*
Y-33095D02*
D03*
X-984Y-32792D02*
D03*
Y-26281D02*
D03*
X4905Y-46884D02*
D03*
Y-40372D02*
D03*
X50787Y101681D02*
D03*
Y95169D02*
D03*
X16929Y88476D02*
D03*
Y94988D02*
D03*
X24409Y66932D02*
D03*
Y73444D02*
D03*
X9055Y84646D02*
D03*
Y78134D02*
D03*
X65748Y101969D02*
D03*
Y95457D02*
D03*
X16929Y81996D02*
D03*
Y75484D02*
D03*
D67*
X-48819Y5906D02*
D03*
X-43095D02*
D03*
X40264Y31593D02*
D03*
X34539D02*
D03*
X19594Y-53279D02*
D03*
X13870D02*
D03*
X23622Y-18110D02*
D03*
X29346D02*
D03*
X29028Y100787D02*
D03*
X34752D02*
D03*
D68*
X-43287Y-2713D02*
D03*
X-48287D02*
D03*
X-53287D02*
D03*
X-58287D02*
D03*
Y-24059D02*
D03*
X-53287D02*
D03*
X-48287D02*
D03*
X-43287D02*
D03*
D69*
X-34350Y6299D02*
D03*
X-23917D02*
D03*
D70*
X-23425Y22539D02*
D03*
X-25984D02*
D03*
X-28543D02*
D03*
Y15256D02*
D03*
X-25984D02*
D03*
X-23425D02*
D03*
D71*
X-24705Y18898D02*
D03*
D72*
X-28614D02*
D03*
D73*
X-30421Y-4724D02*
D03*
X-23122D02*
D03*
X7980Y54803D02*
D03*
X681D02*
D03*
D74*
X-57284Y-86614D02*
D03*
X-37205D02*
D03*
X68898Y124803D02*
D03*
X48819D02*
D03*
D75*
X-31509Y124303D02*
D03*
Y131602D02*
D03*
X48819Y44988D02*
D03*
Y37689D02*
D03*
X-34252Y-19185D02*
D03*
Y-26484D02*
D03*
X36435Y-62729D02*
D03*
Y-70029D02*
D03*
X44291Y-54831D02*
D03*
Y-47532D02*
D03*
X68174Y-60736D02*
D03*
Y-53437D02*
D03*
X32283Y132890D02*
D03*
Y125591D02*
D03*
D76*
X27756Y46457D02*
D03*
X31988D02*
D03*
X36220D02*
D03*
X40453D02*
D03*
Y40945D02*
D03*
X36220D02*
D03*
X31988D02*
D03*
X27756D02*
D03*
D77*
X44570Y-69791D02*
D03*
Y-64067D02*
D03*
X60039Y-55209D02*
D03*
Y-60933D02*
D03*
X52889Y-55209D02*
D03*
Y-60933D02*
D03*
X8268Y46839D02*
D03*
Y41114D02*
D03*
X11811Y-40766D02*
D03*
Y-46490D02*
D03*
X21654Y-40766D02*
D03*
Y-46490D02*
D03*
X39434Y-32702D02*
D03*
Y-26977D02*
D03*
X-7891Y-32702D02*
D03*
Y-26977D02*
D03*
D78*
X-25984Y103956D02*
D03*
X-31772D02*
D03*
D79*
X-55118Y105315D02*
D03*
Y125394D02*
D03*
D80*
X16858Y133405D02*
D03*
Y115413D02*
D03*
D81*
X-11409Y124409D02*
D03*
D82*
X25787Y90453D02*
D03*
Y87894D02*
D03*
Y85335D02*
D03*
Y82776D02*
D03*
X40354D02*
D03*
Y85335D02*
D03*
Y87894D02*
D03*
Y90453D02*
D03*
D83*
X29232Y79331D02*
D03*
X31791D02*
D03*
X34350D02*
D03*
X36909D02*
D03*
Y93898D02*
D03*
X34350D02*
D03*
X31791D02*
D03*
X29232D02*
D03*
D84*
X33071Y86614D02*
D03*
D85*
X57087Y-73819D02*
D03*
D86*
X53937Y-67913D02*
D03*
X55512D02*
D03*
X57087D02*
D03*
X58661D02*
D03*
X60236D02*
D03*
Y-79724D02*
D03*
X58661D02*
D03*
X57087D02*
D03*
X55512D02*
D03*
X53937D02*
D03*
D87*
X62992Y-70669D02*
D03*
Y-72244D02*
D03*
Y-73819D02*
D03*
Y-75394D02*
D03*
Y-76968D02*
D03*
X51181D02*
D03*
Y-75394D02*
D03*
Y-73819D02*
D03*
Y-72244D02*
D03*
Y-70669D02*
D03*
D88*
X7039Y-26001D02*
D03*
Y-28560D02*
D03*
Y-31119D02*
D03*
Y-33678D02*
D03*
X24457D02*
D03*
Y-31119D02*
D03*
Y-28560D02*
D03*
Y-26001D02*
D03*
D89*
X16755Y-6890D02*
D03*
X32503D02*
D03*
X24629D02*
D03*
X5315D02*
D03*
X-7283D02*
D03*
D90*
X-4429Y46732D02*
D03*
X-1575D02*
D03*
X1280D02*
D03*
Y43976D02*
D03*
X-1575D02*
D03*
X-4429D02*
D03*
D91*
X201181Y-163779D02*
D03*
X191181D02*
D03*
X181181D02*
D03*
X200787Y-127284D02*
D03*
Y-117283D02*
D03*
Y-107283D02*
D03*
X187165Y59701D02*
D03*
X177165Y-30299D02*
D03*
X187165Y69701D02*
D03*
X177165Y-40299D02*
D03*
X187165D02*
D03*
Y-30299D02*
D03*
Y-20299D02*
D03*
Y-10299D02*
D03*
Y-299D02*
D03*
Y9701D02*
D03*
Y19701D02*
D03*
Y29701D02*
D03*
Y39701D02*
D03*
Y49701D02*
D03*
X177165Y-20299D02*
D03*
Y-10299D02*
D03*
Y-299D02*
D03*
Y9701D02*
D03*
Y19701D02*
D03*
Y29701D02*
D03*
Y39701D02*
D03*
Y49701D02*
D03*
Y59701D02*
D03*
Y69701D02*
D03*
Y79701D02*
D03*
X187165D02*
D03*
Y89701D02*
D03*
D92*
X171181Y-163779D02*
D03*
D93*
X187008Y187008D02*
D03*
X-147638D02*
D03*
Y-147638D02*
D03*
X187008D02*
D03*
D94*
X-984Y18701D02*
D03*
D95*
Y8858D02*
D03*
D96*
X129921Y66929D02*
D03*
Y35433D02*
D03*
Y3937D02*
D03*
Y-27559D02*
D03*
Y-59055D02*
D03*
Y-90551D02*
D03*
Y-122047D02*
D03*
X-90551Y66929D02*
D03*
Y98425D02*
D03*
Y-27559D02*
D03*
Y3937D02*
D03*
Y35433D02*
D03*
Y129921D02*
D03*
X129921Y161417D02*
D03*
X-27559D02*
D03*
X-59055D02*
D03*
X66929D02*
D03*
X98425D02*
D03*
X35433D02*
D03*
X3937D02*
D03*
X-90551D02*
D03*
X-27559Y-122047D02*
D03*
X-59055D02*
D03*
X66929D02*
D03*
X98425D02*
D03*
X35433D02*
D03*
X3937D02*
D03*
X-90551D02*
D03*
Y-59055D02*
D03*
X129921Y98425D02*
D03*
D97*
X200787Y-97284D02*
D03*
X177165Y89701D02*
D03*
D98*
X28465Y17795D02*
D03*
X33465Y12795D02*
D03*
D99*
X23465D02*
D03*
D100*
X33071Y-58661D02*
D03*
X26772Y-61811D02*
D03*
X25984Y-68504D02*
D03*
X188583Y155905D02*
D03*
X49213Y-60236D02*
D03*
X44882Y-34646D02*
D03*
X58268Y-33071D02*
D03*
X-17717Y-5906D02*
D03*
X-34350Y-500D02*
D03*
X-56299Y14173D02*
D03*
X-72441Y17717D02*
D03*
X-61811Y-2756D02*
D03*
X-39370Y-28346D02*
D03*
X-28740Y-26378D02*
D03*
X36220Y37008D02*
D03*
X30315Y31496D02*
D03*
X48031Y31102D02*
D03*
X24409Y63779D02*
D03*
X53543Y45669D02*
D03*
X24016Y41732D02*
D03*
X4339Y41114D02*
D03*
X12598Y54331D02*
D03*
X-144882Y-116929D02*
D03*
X52165Y-68898D02*
D03*
X-29331Y-20866D02*
D03*
D101*
X19685Y-78740D02*
D03*
X-157480Y-118110D02*
D03*
X-118170Y-137758D02*
D03*
X157480Y-29528D02*
D03*
Y-59055D02*
D03*
X196850Y19685D02*
D03*
X177165Y98425D02*
D03*
Y118110D02*
D03*
Y137795D02*
D03*
X157480Y157480D02*
D03*
X196850Y-78740D02*
D03*
X177165Y-98425D02*
D03*
Y-118110D02*
D03*
X196850Y-157480D02*
D03*
Y-137795D02*
D03*
X177165D02*
D03*
Y-157480D02*
D03*
X157480Y-167323D02*
D03*
X137795D02*
D03*
X118110D02*
D03*
X98425D02*
D03*
X78740D02*
D03*
X59055D02*
D03*
X39370D02*
D03*
X19685D02*
D03*
X0D02*
D03*
X-19685D02*
D03*
X-39370D02*
D03*
X-59055D02*
D03*
X-78740D02*
D03*
X-98425D02*
D03*
X-118110D02*
D03*
X-137795Y-157480D02*
D03*
X-158509Y-156859D02*
D03*
X-157480Y-137795D02*
D03*
X137795Y177165D02*
D03*
X157480D02*
D03*
X196850D02*
D03*
Y196850D02*
D03*
X177165D02*
D03*
X157480D02*
D03*
X137795D02*
D03*
X118110D02*
D03*
X98425D02*
D03*
X78740D02*
D03*
X59055D02*
D03*
X19685D02*
D03*
X39370D02*
D03*
X0D02*
D03*
X-19685D02*
D03*
X-39370D02*
D03*
X-59055D02*
D03*
X-78740D02*
D03*
X-98425D02*
D03*
X-137795D02*
D03*
X-118110D02*
D03*
X59055Y137795D02*
D03*
Y118110D02*
D03*
X39370D02*
D03*
Y137795D02*
D03*
X-19653Y138775D02*
D03*
X-59055Y137795D02*
D03*
X-59117Y96792D02*
D03*
X-39370Y98425D02*
D03*
X-19685D02*
D03*
X0D02*
D03*
X-19685Y78740D02*
D03*
X-39370Y59055D02*
D03*
Y78740D02*
D03*
X-59055D02*
D03*
Y59055D02*
D03*
Y39370D02*
D03*
X-58740Y-17723D02*
D03*
X-19685Y-39370D02*
D03*
Y-19685D02*
D03*
Y39370D02*
D03*
X0D02*
D03*
Y0D02*
D03*
X19685D02*
D03*
Y19685D02*
D03*
X39370D02*
D03*
X39626Y-742D02*
D03*
X59055Y-19685D02*
D03*
Y0D02*
D03*
Y19685D02*
D03*
Y39370D02*
D03*
Y59055D02*
D03*
X78740Y78740D02*
D03*
Y59055D02*
D03*
Y39370D02*
D03*
Y19685D02*
D03*
Y0D02*
D03*
Y-19685D02*
D03*
X98425Y-78740D02*
D03*
Y-98425D02*
D03*
X78740D02*
D03*
X59055D02*
D03*
X39370D02*
D03*
X19685D02*
D03*
X0Y-59055D02*
D03*
Y-78740D02*
D03*
Y-98425D02*
D03*
X-19685D02*
D03*
Y-78740D02*
D03*
Y-59055D02*
D03*
X-39370D02*
D03*
Y-39370D02*
D03*
X-59055D02*
D03*
Y-59055D02*
D03*
X-78740Y-78740D02*
D03*
X-98425D02*
D03*
X-59055Y-98425D02*
D03*
X-78740D02*
D03*
X-98425D02*
D03*
X-118110D02*
D03*
X-137795D02*
D03*
X-157480D02*
D03*
Y-78740D02*
D03*
X-137795D02*
D03*
X-118110D02*
D03*
Y-59055D02*
D03*
X-137795D02*
D03*
X-157480D02*
D03*
Y-39370D02*
D03*
X-137795D02*
D03*
X-118110D02*
D03*
Y-19685D02*
D03*
X-137795D02*
D03*
X-157480D02*
D03*
Y0D02*
D03*
X-137795D02*
D03*
X-118110D02*
D03*
Y19685D02*
D03*
X-137795D02*
D03*
X-157480D02*
D03*
Y39370D02*
D03*
X-137795D02*
D03*
X-118110D02*
D03*
Y59055D02*
D03*
X-137795D02*
D03*
X-157480D02*
D03*
Y78740D02*
D03*
X-137795D02*
D03*
X-118110D02*
D03*
Y98425D02*
D03*
X-137795D02*
D03*
X-157480D02*
D03*
Y118110D02*
D03*
X-137795D02*
D03*
X-118110D02*
D03*
Y137795D02*
D03*
X-137795D02*
D03*
X-157480D02*
D03*
Y177165D02*
D03*
X-137795D02*
D03*
X-118110D02*
D03*
Y157480D02*
D03*
X-137795D02*
D03*
X-157480D02*
D03*
X31789Y75249D02*
D03*
X20472Y94488D02*
D03*
X13386Y75590D02*
D03*
X12598Y78740D02*
D03*
X54331Y101969D02*
D03*
X62598D02*
D03*
X28346Y97244D02*
D03*
X44094Y87402D02*
D03*
D102*
X-132677Y-112598D02*
D03*
X176108Y170230D02*
D03*
X29134Y-13386D02*
D03*
X-6299Y-1969D02*
D03*
X72047Y130709D02*
D03*
X64173D02*
D03*
X15748Y-40551D02*
D03*
X25984Y121260D02*
D03*
Y134646D02*
D03*
X-26378Y-86614D02*
D03*
X-67323D02*
D03*
X-50787Y-66535D02*
D03*
X39370Y100394D02*
D03*
X62598Y-50787D02*
D03*
X50394Y-49606D02*
D03*
X63386Y-62992D02*
D03*
X3543Y49213D02*
D03*
X38976Y125197D02*
D03*
X38189Y132677D02*
D03*
X-38386Y131890D02*
D03*
X-42323Y104331D02*
D03*
X-49213D02*
D03*
X-35433D02*
D03*
X-22138Y107802D02*
D03*
X-3937Y118110D02*
D03*
X-15748D02*
D03*
Y129921D02*
D03*
X-3937D02*
D03*
X16732Y-47244D02*
D03*
%TF.MD5,623d59c1aadf488210811d74951f0618*%
M02*
