%TF.GenerationSoftware,Altium Limited,Altium Designer,23.9.2 (47)*%
G04 Layer_Color=255*
%FSLAX45Y45*%
%MOMM*%
%TF.SameCoordinates,C134C5B9-E2B3-4718-B1A9-C3C336A3467B*%
%TF.FilePolarity,Positive*%
%TF.FileFunction,Pads,Bot*%
%TF.Part,Single*%
G01*
G75*
%TA.AperFunction,ComponentPad*%
%ADD45C,1.60000*%
%ADD46R,1.60000X1.60000*%
%TA.AperFunction,ViaPad*%
%ADD47C,5.00000*%
%TA.AperFunction,ComponentPad*%
%ADD48C,1.50000*%
%ADD49R,1.50000X1.50000*%
%ADD50C,7.80000*%
%ADD51R,1.60000X1.60000*%
%ADD52C,1.19200*%
%ADD53R,1.19200X1.19200*%
D45*
X4610000Y-4660000D02*
D03*
X4356000D02*
D03*
X4102000D02*
D03*
X4600000Y-3733000D02*
D03*
Y-3479000D02*
D03*
Y-3225000D02*
D03*
X4254000Y1016400D02*
D03*
X4000000Y-1269600D02*
D03*
X4254000Y1270400D02*
D03*
X4000000Y-1523600D02*
D03*
X4254000D02*
D03*
Y-1269600D02*
D03*
Y-1015600D02*
D03*
Y-761600D02*
D03*
Y-507600D02*
D03*
Y-253600D02*
D03*
Y400D02*
D03*
Y254400D02*
D03*
Y508400D02*
D03*
Y762400D02*
D03*
X4000000Y-1015600D02*
D03*
Y-761600D02*
D03*
Y-507600D02*
D03*
Y-253600D02*
D03*
Y400D02*
D03*
Y254400D02*
D03*
Y508400D02*
D03*
Y762400D02*
D03*
Y1016400D02*
D03*
Y1270400D02*
D03*
Y1524400D02*
D03*
X4254000D02*
D03*
Y1778400D02*
D03*
D46*
X3848000Y-4660000D02*
D03*
D47*
X4250000Y4250000D02*
D03*
X-4250000D02*
D03*
Y-4250000D02*
D03*
X4250000D02*
D03*
D48*
X-525000Y-25000D02*
D03*
D49*
Y-275000D02*
D03*
D50*
X2800000Y1200000D02*
D03*
Y400000D02*
D03*
Y-400000D02*
D03*
Y-1200000D02*
D03*
Y-2000000D02*
D03*
Y-2799999D02*
D03*
Y-3599999D02*
D03*
X-2800000Y1200000D02*
D03*
Y2000000D02*
D03*
Y-1200000D02*
D03*
Y-400000D02*
D03*
Y400000D02*
D03*
Y2800000D02*
D03*
X2800000Y3600000D02*
D03*
X-1200000D02*
D03*
X-2000000D02*
D03*
X1200000D02*
D03*
X2000000D02*
D03*
X400000D02*
D03*
X-400000D02*
D03*
X-2800000D02*
D03*
X-1200000Y-3600000D02*
D03*
X-2000000D02*
D03*
X1200000D02*
D03*
X2000000D02*
D03*
X400000D02*
D03*
X-400000D02*
D03*
X-2800000D02*
D03*
Y-2000000D02*
D03*
X2800000Y2000000D02*
D03*
D51*
X4600000Y-2971000D02*
D03*
X4000000Y1778400D02*
D03*
D52*
X223000Y-48000D02*
D03*
X350000Y-175000D02*
D03*
D53*
X96000D02*
D03*
%TF.MD5,55df874967ce8a297effe17728842f45*%
M02*
