%TF.GenerationSoftware,Altium Limited,Altium Designer,23.9.2 (47)*%
G04 Layer_Physical_Order=2*
G04 Layer_Color=36540*
%FSLAX25Y25*%
%MOIN*%
%TF.SameCoordinates,F944BC78-FABB-4A85-9D96-7E9E55BFA98D*%
%TF.FilePolarity,Positive*%
%TF.FileFunction,Copper,L2,Inr,Signal*%
%TF.Part,Single*%
G01*
G75*
%TA.AperFunction,ComponentPad*%
%ADD45C,0.06299*%
%ADD46R,0.06299X0.06299*%
%TA.AperFunction,ViaPad*%
%ADD47C,0.19685*%
%TA.AperFunction,ComponentPad*%
%ADD48C,0.05906*%
%ADD49R,0.05906X0.05906*%
%ADD50C,0.30709*%
%ADD51R,0.06299X0.06299*%
%ADD52C,0.04693*%
%ADD53R,0.04693X0.04693*%
%TA.AperFunction,ViaPad*%
%ADD54C,0.03150*%
%ADD55C,0.02756*%
%ADD56C,0.05000*%
G36*
X209635Y214930D02*
X210157D01*
X211180Y214726D01*
X212143Y214327D01*
X213010Y213748D01*
X213748Y213010D01*
X214327Y212143D01*
X214726Y211180D01*
X214930Y210157D01*
X214930Y209635D01*
X214930Y-170265D01*
X214930Y-170787D01*
X214726Y-171810D01*
X214327Y-172773D01*
X213748Y-173640D01*
X213010Y-174378D01*
X212143Y-174957D01*
X211180Y-175356D01*
X210157Y-175560D01*
X209635D01*
X-170246Y-175540D01*
X-170246Y-175540D01*
X-170246Y-175540D01*
X-170767D01*
X-171790Y-175337D01*
X-172754Y-174937D01*
X-173621Y-174358D01*
X-174358Y-173621D01*
X-174937Y-172754D01*
X-175337Y-171790D01*
X-175545Y-170744D01*
X-175560Y-170241D01*
Y209635D01*
Y210157D01*
X-175356Y211180D01*
X-174957Y212143D01*
X-174378Y213010D01*
X-173640Y213748D01*
X-172773Y214327D01*
X-171810Y214726D01*
X-170787Y214930D01*
X-170265Y214930D01*
X209635Y214930D01*
D02*
G37*
%LPC*%
G36*
X187861Y197850D02*
X187508D01*
Y187508D01*
X197850D01*
Y187861D01*
X197583Y189547D01*
X197056Y191170D01*
X196281Y192691D01*
X195278Y194071D01*
X194071Y195278D01*
X192691Y196281D01*
X191170Y197056D01*
X189547Y197583D01*
X187861Y197850D01*
D02*
G37*
G36*
X186508D02*
X186154D01*
X184469Y197583D01*
X182846Y197056D01*
X181325Y196281D01*
X179944Y195278D01*
X178738Y194071D01*
X177734Y192691D01*
X176960Y191170D01*
X176432Y189547D01*
X176165Y187861D01*
Y187508D01*
X186508D01*
Y197850D01*
D02*
G37*
G36*
X-146784D02*
X-147138D01*
Y187508D01*
X-136795D01*
Y187861D01*
X-137062Y189547D01*
X-137590Y191170D01*
X-138364Y192691D01*
X-139368Y194071D01*
X-140574Y195278D01*
X-141955Y196281D01*
X-143476Y197056D01*
X-145099Y197583D01*
X-146784Y197850D01*
D02*
G37*
G36*
X-148138D02*
X-148491D01*
X-150177Y197583D01*
X-151800Y197056D01*
X-153321Y196281D01*
X-154701Y195278D01*
X-155908Y194071D01*
X-156911Y192691D01*
X-157686Y191170D01*
X-158213Y189547D01*
X-158480Y187861D01*
Y187508D01*
X-148138D01*
Y197850D01*
D02*
G37*
G36*
X197850Y186508D02*
X187508D01*
Y176165D01*
X187861D01*
X189547Y176432D01*
X191170Y176960D01*
X192691Y177734D01*
X194071Y178738D01*
X195278Y179944D01*
X196281Y181325D01*
X197056Y182846D01*
X197583Y184469D01*
X197850Y186154D01*
Y186508D01*
D02*
G37*
G36*
X186508D02*
X176165D01*
Y186154D01*
X176432Y184469D01*
X176960Y182846D01*
X177734Y181325D01*
X178738Y179944D01*
X179944Y178738D01*
X181325Y177734D01*
X182846Y176960D01*
X184469Y176432D01*
X186154Y176165D01*
X186508D01*
Y186508D01*
D02*
G37*
G36*
X-136795D02*
X-147138D01*
Y176165D01*
X-146784D01*
X-145099Y176432D01*
X-143476Y176960D01*
X-141955Y177734D01*
X-140574Y178738D01*
X-139368Y179944D01*
X-138364Y181325D01*
X-137590Y182846D01*
X-137062Y184469D01*
X-136795Y186154D01*
Y186508D01*
D02*
G37*
G36*
X-148138D02*
X-158480D01*
Y186154D01*
X-158213Y184469D01*
X-157686Y182846D01*
X-156911Y181325D01*
X-155908Y179944D01*
X-154701Y178738D01*
X-153321Y177734D01*
X-151800Y176960D01*
X-150177Y176432D01*
X-148491Y176165D01*
X-148138D01*
Y186508D01*
D02*
G37*
G36*
X176543Y172418D02*
X175672D01*
X174869Y172085D01*
X174253Y171469D01*
X173920Y170665D01*
Y169795D01*
X174253Y168991D01*
X174869Y168376D01*
X175672Y168043D01*
X176543D01*
X177347Y168376D01*
X177962Y168991D01*
X178295Y169795D01*
Y170665D01*
X177962Y171469D01*
X177347Y172085D01*
X176543Y172418D01*
D02*
G37*
G36*
X129421Y177772D02*
X128634D01*
X126092Y177369D01*
X123643Y176574D01*
X121350Y175405D01*
X119267Y173892D01*
X117447Y172072D01*
X115934Y169989D01*
X114765Y167695D01*
X114423Y166643D01*
X113923D01*
X113581Y167695D01*
X112413Y169989D01*
X110900Y172072D01*
X109079Y173892D01*
X106997Y175405D01*
X104703Y176574D01*
X102255Y177369D01*
X99712Y177772D01*
X98925D01*
Y161417D01*
Y145063D01*
X99712D01*
X102255Y145466D01*
X104703Y146261D01*
X106997Y147430D01*
X109079Y148943D01*
X110900Y150763D01*
X112413Y152846D01*
X113581Y155140D01*
X113923Y156192D01*
X114423D01*
X114765Y155140D01*
X115934Y152846D01*
X117447Y150763D01*
X119267Y148943D01*
X121350Y147430D01*
X123643Y146261D01*
X126092Y145466D01*
X128634Y145063D01*
X129421D01*
Y161417D01*
Y177772D01*
D02*
G37*
G36*
X66429D02*
X65642D01*
X63099Y177369D01*
X60651Y176574D01*
X58358Y175405D01*
X56275Y173892D01*
X54455Y172072D01*
X52942Y169989D01*
X51773Y167695D01*
X51431Y166643D01*
X50931D01*
X50589Y167695D01*
X49420Y169989D01*
X47908Y172072D01*
X46087Y173892D01*
X44005Y175405D01*
X41711Y176574D01*
X39263Y177369D01*
X36720Y177772D01*
X35933D01*
Y161417D01*
Y145063D01*
X36720D01*
X39263Y145466D01*
X41711Y146261D01*
X44005Y147430D01*
X46087Y148943D01*
X47908Y150763D01*
X49420Y152846D01*
X50589Y155140D01*
X50931Y156192D01*
X51431D01*
X51773Y155140D01*
X52942Y152846D01*
X54455Y150763D01*
X56275Y148943D01*
X58358Y147430D01*
X60651Y146261D01*
X63099Y145466D01*
X65642Y145063D01*
X66429D01*
Y161417D01*
Y177772D01*
D02*
G37*
G36*
X34933D02*
X34146D01*
X31603Y177369D01*
X29155Y176574D01*
X26862Y175405D01*
X24779Y173892D01*
X22959Y172072D01*
X21446Y169989D01*
X20277Y167695D01*
X19935Y166643D01*
X19435D01*
X19093Y167695D01*
X17924Y169989D01*
X16411Y172072D01*
X14591Y173892D01*
X12508Y175405D01*
X10215Y176574D01*
X7767Y177369D01*
X5224Y177772D01*
X4437D01*
Y161417D01*
Y145063D01*
X5224D01*
X7767Y145466D01*
X10215Y146261D01*
X12508Y147430D01*
X14591Y148943D01*
X16411Y150763D01*
X17924Y152846D01*
X19093Y155140D01*
X19435Y156192D01*
X19935D01*
X20277Y155140D01*
X21446Y152846D01*
X22959Y150763D01*
X24779Y148943D01*
X26862Y147430D01*
X29155Y146261D01*
X31603Y145466D01*
X34146Y145063D01*
X34933D01*
Y161417D01*
Y177772D01*
D02*
G37*
G36*
X3437D02*
X2650D01*
X107Y177369D01*
X-2341Y176574D01*
X-4634Y175405D01*
X-6717Y173892D01*
X-8537Y172072D01*
X-10051Y169989D01*
X-11219Y167695D01*
X-11561Y166643D01*
X-12061D01*
X-12403Y167695D01*
X-13572Y169989D01*
X-15085Y172072D01*
X-16905Y173892D01*
X-18988Y175405D01*
X-21281Y176574D01*
X-23729Y177369D01*
X-26272Y177772D01*
X-27059D01*
Y161417D01*
Y145063D01*
X-26272D01*
X-23729Y145466D01*
X-21281Y146261D01*
X-18988Y147430D01*
X-16905Y148943D01*
X-15085Y150763D01*
X-13572Y152846D01*
X-12403Y155140D01*
X-12061Y156192D01*
X-11561D01*
X-11219Y155140D01*
X-10051Y152846D01*
X-8537Y150763D01*
X-6717Y148943D01*
X-4634Y147430D01*
X-2341Y146261D01*
X107Y145466D01*
X2650Y145063D01*
X3437D01*
Y161417D01*
Y177772D01*
D02*
G37*
G36*
X-59555D02*
X-60342D01*
X-62885Y177369D01*
X-65333Y176574D01*
X-67627Y175405D01*
X-69709Y173892D01*
X-71530Y172072D01*
X-73043Y169989D01*
X-74211Y167695D01*
X-74553Y166643D01*
X-75053D01*
X-75395Y167695D01*
X-76564Y169989D01*
X-78077Y172072D01*
X-79897Y173892D01*
X-81980Y175405D01*
X-84273Y176574D01*
X-86721Y177369D01*
X-89264Y177772D01*
X-90051D01*
Y161417D01*
X-90551D01*
Y160917D01*
X-106905D01*
Y160130D01*
X-106503Y157588D01*
X-105707Y155140D01*
X-104539Y152846D01*
X-103026Y150763D01*
X-101205Y148943D01*
X-99123Y147430D01*
X-96829Y146261D01*
X-95777Y145919D01*
Y145419D01*
X-96829Y145077D01*
X-99123Y143909D01*
X-101205Y142396D01*
X-103026Y140575D01*
X-104539Y138493D01*
X-105707Y136199D01*
X-106503Y133751D01*
X-106905Y131208D01*
Y130421D01*
X-90551D01*
X-74197D01*
Y131208D01*
X-74599Y133751D01*
X-75395Y136199D01*
X-76564Y138493D01*
X-78077Y140575D01*
X-79897Y142396D01*
X-81980Y143909D01*
X-84273Y145077D01*
X-85325Y145419D01*
Y145919D01*
X-84273Y146261D01*
X-81980Y147430D01*
X-79897Y148943D01*
X-78077Y150763D01*
X-76564Y152846D01*
X-75395Y155140D01*
X-75053Y156192D01*
X-74553D01*
X-74211Y155140D01*
X-73043Y152846D01*
X-71530Y150763D01*
X-69709Y148943D01*
X-67627Y147430D01*
X-65333Y146261D01*
X-62885Y145466D01*
X-60342Y145063D01*
X-59555D01*
Y161417D01*
Y177772D01*
D02*
G37*
G36*
X97925D02*
X97138D01*
X94596Y177369D01*
X92147Y176574D01*
X89854Y175405D01*
X87771Y173892D01*
X85951Y172072D01*
X84438Y169989D01*
X83269Y167695D01*
X82927Y166643D01*
X82427D01*
X82085Y167695D01*
X80917Y169989D01*
X79404Y172072D01*
X77583Y173892D01*
X75501Y175405D01*
X73207Y176574D01*
X70759Y177369D01*
X68216Y177772D01*
X67429D01*
Y161417D01*
Y145063D01*
X68216D01*
X70759Y145466D01*
X73207Y146261D01*
X75501Y147430D01*
X77583Y148943D01*
X79404Y150763D01*
X80917Y152846D01*
X82085Y155140D01*
X82427Y156192D01*
X82927D01*
X83269Y155140D01*
X84438Y152846D01*
X85951Y150763D01*
X87771Y148943D01*
X89854Y147430D01*
X92147Y146261D01*
X94596Y145466D01*
X97138Y145063D01*
X97925D01*
Y161417D01*
Y177772D01*
D02*
G37*
G36*
X-28059D02*
X-28846D01*
X-31389Y177369D01*
X-33837Y176574D01*
X-36131Y175405D01*
X-38213Y173892D01*
X-40033Y172072D01*
X-41546Y169989D01*
X-42715Y167695D01*
X-43057Y166643D01*
X-43557D01*
X-43899Y167695D01*
X-45068Y169989D01*
X-46581Y172072D01*
X-48401Y173892D01*
X-50484Y175405D01*
X-52777Y176574D01*
X-55225Y177369D01*
X-57768Y177772D01*
X-58555D01*
Y161417D01*
Y145063D01*
X-57768D01*
X-55225Y145466D01*
X-52777Y146261D01*
X-50484Y147430D01*
X-48401Y148943D01*
X-46581Y150763D01*
X-45068Y152846D01*
X-43899Y155140D01*
X-43557Y156192D01*
X-43057D01*
X-42715Y155140D01*
X-41546Y152846D01*
X-40033Y150763D01*
X-38213Y148943D01*
X-36131Y147430D01*
X-33837Y146261D01*
X-31389Y145466D01*
X-28846Y145063D01*
X-28059D01*
Y161417D01*
Y177772D01*
D02*
G37*
G36*
X131208D02*
X130421D01*
Y161917D01*
X146276D01*
Y162704D01*
X145873Y165247D01*
X145077Y167695D01*
X143909Y169989D01*
X142396Y172072D01*
X140575Y173892D01*
X138493Y175405D01*
X136199Y176574D01*
X133751Y177369D01*
X131208Y177772D01*
D02*
G37*
G36*
X-91051D02*
X-91838D01*
X-94381Y177369D01*
X-96829Y176574D01*
X-99123Y175405D01*
X-101205Y173892D01*
X-103026Y172072D01*
X-104539Y169989D01*
X-105707Y167695D01*
X-106503Y165247D01*
X-106905Y162704D01*
Y161917D01*
X-91051D01*
Y177772D01*
D02*
G37*
G36*
X189095Y158480D02*
X189083D01*
Y156405D01*
X191157D01*
Y156418D01*
X190766Y157364D01*
X190041Y158088D01*
X189095Y158480D01*
D02*
G37*
G36*
X188083D02*
X188070D01*
X187124Y158088D01*
X186400Y157364D01*
X186008Y156418D01*
Y156405D01*
X188083D01*
Y158480D01*
D02*
G37*
G36*
X191157Y155405D02*
X189083D01*
Y153331D01*
X189095D01*
X190041Y153723D01*
X190766Y154447D01*
X191157Y155393D01*
Y155405D01*
D02*
G37*
G36*
X188083D02*
X186008D01*
Y155393D01*
X186400Y154447D01*
X187124Y153723D01*
X188070Y153331D01*
X188083D01*
Y155405D01*
D02*
G37*
G36*
X146276Y160917D02*
X130421D01*
Y145063D01*
X131208D01*
X133751Y145466D01*
X136199Y146261D01*
X138493Y147430D01*
X140575Y148943D01*
X142396Y150763D01*
X143909Y152846D01*
X145077Y155140D01*
X145873Y157588D01*
X146276Y160130D01*
Y160917D01*
D02*
G37*
G36*
X26419Y136833D02*
X25549D01*
X24745Y136500D01*
X24130Y135885D01*
X23797Y135081D01*
Y134211D01*
X24130Y133407D01*
X24745Y132791D01*
X25549Y132458D01*
X26419D01*
X27223Y132791D01*
X27839Y133407D01*
X28172Y134211D01*
Y135081D01*
X27839Y135885D01*
X27223Y136500D01*
X26419Y136833D01*
D02*
G37*
G36*
X-37886Y135379D02*
Y132390D01*
X-34896D01*
X-35124Y133241D01*
X-35585Y134039D01*
X-36237Y134690D01*
X-37035Y135151D01*
X-37886Y135379D01*
D02*
G37*
G36*
X-38886D02*
X-39737Y135151D01*
X-40535Y134690D01*
X-41186Y134039D01*
X-41647Y133241D01*
X-41875Y132390D01*
X-38886D01*
Y135379D01*
D02*
G37*
G36*
X38624Y134865D02*
X37754D01*
X36950Y134532D01*
X36335Y133916D01*
X36002Y133112D01*
Y132242D01*
X36335Y131438D01*
X36950Y130823D01*
X37754Y130490D01*
X38624D01*
X39428Y130823D01*
X40043Y131438D01*
X40376Y132242D01*
Y133112D01*
X40043Y133916D01*
X39428Y134532D01*
X38624Y134865D01*
D02*
G37*
G36*
X72482Y132896D02*
X71612D01*
X70808Y132563D01*
X70193Y131948D01*
X69860Y131144D01*
Y130274D01*
X70193Y129470D01*
X70808Y128854D01*
X71612Y128521D01*
X72482D01*
X73286Y128854D01*
X73902Y129470D01*
X74235Y130274D01*
Y131144D01*
X73902Y131948D01*
X73286Y132563D01*
X72482Y132896D01*
D02*
G37*
G36*
X64608D02*
X63738D01*
X62934Y132563D01*
X62319Y131948D01*
X61986Y131144D01*
Y130274D01*
X62319Y129470D01*
X62934Y128854D01*
X63738Y128521D01*
X64608D01*
X65412Y128854D01*
X66028Y129470D01*
X66361Y130274D01*
Y131144D01*
X66028Y131948D01*
X65412Y132563D01*
X64608Y132896D01*
D02*
G37*
G36*
X-34896Y131390D02*
X-37886D01*
Y128400D01*
X-37035Y128628D01*
X-36237Y129089D01*
X-35585Y129741D01*
X-35124Y130539D01*
X-34896Y131390D01*
D02*
G37*
G36*
X-38886D02*
X-41875D01*
X-41647Y130539D01*
X-41186Y129741D01*
X-40535Y129089D01*
X-39737Y128628D01*
X-38886Y128400D01*
Y131390D01*
D02*
G37*
G36*
X-3502Y132109D02*
X-4372D01*
X-5176Y131776D01*
X-5791Y131160D01*
X-6124Y130356D01*
Y129486D01*
X-5791Y128682D01*
X-5176Y128067D01*
X-4372Y127734D01*
X-3502D01*
X-2698Y128067D01*
X-2083Y128682D01*
X-1750Y129486D01*
Y130356D01*
X-2083Y131160D01*
X-2698Y131776D01*
X-3502Y132109D01*
D02*
G37*
G36*
X-15313D02*
X-16183D01*
X-16987Y131776D01*
X-17602Y131160D01*
X-17935Y130356D01*
Y129486D01*
X-17602Y128682D01*
X-16987Y128067D01*
X-16183Y127734D01*
X-15313D01*
X-14509Y128067D01*
X-13894Y128682D01*
X-13561Y129486D01*
Y130356D01*
X-13894Y131160D01*
X-14509Y131776D01*
X-15313Y132109D01*
D02*
G37*
G36*
X39476Y128686D02*
Y125697D01*
X42466D01*
X42238Y126548D01*
X41777Y127346D01*
X41125Y127998D01*
X40327Y128458D01*
X39476Y128686D01*
D02*
G37*
G36*
X38476D02*
X37625Y128458D01*
X36827Y127998D01*
X36176Y127346D01*
X35715Y126548D01*
X35487Y125697D01*
X38476D01*
Y128686D01*
D02*
G37*
G36*
X26484Y124749D02*
Y121760D01*
X29474D01*
X29246Y122611D01*
X28785Y123409D01*
X28133Y124060D01*
X27335Y124521D01*
X26484Y124749D01*
D02*
G37*
G36*
X25484D02*
X24633Y124521D01*
X23835Y124060D01*
X23183Y123409D01*
X22723Y122611D01*
X22495Y121760D01*
X25484D01*
Y124749D01*
D02*
G37*
G36*
X42466Y124697D02*
X39476D01*
Y121707D01*
X40327Y121935D01*
X41125Y122396D01*
X41777Y123048D01*
X42238Y123846D01*
X42466Y124697D01*
D02*
G37*
G36*
X38476D02*
X35487D01*
X35715Y123846D01*
X36176Y123048D01*
X36827Y122396D01*
X37625Y121935D01*
X38476Y121707D01*
Y124697D01*
D02*
G37*
G36*
X29474Y120760D02*
X26484D01*
Y117770D01*
X27335Y117998D01*
X28133Y118459D01*
X28785Y119111D01*
X29246Y119909D01*
X29474Y120760D01*
D02*
G37*
G36*
X25484D02*
X22495D01*
X22723Y119909D01*
X23183Y119111D01*
X23835Y118459D01*
X24633Y117998D01*
X25484Y117770D01*
Y120760D01*
D02*
G37*
G36*
X-3502Y120298D02*
X-4372D01*
X-5176Y119965D01*
X-5791Y119349D01*
X-6124Y118545D01*
Y117675D01*
X-5791Y116871D01*
X-5176Y116256D01*
X-4372Y115923D01*
X-3502D01*
X-2698Y116256D01*
X-2083Y116871D01*
X-1750Y117675D01*
Y118545D01*
X-2083Y119349D01*
X-2698Y119965D01*
X-3502Y120298D01*
D02*
G37*
G36*
X-15313D02*
X-16183D01*
X-16987Y119965D01*
X-17602Y119349D01*
X-17935Y118545D01*
Y117675D01*
X-17602Y116871D01*
X-16987Y116256D01*
X-16183Y115923D01*
X-15313D01*
X-14509Y116256D01*
X-13894Y116871D01*
X-13561Y117675D01*
Y118545D01*
X-13894Y119349D01*
X-14509Y119965D01*
X-15313Y120298D01*
D02*
G37*
G36*
X-21703Y109990D02*
X-22573D01*
X-23377Y109657D01*
X-23992Y109041D01*
X-24325Y108237D01*
Y107367D01*
X-23992Y106563D01*
X-23377Y105948D01*
X-22573Y105615D01*
X-21703D01*
X-20899Y105948D01*
X-20283Y106563D01*
X-19950Y107367D01*
Y108237D01*
X-20283Y109041D01*
X-20899Y109657D01*
X-21703Y109990D01*
D02*
G37*
G36*
X-34998Y106518D02*
X-35868D01*
X-36672Y106185D01*
X-37288Y105570D01*
X-37620Y104766D01*
Y103896D01*
X-37288Y103092D01*
X-36672Y102476D01*
X-35868Y102143D01*
X-34998D01*
X-34194Y102476D01*
X-33579Y103092D01*
X-33246Y103896D01*
Y104766D01*
X-33579Y105570D01*
X-34194Y106185D01*
X-34998Y106518D01*
D02*
G37*
G36*
X-41888D02*
X-42758D01*
X-43562Y106185D01*
X-44177Y105570D01*
X-44510Y104766D01*
Y103896D01*
X-44177Y103092D01*
X-43562Y102476D01*
X-42758Y102143D01*
X-41888D01*
X-41084Y102476D01*
X-40468Y103092D01*
X-40135Y103896D01*
Y104766D01*
X-40468Y105570D01*
X-41084Y106185D01*
X-41888Y106518D01*
D02*
G37*
G36*
X-48777D02*
X-49648D01*
X-50452Y106185D01*
X-51067Y105570D01*
X-51400Y104766D01*
Y103896D01*
X-51067Y103092D01*
X-50452Y102476D01*
X-49648Y102143D01*
X-48777D01*
X-47973Y102476D01*
X-47358Y103092D01*
X-47025Y103896D01*
Y104766D01*
X-47358Y105570D01*
X-47973Y106185D01*
X-48777Y106518D01*
D02*
G37*
G36*
X62872Y103347D02*
X62324D01*
X61818Y103137D01*
X61430Y102749D01*
X61221Y102243D01*
Y101694D01*
X61430Y101188D01*
X61818Y100800D01*
X62324Y100591D01*
X62872D01*
X63379Y100800D01*
X63767Y101188D01*
X63976Y101694D01*
Y102243D01*
X63767Y102749D01*
X63379Y103137D01*
X62872Y103347D01*
D02*
G37*
G36*
X54605D02*
X54057D01*
X53550Y103137D01*
X53162Y102749D01*
X52953Y102243D01*
Y101694D01*
X53162Y101188D01*
X53550Y100800D01*
X54057Y100591D01*
X54605D01*
X55111Y100800D01*
X55499Y101188D01*
X55709Y101694D01*
Y102243D01*
X55499Y102749D01*
X55111Y103137D01*
X54605Y103347D01*
D02*
G37*
G36*
X131208Y114779D02*
X130421D01*
Y98925D01*
X146276D01*
Y99712D01*
X145873Y102255D01*
X145077Y104703D01*
X143909Y106997D01*
X142396Y109079D01*
X140575Y110900D01*
X138493Y112413D01*
X136199Y113581D01*
X133751Y114377D01*
X131208Y114779D01*
D02*
G37*
G36*
X129421D02*
X128634D01*
X126092Y114377D01*
X123643Y113581D01*
X121350Y112413D01*
X119267Y110900D01*
X117447Y109079D01*
X115934Y106997D01*
X114765Y104703D01*
X113970Y102255D01*
X113567Y99712D01*
Y98925D01*
X129421D01*
Y114779D01*
D02*
G37*
G36*
X-74197Y129421D02*
X-90551D01*
X-106905D01*
Y128634D01*
X-106503Y126092D01*
X-105707Y123643D01*
X-104539Y121350D01*
X-103026Y119267D01*
X-101205Y117447D01*
X-99123Y115934D01*
X-96829Y114765D01*
X-95777Y114423D01*
Y113923D01*
X-96829Y113581D01*
X-99123Y112413D01*
X-101205Y110900D01*
X-103026Y109079D01*
X-104539Y106997D01*
X-105707Y104703D01*
X-106503Y102255D01*
X-106905Y99712D01*
Y98925D01*
X-90551D01*
X-74197D01*
Y99712D01*
X-74599Y102255D01*
X-75395Y104703D01*
X-76564Y106997D01*
X-78077Y109079D01*
X-79897Y110900D01*
X-81980Y112413D01*
X-84273Y113581D01*
X-85325Y113923D01*
Y114423D01*
X-84273Y114765D01*
X-81980Y115934D01*
X-79897Y117447D01*
X-78077Y119267D01*
X-76564Y121350D01*
X-75395Y123643D01*
X-74599Y126092D01*
X-74197Y128634D01*
Y129421D01*
D02*
G37*
G36*
X39805Y102581D02*
X38935D01*
X38131Y102248D01*
X37516Y101633D01*
X37183Y100829D01*
Y99959D01*
X37516Y99155D01*
X38131Y98539D01*
X38935Y98206D01*
X39805D01*
X40609Y98539D01*
X41225Y99155D01*
X41557Y99959D01*
Y100829D01*
X41225Y101633D01*
X40609Y102248D01*
X39805Y102581D01*
D02*
G37*
G36*
X20746Y95866D02*
X20198D01*
X19692Y95656D01*
X19304Y95269D01*
X19094Y94762D01*
Y94214D01*
X19304Y93708D01*
X19692Y93320D01*
X20198Y93110D01*
X20746D01*
X21253Y93320D01*
X21641Y93708D01*
X21850Y94214D01*
Y94762D01*
X21641Y95269D01*
X21253Y95656D01*
X20746Y95866D01*
D02*
G37*
G36*
X187712Y93850D02*
X187665D01*
Y90201D01*
X191315D01*
Y90247D01*
X191032Y91303D01*
X190486Y92249D01*
X189713Y93021D01*
X188767Y93568D01*
X187712Y93850D01*
D02*
G37*
G36*
X186665D02*
X186619D01*
X185564Y93568D01*
X184617Y93021D01*
X183845Y92249D01*
X183299Y91303D01*
X183016Y90247D01*
Y90201D01*
X186665D01*
Y93850D01*
D02*
G37*
G36*
X181102Y93638D02*
X173228D01*
Y85764D01*
X181102D01*
Y93638D01*
D02*
G37*
G36*
X191315Y89201D02*
X187665D01*
Y85551D01*
X187712D01*
X188767Y85834D01*
X189713Y86380D01*
X190486Y87153D01*
X191032Y88099D01*
X191315Y89154D01*
Y89201D01*
D02*
G37*
G36*
X186665D02*
X183016D01*
Y89154D01*
X183299Y88099D01*
X183845Y87153D01*
X184617Y86380D01*
X185564Y85834D01*
X186619Y85551D01*
X186665D01*
Y89201D01*
D02*
G37*
G36*
X187684Y83638D02*
X186647D01*
X185646Y83369D01*
X184748Y82851D01*
X184015Y82118D01*
X183497Y81220D01*
X183228Y80219D01*
Y79182D01*
X183497Y78181D01*
X184015Y77283D01*
X184748Y76550D01*
X185646Y76032D01*
X186647Y75764D01*
X187684D01*
X188685Y76032D01*
X189583Y76550D01*
X190316Y77283D01*
X190834Y78181D01*
X191102Y79182D01*
Y80219D01*
X190834Y81220D01*
X190316Y82118D01*
X189583Y82851D01*
X188685Y83369D01*
X187684Y83638D01*
D02*
G37*
G36*
X177684D02*
X176647D01*
X175646Y83369D01*
X174748Y82851D01*
X174015Y82118D01*
X173497Y81220D01*
X173228Y80219D01*
Y79182D01*
X173497Y78181D01*
X174015Y77283D01*
X174748Y76550D01*
X175646Y76032D01*
X176647Y75764D01*
X177684D01*
X178685Y76032D01*
X179583Y76550D01*
X180316Y77283D01*
X180834Y78181D01*
X181102Y79182D01*
Y80219D01*
X180834Y81220D01*
X180316Y82118D01*
X179583Y82851D01*
X178685Y83369D01*
X177684Y83638D01*
D02*
G37*
G36*
X12873Y80118D02*
X12324D01*
X11818Y79908D01*
X11430Y79521D01*
X11220Y79014D01*
Y78466D01*
X11430Y77960D01*
X11818Y77572D01*
X12324Y77362D01*
X12641D01*
X12756Y77362D01*
X12855Y76862D01*
X12768Y76826D01*
X12605Y76759D01*
X12218Y76371D01*
X12008Y75865D01*
Y75317D01*
X12218Y74810D01*
X12605Y74422D01*
X13112Y74213D01*
X13660D01*
X14166Y74422D01*
X14554Y74810D01*
X14764Y75317D01*
Y75865D01*
X14554Y76371D01*
X14166Y76759D01*
X13660Y76968D01*
X13344D01*
X13229Y76968D01*
X13129Y77469D01*
X13216Y77504D01*
X13379Y77572D01*
X13767Y77960D01*
X13976Y78466D01*
Y79014D01*
X13767Y79521D01*
X13379Y79908D01*
X12873Y80118D01*
D02*
G37*
G36*
X-74197Y97925D02*
X-90551D01*
X-106905D01*
Y97138D01*
X-106503Y94596D01*
X-105707Y92147D01*
X-104539Y89854D01*
X-103026Y87771D01*
X-101205Y85951D01*
X-99123Y84438D01*
X-96829Y83269D01*
X-95777Y82927D01*
Y82427D01*
X-96829Y82085D01*
X-99123Y80917D01*
X-101205Y79404D01*
X-103026Y77583D01*
X-104539Y75501D01*
X-105707Y73207D01*
X-106503Y70759D01*
X-106905Y68216D01*
Y67429D01*
X-90551D01*
X-74197D01*
Y68216D01*
X-74599Y70759D01*
X-75395Y73207D01*
X-76564Y75501D01*
X-78077Y77583D01*
X-79897Y79404D01*
X-81980Y80917D01*
X-84273Y82085D01*
X-85325Y82427D01*
Y82927D01*
X-84273Y83269D01*
X-81980Y84438D01*
X-79897Y85951D01*
X-78077Y87771D01*
X-76564Y89854D01*
X-75395Y92147D01*
X-74599Y94596D01*
X-74197Y97138D01*
Y97925D01*
D02*
G37*
G36*
X146276D02*
X129921D01*
X113567D01*
Y97138D01*
X113970Y94596D01*
X114765Y92147D01*
X115934Y89854D01*
X117447Y87771D01*
X119267Y85951D01*
X121350Y84438D01*
X123643Y83269D01*
X124696Y82927D01*
Y82427D01*
X123643Y82085D01*
X121350Y80917D01*
X119267Y79404D01*
X117447Y77583D01*
X115934Y75501D01*
X114765Y73207D01*
X113970Y70759D01*
X113567Y68216D01*
Y67429D01*
X129921D01*
X146276D01*
Y68216D01*
X145873Y70759D01*
X145077Y73207D01*
X143909Y75501D01*
X142396Y77583D01*
X140575Y79404D01*
X138493Y80917D01*
X136199Y82085D01*
X135147Y82427D01*
Y82927D01*
X136199Y83269D01*
X138493Y84438D01*
X140575Y85951D01*
X142396Y87771D01*
X143909Y89854D01*
X145077Y92147D01*
X145873Y94596D01*
X146276Y97138D01*
Y97925D01*
D02*
G37*
G36*
X187684Y73638D02*
X186647D01*
X185646Y73369D01*
X184748Y72851D01*
X184015Y72118D01*
X183497Y71220D01*
X183228Y70219D01*
Y69182D01*
X183497Y68181D01*
X184015Y67283D01*
X184748Y66550D01*
X185646Y66032D01*
X186647Y65764D01*
X187684D01*
X188685Y66032D01*
X189583Y66550D01*
X190316Y67283D01*
X190834Y68181D01*
X191102Y69182D01*
Y70219D01*
X190834Y71220D01*
X190316Y72118D01*
X189583Y72851D01*
X188685Y73369D01*
X187684Y73638D01*
D02*
G37*
G36*
X177684D02*
X176647D01*
X175646Y73369D01*
X174748Y72851D01*
X174015Y72118D01*
X173497Y71220D01*
X173228Y70219D01*
Y69182D01*
X173497Y68181D01*
X174015Y67283D01*
X174748Y66550D01*
X175646Y66032D01*
X176647Y65764D01*
X177684D01*
X178685Y66032D01*
X179583Y66550D01*
X180316Y67283D01*
X180834Y68181D01*
X181102Y69182D01*
Y70219D01*
X180834Y71220D01*
X180316Y72118D01*
X179583Y72851D01*
X178685Y73369D01*
X177684Y73638D01*
D02*
G37*
G36*
X24723Y65354D02*
X24096D01*
X23517Y65115D01*
X23074Y64672D01*
X22835Y64093D01*
Y63466D01*
X23074Y62888D01*
X23517Y62445D01*
X24096Y62205D01*
X24723D01*
X25302Y62445D01*
X25745Y62888D01*
X25984Y63466D01*
Y64093D01*
X25745Y64672D01*
X25302Y65115D01*
X24723Y65354D01*
D02*
G37*
G36*
X187684Y63638D02*
X186647D01*
X185646Y63370D01*
X184748Y62851D01*
X184015Y62118D01*
X183497Y61220D01*
X183228Y60219D01*
Y59183D01*
X183497Y58181D01*
X184015Y57283D01*
X184748Y56550D01*
X185646Y56032D01*
X186647Y55764D01*
X187684D01*
X188685Y56032D01*
X189583Y56550D01*
X190316Y57283D01*
X190834Y58181D01*
X191102Y59183D01*
Y60219D01*
X190834Y61220D01*
X190316Y62118D01*
X189583Y62851D01*
X188685Y63370D01*
X187684Y63638D01*
D02*
G37*
G36*
X177684D02*
X176647D01*
X175646Y63370D01*
X174748Y62851D01*
X174015Y62118D01*
X173497Y61220D01*
X173228Y60219D01*
Y59183D01*
X173497Y58181D01*
X174015Y57283D01*
X174748Y56550D01*
X175646Y56032D01*
X176647Y55764D01*
X177684D01*
X178685Y56032D01*
X179583Y56550D01*
X180316Y57283D01*
X180834Y58181D01*
X181102Y59183D01*
Y60219D01*
X180834Y61220D01*
X180316Y62118D01*
X179583Y62851D01*
X178685Y63370D01*
X177684Y63638D01*
D02*
G37*
G36*
X13111Y56906D02*
X13098D01*
Y54831D01*
X15173D01*
Y54843D01*
X14781Y55789D01*
X14057Y56514D01*
X13111Y56906D01*
D02*
G37*
G36*
X12098D02*
X12086D01*
X11140Y56514D01*
X10416Y55789D01*
X10024Y54843D01*
Y54831D01*
X12098D01*
Y56906D01*
D02*
G37*
G36*
X15173Y53831D02*
X13098D01*
Y51756D01*
X13111D01*
X14057Y52148D01*
X14781Y52872D01*
X15173Y53819D01*
Y53831D01*
D02*
G37*
G36*
X12098D02*
X10024D01*
Y53819D01*
X10416Y52872D01*
X11140Y52148D01*
X12086Y51756D01*
X12098D01*
Y53831D01*
D02*
G37*
G36*
X3978Y51400D02*
X3108D01*
X2304Y51067D01*
X1689Y50452D01*
X1356Y49648D01*
Y48777D01*
X1689Y47973D01*
X2304Y47358D01*
X3108Y47025D01*
X3978D01*
X4782Y47358D01*
X5398Y47973D01*
X5731Y48777D01*
Y49648D01*
X5398Y50452D01*
X4782Y51067D01*
X3978Y51400D01*
D02*
G37*
G36*
X54056Y48244D02*
X54043D01*
Y46169D01*
X56118D01*
Y46181D01*
X55726Y47128D01*
X55002Y47852D01*
X54056Y48244D01*
D02*
G37*
G36*
X53043D02*
X53031D01*
X52085Y47852D01*
X51360Y47128D01*
X50968Y46181D01*
Y46169D01*
X53043D01*
Y48244D01*
D02*
G37*
G36*
X187684Y53638D02*
X186647D01*
X185646Y53369D01*
X184748Y52851D01*
X184015Y52118D01*
X183497Y51220D01*
X183228Y50219D01*
Y49183D01*
X183497Y48181D01*
X184015Y47283D01*
X184748Y46550D01*
X185646Y46032D01*
X186647Y45764D01*
X187684D01*
X188685Y46032D01*
X189583Y46550D01*
X190316Y47283D01*
X190834Y48181D01*
X191102Y49183D01*
Y50219D01*
X190834Y51220D01*
X190316Y52118D01*
X189583Y52851D01*
X188685Y53369D01*
X187684Y53638D01*
D02*
G37*
G36*
X177684D02*
X176647D01*
X175646Y53369D01*
X174748Y52851D01*
X174015Y52118D01*
X173497Y51220D01*
X173228Y50219D01*
Y49183D01*
X173497Y48181D01*
X174015Y47283D01*
X174748Y46550D01*
X175646Y46032D01*
X176647Y45764D01*
X177684D01*
X178685Y46032D01*
X179583Y46550D01*
X180316Y47283D01*
X180834Y48181D01*
X181102Y49183D01*
Y50219D01*
X180834Y51220D01*
X180316Y52118D01*
X179583Y52851D01*
X178685Y53369D01*
X177684Y53638D01*
D02*
G37*
G36*
X56118Y45169D02*
X54043D01*
Y43095D01*
X54056D01*
X55002Y43486D01*
X55726Y44211D01*
X56118Y45157D01*
Y45169D01*
D02*
G37*
G36*
X53043D02*
X50968D01*
Y45157D01*
X51360Y44211D01*
X52085Y43486D01*
X53031Y43095D01*
X53043D01*
Y45169D01*
D02*
G37*
G36*
X24528Y44307D02*
X24516D01*
Y42232D01*
X26591D01*
Y42244D01*
X26199Y43191D01*
X25474Y43915D01*
X24528Y44307D01*
D02*
G37*
G36*
X23516D02*
X23504D01*
X22557Y43915D01*
X21833Y43191D01*
X21441Y42244D01*
Y42232D01*
X23516D01*
Y44307D01*
D02*
G37*
G36*
X4851Y43689D02*
X4839D01*
Y41614D01*
X6913D01*
Y41626D01*
X6521Y42573D01*
X5797Y43297D01*
X4851Y43689D01*
D02*
G37*
G36*
X3839D02*
X3826D01*
X2880Y43297D01*
X2156Y42573D01*
X1764Y41626D01*
Y41614D01*
X3839D01*
Y43689D01*
D02*
G37*
G36*
X26591Y41232D02*
X24516D01*
Y39158D01*
X24528D01*
X25474Y39549D01*
X26199Y40274D01*
X26591Y41220D01*
Y41232D01*
D02*
G37*
G36*
X23516D02*
X21441D01*
Y41220D01*
X21833Y40274D01*
X22557Y39549D01*
X23504Y39158D01*
X23516D01*
Y41232D01*
D02*
G37*
G36*
X6913Y40614D02*
X4839D01*
Y38539D01*
X4851D01*
X5797Y38931D01*
X6521Y39656D01*
X6913Y40602D01*
Y40614D01*
D02*
G37*
G36*
X3839D02*
X1764D01*
Y40602D01*
X2156Y39656D01*
X2880Y38931D01*
X3826Y38539D01*
X3839D01*
Y40614D01*
D02*
G37*
G36*
X146276Y66429D02*
X129921D01*
X113567D01*
Y65642D01*
X113970Y63099D01*
X114765Y60651D01*
X115934Y58358D01*
X117447Y56275D01*
X119267Y54455D01*
X121350Y52942D01*
X123643Y51773D01*
X124696Y51431D01*
Y50931D01*
X123643Y50589D01*
X121350Y49421D01*
X119267Y47908D01*
X117447Y46087D01*
X115934Y44005D01*
X114765Y41711D01*
X113970Y39263D01*
X113567Y36720D01*
Y35933D01*
X129921D01*
X146276D01*
Y36720D01*
X145873Y39263D01*
X145077Y41711D01*
X143909Y44005D01*
X142396Y46087D01*
X140575Y47908D01*
X138493Y49421D01*
X136199Y50589D01*
X135147Y50931D01*
Y51431D01*
X136199Y51773D01*
X138493Y52942D01*
X140575Y54455D01*
X142396Y56275D01*
X143909Y58358D01*
X145077Y60651D01*
X145873Y63099D01*
X146276Y65642D01*
Y66429D01*
D02*
G37*
G36*
X-74197Y66429D02*
X-90551D01*
X-106905D01*
Y65642D01*
X-106503Y63099D01*
X-105707Y60651D01*
X-104539Y58358D01*
X-103026Y56275D01*
X-101205Y54455D01*
X-99123Y52942D01*
X-96829Y51773D01*
X-95777Y51431D01*
Y50931D01*
X-96829Y50589D01*
X-99123Y49420D01*
X-101205Y47908D01*
X-103026Y46087D01*
X-104539Y44005D01*
X-105707Y41711D01*
X-106503Y39263D01*
X-106905Y36720D01*
Y35933D01*
X-90551D01*
X-74197D01*
Y36720D01*
X-74599Y39263D01*
X-75395Y41711D01*
X-76564Y44005D01*
X-78077Y46087D01*
X-79897Y47908D01*
X-81980Y49420D01*
X-84273Y50589D01*
X-85325Y50931D01*
Y51431D01*
X-84273Y51773D01*
X-81980Y52942D01*
X-79897Y54455D01*
X-78077Y56275D01*
X-76564Y58358D01*
X-75395Y60651D01*
X-74599Y63099D01*
X-74197Y65642D01*
Y66429D01*
D02*
G37*
G36*
X187684Y43638D02*
X186647D01*
X185646Y43369D01*
X184748Y42851D01*
X184015Y42118D01*
X183497Y41220D01*
X183228Y40219D01*
Y39182D01*
X183497Y38181D01*
X184015Y37283D01*
X184748Y36550D01*
X185646Y36032D01*
X186647Y35764D01*
X187684D01*
X188685Y36032D01*
X189583Y36550D01*
X190316Y37283D01*
X190834Y38181D01*
X191102Y39182D01*
Y40219D01*
X190834Y41220D01*
X190316Y42118D01*
X189583Y42851D01*
X188685Y43369D01*
X187684Y43638D01*
D02*
G37*
G36*
X177684D02*
X176647D01*
X175646Y43369D01*
X174748Y42851D01*
X174015Y42118D01*
X173497Y41220D01*
X173228Y40219D01*
Y39182D01*
X173497Y38181D01*
X174015Y37283D01*
X174748Y36550D01*
X175646Y36032D01*
X176647Y35764D01*
X177684D01*
X178685Y36032D01*
X179583Y36550D01*
X180316Y37283D01*
X180834Y38181D01*
X181102Y39182D01*
Y40219D01*
X180834Y41220D01*
X180316Y42118D01*
X179583Y42851D01*
X178685Y43369D01*
X177684Y43638D01*
D02*
G37*
G36*
X36534Y38583D02*
X35907D01*
X35328Y38343D01*
X34885Y37900D01*
X34646Y37321D01*
Y36695D01*
X34885Y36116D01*
X35328Y35673D01*
X35907Y35433D01*
X36534D01*
X37113Y35673D01*
X37556Y36116D01*
X37795Y36695D01*
Y37321D01*
X37556Y37900D01*
X37113Y38343D01*
X36534Y38583D01*
D02*
G37*
G36*
X30827Y34071D02*
X30815D01*
Y31996D01*
X32890D01*
Y32008D01*
X32498Y32955D01*
X31773Y33679D01*
X30827Y34071D01*
D02*
G37*
G36*
X29815D02*
X29803D01*
X28857Y33679D01*
X28132Y32955D01*
X27740Y32008D01*
Y31996D01*
X29815D01*
Y34071D01*
D02*
G37*
G36*
X48345Y32677D02*
X47718D01*
X47139Y32437D01*
X46696Y31994D01*
X46457Y31416D01*
Y30789D01*
X46696Y30210D01*
X47139Y29767D01*
X47718Y29528D01*
X48345D01*
X48924Y29767D01*
X49367Y30210D01*
X49606Y30789D01*
Y31416D01*
X49367Y31994D01*
X48924Y32437D01*
X48345Y32677D01*
D02*
G37*
G36*
X32890Y30996D02*
X30815D01*
Y28921D01*
X30827D01*
X31773Y29313D01*
X32498Y30038D01*
X32890Y30984D01*
Y30996D01*
D02*
G37*
G36*
X29815D02*
X27740D01*
Y30984D01*
X28132Y30038D01*
X28857Y29313D01*
X29803Y28921D01*
X29815D01*
Y30996D01*
D02*
G37*
G36*
X187684Y33638D02*
X186647D01*
X185646Y33369D01*
X184748Y32851D01*
X184015Y32118D01*
X183497Y31220D01*
X183228Y30219D01*
Y29182D01*
X183497Y28181D01*
X184015Y27283D01*
X184748Y26550D01*
X185646Y26032D01*
X186647Y25764D01*
X187684D01*
X188685Y26032D01*
X189583Y26550D01*
X190316Y27283D01*
X190834Y28181D01*
X191102Y29182D01*
Y30219D01*
X190834Y31220D01*
X190316Y32118D01*
X189583Y32851D01*
X188685Y33369D01*
X187684Y33638D01*
D02*
G37*
G36*
X177684D02*
X176647D01*
X175646Y33369D01*
X174748Y32851D01*
X174015Y32118D01*
X173497Y31220D01*
X173228Y30219D01*
Y29182D01*
X173497Y28181D01*
X174015Y27283D01*
X174748Y26550D01*
X175646Y26032D01*
X176647Y25764D01*
X177684D01*
X178685Y26032D01*
X179583Y26550D01*
X180316Y27283D01*
X180834Y28181D01*
X181102Y29182D01*
Y30219D01*
X180834Y31220D01*
X180316Y32118D01*
X179583Y32851D01*
X178685Y33369D01*
X177684Y33638D01*
D02*
G37*
G36*
X28965Y21126D02*
Y18295D01*
X31795D01*
X31583Y19087D01*
X31142Y19850D01*
X30519Y20473D01*
X29756Y20914D01*
X28965Y21126D01*
D02*
G37*
G36*
X27965D02*
X27173Y20914D01*
X26410Y20473D01*
X25787Y19850D01*
X25346Y19087D01*
X25134Y18295D01*
X27965D01*
Y21126D01*
D02*
G37*
G36*
X-71929Y20291D02*
X-71941D01*
Y18216D01*
X-69866D01*
Y18229D01*
X-70258Y19175D01*
X-70982Y19899D01*
X-71929Y20291D01*
D02*
G37*
G36*
X-72941D02*
X-72953D01*
X-73900Y19899D01*
X-74624Y19175D01*
X-75016Y18229D01*
Y18216D01*
X-72941D01*
Y20291D01*
D02*
G37*
G36*
X187684Y23638D02*
X186647D01*
X185646Y23370D01*
X184748Y22851D01*
X184015Y22118D01*
X183497Y21220D01*
X183228Y20219D01*
Y19183D01*
X183497Y18181D01*
X184015Y17283D01*
X184748Y16550D01*
X185646Y16032D01*
X186647Y15764D01*
X187684D01*
X188685Y16032D01*
X189583Y16550D01*
X190316Y17283D01*
X190834Y18181D01*
X191102Y19183D01*
Y20219D01*
X190834Y21220D01*
X190316Y22118D01*
X189583Y22851D01*
X188685Y23370D01*
X187684Y23638D01*
D02*
G37*
G36*
X177684D02*
X176647D01*
X175646Y23370D01*
X174748Y22851D01*
X174015Y22118D01*
X173497Y21220D01*
X173228Y20219D01*
Y19183D01*
X173497Y18181D01*
X174015Y17283D01*
X174748Y16550D01*
X175646Y16032D01*
X176647Y15764D01*
X177684D01*
X178685Y16032D01*
X179583Y16550D01*
X180316Y17283D01*
X180834Y18181D01*
X181102Y19183D01*
Y20219D01*
X180834Y21220D01*
X180316Y22118D01*
X179583Y22851D01*
X178685Y23370D01*
X177684Y23638D01*
D02*
G37*
G36*
X-69866Y17217D02*
X-71941D01*
Y15142D01*
X-71929D01*
X-70982Y15534D01*
X-70258Y16258D01*
X-69866Y17204D01*
Y17217D01*
D02*
G37*
G36*
X-72941D02*
X-75016D01*
Y17204D01*
X-74624Y16258D01*
X-73900Y15534D01*
X-72953Y15142D01*
X-72941D01*
Y17217D01*
D02*
G37*
G36*
X-492Y22441D02*
X-1477D01*
X-2428Y22186D01*
X-3281Y21694D01*
X-3977Y20997D01*
X-4470Y20144D01*
X-4724Y19193D01*
Y18208D01*
X-4470Y17257D01*
X-3977Y16404D01*
X-3281Y15708D01*
X-2428Y15215D01*
X-1477Y14961D01*
X-492D01*
X459Y15215D01*
X1312Y15708D01*
X2009Y16404D01*
X2501Y17257D01*
X2756Y18208D01*
Y19193D01*
X2501Y20144D01*
X2009Y20997D01*
X1312Y21694D01*
X459Y22186D01*
X-492Y22441D01*
D02*
G37*
G36*
X31795Y17295D02*
X28965D01*
Y14465D01*
X29756Y14677D01*
X30519Y15117D01*
X31142Y15741D01*
X31583Y16504D01*
X31795Y17295D01*
D02*
G37*
G36*
X27965D02*
X25134D01*
X25309Y16642D01*
X25042Y16142D01*
X23965D01*
Y13295D01*
X26811D01*
Y14372D01*
X27311Y14640D01*
X27965Y14465D01*
Y17295D01*
D02*
G37*
G36*
X22965Y16142D02*
X20118D01*
Y13295D01*
X22965D01*
Y16142D01*
D02*
G37*
G36*
X-55986Y15748D02*
X-56612D01*
X-57191Y15508D01*
X-57634Y15065D01*
X-57874Y14487D01*
Y13860D01*
X-57634Y13281D01*
X-57191Y12838D01*
X-56612Y12598D01*
X-55986D01*
X-55407Y12838D01*
X-54964Y13281D01*
X-54724Y13860D01*
Y14487D01*
X-54964Y15065D01*
X-55407Y15508D01*
X-55986Y15748D01*
D02*
G37*
G36*
X33877Y15929D02*
X33052D01*
X32255Y15716D01*
X31540Y15303D01*
X30957Y14719D01*
X30544Y14005D01*
X30331Y13208D01*
Y12383D01*
X30544Y11586D01*
X30957Y10871D01*
X31540Y10288D01*
X32255Y9875D01*
X33052Y9661D01*
X33877D01*
X34674Y9875D01*
X35389Y10288D01*
X35972Y10871D01*
X36385Y11586D01*
X36598Y12383D01*
Y13208D01*
X36385Y14005D01*
X35972Y14719D01*
X35389Y15303D01*
X34674Y15716D01*
X33877Y15929D01*
D02*
G37*
G36*
X26811Y12295D02*
X23965D01*
Y9449D01*
X26811D01*
Y12295D01*
D02*
G37*
G36*
X22965D02*
X20118D01*
Y9449D01*
X22965D01*
Y12295D01*
D02*
G37*
G36*
X187684Y13638D02*
X186647D01*
X185646Y13370D01*
X184748Y12851D01*
X184015Y12118D01*
X183497Y11220D01*
X183228Y10219D01*
Y9183D01*
X183497Y8181D01*
X184015Y7283D01*
X184748Y6550D01*
X185646Y6032D01*
X186647Y5764D01*
X187684D01*
X188685Y6032D01*
X189583Y6550D01*
X190316Y7283D01*
X190834Y8181D01*
X191102Y9183D01*
Y10219D01*
X190834Y11220D01*
X190316Y12118D01*
X189583Y12851D01*
X188685Y13370D01*
X187684Y13638D01*
D02*
G37*
G36*
X177684D02*
X176647D01*
X175646Y13370D01*
X174748Y12851D01*
X174015Y12118D01*
X173497Y11220D01*
X173228Y10219D01*
Y9183D01*
X173497Y8181D01*
X174015Y7283D01*
X174748Y6550D01*
X175646Y6032D01*
X176647Y5764D01*
X177684D01*
X178685Y6032D01*
X179583Y6550D01*
X180316Y7283D01*
X180834Y8181D01*
X181102Y9183D01*
Y10219D01*
X180834Y11220D01*
X180316Y12118D01*
X179583Y12851D01*
X178685Y13370D01*
X177684Y13638D01*
D02*
G37*
G36*
X2756Y12598D02*
X-4724D01*
Y5118D01*
X2756D01*
Y12598D01*
D02*
G37*
G36*
X-74197Y34933D02*
X-90551D01*
X-106905D01*
Y34146D01*
X-106503Y31603D01*
X-105707Y29155D01*
X-104539Y26862D01*
X-103026Y24779D01*
X-101205Y22959D01*
X-99123Y21446D01*
X-96829Y20277D01*
X-95777Y19935D01*
Y19435D01*
X-96829Y19093D01*
X-99123Y17924D01*
X-101205Y16411D01*
X-103026Y14591D01*
X-104539Y12508D01*
X-105707Y10215D01*
X-106503Y7767D01*
X-106905Y5224D01*
Y4437D01*
X-90551D01*
X-74197D01*
Y5224D01*
X-74599Y7767D01*
X-75395Y10215D01*
X-76564Y12508D01*
X-78077Y14591D01*
X-79897Y16411D01*
X-81980Y17924D01*
X-84273Y19093D01*
X-85325Y19435D01*
Y19935D01*
X-84273Y20277D01*
X-81980Y21446D01*
X-79897Y22959D01*
X-78077Y24779D01*
X-76564Y26862D01*
X-75395Y29155D01*
X-74599Y31603D01*
X-74197Y34146D01*
Y34933D01*
D02*
G37*
G36*
X146276Y34933D02*
X129921D01*
X113567D01*
Y34146D01*
X113970Y31603D01*
X114765Y29155D01*
X115934Y26862D01*
X117447Y24779D01*
X119267Y22959D01*
X121350Y21446D01*
X123643Y20277D01*
X124696Y19935D01*
Y19435D01*
X123643Y19093D01*
X121350Y17924D01*
X119267Y16411D01*
X117447Y14591D01*
X115934Y12509D01*
X114765Y10215D01*
X113970Y7767D01*
X113567Y5224D01*
Y4437D01*
X129921D01*
X146276D01*
Y5224D01*
X145873Y7767D01*
X145077Y10215D01*
X143909Y12509D01*
X142396Y14591D01*
X140575Y16411D01*
X138493Y17924D01*
X136199Y19093D01*
X135147Y19435D01*
Y19935D01*
X136199Y20277D01*
X138493Y21446D01*
X140575Y22959D01*
X142396Y24779D01*
X143909Y26862D01*
X145077Y29155D01*
X145873Y31603D01*
X146276Y34146D01*
Y34933D01*
D02*
G37*
G36*
X-33838Y2075D02*
X-33850D01*
Y0D01*
X-31776D01*
Y12D01*
X-32168Y958D01*
X-32892Y1683D01*
X-33838Y2075D01*
D02*
G37*
G36*
X-34850D02*
X-34863D01*
X-35809Y1683D01*
X-36533Y958D01*
X-36925Y12D01*
Y0D01*
X-34850D01*
Y2075D01*
D02*
G37*
G36*
X-5799Y1521D02*
Y-1469D01*
X-2810D01*
X-3038Y-618D01*
X-3498Y181D01*
X-4150Y832D01*
X-4948Y1293D01*
X-5799Y1521D01*
D02*
G37*
G36*
X-6799D02*
X-7650Y1293D01*
X-8448Y832D01*
X-9100Y181D01*
X-9561Y-618D01*
X-9789Y-1469D01*
X-6799D01*
Y1521D01*
D02*
G37*
G36*
X-61299Y-181D02*
X-61311D01*
Y-2256D01*
X-59236D01*
Y-2244D01*
X-59628Y-1297D01*
X-60352Y-573D01*
X-61299Y-181D01*
D02*
G37*
G36*
X-62311D02*
X-62323D01*
X-63270Y-573D01*
X-63994Y-1297D01*
X-64386Y-2244D01*
Y-2256D01*
X-62311D01*
Y-181D01*
D02*
G37*
G36*
X-31776Y-1000D02*
X-33850D01*
Y-3075D01*
X-33838D01*
X-32892Y-2683D01*
X-32168Y-1959D01*
X-31776Y-1012D01*
Y-1000D01*
D02*
G37*
G36*
X-34850D02*
X-36925D01*
Y-1012D01*
X-36533Y-1959D01*
X-35809Y-2683D01*
X-34863Y-3075D01*
X-34850D01*
Y-1000D01*
D02*
G37*
G36*
X187684Y3638D02*
X186647D01*
X185646Y3370D01*
X184748Y2851D01*
X184015Y2118D01*
X183497Y1220D01*
X183228Y219D01*
Y-817D01*
X183497Y-1819D01*
X184015Y-2717D01*
X184748Y-3450D01*
X185646Y-3968D01*
X186647Y-4236D01*
X187684D01*
X188685Y-3968D01*
X189583Y-3450D01*
X190316Y-2717D01*
X190834Y-1819D01*
X191102Y-817D01*
Y219D01*
X190834Y1220D01*
X190316Y2118D01*
X189583Y2851D01*
X188685Y3370D01*
X187684Y3638D01*
D02*
G37*
G36*
X177684D02*
X176647D01*
X175646Y3370D01*
X174748Y2851D01*
X174015Y2118D01*
X173497Y1220D01*
X173228Y219D01*
Y-817D01*
X173497Y-1819D01*
X174015Y-2717D01*
X174748Y-3450D01*
X175646Y-3968D01*
X176647Y-4236D01*
X177684D01*
X178685Y-3968D01*
X179583Y-3450D01*
X180316Y-2717D01*
X180834Y-1819D01*
X181102Y-817D01*
Y219D01*
X180834Y1220D01*
X180316Y2118D01*
X179583Y2851D01*
X178685Y3370D01*
X177684Y3638D01*
D02*
G37*
G36*
X-59236Y-3256D02*
X-61311D01*
Y-5331D01*
X-61299D01*
X-60352Y-4939D01*
X-59628Y-4214D01*
X-59236Y-3268D01*
Y-3256D01*
D02*
G37*
G36*
X-62311D02*
X-64386D01*
Y-3268D01*
X-63994Y-4214D01*
X-63270Y-4939D01*
X-62323Y-5331D01*
X-62311D01*
Y-3256D01*
D02*
G37*
G36*
X-2810Y-2468D02*
X-5799D01*
Y-5458D01*
X-4948Y-5230D01*
X-4150Y-4769D01*
X-3498Y-4118D01*
X-3038Y-3319D01*
X-2810Y-2468D01*
D02*
G37*
G36*
X-6799D02*
X-9789D01*
X-9561Y-3319D01*
X-9100Y-4118D01*
X-8448Y-4769D01*
X-7650Y-5230D01*
X-6799Y-5458D01*
Y-2468D01*
D02*
G37*
G36*
X-17403Y-4331D02*
X-18030D01*
X-18609Y-4571D01*
X-19052Y-5014D01*
X-19291Y-5592D01*
Y-6219D01*
X-19052Y-6798D01*
X-18609Y-7241D01*
X-18030Y-7480D01*
X-17403D01*
X-16825Y-7241D01*
X-16382Y-6798D01*
X-16142Y-6219D01*
Y-5592D01*
X-16382Y-5014D01*
X-16825Y-4571D01*
X-17403Y-4331D01*
D02*
G37*
G36*
X29634Y-9896D02*
Y-12886D01*
X32623D01*
X32395Y-12035D01*
X31935Y-11237D01*
X31283Y-10585D01*
X30485Y-10124D01*
X29634Y-9896D01*
D02*
G37*
G36*
X28634D02*
X27783Y-10124D01*
X26985Y-10585D01*
X26333Y-11237D01*
X25872Y-12035D01*
X25644Y-12886D01*
X28634D01*
Y-9896D01*
D02*
G37*
G36*
X187684Y-6362D02*
X186647D01*
X185646Y-6630D01*
X184748Y-7149D01*
X184015Y-7882D01*
X183497Y-8780D01*
X183228Y-9781D01*
Y-10818D01*
X183497Y-11819D01*
X184015Y-12717D01*
X184748Y-13450D01*
X185646Y-13968D01*
X186647Y-14236D01*
X187684D01*
X188685Y-13968D01*
X189583Y-13450D01*
X190316Y-12717D01*
X190834Y-11819D01*
X191102Y-10818D01*
Y-9781D01*
X190834Y-8780D01*
X190316Y-7882D01*
X189583Y-7149D01*
X188685Y-6630D01*
X187684Y-6362D01*
D02*
G37*
G36*
X177684D02*
X176647D01*
X175646Y-6630D01*
X174748Y-7149D01*
X174015Y-7882D01*
X173497Y-8780D01*
X173228Y-9781D01*
Y-10818D01*
X173497Y-11819D01*
X174015Y-12717D01*
X174748Y-13450D01*
X175646Y-13968D01*
X176647Y-14236D01*
X177684D01*
X178685Y-13968D01*
X179583Y-13450D01*
X180316Y-12717D01*
X180834Y-11819D01*
X181102Y-10818D01*
Y-9781D01*
X180834Y-8780D01*
X180316Y-7882D01*
X179583Y-7149D01*
X178685Y-6630D01*
X177684Y-6362D01*
D02*
G37*
G36*
X32623Y-13886D02*
X29634D01*
Y-16875D01*
X30485Y-16647D01*
X31283Y-16186D01*
X31935Y-15535D01*
X32395Y-14737D01*
X32623Y-13886D01*
D02*
G37*
G36*
X28634D02*
X25644D01*
X25872Y-14737D01*
X26333Y-15535D01*
X26985Y-16186D01*
X27783Y-16647D01*
X28634Y-16875D01*
Y-13886D01*
D02*
G37*
G36*
X-28819Y-18291D02*
X-28831D01*
Y-20366D01*
X-26756D01*
Y-20354D01*
X-27148Y-19408D01*
X-27872Y-18683D01*
X-28819Y-18291D01*
D02*
G37*
G36*
X-29831D02*
X-29843D01*
X-30789Y-18683D01*
X-31514Y-19408D01*
X-31905Y-20354D01*
Y-20366D01*
X-29831D01*
Y-18291D01*
D02*
G37*
G36*
X-26756Y-21366D02*
X-28831D01*
Y-23441D01*
X-28819D01*
X-27872Y-23049D01*
X-27148Y-22325D01*
X-26756Y-21378D01*
Y-21366D01*
D02*
G37*
G36*
X-29831D02*
X-31905D01*
Y-21378D01*
X-31514Y-22325D01*
X-30789Y-23049D01*
X-29843Y-23441D01*
X-29831D01*
Y-21366D01*
D02*
G37*
G36*
X187684Y-16362D02*
X186647D01*
X185646Y-16631D01*
X184748Y-17149D01*
X184015Y-17882D01*
X183497Y-18780D01*
X183228Y-19781D01*
Y-20818D01*
X183497Y-21819D01*
X184015Y-22717D01*
X184748Y-23450D01*
X185646Y-23968D01*
X186647Y-24236D01*
X187684D01*
X188685Y-23968D01*
X189583Y-23450D01*
X190316Y-22717D01*
X190834Y-21819D01*
X191102Y-20818D01*
Y-19781D01*
X190834Y-18780D01*
X190316Y-17882D01*
X189583Y-17149D01*
X188685Y-16631D01*
X187684Y-16362D01*
D02*
G37*
G36*
X177684D02*
X176647D01*
X175646Y-16631D01*
X174748Y-17149D01*
X174015Y-17882D01*
X173497Y-18780D01*
X173228Y-19781D01*
Y-20818D01*
X173497Y-21819D01*
X174015Y-22717D01*
X174748Y-23450D01*
X175646Y-23968D01*
X176647Y-24236D01*
X177684D01*
X178685Y-23968D01*
X179583Y-23450D01*
X180316Y-22717D01*
X180834Y-21819D01*
X181102Y-20818D01*
Y-19781D01*
X180834Y-18780D01*
X180316Y-17882D01*
X179583Y-17149D01*
X178685Y-16631D01*
X177684Y-16362D01*
D02*
G37*
G36*
X146276Y3437D02*
X129921D01*
X113567D01*
Y2650D01*
X113970Y107D01*
X114765Y-2341D01*
X115934Y-4634D01*
X117447Y-6717D01*
X119267Y-8537D01*
X121350Y-10051D01*
X123643Y-11219D01*
X124696Y-11561D01*
Y-12061D01*
X123643Y-12403D01*
X121350Y-13572D01*
X119267Y-15085D01*
X117447Y-16905D01*
X115934Y-18988D01*
X114765Y-21281D01*
X113970Y-23729D01*
X113567Y-26272D01*
Y-27059D01*
X129921D01*
X146276D01*
Y-26272D01*
X145873Y-23729D01*
X145077Y-21281D01*
X143909Y-18988D01*
X142396Y-16905D01*
X140575Y-15085D01*
X138493Y-13572D01*
X136199Y-12403D01*
X135147Y-12061D01*
Y-11561D01*
X136199Y-11219D01*
X138493Y-10051D01*
X140575Y-8537D01*
X142396Y-6717D01*
X143909Y-4634D01*
X145077Y-2341D01*
X145873Y107D01*
X146276Y2650D01*
Y3437D01*
D02*
G37*
G36*
X-74197Y3437D02*
X-90551D01*
X-106905D01*
Y2650D01*
X-106503Y107D01*
X-105707Y-2341D01*
X-104539Y-4634D01*
X-103026Y-6717D01*
X-101205Y-8537D01*
X-99123Y-10051D01*
X-96829Y-11219D01*
X-95777Y-11561D01*
Y-12061D01*
X-96829Y-12403D01*
X-99123Y-13572D01*
X-101205Y-15085D01*
X-103026Y-16905D01*
X-104539Y-18988D01*
X-105707Y-21281D01*
X-106503Y-23729D01*
X-106905Y-26272D01*
Y-27059D01*
X-90551D01*
X-74197D01*
Y-26272D01*
X-74599Y-23729D01*
X-75395Y-21281D01*
X-76564Y-18988D01*
X-78077Y-16905D01*
X-79897Y-15085D01*
X-81980Y-13572D01*
X-84273Y-12403D01*
X-85325Y-12061D01*
Y-11561D01*
X-84273Y-11219D01*
X-81980Y-10051D01*
X-79897Y-8537D01*
X-78077Y-6717D01*
X-76564Y-4634D01*
X-75395Y-2341D01*
X-74599Y107D01*
X-74197Y2650D01*
Y3437D01*
D02*
G37*
G36*
X-28427Y-24803D02*
X-29053D01*
X-29632Y-25043D01*
X-30075Y-25486D01*
X-30315Y-26065D01*
Y-26691D01*
X-30075Y-27270D01*
X-29632Y-27713D01*
X-29053Y-27953D01*
X-28427D01*
X-27848Y-27713D01*
X-27405Y-27270D01*
X-27165Y-26691D01*
Y-26065D01*
X-27405Y-25486D01*
X-27848Y-25043D01*
X-28427Y-24803D01*
D02*
G37*
G36*
X-39057Y-26772D02*
X-39683D01*
X-40262Y-27011D01*
X-40705Y-27454D01*
X-40945Y-28033D01*
Y-28660D01*
X-40705Y-29239D01*
X-40262Y-29682D01*
X-39683Y-29921D01*
X-39057D01*
X-38478Y-29682D01*
X-38035Y-29239D01*
X-37795Y-28660D01*
Y-28033D01*
X-38035Y-27454D01*
X-38478Y-27011D01*
X-39057Y-26772D01*
D02*
G37*
G36*
X58780Y-30496D02*
X58768D01*
Y-32571D01*
X60843D01*
Y-32559D01*
X60451Y-31612D01*
X59726Y-30888D01*
X58780Y-30496D01*
D02*
G37*
G36*
X57768D02*
X57756D01*
X56809Y-30888D01*
X56085Y-31612D01*
X55693Y-32559D01*
Y-32571D01*
X57768D01*
Y-30496D01*
D02*
G37*
G36*
X187684Y-26362D02*
X186647D01*
X185646Y-26630D01*
X184748Y-27149D01*
X184015Y-27882D01*
X183497Y-28780D01*
X183228Y-29781D01*
Y-30817D01*
X183497Y-31819D01*
X184015Y-32717D01*
X184748Y-33450D01*
X185646Y-33968D01*
X186647Y-34236D01*
X187684D01*
X188685Y-33968D01*
X189583Y-33450D01*
X190316Y-32717D01*
X190834Y-31819D01*
X191102Y-30817D01*
Y-29781D01*
X190834Y-28780D01*
X190316Y-27882D01*
X189583Y-27149D01*
X188685Y-26630D01*
X187684Y-26362D01*
D02*
G37*
G36*
X177684D02*
X176647D01*
X175646Y-26630D01*
X174748Y-27149D01*
X174015Y-27882D01*
X173497Y-28780D01*
X173228Y-29781D01*
Y-30817D01*
X173497Y-31819D01*
X174015Y-32717D01*
X174748Y-33450D01*
X175646Y-33968D01*
X176647Y-34236D01*
X177684D01*
X178685Y-33968D01*
X179583Y-33450D01*
X180316Y-32717D01*
X180834Y-31819D01*
X181102Y-30817D01*
Y-29781D01*
X180834Y-28780D01*
X180316Y-27882D01*
X179583Y-27149D01*
X178685Y-26630D01*
X177684Y-26362D01*
D02*
G37*
G36*
X60843Y-33571D02*
X58768D01*
Y-35646D01*
X58780D01*
X59726Y-35254D01*
X60451Y-34529D01*
X60843Y-33583D01*
Y-33571D01*
D02*
G37*
G36*
X57768D02*
X55693D01*
Y-33583D01*
X56085Y-34529D01*
X56809Y-35254D01*
X57756Y-35646D01*
X57768D01*
Y-33571D01*
D02*
G37*
G36*
X45195Y-33071D02*
X44569D01*
X43990Y-33311D01*
X43547Y-33754D01*
X43307Y-34332D01*
Y-34959D01*
X43547Y-35538D01*
X43990Y-35981D01*
X44569Y-36220D01*
X45195D01*
X45774Y-35981D01*
X46217Y-35538D01*
X46457Y-34959D01*
Y-34332D01*
X46217Y-33754D01*
X45774Y-33311D01*
X45195Y-33071D01*
D02*
G37*
G36*
X16183Y-38364D02*
X15313D01*
X14509Y-38697D01*
X13894Y-39312D01*
X13561Y-40116D01*
Y-40986D01*
X13894Y-41790D01*
X14509Y-42406D01*
X15313Y-42739D01*
X16183D01*
X16987Y-42406D01*
X17602Y-41790D01*
X17935Y-40986D01*
Y-40116D01*
X17602Y-39312D01*
X16987Y-38697D01*
X16183Y-38364D01*
D02*
G37*
G36*
X187684Y-36362D02*
X186647D01*
X185646Y-36630D01*
X184748Y-37149D01*
X184015Y-37882D01*
X183497Y-38780D01*
X183228Y-39781D01*
Y-40817D01*
X183497Y-41819D01*
X184015Y-42717D01*
X184748Y-43450D01*
X185646Y-43968D01*
X186647Y-44236D01*
X187684D01*
X188685Y-43968D01*
X189583Y-43450D01*
X190316Y-42717D01*
X190834Y-41819D01*
X191102Y-40817D01*
Y-39781D01*
X190834Y-38780D01*
X190316Y-37882D01*
X189583Y-37149D01*
X188685Y-36630D01*
X187684Y-36362D01*
D02*
G37*
G36*
X177684D02*
X176647D01*
X175646Y-36630D01*
X174748Y-37149D01*
X174015Y-37882D01*
X173497Y-38780D01*
X173228Y-39781D01*
Y-40817D01*
X173497Y-41819D01*
X174015Y-42717D01*
X174748Y-43450D01*
X175646Y-43968D01*
X176647Y-44236D01*
X177684D01*
X178685Y-43968D01*
X179583Y-43450D01*
X180316Y-42717D01*
X180834Y-41819D01*
X181102Y-40817D01*
Y-39781D01*
X180834Y-38780D01*
X180316Y-37882D01*
X179583Y-37149D01*
X178685Y-36630D01*
X177684Y-36362D01*
D02*
G37*
G36*
X17232Y-43755D02*
Y-46744D01*
X20222D01*
X19994Y-45893D01*
X19533Y-45095D01*
X18881Y-44443D01*
X18083Y-43983D01*
X17232Y-43755D01*
D02*
G37*
G36*
X16232D02*
X15381Y-43983D01*
X14583Y-44443D01*
X13932Y-45095D01*
X13471Y-45893D01*
X13243Y-46744D01*
X16232D01*
Y-43755D01*
D02*
G37*
G36*
X50894Y-46117D02*
Y-49106D01*
X53883D01*
X53655Y-48255D01*
X53194Y-47457D01*
X52543Y-46806D01*
X51745Y-46345D01*
X50894Y-46117D01*
D02*
G37*
G36*
X49894D02*
X49043Y-46345D01*
X48245Y-46806D01*
X47593Y-47457D01*
X47132Y-48255D01*
X46904Y-49106D01*
X49894D01*
Y-46117D01*
D02*
G37*
G36*
X63098Y-47298D02*
Y-50287D01*
X66088D01*
X65860Y-49437D01*
X65399Y-48638D01*
X64748Y-47987D01*
X63949Y-47526D01*
X63098Y-47298D01*
D02*
G37*
G36*
X62098D02*
X61247Y-47526D01*
X60449Y-47987D01*
X59798Y-48638D01*
X59337Y-49437D01*
X59109Y-50287D01*
X62098D01*
Y-47298D01*
D02*
G37*
G36*
X20222Y-47744D02*
X17232D01*
Y-50734D01*
X18083Y-50506D01*
X18881Y-50045D01*
X19533Y-49393D01*
X19994Y-48595D01*
X20222Y-47744D01*
D02*
G37*
G36*
X16232D02*
X13243D01*
X13471Y-48595D01*
X13932Y-49393D01*
X14583Y-50045D01*
X15381Y-50506D01*
X16232Y-50734D01*
Y-47744D01*
D02*
G37*
G36*
X53883Y-50106D02*
X50894D01*
Y-53096D01*
X51745Y-52868D01*
X52543Y-52407D01*
X53194Y-51755D01*
X53655Y-50957D01*
X53883Y-50106D01*
D02*
G37*
G36*
X49894D02*
X46904D01*
X47132Y-50957D01*
X47593Y-51755D01*
X48245Y-52407D01*
X49043Y-52868D01*
X49894Y-53096D01*
Y-50106D01*
D02*
G37*
G36*
X66088Y-51287D02*
X63098D01*
Y-54277D01*
X63949Y-54049D01*
X64748Y-53588D01*
X65399Y-52937D01*
X65860Y-52138D01*
X66088Y-51287D01*
D02*
G37*
G36*
X62098D02*
X59109D01*
X59337Y-52138D01*
X59798Y-52937D01*
X60449Y-53588D01*
X61247Y-54049D01*
X62098Y-54277D01*
Y-51287D01*
D02*
G37*
G36*
X33583Y-56087D02*
X33571D01*
Y-58161D01*
X35646D01*
Y-58149D01*
X35254Y-57203D01*
X34529Y-56479D01*
X33583Y-56087D01*
D02*
G37*
G36*
X32571D02*
X32559D01*
X31612Y-56479D01*
X30888Y-57203D01*
X30496Y-58149D01*
Y-58161D01*
X32571D01*
Y-56087D01*
D02*
G37*
G36*
X146276Y-28059D02*
X129921D01*
X113567D01*
Y-28846D01*
X113970Y-31389D01*
X114765Y-33837D01*
X115934Y-36131D01*
X117447Y-38213D01*
X119267Y-40033D01*
X121350Y-41546D01*
X123643Y-42715D01*
X124696Y-43057D01*
Y-43557D01*
X123643Y-43899D01*
X121350Y-45068D01*
X119267Y-46581D01*
X117447Y-48401D01*
X115934Y-50484D01*
X114765Y-52777D01*
X113970Y-55225D01*
X113567Y-57768D01*
Y-58555D01*
X129921D01*
X146276D01*
Y-57768D01*
X145873Y-55225D01*
X145077Y-52777D01*
X143909Y-50484D01*
X142396Y-48401D01*
X140575Y-46581D01*
X138493Y-45068D01*
X136199Y-43899D01*
X135147Y-43557D01*
Y-43057D01*
X136199Y-42715D01*
X138493Y-41546D01*
X140575Y-40033D01*
X142396Y-38213D01*
X143909Y-36131D01*
X145077Y-33837D01*
X145873Y-31389D01*
X146276Y-28846D01*
Y-28059D01*
D02*
G37*
G36*
X-74197Y-28059D02*
X-90551D01*
X-106905D01*
Y-28846D01*
X-106503Y-31389D01*
X-105707Y-33837D01*
X-104539Y-36131D01*
X-103026Y-38213D01*
X-101205Y-40033D01*
X-99123Y-41546D01*
X-96829Y-42715D01*
X-95777Y-43057D01*
Y-43557D01*
X-96829Y-43899D01*
X-99123Y-45068D01*
X-101205Y-46581D01*
X-103026Y-48401D01*
X-104539Y-50484D01*
X-105707Y-52777D01*
X-106503Y-55225D01*
X-106905Y-57768D01*
Y-58555D01*
X-90551D01*
X-74197D01*
Y-57768D01*
X-74599Y-55225D01*
X-75395Y-52777D01*
X-76564Y-50484D01*
X-78077Y-48401D01*
X-79897Y-46581D01*
X-81980Y-45068D01*
X-84273Y-43899D01*
X-85325Y-43557D01*
Y-43057D01*
X-84273Y-42715D01*
X-81980Y-41546D01*
X-79897Y-40033D01*
X-78077Y-38213D01*
X-76564Y-36131D01*
X-75395Y-33837D01*
X-74599Y-31389D01*
X-74197Y-28846D01*
Y-28059D01*
D02*
G37*
G36*
X35646Y-59161D02*
X33571D01*
Y-61236D01*
X33583D01*
X34529Y-60844D01*
X35254Y-60120D01*
X35646Y-59174D01*
Y-59161D01*
D02*
G37*
G36*
X32571D02*
X30496D01*
Y-59174D01*
X30888Y-60120D01*
X31612Y-60844D01*
X32559Y-61236D01*
X32571D01*
Y-59161D01*
D02*
G37*
G36*
X49526Y-58661D02*
X48899D01*
X48320Y-58901D01*
X47878Y-59344D01*
X47638Y-59923D01*
Y-60549D01*
X47878Y-61128D01*
X48320Y-61571D01*
X48899Y-61811D01*
X49526D01*
X50105Y-61571D01*
X50548Y-61128D01*
X50787Y-60549D01*
Y-59923D01*
X50548Y-59344D01*
X50105Y-58901D01*
X49526Y-58661D01*
D02*
G37*
G36*
X27242Y-59449D02*
X26302D01*
X25434Y-59808D01*
X24769Y-60473D01*
X24409Y-61341D01*
Y-62281D01*
X24769Y-63149D01*
X25434Y-63814D01*
X26302Y-64173D01*
X27242D01*
X28110Y-63814D01*
X28774Y-63149D01*
X29134Y-62281D01*
Y-61341D01*
X28774Y-60473D01*
X28110Y-59808D01*
X27242Y-59449D01*
D02*
G37*
G36*
X63821Y-60805D02*
X62951D01*
X62147Y-61138D01*
X61531Y-61753D01*
X61198Y-62557D01*
Y-63427D01*
X61531Y-64231D01*
X62147Y-64846D01*
X62951Y-65180D01*
X63821D01*
X64625Y-64846D01*
X65240Y-64231D01*
X65573Y-63427D01*
Y-62557D01*
X65240Y-61753D01*
X64625Y-61138D01*
X63821Y-60805D01*
D02*
G37*
G36*
X-50287Y-63046D02*
Y-66035D01*
X-47298D01*
X-47526Y-65184D01*
X-47987Y-64386D01*
X-48638Y-63735D01*
X-49437Y-63274D01*
X-50287Y-63046D01*
D02*
G37*
G36*
X-51287D02*
X-52138Y-63274D01*
X-52937Y-63735D01*
X-53588Y-64386D01*
X-54049Y-65184D01*
X-54277Y-66035D01*
X-51287D01*
Y-63046D01*
D02*
G37*
G36*
X52678Y-66323D02*
X52665D01*
Y-68398D01*
X54740D01*
Y-68385D01*
X54348Y-67439D01*
X53624Y-66715D01*
X52678Y-66323D01*
D02*
G37*
G36*
X51665D02*
X51653D01*
X50707Y-66715D01*
X49983Y-67439D01*
X49591Y-68385D01*
Y-68398D01*
X51665D01*
Y-66323D01*
D02*
G37*
G36*
X-47298Y-67035D02*
X-50287D01*
Y-70025D01*
X-49437Y-69797D01*
X-48638Y-69336D01*
X-47987Y-68685D01*
X-47526Y-67886D01*
X-47298Y-67035D01*
D02*
G37*
G36*
X-51287D02*
X-54277D01*
X-54049Y-67886D01*
X-53588Y-68685D01*
X-52937Y-69336D01*
X-52138Y-69797D01*
X-51287Y-70025D01*
Y-67035D01*
D02*
G37*
G36*
X26454Y-66142D02*
X25514D01*
X24646Y-66501D01*
X23982Y-67166D01*
X23622Y-68034D01*
Y-68974D01*
X23982Y-69842D01*
X24646Y-70507D01*
X25514Y-70866D01*
X26454D01*
X27322Y-70507D01*
X27987Y-69842D01*
X28346Y-68974D01*
Y-68034D01*
X27987Y-67166D01*
X27322Y-66501D01*
X26454Y-66142D01*
D02*
G37*
G36*
X54740Y-69398D02*
X52665D01*
Y-71472D01*
X52678D01*
X53624Y-71080D01*
X54348Y-70356D01*
X54740Y-69410D01*
Y-69398D01*
D02*
G37*
G36*
X51665D02*
X49591D01*
Y-69410D01*
X49983Y-70356D01*
X50707Y-71080D01*
X51653Y-71472D01*
X51665D01*
Y-69398D01*
D02*
G37*
G36*
X-74197Y-59555D02*
X-90051D01*
Y-75409D01*
X-89264D01*
X-86721Y-75007D01*
X-84273Y-74211D01*
X-81980Y-73043D01*
X-79897Y-71530D01*
X-78077Y-69709D01*
X-76564Y-67627D01*
X-75395Y-65333D01*
X-74599Y-62885D01*
X-74197Y-60342D01*
Y-59555D01*
D02*
G37*
G36*
X-91051D02*
X-106905D01*
Y-60342D01*
X-106503Y-62885D01*
X-105707Y-65333D01*
X-104539Y-67627D01*
X-103026Y-69709D01*
X-101205Y-71530D01*
X-99123Y-73043D01*
X-96829Y-74211D01*
X-94381Y-75007D01*
X-91838Y-75409D01*
X-91051D01*
Y-59555D01*
D02*
G37*
G36*
X-25878Y-83125D02*
Y-86114D01*
X-22888D01*
X-23117Y-85263D01*
X-23577Y-84465D01*
X-24229Y-83814D01*
X-25027Y-83353D01*
X-25878Y-83125D01*
D02*
G37*
G36*
X-26878D02*
X-27729Y-83353D01*
X-28527Y-83814D01*
X-29179Y-84465D01*
X-29639Y-85263D01*
X-29867Y-86114D01*
X-26878D01*
Y-83125D01*
D02*
G37*
G36*
X-66888Y-84427D02*
X-67758D01*
X-68562Y-84760D01*
X-69177Y-85375D01*
X-69510Y-86179D01*
Y-87049D01*
X-69177Y-87853D01*
X-68562Y-88469D01*
X-67758Y-88802D01*
X-66888D01*
X-66084Y-88469D01*
X-65468Y-87853D01*
X-65135Y-87049D01*
Y-86179D01*
X-65468Y-85375D01*
X-66084Y-84760D01*
X-66888Y-84427D01*
D02*
G37*
G36*
X146276Y-59555D02*
X129921D01*
X113567D01*
Y-60342D01*
X113970Y-62885D01*
X114765Y-65333D01*
X115934Y-67627D01*
X117447Y-69709D01*
X119267Y-71530D01*
X121350Y-73043D01*
X123643Y-74211D01*
X124696Y-74553D01*
Y-75053D01*
X123643Y-75395D01*
X121350Y-76564D01*
X119267Y-78077D01*
X117447Y-79897D01*
X115934Y-81980D01*
X114765Y-84273D01*
X113970Y-86721D01*
X113567Y-89264D01*
Y-90051D01*
X129921D01*
X146276D01*
Y-89264D01*
X145873Y-86721D01*
X145077Y-84273D01*
X143909Y-81980D01*
X142396Y-79897D01*
X140575Y-78077D01*
X138493Y-76564D01*
X136199Y-75395D01*
X135147Y-75053D01*
Y-74553D01*
X136199Y-74211D01*
X138493Y-73043D01*
X140575Y-71530D01*
X142396Y-69709D01*
X143909Y-67627D01*
X145077Y-65333D01*
X145873Y-62885D01*
X146276Y-60342D01*
Y-59555D01*
D02*
G37*
G36*
X-22888Y-87114D02*
X-25878D01*
Y-90104D01*
X-25027Y-89876D01*
X-24229Y-89415D01*
X-23577Y-88763D01*
X-23117Y-87965D01*
X-22888Y-87114D01*
D02*
G37*
G36*
X-26878D02*
X-29867D01*
X-29639Y-87965D01*
X-29179Y-88763D01*
X-28527Y-89415D01*
X-27729Y-89876D01*
X-26878Y-90104D01*
Y-87114D01*
D02*
G37*
G36*
X204724Y-93347D02*
X196850D01*
Y-101221D01*
X204724D01*
Y-93347D01*
D02*
G37*
G36*
X201306Y-103347D02*
X200269D01*
X199268Y-103615D01*
X198370Y-104133D01*
X197637Y-104866D01*
X197119Y-105764D01*
X196850Y-106765D01*
Y-107802D01*
X197119Y-108803D01*
X197637Y-109701D01*
X198370Y-110434D01*
X199268Y-110952D01*
X200269Y-111221D01*
X201306D01*
X202307Y-110952D01*
X203205Y-110434D01*
X203938Y-109701D01*
X204456Y-108803D01*
X204724Y-107802D01*
Y-106765D01*
X204456Y-105764D01*
X203938Y-104866D01*
X203205Y-104133D01*
X202307Y-103615D01*
X201306Y-103347D01*
D02*
G37*
G36*
X-132242Y-110411D02*
X-133112D01*
X-133916Y-110744D01*
X-134531Y-111359D01*
X-134865Y-112163D01*
Y-113033D01*
X-134531Y-113838D01*
X-133916Y-114453D01*
X-133112Y-114786D01*
X-132242D01*
X-131438Y-114453D01*
X-130823Y-113838D01*
X-130490Y-113033D01*
Y-112163D01*
X-130823Y-111359D01*
X-131438Y-110744D01*
X-132242Y-110411D01*
D02*
G37*
G36*
X-144370Y-114354D02*
X-144382D01*
Y-116429D01*
X-142307D01*
Y-116417D01*
X-142699Y-115471D01*
X-143423Y-114746D01*
X-144370Y-114354D01*
D02*
G37*
G36*
X-145382D02*
X-145394D01*
X-146340Y-114746D01*
X-147065Y-115471D01*
X-147457Y-116417D01*
Y-116429D01*
X-145382D01*
Y-114354D01*
D02*
G37*
G36*
X201334Y-113134D02*
X201287D01*
Y-116783D01*
X204937D01*
Y-116737D01*
X204654Y-115682D01*
X204108Y-114735D01*
X203335Y-113963D01*
X202389Y-113417D01*
X201334Y-113134D01*
D02*
G37*
G36*
X200287D02*
X200241D01*
X199186Y-113417D01*
X198240Y-113963D01*
X197467Y-114735D01*
X196921Y-115682D01*
X196638Y-116737D01*
Y-116783D01*
X200287D01*
Y-113134D01*
D02*
G37*
G36*
X146276Y-91051D02*
X129921D01*
X113567D01*
Y-91838D01*
X113970Y-94381D01*
X114765Y-96829D01*
X115934Y-99123D01*
X117447Y-101205D01*
X119267Y-103025D01*
X121350Y-104539D01*
X123643Y-105707D01*
X124696Y-106049D01*
Y-106549D01*
X123643Y-106891D01*
X121350Y-108060D01*
X119267Y-109573D01*
X117447Y-111393D01*
X115934Y-113476D01*
X114765Y-115769D01*
X114423Y-116822D01*
X113923D01*
X113581Y-115769D01*
X112413Y-113476D01*
X110900Y-111393D01*
X109079Y-109573D01*
X106997Y-108060D01*
X104703Y-106891D01*
X102255Y-106096D01*
X99712Y-105693D01*
X98925D01*
Y-122047D01*
Y-138402D01*
X99712D01*
X102255Y-137999D01*
X104703Y-137203D01*
X106997Y-136035D01*
X109079Y-134522D01*
X110900Y-132701D01*
X112413Y-130619D01*
X113581Y-128325D01*
X113923Y-127273D01*
X114423D01*
X114765Y-128325D01*
X115934Y-130619D01*
X117447Y-132701D01*
X119267Y-134522D01*
X121350Y-136035D01*
X123643Y-137203D01*
X126092Y-137999D01*
X128634Y-138401D01*
X129421D01*
Y-122047D01*
X129921D01*
Y-121547D01*
X146276D01*
Y-120760D01*
X145873Y-118218D01*
X145077Y-115769D01*
X143909Y-113476D01*
X142396Y-111393D01*
X140575Y-109573D01*
X138493Y-108060D01*
X136199Y-106891D01*
X135147Y-106549D01*
Y-106049D01*
X136199Y-105707D01*
X138493Y-104539D01*
X140575Y-103025D01*
X142396Y-101205D01*
X143909Y-99123D01*
X145077Y-96829D01*
X145873Y-94381D01*
X146276Y-91838D01*
Y-91051D01*
D02*
G37*
G36*
X66429Y-105693D02*
X65642D01*
X63099Y-106096D01*
X60651Y-106891D01*
X58358Y-108060D01*
X56275Y-109573D01*
X54455Y-111393D01*
X52942Y-113476D01*
X51773Y-115769D01*
X51431Y-116822D01*
X50931D01*
X50589Y-115769D01*
X49420Y-113476D01*
X47908Y-111393D01*
X46087Y-109573D01*
X44005Y-108060D01*
X41711Y-106891D01*
X39263Y-106096D01*
X36720Y-105693D01*
X35933D01*
Y-122047D01*
Y-138402D01*
X36720D01*
X39263Y-137999D01*
X41711Y-137203D01*
X44005Y-136035D01*
X46087Y-134522D01*
X47908Y-132701D01*
X49420Y-130619D01*
X50589Y-128325D01*
X50931Y-127273D01*
X51431D01*
X51773Y-128325D01*
X52942Y-130619D01*
X54455Y-132701D01*
X56275Y-134522D01*
X58358Y-136035D01*
X60651Y-137203D01*
X63099Y-137999D01*
X65642Y-138402D01*
X66429D01*
Y-122047D01*
Y-105693D01*
D02*
G37*
G36*
X34933D02*
X34146D01*
X31603Y-106096D01*
X29155Y-106891D01*
X26862Y-108060D01*
X24779Y-109573D01*
X22959Y-111393D01*
X21446Y-113476D01*
X20277Y-115769D01*
X19935Y-116822D01*
X19435D01*
X19093Y-115769D01*
X17924Y-113476D01*
X16411Y-111393D01*
X14591Y-109573D01*
X12508Y-108060D01*
X10215Y-106891D01*
X7767Y-106096D01*
X5224Y-105693D01*
X4437D01*
Y-122047D01*
Y-138402D01*
X5224D01*
X7767Y-137999D01*
X10215Y-137203D01*
X12508Y-136035D01*
X14591Y-134522D01*
X16411Y-132701D01*
X17924Y-130619D01*
X19093Y-128325D01*
X19435Y-127273D01*
X19935D01*
X20277Y-128325D01*
X21446Y-130619D01*
X22959Y-132701D01*
X24779Y-134522D01*
X26862Y-136035D01*
X29155Y-137203D01*
X31603Y-137999D01*
X34146Y-138402D01*
X34933D01*
Y-122047D01*
Y-105693D01*
D02*
G37*
G36*
X3437D02*
X2650D01*
X107Y-106096D01*
X-2341Y-106891D01*
X-4634Y-108060D01*
X-6717Y-109573D01*
X-8537Y-111393D01*
X-10051Y-113476D01*
X-11219Y-115769D01*
X-11561Y-116822D01*
X-12061D01*
X-12403Y-115769D01*
X-13572Y-113476D01*
X-15085Y-111393D01*
X-16905Y-109573D01*
X-18988Y-108060D01*
X-21281Y-106891D01*
X-23729Y-106096D01*
X-26272Y-105693D01*
X-27059D01*
Y-122047D01*
Y-138402D01*
X-26272D01*
X-23729Y-137999D01*
X-21281Y-137203D01*
X-18988Y-136035D01*
X-16905Y-134522D01*
X-15085Y-132701D01*
X-13572Y-130619D01*
X-12403Y-128325D01*
X-12061Y-127273D01*
X-11561D01*
X-11219Y-128325D01*
X-10051Y-130619D01*
X-8537Y-132701D01*
X-6717Y-134522D01*
X-4634Y-136035D01*
X-2341Y-137203D01*
X107Y-137999D01*
X2650Y-138402D01*
X3437D01*
Y-122047D01*
Y-105693D01*
D02*
G37*
G36*
X-59555D02*
X-60342D01*
X-62885Y-106096D01*
X-65333Y-106891D01*
X-67627Y-108060D01*
X-69709Y-109573D01*
X-71530Y-111393D01*
X-73043Y-113476D01*
X-74211Y-115769D01*
X-74553Y-116822D01*
X-75053D01*
X-75395Y-115769D01*
X-76564Y-113476D01*
X-78077Y-111393D01*
X-79897Y-109573D01*
X-81980Y-108060D01*
X-84273Y-106891D01*
X-86721Y-106096D01*
X-89264Y-105693D01*
X-90051D01*
Y-122047D01*
Y-138402D01*
X-89264D01*
X-86721Y-137999D01*
X-84273Y-137203D01*
X-81980Y-136035D01*
X-79897Y-134522D01*
X-78077Y-132701D01*
X-76564Y-130619D01*
X-75395Y-128325D01*
X-75053Y-127273D01*
X-74553D01*
X-74211Y-128325D01*
X-73043Y-130619D01*
X-71530Y-132701D01*
X-69709Y-134522D01*
X-67627Y-136035D01*
X-65333Y-137203D01*
X-62885Y-137999D01*
X-60342Y-138402D01*
X-59555D01*
Y-122047D01*
Y-105693D01*
D02*
G37*
G36*
X97925D02*
X97138D01*
X94596Y-106096D01*
X92147Y-106891D01*
X89854Y-108060D01*
X87771Y-109573D01*
X85951Y-111393D01*
X84438Y-113476D01*
X83269Y-115769D01*
X82927Y-116822D01*
X82427D01*
X82085Y-115769D01*
X80917Y-113476D01*
X79404Y-111393D01*
X77583Y-109573D01*
X75501Y-108060D01*
X73207Y-106891D01*
X70759Y-106096D01*
X68216Y-105693D01*
X67429D01*
Y-122047D01*
Y-138402D01*
X68216D01*
X70759Y-137999D01*
X73207Y-137203D01*
X75501Y-136035D01*
X77583Y-134522D01*
X79404Y-132701D01*
X80917Y-130619D01*
X82085Y-128325D01*
X82427Y-127273D01*
X82927D01*
X83269Y-128325D01*
X84438Y-130619D01*
X85951Y-132701D01*
X87771Y-134522D01*
X89854Y-136035D01*
X92147Y-137203D01*
X94596Y-137999D01*
X97138Y-138402D01*
X97925D01*
Y-122047D01*
Y-105693D01*
D02*
G37*
G36*
X-28059D02*
X-28846D01*
X-31389Y-106096D01*
X-33837Y-106891D01*
X-36131Y-108060D01*
X-38213Y-109573D01*
X-40033Y-111393D01*
X-41546Y-113476D01*
X-42715Y-115769D01*
X-43057Y-116822D01*
X-43557D01*
X-43899Y-115769D01*
X-45068Y-113476D01*
X-46581Y-111393D01*
X-48401Y-109573D01*
X-50484Y-108060D01*
X-52777Y-106891D01*
X-55225Y-106096D01*
X-57768Y-105693D01*
X-58555D01*
Y-122047D01*
Y-138402D01*
X-57768D01*
X-55225Y-137999D01*
X-52777Y-137203D01*
X-50484Y-136035D01*
X-48401Y-134522D01*
X-46581Y-132701D01*
X-45068Y-130619D01*
X-43899Y-128325D01*
X-43557Y-127273D01*
X-43057D01*
X-42715Y-128325D01*
X-41546Y-130619D01*
X-40033Y-132701D01*
X-38213Y-134522D01*
X-36131Y-136035D01*
X-33837Y-137203D01*
X-31389Y-137999D01*
X-28846Y-138402D01*
X-28059D01*
Y-122047D01*
Y-105693D01*
D02*
G37*
G36*
X-142307Y-117429D02*
X-144382D01*
Y-119504D01*
X-144370D01*
X-143423Y-119112D01*
X-142699Y-118388D01*
X-142307Y-117441D01*
Y-117429D01*
D02*
G37*
G36*
X-145382D02*
X-147457D01*
Y-117441D01*
X-147065Y-118388D01*
X-146340Y-119112D01*
X-145394Y-119504D01*
X-145382D01*
Y-117429D01*
D02*
G37*
G36*
X204937Y-117783D02*
X201287D01*
Y-121433D01*
X201334D01*
X202389Y-121150D01*
X203335Y-120604D01*
X204108Y-119831D01*
X204654Y-118885D01*
X204937Y-117830D01*
Y-117783D01*
D02*
G37*
G36*
X200287D02*
X196638D01*
Y-117830D01*
X196921Y-118885D01*
X197467Y-119831D01*
X198240Y-120604D01*
X199186Y-121150D01*
X200241Y-121433D01*
X200287D01*
Y-117783D01*
D02*
G37*
G36*
X-91051Y-105693D02*
X-91838D01*
X-94381Y-106096D01*
X-96829Y-106891D01*
X-99123Y-108060D01*
X-101205Y-109573D01*
X-103026Y-111393D01*
X-104539Y-113476D01*
X-105707Y-115769D01*
X-106503Y-118218D01*
X-106905Y-120760D01*
Y-121547D01*
X-91051D01*
Y-105693D01*
D02*
G37*
G36*
X201334Y-123134D02*
X201287D01*
Y-126784D01*
X204937D01*
Y-126737D01*
X204654Y-125682D01*
X204108Y-124735D01*
X203335Y-123963D01*
X202389Y-123417D01*
X201334Y-123134D01*
D02*
G37*
G36*
X200287D02*
X200241D01*
X199186Y-123417D01*
X198240Y-123963D01*
X197467Y-124735D01*
X196921Y-125682D01*
X196638Y-126737D01*
Y-126784D01*
X200287D01*
Y-123134D01*
D02*
G37*
G36*
X204937Y-127784D02*
X201287D01*
Y-131433D01*
X201334D01*
X202389Y-131150D01*
X203335Y-130604D01*
X204108Y-129831D01*
X204654Y-128885D01*
X204937Y-127830D01*
Y-127784D01*
D02*
G37*
G36*
X200287D02*
X196638D01*
Y-127830D01*
X196921Y-128885D01*
X197467Y-129831D01*
X198240Y-130604D01*
X199186Y-131150D01*
X200241Y-131433D01*
X200287D01*
Y-127784D01*
D02*
G37*
G36*
X146276Y-122547D02*
X130421D01*
Y-138401D01*
X131208D01*
X133751Y-137999D01*
X136199Y-137203D01*
X138493Y-136035D01*
X140575Y-134522D01*
X142396Y-132701D01*
X143909Y-130619D01*
X145077Y-128325D01*
X145873Y-125877D01*
X146276Y-123334D01*
Y-122547D01*
D02*
G37*
G36*
X-91051Y-122547D02*
X-106905D01*
Y-123334D01*
X-106503Y-125877D01*
X-105707Y-128325D01*
X-104539Y-130619D01*
X-103026Y-132701D01*
X-101205Y-134522D01*
X-99123Y-136035D01*
X-96829Y-137203D01*
X-94381Y-137999D01*
X-91838Y-138402D01*
X-91051D01*
Y-122547D01*
D02*
G37*
G36*
X187861Y-136795D02*
X187508D01*
Y-147138D01*
X197850D01*
Y-146784D01*
X197583Y-145099D01*
X197056Y-143476D01*
X196281Y-141955D01*
X195278Y-140574D01*
X194071Y-139368D01*
X192691Y-138364D01*
X191170Y-137590D01*
X189547Y-137062D01*
X187861Y-136795D01*
D02*
G37*
G36*
X186508D02*
X186154D01*
X184469Y-137062D01*
X182846Y-137590D01*
X181325Y-138364D01*
X179944Y-139368D01*
X178738Y-140574D01*
X177734Y-141955D01*
X176960Y-143476D01*
X176432Y-145099D01*
X176165Y-146784D01*
Y-147138D01*
X186508D01*
Y-136795D01*
D02*
G37*
G36*
X-146784D02*
X-147138D01*
Y-147138D01*
X-136795D01*
Y-146784D01*
X-137062Y-145099D01*
X-137590Y-143476D01*
X-138364Y-141955D01*
X-139368Y-140574D01*
X-140574Y-139368D01*
X-141955Y-138364D01*
X-143476Y-137590D01*
X-145099Y-137062D01*
X-146784Y-136795D01*
D02*
G37*
G36*
X-148138D02*
X-148491D01*
X-150177Y-137062D01*
X-151800Y-137590D01*
X-153321Y-138364D01*
X-154701Y-139368D01*
X-155908Y-140574D01*
X-156911Y-141955D01*
X-157686Y-143476D01*
X-158213Y-145099D01*
X-158480Y-146784D01*
Y-147138D01*
X-148138D01*
Y-136795D01*
D02*
G37*
G36*
X197850Y-148138D02*
X187508D01*
Y-158480D01*
X187861D01*
X189547Y-158213D01*
X191170Y-157686D01*
X192691Y-156911D01*
X194071Y-155908D01*
X195278Y-154701D01*
X196281Y-153321D01*
X197056Y-151800D01*
X197583Y-150177D01*
X197850Y-148491D01*
Y-148138D01*
D02*
G37*
G36*
X186508D02*
X176165D01*
Y-148491D01*
X176432Y-150177D01*
X176960Y-151800D01*
X177734Y-153321D01*
X178738Y-154701D01*
X179944Y-155908D01*
X181325Y-156911D01*
X182846Y-157686D01*
X184469Y-158213D01*
X186154Y-158480D01*
X186508D01*
Y-148138D01*
D02*
G37*
G36*
X-136795D02*
X-147138D01*
Y-158480D01*
X-146784D01*
X-145099Y-158213D01*
X-143476Y-157686D01*
X-141955Y-156911D01*
X-140574Y-155908D01*
X-139368Y-154701D01*
X-138364Y-153321D01*
X-137590Y-151800D01*
X-137062Y-150177D01*
X-136795Y-148491D01*
Y-148138D01*
D02*
G37*
G36*
X-148138D02*
X-158480D01*
Y-148491D01*
X-158213Y-150177D01*
X-157686Y-151800D01*
X-156911Y-153321D01*
X-155908Y-154701D01*
X-154701Y-155908D01*
X-153321Y-156911D01*
X-151800Y-157686D01*
X-150177Y-158213D01*
X-148491Y-158480D01*
X-148138D01*
Y-148138D01*
D02*
G37*
G36*
X201727Y-159630D02*
X201681D01*
Y-163279D01*
X205331D01*
Y-163233D01*
X205048Y-162178D01*
X204502Y-161232D01*
X203729Y-160459D01*
X202783Y-159913D01*
X201727Y-159630D01*
D02*
G37*
G36*
X191727D02*
X191681D01*
Y-163279D01*
X195331D01*
Y-163233D01*
X195048Y-162178D01*
X194502Y-161232D01*
X193729Y-160459D01*
X192783Y-159913D01*
X191727Y-159630D01*
D02*
G37*
G36*
X200681D02*
X200635D01*
X199579Y-159913D01*
X198633Y-160459D01*
X197861Y-161232D01*
X197314Y-162178D01*
X197031Y-163233D01*
Y-163279D01*
X200681D01*
Y-159630D01*
D02*
G37*
G36*
X190681D02*
X190635D01*
X189579Y-159913D01*
X188633Y-160459D01*
X187861Y-161232D01*
X187314Y-162178D01*
X187031Y-163233D01*
Y-163279D01*
X190681D01*
Y-159630D01*
D02*
G37*
G36*
X181699Y-159843D02*
X180663D01*
X179662Y-160111D01*
X178764Y-160629D01*
X178031Y-161362D01*
X177512Y-162260D01*
X177244Y-163261D01*
Y-164298D01*
X177512Y-165299D01*
X178031Y-166197D01*
X178764Y-166930D01*
X179662Y-167448D01*
X180663Y-167717D01*
X181699D01*
X182701Y-167448D01*
X183598Y-166930D01*
X184332Y-166197D01*
X184850Y-165299D01*
X185118Y-164298D01*
Y-163261D01*
X184850Y-162260D01*
X184332Y-161362D01*
X183598Y-160629D01*
X182701Y-160111D01*
X181699Y-159843D01*
D02*
G37*
G36*
X175118D02*
X167244D01*
Y-167717D01*
X175118D01*
Y-159843D01*
D02*
G37*
G36*
X205331Y-164279D02*
X201681D01*
Y-167929D01*
X201727D01*
X202783Y-167646D01*
X203729Y-167100D01*
X204502Y-166327D01*
X205048Y-165381D01*
X205331Y-164326D01*
Y-164279D01*
D02*
G37*
G36*
X200681D02*
X197031D01*
Y-164326D01*
X197314Y-165381D01*
X197861Y-166327D01*
X198633Y-167100D01*
X199579Y-167646D01*
X200635Y-167929D01*
X200681D01*
Y-164279D01*
D02*
G37*
G36*
X195331D02*
X191681D01*
Y-167929D01*
X191727D01*
X192783Y-167646D01*
X193729Y-167100D01*
X194502Y-166327D01*
X195048Y-165381D01*
X195331Y-164326D01*
Y-164279D01*
D02*
G37*
G36*
X190681D02*
X187031D01*
Y-164326D01*
X187314Y-165381D01*
X187861Y-166327D01*
X188633Y-167100D01*
X189579Y-167646D01*
X190635Y-167929D01*
X190681D01*
Y-164279D01*
D02*
G37*
%LPD*%
D45*
X201181Y-163779D02*
D03*
X191181D02*
D03*
X181181D02*
D03*
X200787Y-127284D02*
D03*
Y-117283D02*
D03*
Y-107283D02*
D03*
X187165Y59701D02*
D03*
X177165Y-30299D02*
D03*
X187165Y69701D02*
D03*
X177165Y-40299D02*
D03*
X187165D02*
D03*
Y-30299D02*
D03*
Y-20299D02*
D03*
Y-10299D02*
D03*
Y-299D02*
D03*
Y9701D02*
D03*
Y19701D02*
D03*
Y29701D02*
D03*
Y39701D02*
D03*
Y49701D02*
D03*
X177165Y-20299D02*
D03*
Y-10299D02*
D03*
Y-299D02*
D03*
Y9701D02*
D03*
Y19701D02*
D03*
Y29701D02*
D03*
Y39701D02*
D03*
Y49701D02*
D03*
Y59701D02*
D03*
Y69701D02*
D03*
Y79701D02*
D03*
X187165D02*
D03*
Y89701D02*
D03*
D46*
X171181Y-163779D02*
D03*
D47*
X187008Y187008D02*
D03*
X-147638D02*
D03*
Y-147638D02*
D03*
X187008D02*
D03*
D48*
X-984Y18701D02*
D03*
D49*
Y8858D02*
D03*
D50*
X129921Y66929D02*
D03*
Y35433D02*
D03*
Y3937D02*
D03*
Y-27559D02*
D03*
Y-59055D02*
D03*
Y-90551D02*
D03*
Y-122047D02*
D03*
X-90551Y66929D02*
D03*
Y98425D02*
D03*
Y-27559D02*
D03*
Y3937D02*
D03*
Y35433D02*
D03*
Y129921D02*
D03*
X129921Y161417D02*
D03*
X-27559D02*
D03*
X-59055D02*
D03*
X66929D02*
D03*
X98425D02*
D03*
X35433D02*
D03*
X3937D02*
D03*
X-90551D02*
D03*
X-27559Y-122047D02*
D03*
X-59055D02*
D03*
X66929D02*
D03*
X98425D02*
D03*
X35433D02*
D03*
X3937D02*
D03*
X-90551D02*
D03*
Y-59055D02*
D03*
X129921Y98425D02*
D03*
D51*
X200787Y-97284D02*
D03*
X177165Y89701D02*
D03*
D52*
X28465Y17795D02*
D03*
X33465Y12795D02*
D03*
D53*
X23465D02*
D03*
D54*
X33071Y-58661D02*
D03*
X26772Y-61811D02*
D03*
X25984Y-68504D02*
D03*
X188583Y155905D02*
D03*
X58268Y-33071D02*
D03*
X-34350Y-500D02*
D03*
X-72441Y17717D02*
D03*
X-61811Y-2756D02*
D03*
X30315Y31496D02*
D03*
X53543Y45669D02*
D03*
X24016Y41732D02*
D03*
X4339Y41114D02*
D03*
X12598Y54331D02*
D03*
X-144882Y-116929D02*
D03*
X52165Y-68898D02*
D03*
X-29331Y-20866D02*
D03*
D55*
X19685Y-78740D02*
D03*
X-157480Y-118110D02*
D03*
X-118170Y-137758D02*
D03*
X157480Y-29528D02*
D03*
Y-59055D02*
D03*
X196850Y19685D02*
D03*
X177165Y98425D02*
D03*
Y118110D02*
D03*
Y137795D02*
D03*
X157480Y157480D02*
D03*
X196850Y-78740D02*
D03*
X177165Y-98425D02*
D03*
Y-118110D02*
D03*
X196850Y-157480D02*
D03*
Y-137795D02*
D03*
X177165D02*
D03*
Y-157480D02*
D03*
X157480Y-167323D02*
D03*
X137795D02*
D03*
X118110D02*
D03*
X98425D02*
D03*
X78740D02*
D03*
X59055D02*
D03*
X39370D02*
D03*
X19685D02*
D03*
X0D02*
D03*
X-19685D02*
D03*
X-39370D02*
D03*
X-59055D02*
D03*
X-78740D02*
D03*
X-98425D02*
D03*
X-118110D02*
D03*
X-137795Y-157480D02*
D03*
X-158509Y-156859D02*
D03*
X-157480Y-137795D02*
D03*
X137795Y177165D02*
D03*
X157480D02*
D03*
X196850D02*
D03*
Y196850D02*
D03*
X177165D02*
D03*
X157480D02*
D03*
X137795D02*
D03*
X118110D02*
D03*
X98425D02*
D03*
X78740D02*
D03*
X59055D02*
D03*
X19685D02*
D03*
X39370D02*
D03*
X0D02*
D03*
X-19685D02*
D03*
X-39370D02*
D03*
X-59055D02*
D03*
X-78740D02*
D03*
X-98425D02*
D03*
X-137795D02*
D03*
X-118110D02*
D03*
X59055Y137795D02*
D03*
Y118110D02*
D03*
X39370D02*
D03*
Y137795D02*
D03*
X-19653Y138775D02*
D03*
X-59055Y137795D02*
D03*
X-59117Y96792D02*
D03*
X-39370Y98425D02*
D03*
X-19685D02*
D03*
X0D02*
D03*
X-19685Y78740D02*
D03*
X-39370Y59055D02*
D03*
Y78740D02*
D03*
X-59055D02*
D03*
Y59055D02*
D03*
Y39370D02*
D03*
X-58740Y-17723D02*
D03*
X-19685Y-39370D02*
D03*
Y-19685D02*
D03*
Y39370D02*
D03*
X0D02*
D03*
Y0D02*
D03*
X19685D02*
D03*
Y19685D02*
D03*
X39370D02*
D03*
X39626Y-742D02*
D03*
X59055Y-19685D02*
D03*
Y0D02*
D03*
Y19685D02*
D03*
Y39370D02*
D03*
Y59055D02*
D03*
X78740Y78740D02*
D03*
Y59055D02*
D03*
Y39370D02*
D03*
Y19685D02*
D03*
Y0D02*
D03*
Y-19685D02*
D03*
X98425Y-78740D02*
D03*
Y-98425D02*
D03*
X78740D02*
D03*
X59055D02*
D03*
X39370D02*
D03*
X19685D02*
D03*
X0Y-59055D02*
D03*
Y-78740D02*
D03*
Y-98425D02*
D03*
X-19685D02*
D03*
Y-78740D02*
D03*
Y-59055D02*
D03*
X-39370D02*
D03*
Y-39370D02*
D03*
X-59055D02*
D03*
Y-59055D02*
D03*
X-78740Y-78740D02*
D03*
X-98425D02*
D03*
X-59055Y-98425D02*
D03*
X-78740D02*
D03*
X-98425D02*
D03*
X-118110D02*
D03*
X-137795D02*
D03*
X-157480D02*
D03*
Y-78740D02*
D03*
X-137795D02*
D03*
X-118110D02*
D03*
Y-59055D02*
D03*
X-137795D02*
D03*
X-157480D02*
D03*
Y-39370D02*
D03*
X-137795D02*
D03*
X-118110D02*
D03*
Y-19685D02*
D03*
X-137795D02*
D03*
X-157480D02*
D03*
Y0D02*
D03*
X-137795D02*
D03*
X-118110D02*
D03*
Y19685D02*
D03*
X-137795D02*
D03*
X-157480D02*
D03*
Y39370D02*
D03*
X-137795D02*
D03*
X-118110D02*
D03*
Y59055D02*
D03*
X-137795D02*
D03*
X-157480D02*
D03*
Y78740D02*
D03*
X-137795D02*
D03*
X-118110D02*
D03*
Y98425D02*
D03*
X-137795D02*
D03*
X-157480D02*
D03*
Y118110D02*
D03*
X-137795D02*
D03*
X-118110D02*
D03*
Y137795D02*
D03*
X-137795D02*
D03*
X-157480D02*
D03*
Y177165D02*
D03*
X-137795D02*
D03*
X-118110D02*
D03*
Y157480D02*
D03*
X-137795D02*
D03*
X-157480D02*
D03*
X31789Y75249D02*
D03*
X28346Y97244D02*
D03*
X44094Y87402D02*
D03*
D56*
X29134Y-13386D02*
D03*
X-6299Y-1969D02*
D03*
X25984Y121260D02*
D03*
X-26378Y-86614D02*
D03*
X-50787Y-66535D02*
D03*
X62598Y-50787D02*
D03*
X50394Y-49606D02*
D03*
X38976Y125197D02*
D03*
X-38386Y131890D02*
D03*
X16732Y-47244D02*
D03*
%TF.MD5,49ef46d8ec389ccbd10ba126350d4867*%
M02*
