%TF.GenerationSoftware,Altium Limited,Altium Designer,23.9.2 (47)*%
G04 Layer_Color=16711935*
%FSLAX25Y25*%
%MOIN*%
%TF.SameCoordinates,F944BC78-FABB-4A85-9D96-7E9E55BFA98D*%
%TF.FilePolarity,Negative*%
%TF.FileFunction,Soldermask,Bot*%
%TF.Part,Single*%
G01*
G75*
%TA.AperFunction,ComponentPad*%
%ADD91C,0.07099*%
%ADD92R,0.07099X0.07099*%
%TA.AperFunction,ViaPad*%
%ADD93C,0.20485*%
%TA.AperFunction,ComponentPad*%
%ADD94C,0.06706*%
%ADD95R,0.06706X0.06706*%
%ADD96C,0.31509*%
%ADD97R,0.07099X0.07099*%
%ADD98C,0.05493*%
%ADD99R,0.05493X0.05493*%
%TA.AperFunction,ViaPad*%
%ADD100C,0.03950*%
%ADD101C,0.03556*%
%ADD102C,0.05800*%
D91*
X201181Y-163779D02*
D03*
X191181D02*
D03*
X181181D02*
D03*
X200787Y-127284D02*
D03*
Y-117283D02*
D03*
Y-107283D02*
D03*
X187165Y59701D02*
D03*
X177165Y-30299D02*
D03*
X187165Y69701D02*
D03*
X177165Y-40299D02*
D03*
X187165D02*
D03*
Y-30299D02*
D03*
Y-20299D02*
D03*
Y-10299D02*
D03*
Y-299D02*
D03*
Y9701D02*
D03*
Y19701D02*
D03*
Y29701D02*
D03*
Y39701D02*
D03*
Y49701D02*
D03*
X177165Y-20299D02*
D03*
Y-10299D02*
D03*
Y-299D02*
D03*
Y9701D02*
D03*
Y19701D02*
D03*
Y29701D02*
D03*
Y39701D02*
D03*
Y49701D02*
D03*
Y59701D02*
D03*
Y69701D02*
D03*
Y79701D02*
D03*
X187165D02*
D03*
Y89701D02*
D03*
D92*
X171181Y-163779D02*
D03*
D93*
X187008Y187008D02*
D03*
X-147638D02*
D03*
Y-147638D02*
D03*
X187008D02*
D03*
D94*
X-984Y18701D02*
D03*
D95*
Y8858D02*
D03*
D96*
X129921Y66929D02*
D03*
Y35433D02*
D03*
Y3937D02*
D03*
Y-27559D02*
D03*
Y-59055D02*
D03*
Y-90551D02*
D03*
Y-122047D02*
D03*
X-90551Y66929D02*
D03*
Y98425D02*
D03*
Y-27559D02*
D03*
Y3937D02*
D03*
Y35433D02*
D03*
Y129921D02*
D03*
X129921Y161417D02*
D03*
X-27559D02*
D03*
X-59055D02*
D03*
X66929D02*
D03*
X98425D02*
D03*
X35433D02*
D03*
X3937D02*
D03*
X-90551D02*
D03*
X-27559Y-122047D02*
D03*
X-59055D02*
D03*
X66929D02*
D03*
X98425D02*
D03*
X35433D02*
D03*
X3937D02*
D03*
X-90551D02*
D03*
Y-59055D02*
D03*
X129921Y98425D02*
D03*
D97*
X200787Y-97284D02*
D03*
X177165Y89701D02*
D03*
D98*
X28465Y17795D02*
D03*
X33465Y12795D02*
D03*
D99*
X23465D02*
D03*
D100*
X33071Y-58661D02*
D03*
X26772Y-61811D02*
D03*
X25984Y-68504D02*
D03*
X188583Y155905D02*
D03*
X49213Y-60236D02*
D03*
X44882Y-34646D02*
D03*
X58268Y-33071D02*
D03*
X-17717Y-5906D02*
D03*
X-34350Y-500D02*
D03*
X-56299Y14173D02*
D03*
X-72441Y17717D02*
D03*
X-61811Y-2756D02*
D03*
X-39370Y-28346D02*
D03*
X-28740Y-26378D02*
D03*
X36220Y37008D02*
D03*
X30315Y31496D02*
D03*
X48031Y31102D02*
D03*
X24409Y63779D02*
D03*
X53543Y45669D02*
D03*
X24016Y41732D02*
D03*
X4339Y41114D02*
D03*
X12598Y54331D02*
D03*
X-144882Y-116929D02*
D03*
X52165Y-68898D02*
D03*
X-29331Y-20866D02*
D03*
D101*
X19685Y-78740D02*
D03*
X-157480Y-118110D02*
D03*
X-118170Y-137758D02*
D03*
X157480Y-29528D02*
D03*
Y-59055D02*
D03*
X196850Y19685D02*
D03*
X177165Y98425D02*
D03*
Y118110D02*
D03*
Y137795D02*
D03*
X157480Y157480D02*
D03*
X196850Y-78740D02*
D03*
X177165Y-98425D02*
D03*
Y-118110D02*
D03*
X196850Y-157480D02*
D03*
Y-137795D02*
D03*
X177165D02*
D03*
Y-157480D02*
D03*
X157480Y-167323D02*
D03*
X137795D02*
D03*
X118110D02*
D03*
X98425D02*
D03*
X78740D02*
D03*
X59055D02*
D03*
X39370D02*
D03*
X19685D02*
D03*
X0D02*
D03*
X-19685D02*
D03*
X-39370D02*
D03*
X-59055D02*
D03*
X-78740D02*
D03*
X-98425D02*
D03*
X-118110D02*
D03*
X-137795Y-157480D02*
D03*
X-158509Y-156859D02*
D03*
X-157480Y-137795D02*
D03*
X137795Y177165D02*
D03*
X157480D02*
D03*
X196850D02*
D03*
Y196850D02*
D03*
X177165D02*
D03*
X157480D02*
D03*
X137795D02*
D03*
X118110D02*
D03*
X98425D02*
D03*
X78740D02*
D03*
X59055D02*
D03*
X19685D02*
D03*
X39370D02*
D03*
X0D02*
D03*
X-19685D02*
D03*
X-39370D02*
D03*
X-59055D02*
D03*
X-78740D02*
D03*
X-98425D02*
D03*
X-137795D02*
D03*
X-118110D02*
D03*
X59055Y137795D02*
D03*
Y118110D02*
D03*
X39370D02*
D03*
Y137795D02*
D03*
X-19653Y138775D02*
D03*
X-59055Y137795D02*
D03*
X-59117Y96792D02*
D03*
X-39370Y98425D02*
D03*
X-19685D02*
D03*
X0D02*
D03*
X-19685Y78740D02*
D03*
X-39370Y59055D02*
D03*
Y78740D02*
D03*
X-59055D02*
D03*
Y59055D02*
D03*
Y39370D02*
D03*
X-58740Y-17723D02*
D03*
X-19685Y-39370D02*
D03*
Y-19685D02*
D03*
Y39370D02*
D03*
X0D02*
D03*
Y0D02*
D03*
X19685D02*
D03*
Y19685D02*
D03*
X39370D02*
D03*
X39626Y-742D02*
D03*
X59055Y-19685D02*
D03*
Y0D02*
D03*
Y19685D02*
D03*
Y39370D02*
D03*
Y59055D02*
D03*
X78740Y78740D02*
D03*
Y59055D02*
D03*
Y39370D02*
D03*
Y19685D02*
D03*
Y0D02*
D03*
Y-19685D02*
D03*
X98425Y-78740D02*
D03*
Y-98425D02*
D03*
X78740D02*
D03*
X59055D02*
D03*
X39370D02*
D03*
X19685D02*
D03*
X0Y-59055D02*
D03*
Y-78740D02*
D03*
Y-98425D02*
D03*
X-19685D02*
D03*
Y-78740D02*
D03*
Y-59055D02*
D03*
X-39370D02*
D03*
Y-39370D02*
D03*
X-59055D02*
D03*
Y-59055D02*
D03*
X-78740Y-78740D02*
D03*
X-98425D02*
D03*
X-59055Y-98425D02*
D03*
X-78740D02*
D03*
X-98425D02*
D03*
X-118110D02*
D03*
X-137795D02*
D03*
X-157480D02*
D03*
Y-78740D02*
D03*
X-137795D02*
D03*
X-118110D02*
D03*
Y-59055D02*
D03*
X-137795D02*
D03*
X-157480D02*
D03*
Y-39370D02*
D03*
X-137795D02*
D03*
X-118110D02*
D03*
Y-19685D02*
D03*
X-137795D02*
D03*
X-157480D02*
D03*
Y0D02*
D03*
X-137795D02*
D03*
X-118110D02*
D03*
Y19685D02*
D03*
X-137795D02*
D03*
X-157480D02*
D03*
Y39370D02*
D03*
X-137795D02*
D03*
X-118110D02*
D03*
Y59055D02*
D03*
X-137795D02*
D03*
X-157480D02*
D03*
Y78740D02*
D03*
X-137795D02*
D03*
X-118110D02*
D03*
Y98425D02*
D03*
X-137795D02*
D03*
X-157480D02*
D03*
Y118110D02*
D03*
X-137795D02*
D03*
X-118110D02*
D03*
Y137795D02*
D03*
X-137795D02*
D03*
X-157480D02*
D03*
Y177165D02*
D03*
X-137795D02*
D03*
X-118110D02*
D03*
Y157480D02*
D03*
X-137795D02*
D03*
X-157480D02*
D03*
X31789Y75249D02*
D03*
X20472Y94488D02*
D03*
X13386Y75590D02*
D03*
X12598Y78740D02*
D03*
X54331Y101969D02*
D03*
X62598D02*
D03*
X28346Y97244D02*
D03*
X44094Y87402D02*
D03*
D102*
X-132677Y-112598D02*
D03*
X176108Y170230D02*
D03*
X29134Y-13386D02*
D03*
X-6299Y-1969D02*
D03*
X72047Y130709D02*
D03*
X64173D02*
D03*
X15748Y-40551D02*
D03*
X25984Y121260D02*
D03*
Y134646D02*
D03*
X-26378Y-86614D02*
D03*
X-67323D02*
D03*
X-50787Y-66535D02*
D03*
X39370Y100394D02*
D03*
X62598Y-50787D02*
D03*
X50394Y-49606D02*
D03*
X63386Y-62992D02*
D03*
X3543Y49213D02*
D03*
X38976Y125197D02*
D03*
X38189Y132677D02*
D03*
X-38386Y131890D02*
D03*
X-42323Y104331D02*
D03*
X-49213D02*
D03*
X-35433D02*
D03*
X-22138Y107802D02*
D03*
X-3937Y118110D02*
D03*
X-15748D02*
D03*
Y129921D02*
D03*
X-3937D02*
D03*
X16732Y-47244D02*
D03*
%TF.MD5,ba0206cfdebca1c01b3b2041342cfe72*%
M02*
