%FSLAX23Y23*%
%MOIN*%
%SFA1B1*%

%IPPOS*%
%ADD61C,0.010630*%
%ADD62O,0.012990X0.039370*%
%ADD63R,0.012990X0.039370*%
%ADD64R,0.063980X0.031500*%
%ADD65R,0.031500X0.032480*%
%ADD66C,0.013780*%
%ADD67R,0.017720X0.045280*%
%ADD68R,0.045280X0.017720*%
%ADD69R,0.092910X0.092910*%
%ADD70R,0.019680X0.023620*%
%ADD71R,0.062600X0.098430*%
%ADD72R,0.039370X0.017720*%
%ADD73R,0.039370X0.031500*%
%ADD74R,0.141730X0.143700*%
%ADD75R,0.031500X0.039370*%
%ADD76R,0.021650X0.021650*%
%ADD77R,0.044720X0.100390*%
%ADD78R,0.026060X0.100390*%
%ADD79R,0.125980X0.216540*%
%ADD80R,0.042910X0.040950*%
%ADD81R,0.035430X0.029530*%
%ADD82R,0.035430X0.045280*%
%ADD83R,0.066930X0.141730*%
%ADD84R,0.043310X0.043310*%
%ADD85R,0.061020X0.055120*%
%ADD86R,0.055120X0.061020*%
%ADD87R,0.043310X0.043310*%
%ADD88R,0.030710X0.032280*%
%ADD89R,0.032280X0.030710*%
%ADD90R,0.080710X0.080710*%
%ADD91C,0.080710*%
%ADD92C,0.066930*%
%ADD93R,0.066930X0.066930*%
%ADD94R,0.066930X0.066930*%
%ADD95C,0.248030*%
%ADD96C,0.023620*%
%ADD97C,0.053940*%
%ADD98C,0.035430*%
%LNbase_pcb1_soldermask_top-1*%
%LPD*%
G36*
X430Y2710D02*
X432Y2710D01*
X434Y2709*
X443Y2708*
X454Y2707*
X462Y2705*
X476Y2701*
X481Y2700*
X486Y2698*
X489Y2697*
X501Y2693*
X504Y2692*
X507Y2690*
X511Y2689*
X530Y2679*
X538Y2674*
X540Y2673*
X547Y2668*
X549Y2667*
X550Y2667*
X563Y2657*
X566Y2655*
X567Y2654*
X568Y2653*
X570Y2651*
X571Y2650*
X573Y2648*
X575Y2647*
X577Y2645*
X578Y2645*
X594Y2628*
X595Y2627*
X598Y2624*
X598Y2623*
X601Y2621*
X602Y2619*
X604Y2617*
X604Y2616*
X606Y2614*
X607Y2613*
X608Y2611*
X609Y2610*
X614Y2603*
X616Y2601*
X620Y2595*
X621Y2592*
X624Y2588*
X625Y2587*
X627Y2583*
X633Y2572*
X638Y2561*
X639Y2558*
X641Y2554*
X644Y2546*
X645Y2544*
X646Y2541*
X647Y2536*
X650Y2528*
X650Y2526*
X651Y2523*
X652Y2518*
X653Y2516*
X653Y2512*
X654Y2510*
X654Y2507*
X655Y2499*
X656Y2497*
X656Y2490*
X657Y2488*
X658Y2487*
X658Y2445*
X656Y2442*
X656Y2433*
X655Y2429*
X654Y2423*
X653Y2417*
X652Y2414*
X650Y2405*
X649Y2402*
X647Y2395*
X647Y2393*
X645Y2388*
X644Y2385*
X642Y2382*
X641Y2381*
X636Y2384*
X635Y2385*
X630Y2388*
X625Y2390*
X617Y2395*
X614Y2397*
X613Y2398*
X609Y2400*
X607Y2401*
X600Y2405*
X599Y2406*
X594Y2409*
X590Y2411*
X584Y2415*
X581Y2417*
X577Y2420*
X578Y2437*
X577Y2438*
X577Y2440*
X575Y2442*
X573Y2442*
X572Y2438*
X570Y2429*
X570Y2427*
X568Y2422*
X566Y2414*
X565Y2412*
X566Y2410*
X572Y2404*
X573Y2403*
X577Y2400*
X577Y2399*
X578Y2398*
X579Y2398*
X579Y2397*
X587Y2389*
X588Y2388*
X592Y2384*
X592Y2383*
X595Y2380*
X595Y2379*
X596Y2377*
X596Y2375*
X589Y2373*
X585Y2372*
X583Y2371*
X572Y2367*
X570Y2366*
X565Y2365*
X560Y2363*
X557Y2362*
X554Y2361*
X549Y2359*
X546Y2358*
X542Y2357*
X537Y2355*
X534Y2354*
X530Y2354*
X528Y2355*
X526Y2356*
X519Y2353*
X517Y2353*
X512Y2351*
X509Y2350*
X504Y2348*
X500Y2347*
X495Y2345*
X492Y2345*
X488Y2343*
X483Y2342*
X480Y2340*
X475Y2339*
X471Y2337*
X466Y2336*
X464Y2335*
X450Y2330*
X446Y2329*
X443Y2328*
X440Y2327*
X430Y2323*
X428Y2323*
X423Y2321*
X417Y2319*
X407Y2315*
X401Y2313*
X393Y2310*
X391Y2309*
X386Y2307*
X380Y2305*
X377Y2304*
X370Y2303*
X366Y2301*
X364Y2301*
X363Y2303*
X361Y2303*
X357Y2306*
X354Y2312*
X353Y2319*
X351Y2321*
X351Y2322*
X347Y2324*
X345Y2325*
X337Y2321*
X335Y2320*
X330Y2321*
X327Y2323*
X324Y2326*
X322Y2327*
X321Y2326*
X320Y2325*
X315Y2323*
X309Y2324*
X308Y2324*
X307Y2327*
X306Y2330*
X303Y2334*
X302Y2334*
X301Y2335*
X297Y2332*
X296Y2331*
X293Y2329*
X287Y2326*
X283Y2326*
X277Y2326*
X272Y2329*
X270Y2331*
X269Y2332*
X267Y2333*
X266Y2335*
X265Y2336*
X264Y2337*
X262Y2341*
X261Y2344*
X258Y2349*
X257Y2352*
X254Y2363*
X254Y2367*
X253Y2369*
X252Y2387*
X252Y2392*
X249Y2393*
X247Y2394*
X241Y2395*
X235Y2397*
X229Y2398*
X221Y2399*
X219Y2399*
X217Y2399*
X215Y2396*
X215Y2392*
X213Y2386*
X212Y2383*
X211Y2380*
X209Y2375*
X205Y2363*
X203Y2358*
X200Y2353*
X198Y2350*
X197Y2350*
X195Y2351*
X189Y2364*
X187Y2369*
X185Y2373*
X185Y2375*
X183Y2379*
X183Y2382*
X181Y2385*
X180Y2388*
X180Y2391*
X178Y2396*
X177Y2401*
X176Y2405*
X175Y2409*
X173Y2419*
X173Y2422*
X171Y2433*
X170Y2441*
X170Y2443*
X169Y2444*
X169Y2485*
X170Y2486*
X171Y2491*
X171Y2495*
X172Y2502*
X173Y2510*
X174Y2513*
X174Y2515*
X175Y2518*
X175Y2521*
X176Y2523*
X177Y2527*
X178Y2531*
X180Y2539*
X181Y2542*
X185Y2551*
X187Y2556*
X188Y2559*
X196Y2574*
X198Y2578*
X201Y2581*
X201Y2583*
X205Y2588*
X206Y2589*
X207Y2590*
X209Y2592*
X210Y2593*
X214Y2598*
X215Y2598*
X219Y2602*
X220Y2602*
X224Y2605*
X233Y2609*
X240Y2611*
X247Y2611*
X252Y2611*
X256Y2610*
X259Y2609*
X268Y2604*
X269Y2602*
X271Y2602*
X273Y2599*
X274Y2599*
X275Y2597*
X276Y2596*
X277Y2596*
X280Y2593*
X281Y2592*
X281Y2591*
X283Y2589*
X284Y2586*
X288Y2586*
X290Y2588*
X293Y2590*
X294Y2591*
X296Y2591*
X301Y2595*
X308Y2601*
X309Y2602*
X310Y2602*
X311Y2604*
X312Y2604*
X316Y2607*
X317Y2608*
X316Y2610*
X313Y2611*
X311Y2611*
X307Y2612*
X301Y2611*
X299Y2611*
X291Y2607*
X289Y2607*
X289Y2608*
X288Y2608*
X287Y2609*
X285Y2611*
X284Y2612*
X280Y2615*
X279Y2616*
X277Y2618*
X276Y2619*
X273Y2621*
X272Y2621*
X270Y2624*
X269Y2624*
X267Y2626*
X265Y2627*
X263Y2629*
X262Y2630*
X260Y2632*
X259Y2633*
X256Y2635*
X255Y2636*
X254Y2637*
X252Y2638*
X250Y2641*
X249Y2641*
X248Y2644*
X248Y2645*
X251Y2648*
X252Y2649*
X255Y2651*
X256Y2652*
X257Y2653*
X260Y2655*
X262Y2656*
X263Y2657*
X264Y2659*
X265Y2659*
X267Y2661*
X268Y2662*
X271Y2664*
X275Y2666*
X276Y2667*
X277Y2668*
X281Y2671*
X282Y2671*
X283Y2672*
X295Y2679*
X296Y2680*
X300Y2682*
X301Y2683*
X315Y2689*
X316Y2690*
X320Y2692*
X325Y2694*
X332Y2697*
X338Y2699*
X342Y2700*
X348Y2702*
X350Y2702*
X354Y2703*
X358Y2704*
X360Y2705*
X363Y2705*
X365Y2706*
X371Y2707*
X374Y2708*
X379Y2708*
X384Y2709*
X389Y2710*
X390Y2711*
X430Y2710*
G37*
G36*
X353Y2257D02*
X353Y2257D01*
X353Y2257*
X354Y2256*
X354Y2256*
X355Y2255*
X356Y2255*
X356Y2254*
X356Y2254*
X357Y2254*
X358Y2253*
X359Y2252*
X359Y2252*
X360Y2251*
X361Y2251*
X362Y2251*
X366Y2246*
X368Y2246*
X368Y2245*
X371Y2242*
X371Y2242*
X373Y2241*
X373Y2241*
X373Y2241*
X374Y2241*
X374Y2240*
X375Y2240*
X375Y2239*
X376Y2239*
X376Y2239*
X376Y2238*
X378Y2237*
X378Y2236*
X379Y2236*
X380Y2236*
X380Y2235*
X381Y2235*
X381Y2234*
X381Y2234*
X383Y2234*
X383Y2233*
X384Y2233*
X384Y2232*
X384Y2232*
X386Y2232*
X387Y2231*
X388Y2230*
X389Y2230*
X390Y2230*
X390Y2229*
X390Y2229*
X391Y2229*
X391Y2228*
X392Y2228*
X392Y2228*
X393Y2227*
X393Y2227*
X393Y2227*
X393Y2226*
X394Y2226*
X394Y2226*
X395Y2225*
X395Y2225*
X395Y2225*
X396Y2224*
X396Y2224*
X396Y2224*
X397Y2223*
X397Y2223*
X397Y2222*
X398Y2222*
X398Y2222*
X398Y2221*
X399Y2221*
X399Y2221*
X399Y2220*
X400Y2220*
X400Y2219*
X402Y2219*
X402Y2218*
X403Y2218*
X403Y2217*
X405Y2217*
X405Y2216*
X406Y2216*
X406Y2216*
X406Y2215*
X407Y2215*
X407Y2215*
X408Y2214*
X408Y2214*
X409Y2213*
X409Y2213*
X410Y2213*
X410Y2212*
X411Y2212*
X411Y2212*
X412Y2210*
X412Y2210*
X412Y2210*
X413Y2209*
X414Y2209*
X415Y2208*
X418Y2205*
X420Y2204*
X423Y2201*
X423Y2200*
X425Y2200*
X425Y2200*
X426Y2199*
X426Y2199*
X427Y2198*
X427Y2198*
X428Y2198*
X428Y2197*
X428Y2197*
X429Y2196*
X429Y2196*
X429Y2196*
X430Y2196*
X430Y2195*
X431Y2195*
X432Y2194*
X432Y2194*
X433Y2194*
X433Y2193*
X433Y2193*
X434Y2193*
X434Y2192*
X436Y2192*
X436Y2191*
X436Y2191*
X437Y2190*
X437Y2190*
X437Y2190*
X439Y2190*
X439Y2189*
X442Y2186*
X443Y2186*
X448Y2182*
X448Y2181*
X450Y2181*
X450Y2180*
X450Y2180*
X451Y2180*
X451Y2179*
X453Y2179*
X453Y2178*
X454Y2178*
X454Y2177*
X454Y2177*
X455Y2177*
X455Y2176*
X457Y2176*
X457Y2175*
X458Y2175*
X458Y2175*
X458Y2174*
X459Y2174*
X459Y2173*
X459Y2173*
X460Y2173*
X461Y2173*
X461Y2172*
X469Y2164*
X471Y2164*
X471Y2164*
X471Y2163*
X473Y2163*
X473Y2163*
X473Y2162*
X474Y2162*
X475Y2161*
X475Y2161*
X475Y2160*
X475Y2160*
X476Y2160*
X476Y2160*
X476Y2159*
X478Y2159*
X478Y2158*
X479Y2158*
X479Y2158*
X479Y2157*
X480Y2157*
X480Y2157*
X481Y2156*
X482Y2155*
X483Y2155*
X483Y2154*
X484Y2154*
X484Y2153*
X485Y2153*
X485Y2153*
X485Y2152*
X486Y2152*
X486Y2152*
X486Y2151*
X488Y2151*
X488Y2151*
X489Y2150*
X489Y2149*
X491Y2149*
X491Y2149*
X491Y2148*
X492Y2148*
X493Y2147*
X493Y2146*
X495Y2146*
X495Y2146*
X496Y2145*
X497Y2145*
X498Y2144*
X499Y2144*
X499Y2143*
X499Y2143*
X499Y2143*
X500Y2142*
X500Y2142*
X500Y2142*
X501Y2141*
X502Y2141*
X502Y2140*
X503Y2139*
X503Y2139*
X505Y2138*
X505Y2138*
X509Y2134*
X510Y2134*
X510Y2134*
X512Y2133*
X512Y2133*
X513Y2132*
X513Y2132*
X514Y2131*
X515Y2130*
X516Y2130*
X517Y2130*
X517Y2129*
X518Y2129*
X518Y2128*
X518Y2128*
X519Y2128*
X519Y2127*
X521Y2127*
X521Y2127*
X521Y2126*
X521Y2126*
X522Y2126*
X522Y2125*
X522Y2125*
X523Y2125*
X523Y2124*
X524Y2124*
X525Y2123*
X526Y2123*
X526Y2122*
X526Y2122*
X528Y2122*
X529Y2120*
X530Y2120*
X531Y2119*
X531Y2119*
X532Y2119*
X532Y2118*
X533Y2118*
X533Y2117*
X534Y2117*
X535Y2116*
X535Y2116*
X536Y2116*
X536Y2115*
X538Y2115*
X538Y2114*
X539Y2114*
X539Y2114*
X539Y2113*
X540Y2113*
X540Y2112*
X542Y2112*
X542Y2112*
X545Y2109*
X546Y2109*
X546Y2108*
X547Y2108*
X548Y2108*
X549Y2107*
X549Y2107*
X549Y2107*
X550Y2106*
X550Y2106*
X550Y2106*
X550Y2105*
X551Y2105*
X552Y2105*
X553Y2104*
X553Y2104*
X554Y2103*
X554Y2103*
X554Y2103*
X556Y2102*
X556Y2101*
X557Y2101*
X557Y2101*
X559Y2100*
X559Y2100*
X561Y2098*
X562Y2098*
X566Y2094*
X566Y2094*
X567Y2094*
X568Y2094*
X568Y2093*
X569Y2092*
X569Y2092*
X571Y2092*
X571Y2092*
X572Y2092*
X572Y2091*
X572Y2091*
X573Y2091*
X573Y2090*
X573Y2090*
X575Y2090*
X576Y2088*
X579Y2086*
X581Y2086*
X581Y2085*
X581Y2085*
X582Y2084*
X583Y2084*
X584Y2083*
X585Y2083*
X585Y2083*
X585Y2082*
X586Y2082*
X586Y2081*
X589Y2081*
X589Y2081*
X590Y2079*
X591Y2079*
X591Y2077*
X591Y2077*
X594Y2077*
X596Y2074*
X596Y2074*
X598Y2074*
X598Y2073*
X598Y2073*
X599Y2072*
X600Y2072*
X600Y2072*
X600Y2071*
X601Y2071*
X601Y2070*
X602Y2070*
X603Y2069*
X604Y2069*
X604Y2068*
X605Y2068*
X605Y2068*
X607Y2067*
X608Y2066*
X608Y2065*
X609Y2065*
X609Y2065*
X609Y2064*
X612Y2064*
X615Y2061*
X615Y2059*
X616Y2059*
X616Y2058*
X617Y2058*
X618Y2058*
X619Y2057*
X619Y2057*
X619Y2057*
X619Y2056*
X619Y2053*
X619Y2052*
X618Y2052*
X618Y2051*
X617Y2051*
X617Y2051*
X616Y2050*
X616Y2049*
X615Y2049*
X615Y2048*
X614Y2048*
X614Y2048*
X613Y2047*
X612Y2047*
X610Y2047*
X609Y2048*
X609Y2048*
X608Y2049*
X607Y2049*
X605Y2050*
X604Y2050*
X603Y2051*
X602Y2051*
X602Y2052*
X600Y2052*
X599Y2052*
X599Y2053*
X598Y2053*
X598Y2054*
X597Y2054*
X596Y2054*
X595Y2054*
X595Y2055*
X590Y2055*
X589Y2056*
X587Y2056*
X585Y2058*
X585Y2058*
X584Y2058*
X583Y2058*
X582Y2058*
X582Y2059*
X581Y2059*
X580Y2059*
X577Y2059*
X577Y2060*
X577Y2060*
X575Y2060*
X575Y2061*
X575Y2061*
X574Y2062*
X574Y2062*
X573Y2062*
X572Y2062*
X571Y2062*
X571Y2063*
X570Y2063*
X569Y2064*
X568Y2064*
X567Y2065*
X567Y2064*
X565Y2065*
X564Y2065*
X560Y2066*
X560Y2066*
X560Y2066*
X559Y2067*
X559Y2068*
X557Y2068*
X557Y2067*
X556Y2068*
X556Y2068*
X555Y2069*
X555Y2069*
X555Y2069*
X554Y2070*
X553Y2070*
X553Y2070*
X552Y2070*
X549Y2072*
X549Y2073*
X548Y2073*
X547Y2073*
X547Y2074*
X545Y2074*
X544Y2074*
X543Y2074*
X543Y2075*
X541Y2075*
X541Y2076*
X541Y2076*
X539Y2076*
X539Y2077*
X539Y2077*
X534Y2077*
X532Y2079*
X532Y2079*
X531Y2079*
X530Y2079*
X529Y2080*
X529Y2080*
X528Y2080*
X527Y2080*
X526Y2080*
X526Y2081*
X522Y2081*
X521Y2082*
X521Y2083*
X520Y2084*
X518Y2083*
X518Y2084*
X518Y2084*
X516Y2086*
X514Y2086*
X509Y2086*
X509Y2086*
X509Y2087*
X506Y2086*
X506Y2086*
X505Y2086*
X505Y2086*
X504Y2087*
X503Y2088*
X501Y2088*
X501Y2088*
X500Y2089*
X499Y2089*
X498Y2089*
X497Y2089*
X497Y2090*
X497Y2090*
X490Y2090*
X490Y2089*
X489Y2089*
X489Y2089*
X489Y2088*
X488Y2088*
X485Y2088*
X485Y2087*
X484Y2087*
X484Y2086*
X483Y2085*
X484Y2085*
X483Y2084*
X483Y2083*
X483Y2079*
X483Y2078*
X483Y2078*
X484Y2078*
X484Y2076*
X484Y2076*
X485Y2075*
X485Y2074*
X485Y2074*
X486Y2074*
X486Y2072*
X486Y2072*
X487Y2072*
X487Y2070*
X487Y2070*
X488Y2069*
X488Y2068*
X489Y2067*
X489Y2067*
X490Y2066*
X490Y2066*
X490Y2065*
X490Y2065*
X491Y2064*
X491Y2064*
X491Y2063*
X493Y2063*
X493Y2063*
X493Y2062*
X494Y2062*
X495Y2061*
X495Y2061*
X495Y2061*
X495Y2059*
X500Y2054*
X500Y2053*
X500Y2053*
X501Y2052*
X501Y2052*
X510Y2043*
X510Y2043*
X510Y2041*
X512Y2041*
X513Y2040*
X513Y2040*
X514Y2038*
X514Y2038*
X514Y2038*
X515Y2037*
X516Y2037*
X517Y2036*
X518Y2035*
X518Y2034*
X518Y2034*
X519Y2033*
X519Y2032*
X521Y2032*
X521Y2032*
X527Y2026*
X527Y2026*
X527Y2025*
X527Y2025*
X528Y2024*
X529Y2024*
X530Y2023*
X536Y2017*
X538Y2016*
X540Y2014*
X540Y2013*
X542Y2013*
X542Y2013*
X542Y2013*
X543Y2012*
X543Y2012*
X543Y2011*
X544Y2011*
X544Y2011*
X544Y2010*
X545Y2010*
X545Y2010*
X546Y2009*
X546Y2009*
X546Y2009*
X547Y2007*
X548Y2007*
X549Y2006*
X549Y2006*
X549Y2006*
X549Y2006*
X550Y2004*
X550Y2003*
X568Y1986*
X568Y1986*
X569Y1986*
X570Y1985*
X570Y1985*
X570Y1985*
X571Y1984*
X571Y1983*
X572Y1982*
X574Y1980*
X574Y1979*
X575Y1977*
X577Y1977*
X581Y1973*
X581Y1971*
X583Y1971*
X585Y1969*
X584Y1968*
X587Y1966*
X588Y1965*
X593Y1961*
X593Y1958*
X594Y1958*
X594Y1958*
X594Y1958*
X595Y1957*
X595Y1957*
X595Y1956*
X595Y1956*
X596Y1955*
X596Y1955*
X596Y1954*
X597Y1954*
X597Y1953*
X598Y1953*
X598Y1953*
X599Y1952*
X599Y1952*
X599Y1951*
X600Y1951*
X600Y1950*
X600Y1950*
X600Y1949*
X601Y1949*
X601Y1948*
X602Y1948*
X602Y1948*
X602Y1948*
X602Y1947*
X603Y1945*
X603Y1944*
X604Y1944*
X603Y1940*
X603Y1940*
X602Y1939*
X602Y1939*
X601Y1939*
X601Y1938*
X601Y1938*
X600Y1937*
X600Y1937*
X599Y1937*
X599Y1937*
X598Y1937*
X598Y1938*
X597Y1938*
X597Y1939*
X595Y1939*
X595Y1940*
X595Y1940*
X594Y1941*
X594Y1941*
X594Y1941*
X593Y1941*
X592Y1942*
X592Y1942*
X591Y1942*
X591Y1943*
X591Y1943*
X590Y1943*
X589Y1944*
X588Y1944*
X585Y1948*
X584Y1948*
X579Y1952*
X579Y1953*
X578Y1953*
X577Y1953*
X576Y1953*
X576Y1953*
X576Y1954*
X575Y1954*
X575Y1955*
X574Y1955*
X574Y1956*
X573Y1956*
X573Y1956*
X572Y1957*
X572Y1957*
X571Y1958*
X570Y1958*
X569Y1959*
X569Y1959*
X569Y1960*
X568Y1960*
X568Y1960*
X567Y1961*
X566Y1961*
X562Y1966*
X560Y1966*
X558Y1968*
X558Y1969*
X556Y1969*
X556Y1969*
X556Y1970*
X555Y1970*
X554Y1971*
X553Y1971*
X552Y1972*
X552Y1972*
X551Y1973*
X551Y1973*
X550Y1973*
X549Y1974*
X548Y1975*
X548Y1976*
X548Y1976*
X548Y1976*
X547Y1977*
X546Y1977*
X545Y1977*
X544Y1977*
X544Y1978*
X540Y1982*
X539Y1982*
X535Y1985*
X535Y1986*
X534Y1986*
X533Y1986*
X533Y1987*
X532Y1987*
X532Y1988*
X530Y1988*
X530Y1989*
X529Y1989*
X529Y1990*
X528Y1990*
X528Y1991*
X527Y1991*
X527Y1992*
X527Y1992*
X525Y1992*
X525Y1993*
X524Y1993*
X524Y1994*
X523Y1994*
X523Y1995*
X523Y1995*
X522Y1996*
X522Y1996*
X522Y1996*
X521Y1996*
X519Y1997*
X515Y2000*
X515Y2001*
X514Y2001*
X513Y2001*
X513Y2002*
X512Y2002*
X512Y2004*
X512Y2004*
X511Y2004*
X511Y2005*
X510Y2005*
X509Y2005*
X508Y2005*
X508Y2006*
X507Y2006*
X507Y2007*
X505Y2007*
X504Y2008*
X504Y2008*
X504Y2009*
X503Y2009*
X502Y2009*
X502Y2010*
X498Y2013*
X496Y2014*
X495Y2014*
X495Y2014*
X494Y2015*
X494Y2015*
X493Y2016*
X493Y2017*
X491Y2017*
X491Y2017*
X491Y2018*
X489Y2018*
X488Y2019*
X488Y2019*
X488Y2020*
X487Y2020*
X485Y2020*
X485Y2020*
X484Y2021*
X484Y2021*
X481Y2023*
X481Y2024*
X480Y2024*
X479Y2025*
X479Y2025*
X478Y2025*
X478Y2026*
X478Y2026*
X476Y2026*
X476Y2027*
X475Y2028*
X475Y2028*
X473Y2028*
X473Y2029*
X471Y2030*
X470Y2031*
X470Y2031*
X468Y2032*
X468Y2032*
X467Y2032*
X466Y2033*
X466Y2033*
X465Y2033*
X464Y2034*
X464Y2035*
X462Y2035*
X461Y2036*
X460Y2037*
X458Y2037*
X458Y2037*
X457Y2039*
X457Y2039*
X455Y2039*
X455Y2039*
X455Y2040*
X453Y2040*
X453Y2041*
X453Y2041*
X451Y2041*
X450Y2042*
X449Y2042*
X449Y2043*
X448Y2043*
X447Y2043*
X445Y2045*
X442Y2045*
X442Y2046*
X442Y2046*
X441Y2047*
X441Y2047*
X441Y2047*
X439Y2047*
X438Y2048*
X438Y2048*
X436Y2049*
X434Y2050*
X434Y2050*
X433Y2050*
X433Y2051*
X432Y2052*
X428Y2052*
X427Y2052*
X427Y2053*
X425Y2053*
X425Y2054*
X423Y2054*
X423Y2054*
X423Y2055*
X421Y2055*
X421Y2056*
X417Y2056*
X417Y2056*
X416Y2057*
X415Y2057*
X414Y2058*
X413Y2058*
X412Y2058*
X412Y2058*
X411Y2059*
X411Y2059*
X410Y2059*
X409Y2059*
X409Y2059*
X408Y2060*
X408Y2060*
X407Y2061*
X407Y2061*
X403Y2061*
X402Y2062*
X397Y2062*
X397Y2063*
X396Y2063*
X385Y2063*
X385Y2062*
X383Y2062*
X382Y2061*
X382Y2061*
X382Y2059*
X381Y2059*
X381Y2059*
X380Y2057*
X380Y2057*
X379Y2056*
X379Y2056*
X378Y2056*
X378Y2057*
X378Y2057*
X377Y2059*
X376Y2060*
X377Y2063*
X377Y2063*
X377Y2064*
X378Y2065*
X379Y2066*
X379Y2067*
X381Y2067*
X381Y2068*
X382Y2068*
X382Y2068*
X382Y2069*
X383Y2069*
X383Y2070*
X384Y2070*
X385Y2070*
X389Y2070*
X389Y2071*
X399Y2071*
X400Y2070*
X400Y2070*
X401Y2070*
X403Y2070*
X404Y2069*
X404Y2069*
X405Y2068*
X406Y2069*
X407Y2068*
X407Y2068*
X408Y2068*
X409Y2068*
X410Y2068*
X410Y2067*
X411Y2067*
X412Y2066*
X413Y2065*
X414Y2065*
X415Y2065*
X415Y2064*
X419Y2064*
X420Y2064*
X420Y2064*
X421Y2063*
X422Y2063*
X423Y2063*
X423Y2063*
X423Y2062*
X424Y2062*
X426Y2062*
X426Y2062*
X427Y2061*
X427Y2061*
X428Y2060*
X428Y2060*
X430Y2060*
X431Y2060*
X431Y2059*
X432Y2059*
X433Y2058*
X433Y2058*
X434Y2058*
X435Y2058*
X436Y2058*
X436Y2058*
X436Y2057*
X437Y2056*
X437Y2056*
X441Y2056*
X442Y2054*
X442Y2054*
X444Y2053*
X445Y2053*
X446Y2053*
X447Y2052*
X447Y2052*
X447Y2051*
X448Y2051*
X448Y2051*
X448Y2050*
X449Y2050*
X451Y2049*
X451Y2048*
X452Y2048*
X453Y2049*
X454Y2048*
X454Y2048*
X454Y2047*
X456Y2047*
X456Y2047*
X456Y2046*
X457Y2046*
X457Y2045*
X459Y2045*
X460Y2044*
X461Y2044*
X462Y2043*
X463Y2043*
X464Y2043*
X465Y2041*
X465Y2041*
X466Y2041*
X467Y2041*
X467Y2040*
X469Y2040*
X469Y2039*
X469Y2039*
X471Y2039*
X471Y2038*
X472Y2038*
X472Y2037*
X474Y2037*
X475Y2036*
X476Y2036*
X477Y2035*
X478Y2034*
X478Y2034*
X479Y2034*
X479Y2034*
X479Y2033*
X480Y2033*
X480Y2032*
X481*
X481Y2032*
X482Y2032*
X482Y2031*
X483Y2031*
X483Y2031*
X484Y2030*
X485Y2030*
X486Y2030*
X486Y2030*
X486Y2029*
X487Y2029*
X487Y2029*
X487Y2028*
X489Y2028*
X489Y2028*
X490Y2027*
X490Y2026*
X492Y2026*
X493Y2025*
X493Y2024*
X495Y2024*
X495Y2023*
X496Y2023*
X496Y2023*
X497Y2022*
X497Y2022*
X498Y2022*
X499Y2021*
X500Y2020*
X500Y2020*
X501Y2020*
X501Y2019*
X501Y2019*
X502Y2019*
X502Y2018*
X504Y2018*
X504Y2017*
X505Y2015*
X506Y2015*
X506Y2015*
X506Y2015*
X508Y2014*
X510Y2012*
X510Y2011*
X512Y2011*
X512Y2011*
X513Y2010*
X513Y2010*
X513Y2010*
X514Y2009*
X515Y2009*
X516Y2009*
X516Y2008*
X517Y2008*
X517Y2007*
X519Y2007*
X519Y2006*
X520Y2006*
X520Y2005*
X522Y2005*
X523Y2004*
X523Y2004*
X523Y2002*
X523Y2002*
X525Y2002*
X525Y2001*
X526Y2001*
X527Y2000*
X527Y2000*
X529Y1998*
X530Y1998*
X531Y1997*
X531Y1997*
X532Y1997*
X533Y1996*
X534Y1995*
X535Y1995*
X535Y1995*
X536Y1994*
X536Y1993*
X538Y1993*
X538Y1992*
X539Y1992*
X539Y1991*
X539Y1991*
X540Y1991*
X540Y1990*
X541Y1990*
X541Y1989*
X542Y1989*
X542Y1989*
X542Y1988*
X543Y1988*
X543Y1988*
X543Y1987*
X544Y1987*
X544Y1987*
X545Y1986*
X546Y1986*
X546Y1985*
X548Y1984*
X549Y1984*
X551Y1982*
X551Y1982*
X552Y1981*
X553Y1981*
X553Y1981*
X553Y1980*
X554Y1980*
X554Y1980*
X554Y1979*
X555Y1979*
X555Y1978*
X555Y1978*
X556Y1978*
X556Y1977*
X557Y1977*
X557Y1977*
X557Y1976*
X558Y1976*
X558Y1975*
X559Y1975*
X559Y1975*
X559Y1974*
X560Y1974*
X560Y1974*
X560Y1973*
X562Y1973*
X562Y1973*
X562Y1972*
X563Y1972*
X564Y1971*
X564Y1971*
X565Y1970*
X565Y1970*
X566Y1969*
X566Y1969*
X567Y1969*
X568Y1968*
X568Y1968*
X569Y1967*
X569Y1967*
X570Y1966*
X570Y1966*
X570Y1966*
X573Y1965*
X575Y1963*
X575Y1963*
X576Y1962*
X577Y1963*
X578Y1962*
X579Y1963*
X579Y1964*
X579Y1964*
X573Y1970*
X573Y1970*
X573Y1972*
X572Y1972*
X572Y1972*
X571Y1973*
X571Y1973*
X571Y1974*
X570Y1974*
X570Y1974*
X570Y1975*
X569Y1975*
X568Y1975*
X567Y1976*
X566Y1977*
X565Y1978*
X565Y1979*
X565Y1980*
X564Y1980*
X564Y1980*
X564Y1981*
X563Y1981*
X563Y1981*
X563Y1982*
X561Y1982*
X561Y1983*
X560Y1983*
X560Y1985*
X559Y1985*
X559Y1985*
X559Y1985*
X558Y1986*
X558Y1986*
X558Y1987*
X557Y1987*
X557Y1987*
X556Y1988*
X556Y1988*
X556Y1989*
X555Y1989*
X555Y1989*
X555Y1990*
X554Y1990*
X554Y1990*
X554Y1991*
X553Y1991*
X553Y1991*
X552Y1992*
X552Y1992*
X552Y1992*
X551Y1993*
X550Y1994*
X550Y1994*
X550Y1994*
X550Y1995*
X549Y1995*
X549Y1996*
X549Y1996*
X548Y1996*
X548Y1997*
X547Y1997*
X547Y1997*
X547Y1998*
X546Y1998*
X546Y1999*
X545Y1999*
X545Y1999*
X545Y2000*
X544Y2000*
X544Y2000*
X544Y2001*
X543Y2001*
X543Y2001*
X542Y2002*
X542Y2002*
X542Y2002*
X542Y2003*
X541Y2003*
X541Y2004*
X540Y2004*
X540Y2004*
X539Y2005*
X539Y2005*
X539Y2006*
X538Y2006*
X538Y2006*
X538Y2007*
X537Y2007*
X537Y2007*
X537Y2008*
X536Y2008*
X536Y2008*
X535Y2009*
X535Y2009*
X535Y2009*
X535Y2010*
X534Y2010*
X534Y2010*
X533Y2011*
X533Y2011*
X533Y2012*
X532Y2012*
X532Y2013*
X531Y2013*
X531Y2013*
X531Y2013*
X529Y2014*
X529Y2014*
X515Y2028*
X514Y2029*
X514Y2030*
X514Y2030*
X512Y2031*
X512Y2031*
X504Y2039*
X504Y2039*
X504Y2041*
X503Y2041*
X502Y2041*
X502Y2042*
X501Y2042*
X501Y2042*
X501Y2043*
X501Y2044*
X500Y2044*
X500Y2045*
X499Y2045*
X497Y2047*
X497Y2048*
X496Y2048*
X496Y2049*
X495Y2049*
X495Y2049*
X495Y2050*
X494Y2050*
X494Y2050*
X492Y2053*
X491Y2053*
X491Y2053*
X490Y2054*
X490Y2054*
X490Y2054*
X489Y2055*
X489Y2055*
X489Y2056*
X488Y2056*
X488Y2056*
X488Y2059*
X487Y2060*
X487Y2060*
X485Y2060*
X484Y2061*
X484Y2061*
X483Y2063*
X483Y2064*
X482Y2064*
X482Y2065*
X481Y2065*
X481Y2067*
X480Y2069*
X479Y2069*
X479Y2070*
X479Y2070*
X479Y2071*
X479Y2071*
X478Y2073*
X478Y2073*
X477Y2073*
X477Y2075*
X476Y2075*
X476Y2076*
X475Y2076*
X475Y2077*
X475Y2089*
X476Y2089*
X476Y2089*
X477Y2090*
X477Y2090*
X478Y2091*
X478Y2091*
X479Y2093*
X479Y2093*
X480Y2094*
X481Y2094*
X482Y2095*
X483Y2096*
X483Y2096*
X484Y2096*
X484Y2096*
X486Y2096*
X487Y2097*
X487Y2097*
X491Y2097*
X492Y2098*
X498Y2098*
X499Y2098*
X499Y2097*
X500Y2097*
X501Y2097*
X501Y2096*
X502Y2096*
X504Y2096*
X505Y2096*
X505Y2096*
X505Y2095*
X506Y2095*
X507Y2095*
X508Y2095*
X508Y2095*
X508Y2094*
X512Y2094*
X513Y2093*
X516Y2093*
X517Y2092*
X517Y2092*
X519Y2092*
X519Y2091*
X520Y2091*
X521Y2091*
X521Y2091*
X522Y2090*
X522Y2090*
X523Y2090*
X524Y2090*
X526Y2090*
X526Y2089*
X526Y2089*
X527Y2089*
X529Y2089*
X529Y2088*
X530Y2088*
X531Y2088*
X531Y2087*
X532Y2087*
X532Y2087*
X533Y2086*
X533Y2086*
X534Y2086*
X536Y2086*
X537Y2085*
X537Y2085*
X537Y2085*
X538Y2084*
X539Y2084*
X539Y2084*
X540Y2083*
X542Y2084*
X542Y2083*
X542Y2083*
X543Y2082*
X543Y2082*
X544Y2081*
X547Y2081*
X549Y2080*
X549Y2079*
X550Y2079*
X550Y2079*
X551Y2079*
X552Y2079*
X552Y2078*
X553Y2078*
X554Y2077*
X557Y2077*
X558Y2075*
X558Y2075*
X559Y2075*
X560Y2075*
X561Y2075*
X561Y2074*
X563Y2074*
X564Y2073*
X567Y2073*
X568Y2072*
X568Y2072*
X569Y2071*
X569Y2071*
X571Y2070*
X571Y2070*
X572Y2070*
X573Y2070*
X574Y2069*
X574Y2069*
X574Y2069*
X576Y2068*
X576Y2068*
X576Y2068*
X578Y2067*
X578Y2067*
X578Y2067*
X583Y2066*
X585Y2065*
X585Y2065*
X586Y2064*
X590Y2064*
X591Y2064*
X591Y2063*
X593Y2063*
X593Y2063*
X593Y2062*
X598Y2062*
X598Y2063*
X598Y2064*
X597Y2065*
X597Y2065*
X595Y2066*
X595Y2067*
X594Y2067*
X594Y2068*
X592Y2068*
X592Y2068*
X590Y2070*
X590Y2070*
X590Y2070*
X589Y2071*
X588Y2071*
X586Y2073*
X585Y2073*
X584Y2073*
X584Y2074*
X584Y2074*
X583Y2075*
X583Y2075*
X582Y2075*
X581Y2075*
X581Y2076*
X580Y2076*
X580Y2077*
X578Y2077*
X578Y2078*
X577Y2079*
X577Y2079*
X576Y2079*
X575Y2079*
X575Y2080*
X574Y2080*
X573Y2080*
X572Y2082*
X571Y2082*
X570Y2083*
X570Y2083*
X569Y2083*
X569Y2084*
X568Y2084*
X568Y2084*
X567Y2085*
X566Y2084*
X565Y2085*
X565Y2085*
X563Y2086*
X563Y2087*
X563Y2088*
X562Y2088*
X562Y2089*
X561Y2089*
X561Y2090*
X559Y2090*
X559Y2091*
X557Y2092*
X555Y2092*
X555Y2092*
X554Y2093*
X554Y2093*
X553Y2094*
X553Y2094*
X552Y2095*
X552Y2095*
X552Y2095*
X551Y2096*
X551Y2096*
X551Y2096*
X550Y2097*
X550Y2097*
X549Y2098*
X549Y2098*
X548Y2099*
X547Y2099*
X545Y2100*
X545Y2100*
X544Y2101*
X544Y2101*
X543Y2102*
X542Y2102*
X542Y2102*
X539Y2105*
X538Y2105*
X537Y2106*
X536Y2107*
X535Y2107*
X535Y2107*
X534Y2108*
X533Y2108*
X533Y2109*
X532Y2109*
X531Y2110*
X530Y2110*
X530Y2111*
X530Y2111*
X528Y2111*
X528Y2112*
X528Y2112*
X527Y2112*
X527Y2113*
X526Y2113*
X526Y2114*
X526Y2114*
X526Y2114*
X525Y2115*
X525Y2115*
X523Y2115*
X523Y2116*
X521Y2117*
X520Y2118*
X520Y2118*
X520Y2118*
X518Y2119*
X518Y2119*
X517Y2119*
X516Y2120*
X516Y2120*
X516Y2121*
X516Y2121*
X515Y2121*
X515Y2122*
X513Y2122*
X513Y2123*
X513Y2123*
X512Y2123*
X512Y2124*
X510Y2124*
X510Y2125*
X509Y2126*
X508Y2126*
X508Y2127*
X507Y2127*
X506Y2127*
X506Y2128*
X503Y2130*
X502Y2130*
X496Y2136*
X496Y2137*
X494Y2137*
X494Y2138*
X494Y2138*
X493Y2138*
X493Y2138*
X492Y2139*
X492Y2140*
X491Y2140*
X491Y2141*
X489Y2141*
X488Y2142*
X488Y2142*
X487Y2143*
X486Y2143*
X486Y2143*
X486Y2144*
X485Y2144*
X485Y2144*
X485Y2145*
X484Y2145*
X483Y2145*
X478Y2150*
X478Y2150*
X477Y2151*
X476Y2151*
X476Y2151*
X476Y2151*
X475Y2152*
X475Y2152*
X473Y2153*
X473Y2154*
X471Y2154*
X470Y2155*
X470Y2155*
X470Y2157*
X468Y2157*
X467Y2158*
X467Y2158*
X466Y2159*
X466Y2159*
X466Y2159*
X465Y2160*
X464Y2160*
X463Y2161*
X461Y2163*
X459Y2163*
X459Y2164*
X457Y2166*
X457Y2166*
X455Y2166*
X455Y2167*
X455Y2167*
X454Y2167*
X454Y2168*
X454Y2168*
X453Y2168*
X453Y2169*
X453Y2169*
X452Y2170*
X452Y2170*
X452Y2170*
X450Y2171*
X450Y2171*
X449Y2171*
X449Y2172*
X448Y2173*
X448Y2173*
X447Y2173*
X447Y2174*
X447Y2174*
X446Y2175*
X446Y2175*
X446Y2175*
X445Y2176*
X445Y2176*
X444Y2176*
X444Y2177*
X443Y2177*
X443Y2178*
X441Y2178*
X441Y2179*
X440Y2179*
X440Y2180*
X440Y2180*
X439Y2180*
X439Y2181*
X437Y2181*
X436Y2183*
X435Y2183*
X434Y2184*
X430Y2187*
X430Y2187*
X429Y2188*
X428Y2188*
X428Y2188*
X427Y2189*
X427Y2190*
X425Y2190*
X425Y2192*
X423Y2192*
X423Y2192*
X423Y2193*
X422Y2193*
X422Y2194*
X420Y2194*
X420Y2195*
X419Y2195*
X419Y2197*
X418Y2197*
X417Y2198*
X417Y2198*
X417Y2199*
X416Y2199*
X415Y2199*
X414Y2200*
X414Y2201*
X413Y2201*
X413Y2201*
X412Y2202*
X411Y2202*
X410Y2203*
X409Y2204*
X402Y2210*
X402Y2211*
X400Y2211*
X400Y2211*
X400Y2212*
X399Y2212*
X399Y2213*
X398Y2213*
X398Y2213*
X398Y2213*
X397Y2214*
X396Y2214*
X395Y2215*
X395Y2215*
X395Y2215*
X394Y2216*
X394Y2216*
X394Y2216*
X393Y2217*
X392Y2218*
X392Y2218*
X391Y2219*
X391Y2219*
X389Y2220*
X389Y2220*
X388Y2221*
X388Y2221*
X388Y2222*
X386Y2222*
X386Y2222*
X385Y2223*
X384Y2223*
X383Y2223*
X383Y2223*
X382Y2224*
X382Y2225*
X381Y2225*
X380Y2226*
X379Y2226*
X378Y2227*
X378Y2227*
X377Y2228*
X377Y2228*
X376Y2229*
X376Y2229*
X375Y2229*
X375Y2230*
X373Y2230*
X373Y2231*
X370Y2231*
X369Y2233*
X369Y2233*
X368Y2233*
X368Y2234*
X368Y2235*
X366Y2236*
X365Y2237*
X364Y2238*
X363Y2238*
X362Y2239*
X361Y2239*
X361Y2240*
X361Y2240*
X360Y2240*
X359Y2241*
X358Y2242*
X357Y2242*
X357Y2242*
X357Y2243*
X355Y2243*
X355Y2244*
X354Y2244*
X354Y2244*
X354Y2245*
X353Y2245*
X353Y2246*
X353Y2246*
X351Y2246*
X351Y2247*
X349Y2247*
X349Y2248*
X349Y2249*
X348Y2249*
X348Y2249*
X347Y2250*
X346Y2250*
X346Y2250*
X346Y2251*
X345Y2251*
X346Y2252*
X346Y2252*
X347Y2253*
X347Y2253*
X347Y2253*
X348Y2254*
X348Y2256*
X348Y2257*
X349Y2257*
X349Y2257*
X349Y2258*
X353Y2257*
G37*
G36*
X412Y1961D02*
X412Y1961D01*
X413Y1961*
X413Y1960*
X414Y1960*
X416Y1959*
X416Y1948*
X415Y1947*
X414Y1947*
X414Y1947*
X413Y1948*
X412Y1948*
X411Y1948*
X411Y1948*
X410Y1949*
X407Y1951*
X407Y1955*
X408Y1955*
X408Y1955*
X408Y1959*
X409Y1960*
X410Y1960*
X410Y1961*
X411Y1961*
X412Y1961*
G37*
G36*
X396Y1860D02*
X397Y1860D01*
X398Y1859*
X398Y1858*
X398Y1857*
X399Y1857*
X399Y1854*
X400Y1854*
X400Y1853*
X400Y1853*
X401Y1853*
X401Y1852*
X402Y1852*
X402Y1851*
X402Y1851*
X403Y1851*
X403Y1850*
X403Y1850*
X404Y1850*
X404Y1849*
X404Y1849*
X405Y1848*
X405Y1848*
X406Y1848*
X406Y1847*
X406Y1847*
X407Y1847*
X407Y1846*
X408Y1846*
X408Y1846*
X408Y1845*
X408Y1844*
X409Y1844*
X412Y1841*
X412Y1840*
X413Y1840*
X414Y1840*
X414Y1839*
X415Y1839*
X415Y1837*
X415Y1837*
X417Y1835*
X417Y1835*
X419Y1835*
X419Y1835*
X419Y1834*
X420Y1834*
X420Y1832*
X422Y1832*
X422Y1831*
X422Y1831*
X423Y1831*
X423Y1830*
X423Y1830*
X424Y1830*
X424Y1829*
X424Y1829*
X425Y1828*
X426Y1828*
X426Y1827*
X427Y1827*
X427Y1827*
X428Y1826*
X428Y1826*
X428Y1825*
X429Y1825*
X429Y1825*
X429Y1824*
X430Y1824*
X430Y1824*
X431Y1823*
X432Y1823*
X432Y1822*
X433Y1822*
X433Y1822*
X433Y1821*
X434Y1821*
X434Y1820*
X435Y1820*
X435Y1819*
X436Y1819*
X436Y1818*
X437Y1818*
X437Y1817*
X438Y1817*
X438Y1816*
X438Y1816*
X440Y1816*
X441Y1815*
X442Y1815*
X442Y1814*
X445Y1812*
X446Y1811*
X448Y1810*
X448Y1810*
X450Y1809*
X450Y1809*
X450Y1808*
X451Y1808*
X451Y1808*
X452Y1807*
X452Y1806*
X453Y1806*
X453Y1806*
X453Y1805*
X455Y1805*
X455Y1804*
X456Y1804*
X456Y1803*
X458Y1803*
X459Y1802*
X459Y1802*
X459Y1801*
X460Y1801*
X461Y1801*
X461Y1801*
X465Y1797*
X465Y1797*
X466Y1797*
X470Y1793*
X470Y1793*
X472Y1792*
X472Y1792*
X472Y1792*
X473Y1791*
X473Y1790*
X474Y1790*
X474Y1790*
X474Y1789*
X475Y1789*
X475Y1788*
X476Y1788*
X476Y1788*
X476Y1787*
X478Y1787*
X478Y1787*
X479Y1786*
X479Y1786*
X479Y1786*
X480Y1785*
X481Y1785*
X482Y1784*
X483Y1784*
X483Y1782*
X484Y1782*
X485Y1782*
X485Y1781*
X486Y1780*
X487Y1780*
X487Y1779*
X487Y1779*
X489Y1779*
X490Y1779*
X490Y1778*
X490Y1778*
X491Y1778*
X494Y1774*
X495Y1774*
X496Y1773*
X497Y1772*
X497Y1772*
X498Y1770*
X499Y1770*
X500Y1770*
X500Y1769*
X501Y1769*
X501Y1768*
X502Y1768*
X502Y1766*
X503Y1765*
X504Y1764*
X504Y1764*
X506Y1764*
X506Y1763*
X506Y1763*
X507Y1763*
X507Y1762*
X508Y1762*
X508Y1761*
X509Y1761*
X510Y1761*
X511Y1761*
X512Y1760*
X512Y1760*
X512Y1759*
X512Y1758*
X513Y1758*
X513Y1757*
X514Y1757*
X514Y1756*
X515Y1756*
X516Y1755*
X516Y1756*
X517Y1755*
X519Y1754*
X519Y1753*
X521Y1753*
X521Y1753*
X521Y1752*
X521Y1752*
X522Y1752*
X522Y1751*
X522Y1750*
X524Y1750*
X524Y1749*
X524Y1749*
X525Y1749*
X525Y1749*
X525Y1747*
X527Y1747*
X527Y1746*
X527Y1746*
X528Y1746*
X528Y1745*
X528Y1745*
X530Y1745*
X530Y1744*
X531Y1744*
X531Y1743*
X532Y1742*
X533Y1741*
X534Y1741*
X535Y1740*
X535Y1740*
X536Y1739*
X537Y1739*
X537Y1738*
X538Y1738*
X538Y1738*
X538Y1737*
X539Y1737*
X539Y1736*
X540Y1736*
X540Y1736*
X540Y1735*
X541Y1735*
X541Y1735*
X542Y1734*
X542Y1734*
X542Y1734*
X542Y1733*
X544Y1733*
X545Y1732*
X549Y1728*
X550Y1728*
X553Y1725*
X553Y1725*
X555Y1724*
X555Y1724*
X555Y1724*
X555Y1723*
X556Y1723*
X556Y1723*
X557Y1722*
X557Y1722*
X557Y1722*
X558Y1721*
X558Y1721*
X559Y1720*
X559Y1720*
X559Y1719*
X560Y1719*
X560Y1719*
X560Y1718*
X561Y1718*
X561Y1718*
X561Y1717*
X562Y1717*
X563Y1716*
X564Y1716*
X565Y1715*
X565Y1715*
X565Y1714*
X565Y1713*
X566Y1712*
X566Y1712*
X566Y1711*
X567Y1710*
X568Y1709*
X568Y1708*
X569Y1707*
X568Y1707*
X568Y1706*
X567Y1705*
X567Y1704*
X567Y1704*
X566Y1703*
X561Y1704*
X561Y1704*
X561Y1704*
X560Y1705*
X560Y1705*
X558Y1706*
X558Y1707*
X557Y1707*
X557Y1707*
X556Y1708*
X556Y1708*
X555Y1709*
X554Y1709*
X553Y1710*
X553Y1710*
X553Y1710*
X552Y1711*
X552Y1711*
X551Y1711*
X550Y1712*
X549Y1712*
X545Y1716*
X545Y1716*
X543Y1716*
X543Y1717*
X543Y1717*
X542Y1717*
X542Y1718*
X542Y1718*
X541Y1718*
X540Y1718*
X539Y1718*
X539Y1719*
X538Y1719*
X538Y1720*
X538Y1720*
X537Y1720*
X535Y1721*
X533Y1722*
X533Y1723*
X532Y1724*
X531Y1723*
X530Y1724*
X530Y1724*
X529Y1725*
X529Y1726*
X527Y1726*
X527Y1726*
X527Y1727*
X525Y1727*
X525Y1728*
X524Y1728*
X524Y1728*
X523Y1729*
X523Y1729*
X523Y1730*
X522Y1730*
X522Y1730*
X522Y1731*
X521Y1731*
X520Y1731*
X520Y1732*
X518Y1733*
X517Y1733*
X516Y1734*
X516Y1734*
X516Y1734*
X513Y1737*
X513Y1737*
X510Y1738*
X510Y1739*
X509Y1739*
X509Y1740*
X506Y1740*
X506Y1740*
X506Y1740*
X502Y1744*
X501Y1744*
X501Y1744*
X500Y1745*
X500Y1745*
X499Y1745*
X499Y1746*
X498Y1746*
X497Y1746*
X497Y1747*
X496Y1747*
X496Y1748*
X493Y1748*
X493Y1749*
X492Y1749*
X492Y1750*
X492Y1750*
X490Y1750*
X490Y1751*
X489Y1752*
X489Y1752*
X487Y1752*
X487Y1753*
X487Y1753*
X485Y1754*
X485Y1754*
X484Y1754*
X483Y1754*
X482Y1754*
X482Y1755*
X481Y1755*
X481Y1756*
X481Y1756*
X480Y1756*
X480Y1756*
X479Y1757*
X478Y1758*
X477Y1758*
X476Y1758*
X476Y1758*
X476Y1759*
X475Y1759*
X475Y1760*
X473Y1760*
X473Y1761*
X471Y1761*
X471Y1761*
X470Y1761*
X470Y1761*
X466Y1765*
X464Y1765*
X464Y1765*
X463Y1766*
X463Y1766*
X461Y1766*
X461Y1767*
X460Y1767*
X459Y1767*
X458Y1767*
X458Y1768*
X457Y1768*
X457Y1768*
X457Y1769*
X457Y1769*
X453Y1769*
X453Y1770*
X453Y1770*
X451Y1771*
X450Y1771*
X448Y1771*
X447Y1771*
X446Y1772*
X446Y1772*
X446Y1773*
X445Y1773*
X445Y1773*
X441Y1774*
X440Y1775*
X440Y1776*
X438Y1776*
X437Y1776*
X437Y1776*
X437Y1777*
X436Y1777*
X434Y1777*
X434Y1777*
X433Y1778*
X432Y1778*
X432Y1778*
X432Y1778*
X431Y1779*
X430Y1779*
X429Y1780*
X429Y1780*
X425Y1780*
X425Y1781*
X421Y1781*
X421Y1782*
X421Y1782*
X416Y1782*
X416Y1782*
X416Y1781*
X416Y1780*
X416Y1778*
X416Y1778*
X416Y1778*
X417Y1777*
X417Y1775*
X417Y1775*
X418Y1774*
X418Y1772*
X419Y1771*
X419Y1770*
X420Y1770*
X420Y1769*
X421Y1769*
X421Y1769*
X421Y1768*
X423Y1768*
X423Y1768*
X424Y1768*
X424Y1767*
X425Y1767*
X425Y1767*
X425Y1766*
X426Y1766*
X426Y1766*
X426Y1766*
X426Y1765*
X425Y1765*
X425Y1764*
X425Y1763*
X425Y1762*
X426Y1762*
X427Y1762*
X428Y1761*
X428Y1761*
X428Y1761*
X428Y1760*
X429Y1759*
X430Y1758*
X434Y1755*
X434Y1754*
X445Y1742*
X445Y1742*
X446Y1741*
X446Y1741*
X446Y1740*
X447Y1740*
X447Y1739*
X447Y1739*
X448Y1739*
X448Y1738*
X449Y1738*
X449Y1738*
X449Y1737*
X450Y1737*
X450Y1737*
X450Y1736*
X451Y1736*
X451Y1736*
X451Y1735*
X452Y1735*
X452Y1735*
X452Y1734*
X453Y1734*
X453Y1734*
X454Y1733*
X454Y1733*
X454Y1732*
X455Y1732*
X455Y1732*
X455Y1731*
X456Y1731*
X456Y1731*
X456Y1730*
X457Y1730*
X457Y1730*
X457Y1729*
X458Y1729*
X458Y1729*
X458Y1728*
X459Y1728*
X459Y1728*
X459Y1727*
X460Y1727*
X460Y1726*
X460Y1726*
X461Y1726*
X461Y1725*
X462Y1725*
X463Y1724*
X464Y1724*
X464Y1723*
X464Y1723*
X465Y1722*
X465Y1721*
X466Y1721*
X466Y1721*
X466Y1720*
X466Y1720*
X467Y1720*
X467Y1719*
X469Y1719*
X469Y1719*
X472Y1716*
X472Y1713*
X473Y1713*
X473Y1711*
X474Y1710*
X475Y1710*
X475Y1710*
X475Y1709*
X475Y1709*
X476Y1709*
X476Y1708*
X476Y1708*
X477Y1707*
X478Y1706*
X478Y1705*
X479Y1705*
X480Y1704*
X481Y1704*
X481Y1703*
X481Y1703*
X482Y1701*
X482Y1701*
X494Y1689*
X494Y1689*
X495Y1689*
X495Y1688*
X496Y1688*
X497Y1687*
X498Y1687*
X498Y1686*
X499Y1686*
X499Y1684*
X500Y1684*
X500Y1683*
X500Y1683*
X501Y1683*
X501Y1682*
X501Y1682*
X502Y1682*
X502Y1680*
X503Y1680*
X504Y1680*
X504Y1679*
X504Y1679*
X505Y1678*
X505Y1678*
X505Y1678*
X506Y1677*
X506Y1677*
X507Y1677*
X507Y1676*
X507Y1676*
X508Y1676*
X510Y1673*
X510Y1673*
X511Y1673*
X511Y1672*
X511Y1672*
X512Y1671*
X512Y1671*
X513Y1671*
X513Y1670*
X516Y1668*
X516Y1668*
X516Y1667*
X517Y1667*
X517Y1666*
X517Y1666*
X518Y1666*
X518Y1665*
X518Y1665*
X519Y1665*
X519Y1664*
X521Y1664*
X521Y1664*
X521Y1663*
X522Y1663*
X522Y1662*
X522Y1662*
Y1662*
X522Y1661*
X523Y1661*
X523Y1660*
X523Y1660*
X524Y1660*
X526Y1657*
X526Y1657*
X527Y1657*
X527Y1656*
X527Y1656*
X528Y1656*
X528Y1655*
X528Y1655*
X529Y1654*
X530Y1653*
X530Y1653*
X531Y1652*
X531Y1652*
X532Y1652*
X532Y1651*
X533Y1651*
X533Y1650*
X533Y1650*
X534Y1650*
X534Y1649*
X534Y1649*
X535Y1649*
X535Y1648*
X535Y1648*
X536Y1648*
X536Y1647*
X536Y1647*
X537Y1647*
X537Y1646*
X537Y1646*
X538Y1646*
X538Y1645*
X538Y1645*
X539Y1644*
X539Y1644*
X540Y1644*
X540Y1643*
X540Y1643*
X541Y1643*
X541Y1642*
X541Y1642*
X542Y1642*
X542Y1641*
X542Y1641*
X543Y1641*
X543Y1640*
X543Y1640*
X543Y1639*
X543Y1639*
X544Y1639*
X546Y1636*
X547Y1636*
X548Y1635*
X549Y1635*
X549Y1635*
X549Y1634*
X549Y1634*
X550Y1632*
X550Y1632*
X556Y1626*
X556Y1625*
X558Y1623*
X560Y1623*
X563Y1619*
X564Y1618*
X568Y1613*
X569Y1613*
X570Y1613*
X570Y1612*
X570Y1612*
X571Y1612*
X571Y1610*
X577Y1604*
X577Y1604*
X577Y1603*
X578Y1602*
X578Y1602*
X578Y1602*
X579Y1601*
X579Y1601*
X579Y1601*
X580Y1600*
X580Y1600*
X580Y1600*
X581Y1599*
X581Y1599*
X581Y1599*
X582Y1598*
X582Y1598*
X583Y1597*
X583Y1597*
X584Y1595*
X585Y1595*
X585Y1594*
X585Y1594*
X586Y1593*
X586Y1593*
X586Y1593*
X587Y1592*
X588Y1592*
X588Y1591*
X589Y1591*
X589Y1590*
X590Y1590*
X590Y1589*
X591Y1588*
X591Y1588*
X591Y1588*
X592Y1587*
X592Y1587*
X593Y1586*
X593Y1586*
X594Y1585*
X594Y1584*
X595Y1583*
X595Y1583*
X596Y1582*
X596Y1582*
X596Y1581*
X597Y1581*
X597Y1581*
X597Y1580*
X598Y1580*
X599Y1579*
X599Y1579*
X599Y1579*
X600Y1578*
X601Y1578*
X602Y1577*
X603Y1577*
X604Y1575*
X605Y1575*
X605Y1574*
X605Y1574*
X606Y1573*
X608Y1573*
X608Y1572*
X609Y1572*
X609Y1571*
X609Y1571*
X610Y1571*
X610Y1570*
X610Y1570*
X612Y1570*
X612Y1569*
X615Y1566*
X616Y1565*
X616Y1564*
X616Y1564*
X616Y1564*
X617Y1563*
X617Y1563*
X618Y1561*
X618Y1561*
X618Y1561*
X619Y1560*
X619Y1560*
X620Y1559*
X620Y1559*
X621Y1558*
X621Y1558*
X622Y1557*
X621Y1557*
X622Y1556*
X622Y1556*
X623Y1555*
X624Y1555*
X624Y1554*
X623Y1554*
X622Y1553*
X622Y1552*
X621Y1552*
X621Y1552*
X621Y1551*
X620Y1551*
X618Y1551*
X617Y1551*
X617Y1552*
X616Y1552*
X616Y1553*
X614Y1553*
X614Y1554*
X613Y1554*
X613Y1555*
X613Y1555*
X612Y1555*
X612Y1555*
X612Y1556*
X611Y1556*
X611Y1557*
X610Y1557*
X609Y1558*
X608Y1558*
X608Y1559*
X606Y1560*
X606Y1560*
X606Y1561*
X606Y1562*
X605Y1562*
X604Y1562*
X603Y1563*
X600Y1567*
X599Y1567*
X599Y1568*
X599Y1569*
X598Y1569*
X598Y1571*
X597Y1571*
X597Y1572*
X595Y1572*
X595Y1573*
X594Y1573*
X594Y1575*
X594Y1575*
X593Y1575*
X593Y1576*
X591Y1576*
X591Y1577*
X590Y1577*
X590Y1578*
X590Y1579*
X589Y1579*
X589Y1579*
X588Y1580*
X588Y1581*
X587Y1581*
X586Y1581*
X585Y1582*
X585Y1583*
X584Y1583*
X585Y1584*
X584Y1584*
X584Y1585*
X584Y1585*
X583Y1586*
X582Y1586*
X582Y1588*
X580Y1588*
X580Y1588*
X580Y1589*
X579Y1589*
X579Y1590*
X579Y1590*
X579Y1591*
X578Y1591*
X578Y1592*
X578Y1592*
X577Y1592*
X577Y1593*
X577Y1593*
X576Y1593*
X576Y1594*
X576Y1594*
X575Y1594*
X575Y1595*
X575Y1595*
X574Y1595*
X574Y1596*
X574Y1596*
X573Y1596*
X573Y1597*
X573Y1598*
X572Y1599*
X564Y1606*
X564Y1608*
X550Y1622*
X550Y1622*
X549Y1624*
X549Y1624*
X549Y1624*
X548Y1624*
X548Y1625*
X547Y1625*
X547Y1626*
X547Y1626*
X546Y1626*
X546Y1627*
X545Y1627*
X545Y1628*
X545Y1628*
X544Y1628*
X544Y1629*
X544Y1629*
X543Y1629*
X543Y1630*
X542Y1630*
X542Y1630*
X542Y1631*
X542Y1631*
X541Y1631*
X540Y1632*
X540Y1632*
X540Y1633*
X539Y1633*
X539Y1634*
X539Y1634*
X538Y1635*
X538Y1635*
X538Y1635*
X537Y1636*
X537Y1636*
X537Y1636*
X536Y1637*
X536Y1637*
X535Y1637*
X535Y1638*
X535Y1638*
X535Y1638*
X534Y1639*
X534Y1639*
X533Y1639*
X533Y1640*
X533Y1640*
X532Y1640*
X532Y1641*
X531Y1641*
X531Y1642*
X531Y1642*
X530Y1642*
X530Y1643*
X528Y1643*
X528Y1644*
X528Y1644*
X527Y1644*
X527Y1645*
X527Y1645*
X526Y1646*
X526Y1646*
X526Y1647*
X525Y1647*
X525Y1647*
X525Y1648*
X525Y1648*
X524Y1648*
X524Y1650*
X523Y1651*
X523Y1651*
X522Y1652*
X522Y1652*
X521Y1653*
X521Y1653*
X520Y1654*
X520Y1654*
X519Y1655*
X519Y1655*
X518Y1655*
X518Y1656*
X517Y1657*
X517Y1657*
X516Y1657*
X516Y1658*
X516Y1658*
X515Y1659*
X513Y1659*
X513Y1660*
X512Y1660*
X512Y1661*
X512Y1661*
X511Y1661*
X511Y1662*
X511Y1662*
X511Y1663*
X510Y1663*
X510Y1664*
X508Y1664*
X508Y1665*
X507Y1665*
X507Y1666*
X506Y1666*
X506Y1667*
X506Y1667*
X505Y1668*
X505Y1668*
X505Y1668*
X502Y1671*
X502Y1671*
X502Y1671*
X501Y1672*
X501Y1672*
X501Y1673*
X501Y1673*
X500Y1674*
X500Y1674*
X499Y1675*
X499Y1675*
X498Y1676*
X498Y1676*
X498Y1676*
X497Y1677*
X497Y1677*
X496Y1677*
X496Y1678*
X495Y1678*
X495Y1679*
X495Y1679*
X493Y1679*
X493Y1680*
X492Y1681*
X491Y1681*
X491Y1682*
X490Y1682*
X490Y1682*
X490Y1683*
X490Y1684*
X490Y1684*
X489Y1685*
X488Y1685*
X488Y1686*
X487Y1687*
X487Y1687*
X486Y1687*
X485Y1688*
X484Y1688*
X481Y1692*
X481Y1692*
X480Y1692*
X480Y1693*
X479Y1693*
X479Y1694*
X479Y1694*
X479Y1695*
X479Y1695*
X478Y1696*
X476Y1696*
X476Y1697*
X476Y1697*
X475Y1697*
X475Y1699*
X472Y1699*
X471Y1701*
X471Y1703*
X470Y1704*
X470Y1704*
X470Y1704*
X469Y1704*
X469Y1705*
X469Y1705*
X469Y1706*
X468Y1707*
X468Y1707*
X467Y1708*
X467Y1708*
X467Y1708*
X466Y1709*
X466Y1709*
X465Y1710*
X464Y1710*
X463Y1711*
X463Y1711*
X462Y1712*
X461Y1712*
X461Y1713*
X460Y1713*
X459Y1713*
X459Y1714*
X456Y1717*
X454Y1717*
X454Y1718*
X451Y1721*
X451Y1721*
X451Y1722*
X450Y1723*
X450Y1723*
X449Y1724*
X449Y1725*
X449Y1725*
X449Y1725*
X448Y1726*
X448Y1726*
X447Y1727*
X446Y1727*
X445Y1728*
X444Y1729*
X443Y1729*
X443Y1731*
X441Y1731*
X441Y1732*
X440Y1732*
X440Y1734*
X440Y1734*
X439Y1735*
X439Y1736*
X438Y1737*
X438Y1737*
X437Y1738*
X437Y1738*
X437Y1739*
X437Y1739*
X436Y1740*
X436Y1740*
X436Y1741*
X435Y1742*
X435Y1742*
X434Y1743*
X433Y1743*
X433Y1744*
X432Y1745*
X432Y1745*
X432Y1745*
X431Y1746*
X430Y1746*
X430Y1746*
X429Y1747*
X429Y1747*
X428Y1748*
X427Y1748*
X426Y1749*
X426Y1750*
X426Y1751*
X425Y1752*
X422Y1755*
X422Y1756*
X415Y1763*
X415Y1763*
X415Y1764*
X415Y1766*
X414Y1766*
X414Y1766*
X413Y1767*
X413Y1767*
X412Y1768*
X412Y1768*
X411Y1769*
X411Y1770*
X412Y1770*
X411Y1771*
X411Y1771*
X409Y1773*
X409Y1774*
X409Y1774*
X409Y1775*
X409Y1776*
X408Y1776*
X408Y1777*
X407Y1777*
X407Y1787*
X408Y1787*
X408Y1788*
X409Y1788*
X409Y1788*
X409Y1789*
X410Y1789*
X411Y1790*
X412Y1790*
X413Y1791*
X414Y1791*
X416Y1792*
X417Y1791*
X417Y1791*
X417Y1790*
X422Y1790*
X422Y1789*
X424Y1789*
X425Y1788*
X427Y1788*
X428Y1788*
X428Y1788*
X429Y1787*
X430Y1787*
X430Y1786*
X433Y1786*
X434Y1786*
X434Y1786*
X434Y1785*
X437Y1785*
X437Y1785*
X437Y1784*
X439Y1784*
X440Y1783*
X442Y1783*
X442Y1783*
X442Y1782*
X443Y1782*
X445Y1782*
X449Y1782*
X453Y1778*
X453Y1778*
X454Y1778*
X455Y1778*
X456Y1777*
X456Y1777*
X458Y1777*
X459Y1776*
X460Y1775*
X461Y1775*
X462Y1774*
X462Y1774*
X463Y1774*
X464Y1773*
X465Y1774*
X466Y1773*
X466Y1773*
X466Y1772*
X467Y1772*
X467Y1771*
X468Y1771*
X469Y1771*
X469Y1771*
X471Y1770*
X471Y1769*
X473Y1769*
X473Y1769*
X473Y1768*
X474Y1768*
X474Y1768*
X474Y1767*
X476Y1767*
X477Y1766*
X478Y1766*
X478Y1766*
X479Y1765*
X480Y1765*
X481Y1764*
X481Y1764*
X481Y1764*
X482Y1763*
X482Y1763*
X483Y1763*
X484Y1762*
X485Y1761*
X487Y1761*
X488Y1760*
X488Y1760*
X490Y1760*
X490Y1759*
X493Y1758*
X494Y1757*
X494Y1757*
X496Y1756*
X497Y1756*
X497Y1756*
X497Y1755*
X497Y1755*
X498Y1755*
X499Y1754*
X500Y1754*
X500Y1753*
X501Y1753*
X501Y1752*
X503Y1752*
X503Y1751*
X504Y1751*
X504Y1750*
X504Y1750*
X505Y1750*
X505Y1748*
X508Y1748*
X509Y1747*
X510Y1746*
X512Y1746*
X512Y1745*
X513Y1745*
X513Y1745*
X514Y1743*
X515Y1743*
X515Y1743*
X516Y1742*
X516Y1742*
X517Y1742*
X518Y1742*
X518Y1743*
X517Y1744*
X517Y1744*
X516Y1745*
X517Y1745*
X516Y1746*
X515Y1746*
X514Y1747*
X514Y1747*
X514Y1747*
X513Y1747*
X513Y1748*
X511Y1748*
X511Y1749*
X511Y1749*
X511Y1749*
X510Y1750*
X510Y1750*
X509Y1750*
X509Y1751*
X509Y1752*
X507Y1752*
X507Y1753*
X507Y1753*
X506Y1754*
X505Y1754*
X505Y1755*
X504Y1755*
X503Y1756*
X502Y1756*
X502Y1757*
X502Y1757*
X501Y1757*
X501Y1758*
X501Y1758*
X500Y1759*
X500Y1759*
X499Y1760*
X499Y1760*
X498Y1761*
X498Y1761*
X498Y1761*
X497Y1762*
X497Y1762*
X496Y1762*
X496Y1763*
X495Y1763*
X495Y1764*
X495Y1764*
X493Y1764*
X492Y1765*
X492Y1766*
X491Y1766*
X491Y1767*
X490Y1767*
X490Y1767*
X490Y1768*
X487Y1770*
X487Y1770*
X487Y1771*
X486Y1771*
X485Y1772*
X485Y1772*
X479Y1777*
X479Y1778*
X478Y1778*
X477Y1778*
X477Y1779*
X475Y1779*
X475Y1779*
X475Y1780*
X474Y1780*
X474Y1781*
X473Y1781*
X473Y1782*
X472Y1782*
X472Y1782*
X472Y1783*
X471Y1784*
X471Y1784*
X470Y1785*
X470Y1785*
X467Y1785*
X466Y1786*
X466Y1787*
X465Y1788*
X464Y1788*
X464Y1788*
X462Y1788*
X461Y1789*
X461Y1789*
X460Y1790*
X460Y1791*
X460Y1792*
X459Y1792*
X459Y1792*
X457Y1793*
X457Y1793*
X457Y1794*
X456Y1794*
X454Y1796*
X454Y1797*
X452Y1797*
X451Y1798*
X451Y1798*
X451Y1800*
X450Y1800*
X449Y1801*
X448Y1801*
X447Y1802*
X447Y1802*
X447Y1803*
X446Y1803*
X446Y1803*
X445Y1803*
X444Y1804*
X444Y1804*
X444Y1804*
X443Y1805*
X443Y1805*
X443Y1806*
X442Y1806*
X442Y1806*
X442Y1806*
X441Y1807*
X441Y1807*
X439Y1808*
X439Y1808*
X438Y1809*
X438Y1809*
X438Y1809*
X438Y1810*
X436Y1810*
X430Y1816*
X430Y1816*
X429Y1816*
X428Y1816*
X428Y1817*
X427Y1818*
X427Y1818*
X425Y1818*
X425Y1819*
X424Y1819*
X424Y1820*
X423Y1820*
X423Y1821*
X423Y1821*
X422Y1822*
X422Y1822*
X420Y1823*
X420Y1823*
X419Y1824*
X419Y1825*
X418Y1826*
X417Y1827*
X417Y1827*
X417Y1827*
X416Y1828*
X416Y1828*
X416Y1828*
X415Y1829*
X415Y1829*
X414Y1830*
X413Y1830*
X412Y1831*
X411Y1831*
X409Y1832*
X405Y1837*
X401Y1837*
X401Y1838*
X401Y1838*
X400Y1839*
X400Y1840*
X399Y1841*
X399Y1844*
X398Y1845*
X397Y1845*
X397Y1845*
X396Y1846*
X396Y1846*
X395Y1847*
X396Y1847*
X395Y1848*
X395Y1848*
X394Y1849*
X394Y1849*
X394Y1849*
X393Y1852*
X392Y1853*
X392Y1854*
X392Y1854*
X391Y1855*
X390Y1855*
X390Y1856*
X391Y1856*
X391Y1857*
X391Y1857*
X392Y1857*
X392Y1858*
X392Y1858*
X392Y1859*
X393Y1859*
X394Y1861*
X396Y1860*
G37*
G36*
X187Y1926D02*
X200Y1926D01*
X200Y1926*
X200Y1925*
X202Y1925*
X203Y1924*
X204Y1923*
X205Y1923*
X206Y1923*
X206Y1922*
X208Y1922*
X208Y1921*
X209Y1921*
X209Y1920*
X211Y1920*
X211Y1919*
X212Y1919*
X212Y1919*
X212Y1917*
X212Y1917*
X215Y1917*
X216Y1916*
X216Y1916*
X216Y1915*
X216Y1914*
X217Y1913*
X217Y1913*
X217Y1913*
X218Y1913*
X219Y1912*
X220Y1911*
X221Y1911*
X222Y1911*
X222Y1910*
X223Y1910*
X224Y1909*
X224Y1909*
X225Y1909*
X225Y1908*
X226Y1908*
X226Y1907*
X228Y1907*
X228Y1906*
X229Y1906*
X229Y1905*
X232Y1905*
X232Y1905*
X232Y1904*
X234Y1904*
X234Y1903*
X235Y1903*
X235Y1903*
X236Y1901*
X237Y1901*
X238Y1901*
X239Y1900*
X240Y1899*
X240Y1899*
X241Y1899*
X242Y1898*
X243Y1897*
X243Y1897*
X243Y1897*
X245Y1896*
X246Y1895*
X248Y1892*
X250Y1892*
X253Y1889*
X254Y1888*
X255Y1888*
X255Y1888*
X256Y1887*
X257Y1887*
X257Y1886*
X258Y1885*
X258Y1885*
X258Y1885*
X259Y1884*
X259Y1884*
X259Y1884*
X260Y1883*
X260Y1883*
X260Y1883*
X261Y1882*
X261Y1882*
X262Y1882*
X262Y1881*
X262Y1881*
X263Y1880*
X263Y1880*
X264Y1880*
X264Y1879*
X264Y1879*
X266Y1878*
X266Y1878*
X268Y1877*
X269Y1877*
X269Y1876*
X269Y1876*
X269Y1876*
X270Y1875*
X270Y1875*
X271Y1874*
X271Y1874*
X272Y1874*
X272Y1873*
X272Y1873*
X272Y1873*
X273Y1872*
X273Y1872*
X274Y1872*
X274Y1871*
X275Y1871*
X277Y1870*
X277Y1869*
X279Y1869*
X281Y1866*
X281Y1866*
X291Y1857*
X291Y1856*
X292Y1856*
X293Y1856*
X293Y1855*
X294Y1855*
X294Y1854*
X294Y1854*
X295Y1854*
X295Y1853*
X295Y1853*
X296Y1853*
X296Y1852*
X298Y1852*
X298Y1851*
X299Y1851*
X299Y1851*
X299Y1850*
X300Y1850*
X300Y1849*
X300Y1849*
X301Y1849*
X301Y1848*
X302Y1847*
X302Y1847*
X303Y1847*
X303Y1846*
X304Y1846*
X304Y1846*
X304Y1845*
X305Y1845*
X305Y1844*
X305Y1844*
X306Y1844*
X307Y1843*
X308Y1842*
X308Y1842*
X309Y1841*
X310Y1840*
X311Y1839*
X311Y1839*
X312Y1839*
X312Y1839*
X312Y1838*
X313Y1838*
X313Y1837*
X313Y1837*
X314Y1837*
X314Y1837*
X314Y1836*
X315Y1836*
X315Y1835*
X315Y1835*
X317Y1835*
X317Y1834*
X318Y1834*
X318Y1834*
X318Y1832*
X319Y1832*
X320Y1832*
X320Y1831*
X330Y1821*
X332Y1821*
X333Y1821*
X333Y1820*
X334Y1820*
X334Y1820*
X334Y1819*
X335Y1819*
X335Y1817*
X336Y1817*
X336Y1815*
X337Y1815*
X347Y1805*
X347Y1804*
X349Y1804*
X349Y1804*
X349Y1803*
X350Y1803*
X353Y1799*
X353Y1799*
X354Y1799*
X359Y1794*
X359Y1794*
X359Y1794*
X360Y1793*
X360Y1793*
X360Y1792*
X361Y1792*
X361Y1791*
X361Y1790*
X388Y1763*
X388Y1762*
X396Y1754*
X397Y1754*
X397Y1753*
X397Y1752*
X398Y1752*
X398Y1751*
X399Y1751*
X399Y1749*
X400Y1749*
X400Y1748*
X402Y1748*
X402Y1747*
X403Y1747*
X403Y1745*
X404Y1744*
X404Y1744*
X406Y1744*
X407Y1743*
X407Y1742*
X407Y1741*
X408Y1741*
X408Y1740*
X409Y1739*
X409Y1738*
X410Y1737*
X410Y1737*
X410Y1737*
X411Y1737*
X411Y1736*
X412Y1736*
X412Y1735*
X412Y1735*
X413Y1735*
X413Y1734*
X413Y1734*
X414Y1734*
X414Y1732*
X414Y1732*
X418Y1728*
X418Y1727*
X422Y1723*
X422Y1723*
X422Y1722*
X423Y1721*
X423Y1721*
X424Y1720*
X424Y1720*
X424Y1720*
X425Y1719*
X425Y1719*
X426Y1717*
X426Y1717*
X427Y1716*
X427Y1716*
X428Y1715*
X428Y1715*
X428Y1715*
X429Y1713*
X430Y1713*
X430Y1712*
X431Y1711*
X431Y1711*
X432Y1710*
X432Y1710*
X432Y1710*
X433Y1709*
X433Y1709*
X433Y1709*
X434Y1708*
X434Y1708*
X434Y1708*
X435Y1707*
X435Y1706*
X435Y1706*
X439Y1702*
X439Y1701*
X442Y1698*
X442Y1698*
X442Y1697*
X442Y1697*
X443Y1696*
X443Y1696*
X443Y1694*
X444Y1694*
X444Y1694*
X445Y1693*
X445Y1692*
X446Y1692*
X446Y1691*
X447Y1691*
X447Y1691*
X448Y1690*
X449Y1689*
X449Y1688*
X449Y1688*
X449Y1687*
X450Y1686*
X452Y1684*
X452Y1682*
X452Y1682*
X456Y1679*
X456Y1679*
X456Y1677*
X457Y1677*
X457Y1677*
X457Y1675*
X458Y1674*
X458Y1674*
X459Y1674*
X459Y1673*
X460Y1673*
X460Y1672*
X460Y1670*
X461Y1669*
X464Y1667*
X464Y1666*
X464Y1666*
X464Y1666*
X465Y1665*
X465Y1664*
X466Y1664*
X466Y1662*
X466Y1662*
X466Y1662*
X467Y1661*
X467Y1661*
X468Y1661*
X468Y1660*
X468Y1660*
X469Y1660*
X469Y1659*
X469Y1659*
X469Y1658*
X470Y1658*
X470Y1657*
X471Y1656*
X471Y1656*
X471Y1656*
X472Y1655*
X472Y1654*
X473Y1653*
X473Y1652*
X474Y1651*
X474Y1651*
X474Y1650*
X475Y1650*
X475Y1650*
X475Y1649*
X477Y1647*
X477Y1647*
X478Y1645*
X478Y1645*
X478Y1645*
X478Y1644*
X479Y1644*
X479Y1644*
X479Y1643*
X480Y1643*
X480Y1643*
X481Y1641*
X481Y1641*
X481Y1641*
X482Y1640*
X483Y1639*
X483Y1637*
X484Y1636*
X484Y1635*
X484Y1634*
X485Y1633*
X486Y1633*
X486Y1632*
X486Y1631*
X487Y1631*
X487Y1629*
X487Y1629*
X488Y1629*
X488Y1628*
X489Y1628*
X489Y1627*
X490Y1627*
X490Y1626*
X490Y1625*
X490Y1624*
X491Y1624*
X491Y1623*
X491Y1623*
X492Y1623*
X492Y1622*
X492Y1621*
X493Y1621*
X494Y1619*
X495Y1618*
X495Y1617*
X495Y1617*
X495Y1617*
X496Y1616*
X496Y1616*
X497Y1615*
X497Y1614*
X497Y1614*
X498Y1610*
X498Y1610*
X499Y1610*
X499Y1608*
X499Y1608*
X499Y1608*
X500Y1607*
X500Y1607*
X501Y1607*
X501Y1606*
X501Y1605*
X501Y1604*
X501Y1604*
X501Y1603*
X502Y1602*
X502Y1601*
X502Y1601*
X502Y1600*
X502Y1599*
X503Y1599*
X503Y1598*
X503Y1597*
X504Y1597*
X504Y1596*
X505Y1596*
X505Y1594*
X505Y1593*
X506Y1593*
X506Y1592*
X506Y1592*
X506Y1591*
X507Y1591*
X508Y1590*
X508Y1590*
X508Y1588*
X509Y1588*
X509Y1587*
X509Y1585*
X510Y1584*
X510Y1582*
X510Y1581*
X511Y1581*
X511Y1580*
X511Y1579*
X512Y1578*
X512Y1578*
X513Y1577*
X513Y1577*
X513Y1574*
X514Y1573*
X515Y1569*
X516Y1568*
X516Y1567*
X517Y1566*
X516Y1565*
X517Y1564*
X518Y1564*
X518Y1563*
X518Y1562*
X518Y1561*
X519Y1561*
X519Y1558*
X520Y1557*
X520Y1555*
X520Y1555*
X521Y1555*
X521Y1554*
X521Y1552*
X521Y1552*
X522Y1551*
X522Y1550*
X522Y1550*
X522Y1549*
X522Y1548*
X522Y1548*
X523Y1547*
X523Y1547*
X523Y1546*
X523Y1545*
X523Y1544*
X524Y1544*
X524Y1542*
X525Y1542*
X525Y1539*
X526Y1539*
X526Y1539*
X526Y1538*
X526Y1535*
X526Y1535*
X527Y1534*
X527Y1534*
X527Y1533*
X527Y1533*
X528Y1532*
X533Y1528*
X532Y1527*
X535Y1524*
X536Y1524*
X536Y1522*
X536Y1522*
X537Y1522*
X537Y1521*
X537Y1521*
X538Y1521*
X538Y1520*
X538Y1520*
X539Y1520*
X539Y1519*
X540Y1518*
X540Y1518*
X541Y1517*
X541Y1516*
X542Y1515*
X542Y1515*
X544Y1514*
X545Y1513*
X545Y1513*
X545Y1511*
X546Y1511*
X547Y1510*
X547Y1510*
X547Y1510*
X548Y1509*
X548Y1509*
X549Y1508*
X549Y1508*
X549Y1508*
X550Y1506*
X550Y1506*
X551Y1505*
X551Y1505*
X552Y1504*
X552Y1504*
X553Y1503*
X553Y1503*
X553Y1503*
X554Y1502*
X554Y1502*
X554Y1501*
X554Y1501*
X554Y1501*
X558Y1497*
X558Y1496*
X562Y1492*
X562Y1492*
X562Y1490*
X563Y1490*
X563Y1490*
X563Y1489*
X564Y1489*
X564Y1489*
X564Y1488*
X564Y1488*
X564Y1487*
X565Y1487*
X565Y1487*
X566Y1486*
X566Y1485*
X567Y1485*
X568Y1484*
X568Y1483*
X569Y1482*
X569Y1482*
X569Y1482*
X570Y1481*
X570Y1481*
X570Y1480*
X571Y1480*
X571Y1479*
X572Y1478*
X577Y1473*
X577Y1471*
X579Y1470*
X579Y1470*
X579Y1468*
X580Y1468*
X580Y1467*
X580Y1467*
X581Y1467*
X582Y1467*
X582Y1466*
X583Y1466*
X583Y1465*
X584Y1464*
X584Y1463*
X584Y1463*
X585Y1463*
X585Y1462*
X585Y1462*
X586Y1461*
X585Y1460*
X586Y1460*
X586Y1459*
X587Y1458*
X587Y1458*
X588Y1458*
X588Y1456*
X589Y1456*
X589Y1452*
X588Y1452*
X588Y1452*
X587Y1451*
X587Y1451*
X582Y1451*
X582Y1452*
X581Y1452*
X581Y1454*
X581Y1454*
X580Y1454*
X580Y1455*
X580Y1455*
X579Y1455*
X579Y1456*
X579Y1456*
X579Y1457*
X579Y1457*
X578Y1457*
X578Y1458*
X577Y1459*
X577Y1459*
X576Y1460*
X576Y1460*
X575Y1460*
X575Y1461*
X575Y1462*
X574Y1462*
X574Y1463*
X574Y1463*
X573Y1464*
X573Y1464*
X573Y1465*
X572Y1466*
X571Y1467*
X570Y1469*
X565Y1474*
X564Y1474*
X564Y1476*
X563Y1477*
X563Y1477*
X563Y1477*
X562Y1478*
X562Y1478*
X561Y1479*
X561Y1479*
X561Y1480*
X560Y1480*
X560Y1481*
X559Y1482*
X559Y1483*
X558Y1483*
X558Y1483*
X557Y1484*
X557Y1484*
X557Y1486*
X556Y1486*
X556Y1488*
X555Y1488*
X554Y1490*
X553Y1491*
X552Y1491*
X550Y1493*
X550Y1494*
X548Y1497*
X547Y1497*
X547Y1498*
X547Y1499*
X546Y1499*
X546Y1500*
X544Y1500*
X544Y1500*
X544Y1501*
X543Y1501*
X543Y1503*
X542Y1503*
X542Y1505*
X542Y1505*
X541Y1505*
X541Y1506*
X539Y1506*
X538Y1507*
X538Y1507*
X538Y1508*
X537Y1509*
X537Y1509*
X536Y1510*
X536Y1511*
X535Y1511*
X535Y1511*
X535Y1511*
X535Y1512*
X534Y1514*
X533Y1514*
X533Y1514*
X532Y1513*
X533Y1512*
X533Y1512*
X533Y1512*
X534Y1509*
X534Y1509*
X534Y1509*
X535Y1503*
X535Y1503*
X536Y1503*
X536Y1501*
X536Y1501*
X537Y1500*
X537Y1498*
X537Y1497*
X537Y1497*
X537Y1496*
X538Y1496*
X538Y1494*
X538Y1492*
X538Y1491*
X538Y1490*
X538Y1490*
X539Y1490*
X539Y1485*
X540Y1484*
X540Y1484*
X541Y1484*
X541Y1483*
X541Y1479*
X542Y1478*
X542Y1475*
X542Y1474*
X542Y1473*
X543Y1473*
X543Y1472*
X543Y1471*
X543Y1466*
X543Y1465*
X543Y1465*
X544Y1464*
X544Y1464*
X544Y1461*
X545Y1460*
X545Y1460*
X545Y1453*
X546Y1453*
X546Y1449*
X547Y1449*
X547Y1448*
X547Y1448*
X547Y1443*
X548Y1442*
X548Y1442*
X549Y1441*
X548Y1440*
X549Y1436*
X549Y1436*
X549Y1436*
X550Y1428*
X550Y1427*
X550Y1427*
X551Y1424*
X551Y1424*
X552Y1424*
X552Y1417*
X552Y1417*
X552Y1417*
X553Y1416*
X553Y1410*
X553Y1409*
X553Y1409*
X554Y1408*
X554Y1407*
X554Y1401*
X555Y1401*
X555Y1393*
X555Y1392*
X556Y1392*
X556Y1379*
X557Y1378*
X557Y1371*
X558Y1371*
X558Y1349*
X558Y1349*
X558Y1348*
X559Y1348*
X559Y1347*
X559Y1345*
X559Y1340*
X559Y1339*
X558Y1339*
X558Y1338*
X558Y1337*
X558Y1337*
X559Y1336*
X559Y1336*
X559Y1335*
X559Y1334*
X559Y1329*
X559Y1329*
X558Y1328*
X558Y1327*
X558Y1327*
X558Y1323*
X557Y1322*
X557Y1322*
X557Y1320*
X557Y1319*
X556Y1319*
X556Y1319*
X556Y1316*
X555Y1316*
X555Y1316*
X555Y1315*
X554Y1315*
X553Y1315*
X553Y1315*
X549Y1315*
X549Y1315*
X548Y1316*
X548Y1316*
X547Y1316*
X547Y1318*
X547Y1318*
X546Y1318*
X546Y1319*
X545Y1320*
X545Y1321*
X544Y1322*
X544Y1322*
X543Y1322*
X543Y1323*
X543Y1323*
X542Y1324*
X542Y1325*
X541Y1326*
X541Y1328*
X540Y1329*
X540Y1329*
X540Y1331*
X539Y1331*
X539Y1331*
X539Y1333*
X539Y1333*
X538Y1334*
X538Y1334*
X538Y1335*
X538Y1335*
X537Y1335*
X537Y1335*
X537Y1336*
X537Y1337*
X537Y1338*
X535Y1340*
X535Y1340*
X534Y1343*
X534Y1344*
X533Y1345*
X533Y1345*
X532Y1345*
X532Y1346*
X532Y1347*
X532Y1347*
X530Y1348*
X530Y1352*
X530Y1352*
X529Y1352*
X529Y1354*
X528Y1355*
X528Y1356*
X528Y1356*
X527Y1357*
X527Y1358*
X527Y1358*
X526Y1359*
X526Y1360*
X526Y1360*
X526Y1362*
X525Y1363*
X525Y1364*
X524Y1364*
X524Y1364*
X524Y1367*
X523Y1367*
X523Y1367*
X523Y1369*
X522Y1369*
X522Y1369*
X522Y1371*
X520Y1371*
X520Y1377*
X519Y1378*
X519Y1378*
X519Y1378*
X518Y1379*
X518Y1379*
X518Y1380*
X518Y1381*
X517Y1382*
X517Y1382*
X516Y1382*
X517Y1384*
X516Y1385*
X516Y1385*
X515Y1386*
X516Y1387*
X515Y1388*
X515Y1388*
X515Y1388*
X514Y1389*
X513Y1390*
X513Y1392*
X512Y1393*
X512Y1394*
X512Y1395*
X512Y1396*
X511Y1396*
X511Y1397*
X511Y1398*
X511Y1399*
X511Y1400*
X511Y1400*
X509Y1402*
X509Y1402*
X509Y1405*
X509Y1405*
X508Y1405*
X508Y1408*
X507Y1409*
X507Y1411*
X506Y1412*
X506Y1412*
X506Y1412*
X505Y1413*
X505Y1413*
X505Y1414*
X505Y1414*
X505Y1415*
X504Y1416*
X503Y1417*
X503Y1417*
X503Y1417*
X503Y1420*
X502Y1420*
X502Y1420*
X501Y1422*
X501Y1422*
X501Y1422*
X501Y1423*
X501Y1424*
X501Y1425*
X501Y1425*
X500Y1426*
X500Y1426*
X500Y1427*
X499Y1428*
X500Y1428*
X499Y1429*
X499Y1430*
X499Y1430*
X498Y1434*
X496Y1437*
X496Y1438*
X496Y1439*
X496Y1439*
X495Y1440*
X495Y1440*
X495Y1441*
X494Y1441*
X494Y1442*
X494Y1443*
X494Y1444*
X494Y1445*
X493Y1445*
X493Y1446*
X493Y1447*
X492Y1447*
X492Y1448*
X491Y1449*
X491Y1451*
X490Y1451*
X490Y1452*
X490Y1452*
X490Y1453*
X489Y1453*
X489Y1453*
X489Y1455*
X488Y1455*
X488Y1457*
X487Y1457*
X487Y1457*
X487Y1459*
X486Y1460*
X485Y1460*
X485Y1460*
X485Y1461*
X485Y1463*
X484Y1463*
X484Y1464*
X483Y1465*
X483Y1466*
X482Y1469*
X482Y1469*
X482Y1469*
X481Y1473*
X479Y1475*
X478Y1475*
X478Y1476*
X478Y1477*
X477Y1478*
X477Y1480*
X476Y1481*
X475Y1480*
X475Y1479*
X475Y1479*
X476Y1478*
X476Y1475*
X477Y1475*
X477Y1475*
X477Y1472*
X478Y1471*
X479Y1470*
X479Y1470*
X479Y1469*
X479Y1468*
X480Y1468*
X480Y1467*
X481Y1467*
X481Y1466*
X482Y1463*
X483Y1462*
X483Y1461*
X484Y1460*
X484Y1456*
X484Y1455*
X484Y1455*
X485Y1454*
X485Y1454*
X485Y1454*
X486Y1454*
X486Y1453*
X486Y1452*
X486Y1451*
X486Y1451*
X487Y1451*
X487Y1448*
X488Y1447*
X488Y1441*
X489Y1441*
X489Y1440*
X490Y1440*
X490Y1440*
X490Y1438*
X490Y1438*
X490Y1437*
X490Y1436*
X491Y1436*
X491Y1436*
X491Y1435*
X492Y1435*
X492Y1435*
X492Y1432*
X493Y1431*
X493Y1429*
X494Y1428*
X494Y1428*
X494Y1425*
X495Y1424*
X495Y1424*
X495Y1424*
X496Y1423*
X496Y1423*
X497Y1422*
X496Y1421*
X497Y1419*
X498Y1418*
X498Y1418*
X499Y1414*
X500Y1413*
X500Y1413*
X500Y1413*
X501Y1412*
X501Y1410*
X501Y1409*
X501Y1408*
X501Y1408*
X501Y1407*
X502Y1407*
X502Y1406*
X502Y1406*
X502Y1403*
X502Y1403*
X503Y1403*
X503Y1399*
X504Y1398*
X504Y1395*
X505Y1394*
X505Y1381*
X504Y1381*
X504Y1380*
X504Y1377*
X499Y1372*
X498Y1372*
X498Y1372*
X497Y1373*
X497Y1373*
X495Y1373*
X495Y1374*
X494Y1374*
X493Y1375*
X493Y1375*
X492Y1376*
X492Y1376*
X492Y1377*
X492Y1378*
X491Y1378*
X491Y1378*
X489Y1379*
X489Y1379*
X489Y1380*
X488Y1380*
X488Y1380*
X488Y1381*
X487Y1381*
X487Y1381*
X487Y1383*
X485Y1383*
X485Y1383*
X484Y1384*
X484Y1384*
X484Y1384*
X483Y1386*
X481Y1388*
X480Y1388*
X479Y1389*
X479Y1389*
X479Y1389*
X474Y1394*
X474Y1394*
X473Y1395*
X472Y1396*
X472Y1396*
X466Y1397*
X466Y1396*
X466Y1388*
X467Y1388*
X467Y1381*
X469Y1379*
X469Y1377*
X469Y1376*
X469Y1375*
X469Y1374*
X469Y1374*
X470Y1374*
X470Y1373*
X471Y1373*
X471Y1373*
X471Y1370*
X471Y1370*
X472Y1370*
X472Y1358*
X472Y1357*
X471Y1357*
X471Y1357*
X471Y1354*
X470Y1354*
X469Y1354*
X469Y1355*
X469Y1356*
X469Y1359*
X469Y1360*
X468Y1361*
X468Y1361*
X467Y1362*
X467Y1362*
X466Y1366*
X466Y1366*
X466Y1366*
X465Y1368*
X465Y1368*
X465Y1368*
X464Y1370*
X464Y1370*
X463Y1371*
X464Y1371*
X463Y1372*
X463Y1372*
X462Y1373*
X462Y1374*
X462Y1375*
X460Y1377*
X460Y1381*
X459Y1381*
X459Y1382*
X458Y1382*
X458Y1382*
X458Y1385*
X458Y1391*
X458Y1392*
X458Y1392*
X457Y1393*
X457Y1394*
X458Y1395*
X458Y1395*
X458Y1396*
X458Y1397*
X458Y1397*
X458Y1399*
X458Y1400*
X459Y1400*
X459Y1400*
X459Y1401*
X460Y1401*
X460Y1401*
X460Y1403*
X462Y1404*
X463Y1404*
X464Y1405*
X464Y1405*
X465Y1405*
X466Y1406*
X467Y1406*
X467Y1406*
X470Y1406*
X471Y1406*
X471Y1405*
X472Y1405*
X472Y1404*
X474Y1404*
X474Y1403*
X476Y1403*
X477Y1402*
X478Y1402*
X478Y1401*
X485Y1395*
X485Y1395*
X486Y1394*
X487Y1394*
X487Y1393*
X488Y1393*
X488Y1393*
X488Y1391*
X488Y1391*
X489Y1391*
X489Y1390*
X491Y1390*
X491Y1390*
X491Y1389*
X492Y1389*
X493Y1387*
X494Y1387*
X495Y1387*
X496Y1388*
X496Y1389*
X497Y1389*
X496Y1390*
X496Y1394*
X496Y1394*
X495Y1395*
X495Y1396*
X495Y1397*
X495Y1397*
X495Y1398*
X495Y1399*
X494Y1399*
X494Y1400*
X494Y1400*
X494Y1404*
X494Y1404*
X493Y1404*
X493Y1407*
X492Y1408*
X492Y1410*
X492Y1411*
X491Y1411*
X491Y1412*
X490Y1413*
X490Y1414*
X490Y1414*
X490Y1415*
X490Y1416*
X490Y1417*
X489Y1417*
X489Y1418*
X489Y1419*
X488Y1420*
X488Y1420*
X488Y1423*
X487Y1424*
X486Y1425*
X486Y1427*
X485Y1427*
X485Y1428*
X485Y1428*
X485Y1429*
X484Y1430*
X484Y1430*
X483Y1431*
X484Y1431*
X483Y1433*
X483Y1433*
X482Y1436*
X482Y1436*
X482Y1436*
X481Y1441*
X481Y1441*
X480Y1442*
X480Y1444*
X480Y1444*
X480Y1445*
X479Y1446*
X479Y1446*
X479Y1447*
X478Y1448*
X478Y1450*
X477Y1450*
X477Y1454*
X476Y1454*
X476Y1455*
X475Y1456*
X475Y1457*
X475Y1458*
X474Y1458*
X474Y1459*
X474Y1461*
X474Y1461*
X473Y1462*
X473Y1462*
X473Y1465*
X472Y1466*
X472Y1466*
X472Y1467*
X471Y1468*
X471Y1468*
X471Y1471*
X470Y1471*
X470Y1473*
X469Y1473*
X469Y1474*
X469Y1475*
X469Y1476*
X469Y1476*
X469Y1477*
X468Y1477*
X468Y1478*
X467Y1478*
X467Y1479*
X466Y1482*
X464Y1484*
X465Y1487*
X464Y1488*
X464Y1488*
X463Y1488*
X463Y1489*
X462Y1489*
X462Y1490*
X462Y1491*
X462Y1492*
X461Y1492*
X461Y1495*
X461Y1495*
X460Y1496*
X460Y1497*
X459Y1498*
X459Y1499*
X458Y1499*
X458Y1499*
X458Y1501*
X458Y1501*
X458Y1502*
X458Y1502*
X457Y1503*
X457Y1503*
X457Y1504*
X457Y1504*
X456Y1504*
X456Y1509*
X454Y1511*
X454Y1513*
X454Y1513*
X453Y1514*
X453Y1515*
X453Y1515*
X453Y1516*
X453Y1517*
X453Y1517*
X452Y1518*
X452Y1519*
X452Y1520*
X451Y1521*
X451Y1521*
X451Y1525*
X450Y1525*
X450Y1526*
X449Y1531*
X446Y1535*
X445Y1535*
X445Y1536*
X441Y1541*
X440Y1541*
X440Y1543*
X440Y1543*
X439Y1543*
X439Y1544*
X438Y1544*
X438Y1545*
X437Y1545*
X437Y1546*
X437Y1546*
X436Y1546*
X436Y1547*
X436Y1548*
X435Y1549*
X435Y1549*
X434Y1549*
X434Y1550*
X434Y1550*
X433Y1550*
X433Y1551*
X432Y1552*
X432Y1552*
X432Y1552*
X432Y1553*
X432Y1554*
X431Y1554*
X430Y1554*
X430Y1555*
X430Y1555*
X429Y1555*
X429Y1556*
X429Y1556*
X428Y1556*
X428Y1557*
X427Y1557*
X427Y1559*
X427Y1559*
X425Y1561*
X425Y1561*
X423Y1561*
X423Y1562*
X423Y1562*
X422Y1563*
X422Y1565*
X418Y1569*
X418Y1569*
X418Y1571*
X417Y1571*
X417Y1571*
X417Y1571*
X416Y1572*
X416Y1572*
X416Y1573*
X416Y1573*
X416Y1574*
X415Y1574*
X415Y1574*
X414Y1575*
X414Y1575*
X413Y1576*
X413Y1576*
X412Y1577*
X412Y1577*
X411Y1578*
X411Y1579*
X410Y1580*
X410Y1580*
X410Y1580*
X409Y1581*
X409Y1582*
X408Y1583*
X403Y1588*
X403Y1590*
X401Y1591*
X401Y1591*
X401Y1592*
X401Y1592*
X400Y1593*
X400Y1593*
X400Y1594*
X399Y1594*
X399Y1594*
X398Y1595*
X398Y1595*
X398Y1596*
X397Y1596*
X397Y1596*
X397Y1597*
X396Y1597*
X396Y1598*
X395Y1598*
X395Y1598*
X395Y1599*
X394Y1600*
X394Y1600*
X394Y1601*
X393Y1601*
X392Y1602*
X392Y1603*
X391Y1604*
X391Y1605*
X390Y1605*
X390Y1606*
X390Y1606*
X389Y1606*
X389Y1607*
X388Y1607*
X388Y1607*
X388Y1609*
X387Y1609*
X386Y1611*
X386Y1612*
X384Y1613*
X384Y1613*
X384Y1615*
X383Y1615*
X383Y1616*
X382Y1616*
X382Y1617*
X382Y1617*
X381Y1618*
X381Y1618*
X381Y1618*
X380Y1619*
X380Y1619*
X380Y1619*
X379Y1620*
X379Y1620*
X378Y1620*
X378Y1621*
X378Y1621*
X377Y1623*
X377Y1623*
X377Y1623*
X376Y1624*
X376Y1624*
X375Y1624*
X375Y1625*
X374Y1625*
X374Y1626*
X374Y1626*
X373Y1626*
X373Y1627*
X372Y1627*
X372Y1629*
X371Y1630*
X371Y1631*
X369Y1631*
X369Y1632*
X369Y1633*
X369Y1633*
X368Y1633*
X368Y1634*
X368Y1634*
X367Y1635*
X367Y1635*
X367Y1636*
X365Y1638*
X364Y1640*
X364Y1640*
X364Y1640*
X364Y1640*
X363Y1641*
X363Y1641*
X362Y1643*
X362Y1643*
X362Y1643*
X361Y1644*
X360Y1644*
X359Y1645*
X359Y1645*
X359Y1645*
X358Y1646*
X359Y1646*
X358Y1647*
X358Y1647*
X357Y1649*
X356Y1650*
X356Y1651*
X355Y1652*
X353Y1654*
X353Y1655*
X353Y1656*
X352Y1656*
X348Y1661*
X348Y1663*
X347Y1663*
X347Y1663*
X346Y1664*
X346Y1665*
X345Y1665*
X345Y1665*
X345Y1666*
X344Y1666*
X344Y1666*
X343Y1667*
X343Y1668*
X342Y1669*
X342Y1669*
X341Y1670*
X341Y1670*
X341Y1671*
X340Y1671*
X340Y1671*
X339Y1672*
X339Y1673*
X339Y1673*
X338Y1673*
X338Y1674*
X337Y1674*
X337Y1675*
X337Y1676*
X337Y1676*
X333Y1681*
X333Y1682*
X332Y1682*
X332Y1682*
X332Y1683*
X328Y1687*
X328Y1687*
X328Y1688*
X328Y1689*
X327Y1690*
X327Y1690*
X326Y1690*
X326Y1691*
X326Y1691*
X325Y1692*
X325Y1692*
X324Y1693*
X324Y1693*
X323Y1693*
X323Y1695*
X321Y1695*
X321Y1695*
X321Y1696*
X320Y1696*
X320Y1698*
X319Y1698*
X319Y1699*
X319Y1699*
X318Y1699*
X318Y1700*
X318Y1701*
X317Y1701*
X314Y1705*
X314Y1705*
X314Y1706*
X310Y1710*
X310Y1710*
X309Y1712*
X309Y1712*
X309Y1712*
X308Y1713*
X308Y1713*
X307Y1714*
X307Y1714*
X306Y1715*
X306Y1715*
X306Y1715*
X305Y1716*
X305Y1717*
X305Y1718*
X304Y1719*
X304Y1719*
X304Y1719*
X304Y1719*
X303Y1720*
X303Y1720*
X302Y1721*
X302Y1721*
X302Y1721*
X301Y1722*
X301Y1723*
X300Y1724*
X300Y1724*
X300Y1725*
X298Y1725*
X298Y1725*
X298Y1726*
X297Y1726*
X296Y1727*
X296Y1727*
X296Y1727*
X296Y1729*
X295Y1729*
X294Y1730*
X294Y1730*
X293Y1732*
X291Y1734*
X291Y1734*
X290Y1736*
X290Y1737*
X289Y1737*
X289Y1737*
X287Y1738*
X287Y1740*
X286Y1741*
X286Y1741*
X285Y1742*
X285Y1743*
X284Y1743*
X284Y1744*
X283Y1744*
X283Y1746*
X282Y1746*
X282Y1747*
X281Y1747*
X281Y1748*
X280Y1748*
X280Y1749*
X280Y1749*
X279Y1749*
X279Y1749*
X279Y1750*
X279Y1751*
X279Y1751*
X278Y1751*
X276Y1754*
X275Y1755*
X272Y1759*
X271Y1759*
X271Y1761*
X271Y1761*
X270Y1761*
X270Y1761*
X270Y1762*
X269Y1762*
X269Y1763*
X269Y1763*
X268Y1763*
X268Y1764*
X268Y1764*
X267Y1764*
X267Y1766*
X267Y1766*
X266Y1766*
X266Y1767*
X265Y1767*
X265Y1768*
X265Y1768*
X264Y1769*
X264Y1769*
X263Y1770*
X263Y1770*
X262Y1770*
X262Y1771*
X262Y1772*
X261Y1773*
X261Y1774*
X260Y1775*
X257Y1778*
X256Y1781*
X256Y1781*
X256Y1781*
X255Y1782*
X254Y1782*
X254Y1784*
X253Y1785*
X253Y1785*
X252Y1786*
X252Y1786*
X252Y1786*
X251Y1787*
X251Y1788*
X250Y1789*
X250Y1790*
X250Y1790*
X245Y1795*
X245Y1797*
X243Y1798*
X243Y1798*
X243Y1799*
X243Y1799*
X242Y1800*
X242Y1800*
X242Y1801*
X241Y1801*
X241Y1801*
X240Y1803*
X240Y1803*
X240Y1804*
X239Y1804*
X239Y1804*
X238Y1805*
X238Y1805*
X237Y1806*
X237Y1806*
X237Y1807*
X236Y1808*
X235Y1809*
X235Y1809*
X234Y1810*
X234Y1811*
X233Y1811*
X233Y1813*
X233Y1813*
X232Y1813*
X232Y1814*
X229Y1817*
X229Y1817*
X229Y1819*
X228Y1819*
X228Y1819*
X228Y1820*
X227Y1820*
X227Y1820*
X227Y1821*
X227Y1822*
X226Y1822*
X226Y1823*
X225Y1823*
X225Y1824*
X224Y1825*
X224Y1826*
X223Y1827*
X223Y1828*
X220Y1830*
X220Y1831*
X220Y1831*
X219Y1831*
X219Y1834*
X219Y1834*
X219Y1834*
X218Y1835*
X218Y1835*
X217Y1835*
X217Y1836*
X217Y1836*
X216Y1836*
X216Y1837*
X216Y1837*
X216Y1838*
X215Y1838*
X215Y1839*
X214Y1840*
X214Y1841*
X213Y1842*
X213Y1842*
X212Y1843*
X212Y1844*
X211Y1845*
X211Y1845*
X211Y1846*
X210Y1846*
X210Y1846*
X210Y1847*
X206Y1851*
X206Y1851*
X205Y1852*
X206Y1853*
X205Y1853*
X205Y1853*
X204Y1854*
X202Y1856*
X201Y1857*
X201Y1858*
X200Y1859*
X200Y1859*
X200Y1860*
X200Y1861*
X199Y1861*
X199Y1862*
X198Y1864*
X197Y1864*
X197Y1866*
X197Y1866*
X195Y1867*
X195Y1867*
X195Y1868*
X195Y1868*
X195Y1869*
X194Y1869*
X194Y1871*
X193Y1871*
X193Y1871*
X193Y1873*
X192Y1874*
X191Y1874*
X191Y1875*
X191Y1875*
X191Y1876*
X190Y1877*
X190Y1877*
X190Y1878*
X189Y1879*
X189Y1879*
X187Y1881*
X186Y1881*
X186Y1883*
X186Y1883*
X185Y1883*
X185Y1885*
X184Y1885*
X184Y1886*
X184Y1886*
X184Y1887*
X183Y1887*
X183Y1888*
X182Y1888*
X182Y1891*
X181Y1892*
X181Y1892*
X181Y1893*
X181Y1894*
X180Y1894*
X180Y1894*
X179Y1895*
X179Y1895*
X179Y1895*
X179Y1896*
X179Y1897*
X178Y1897*
X178Y1898*
X178Y1899*
X178Y1900*
X177Y1900*
X177Y1902*
X176Y1902*
X176Y1903*
X176Y1909*
X175Y1909*
X175Y1910*
X175Y1910*
X175Y1916*
X176Y1916*
X176Y1919*
X176Y1919*
X177Y1919*
X177Y1920*
X177Y1920*
X178Y1920*
X178Y1921*
X178Y1921*
X180Y1921*
X180Y1922*
X182Y1923*
X184Y1923*
X184Y1924*
X185Y1924*
X185Y1925*
X186Y1926*
X187Y1927*
X187Y1926*
G37*
G36*
X579Y1196D02*
Y1193D01*
Y1178*
X534*
Y1224*
X579*
Y1196*
G37*
G36*
X521Y1178D02*
X476D01*
Y1217*
Y1221*
Y1224*
X521*
Y1178*
G37*
G36*
X463D02*
X418D01*
Y1224*
X463*
Y1178*
G37*
G36*
X405D02*
X360D01*
Y1224*
X405*
Y1178*
G37*
G36*
X347D02*
X302D01*
Y1181*
Y1224*
X347*
Y1178*
G37*
G36*
X289D02*
X244D01*
Y1224*
X289*
Y1178*
G37*
G36*
X579Y1120D02*
X534D01*
Y1166*
X579*
Y1120*
G37*
G36*
X521D02*
X476D01*
Y1166*
X521*
Y1120*
G37*
G36*
X463D02*
X418D01*
Y1166*
X463*
Y1120*
G37*
G36*
X405Y1144D02*
Y1141D01*
Y1120*
X360*
Y1166*
X405*
Y1144*
G37*
G36*
X347Y1120D02*
X302D01*
Y1129*
Y1132*
Y1166*
X347*
Y1120*
G37*
G36*
X289D02*
X244D01*
Y1166*
X289*
Y1120*
G37*
G36*
X579Y1062D02*
X534D01*
Y1108*
X579*
Y1062*
G37*
G36*
X521D02*
X476D01*
Y1108*
X521*
Y1062*
G37*
G36*
X463D02*
X418D01*
Y1108*
X463*
Y1062*
G37*
G36*
X405D02*
X360D01*
Y1108*
X405*
Y1062*
G37*
G36*
X347D02*
X302D01*
Y1108*
X347*
Y1062*
G37*
G36*
X289D02*
X244D01*
Y1108*
X289*
Y1062*
G37*
G36*
X2279Y1038D02*
X2246D01*
Y1087*
X2279*
Y1038*
G37*
G36*
X579Y1004D02*
X534D01*
Y1050*
X579*
Y1004*
G37*
G36*
X521D02*
X476D01*
Y1050*
X521*
Y1004*
G37*
G36*
X463D02*
X418D01*
Y1050*
X463*
Y1004*
G37*
G36*
X405D02*
X360D01*
Y1007*
Y1010*
Y1050*
X405*
Y1004*
G37*
G36*
X347D02*
X302D01*
Y1050*
X347*
Y1004*
G37*
G36*
X289Y1022D02*
Y1019D01*
Y1004*
X244*
Y1050*
X289*
Y1022*
G37*
G36*
X579Y946D02*
X534D01*
Y992*
X579*
Y946*
G37*
G36*
X521D02*
X476D01*
Y992*
X521*
Y946*
G37*
G36*
X463D02*
X418D01*
Y982*
Y986*
Y992*
X463*
Y946*
G37*
G36*
X405D02*
X360D01*
Y992*
X405*
Y946*
G37*
G36*
X347D02*
X302D01*
Y958*
Y961*
Y992*
X347*
Y946*
G37*
G36*
X289D02*
X244D01*
Y992*
X289*
Y946*
G37*
G36*
X579Y888D02*
X534D01*
Y934*
X579*
Y888*
G37*
G36*
X521D02*
X476D01*
Y934*
X521*
Y888*
G37*
G36*
X463Y915D02*
Y912D01*
Y888*
X418*
Y934*
X463*
Y915*
G37*
G36*
X405Y888D02*
X360D01*
Y934*
X405*
Y888*
G37*
G36*
X347D02*
X302D01*
Y931*
Y934*
X347*
Y888*
G37*
G36*
X289D02*
X244D01*
Y934*
X289*
Y888*
G37*
G36*
X579Y830D02*
X534D01*
Y876*
X579*
Y830*
G37*
G36*
X521D02*
X476D01*
Y876*
X521*
Y830*
G37*
G36*
X463D02*
X418D01*
Y876*
X463*
Y830*
G37*
G36*
X405Y839D02*
Y836D01*
Y830*
X360*
Y876*
X405*
Y839*
G37*
G36*
X347Y830D02*
X302D01*
Y876*
X347*
Y830*
G37*
G36*
X289D02*
X244D01*
Y876*
X289*
Y830*
G37*
%LNbase_pcb1_soldermask_top-2*%
%LPC*%
G36*
X403Y2706D02*
X387Y2705D01*
X385Y2705*
X378Y2704*
X366Y2702*
X365Y2701*
X365Y2699*
X366Y2695*
X366Y2693*
X369Y2681*
X369Y2678*
X372Y2666*
X374Y2658*
X375Y2653*
X376Y2651*
X378Y2650*
X380Y2651*
X382Y2651*
X385Y2652*
X386Y2653*
X385Y2666*
X385Y2668*
X384Y2679*
X383Y2685*
X383Y2690*
X382Y2693*
X383Y2694*
X385Y2695*
X386Y2694*
X387Y2692*
X388Y2683*
X388Y2678*
X389Y2671*
X389Y2664*
X390Y2659*
X391Y2654*
X392Y2653*
X402Y2654*
X403Y2655*
X403Y2692*
X404Y2700*
X403Y2705*
X403Y2706*
G37*
G36*
X411Y2706D02*
X408Y2705D01*
X408Y2689*
X408Y2655*
X409Y2654*
X411Y2654*
X418Y2655*
X418Y2656*
X419Y2658*
X419Y2668*
X421Y2681*
X422Y2688*
X422Y2694*
X423Y2696*
X425Y2696*
X427Y2695*
X426Y2685*
X425Y2683*
X424Y2668*
X423Y2658*
X423Y2655*
X425Y2654*
X431Y2653*
X434Y2653*
X436Y2655*
Y2656*
X437Y2657*
X440Y2672*
X443Y2686*
X443Y2689*
X445Y2697*
X446Y2700*
X446Y2702*
X445Y2703*
X443Y2704*
X435Y2705*
X428Y2705*
X411Y2706*
X411Y2706*
G37*
G36*
X452Y2702D02*
X450Y2701D01*
X450Y2699*
X449Y2692*
X447Y2686*
X446Y2682*
X446Y2679*
X444Y2673*
X442Y2662*
X441Y2657*
X441Y2652*
X443Y2651*
X446Y2651*
X450Y2650*
X451Y2652*
X452Y2656*
X453Y2658*
X454Y2662*
X457Y2671*
X459Y2677*
X460Y2681*
X462Y2686*
X463Y2688*
X464Y2690*
X466Y2689*
X467Y2688*
X466Y2685*
X465Y2682*
X464Y2679*
X463Y2675*
X462Y2672*
X457Y2655*
X455Y2651*
X456Y2649*
X459Y2648*
X462Y2647*
X464Y2646*
X466Y2648*
X487Y2690*
X487Y2690*
X487Y2693*
X486Y2694*
X483Y2694*
X480Y2696*
X477Y2697*
X474Y2698*
X471Y2698*
X468Y2699*
X466Y2700*
X457Y2701*
X454Y2702*
X452Y2702*
G37*
G36*
X357Y2700D02*
X354Y2699D01*
X350Y2698*
X346Y2697*
X343Y2696*
X340Y2695*
X335Y2693*
X329Y2691*
X326Y2689*
X324Y2689*
X324Y2688*
X324Y2686*
X329Y2675*
X335Y2662*
X335Y2661*
X340Y2652*
X345Y2642*
X348Y2642*
X350Y2643*
X353Y2645*
X354Y2648*
X352Y2652*
X351Y2656*
X350Y2661*
X348Y2665*
X346Y2672*
X346Y2674*
X343Y2682*
X344Y2685*
X346Y2685*
X347Y2684*
X348Y2679*
X351Y2672*
X351Y2670*
X354Y2662*
X354Y2660*
X356Y2653*
X357Y2651*
X358Y2647*
X361Y2646*
X363Y2647*
X365Y2647*
X367Y2648*
X370Y2649*
X371Y2650*
X370Y2655*
X369Y2657*
X369Y2661*
X368Y2663*
X366Y2672*
X366Y2674*
X365Y2677*
X365Y2678*
Y2678*
X363Y2685*
X363Y2687*
X361Y2698*
X360Y2700*
X357Y2700*
G37*
G36*
X317Y2686D02*
X314Y2684D01*
X299Y2676*
X291Y2672*
X290Y2671*
X288Y2670*
X288Y2668*
X290Y2665*
X291Y2664*
X291Y2663*
X297Y2656*
X298Y2654*
X303Y2647*
X306Y2643*
X307Y2642*
X308Y2641*
X309Y2639*
X310Y2638*
X315Y2631*
X317Y2629*
X319Y2629*
X326Y2633*
X327Y2634*
X326Y2636*
X324Y2640*
X324Y2641*
X321Y2644*
X320Y2647*
X317Y2651*
X313Y2657*
X312Y2660*
X309Y2664*
X307Y2668*
X308Y2670*
X309Y2671*
X310Y2670*
X311Y2670*
X312Y2669*
X314Y2665*
Y2665*
X315Y2664*
X320Y2656*
X324Y2649*
X324Y2648*
X326Y2645*
X328Y2642*
X330Y2638*
X332Y2636*
X335Y2637*
X339Y2639*
X340Y2640*
X339Y2643*
X333Y2657*
X330Y2664*
X326Y2671*
X321Y2682*
X319Y2685*
X317Y2686*
G37*
G36*
X494Y2691D02*
X493Y2690D01*
X491Y2689*
X470Y2647*
X471Y2644*
X474Y2643*
X478Y2642*
X480Y2642*
X481Y2644*
X483Y2648*
X487Y2654*
X489Y2657*
X491Y2661*
X492Y2662*
X496Y2669*
X497Y2670*
X500Y2674*
X502Y2677*
X504Y2677*
X505Y2675*
X502Y2670*
X500Y2666*
X499Y2665*
X497Y2661*
X496Y2660*
X493Y2655*
X489Y2649*
X488Y2648*
X484Y2641*
X485Y2639*
X486Y2638*
X489Y2636*
X493Y2634*
X496Y2636*
X496Y2638*
X498Y2639*
X498Y2640*
X502Y2645*
X508Y2653*
X509Y2653*
X509Y2655*
X512Y2658*
X512Y2658*
X513Y2659*
X514Y2661*
X515Y2662*
X516Y2663*
X517Y2664*
X519Y2667*
X521Y2669*
X523Y2672*
X525Y2675*
X524Y2677*
X523Y2678*
X519Y2679*
X516Y2681*
X505Y2686*
X503Y2687*
X498Y2689*
X494Y2691*
G37*
G36*
X413Y2633D02*
X412Y2631D01*
X414Y2629*
X415Y2629*
X418Y2626*
X420Y2626*
X423Y2627*
X423Y2628*
X424Y2628*
X428Y2630*
X428Y2632*
X426Y2633*
X413Y2633*
G37*
G36*
X281Y2666D02*
X279Y2663D01*
X277Y2663*
X274Y2660*
X271Y2658*
X270Y2657*
X267Y2655*
X265Y2654*
X264Y2653*
X262Y2651*
X261Y2650*
X259Y2648*
X258Y2647*
X256Y2646*
X255Y2645*
X254Y2644*
X254Y2642*
X256Y2641*
X257Y2640*
X260Y2637*
X261Y2637*
X263Y2634*
X264Y2634*
X267Y2632*
X268Y2631*
X269Y2629*
X271Y2629*
X273Y2626*
X274Y2626*
X276Y2624*
X277Y2623*
X280Y2620*
X281Y2620*
X283Y2618*
X284Y2617*
X286Y2615*
X288Y2615*
X290Y2612*
X294Y2613*
X296Y2615*
X299Y2617*
X299Y2619*
X276Y2641*
X276Y2642*
X273Y2645*
X272Y2646*
X271Y2647*
X270Y2647*
X269Y2649*
X271Y2651*
X273Y2651*
X274Y2650*
X275Y2649*
X276Y2648*
X277Y2647*
X279Y2645*
X280Y2645*
X281Y2642*
X282Y2642*
X284Y2639*
X285Y2639*
X286Y2638*
X287Y2637*
X288Y2636*
X288Y2635*
X303Y2621*
X306Y2621*
X310Y2624*
X312Y2625*
X312Y2626*
X310Y2631*
X309Y2632*
X308Y2633*
X306Y2636*
X304Y2638*
X297Y2647*
X292Y2654*
X291Y2656*
X284Y2665*
X281Y2666*
G37*
G36*
X531Y2673D02*
X529Y2673D01*
X527Y2671*
X527Y2670*
X526Y2669*
X525Y2668*
X523Y2665*
X521Y2663*
X517Y2658*
X512Y2651*
X510Y2649*
X509Y2648*
X509Y2647*
X506Y2643*
X505Y2641*
X501Y2636*
X500Y2635*
X499Y2634*
X498Y2632*
X500Y2630*
X502Y2630*
X506Y2628*
X508Y2630*
X515Y2636*
X515Y2637*
X516Y2638*
X518Y2640*
X530Y2652*
X531Y2653*
X535Y2657*
X535Y2658*
X538Y2659*
X539Y2658*
X538Y2655*
X530Y2646*
X529Y2645*
X519Y2635*
X518Y2634*
X511Y2626*
X512Y2624*
X513Y2623*
X514Y2622*
X519Y2619*
X522Y2619*
X523Y2621*
X524Y2621*
X527Y2624*
X528Y2625*
X532Y2628*
X533Y2629*
X536Y2632*
X537Y2632*
X539Y2634*
X540Y2635*
X543Y2638*
X545Y2639*
X548Y2642*
X549Y2643*
X552Y2646*
X553Y2646*
X556Y2649*
X557Y2650*
X558Y2651*
X559Y2651*
X560Y2653*
X559Y2655*
X558Y2655*
X557Y2656*
X555Y2657*
X554Y2659*
X553Y2659*
X545Y2665*
X543Y2666*
X540Y2668*
X539Y2668*
X536Y2671*
X534Y2671*
X531Y2673*
G37*
G36*
X389Y2632D02*
X387Y2632D01*
X383Y2631*
X374Y2629*
X370Y2629*
X367Y2628*
X363Y2626*
X361Y2626*
X361Y2626*
X353Y2623*
X349Y2621*
X343Y2619*
X342Y2618*
X336Y2615*
X329Y2611*
X327Y2609*
X321Y2605*
X319Y2604*
X318Y2603*
X319Y2600*
X321Y2598*
X321Y2597*
X324Y2595*
X324Y2594*
X326Y2592*
X326Y2591*
X329Y2589*
X329Y2588*
X335Y2582*
X335Y2581*
X337Y2579*
X339Y2578*
X340Y2579*
X344Y2588*
X342Y2591*
X341Y2592*
X339Y2595*
X337Y2599*
X336Y2604*
X336Y2609*
X337Y2610*
X339Y2611*
X346Y2610*
X366Y2611*
X370Y2613*
X371Y2614*
X370Y2623*
X371Y2626*
X373Y2626*
X375Y2624*
X376Y2624*
X379Y2621*
X386Y2620*
X392Y2619*
X396Y2619*
X400Y2619*
X400Y2621*
X398Y2623*
X396Y2626*
X392Y2631*
X389Y2632*
G37*
G36*
X402Y2633D02*
X401D01*
X399Y2632*
X398Y2630*
X402Y2624*
X403Y2623*
X406Y2618*
X407Y2617*
X411Y2616*
X414Y2615*
X416Y2614*
X419Y2613*
X422Y2613*
X422Y2614*
X420Y2617*
X419Y2618*
X418Y2619*
X410Y2627*
X409Y2628*
X407Y2630*
X406Y2630*
X404Y2632*
X402Y2633*
G37*
G36*
X439Y2631D02*
X436Y2630D01*
X435Y2629*
X432Y2628*
X426Y2624*
X425Y2623*
X423Y2622*
X424Y2619*
X426Y2617*
X428Y2617*
X434Y2621*
X435*
X439Y2622*
X441Y2620*
X442Y2619*
X446Y2611*
X447Y2611*
X450Y2611*
X453Y2614*
X453Y2617*
X451Y2619*
X451Y2621*
X448Y2627*
X445Y2630*
X440Y2630*
X439Y2631*
G37*
G36*
X438Y2616D02*
X434Y2616D01*
X433Y2615*
X428Y2612*
X429Y2610*
X432Y2606*
X433Y2605*
X435Y2604*
X437Y2605*
X437Y2605*
X438Y2606*
X441Y2608*
X441Y2611*
X440Y2613*
X438Y2616*
G37*
G36*
X564Y2650D02*
X561Y2647D01*
X560Y2646*
X559Y2646*
X556Y2643*
X555Y2642*
X551Y2638*
X550Y2638*
X547Y2636*
X546Y2635*
X544Y2633*
X543Y2632*
X540Y2629*
X539Y2629*
X534Y2624*
X533Y2624*
X531Y2621*
X530Y2621*
X530Y2621*
X527Y2617*
X525Y2617*
X525Y2614*
X527Y2612*
X528Y2612*
X530Y2609*
X532Y2609*
X533Y2609*
X539Y2613*
X540Y2614*
X541Y2615*
X542Y2616*
X543Y2616*
X562Y2630*
X567Y2634*
X569Y2634*
X571Y2634*
X571Y2632*
X570Y2630*
X567Y2628*
X566Y2627*
X564Y2626*
X551Y2617*
X543Y2611*
X536Y2606*
X537Y2603*
X542Y2598*
X544Y2598*
X545Y2598*
X553Y2603*
X559Y2606*
X564Y2609*
X568Y2611*
X571Y2613*
X572Y2613*
X575Y2616*
X583Y2620*
X589Y2624*
X590Y2624*
X590Y2626*
X576Y2641*
X575Y2641*
X571Y2645*
X570Y2646*
X566Y2649*
X564Y2650*
G37*
G36*
X356Y2606D02*
X341Y2605D01*
X341Y2602*
X344Y2594*
X346Y2593*
X348Y2594*
X348*
X350Y2597*
X351Y2598*
X352Y2599*
X356Y2604*
X356Y2606*
G37*
G36*
X466Y2611D02*
X459Y2610D01*
X456Y2609*
X448Y2606*
X443Y2604*
X443Y2604*
X443Y2603*
X440Y2602*
X439Y2601*
X442Y2598*
X446Y2593*
X446Y2592*
X448Y2591*
X451Y2591*
X452Y2593*
X453Y2594*
X455Y2597*
X456Y2598*
X463Y2604*
X464Y2605*
X465Y2607*
X468Y2608*
X468Y2610*
X466Y2611*
G37*
G36*
X455Y2627D02*
X453Y2626D01*
X453Y2625*
X457Y2618*
X458Y2615*
X464Y2615*
X465Y2615*
X471Y2615*
X473Y2614*
X476Y2613*
X479Y2613*
X481Y2611*
X480Y2609*
X478Y2608*
X475Y2607*
X469Y2604*
X464Y2600*
X457Y2593*
X457Y2592*
X455Y2590*
X454Y2589*
X453Y2588*
X454Y2584*
X455Y2583*
X455Y2581*
X456Y2581*
X459Y2581*
X460Y2582*
X461Y2583*
X469Y2591*
X470Y2592*
X471Y2593*
X472Y2594*
X476Y2596*
X478Y2597*
X480Y2598*
X481Y2599*
X481Y2599*
X486Y2601*
X489Y2602*
X491Y2602*
X495Y2603*
X498Y2604*
X500Y2604*
X501Y2606*
X499Y2608*
X492Y2612*
X486Y2615*
X477Y2619*
X473Y2621*
X470Y2622*
X466Y2624*
X464Y2624*
X455Y2627*
G37*
G36*
X516Y2595D02*
X513Y2595D01*
X510Y2592*
X508Y2589*
X507Y2588*
X506Y2587*
X504Y2584*
X503Y2583*
X503Y2581*
X506Y2580*
X508Y2581*
X511*
X520Y2580*
X521Y2581*
X523Y2588*
X521Y2591*
X518Y2594*
X516Y2595*
G37*
G36*
X243Y2607D02*
X236Y2606D01*
X234Y2605*
X228Y2602*
X225Y2600*
X221Y2598*
X218Y2595*
X210Y2587*
X209Y2586*
X208Y2585*
X207Y2584*
X206Y2583*
X206Y2581*
X205Y2580*
X204Y2579*
X201Y2575*
X197Y2568*
X194Y2562*
X193Y2560*
X194Y2557*
X197Y2551*
X197Y2550*
X203Y2540*
X204Y2538*
X205Y2537*
X206Y2536*
X208Y2533*
X210Y2531*
X210Y2530*
X217Y2523*
X218Y2523*
X221Y2520*
X222Y2519*
X223Y2518*
X224Y2518*
X225Y2517*
X225*
X227Y2516*
X231Y2513*
X243Y2508*
X252Y2505*
X254Y2504*
X258Y2503*
X261Y2503*
X265Y2502*
X273Y2502*
X275Y2503*
X276Y2507*
X278Y2508*
X278Y2510*
X279Y2511*
X280Y2513*
X277Y2514*
X272Y2513*
X268Y2514*
X260Y2515*
X257Y2515*
X255Y2516*
X252Y2516*
X244Y2519*
X237Y2523*
X233Y2525*
X230Y2528*
X228Y2529*
X227Y2530*
X224Y2532*
X223Y2533*
X220Y2536*
X220Y2537*
X216Y2541*
X215Y2542*
X213Y2545*
X211Y2548*
X209Y2552*
X205Y2559*
X207Y2563*
X208Y2568*
X209Y2568*
X214Y2577*
X215Y2579*
X216Y2580*
X218Y2581*
X218Y2583*
X225Y2589*
X226Y2590*
X228Y2591*
X229Y2592*
X232Y2594*
X234Y2595*
X238Y2596*
X242Y2597*
X252Y2596*
X259Y2593*
X264Y2589*
X266Y2587*
X267Y2585*
X269Y2584*
X270Y2581*
X272Y2579*
X276Y2579*
X281Y2582*
X280Y2585*
X278Y2588*
X277Y2589*
X272Y2594*
X272Y2595*
X271Y2595*
X267Y2599*
X266Y2599*
X265Y2600*
X264Y2601*
X261Y2603*
X256Y2605*
X250Y2607*
X243Y2607*
G37*
G36*
X250Y2592D02*
X248Y2592D01*
X247Y2589*
X248Y2588*
X249Y2582*
X251Y2578*
X252Y2577*
X260Y2576*
X262Y2577*
X265Y2577*
X266Y2578*
X266Y2580*
X258Y2588*
X258Y2588*
X252Y2591*
X250Y2592*
G37*
G36*
X595Y2621D02*
X592Y2620D01*
X590Y2619*
X583Y2615*
X580Y2613*
X579Y2613*
X576Y2611*
X568Y2607*
X567Y2606*
X564Y2604*
X563Y2603*
X555Y2599*
X552Y2597*
X551Y2596*
X547Y2594*
X548Y2592*
X553Y2587*
X554Y2587*
X558Y2589*
X561Y2590*
X564Y2591*
X570Y2594*
X573Y2595*
X574Y2596*
X577Y2597*
X594Y2604*
X597Y2604*
X598Y2602*
X596Y2600*
X593Y2599*
X588Y2597*
X582Y2594*
X577Y2592*
X573Y2591*
X564Y2586*
X560Y2585*
X557Y2583*
X556Y2582*
X558Y2579*
X559Y2578*
X560Y2577*
X562Y2574*
X564Y2573*
X566Y2574*
X569Y2575*
X574Y2577*
X577Y2578*
X579Y2578*
X579*
X582Y2579*
X584Y2580*
X590Y2582*
X593Y2583*
X598Y2585*
X601Y2586*
X605Y2587*
X610Y2589*
X613Y2590*
X616Y2591*
X615Y2594*
X613Y2597*
X611Y2600*
X608Y2604*
X608Y2605*
X605Y2608*
X604Y2610*
X602Y2611*
X602Y2613*
X599Y2615*
X599Y2616*
X596Y2619*
X595Y2621*
G37*
G36*
X376Y2618D02*
X375Y2617D01*
X375Y2613*
X378Y2608*
X380Y2605*
X382Y2603*
X384Y2603*
X387Y2603*
X393Y2604*
X395Y2603*
X402Y2603*
X404Y2602*
X404*
X406Y2602*
X415Y2598*
X421Y2595*
X422Y2594*
X427Y2591*
X433Y2587*
X434Y2586*
X435Y2585*
X441Y2579*
X442Y2578*
X445Y2575*
X446Y2574*
X449Y2570*
X449Y2569*
X451Y2568*
X451Y2569*
X454Y2575*
X454Y2577*
X451Y2579*
X451Y2580*
X450Y2581*
X449Y2583*
X448Y2584*
X447Y2585*
X444Y2589*
X443Y2590*
X436Y2597*
X435Y2598*
X433Y2600*
X431Y2600*
X430Y2602*
X429Y2603*
X425Y2606*
X414Y2611*
X408Y2612*
X406Y2613*
X402Y2613*
X395Y2614*
X392Y2615*
X386Y2615*
X384Y2616*
X380Y2617*
X379Y2617*
X376Y2618*
G37*
G36*
X372Y2608D02*
X369Y2608D01*
X367Y2606*
X363Y2604*
X362Y2603*
X361Y2602*
X358Y2599*
X357Y2599*
X356Y2598*
X356Y2597*
X354Y2594*
X353Y2593*
X351Y2590*
X350Y2589*
X348Y2585*
X343Y2575*
X343Y2573*
X350Y2566*
X352Y2566*
X353Y2567*
X354Y2572*
X356Y2578*
X358Y2581*
Y2582*
X359Y2583*
X361Y2588*
X364Y2591*
X365Y2592*
X365Y2593*
X367Y2595*
X369Y2596*
X370Y2597*
X374Y2599*
X376Y2601*
X377Y2602*
X375Y2605*
X374Y2606*
X373Y2607*
X372Y2608*
G37*
G36*
X278Y2576D02*
X278Y2576D01*
X271Y2574*
X269Y2573*
X261Y2572*
X255Y2572*
X255Y2570*
X259Y2566*
X260Y2566*
X263Y2564*
X265Y2563*
X272Y2562*
X280Y2563*
X281Y2564*
X284Y2565*
X285Y2566*
X284Y2568*
X282Y2572*
X281Y2574*
X280Y2576*
X278Y2576*
G37*
G36*
X399Y2568D02*
X399D01*
X391Y2567*
X389Y2566*
X388Y2565*
X386Y2563*
X386Y2559*
X386Y2554*
X390Y2551*
X392Y2550*
X399Y2551*
X403Y2554*
X403Y2555*
X406Y2560*
X406Y2562*
X406Y2564*
X405Y2565*
X401Y2567*
X399Y2568*
G37*
G36*
X398Y2599D02*
X386Y2598D01*
X384Y2598*
X382Y2597*
X379Y2596*
X374Y2593*
X373Y2592*
X370Y2591*
X369Y2589*
X369Y2589*
X367Y2588*
X366Y2586*
X364Y2584*
X360Y2575*
X359Y2572*
X358Y2568*
X357Y2564*
X356Y2561*
X359Y2558*
X360Y2557*
X362Y2555*
X363Y2555*
X365Y2553*
X366Y2552*
X367Y2553*
X367Y2560*
X367Y2566*
X368Y2568*
X369Y2571*
X373Y2577*
X374Y2578*
X374Y2579*
X375Y2580*
X376Y2581*
X379Y2583*
X386Y2586*
X389Y2587*
X393Y2588*
X399Y2588*
X403Y2588*
X406Y2587*
X408Y2586*
X411Y2585*
X419Y2581*
X422Y2578*
X423Y2577*
X424Y2577*
X427Y2574*
X427Y2573*
X429Y2571*
X430Y2570*
X432Y2568*
X432Y2567*
X435Y2562*
X436Y2561*
X438Y2558*
X438Y2555*
X441Y2551*
Y2550*
X442Y2549*
X443Y2550*
X444Y2553*
X447Y2560*
X446Y2564*
X444Y2568*
X442Y2571*
X437Y2578*
X430Y2585*
X429Y2586*
X427Y2587*
X426Y2588*
X419Y2592*
X412Y2595*
X406Y2597*
X402Y2598*
X398Y2599*
G37*
G36*
X619Y2587D02*
X616Y2586D01*
X607Y2583*
X605Y2582*
X579Y2574*
X576Y2573*
X570Y2571*
X568Y2570*
X566Y2569*
X566Y2566*
X568Y2564*
X569Y2562*
X570Y2561*
X572Y2561*
X576Y2561*
X578Y2562*
X580Y2562*
X583Y2563*
X586Y2564*
X588Y2564*
X589Y2564*
X591Y2565*
X594Y2566*
X597Y2566*
X600Y2567*
X603Y2568*
X606Y2569*
X609Y2569*
X614Y2570*
X615Y2571*
X618Y2570*
X617Y2567*
X614Y2566*
X610Y2565*
X609Y2565*
X605Y2564*
X602Y2563*
X599Y2562*
X597Y2562*
X593Y2561*
X584Y2559*
X581Y2558*
X574Y2557*
X573Y2555*
X574Y2553*
X575Y2551*
X577Y2547*
X578Y2547*
X585Y2547*
X590Y2548*
X595Y2549*
X598Y2549*
X606Y2550*
X608Y2551*
X616Y2551*
X623Y2553*
X632Y2554*
X634Y2554*
X635Y2555*
X634Y2558*
X631Y2566*
X628Y2572*
X628Y2573*
X625Y2576*
X621Y2584*
X619Y2587*
G37*
G36*
X241Y2593D02*
X238Y2592D01*
X235Y2591*
X234Y2589*
X235Y2581*
X235Y2579*
X236Y2576*
X237Y2573*
X241Y2566*
X247Y2559*
X249Y2556*
X250Y2556*
X258Y2551*
X261Y2549*
X266Y2548*
X270Y2547*
X272Y2547*
X282Y2547*
X284Y2548*
X287Y2549*
X292Y2550*
X295Y2552*
X294Y2555*
X292Y2557*
X292Y2558*
X289Y2561*
X288Y2561*
X286*
X286Y2561*
X285Y2560*
X281Y2559*
X279Y2559*
X273Y2558*
X265Y2559*
X263Y2559*
X260Y2560*
X256Y2562*
X250Y2568*
X249Y2571*
X245Y2579*
X245Y2582*
X243Y2586*
X243Y2590*
X242Y2592*
X241Y2593*
G37*
G36*
X543Y2566D02*
X541Y2565D01*
X540Y2564*
X538Y2564*
X537Y2562*
X536Y2561*
X535Y2561*
X534Y2560*
X534Y2559*
X533Y2558*
X532Y2557*
X531Y2556*
X530Y2555*
X528Y2551*
X528Y2551*
X527Y2546*
X527Y2541*
X529Y2540*
X533Y2542*
X536Y2543*
X539Y2544*
X546Y2544*
X548Y2543*
X550Y2543*
X554Y2541*
X555Y2540*
X557Y2540*
X558Y2541*
X551Y2554*
X543Y2566*
G37*
G36*
X229Y2586D02*
X226Y2585D01*
X220Y2579*
X220Y2577*
X221Y2574*
X222Y2571*
X223Y2567*
X229Y2557*
X234Y2549*
X237Y2546*
X238Y2546*
X239Y2545*
X241Y2543*
X242Y2542*
X246Y2539*
X247*
X250Y2537*
X254Y2536*
X256Y2535*
X263Y2533*
X267Y2532*
X275Y2532*
X281Y2533*
X284Y2533*
X287Y2534*
X292Y2535*
X295Y2536*
X300Y2538*
X304Y2540*
X305Y2542*
X302Y2545*
X300Y2546*
X300Y2547*
X297Y2548*
X294Y2546*
X291Y2545*
X288Y2544*
X285Y2543*
X277Y2542*
X267Y2543*
X265Y2543*
X263Y2544*
X260Y2545*
X257Y2546*
X253Y2548*
X252Y2549*
X251Y2550*
X250Y2551*
X247Y2553*
X240Y2559*
X240Y2561*
X239Y2562*
X238Y2563*
X235Y2567*
X232Y2575*
X231Y2579*
X230Y2581*
X230Y2585*
X229Y2586*
G37*
G36*
X527Y2584D02*
X526Y2583D01*
X525Y2579*
X525Y2577*
X524Y2574*
X521Y2570*
X519Y2568*
X519Y2567*
X517Y2564*
X514Y2559*
X512Y2547*
Y2547*
X512Y2530*
X513Y2528*
X514Y2525*
X516Y2525*
X518Y2530*
X523Y2537*
X522Y2542*
X523Y2549*
X524Y2551*
X528Y2560*
X531Y2562*
X531Y2563*
X534Y2566*
X536Y2567*
X537Y2568*
X538Y2569*
X539Y2570*
X539Y2572*
X536Y2575*
X536Y2576*
X534Y2578*
X534Y2579*
X529Y2583*
X527Y2584*
G37*
G36*
X421Y2543D02*
X419Y2543D01*
X418Y2541*
X417Y2540*
X414Y2538*
X413Y2537*
X411Y2535*
X405Y2532*
X402Y2531*
X397Y2530*
X397Y2529*
X400Y2526*
X400*
X407Y2521*
X410Y2522*
X416Y2525*
X421Y2529*
X424Y2532*
X424Y2536*
X423Y2538*
X422Y2542*
X421Y2543*
G37*
G36*
X397Y2584D02*
X390Y2583D01*
X384Y2581*
X381Y2579*
X379Y2577*
X376Y2574*
X372Y2567*
X371Y2560*
X372Y2554*
X372Y2552*
X373Y2548*
X376Y2544*
X378Y2542*
X383Y2538*
X384Y2537*
X386Y2536*
X388Y2535*
X392Y2534*
X398Y2535*
X402Y2536*
X406Y2537*
X410Y2540*
X412Y2541*
X414Y2543*
X414Y2544*
X416Y2546*
X418Y2550*
X417Y2553*
X412Y2559*
X411Y2559*
X410Y2558*
X408Y2555*
X407Y2552*
X406Y2551*
X405Y2550*
X404Y2548*
X399Y2546*
X396Y2546*
X389Y2546*
X384Y2550*
X381Y2556*
X382Y2564*
X386Y2569*
X389Y2571*
X392Y2572*
X397Y2572*
X399Y2572*
X402Y2571*
X405Y2570*
X410Y2567*
X413Y2564*
X416Y2562*
X416Y2561*
X418Y2559*
X419Y2558*
X421Y2553*
X424Y2547*
X425Y2545*
X427Y2541*
X427Y2538*
X429Y2533*
X429Y2531*
X431Y2523*
X431Y2521*
X432Y2521*
X434Y2523*
X436Y2528*
Y2528*
X437Y2532*
X438Y2534*
X440Y2540*
X439Y2543*
X438Y2546*
X437Y2548*
X435Y2553*
X435Y2554*
X432Y2559*
X429Y2563*
X428Y2564*
X428Y2566*
X425Y2569*
X424Y2570*
X423Y2571*
X422Y2572*
X421Y2573*
X418Y2576*
X417Y2577*
X416Y2578*
X412Y2580*
X408Y2582*
X405Y2583*
X397Y2584*
G37*
G36*
X504Y2576D02*
X501Y2575D01*
X501Y2575*
X500Y2574*
X500Y2572*
X498Y2567*
X498Y2560*
X497Y2556*
X498Y2519*
X500Y2518*
X502Y2520*
X504Y2521*
X508Y2523*
X509Y2525*
X508Y2528*
X507Y2534*
X507Y2546*
X508Y2547*
X508Y2553*
X509Y2554*
X509Y2558*
X511Y2562*
X512Y2565*
X513Y2566*
X514Y2567*
X517Y2571*
X518Y2573*
X518Y2575*
X515Y2576*
X504Y2576*
G37*
G36*
X217Y2572D02*
X216Y2571D01*
X214Y2570*
X212Y2564*
X210Y2561*
X211Y2557*
X212Y2555*
X215Y2549*
X217Y2548*
X217Y2547*
X220Y2544*
X222Y2540*
X224Y2538*
X226Y2536*
X228Y2535*
X230Y2532*
X232Y2532*
X233Y2531*
X234Y2530*
X235Y2529*
X239Y2527*
X247Y2523*
X251Y2521*
X255Y2520*
X260Y2519*
X263Y2519*
X269Y2518*
X279Y2518*
X281Y2518*
X289Y2519*
X290Y2519*
X293Y2520*
X299Y2521*
X307Y2525*
X315Y2529*
X316Y2530*
X314Y2532*
X313Y2532*
X311Y2534*
X311Y2536*
X310Y2536*
X307Y2537*
X298Y2532*
X294Y2531*
X288Y2530*
X286Y2529*
X280Y2529*
X278Y2528*
X275*
X262Y2529*
X260Y2529*
X257Y2530*
X255Y2531*
X251Y2532*
X243Y2536*
X239Y2539*
X236Y2542*
X230Y2548*
X229Y2549*
X227Y2551*
X227Y2552*
X223Y2558*
X219Y2567*
X218Y2569*
X217Y2572*
G37*
G36*
X635Y2550D02*
X634Y2549D01*
X624Y2548*
X622Y2548*
X614Y2547*
X602Y2546*
X600Y2545*
X593Y2544*
X580Y2542*
X579Y2540*
X582Y2535*
X583Y2532*
X600Y2532*
X601Y2532*
X630Y2533*
X631Y2534*
X633Y2533*
X634Y2531*
X633Y2529*
X631Y2529*
X608Y2528*
X594Y2528*
X586Y2527*
X585Y2525*
X586Y2523*
X586Y2522*
X587Y2520*
X587Y2518*
X589Y2517*
X603Y2516*
X620Y2515*
X622Y2514*
X636Y2514*
X644Y2513*
X646Y2513*
X649Y2514*
X648Y2517*
X647Y2519*
X647Y2523*
X646Y2525*
X645Y2528*
X645Y2531*
X642Y2538*
X638Y2549*
X637Y2549*
X635Y2550*
G37*
G36*
X320Y2526D02*
X318Y2525D01*
X311Y2521*
X310Y2520*
X311Y2519*
X315Y2517*
X316Y2516*
X318Y2515*
X319Y2513*
X321Y2513*
X326Y2515*
X328Y2516*
X329Y2517*
X328Y2518*
X328Y2518*
X326Y2521*
X324Y2521*
X320Y2526*
G37*
G36*
X545Y2539D02*
X537Y2539D01*
X534Y2538*
X532Y2537*
X529Y2535*
X529Y2535*
X528Y2534*
X527Y2534*
X525Y2531*
X524Y2530*
X522Y2528*
X518Y2520*
X517Y2516*
X517Y2511*
X518Y2509*
X525Y2510*
X526Y2511*
X527Y2512*
X526Y2514*
X527Y2517*
X528Y2520*
X530Y2523*
X533Y2526*
X538Y2529*
X543Y2529*
X545Y2529*
X548Y2528*
X549Y2527*
X553Y2525*
X556Y2523*
X553Y2517*
X552Y2516*
X551Y2514*
X551Y2513*
X554Y2512*
X558Y2513*
X566Y2514*
X567Y2515*
X566Y2519*
X566Y2521*
X564Y2526*
X563Y2528*
X562Y2530*
X562Y2531*
X560Y2532*
X558Y2534*
X551Y2538*
X547Y2539*
X545Y2539*
G37*
G36*
X425Y2526D02*
X422Y2524D01*
X422*
X419Y2522*
X414Y2519*
X413Y2517*
X414Y2516*
X415Y2515*
X419Y2513*
X424Y2509*
X426Y2509*
X428Y2510*
X427Y2519*
X427Y2521*
X426Y2525*
X425Y2526*
G37*
G36*
X543Y2525D02*
X538Y2524D01*
X534Y2521*
X532Y2520*
X531Y2516*
X531Y2511*
X533Y2510*
X534Y2510*
X534Y2508*
X532Y2506*
X522Y2505*
X514Y2505*
X513Y2506*
X513Y2508*
X512Y2512*
X513Y2517*
X512Y2518*
X507Y2518*
X501Y2514*
X497Y2511*
X497Y2502*
X498Y2501*
X502Y2500*
X504Y2499*
X508Y2498*
X517Y2496*
X519Y2495*
X523Y2495*
X527Y2493*
X531Y2493*
X533Y2492*
X536Y2491*
X538Y2492*
X541Y2495*
X542Y2497*
X543Y2497*
X545Y2499*
X548Y2499*
X551Y2500*
X552*
X557Y2499*
X560Y2497*
X561Y2495*
X562Y2494*
X563Y2491*
X566Y2489*
X570Y2488*
X571Y2489*
X572Y2491*
X571Y2493*
X570Y2500*
X570Y2503*
X569Y2506*
X568Y2508*
X567Y2509*
X560Y2509*
X558Y2508*
X545Y2507*
X542Y2507*
X540Y2508*
X541Y2510*
X542Y2511*
X543Y2512*
X547Y2515*
X547Y2516*
X549Y2520*
X549Y2522*
X548Y2523*
X545Y2524*
X543Y2525*
G37*
G36*
X333Y2512D02*
X330Y2512D01*
X328Y2511*
X325Y2510*
X324Y2508*
X325Y2506*
X326Y2503*
X327Y2502*
X327Y2502*
X328Y2501*
X332Y2501*
X333Y2502*
X337Y2503*
X340Y2503*
X342Y2504*
X342Y2505*
X341Y2507*
X339Y2509*
X337Y2510*
X336Y2510*
X335Y2512*
X333Y2512*
G37*
G36*
X445Y2540D02*
X444Y2540D01*
X443Y2536*
X442Y2533*
X436Y2517*
X436Y2516*
X435Y2514*
X433Y2511*
X431Y2507*
X431Y2506*
X433Y2504*
X434Y2503*
X435Y2502*
X439Y2500*
X442Y2497*
X444Y2497*
X445Y2497*
X446Y2499*
X446Y2510*
Y2524*
X446Y2540*
X445Y2540*
G37*
G36*
X590Y2512D02*
X589Y2511D01*
X590Y2504*
X590Y2503*
X592Y2500*
X607Y2498*
X611Y2497*
X625Y2495*
X629Y2494*
X633Y2494*
X639Y2493*
X640Y2492*
X641Y2490*
X640Y2489*
X637Y2488*
X635Y2489*
X631Y2489*
X629Y2490*
X623Y2491*
X619Y2491*
X608Y2493*
X604Y2494*
X600Y2494*
X593Y2495*
X592Y2495*
X591Y2490*
X592Y2489*
X592Y2486*
X594Y2486*
X594Y2485*
X598Y2485*
X602Y2484*
X605Y2483*
X609Y2482*
X611Y2481*
X614Y2480*
X621Y2479*
X625Y2478*
X627Y2477*
X631Y2476*
X634Y2475*
X641Y2474*
X645Y2472*
X649Y2471*
X651Y2471*
X652Y2471*
X653Y2472*
X652Y2491*
X652Y2493*
X651Y2499*
X650Y2502*
X650Y2507*
X649Y2508*
X647Y2509*
X631Y2510*
X614Y2510*
X612Y2511*
X598Y2512*
X590Y2512*
G37*
G36*
X464Y2580D02*
X462Y2579D01*
X462Y2578*
X459Y2574*
X458Y2572*
X455Y2567*
X451Y2558*
X450Y2547*
X451Y2517*
X450Y2500*
X450Y2498*
X449Y2496*
X450Y2493*
X452Y2491*
X456Y2489*
X457Y2487*
X460Y2488*
X461Y2489*
X461Y2493*
X462Y2496*
X463Y2504*
X463Y2510*
Y2511*
X463Y2568*
X464Y2570*
X465Y2575*
X465Y2577*
X465Y2580*
X464Y2580*
G37*
G36*
X348Y2500D02*
X341Y2499D01*
X340Y2498*
X341Y2496*
X342Y2493*
X342Y2493*
X342Y2488*
X342Y2485*
X339Y2480*
X337Y2478*
X333Y2476*
X331Y2476*
X323Y2476*
X320Y2474*
X320Y2473*
X319Y2472*
X317Y2471*
X317Y2469*
X318Y2468*
X322Y2466*
X328Y2466*
X335Y2466*
X337Y2467*
X344Y2471*
X348Y2475*
X349Y2476*
X351Y2481*
X353Y2488*
X354Y2489*
X356Y2489*
X357Y2487*
X358Y2486*
X361Y2486*
X361Y2489*
X361Y2490*
X358Y2493*
X351Y2498*
X350Y2499*
X348Y2500*
G37*
G36*
X553Y2496D02*
X548Y2495D01*
X544Y2492*
X543Y2491*
X544Y2486*
X543Y2485*
X538Y2486*
X536Y2487*
X527Y2489*
X524Y2490*
X519Y2491*
X517Y2491*
X512Y2493*
X509Y2493*
X505Y2494*
X502Y2495*
X500Y2496*
X496Y2495*
X496Y2493*
X498Y2489*
X499Y2488*
X500Y2487*
X507Y2480*
X508Y2479*
X511Y2476*
X512Y2476*
X514Y2475*
X518Y2476*
X524Y2477*
X527Y2482*
X528Y2484*
X530Y2484*
X531Y2481*
X530Y2479*
X532Y2476*
X534Y2476*
X538Y2475*
X538Y2475*
X542Y2474*
X543Y2473*
X542Y2472*
X541Y2469*
X542Y2466*
X545Y2463*
X547Y2462*
X552Y2462*
X556Y2465*
X557Y2468*
X558Y2470*
X558Y2476*
X560Y2476*
X561Y2475*
X562Y2472*
X562Y2468*
X563Y2467*
X567Y2467*
X569Y2470*
X570Y2470*
X570Y2471*
X572Y2474*
X571Y2480*
X568Y2483*
X567Y2484*
X563Y2485*
X561Y2485*
X556Y2482*
X556Y2481*
X553Y2480*
X552Y2480*
X551Y2481*
X553Y2485*
X554Y2485*
X557Y2488*
X558Y2488*
X558Y2489*
X558Y2492*
X555Y2495*
X553Y2496*
G37*
G36*
X332Y2497D02*
X329Y2495D01*
X328Y2493*
X327Y2487*
X327Y2485*
X326Y2483*
X327Y2481*
X329Y2480*
X333Y2481*
X334Y2482*
X335Y2483*
X337Y2485*
X338Y2489*
X337Y2493*
X337Y2494*
X337Y2494*
X335Y2495*
X335Y2497*
X332Y2497*
G37*
G36*
X487Y2596D02*
X483Y2595D01*
X478Y2593*
X473Y2589*
X472Y2588*
X471Y2584*
X470Y2580*
X469Y2574*
X468Y2570*
X468Y2563*
X467Y2504*
X466Y2499*
X466Y2494*
X465Y2491*
X465Y2488*
X464Y2485*
X464Y2485*
X465Y2483*
X466Y2482*
X472Y2479*
X473Y2479*
X474Y2480*
X474Y2482*
X475Y2486*
X476Y2490*
X476Y2493*
X477Y2501*
X478Y2511*
X478Y2512*
X478Y2514*
Y2551*
X478Y2565*
X480Y2576*
X481Y2580*
X483Y2586*
X485Y2591*
X488Y2594*
X489Y2596*
X487Y2596*
G37*
G36*
X509Y2600D02*
X500Y2600D01*
X498Y2599*
X492Y2593*
X491Y2591*
X490Y2589*
X490Y2589*
X487Y2583*
X486Y2579*
X484Y2575*
X483Y2570*
X483Y2562*
X482Y2560*
X482Y2537*
X482Y2504*
X481Y2503*
X481Y2491*
X480Y2490*
X479Y2483*
X478Y2480*
X477Y2478*
X477Y2476*
X478Y2475*
X479Y2474*
X483Y2471*
X484Y2471*
X486Y2470*
X487Y2471*
X487Y2473*
X489Y2479*
X489Y2481*
X490Y2485*
X491Y2487*
X492Y2494*
X492Y2502*
X493Y2506*
X493Y2563*
X494Y2565*
X495Y2573*
X496Y2576*
X497Y2579*
X499Y2583*
X501Y2588*
X502Y2589*
X503Y2590*
X504Y2591*
X505Y2593*
X506Y2594*
X508Y2596*
X509Y2596*
X510Y2598*
X510Y2600*
X509Y2600*
G37*
G36*
X299Y2517D02*
X297Y2516D01*
X293Y2516*
X286Y2512*
X282Y2508*
X282Y2507*
X281Y2506*
X278Y2499*
X277Y2490*
X278Y2488*
X279Y2485*
X281Y2480*
X282Y2479*
X283Y2478*
X286Y2475*
X287Y2474*
X290Y2472*
X293Y2471*
X296Y2470*
X302Y2470*
X304Y2470*
X307Y2471*
X310Y2472*
X313Y2474*
X316Y2476*
X317Y2477*
X318Y2477*
X318Y2478*
X320Y2480*
X320Y2481*
X323Y2487*
X324Y2489*
X323Y2500*
X319Y2507*
X317Y2510*
X316Y2510*
X314Y2513*
X307Y2516*
X306*
X304Y2516*
X299Y2517*
G37*
G36*
X191Y2552D02*
X190Y2551D01*
X189Y2550*
X188Y2547*
X187Y2544*
X185Y2538*
X184Y2535*
X182Y2528*
X181Y2524*
X180Y2520*
X178Y2513*
X178Y2510*
X177Y2507*
X176Y2500*
X175Y2492*
X175Y2488*
X173Y2469*
X175Y2465*
X175Y2465*
X176Y2466*
X177Y2470*
X179Y2475*
X180Y2478*
X181Y2480*
X183Y2485*
X185Y2491*
X185Y2493*
X188Y2503*
X189Y2506*
X190Y2511*
X191Y2513*
X193Y2519*
X196Y2532*
X196Y2534*
X197Y2534*
X197Y2537*
X198Y2539*
X192Y2551*
X191Y2552*
G37*
G36*
X359Y2482D02*
X357Y2481D01*
X356Y2480*
X354Y2475*
X353Y2474*
X350Y2471*
X350Y2470*
X349Y2469*
X346Y2467*
X345Y2466*
X342Y2464*
X340Y2463*
X337Y2462*
X335Y2462*
X329Y2461*
X322Y2462*
X318Y2463*
X314Y2466*
X311Y2467*
X306Y2466*
X304Y2466*
X293Y2466*
X292Y2467*
X284Y2471*
X282Y2472*
X281Y2472*
X279Y2470*
X279Y2469*
X276Y2464*
X272Y2456*
X271Y2453*
X269Y2449*
X267Y2444*
X266Y2441*
X262Y2427*
Y2426*
X261Y2425*
X260Y2420*
X259Y2415*
X259Y2412*
X258Y2407*
X258Y2402*
X257Y2397*
X257Y2379*
X257Y2377*
X258Y2369*
X258Y2367*
X259Y2361*
X260Y2360*
X261Y2354*
X262Y2351*
X264Y2348*
X268Y2339*
X271Y2336*
X273Y2333*
X279Y2331*
X281Y2330*
X287Y2331*
X292Y2334*
X297Y2338*
X299Y2340*
X301Y2341*
X305Y2338*
X308Y2335*
X308Y2334*
X309Y2333*
X311Y2329*
X312Y2328*
X316Y2328*
X319Y2330*
X320Y2331*
X321Y2334*
X320Y2341*
X319Y2347*
X318Y2350*
X317Y2355*
X316Y2358*
X316Y2360*
X315Y2364*
X313Y2369*
X314Y2371*
X320Y2370*
X324Y2368*
X324Y2365*
X322Y2364*
X320Y2365*
X320Y2361*
X321Y2358*
X322Y2354*
X323Y2350*
X324Y2344*
X325Y2336*
X325Y2332*
X328Y2328*
X329Y2328*
X332Y2325*
X336Y2325*
X340Y2328*
X342Y2329*
X345Y2330*
X348Y2329*
X351Y2327*
X353Y2326*
X354Y2327*
X354Y2330*
X353Y2338*
X353Y2340*
X351Y2343*
X351Y2344*
X348Y2347*
X348Y2351*
X352Y2355*
X358Y2358*
X365Y2357*
X370Y2353*
X371Y2352*
X372Y2352*
X373Y2351*
X372Y2348*
X370Y2347*
X368Y2350*
X367Y2350*
X366Y2351*
X365Y2352*
X362Y2353*
X356Y2352*
X354Y2350*
X353Y2348*
X356Y2344*
X358Y2338*
X358Y2336*
X358Y2328*
X358Y2324*
X358Y2316*
X358Y2315*
X359Y2313*
X360Y2310*
X362Y2307*
X365Y2307*
X372Y2307*
X375Y2308*
X377Y2309*
X384Y2312*
X387Y2312*
X391Y2314*
X396Y2316*
X403Y2319*
X406Y2320*
X414Y2322*
X417Y2323*
X421Y2325*
X426Y2327*
X436Y2330*
X438Y2331*
X444Y2333*
X444Y2334*
X445Y2334*
X446Y2338*
X448Y2343*
X448Y2347*
X449Y2349*
X448Y2369*
X448Y2371*
X447Y2376*
X446Y2379*
X445Y2384*
X444Y2388*
X440Y2399*
X437Y2402*
X436Y2403*
X435Y2404*
X432Y2407*
X428Y2410*
X427Y2411*
X425Y2412*
X425Y2413*
X421Y2417*
X421Y2418*
X419Y2420*
X419Y2421*
X418Y2422*
X417Y2423*
X415Y2425*
X408Y2426*
X406Y2427*
X401Y2429*
X399Y2430*
X394Y2433*
X390Y2435*
X389Y2436*
X388Y2437*
X387Y2438*
X386Y2439*
X382Y2442*
X380Y2443*
X379Y2444*
X378Y2446*
X376Y2448*
X375Y2450*
X373Y2452*
X369Y2458*
X368Y2459*
X367Y2462*
X365Y2467*
X364Y2470*
X363Y2473*
X361Y2480*
X359Y2482*
G37*
G36*
X519Y2472D02*
X518Y2470D01*
X519Y2469*
X520Y2469*
X521Y2467*
X522Y2467*
X528Y2461*
X532Y2461*
X536Y2463*
X537Y2464*
X536Y2468*
X535Y2471*
X530Y2471*
X530Y2472*
X519Y2472*
G37*
G36*
X594Y2481D02*
X593Y2480D01*
X592Y2478*
X592Y2470*
X594Y2469*
X597Y2468*
X602Y2466*
X620Y2461*
X625Y2459*
X630Y2457*
X633Y2456*
X635Y2456*
X638Y2455*
X641Y2454*
X642Y2451*
X640Y2450*
X637Y2450*
X635Y2451*
X632Y2452*
X630Y2453*
X626Y2454*
X623Y2455*
X621Y2455*
X594Y2464*
X592Y2463*
X591Y2461*
X590Y2456*
X590Y2455*
X591Y2453*
X597Y2450*
X600Y2449*
X605Y2447*
X608Y2446*
X612Y2444*
X617Y2442*
X621Y2440*
X624Y2439*
X629Y2437*
X633Y2435*
X642Y2431*
X646Y2430*
X647Y2429*
X649Y2428*
X650Y2429*
X651Y2430*
X652Y2437*
X652Y2442*
X653Y2449*
X653Y2465*
X652Y2466*
X649Y2467*
X646Y2468*
X643Y2469*
X634Y2471*
X630Y2472*
X626Y2473*
X623Y2474*
X614Y2476*
X610Y2477*
X607Y2478*
X604Y2478*
X602Y2479*
X602Y2479*
X598Y2480*
X594Y2481*
G37*
G36*
X387Y2472D02*
X385Y2472D01*
X386Y2469*
X389Y2464*
X389Y2463*
X393Y2458*
X399Y2452*
X400Y2452*
X401Y2450*
X403Y2450*
X406Y2448*
X409Y2446*
X413Y2445*
X416Y2444*
X419Y2443*
X422Y2443*
X426Y2442*
X427Y2443*
X427Y2444*
X426Y2445*
X425Y2446*
X423Y2448*
X419Y2450*
X416Y2452*
X415Y2452*
X414Y2453*
X412Y2455*
X408Y2458*
X401Y2463*
X394Y2467*
X392Y2469*
X387Y2472*
G37*
G36*
X407Y2650D02*
X405Y2649D01*
X391Y2649*
X389Y2648*
X384Y2647*
X377Y2646*
X374Y2645*
X370Y2644*
X367Y2643*
X363Y2643*
X359Y2641*
X354Y2640*
X350Y2638*
X345Y2636*
X342Y2635*
X339Y2634*
X335Y2632*
X316Y2623*
X313Y2620*
X309Y2618*
X308Y2617*
X310Y2616*
X314Y2615*
X317Y2614*
X322Y2612*
X325Y2613*
X326Y2614*
X327Y2615*
X333Y2619*
X345Y2624*
X346Y2625*
X350Y2626*
X356Y2629*
X358Y2629*
X366Y2632*
X375Y2634*
X382Y2635*
X393Y2637*
X399Y2637*
X414Y2638*
X426Y2637*
X431Y2636*
X442Y2635*
X446Y2634*
X448Y2634*
X453Y2632*
X457Y2631*
X459Y2631*
X462Y2630*
X464Y2629*
X468Y2627*
X475Y2625*
X484Y2621*
X496Y2615*
X499Y2613*
X500Y2612*
X501Y2611*
X505Y2609*
X506Y2608*
X509Y2606*
X516Y2601*
X517Y2600*
X518Y2599*
X520Y2597*
X521Y2596*
X524Y2594*
X525Y2593*
X534Y2585*
X534Y2584*
X539Y2579*
X539Y2578*
X542Y2575*
X543Y2574*
X544Y2572*
X545Y2571*
X546Y2570*
X547Y2569*
X552Y2561*
X555Y2556*
X557Y2553*
X558Y2550*
X559Y2549*
X562Y2542*
X564Y2538*
X565Y2537*
X566Y2534*
X568Y2529*
X568Y2526*
X571Y2518*
X572Y2512*
X573Y2508*
X574Y2501*
X575Y2491*
X576Y2489*
X575Y2457*
X575Y2456*
X574Y2451*
X577Y2447*
X578Y2446*
X581Y2442*
X581Y2441*
X583Y2441*
X584Y2444*
X584Y2446*
X585Y2449*
X586Y2455*
X587Y2463*
X587Y2467*
X588Y2480*
X587Y2492*
X587Y2498*
X586Y2501*
X584Y2511*
X584Y2514*
X583Y2517*
X582Y2521*
X579Y2529*
X578Y2532*
X577Y2535*
X575Y2540*
X574Y2544*
X565Y2561*
X561Y2567*
X559Y2570*
X558Y2571*
X556Y2574*
X551Y2581*
X550Y2582*
X549Y2583*
X547Y2585*
X547Y2587*
X544Y2590*
X541Y2593*
X541Y2594*
X540Y2594*
X538Y2596*
X534Y2600*
X534Y2600*
X533Y2601*
X532Y2602*
X531Y2603*
X528Y2606*
X527Y2606*
X525Y2608*
X524Y2609*
X522Y2611*
X521Y2611*
X519Y2613*
X517Y2614*
X516Y2616*
X513Y2617*
X509Y2620*
X503Y2624*
X496Y2628*
X493Y2630*
X491Y2630*
X490Y2631*
X490Y2631*
X478Y2637*
X471Y2639*
X469Y2640*
X460Y2643*
X457Y2643*
X452Y2645*
X450Y2646*
X444Y2647*
X441Y2647*
X439Y2648*
X428Y2649*
X418Y2649*
X407Y2650*
G37*
G36*
X368Y2485D02*
X366Y2485D01*
X365Y2482*
X366Y2481*
X368Y2471*
X369Y2468*
X376Y2456*
X380Y2451*
X381Y2450*
X381Y2448*
X386Y2444*
X387Y2444*
X389Y2441*
X390Y2441*
X391Y2440*
X392Y2439*
X396Y2436*
X403Y2433*
X406Y2432*
X414Y2429*
X417Y2429*
X422Y2428*
X437*
X437Y2429*
X440Y2429*
X442Y2430*
X444Y2431*
X445Y2431*
X443Y2434*
X442Y2435*
X438Y2437*
X434Y2439*
X428Y2439*
X417Y2439*
X415Y2440*
X413Y2440*
X409Y2442*
X404Y2443*
X404Y2444*
X400Y2446*
X395Y2450*
X393Y2452*
X392Y2453*
X388Y2457*
X388Y2458*
X386Y2459*
X386Y2460*
X384Y2464*
X379Y2473*
X377Y2478*
X376Y2479*
X376Y2480*
X375Y2480*
X372Y2483*
X368Y2485*
G37*
G36*
X496Y2484D02*
X495Y2484D01*
X493Y2477*
X492Y2474*
X491Y2471*
X490Y2468*
X493Y2465*
X496Y2463*
X497Y2462*
X498Y2461*
X502Y2459*
X502Y2459*
X506Y2456*
X507Y2455*
X509Y2455*
X512Y2456*
X515Y2457*
X517Y2457*
X521Y2457*
X520Y2454*
X519Y2453*
X518Y2452*
X517Y2451*
X518Y2448*
X519Y2447*
X520Y2446*
X535Y2435*
X536Y2435*
X537Y2434*
X538Y2433*
X540Y2432*
X541Y2431*
X542Y2431*
X543Y2429*
X545Y2428*
X548Y2426*
X550Y2425*
X551Y2425*
X553Y2427*
X555Y2431*
X554Y2437*
X553Y2438*
X552Y2439*
X551Y2440*
X547Y2441*
X543Y2442*
X542Y2441*
X538Y2442*
X537Y2443*
X538Y2444*
X541Y2446*
X546Y2446*
X547Y2447*
X548Y2450*
X547Y2454*
X545Y2457*
X541Y2459*
X535Y2458*
X533Y2456*
X532Y2454*
X532Y2453*
X529Y2454*
X528Y2455*
X527Y2456*
X519Y2463*
X518Y2464*
X510Y2472*
X509Y2472*
X503Y2478*
X502Y2479*
X496Y2484*
G37*
G36*
X203Y2532D02*
X201Y2532D01*
X200Y2529*
X199Y2525*
X198Y2522*
X198Y2519*
X197Y2516*
X196Y2512*
X193Y2504*
X192Y2501*
X190Y2495*
X189Y2489*
X188Y2487*
X183Y2474*
X182Y2469*
X181Y2467*
X179Y2461*
X177Y2458*
X175Y2453*
X174Y2449*
X175Y2433*
X177Y2426*
X177Y2424*
X178Y2423*
X179Y2424*
X180Y2426*
X181Y2430*
X182Y2434*
Y2434*
X183Y2438*
X185Y2442*
X185Y2445*
X186Y2447*
X187Y2450*
X188Y2454*
X191Y2463*
X192Y2467*
X194Y2472*
X196Y2479*
X197Y2481*
X201Y2496*
X202Y2498*
X204Y2504*
X205Y2508*
X207Y2516*
X208Y2520*
X209Y2523*
X209Y2524*
X205Y2529*
X203Y2532*
G37*
G36*
X569Y2464D02*
X566Y2462D01*
X560Y2461*
X558Y2461*
X556Y2459*
X552Y2457*
X551Y2456*
X552Y2452*
X552Y2445*
X557Y2440*
X558Y2438*
X558Y2436*
X559Y2434*
X558Y2429*
X556Y2424*
X555Y2422*
X555Y2420*
X558Y2417*
X559Y2416*
X561Y2416*
X562Y2416*
X564Y2423*
Y2424*
X564Y2424*
X566Y2430*
X567Y2434*
X567Y2436*
X568Y2442*
X569Y2445*
X570Y2448*
X570Y2456*
X571Y2458*
X570Y2464*
X569Y2464*
G37*
G36*
X451Y2427D02*
X448Y2427D01*
X446Y2426*
X442Y2425*
X442Y2424*
X445Y2420*
X446Y2420*
X450Y2417*
X456Y2414*
X459Y2413*
X466Y2411*
X471Y2412*
X470Y2414*
X470Y2414*
X469Y2415*
X465Y2417*
X464Y2418*
X463Y2419*
X461Y2420*
X460Y2421*
X459Y2422*
X458Y2423*
X451Y2427*
G37*
G36*
X592Y2448D02*
X589Y2448D01*
X589Y2444*
X588Y2442*
X588Y2441*
X589Y2438*
X611Y2427*
X627Y2418*
X636Y2414*
X637Y2413*
X636Y2410*
X634Y2410*
X632Y2411*
X631Y2411*
X615Y2420*
X611Y2422*
X611*
X610Y2423*
X606Y2424*
X605Y2425*
X588Y2433*
X585Y2433*
X585Y2430*
X584Y2427*
X583Y2424*
X582Y2421*
X583Y2420*
X595Y2414*
X596Y2412*
X608Y2406*
X609Y2405*
X614Y2402*
X622Y2397*
X623Y2396*
X628Y2393*
X633Y2390*
X636Y2389*
X639Y2388*
X640Y2388*
X641Y2389*
X642Y2393*
X643Y2395*
X644Y2400*
X645Y2404*
X647Y2410*
X649Y2419*
X649Y2422*
X649Y2424*
X638Y2428*
X634Y2430*
X628Y2432*
X627Y2433*
X624Y2434*
X618Y2437*
X615Y2438*
X611Y2440*
X606Y2442*
X603Y2443*
X600Y2445*
X596Y2446*
X594Y2447*
X592Y2448*
G37*
G36*
X215Y2520D02*
X213Y2520D01*
X212Y2519*
Y2518*
X211Y2516*
X209Y2508*
X209Y2506*
X207Y2502*
X207Y2499*
X206Y2495*
X204Y2490*
X202Y2482*
X201Y2478*
X196Y2464*
X193Y2455*
X190Y2444*
X189Y2441*
X188Y2439*
X186Y2432*
X185Y2429*
X183Y2421*
X180Y2414*
X179Y2410*
X180Y2408*
X181Y2405*
X182Y2403*
X183Y2402*
X185Y2403*
X194Y2404*
X211Y2405*
X213Y2404*
X224Y2403*
X226Y2403*
X231Y2402*
X240Y2400*
X244Y2399*
X247Y2398*
X250Y2398*
X251Y2397*
X253Y2399*
X254Y2407*
X255Y2415*
X257Y2426*
X258Y2429*
X259Y2433*
X260Y2436*
X261Y2439*
X262Y2441*
X265Y2450*
X266Y2454*
X268Y2457*
X271Y2464*
X275Y2472*
X276Y2473*
X277Y2474*
X278Y2477*
X274Y2484*
X273Y2489*
X273Y2493*
X272Y2497*
X262Y2498*
X258Y2499*
X253Y2500*
X250Y2501*
X248Y2501*
X246Y2502*
X242Y2503*
X239Y2505*
X237Y2505*
X233Y2508*
X231Y2508*
X230Y2509*
X225Y2512*
X221Y2515*
X216Y2519*
X215Y2520*
G37*
G36*
X434Y2424D02*
X424Y2423D01*
X423Y2422*
X425Y2420*
X427Y2417*
X428Y2416*
X433Y2411*
X434Y2410*
X436Y2408*
X437Y2408*
X438Y2407*
X439Y2406*
X440Y2405*
X442Y2405*
X451Y2400*
X457Y2398*
X459Y2398*
X463Y2397*
X465Y2397*
X483Y2397*
X485Y2398*
X487Y2398*
X487Y2400*
X486Y2401*
X485Y2402*
X482Y2404*
X480Y2406*
X477Y2407*
X470Y2406*
X469Y2407*
X463Y2407*
X461Y2408*
X453Y2411*
X447Y2414*
X443Y2417*
X440Y2420*
X436Y2423*
X435*
X434Y2424*
G37*
G36*
X304Y2591D02*
X302Y2591D01*
X300Y2589*
X299Y2589*
X298Y2587*
X297Y2587*
X296Y2585*
X299Y2582*
X301Y2579*
X306Y2572*
X307Y2571*
X308Y2570*
X309Y2568*
X310Y2567*
X312Y2564*
X313Y2563*
X316Y2561*
X316Y2559*
X318Y2557*
X319Y2556*
X331Y2544*
X332Y2542*
X333Y2542*
X334Y2541*
X334Y2540*
X335Y2539*
X336Y2539*
X344Y2531*
X345Y2531*
X350Y2526*
X351Y2525*
X353Y2523*
X354Y2522*
X356Y2521*
X357Y2520*
X359Y2518*
X361Y2517*
X363Y2515*
X364Y2514*
X366Y2512*
X367Y2512*
X369Y2510*
X370Y2509*
X373Y2507*
X375Y2505*
X376Y2504*
X378Y2504*
X379Y2502*
X380Y2502*
X381Y2501*
X382Y2500*
X383Y2499*
X384Y2499*
X397Y2489*
X403Y2485*
X404Y2484*
X405Y2483*
X406Y2483*
X414Y2477*
X416Y2476*
X417Y2475*
X420Y2473*
X424Y2470*
X425Y2470*
X437Y2461*
X438Y2461*
X442Y2458*
X443Y2457*
X444Y2456*
X446Y2455*
X457Y2447*
X459Y2446*
X460Y2445*
X461Y2444*
X465Y2441*
X466Y2441*
X468Y2439*
X469Y2439*
X471Y2437*
X472Y2436*
X479Y2431*
X485Y2426*
X487Y2425*
X488Y2424*
X489Y2423*
X490Y2422*
X491Y2422*
X493Y2420*
X494Y2419*
X496Y2417*
X498Y2416*
X501Y2413*
X502Y2412*
X506Y2409*
X507Y2408*
X509Y2406*
X510Y2406*
X518Y2398*
X519Y2397*
X519Y2396*
X520Y2395*
X521Y2395*
X527Y2389*
X528Y2388*
X535Y2381*
X535Y2380*
X537Y2378*
X539Y2378*
X541Y2385*
X542Y2389*
X545Y2390*
X549Y2390*
X556Y2389*
X559Y2389*
X560Y2390*
X557Y2393*
X554Y2395*
X553Y2396*
X547Y2402*
X546Y2402*
X544Y2405*
X543Y2405*
X541Y2407*
X540Y2407*
X538Y2410*
X537Y2410*
X534Y2412*
X533Y2413*
X532Y2415*
X530Y2415*
X529Y2416*
X528Y2417*
X527Y2418*
X526Y2419*
X524Y2420*
X523Y2421*
X516Y2426*
X513Y2428*
X512Y2429*
X508Y2432*
X507Y2432*
X506Y2433*
X505Y2434*
X497Y2440*
X496Y2440*
X492Y2443*
X491Y2444*
X487Y2446*
X486Y2446*
X485Y2448*
X482Y2449*
X478Y2452*
X477Y2453*
X473Y2455*
X472Y2456*
X469Y2458*
X465Y2460*
X464Y2461*
X460Y2463*
X454Y2467*
X453Y2468*
X452Y2469*
X448Y2471*
X442Y2475*
X440Y2476*
X439Y2477*
X431Y2482*
X430Y2483*
X426Y2485*
X420Y2489*
X419Y2489*
X418Y2491*
X414Y2493*
X410Y2496*
X409Y2496*
X402Y2501*
X395Y2506*
X391Y2508*
X390Y2509*
X389Y2510*
X386Y2512*
X385Y2513*
X384Y2513*
X371Y2523*
X368Y2525*
X365Y2527*
X364Y2528*
X362Y2530*
X361Y2530*
X359Y2532*
X358Y2532*
X357Y2534*
X356Y2535*
X353Y2538*
X352Y2538*
X347Y2543*
X346Y2543*
X343Y2546*
X342Y2547*
X327Y2562*
X326Y2563*
X325Y2564*
X325Y2564*
X322Y2567*
X321Y2568*
X318Y2571*
X318Y2572*
X316Y2574*
X316Y2575*
X314Y2577*
X313Y2578*
X311Y2581*
X307Y2587*
X306Y2588*
X304Y2591*
G37*
G36*
X196Y2399D02*
X186Y2399D01*
X185Y2398*
X183Y2398*
X183Y2397*
X183Y2393*
X184Y2391*
X185Y2390*
X185Y2390*
X186Y2385*
X187Y2382*
X188Y2378*
X189Y2377*
X190Y2378*
X192Y2382*
X193Y2384*
X194Y2389*
X196Y2396*
X196Y2399*
G37*
G36*
X491Y2394D02*
X489Y2394D01*
X483Y2393*
X482Y2393*
X481Y2392*
X482Y2391*
X484Y2389*
X484Y2388*
X485Y2387*
X486Y2387*
X489Y2384*
X490Y2384*
X491Y2382*
X499Y2378*
X504Y2377*
X508Y2377*
X509Y2378*
X509Y2380*
X507Y2381*
X494Y2394*
X491Y2394*
G37*
G36*
X313Y2599D02*
X309Y2596D01*
X308Y2595*
X308Y2592*
X310Y2591*
X311Y2589*
X319Y2578*
X320Y2576*
X321Y2575*
X322Y2574*
X324Y2572*
X325Y2571*
X328Y2567*
X329Y2566*
X347Y2548*
X348Y2547*
X351Y2544*
X352Y2544*
X354Y2542*
X356Y2541*
X358Y2539*
X359Y2538*
X363Y2534*
X364Y2534*
X365Y2532*
X366Y2532*
X367Y2531*
X369Y2530*
X370Y2529*
X371Y2529*
X372Y2527*
X373Y2527*
X374Y2526*
X375Y2525*
X377Y2523*
X378Y2523*
X379Y2522*
X380Y2521*
X384Y2519*
X387Y2517*
X388Y2516*
X391Y2514*
X399Y2508*
X400Y2508*
X407Y2503*
X410Y2501*
X415Y2497*
X418Y2495*
X419Y2495*
X421Y2493*
X425Y2491*
X431Y2487*
X432Y2487*
X433Y2486*
X433Y2485*
X437Y2483*
X443Y2479*
X444Y2479*
X446Y2478*
X453Y2473*
X455Y2472*
X459Y2470*
X465Y2466*
X466Y2465*
X469Y2463*
X470Y2462*
X472Y2461*
X476Y2459*
X482Y2455*
X483Y2454*
X484Y2453*
X488Y2451*
X494Y2447*
X495Y2446*
X496Y2445*
X500Y2443*
X501Y2442*
X504Y2440*
X510Y2436*
X511Y2436*
X512Y2434*
X515Y2432*
X516Y2431*
X519Y2429*
X520Y2428*
X521Y2428*
X527Y2424*
X534Y2418*
X534Y2418*
X536Y2417*
X537Y2415*
X538Y2415*
X542Y2412*
X542Y2411*
X543Y2411*
X547Y2407*
X549Y2406*
X551Y2403*
X553Y2403*
X558Y2398*
X559Y2397*
X574Y2382*
X574Y2381*
X580Y2375*
X584Y2376*
X587Y2377*
X589Y2377*
X590Y2379*
X587Y2382*
X587Y2383*
X585Y2385*
X584Y2386*
X579Y2391*
X579Y2392*
X568Y2402*
X567Y2403*
X560Y2410*
X559Y2410*
X557Y2413*
X555Y2414*
X551Y2418*
X550Y2418*
X548Y2420*
X547Y2421*
X545Y2423*
X544Y2423*
X541Y2426*
X538Y2429*
X536Y2430*
X527Y2437*
X523Y2440*
X521Y2440*
X520Y2441*
X519Y2442*
X511Y2448*
X510Y2448*
X506Y2451*
X505Y2452*
X504Y2453*
X503Y2453*
X499Y2456*
X498Y2457*
X494Y2459*
X493Y2459*
X492Y2461*
X489Y2462*
X486Y2465*
X485Y2465*
X483Y2466*
X480Y2469*
X473Y2472*
X472Y2473*
X471Y2474*
X467Y2476*
X461Y2480*
X460Y2481*
X459Y2482*
X455Y2484*
X451Y2487*
X450Y2487*
X449Y2488*
X446Y2490*
X442Y2492*
X441Y2493*
X437Y2496*
X429Y2501*
X421Y2506*
X417Y2509*
X410Y2514*
X406Y2516*
X396Y2523*
X395Y2524*
X393Y2526*
X392Y2526*
X385Y2532*
X383Y2533*
X376Y2538*
X375Y2539*
X374Y2540*
X373Y2542*
X371Y2542*
X369Y2544*
X368Y2545*
X366Y2547*
X365Y2548*
X362Y2550*
X361Y2551*
X358Y2553*
X357Y2554*
X354Y2557*
X353Y2557*
X346Y2565*
X345Y2565*
X335Y2575*
X334Y2576*
X329Y2582*
X328Y2583*
X324Y2588*
X323Y2589*
X320Y2592*
X319Y2593*
X317Y2596*
X316Y2597*
X315Y2599*
X313Y2599*
G37*
G36*
X546Y2385D02*
X545Y2384D01*
X544Y2379*
X543Y2376*
X543Y2371*
X546Y2368*
X547Y2367*
X547Y2366*
X548Y2365*
X550Y2364*
X553Y2365*
X554Y2366*
X555Y2369*
X555Y2372*
X556Y2373*
X557Y2374*
X561Y2376*
X564Y2375*
X566Y2375*
X566Y2374*
X568Y2373*
X569Y2371*
X572Y2371*
X575Y2373*
X573Y2377*
X567Y2383*
X563Y2384*
X560Y2384*
X552Y2385*
X546Y2385*
G37*
G36*
X464Y2392D02*
X463Y2391D01*
X466Y2386*
X467Y2385*
X467Y2384*
X470Y2381*
X475Y2376*
X476Y2375*
X478Y2373*
X480Y2372*
X486Y2368*
X488Y2368*
X493Y2365*
X499Y2364*
X506Y2363*
X508Y2362*
X519Y2362*
X521Y2362*
X522Y2364*
X518Y2369*
X517Y2370*
X516Y2371*
X512Y2373*
X510Y2372*
X504Y2373*
X501Y2374*
X498Y2374*
X497Y2375*
X496Y2375*
X494Y2376*
X489Y2378*
X488Y2380*
X487Y2380*
X484Y2383*
X482Y2384*
X481Y2385*
X480Y2386*
X477Y2390*
X476Y2392*
X473Y2392*
X464Y2392*
G37*
G36*
X291Y2583D02*
X288Y2581D01*
X285Y2579*
X284Y2576*
X288Y2571*
X290Y2568*
X294Y2562*
X295Y2561*
X296Y2559*
X298Y2557*
X299Y2555*
X300Y2554*
X301Y2553*
X302Y2551*
X304Y2549*
X305Y2548*
X307Y2546*
X308Y2545*
X310Y2542*
X311Y2541*
X329Y2523*
X330Y2522*
X336Y2517*
X337Y2516*
X340Y2513*
X341Y2513*
X344Y2510*
X345Y2509*
X347Y2507*
X348Y2506*
X350Y2504*
X352Y2504*
X353Y2502*
X354Y2501*
X356Y2500*
X357Y2500*
X358Y2499*
X359Y2498*
X361Y2496*
X362Y2496*
X363Y2494*
X365Y2493*
X368Y2491*
X391Y2474*
X392Y2474*
X393Y2472*
X395Y2472*
X403Y2466*
X404Y2466*
X405Y2465*
X406Y2464*
X412Y2460*
X413Y2459*
X414Y2458*
X417Y2457*
X422Y2453*
X423Y2452*
X425Y2451*
X426Y2450*
X433Y2446*
X434Y2445*
X436Y2443*
X442Y2439*
X456Y2429*
X456Y2429*
X457Y2428*
X468Y2420*
X470Y2419*
X472Y2418*
X473Y2417*
X474Y2415*
X476Y2415*
X479Y2412*
X481Y2411*
X482Y2410*
X483Y2409*
X486Y2406*
X487Y2406*
X489Y2404*
X490Y2403*
X493Y2401*
X494Y2400*
X496Y2398*
X497Y2397*
X498Y2396*
X499Y2395*
X507Y2387*
X508Y2387*
X509Y2386*
X517Y2378*
X517Y2377*
X519Y2374*
X520Y2373*
X522Y2371*
X523Y2370*
X525Y2368*
X525Y2367*
X527Y2365*
X527Y2364*
X530Y2361*
X531Y2359*
X532Y2358*
X541Y2361*
X542Y2362*
X543Y2362*
X543Y2365*
X542Y2366*
X541Y2367*
X539Y2369*
X539Y2370*
X536Y2373*
X535Y2374*
X531Y2378*
X530Y2379*
X525Y2384*
X525Y2386*
X523Y2386*
X523Y2387*
X522Y2388*
X521Y2389*
X520Y2390*
X519Y2391*
X517Y2392*
X517Y2393*
X516Y2394*
X507Y2402*
X506Y2403*
X506Y2403*
X505Y2404*
X502Y2407*
X500Y2408*
X496Y2412*
X495Y2413*
X493Y2415*
X492Y2415*
X490Y2417*
X489Y2418*
X487Y2420*
X486Y2420*
X484Y2422*
X483Y2423*
X482Y2424*
X481Y2424*
X479Y2426*
X478Y2427*
X477Y2428*
X476Y2428*
X474Y2429*
X473Y2430*
X472Y2432*
X470Y2432*
X469Y2433*
X468Y2434*
X465Y2437*
X442Y2453*
X440Y2454*
X439Y2455*
X438Y2455*
X430Y2461*
X429Y2462*
X421Y2467*
X420Y2468*
X419Y2469*
X418Y2470*
X414Y2472*
X413Y2473*
X412Y2474*
X410Y2475*
X403Y2480*
X401Y2481*
X400Y2482*
X399Y2483*
X388Y2491*
X385Y2493*
X384Y2494*
X381Y2496*
X380Y2497*
X379Y2497*
X378Y2499*
X376Y2499*
X375Y2500*
X374Y2501*
X373Y2502*
X372Y2502*
X370Y2504*
X369Y2505*
X368Y2506*
X367Y2506*
X365Y2508*
X364Y2509*
X362Y2510*
X361Y2511*
X359Y2513*
X358Y2513*
X356Y2516*
X355Y2516*
X353Y2518*
X352Y2519*
X349Y2521*
X348Y2522*
X345Y2525*
X344Y2525*
X340Y2529*
X339Y2530*
X333Y2535*
X332Y2536*
X332Y2537*
X331Y2538*
X330Y2538*
X329Y2540*
X328Y2540*
X327Y2541*
X327Y2542*
X316Y2553*
X316Y2554*
X313Y2556*
X313Y2557*
X311Y2559*
X310Y2561*
X306Y2564*
X305Y2566*
X303Y2568*
X303Y2569*
X300Y2572*
X298Y2576*
X297Y2576*
X296Y2578*
X292Y2583*
X291Y2583*
G37*
G36*
X210Y2400D02*
X202Y2399D01*
X201Y2399*
X200Y2395*
X200Y2393*
X199Y2390*
X198Y2389*
Y2388*
X198Y2385*
X196Y2379*
X194Y2375*
X192Y2371*
X192Y2369*
X193Y2365*
X196Y2360*
X196Y2359*
X197Y2358*
X199Y2359*
X200Y2363*
X202Y2366*
X202Y2368*
X204Y2373*
X205Y2375*
X207Y2383*
X207Y2385*
X210Y2392*
X211Y2396*
X211Y2399*
X210Y2400*
G37*
G36*
X447Y2397D02*
X446Y2396D01*
X446Y2392*
X448Y2391*
X448Y2388*
X450Y2383*
X450Y2380*
X451Y2378*
X451Y2374*
X452Y2371*
X453Y2363*
X453Y2349*
X453Y2348*
X452Y2341*
X451Y2338*
X451Y2336*
X455Y2336*
X460Y2338*
X462Y2339*
X466Y2340*
X470Y2342*
X472Y2342*
X472*
X475Y2343*
X477Y2344*
X481Y2345*
X486Y2347*
X489Y2348*
X494Y2350*
X497Y2351*
X512Y2356*
X512Y2357*
X511Y2358*
X507Y2358*
X500Y2359*
X499Y2359*
X496Y2360*
X493Y2361*
X490Y2362*
X486Y2364*
X478Y2368*
X477Y2369*
X474Y2371*
X473Y2372*
X472Y2372*
X466Y2379*
X465Y2380*
X463Y2382*
X460Y2387*
X459Y2388*
X457Y2393*
X449Y2396*
X447Y2397*
G37*
%LNbase_pcb1_soldermask_top-3*%
%LPD*%
G36*
X546Y2556D02*
X547Y2553D01*
X547Y2550*
X545Y2548*
X540Y2549*
X539Y2550*
Y2554*
Y2554*
X540Y2556*
X542Y2556*
X546Y2556*
G37*
G36*
X309Y2502D02*
X311Y2501D01*
X311Y2500*
X311Y2499*
X313Y2495*
X312Y2489*
X308Y2484*
X307Y2483*
X303Y2481*
X296Y2482*
X292Y2484*
X291Y2485*
X291Y2486*
X290Y2487*
X288Y2490*
X288Y2495*
X289Y2497*
X291Y2501*
X294Y2504*
X297Y2505*
X303Y2505*
X309Y2502*
G37*
%LNbase_pcb1_soldermask_top-4*%
%LPC*%
G36*
X300Y2501D02*
X296Y2500D01*
X296Y2499*
X294Y2499*
X293Y2495*
X292Y2493*
X293Y2490*
X295Y2488*
X297Y2486*
X299Y2485*
X301Y2485*
X304Y2486*
X307Y2489*
X308Y2491*
X308Y2496*
Y2497*
X305Y2500*
X302Y2501*
X300Y2501*
G37*
%LNbase_pcb1_soldermask_top-5*%
%LPD*%
G36*
X412Y2413D02*
X414Y2411D01*
X414Y2410*
X416Y2408*
X417Y2407*
X418Y2405*
X424Y2393*
X424Y2391*
X426Y2387*
X426Y2387*
X427Y2380*
X428Y2378*
X428Y2370*
X429Y2368*
X428Y2356*
X427Y2355*
X425Y2355*
X423Y2357*
X421Y2360*
X419Y2360*
X417Y2360*
X410Y2360*
X406Y2363*
X406Y2363*
X404Y2366*
X404Y2369*
X403Y2376*
X404Y2395*
X404Y2396*
X405Y2401*
X406Y2404*
X407Y2407*
X408Y2410*
X408Y2414*
X410Y2414*
X412Y2413*
G37*
%LNbase_pcb1_soldermask_top-6*%
%LPC*%
G36*
X412Y2405D02*
X411Y2404D01*
X410Y2402*
X409Y2399*
X409Y2396*
X408Y2392*
X408Y2388*
X409Y2387*
X416Y2388*
X418Y2388*
X420Y2389*
X420Y2391*
X420Y2391*
X420Y2391*
X418Y2395*
X413Y2405*
X412Y2405*
G37*
G36*
X419Y2384D02*
X411Y2383D01*
X408Y2382*
X408Y2380*
X408Y2375*
X409Y2373*
X413Y2375*
X414Y2375*
X414*
X418Y2375*
X423Y2375*
X423Y2379*
X423Y2381*
X422Y2382*
X421Y2383*
X419Y2384*
G37*
%LNbase_pcb1_soldermask_top-7*%
%LPD*%
G36*
X504Y2427D02*
X506Y2425D01*
X506Y2422*
X504Y2420*
X500Y2421*
X499Y2422*
X500Y2425*
X501Y2427*
X503Y2427*
X504Y2427*
G37*
G36*
X519Y2416D02*
X520Y2415D01*
X520Y2415*
X522Y2413*
X521Y2410*
X520Y2410*
X519Y2409*
X517Y2408*
X516Y2409*
X514Y2410*
X514Y2412*
X514Y2414*
X516Y2416*
X519Y2416*
G37*
G36*
X534Y2405D02*
X535Y2403D01*
X536Y2401*
X535Y2399*
X534Y2397*
X531Y2396*
X529Y2397*
X528Y2398*
X527Y2401*
X528Y2404*
X528Y2404*
X528Y2404*
X531Y2405*
X534Y2405*
G37*
%LNbase_pcb1_soldermask_top-8*%
%LPC*%
G36*
X191Y1916D02*
X190Y1916D01*
X183Y1916*
X182Y1915*
X182Y1905*
X183Y1905*
X183Y1905*
X184Y1903*
X184Y1903*
X184Y1902*
X184Y1901*
X184Y1900*
X185Y1900*
X185Y1898*
X186Y1898*
X186Y1897*
X187Y1895*
X187Y1894*
X187Y1894*
X188Y1894*
X188Y1893*
X189Y1893*
X189Y1891*
X190Y1891*
X190Y1890*
X191Y1890*
X191Y1889*
X191Y1888*
X191Y1887*
X193Y1886*
X193Y1886*
X193Y1884*
X193Y1884*
X194Y1884*
X194Y1882*
X195Y1881*
X195Y1881*
X195Y1880*
X195Y1880*
X196Y1879*
X196Y1879*
X197Y1879*
X197Y1878*
X197Y1877*
X198Y1876*
X199Y1875*
X199Y1873*
X200Y1873*
X200Y1872*
X200Y1872*
X201Y1871*
X201Y1871*
X201Y1870*
X203Y1869*
X203Y1869*
X204Y1866*
X205Y1865*
X205Y1865*
X205Y1864*
X206Y1864*
X205Y1863*
X206Y1863*
X206Y1863*
X208Y1861*
X208Y1861*
X208Y1860*
X209Y1860*
X209Y1858*
X209Y1857*
X210Y1857*
X210Y1857*
X213Y1854*
X213Y1854*
X213Y1851*
X214Y1851*
X214Y1850*
X215Y1850*
X215Y1849*
X215Y1849*
X216Y1848*
X217Y1848*
X217Y1848*
X217Y1846*
X218Y1845*
X219Y1844*
X220Y1844*
X220Y1843*
X221Y1842*
X221Y1841*
X224Y1839*
X224Y1837*
X226Y1835*
X227Y1835*
X227Y1834*
X227Y1834*
X227Y1833*
X228Y1833*
X228Y1832*
X229Y1832*
X229Y1831*
X229Y1831*
X230Y1831*
X230Y1829*
X231Y1828*
X231Y1827*
X232Y1827*
X232Y1826*
X232Y1826*
X233Y1825*
X233Y1825*
X233Y1824*
X234Y1823*
X238Y1820*
X237Y1819*
X239Y1817*
X240Y1817*
X240Y1814*
X241Y1813*
X241Y1813*
X242Y1812*
X242Y1812*
X243Y1811*
X243Y1811*
X244Y1810*
X244Y1809*
X245Y1808*
X245Y1808*
X246Y1807*
X246Y1807*
X246Y1806*
X246Y1805*
X250Y1802*
X250Y1800*
X251Y1800*
X251Y1800*
X251Y1798*
X252Y1798*
X252Y1798*
X252Y1797*
X253Y1797*
X253Y1797*
X253Y1796*
X254Y1796*
X254Y1796*
X255Y1795*
X255Y1794*
X256Y1793*
X256Y1792*
X257Y1792*
X257Y1791*
X258Y1791*
X258Y1789*
X259Y1789*
X259Y1787*
X260Y1787*
X260Y1786*
X262Y1786*
X262Y1786*
X262Y1785*
X263Y1785*
X263Y1784*
X264Y1784*
X264Y1784*
X264Y1783*
X264Y1783*
X264Y1782*
X266Y1782*
X266Y1782*
X266Y1781*
X267Y1781*
X268Y1780*
X268Y1780*
X268Y1779*
X268Y1776*
X269Y1776*
X269Y1775*
X269Y1774*
X270Y1773*
X270Y1773*
X271Y1772*
X272Y1772*
X273Y1770*
X275Y1770*
X276Y1770*
X276Y1766*
X277Y1766*
X277Y1765*
X279Y1765*
X279Y1764*
X279Y1762*
X279Y1762*
X279Y1762*
X283Y1758*
X283Y1757*
X286Y1754*
X286Y1754*
X286Y1753*
X287Y1752*
X287Y1752*
X288Y1750*
X288Y1750*
X289Y1749*
X289Y1749*
X290Y1748*
X290Y1748*
X290Y1748*
X291Y1747*
X292Y1747*
X293Y1746*
X293Y1746*
X294Y1745*
X294Y1745*
X295Y1745*
X295Y1744*
X295Y1742*
X295Y1742*
X296Y1741*
X296Y1741*
X296Y1741*
X296Y1741*
X297Y1740*
X297Y1739*
X298Y1738*
X301Y1735*
X301Y1734*
X303Y1732*
X303Y1732*
X303Y1729*
X304Y1729*
X305Y1728*
X306Y1728*
X307Y1727*
X307Y1726*
X308Y1725*
X308Y1725*
X308Y1724*
X309Y1724*
X309Y1723*
X310Y1723*
X310Y1723*
X311Y1722*
X311Y1722*
X311Y1721*
X312Y1721*
X312Y1720*
X313Y1720*
X313Y1718*
X315Y1718*
X315Y1718*
X315Y1717*
X316Y1717*
X316Y1716*
X316Y1715*
X316Y1714*
X317Y1714*
X317Y1713*
X317Y1713*
X318Y1713*
X318Y1713*
X318Y1711*
X323Y1706*
X323Y1706*
X324Y1705*
X324Y1704*
X324Y1704*
X324Y1704*
X325Y1703*
X325Y1703*
X326Y1703*
X326Y1702*
X326Y1702*
X327Y1701*
X326Y1701*
X327Y1700*
X327Y1700*
X328Y1699*
X329Y1699*
X329Y1698*
X329Y1698*
X330Y1698*
X330Y1696*
X331Y1696*
X331Y1695*
X332Y1695*
X332Y1694*
X332Y1693*
X332Y1693*
X333Y1693*
X336Y1689*
X336Y1689*
X337Y1689*
X337Y1688*
X337Y1687*
X337Y1687*
X338Y1686*
X341Y1683*
X342Y1681*
X342Y1681*
X342Y1681*
X343Y1680*
X343Y1680*
X343Y1680*
X344Y1678*
X344Y1678*
X344Y1678*
X345Y1677*
X346Y1677*
X346Y1676*
X347Y1675*
X347Y1675*
X348Y1675*
X348Y1674*
X348Y1673*
X348Y1673*
X349Y1672*
X349Y1671*
X350Y1670*
X353Y1667*
X353Y1666*
X354Y1666*
X354Y1666*
X354Y1665*
X356Y1663*
X357Y1661*
X357Y1661*
X357Y1661*
X357Y1660*
X360Y1658*
X360Y1658*
X361Y1656*
X361Y1656*
X362Y1655*
X362Y1655*
X362Y1654*
X363Y1654*
X363Y1654*
X363Y1653*
X364Y1652*
X365Y1652*
X365Y1651*
X365Y1650*
X366Y1650*
X366Y1649*
X367Y1649*
X367Y1649*
X367Y1648*
X368Y1648*
X368Y1647*
X369Y1647*
X369Y1646*
X369Y1646*
X369Y1645*
X370Y1645*
X370Y1644*
X370Y1644*
X371Y1644*
X372Y1642*
X372Y1642*
X373Y1641*
X373Y1640*
X374Y1640*
X378Y1636*
X378Y1634*
X378Y1633*
X378Y1633*
X379Y1633*
X379Y1632*
X380Y1632*
X380Y1632*
X380Y1631*
X381Y1631*
X381Y1630*
X382Y1630*
X382Y1628*
X383Y1628*
X383Y1627*
X384Y1627*
X384Y1626*
X384Y1625*
X385Y1625*
X385Y1624*
X385Y1624*
X386Y1624*
X386Y1623*
X386Y1623*
X387Y1623*
X387Y1622*
X387Y1621*
X388Y1621*
X390Y1618*
X390Y1617*
X392Y1615*
X392Y1615*
X393Y1613*
X393Y1613*
X393Y1613*
X394Y1612*
X394Y1612*
X395Y1611*
X395Y1611*
X395Y1611*
X396Y1610*
X396Y1610*
X396Y1610*
X397Y1608*
X397Y1608*
X398Y1608*
X398Y1607*
X398Y1607*
X399Y1606*
X399Y1606*
X400Y1605*
X400Y1605*
X401Y1604*
X401Y1604*
X401Y1603*
X401Y1603*
X402Y1602*
X402Y1602*
X402Y1602*
X403Y1601*
X403Y1601*
X403Y1600*
X404Y1600*
X404Y1600*
X404Y1600*
X405Y1599*
X405Y1597*
X406Y1597*
X407Y1596*
X407Y1595*
X407Y1594*
X407Y1593*
X408Y1593*
X408Y1593*
X409Y1592*
X409Y1592*
X409Y1591*
X410Y1591*
X410Y1591*
X410Y1590*
X411Y1590*
X411Y1590*
X412Y1589*
X412Y1589*
X412Y1589*
X413Y1587*
X413Y1587*
X413Y1586*
X414Y1586*
X414Y1585*
X415Y1585*
X415Y1585*
X416Y1584*
X416Y1583*
X417Y1583*
X417Y1583*
X417Y1582*
X417Y1582*
X418Y1581*
X418Y1580*
X420Y1580*
X420Y1580*
X420Y1579*
X421Y1579*
X421Y1577*
X422Y1577*
X422Y1576*
X423Y1576*
X423Y1576*
X423Y1574*
X425Y1573*
X428Y1569*
X429Y1568*
X430Y1566*
X431Y1566*
X431Y1565*
X431Y1564*
X432Y1564*
X432Y1564*
X432Y1563*
X432Y1563*
X433Y1561*
X433Y1561*
X434Y1561*
X434Y1560*
X435Y1560*
X435Y1559*
X436Y1559*
X436Y1558*
X437Y1558*
X437Y1557*
X437Y1557*
X438Y1557*
X438Y1556*
X438Y1555*
X438Y1555*
X439Y1555*
X440Y1554*
X440Y1554*
X441Y1553*
X441Y1552*
X442Y1551*
X443Y1551*
X443Y1550*
X443Y1549*
X444Y1549*
X444Y1548*
X448Y1545*
X448Y1544*
X449Y1542*
X450Y1542*
X450Y1540*
X450Y1540*
X451Y1540*
X451Y1539*
X451Y1539*
X452Y1539*
X452Y1538*
X452Y1538*
X453Y1538*
X453Y1537*
X454Y1537*
X454Y1536*
X454Y1535*
X454Y1535*
X455Y1534*
X455Y1534*
X457Y1533*
X457Y1533*
X458Y1532*
X458Y1532*
X458Y1531*
X458Y1531*
X459Y1530*
X459Y1530*
X460Y1529*
X460Y1529*
X460Y1529*
X461Y1528*
X461Y1528*
X462Y1527*
X462Y1527*
X462Y1527*
X463Y1525*
X463Y1525*
X464Y1524*
X464Y1524*
X465Y1522*
X465Y1522*
X465Y1522*
X468Y1519*
X468Y1518*
X468Y1518*
X470Y1516*
X470Y1516*
X471Y1515*
X471Y1515*
X471Y1514*
X471Y1513*
X472Y1513*
X472Y1513*
X473Y1512*
X473Y1512*
X473Y1512*
X474Y1511*
X474Y1511*
X474Y1510*
X474Y1510*
X475Y1509*
X475Y1509*
X476Y1508*
X476Y1508*
X476Y1507*
X477Y1507*
X477Y1507*
X478Y1506*
X478Y1506*
X478Y1506*
X479Y1505*
X479Y1505*
X479Y1504*
X479Y1504*
X480Y1503*
X480Y1503*
X481Y1502*
X481Y1502*
X481Y1502*
X481Y1501*
X482Y1501*
X483Y1500*
X483Y1500*
X484Y1499*
X484Y1499*
X485Y1498*
X485Y1498*
X487Y1497*
X487Y1496*
X488Y1496*
X488Y1493*
X489Y1493*
X489Y1491*
X490Y1491*
X498Y1483*
X498Y1483*
X499Y1482*
X500Y1482*
X500Y1482*
X500Y1482*
X501Y1481*
X501Y1479*
X501Y1478*
X502Y1478*
X502Y1478*
X502Y1477*
X503Y1477*
X503Y1475*
X503Y1475*
X504Y1475*
X504Y1474*
X505Y1474*
X505Y1473*
X505Y1473*
X506Y1473*
X506Y1472*
X507Y1472*
X507Y1471*
X507Y1471*
X508Y1471*
X508Y1470*
X510Y1470*
X510Y1470*
X511Y1470*
X511Y1469*
X512Y1468*
X512Y1467*
X513Y1467*
X514Y1467*
X514Y1467*
X514Y1469*
X513Y1469*
X513Y1473*
X513Y1473*
X512Y1473*
X512Y1474*
X512Y1476*
X512Y1476*
X511Y1476*
X511Y1477*
X510Y1478*
X510Y1479*
X509Y1480*
X509Y1483*
X509Y1484*
X508Y1484*
X508Y1486*
X507Y1486*
X507Y1488*
X506Y1488*
X506Y1489*
X506Y1489*
X506Y1490*
X505Y1490*
X505Y1490*
X505Y1492*
X504Y1492*
X504Y1494*
X503Y1494*
X503Y1495*
X503Y1497*
X502Y1498*
X501Y1498*
X501Y1499*
X501Y1501*
X501Y1502*
X501Y1503*
X500Y1504*
X500Y1504*
X499Y1505*
X499Y1505*
X498Y1507*
X497Y1507*
X497Y1508*
X496Y1509*
X496Y1510*
X496Y1510*
X495Y1511*
X495Y1512*
X495Y1512*
X494Y1513*
X494Y1514*
X494Y1514*
X493Y1515*
X493Y1515*
X492Y1516*
X492Y1517*
X491Y1518*
X491Y1520*
X490Y1520*
X490Y1521*
X490Y1522*
X490Y1523*
X487Y1526*
X487Y1528*
X486Y1528*
X486Y1529*
X485Y1529*
X485Y1530*
X485Y1530*
X485Y1531*
X484Y1531*
X484Y1532*
X483Y1533*
X483Y1534*
X482Y1534*
X482Y1535*
X482Y1535*
X481Y1535*
X481Y1538*
X481Y1538*
X481Y1538*
X480Y1538*
X480Y1539*
X479Y1539*
X479Y1540*
X479Y1541*
X479Y1542*
X479Y1542*
X478Y1543*
X477Y1544*
X477Y1545*
X476Y1546*
X475Y1547*
X475Y1549*
X475Y1550*
X474Y1550*
X474Y1550*
X473Y1551*
X473Y1551*
X473Y1552*
X473Y1553*
X472Y1553*
X472Y1554*
X471Y1554*
X471Y1555*
X470Y1555*
X470Y1555*
X470Y1557*
X470Y1557*
X470Y1558*
X469Y1558*
X469Y1559*
X469Y1559*
X469Y1560*
X468Y1560*
X467Y1561*
X467Y1561*
X466Y1563*
X466Y1563*
X466Y1563*
X466Y1564*
X465Y1564*
X465Y1565*
X464Y1566*
X464Y1567*
X463Y1567*
X464Y1568*
X463Y1569*
X463Y1569*
X462Y1570*
X462Y1570*
X461Y1570*
X461Y1571*
X460Y1571*
X460Y1573*
X459Y1573*
X459Y1574*
X459Y1574*
X458Y1575*
X458Y1575*
X458Y1576*
X457Y1576*
X457Y1578*
X454Y1580*
X454Y1581*
X454Y1582*
X453Y1583*
X453Y1583*
X452Y1583*
X452Y1584*
X452Y1585*
X452Y1585*
X452Y1586*
X450Y1588*
X450Y1588*
X449Y1589*
X449Y1589*
X448Y1591*
X448Y1591*
X447Y1592*
X448Y1592*
X446Y1594*
X446Y1594*
X445Y1596*
X445Y1596*
X444Y1597*
X444Y1599*
X443Y1600*
X443Y1600*
X443Y1600*
X442Y1601*
X442Y1601*
X442Y1602*
X442Y1602*
X442Y1603*
X439Y1605*
X439Y1607*
X438Y1607*
X438Y1607*
X438Y1607*
X436Y1609*
X436Y1609*
X436Y1610*
X436Y1612*
X435Y1612*
X435Y1612*
X434Y1613*
X434Y1613*
X434Y1614*
X433Y1614*
X433Y1615*
X432Y1616*
X432Y1617*
X432Y1618*
X431Y1619*
X430Y1620*
X430Y1621*
X430Y1621*
X429Y1623*
X429Y1623*
X429Y1623*
X428Y1625*
X430Y1627*
X432Y1627*
X432Y1628*
X433Y1628*
X433Y1628*
X434Y1628*
X434Y1627*
X436Y1627*
X436Y1626*
X436Y1626*
X437Y1625*
X437Y1625*
X439Y1625*
X440Y1624*
X440Y1624*
X440Y1623*
X441Y1623*
X441Y1622*
X441Y1622*
X442Y1621*
X443Y1620*
X445Y1619*
X446Y1618*
X446Y1618*
X447Y1618*
X447Y1618*
X448Y1617*
X448Y1618*
X450Y1618*
X449Y1621*
X449Y1621*
X448Y1622*
X448Y1622*
X447Y1622*
X447Y1623*
X447Y1623*
X446Y1623*
X446Y1624*
X446Y1624*
X445Y1624*
X445Y1626*
X445Y1626*
X444Y1626*
X444Y1628*
X444Y1628*
X443Y1628*
X443Y1629*
X437Y1635*
X437Y1635*
X437Y1635*
X437Y1636*
X436Y1637*
X436Y1637*
X435Y1638*
X435Y1638*
X435Y1638*
X434Y1639*
X434Y1639*
X433Y1641*
X433Y1641*
X432Y1642*
X432Y1642*
X431Y1643*
X430Y1643*
X429Y1644*
X429Y1644*
X428Y1647*
X427Y1648*
X427Y1648*
X427Y1648*
X426Y1649*
X426Y1649*
X426Y1650*
X426Y1650*
X426Y1650*
X423Y1653*
X423Y1654*
X420Y1657*
X420Y1657*
X420Y1659*
X419Y1659*
X419Y1659*
X418Y1660*
X418Y1660*
X418Y1662*
X417Y1663*
X416Y1663*
X416Y1663*
X416Y1664*
X415Y1664*
X415Y1664*
X414Y1665*
X413Y1666*
X412Y1666*
X411Y1667*
X411Y1669*
X411Y1669*
X411Y1670*
X410Y1670*
X410Y1670*
X410Y1671*
X409Y1671*
X409Y1672*
X408Y1673*
X408Y1674*
X407Y1676*
X406Y1676*
X406Y1678*
X405Y1678*
X405Y1679*
X405Y1680*
X405Y1682*
X408Y1684*
X410Y1684*
X410Y1684*
X411Y1683*
X412Y1683*
X413Y1682*
X415Y1682*
X415Y1681*
X416Y1681*
X416Y1680*
X416Y1680*
X418Y1680*
X418Y1679*
X420Y1679*
X420Y1677*
X421Y1677*
X421Y1677*
X422Y1676*
X424Y1674*
X425Y1674*
X426Y1673*
X426Y1673*
X427Y1673*
X427Y1673*
X428Y1672*
X428Y1672*
X428Y1671*
X429Y1671*
X429Y1671*
X429Y1670*
X430Y1670*
X430Y1670*
X431Y1669*
X431Y1669*
X432Y1668*
X433Y1667*
X434Y1667*
X434Y1667*
X434Y1666*
X435Y1666*
X435Y1665*
X436Y1665*
X436Y1665*
X436Y1664*
X437Y1664*
X437Y1663*
X439Y1663*
X440Y1662*
X441Y1662*
X441Y1661*
X442Y1661*
X442Y1661*
X442Y1660*
X442Y1660*
X443Y1659*
X443Y1659*
X443Y1658*
X444Y1658*
X444Y1657*
X445Y1657*
X445Y1657*
X445Y1657*
X445Y1656*
X446Y1656*
X446Y1655*
X447Y1655*
X447Y1654*
X447Y1654*
X448Y1654*
X448Y1653*
X449Y1653*
X449Y1653*
X449Y1652*
X450Y1652*
X450Y1652*
X450Y1651*
X451Y1651*
X451Y1651*
X451Y1650*
X452Y1650*
X452Y1650*
X452Y1649*
X453Y1649*
X453Y1649*
X454Y1648*
X454Y1648*
X454Y1647*
X455Y1647*
X455Y1647*
X455Y1646*
X456Y1646*
X457Y1646*
X457Y1646*
X463Y1640*
X466Y1640*
X467Y1639*
X467Y1639*
X468Y1638*
X468Y1638*
X469Y1637*
X469Y1637*
X470Y1636*
X470Y1635*
X471Y1635*
X471Y1634*
X474Y1635*
X474Y1636*
X474Y1636*
X474Y1637*
X473Y1637*
X473Y1638*
X473Y1640*
X471Y1642*
X471Y1644*
X470Y1644*
X470Y1644*
X470Y1645*
X469Y1645*
X469Y1645*
X469Y1646*
X469Y1647*
X468Y1647*
X468Y1647*
X467Y1648*
X467Y1649*
X466Y1650*
X466Y1651*
X465Y1651*
X465Y1652*
X464Y1652*
X464Y1653*
X464Y1654*
X463Y1654*
X463Y1655*
X463Y1656*
X462Y1656*
X461Y1656*
X461Y1657*
X460Y1657*
X460Y1659*
X460Y1659*
X458Y1661*
X458Y1661*
X457Y1662*
X457Y1662*
X457Y1664*
X457Y1664*
X456Y1664*
X456Y1666*
X454Y1666*
X454Y1667*
X454Y1667*
X453Y1668*
X453Y1668*
X453Y1669*
X452Y1670*
X452Y1670*
X451Y1671*
X451Y1671*
X450Y1671*
X450Y1672*
X450Y1672*
X449Y1674*
X449Y1674*
X448Y1675*
X448Y1675*
X447Y1675*
X448Y1676*
X447Y1677*
X447Y1677*
X446Y1678*
X445Y1678*
X445Y1680*
X444Y1681*
X443Y1681*
X443Y1683*
X442Y1684*
X442Y1684*
X442Y1684*
X441Y1685*
X441Y1685*
X440Y1686*
X440Y1687*
X439Y1688*
X439Y1690*
X438Y1690*
X438Y1691*
X437Y1691*
X437Y1691*
X437Y1692*
X436Y1692*
X436Y1692*
X436Y1693*
X435Y1693*
X435Y1693*
X435Y1695*
X434Y1695*
X432Y1697*
X432Y1698*
X432Y1699*
X428Y1702*
X428Y1703*
X427Y1704*
X426Y1705*
X426Y1705*
X426Y1706*
X425Y1706*
X425Y1707*
X424Y1707*
X424Y1709*
X423Y1709*
X423Y1710*
X422Y1710*
X422Y1710*
X422Y1711*
X421Y1711*
X421Y1712*
X421Y1712*
X420Y1712*
X420Y1713*
X419Y1713*
X419Y1715*
X418Y1716*
X418Y1716*
X417Y1716*
X417Y1717*
X417Y1717*
X416Y1717*
X416Y1718*
X416Y1718*
X416Y1719*
X415Y1719*
X415Y1719*
X414Y1721*
X413Y1722*
X410Y1726*
X409Y1726*
X409Y1728*
X409Y1728*
X408Y1728*
X408Y1729*
X407Y1729*
X407Y1730*
X407Y1730*
X406Y1730*
X406Y1731*
X406Y1731*
X405Y1731*
X405Y1732*
X405Y1732*
X404Y1732*
X404Y1733*
X403Y1734*
X403Y1734*
X402Y1734*
X402Y1735*
X402Y1736*
X401Y1737*
X400Y1737*
X400Y1738*
X399Y1739*
X399Y1739*
X398Y1740*
X398Y1740*
X397Y1741*
X396Y1742*
X395Y1742*
X395Y1743*
X395Y1743*
X394Y1743*
X394Y1744*
X394Y1744*
X393Y1746*
X392Y1746*
X392Y1747*
X391Y1747*
X391Y1748*
X390Y1749*
X390Y1750*
X390Y1750*
X390Y1750*
X384Y1756*
X384Y1757*
X382Y1759*
X381Y1759*
X381Y1759*
X381Y1760*
X380Y1760*
X380Y1760*
X380Y1761*
X351Y1790*
X351Y1790*
X351Y1791*
X350Y1792*
X349Y1792*
X349Y1792*
X348Y1793*
X348Y1793*
X348Y1794*
X348Y1794*
X347Y1795*
X347Y1795*
X347Y1795*
X343Y1799*
X343Y1799*
X342Y1800*
X339Y1803*
X338Y1803*
X338Y1804*
X338Y1804*
X336Y1804*
X335Y1806*
X334Y1807*
X334Y1808*
X333Y1809*
X333Y1808*
X332Y1809*
X332Y1809*
X329Y1812*
X327Y1812*
X326Y1812*
X327Y1813*
X326Y1814*
X326Y1814*
X326Y1814*
X325Y1816*
X322Y1819*
X320Y1819*
X319Y1820*
X319Y1822*
X317Y1823*
X317Y1823*
X317Y1823*
X316Y1823*
X316Y1824*
X316Y1825*
X316Y1825*
X315Y1826*
X312Y1829*
X311Y1829*
X311Y1829*
X310Y1830*
X310Y1830*
X310Y1830*
X309Y1832*
X309Y1832*
X302Y1839*
X300Y1840*
X300Y1840*
X300Y1840*
X299Y1840*
X299Y1841*
X299Y1841*
X298Y1842*
X298Y1842*
X298Y1842*
X297Y1843*
X297Y1843*
X297Y1843*
X295Y1844*
X294Y1845*
X293Y1845*
X292Y1846*
X292Y1846*
X291Y1847*
X290Y1847*
X290Y1847*
X289Y1847*
X289Y1848*
X288Y1848*
X288Y1850*
X288Y1850*
X287Y1850*
X287Y1851*
X286Y1851*
X286Y1852*
X284Y1852*
X284Y1853*
X276Y1861*
X275Y1861*
X267Y1869*
X267Y1869*
X265Y1869*
X265Y1870*
X265Y1870*
X264Y1871*
X264Y1871*
X263Y1871*
X263Y1872*
X263Y1872*
X262Y1872*
X262Y1872*
X261Y1873*
X261Y1873*
X260Y1874*
X259Y1874*
X259Y1875*
X259Y1875*
X258Y1875*
X258Y1876*
X257Y1876*
X257Y1877*
X257Y1877*
X256Y1878*
X255Y1878*
X255Y1878*
X254Y1879*
X254Y1880*
X254Y1880*
X253Y1880*
X253Y1881*
X252Y1881*
X252Y1881*
X252Y1882*
X250Y1882*
X250Y1883*
X249Y1883*
X249Y1883*
X248Y1884*
X248Y1884*
X248Y1885*
X247Y1885*
X247Y1885*
X247Y1886*
X246Y1886*
X245Y1886*
X245Y1887*
X243Y1888*
X242Y1888*
X242Y1889*
X241Y1889*
X240Y1889*
X240Y1890*
X239Y1890*
X238Y1890*
X237Y1891*
X237Y1891*
X236Y1892*
X236Y1893*
X235Y1894*
X235Y1894*
X233Y1895*
X233Y1895*
X233Y1895*
X232Y1896*
X232Y1896*
X232Y1897*
X224Y1897*
X224Y1897*
X223Y1898*
X222Y1898*
X221Y1898*
X221Y1899*
X221Y1899*
X221Y1899*
X220Y1901*
X217Y1904*
X215Y1904*
X215Y1905*
X215Y1905*
X214Y1905*
X213Y1907*
X213Y1907*
X209Y1907*
X208Y1908*
X208Y1908*
X208Y1909*
X207Y1909*
X206Y1910*
X205Y1910*
X204Y1911*
X204Y1910*
X202Y1911*
X201Y1911*
X201Y1911*
X200Y1912*
X200Y1912*
X200Y1913*
X197Y1913*
X197Y1913*
X197Y1914*
X195Y1914*
X194Y1914*
X193Y1915*
X192Y1915*
X191Y1916*
X191Y1916*
G37*
G36*
X431Y1657D02*
X431Y1656D01*
X431Y1654*
X432Y1653*
X432Y1653*
X433Y1652*
X433Y1652*
X433Y1651*
X434Y1651*
X434Y1649*
X435Y1649*
X435Y1648*
X436Y1648*
X436Y1648*
Y1647*
X436Y1646*
X436Y1646*
X441Y1641*
X441Y1640*
X447Y1634*
X447Y1634*
X448Y1633*
X448Y1632*
X449Y1632*
X451Y1630*
X452Y1630*
X452Y1628*
X452Y1628*
X453Y1628*
X453Y1627*
X454Y1627*
X454Y1627*
X454Y1625*
X454Y1625*
X456Y1625*
X456Y1624*
X457Y1624*
X457Y1623*
X457Y1623*
X458Y1623*
X459Y1623*
X459Y1623*
X460Y1623*
X460Y1624*
X461Y1624*
X462Y1625*
X462Y1625*
X462Y1625*
X462Y1630*
X458Y1634*
X458Y1636*
X458Y1636*
X458Y1636*
X458Y1637*
X458Y1638*
X456Y1638*
X456Y1639*
X455Y1639*
X455Y1640*
X453Y1640*
X453Y1640*
X453Y1640*
X443Y1650*
X442Y1651*
X442Y1651*
X442Y1651*
X440Y1652*
X440Y1652*
X440Y1652*
X438Y1653*
X438Y1653*
X438Y1653*
X437Y1654*
X437Y1654*
X437Y1654*
X436Y1655*
X436Y1655*
X436Y1656*
X434Y1656*
X434Y1656*
X433Y1657*
X431Y1657*
G37*
G36*
X452Y1618D02*
X450Y1617D01*
X450Y1615*
X450Y1614*
X451Y1614*
X451Y1614*
X451Y1613*
X452Y1613*
X452Y1613*
X452Y1612*
X453Y1612*
X453Y1611*
X454Y1611*
X454Y1611*
X454Y1609*
X454Y1609*
X456Y1609*
X456Y1608*
X457Y1607*
X457Y1606*
X459Y1606*
X459Y1604*
Y1604*
X460Y1604*
X461Y1604*
X461Y1604*
X461Y1605*
X461Y1605*
X460Y1605*
X460Y1608*
X460Y1608*
X459Y1608*
X459Y1609*
X459Y1609*
X458Y1609*
X458Y1610*
X457Y1610*
X457Y1611*
X457Y1611*
X456Y1611*
X456Y1613*
X454Y1613*
X454Y1614*
X454Y1615*
X453Y1616*
X453Y1616*
X453Y1617*
X452Y1618*
G37*
G36*
X478Y1628D02*
X478Y1628D01*
X477Y1628*
X477Y1627*
X476Y1627*
X476Y1624*
X476Y1624*
X475Y1624*
X475Y1623*
X475Y1623*
X474Y1623*
X474Y1622*
X474Y1622*
X472Y1622*
X472Y1621*
X472Y1621*
X470Y1620*
X470Y1620*
X470Y1620*
X465Y1619*
X464Y1619*
X464Y1619*
X463Y1618*
X462Y1618*
X463Y1615*
X463Y1615*
X464Y1614*
X463Y1614*
X464Y1613*
X464Y1613*
X469Y1608*
X469Y1607*
X472Y1604*
X472Y1604*
X472Y1603*
X473Y1602*
X473Y1602*
X473Y1602*
X474Y1601*
X474Y1601*
X474Y1601*
X476Y1599*
X476Y1599*
X476Y1598*
X477Y1597*
X477Y1597*
X478Y1596*
X478Y1596*
X478Y1596*
X479Y1594*
X479Y1594*
X480Y1593*
X481Y1592*
X481Y1592*
X481Y1592*
X481Y1592*
X482Y1591*
X483Y1590*
X483Y1590*
X484Y1589*
X484Y1588*
X484Y1588*
X485Y1587*
X485Y1586*
X485Y1586*
X485Y1585*
X492Y1579*
X492Y1579*
X492Y1577*
X493Y1577*
X493Y1577*
X493Y1577*
X499Y1571*
X500Y1570*
X500Y1569*
X501Y1568*
X501Y1568*
X501Y1567*
X501Y1566*
X502Y1566*
X502Y1565*
X503Y1564*
X503Y1563*
X505Y1563*
X505Y1563*
X505Y1562*
X506Y1562*
X506Y1561*
X506Y1560*
X507Y1560*
X507Y1559*
X507Y1559*
X508Y1559*
X509Y1559*
X509Y1563*
X509Y1563*
X508Y1563*
X508Y1564*
X507Y1564*
X507Y1565*
X507Y1570*
X507Y1570*
X506Y1571*
X506Y1571*
X506Y1572*
X506Y1573*
X505Y1574*
X505Y1574*
X505Y1576*
X504Y1577*
X504Y1578*
X503Y1578*
X503Y1578*
X503Y1581*
X502Y1582*
X501Y1583*
X501Y1584*
X501Y1586*
X501Y1587*
X501Y1588*
X500Y1589*
X500Y1589*
X499Y1590*
X499Y1590*
X498Y1591*
X498Y1591*
X498Y1591*
X497Y1594*
X496Y1595*
X496Y1597*
X496Y1597*
X495Y1598*
X495Y1598*
X495Y1599*
X495Y1599*
X494Y1600*
X494Y1601*
X493Y1602*
X493Y1602*
X492Y1603*
X492Y1603*
X492Y1607*
X492Y1607*
X491Y1607*
X491Y1607*
X490Y1608*
X490Y1608*
X490Y1609*
X490Y1609*
X490Y1610*
X489Y1610*
X489Y1612*
X488Y1612*
X488Y1612*
X488Y1615*
X486Y1617*
X485Y1618*
X485Y1619*
X485Y1619*
X485Y1619*
X484Y1620*
X484Y1620*
X483Y1621*
X483Y1622*
X483Y1622*
X482Y1623*
X481Y1623*
X481Y1625*
X481Y1625*
X481*
X480Y1625*
X480Y1627*
X480Y1627*
X479Y1628*
X479Y1628*
X478Y1628*
G37*
G36*
X452Y1599D02*
X452Y1599D01*
X452Y1596*
X452Y1596*
X453Y1596*
X453Y1595*
X453Y1595*
X453Y1594*
X454Y1594*
X454Y1593*
X455Y1593*
X455Y1592*
X456Y1592*
X456Y1592*
X456Y1589*
X457Y1589*
X459Y1586*
X459Y1585*
X462Y1582*
X462Y1582*
X463Y1580*
X463Y1580*
X463Y1580*
X464Y1580*
X464Y1579*
X464Y1579*
X465Y1578*
X464Y1577*
X465Y1576*
X465Y1576*
X466Y1575*
X466Y1575*
X467Y1575*
X467Y1574*
X468Y1574*
X468Y1573*
X469Y1573*
X469Y1572*
X469Y1571*
X469Y1571*
X469Y1571*
X470Y1570*
X470Y1569*
X471Y1568*
X471Y1567*
X471Y1566*
X472Y1566*
X472Y1566*
X473Y1565*
X473Y1565*
X473Y1563*
X474Y1563*
X474Y1563*
X475Y1562*
X475Y1562*
X475Y1560*
X476Y1560*
X477Y1559*
X477Y1559*
X477Y1559*
X478Y1557*
X478Y1556*
X479Y1556*
X479Y1556*
X479Y1555*
X479Y1554*
X480Y1554*
X480Y1554*
X481Y1552*
X481Y1552*
X481Y1551*
X482Y1550*
X482Y1549*
X482Y1549*
X483Y1549*
X483Y1548*
X484Y1548*
X484Y1545*
X485Y1544*
X488Y1540*
X488Y1538*
X489Y1537*
X489Y1536*
X490Y1535*
X490Y1535*
X490Y1534*
X490Y1534*
X491Y1533*
X491Y1533*
X491Y1533*
X492Y1532*
X492Y1532*
X492Y1530*
X493Y1529*
X493Y1529*
X493Y1529*
X494Y1528*
X494Y1528*
X495Y1526*
X495Y1526*
X495Y1525*
X496Y1525*
X496Y1525*
X497Y1523*
X497Y1523*
X497Y1523*
X498Y1522*
X498Y1522*
X499Y1521*
X499Y1519*
X501Y1517*
X501Y1515*
X501Y1515*
X501Y1515*
X501Y1514*
X501Y1513*
X502Y1513*
X502Y1511*
X503Y1511*
X503Y1509*
X503Y1509*
X505Y1507*
X505Y1506*
X505Y1505*
X506Y1505*
X506Y1504*
X507Y1504*
X507Y1502*
X507Y1502*
X508Y1501*
X508Y1501*
X509Y1501*
X509Y1500*
X509Y1499*
X510Y1498*
X510Y1497*
X511Y1496*
X511Y1495*
X511Y1494*
X512Y1493*
X512Y1493*
X513Y1492*
X513Y1492*
X514Y1490*
X514Y1490*
X515Y1488*
X516Y1487*
X515Y1484*
X516Y1484*
X516Y1484*
X517Y1483*
X518Y1482*
X518Y1482*
X518Y1482*
X519Y1481*
X519Y1479*
X520Y1478*
X520Y1476*
X520Y1476*
X521Y1476*
X521Y1473*
X521Y1472*
X522Y1472*
X522Y1471*
X522Y1470*
X522Y1469*
X523Y1469*
X523Y1468*
X523Y1466*
X523Y1466*
X524Y1465*
X524Y1460*
X523Y1459*
X523Y1459*
X523Y1459*
X522Y1458*
X522Y1458*
X522Y1457*
X522Y1457*
X521Y1456*
X521Y1456*
X520Y1455*
X520Y1455*
X520Y1454*
X519Y1454*
X517Y1454*
X516Y1455*
X515Y1455*
X514Y1456*
X513Y1457*
X511Y1457*
X511Y1458*
X511Y1458*
X511Y1458*
X501Y1468*
X501Y1469*
X500Y1470*
X500Y1470*
X496Y1474*
X495Y1474*
X495Y1475*
X495Y1476*
X495Y1476*
X494Y1477*
X494Y1477*
X493Y1478*
X492Y1479*
X492Y1480*
X491Y1481*
X491Y1482*
X490Y1482*
X490Y1483*
X489Y1483*
X489Y1483*
X488Y1484*
X488Y1484*
X487Y1485*
X487Y1485*
X487Y1486*
X486Y1486*
X485Y1488*
X485Y1488*
X484Y1489*
X484Y1489*
X483Y1490*
X483Y1490*
X483Y1490*
X482Y1491*
X482Y1491*
X481Y1492*
X481Y1492*
X480Y1493*
X480Y1493*
X479Y1493*
X479Y1491*
X479Y1491*
X480Y1490*
X480Y1490*
X481Y1488*
X481Y1488*
X481Y1488*
X482Y1487*
X482Y1487*
X482Y1487*
X483Y1485*
X484Y1484*
X484Y1483*
X483Y1483*
X484Y1482*
X484Y1482*
X485Y1481*
X485Y1480*
X485Y1480*
X486Y1479*
X486Y1478*
X487Y1476*
X488Y1476*
X488Y1472*
X489Y1471*
X489Y1470*
X490Y1470*
X490Y1469*
X490Y1468*
X491Y1468*
X491Y1467*
X491Y1467*
X492Y1467*
X492Y1466*
X492Y1465*
X493Y1464*
X493Y1464*
X493Y1462*
X494Y1461*
X494Y1459*
X495Y1458*
X495Y1458*
X495Y1458*
X496Y1457*
X496Y1457*
X497Y1455*
X497Y1455*
X497Y1455*
X498Y1452*
X499Y1451*
X499Y1450*
X499Y1450*
X500Y1448*
X500Y1447*
X501Y1447*
X501Y1446*
X501Y1446*
X501Y1444*
X501Y1443*
X501Y1442*
X502Y1442*
X502Y1440*
X502Y1440*
X503Y1440*
X503Y1438*
X503Y1438*
X504Y1438*
X504Y1436*
X505Y1436*
X505Y1434*
X506Y1433*
X506Y1433*
X506Y1432*
X506Y1432*
X507Y1431*
X507Y1431*
X507Y1428*
X507Y1427*
X508Y1427*
X508Y1425*
X509Y1425*
X509Y1422*
X510Y1422*
X510Y1422*
X510Y1421*
X510Y1420*
X511Y1419*
X511Y1419*
X511Y1418*
X511Y1416*
X511Y1416*
X512Y1416*
X513Y1414*
X514Y1413*
X514Y1413*
X514Y1412*
X515Y1411*
X516Y1410*
X515Y1408*
X516Y1407*
X516Y1407*
X517Y1407*
X517Y1406*
X517Y1406*
X518Y1406*
X518Y1405*
X518Y1404*
X518Y1402*
X518Y1402*
X519Y1402*
X519Y1400*
X520Y1399*
X520Y1397*
X521Y1396*
X521Y1395*
X521Y1394*
X522Y1394*
X522Y1394*
X522Y1393*
X522Y1392*
X523Y1392*
X523Y1391*
X523Y1390*
X523Y1389*
X524Y1389*
X524Y1384*
X525Y1383*
X525Y1382*
X526Y1381*
X526Y1380*
X526Y1379*
X527Y1378*
X527Y1378*
X527Y1378*
X528Y1377*
X528Y1377*
X528Y1376*
X528Y1373*
X530Y1371*
X531Y1368*
X531Y1368*
X531Y1368*
X532Y1366*
X532Y1366*
X533Y1365*
X532Y1364*
X533Y1363*
X533Y1362*
X535Y1361*
X535Y1360*
X535Y1359*
X536Y1359*
X536Y1357*
X537Y1356*
X537Y1354*
X537Y1353*
X538Y1353*
X538Y1352*
X538Y1352*
X540Y1350*
X540Y1350*
X540Y1347*
X541Y1346*
X541Y1343*
X545Y1339*
X545Y1339*
X545Y1337*
X546Y1337*
X546Y1337*
X546Y1337*
X547Y1336*
X547Y1336*
X548Y1334*
X549Y1334*
X549Y1334*
X549Y1356*
X549Y1356*
X548Y1357*
X548Y1366*
X548Y1367*
X547Y1367*
X548Y1368*
X548Y1368*
X549Y1369*
X548Y1370*
X548Y1373*
X548Y1373*
X548Y1373*
X547Y1374*
X547Y1376*
X547Y1387*
X547Y1387*
X546Y1387*
X546Y1394*
X546Y1395*
X545Y1395*
X545Y1411*
X544Y1412*
X544Y1415*
X544Y1416*
X543Y1416*
X543Y1417*
X543Y1424*
X543Y1424*
X542Y1424*
X542Y1425*
X541Y1426*
X541Y1436*
X540Y1436*
X540Y1436*
X540Y1439*
X539Y1440*
X539Y1448*
X538Y1449*
X538Y1449*
X538Y1450*
X538Y1453*
X537Y1454*
X537Y1454*
X537Y1455*
X537Y1456*
X537Y1463*
X535Y1464*
X535Y1464*
X535Y1465*
X535Y1465*
X534Y1473*
X533Y1474*
X533Y1474*
X532Y1475*
X532Y1476*
X532Y1480*
X533Y1481*
X532Y1481*
X532Y1482*
X532Y1482*
X531Y1483*
X531Y1483*
X531Y1489*
X531Y1489*
X530Y1489*
X530Y1494*
X530Y1494*
X529Y1494*
X529Y1495*
X529Y1495*
X528Y1496*
X528Y1497*
X528Y1498*
X528Y1499*
X527Y1499*
X527Y1499*
X527Y1502*
X527Y1503*
X526Y1503*
X526Y1504*
X526Y1505*
X526Y1508*
X525Y1508*
X525Y1508*
X525Y1511*
X525Y1511*
X524Y1512*
X524Y1515*
X523Y1516*
X523Y1516*
X523Y1517*
X523Y1520*
X522Y1520*
X522Y1521*
X522Y1521*
X522Y1522*
X521Y1522*
X521Y1522*
X521Y1524*
X520Y1524*
X520Y1524*
X520Y1529*
X519Y1530*
X519Y1531*
X518Y1532*
X517Y1533*
X517Y1534*
X517Y1534*
X516Y1534*
X516Y1535*
X516Y1535*
X515Y1536*
X515Y1537*
X513Y1537*
X513Y1538*
X512Y1538*
X512Y1540*
X511Y1540*
X511Y1541*
X511Y1541*
X510Y1541*
X510Y1542*
X509Y1542*
X509Y1543*
X509Y1543*
X508Y1543*
X508Y1544*
X507Y1544*
X507Y1545*
X507Y1545*
X506Y1546*
X506Y1546*
X505Y1546*
X505Y1547*
X505Y1548*
X504Y1549*
X504Y1549*
X504Y1549*
X503Y1550*
X503Y1550*
X502Y1551*
X501Y1552*
X501Y1552*
X501Y1553*
X500Y1554*
X500Y1554*
X492Y1562*
X492Y1563*
X492Y1563*
X491Y1564*
X491Y1564*
X489Y1565*
X489Y1565*
X489Y1565*
X488Y1566*
X488Y1566*
X488Y1567*
X487Y1568*
X485Y1570*
X484Y1571*
X483Y1571*
X482Y1571*
X482Y1572*
X482Y1572*
X481Y1572*
X481Y1574*
X481Y1574*
X468Y1587*
X468Y1587*
X468Y1589*
X466Y1589*
X466Y1589*
X464Y1590*
X464Y1591*
X463Y1591*
X462Y1592*
X462Y1592*
X462Y1592*
X461Y1592*
X461Y1594*
X461Y1594*
X459Y1596*
X459Y1596*
X457Y1597*
X457Y1597*
X457Y1597*
X456Y1597*
X455Y1599*
X455Y1599*
X452Y1599*
G37*
G36*
X283Y1217D02*
X250D01*
Y1184*
X283*
Y1217*
G37*
G36*
X573Y1159D02*
X540D01*
Y1126*
X573*
Y1159*
G37*
G36*
Y1102D02*
X540D01*
Y1068*
X573*
Y1102*
G37*
G36*
X457D02*
X424D01*
Y1068*
X457*
Y1102*
G37*
G36*
X341D02*
X308D01*
Y1068*
X341*
Y1102*
G37*
G36*
X573Y1044D02*
X540D01*
Y1010*
X573*
Y1044*
G37*
G36*
X457D02*
X424D01*
Y1010*
X457*
Y1044*
G37*
G36*
X341D02*
X308D01*
Y1010*
X341*
Y1044*
G37*
G36*
X399Y986D02*
X366D01*
Y952*
X399*
Y986*
G37*
G36*
X283D02*
X250D01*
Y952*
X283*
Y986*
G37*
G36*
X515Y928D02*
X482D01*
Y894*
X515*
Y928*
G37*
G36*
X399D02*
X366D01*
Y894*
X399*
Y928*
G37*
G36*
X283D02*
X250D01*
Y894*
X283*
Y928*
G37*
G36*
X515Y870D02*
X482D01*
Y836*
X515*
Y870*
G37*
G36*
X283D02*
X250D01*
Y836*
X283*
Y870*
G37*
%LNbase_pcb1_soldermask_top-9*%
%LPD*%
G54D61*
X379Y1389D02*
X388Y1381D01*
Y1364*
X379Y1355*
X345*
X337Y1364*
Y1381*
X345Y1389*
X379*
X337Y1338D02*
Y1321D01*
Y1330*
X388*
X379Y1338*
X250Y1475D02*
Y1509D01*
X284Y1475*
X292*
X301Y1483*
Y1500*
X292Y1509*
Y1458D02*
X301Y1449D01*
Y1432*
X292Y1423*
X258*
X250Y1432*
Y1449*
X258Y1458*
X292*
X250Y1372D02*
Y1406D01*
X284Y1372*
X292*
X301Y1381*
Y1398*
X292Y1406*
X250Y1330D02*
X301D01*
X275Y1355*
Y1321*
G54D62*
X3801Y3396D03*
X3777D03*
X3753D03*
X3730D03*
X3706D03*
X3683D03*
X3659D03*
X3647Y3286D03*
X3671D03*
X3694D03*
X3742D03*
X3718D03*
X3765D03*
X3789D03*
G54D63*
X3812Y3286D03*
G54D64*
X2520Y3842D03*
Y3792D03*
Y3742D03*
Y3692D03*
X2307D03*
Y3742D03*
Y3792D03*
Y3842D03*
X1375D03*
Y3792D03*
Y3742D03*
Y3692D03*
X1161D03*
Y3742D03*
Y3792D03*
Y3842D03*
G54D65*
X1575Y1005D03*
Y1047D03*
Y1090D03*
Y1132D03*
X1630D03*
Y1090D03*
Y1047D03*
Y1005D03*
X1575Y1657D03*
Y1699D03*
Y1741D03*
Y1784D03*
X1630D03*
Y1741D03*
Y1699D03*
Y1657D03*
G54D66*
X2270Y1078D03*
Y1062D03*
Y1047D03*
X2255Y1078D03*
Y1062D03*
Y1047D03*
G54D67*
X2164Y568D03*
X2138D03*
X2113D03*
X2087D03*
Y423D03*
X2113D03*
X2138D03*
X2164D03*
G54D68*
X2053Y534D03*
Y508D03*
Y483D03*
Y457D03*
X2198D03*
Y483D03*
Y508D03*
Y534D03*
G54D69*
X2125Y496D03*
G54D70*
X1785Y1150D03*
Y1122D03*
Y1093D03*
X1757D03*
Y1122D03*
Y1150D03*
X1785Y1800D03*
Y1771D03*
Y1743D03*
X1757D03*
Y1771D03*
Y1800D03*
G54D71*
X1615Y507D03*
G54D72*
X1670Y469D03*
Y494D03*
Y520D03*
Y545D03*
X1560Y469D03*
Y494D03*
Y520D03*
Y545D03*
G54D73*
X2141Y3411D03*
Y3345D03*
X2490Y3600D03*
Y3534D03*
X2322Y3599D03*
Y3534D03*
X2224Y3345D03*
Y3411D03*
X1377Y3425D03*
Y3360D03*
X1299Y3615D03*
Y3550D03*
X1181Y3613D03*
Y3548D03*
X1533Y3358D03*
Y3423D03*
X2480Y492D03*
Y427D03*
X2578Y492D03*
Y427D03*
G54D74*
X1870Y3437D03*
Y3274D03*
X1670Y3437D03*
Y3274D03*
G54D75*
X2213Y3757D03*
X2148D03*
X1076Y3759D03*
X1011D03*
X1477Y1005D03*
X1412D03*
X1476Y1090D03*
X1411D03*
X1475Y1657D03*
X1410D03*
X1474Y1741D03*
X1409D03*
X1989Y740D03*
X1924D03*
X1989Y661D03*
X1924D03*
X1835Y1495D03*
X1901D03*
X1835Y1415D03*
X1901D03*
X2246Y647D03*
X2181D03*
X1475Y459D03*
X1410D03*
G54D76*
X2420Y3458D03*
Y3433D03*
Y3407D03*
Y3381D03*
X2529D03*
Y3407D03*
Y3433D03*
Y3458D03*
X1193Y3465D03*
Y3439D03*
Y3414D03*
Y3388D03*
X1302D03*
Y3414D03*
Y3439D03*
Y3465D03*
G54D77*
X2491Y3420D03*
X1265Y3426D03*
G54D78*
X2448Y3420D03*
X1221Y3426D03*
G54D79*
X2066Y3031D03*
X2456D03*
X1463Y3035D03*
X1073D03*
G54D80*
X1467Y548D03*
X1410D03*
G54D81*
X2057Y3397D03*
X1456Y3423D03*
G54D82*
X2057Y3356D03*
X1456Y3382D03*
G54D83*
X2747Y3246D03*
Y3038D03*
X785Y3234D03*
Y3025D03*
X1771Y3051D03*
Y2842D03*
X1200Y616D03*
Y407D03*
G54D84*
X2209Y3671D03*
X2152D03*
X1072D03*
X1015D03*
G54D85*
X2334Y3466D03*
Y3393D03*
X1582Y1287D03*
Y1214D03*
Y1939D03*
Y1866D03*
X2362Y577D03*
Y504D03*
X1769Y470D03*
Y543D03*
G54D86*
X2135Y3842D03*
X2207D03*
X1027Y3415D03*
X1100D03*
X973Y3838D03*
X1046D03*
X1735Y1010D03*
X1808D03*
X1735Y1660D03*
X1808D03*
X1639Y647D03*
X1566D03*
G54D87*
X1663Y1266D03*
Y1208D03*
Y1918D03*
Y1860D03*
G54D88*
X2281Y1140D03*
X2246D03*
G54D89*
X2283Y526D03*
Y491D03*
G54D90*
X3011Y3707D03*
X728Y3706D03*
X1881Y3720D03*
G54D91*
X2814Y3707D03*
X531Y3706D03*
X1684Y3720D03*
G54D92*
X3228Y3692D03*
X314Y3691D03*
X3489Y3780D03*
X3589D03*
X3689D03*
X3789D03*
Y3680D03*
X3689D03*
X3589D03*
X3702Y567D03*
Y667D03*
Y767D03*
Y867D03*
Y967D03*
X3602D03*
Y867D03*
Y767D03*
Y667D03*
Y567D03*
Y467D03*
G54D93*
X3228Y3792D03*
X314Y3791D03*
X3702Y467D03*
G54D94*
X3489Y3680D03*
G54D95*
X3346Y3346D03*
X196D03*
X3346Y192D03*
X196Y196D03*
X2677Y2677D03*
X866D03*
X2677Y866D03*
X866D03*
G54D96*
X3671Y3249D03*
X3741Y3434D03*
X3660Y3424D03*
X3742Y3254D03*
X3559Y3250D03*
X3756Y297D03*
Y100D03*
X3559Y3053D03*
Y2856D03*
Y2659D03*
Y2462D03*
Y2265D03*
Y2069D03*
Y1872D03*
Y1675D03*
Y1478D03*
Y1281D03*
Y1084D03*
Y297D03*
Y100D03*
X3362Y3643D03*
Y3053D03*
Y2856D03*
Y2659D03*
Y2462D03*
Y2265D03*
Y2069D03*
Y1872D03*
Y1675D03*
Y1478D03*
Y1281D03*
Y1084D03*
Y887D03*
Y691D03*
X3165Y3643D03*
Y1478D03*
Y1281D03*
Y1084D03*
Y887D03*
Y691D03*
Y297D03*
Y100D03*
X2969Y3447D03*
Y3250D03*
Y3053D03*
Y2856D03*
Y2659D03*
Y2462D03*
Y2265D03*
Y2069D03*
Y1872D03*
Y1675D03*
Y1478D03*
Y1281D03*
Y1084D03*
Y887D03*
Y691D03*
Y297D03*
Y100D03*
X2772Y3643D03*
Y2856D03*
Y2462D03*
Y2069D03*
Y1872D03*
Y1675D03*
Y1478D03*
Y1281D03*
Y1084D03*
Y691D03*
Y297D03*
Y100D03*
X2575Y3643D03*
Y3447D03*
Y3250D03*
Y3053D03*
Y2856D03*
Y1084D03*
Y691D03*
Y297D03*
Y100D03*
X2378Y3250D03*
Y2856D03*
Y887D03*
Y691D03*
Y297D03*
Y100D03*
X2181Y3250D03*
Y3053D03*
Y2856D03*
Y887D03*
Y297D03*
Y100D03*
X1984Y3643D03*
Y3447D03*
Y3250D03*
Y2856D03*
Y297D03*
Y100D03*
X1787Y3643D03*
Y2462D03*
Y2265D03*
Y2069D03*
Y1872D03*
Y1281D03*
Y887D03*
Y297D03*
Y100D03*
X1591Y3643D03*
Y3053D03*
Y2856D03*
Y2462D03*
Y2265D03*
Y2069D03*
Y1478D03*
Y297D03*
Y100D03*
X1394Y3643D03*
Y3250D03*
Y2856D03*
Y2659D03*
Y2462D03*
Y2265D03*
Y2069D03*
Y1872D03*
Y1478D03*
Y691D03*
Y297D03*
Y100D03*
X1197Y3250D03*
Y3053D03*
Y2856D03*
Y2659D03*
Y2462D03*
Y2265D03*
Y2069D03*
Y1872D03*
Y1675D03*
Y1478D03*
Y1281D03*
Y1084D03*
Y887D03*
Y297D03*
Y100D03*
X1000Y2856D03*
Y2462D03*
Y2265D03*
Y2069D03*
Y1872D03*
Y1675D03*
Y1478D03*
Y1281D03*
Y1084D03*
Y691D03*
Y494D03*
Y297D03*
Y100D03*
X803Y2856D03*
Y2462D03*
Y2265D03*
Y2069D03*
Y1872D03*
Y1675D03*
Y1478D03*
Y1281D03*
Y1084D03*
Y691D03*
Y494D03*
Y297D03*
Y100D03*
X606Y3643D03*
Y3447D03*
Y3250D03*
Y3053D03*
Y2856D03*
Y691D03*
Y494D03*
Y297D03*
Y100D03*
X410Y3643D03*
Y3447D03*
Y3250D03*
Y3053D03*
Y2856D03*
Y691D03*
Y494D03*
Y297D03*
Y100D03*
X213Y3643D03*
Y3053D03*
Y2856D03*
Y691D03*
Y494D03*
X1665Y1114D03*
X1664Y1766D03*
X1063Y3281D03*
X651Y3598D03*
X1326Y3648D03*
X1417Y3791D03*
X935Y3841D03*
X2563Y3793D03*
X2081Y3844D03*
X1808Y1068D03*
X2232Y948D03*
X2293Y951D03*
X2720Y473D03*
X2684Y508D03*
X1808Y1718D03*
X1680Y1005D03*
X1681Y1657D03*
X1757Y1699D03*
X1541Y1136D03*
Y1784D03*
X1882Y475D03*
Y550D03*
X1636Y597D03*
X1956Y514D03*
X2411Y616D03*
X1924Y701D03*
X1901Y1455D03*
X2000Y454D03*
X1712Y469D03*
X1533Y492D03*
Y452D03*
X1757Y1050D03*
G54D97*
X2746Y2933D03*
X785Y2913D03*
X1043Y3361D03*
X1122Y3364D03*
X1771Y2750D03*
Y3149D03*
X2283Y3472D03*
X2277Y3404D03*
G54D98*
X1567Y3440D03*
Y3480D03*
X2102Y3411D03*
X1630Y1939D03*
X1574Y708D03*
X1712Y543D03*
X2239Y532D03*
Y485D03*
X1496Y1217D03*
Y1869D03*
X2007Y508D03*
X1354Y548D03*
X1279D03*
X1633Y1299D03*
M02*