%FSLAX23Y23*%
%MOIN*%
%SFA1B1*%

%IPPOS*%
%ADD128C,0.051180*%
%ADD129C,0.040160*%
%ADD130C,0.040160*%
%ADD131C,0.118110*%
%ADD132C,0.118110*%
%ADD133C,0.118110*%
%ADD134C,0.118110*%
%ADD135C,0.118110*%
%ADD136C,0.118110*%
%ADD137C,0.118110*%
%ADD138C,0.118110*%
%ADD139C,0.011810*%
%ADD140C,0.028000*%
%ADD141C,0.015750*%
%LNbase_pcb1_pth_drill-1*%
%LPD*%
G54D128*
X3011Y3707D03*
X2814D03*
X728Y3706D03*
X531D03*
X1881Y3720D03*
X1684D03*
G54D129*
X3228Y3692D03*
Y3792D03*
X314Y3691D03*
Y3791D03*
X3702Y467D03*
Y567D03*
Y667D03*
Y767D03*
Y867D03*
Y967D03*
X3602D03*
Y867D03*
Y767D03*
Y667D03*
Y567D03*
Y467D03*
G54D130*
X3489Y3780D03*
X3589D03*
X3689D03*
X3789D03*
Y3680D03*
X3689D03*
X3589D03*
X3489D03*
G54D131*
X3346Y3346D03*
G54D132*
X196Y3346D03*
G54D133*
X3346Y192D03*
G54D134*
X196Y196D03*
G54D135*
X2677Y2677D03*
G54D136*
X866Y2677D03*
G54D137*
X2677Y866D03*
G54D138*
X866Y866D03*
G54D139*
X3671Y3249D03*
X3741Y3434D03*
X3660Y3424D03*
X3742Y3254D03*
X3559Y3250D03*
X3756Y297D03*
Y100D03*
X3559Y3053D03*
Y2856D03*
Y2659D03*
Y2462D03*
Y2265D03*
Y2069D03*
Y1872D03*
Y1675D03*
Y1478D03*
Y1281D03*
Y1084D03*
Y297D03*
Y100D03*
X3362Y3643D03*
Y3053D03*
Y2856D03*
Y2659D03*
Y2462D03*
Y2265D03*
Y2069D03*
Y1872D03*
Y1675D03*
Y1478D03*
Y1281D03*
Y1084D03*
Y887D03*
Y691D03*
X3165Y3643D03*
Y1478D03*
Y1281D03*
Y1084D03*
Y887D03*
Y691D03*
Y297D03*
Y100D03*
X2969Y3447D03*
Y3250D03*
Y3053D03*
Y2856D03*
Y2659D03*
Y2462D03*
Y2265D03*
Y2069D03*
Y1872D03*
Y1675D03*
Y1478D03*
Y1281D03*
Y1084D03*
Y887D03*
Y691D03*
Y297D03*
Y100D03*
X2772Y3643D03*
Y2856D03*
Y2462D03*
Y2069D03*
Y1872D03*
Y1675D03*
Y1478D03*
Y1281D03*
Y1084D03*
Y691D03*
Y297D03*
Y100D03*
X2575Y3643D03*
Y3447D03*
Y3250D03*
Y3053D03*
Y2856D03*
Y1084D03*
Y691D03*
Y297D03*
Y100D03*
X2378Y3250D03*
Y2856D03*
Y887D03*
Y691D03*
Y297D03*
Y100D03*
X2181Y3250D03*
Y3053D03*
Y2856D03*
Y887D03*
Y297D03*
Y100D03*
X1984Y3643D03*
Y3447D03*
Y3250D03*
Y2856D03*
Y297D03*
Y100D03*
X1787Y3643D03*
Y2462D03*
Y2265D03*
Y2069D03*
Y1872D03*
Y1281D03*
Y887D03*
Y297D03*
Y100D03*
X1591Y3643D03*
Y3053D03*
Y2856D03*
Y2462D03*
Y2265D03*
Y2069D03*
Y1478D03*
Y297D03*
Y100D03*
X1394Y3643D03*
Y3250D03*
Y2856D03*
Y2659D03*
Y2462D03*
Y2265D03*
Y2069D03*
Y1872D03*
Y1478D03*
Y691D03*
Y297D03*
Y100D03*
X1197Y3250D03*
Y3053D03*
Y2856D03*
Y2659D03*
Y2462D03*
Y2265D03*
Y2069D03*
Y1872D03*
Y1675D03*
Y1478D03*
Y1281D03*
Y1084D03*
Y887D03*
Y297D03*
Y100D03*
X1000Y2856D03*
Y2462D03*
Y2265D03*
Y2069D03*
Y1872D03*
Y1675D03*
Y1478D03*
Y1281D03*
Y1084D03*
Y691D03*
Y494D03*
Y297D03*
Y100D03*
X803Y2856D03*
Y2462D03*
Y2265D03*
Y2069D03*
Y1872D03*
Y1675D03*
Y1478D03*
Y1281D03*
Y1084D03*
Y691D03*
Y494D03*
Y297D03*
Y100D03*
X606Y3643D03*
Y3447D03*
Y3250D03*
Y3053D03*
Y2856D03*
Y691D03*
Y494D03*
Y297D03*
Y100D03*
X410Y3643D03*
Y3447D03*
Y3250D03*
Y3053D03*
Y2856D03*
Y691D03*
Y494D03*
Y297D03*
Y100D03*
X213Y3643D03*
Y3053D03*
Y2856D03*
Y691D03*
Y494D03*
X1665Y1114D03*
X1664Y1766D03*
X1063Y3281D03*
X651Y3598D03*
X1326Y3648D03*
X1417Y3791D03*
X935Y3841D03*
X2563Y3793D03*
X2081Y3844D03*
X1808Y1068D03*
X2232Y948D03*
X2293Y951D03*
X2720Y473D03*
X2684Y508D03*
X1808Y1718D03*
X1680Y1005D03*
X1681Y1657D03*
X1757Y1699D03*
X1541Y1136D03*
Y1784D03*
X1882Y475D03*
Y550D03*
X1636Y597D03*
X1956Y514D03*
X2411Y616D03*
X1924Y701D03*
X1901Y1455D03*
X2000Y454D03*
X1712Y469D03*
X1533Y492D03*
Y452D03*
X1757Y1050D03*
G54D140*
X2746Y2933D03*
X785Y2913D03*
X1043Y3361D03*
X1122Y3364D03*
X1771Y2750D03*
Y3149D03*
X2283Y3472D03*
X2277Y3404D03*
G54D141*
X1567Y3440D03*
Y3480D03*
X2102Y3411D03*
X1630Y1939D03*
X1574Y708D03*
X1712Y543D03*
X2239Y532D03*
Y485D03*
X1496Y1217D03*
Y1869D03*
X2007Y508D03*
X1354Y548D03*
X1279D03*
X1633Y1299D03*
M02*