%FSLAX23Y23*%
%MOIN*%
%SFA1B1*%

%IPPOS*%
%ADD55C,0.007870*%
%ADD56C,0.003940*%
%ADD57C,0.012800*%
%ADD58C,0.009840*%
%ADD59C,0.019680*%
%ADD60C,0.010000*%
%LNbase_pcb1_legend_top-1*%
%LPD*%
G54D55*
X1663Y1001D02*
D01*
X1664Y1001*
X1664Y1002*
X1664Y1002*
X1665Y1002*
X1665Y1002*
X1665Y1002*
X1665Y1002*
X1666Y1002*
X1666Y1002*
X1666Y1002*
X1666Y1003*
X1666Y1003*
X1667Y1003*
X1667Y1003*
X1667Y1003*
X1667Y1004*
X1667Y1004*
X1667Y1004*
X1667Y1004*
X1667Y1005*
X1667Y1005*
X1667Y1005*
Y1006*
X1667Y1006*
X1667Y1006*
X1667Y1006*
X1667Y1007*
X1667Y1007*
X1667Y1007*
X1667Y1007*
X1667Y1008*
X1667Y1008*
X1666Y1008*
X1666Y1008*
X1666Y1008*
X1666Y1009*
X1666Y1009*
X1665Y1009*
X1665Y1009*
X1665Y1009*
X1665Y1009*
X1664Y1009*
X1664Y1009*
X1664Y1009*
X1663Y1009*
D01*
X1663Y1009*
X1663Y1009*
X1663Y1009*
X1662Y1009*
X1662Y1009*
X1662Y1009*
X1662Y1009*
X1661Y1009*
X1661Y1009*
X1661Y1008*
X1661Y1008*
X1661Y1008*
X1660Y1008*
X1660Y1008*
X1660Y1007*
X1660Y1007*
X1660Y1007*
X1660Y1007*
X1660Y1006*
X1660Y1006*
X1660Y1006*
X1660Y1006*
Y1005*
X1660Y1005*
X1660Y1005*
X1660Y1004*
X1660Y1004*
X1660Y1004*
X1660Y1004*
X1660Y1003*
X1660Y1003*
X1660Y1003*
X1661Y1003*
X1661Y1003*
X1661Y1002*
X1661Y1002*
X1661Y1002*
X1662Y1002*
X1662Y1002*
X1662Y1002*
X1662Y1002*
X1663Y1002*
X1663Y1002*
X1663Y1001*
X1663Y1001*
Y1653D02*
D01*
X1664Y1653*
X1664Y1653*
X1664Y1653*
X1665Y1654*
X1665Y1654*
X1665Y1654*
X1665Y1654*
X1666Y1654*
X1666Y1654*
X1666Y1654*
X1666Y1654*
X1666Y1655*
X1667Y1655*
X1667Y1655*
X1667Y1655*
X1667Y1656*
X1667Y1656*
X1667Y1656*
X1667Y1656*
X1667Y1657*
X1667Y1657*
X1667Y1657*
Y1657*
X1667Y1658*
X1667Y1658*
X1667Y1658*
X1667Y1659*
X1667Y1659*
X1667Y1659*
X1667Y1659*
X1667Y1659*
X1667Y1660*
X1666Y1660*
X1666Y1660*
X1666Y1660*
X1666Y1660*
X1666Y1661*
X1665Y1661*
X1665Y1661*
X1665Y1661*
X1665Y1661*
X1664Y1661*
X1664Y1661*
X1664Y1661*
X1663*
D01*
X1663Y1661*
X1663Y1661*
X1663Y1661*
X1662Y1661*
X1662Y1661*
X1662Y1661*
X1662Y1661*
X1661Y1661*
X1661Y1660*
X1661Y1660*
X1661Y1660*
X1661Y1660*
X1660Y1660*
X1660Y1659*
X1660Y1659*
X1660Y1659*
X1660Y1659*
X1660Y1658*
X1660Y1658*
X1660Y1658*
X1660Y1658*
X1660Y1657*
Y1657*
X1660Y1657*
X1660Y1657*
X1660Y1656*
X1660Y1656*
X1660Y1656*
X1660Y1656*
X1660Y1655*
X1660Y1655*
X1660Y1655*
X1661Y1655*
X1661Y1654*
X1661Y1654*
X1661Y1654*
X1661Y1654*
X1662Y1654*
X1662Y1654*
X1662Y1654*
X1662Y1653*
X1663Y1653*
X1663Y1653*
X1663Y1653*
X1663Y1653*
X1730Y1181D02*
D01*
X1730Y1181*
X1729Y1181*
X1729Y1181*
X1729Y1180*
X1728Y1180*
X1728Y1180*
X1728Y1180*
X1728Y1180*
X1727Y1180*
X1727Y1180*
X1727Y1179*
X1727Y1179*
X1727Y1179*
X1727Y1179*
X1726Y1179*
X1726Y1178*
X1726Y1178*
X1726Y1178*
X1726Y1178*
X1726Y1177*
X1726Y1177*
X1726Y1177*
Y1177*
X1726Y1176*
X1726Y1176*
X1726Y1176*
X1726Y1175*
X1726Y1175*
X1726Y1175*
X1726Y1175*
X1727Y1174*
X1727Y1174*
X1727Y1174*
X1727Y1174*
X1727Y1174*
X1727Y1173*
X1728Y1173*
X1728Y1173*
X1728Y1173*
X1728Y1173*
X1729Y1173*
X1729Y1173*
X1729Y1173*
X1730Y1173*
X1730Y1173*
D01*
X1730Y1173*
X1730Y1173*
X1731Y1173*
X1731Y1173*
X1731Y1173*
X1731Y1173*
X1732Y1173*
X1732Y1173*
X1732Y1173*
X1732Y1174*
X1733Y1174*
X1733Y1174*
X1733Y1174*
X1733Y1174*
X1733Y1175*
X1733Y1175*
X1733Y1175*
X1734Y1175*
X1734Y1176*
X1734Y1176*
X1734Y1176*
X1734Y1177*
Y1177*
X1734Y1177*
X1734Y1177*
X1734Y1178*
X1734Y1178*
X1733Y1178*
X1733Y1178*
X1733Y1179*
X1733Y1179*
X1733Y1179*
X1733Y1179*
X1733Y1180*
X1732Y1180*
X1732Y1180*
X1732Y1180*
X1732Y1180*
X1731Y1180*
X1731Y1180*
X1731Y1180*
X1731Y1181*
X1730Y1181*
X1730Y1181*
X1730*
Y1830D02*
D01*
X1730Y1830*
X1729Y1830*
X1729Y1830*
X1729Y1830*
X1728Y1830*
X1728Y1830*
X1728Y1830*
X1728Y1830*
X1727Y1829*
X1727Y1829*
X1727Y1829*
X1727Y1829*
X1727Y1829*
X1727Y1828*
X1726Y1828*
X1726Y1828*
X1726Y1828*
X1726Y1827*
X1726Y1827*
X1726Y1827*
X1726Y1827*
X1726Y1826*
Y1826*
X1726Y1826*
X1726Y1826*
X1726Y1825*
X1726Y1825*
X1726Y1825*
X1726Y1825*
X1726Y1824*
X1727Y1824*
X1727Y1824*
X1727Y1824*
X1727Y1823*
X1727Y1823*
X1727Y1823*
X1728Y1823*
X1728Y1823*
X1728Y1823*
X1728Y1823*
X1729Y1822*
X1729Y1822*
X1729Y1822*
X1730Y1822*
X1730Y1822*
D01*
X1730Y1822*
X1730Y1822*
X1731Y1822*
X1731Y1822*
X1731Y1823*
X1731Y1823*
X1732Y1823*
X1732Y1823*
X1732Y1823*
X1732Y1823*
X1733Y1823*
X1733Y1824*
X1733Y1824*
X1733Y1824*
X1733Y1824*
X1733Y1825*
X1733Y1825*
X1734Y1825*
X1734Y1825*
X1734Y1826*
X1734Y1826*
X1734Y1826*
Y1826*
X1734Y1827*
X1734Y1827*
X1734Y1827*
X1734Y1827*
X1733Y1828*
X1733Y1828*
X1733Y1828*
X1733Y1828*
X1733Y1829*
X1733Y1829*
X1733Y1829*
X1732Y1829*
X1732Y1829*
X1732Y1830*
X1732Y1830*
X1731Y1830*
X1731Y1830*
X1731Y1830*
X1731Y1830*
X1730Y1830*
X1730Y1830*
X1730Y1830*
X2397Y3458D02*
D01*
X2397Y3458*
X2397Y3459*
X2397Y3459*
X2397Y3459*
X2397Y3460*
X2397Y3460*
X2397Y3460*
X2397Y3460*
X2397Y3460*
X2396Y3461*
X2396Y3461*
X2396Y3461*
X2396Y3461*
X2396Y3461*
X2395Y3462*
X2395Y3462*
X2395Y3462*
X2395Y3462*
X2394Y3462*
X2394Y3462*
X2394Y3462*
X2394Y3462*
X2393*
X2393Y3462*
X2393Y3462*
X2392Y3462*
X2392Y3462*
X2392Y3462*
X2392Y3462*
X2391Y3462*
X2391Y3461*
X2391Y3461*
X2391Y3461*
X2391Y3461*
X2390Y3461*
X2390Y3460*
X2390Y3460*
X2390Y3460*
X2390Y3460*
X2390Y3460*
X2390Y3459*
X2390Y3459*
X2390Y3459*
X2390Y3458*
X2390Y3458*
X2390Y3458*
X2390Y3458*
X2390Y3457*
X2390Y3457*
X2390Y3457*
X2390Y3457*
X2390Y3456*
X2390Y3456*
X2390Y3456*
X2390Y3456*
X2391Y3455*
X2391Y3455*
X2391Y3455*
X2391Y3455*
X2391Y3455*
X2392Y3455*
X2392Y3455*
X2392Y3454*
X2392Y3454*
X2393Y3454*
X2393Y3454*
X2393Y3454*
X2394*
X2394Y3454*
X2394Y3454*
X2394Y3454*
X2395Y3454*
X2395Y3455*
X2395Y3455*
X2395Y3455*
X2396Y3455*
X2396Y3455*
X2396Y3455*
X2396Y3455*
X2396Y3456*
X2397Y3456*
X2397Y3456*
X2397Y3456*
X2397Y3457*
X2397Y3457*
X2397Y3457*
X2397Y3457*
X2397Y3458*
X2397Y3458*
X2397Y3458*
X1171Y3465D02*
D01*
X1171Y3465*
X1171Y3465*
X1171Y3466*
X1171Y3466*
X1171Y3466*
X1170Y3466*
X1170Y3467*
X1170Y3467*
X1170Y3467*
X1170Y3467*
X1170Y3468*
X1169Y3468*
X1169Y3468*
X1169Y3468*
X1169Y3468*
X1169Y3468*
X1168Y3469*
X1168Y3469*
X1168Y3469*
X1168Y3469*
X1167Y3469*
X1167Y3469*
X1167*
X1166Y3469*
X1166Y3469*
X1166Y3469*
X1166Y3469*
X1165Y3469*
X1165Y3468*
X1165Y3468*
X1165Y3468*
X1164Y3468*
X1164Y3468*
X1164Y3468*
X1164Y3467*
X1164Y3467*
X1163Y3467*
X1163Y3467*
X1163Y3466*
X1163Y3466*
X1163Y3466*
X1163Y3466*
X1163Y3465*
X1163Y3465*
X1163Y3465*
X1163Y3465*
X1163Y3464*
X1163Y3464*
X1163Y3464*
X1163Y3464*
X1163Y3463*
X1163Y3463*
X1163Y3463*
X1164Y3463*
X1164Y3462*
X1164Y3462*
X1164Y3462*
X1164Y3462*
X1165Y3462*
X1165Y3461*
X1165Y3461*
X1165Y3461*
X1166Y3461*
X1166Y3461*
X1166Y3461*
X1166Y3461*
X1167Y3461*
X1167*
X1167Y3461*
X1168Y3461*
X1168Y3461*
X1168Y3461*
X1168Y3461*
X1169Y3461*
X1169Y3461*
X1169Y3462*
X1169Y3462*
X1169Y3462*
X1170Y3462*
X1170Y3462*
X1170Y3463*
X1170Y3463*
X1170Y3463*
X1170Y3463*
X1171Y3464*
X1171Y3464*
X1171Y3464*
X1171Y3464*
X1171Y3465*
X1171Y3465*
X2277Y3870D02*
X2337D01*
X2350Y3671D02*
Y3864D01*
Y3671D02*
X2476D01*
Y3864*
X2350D02*
X2476D01*
X1131Y3870D02*
X1191D01*
X1205Y3671D02*
Y3864D01*
Y3671D02*
X1331D01*
Y3864*
X1205D02*
X1331D01*
X2289Y1027D02*
Y1043D01*
X2273Y1027D02*
X2289D01*
X2237Y1027D02*
X2252D01*
X2237D02*
Y1043D01*
X2237Y1082D02*
Y1098D01*
X2252*
X1657Y440D02*
X1682D01*
X1548D02*
X1574D01*
X1657Y574D02*
X1682D01*
X1548D02*
X1574D01*
X1682Y440D02*
Y446D01*
Y568D02*
Y574D01*
X1548Y440D02*
Y446D01*
Y568D02*
Y574D01*
X2081Y3341D02*
Y3404D01*
X2033Y3341D02*
Y3404D01*
X1480Y3367D02*
Y3430D01*
X1433Y3367D02*
Y3430D01*
X2790Y3276D02*
X2829D01*
X2880Y3225*
X2613D02*
X2664Y3276D01*
X2703*
X2880Y3008D02*
Y3225D01*
X2790Y3008D02*
X2880D01*
X2613D02*
X2703D01*
X2613D02*
Y3225D01*
X828Y3263D02*
X867D01*
X918Y3212*
X651D02*
X702Y3263D01*
X741*
X918Y2996D02*
Y3212D01*
X828Y2996D02*
X918D01*
X651D02*
X741D01*
X651D02*
Y3212D01*
X1814Y3080D02*
X1854D01*
X1905Y3029*
X1637D02*
X1688Y3080D01*
X1728*
X1905Y2812D02*
Y3029D01*
X1814Y2812D02*
X1905D01*
X1637D02*
X1728D01*
X1637D02*
Y3029D01*
X1244Y645D02*
X1283D01*
X1334Y594*
X1066D02*
X1118Y645D01*
X1157*
X1334Y377D02*
Y594D01*
X1244Y377D02*
X1334D01*
X1066D02*
X1157D01*
X1066D02*
Y594D01*
X3836Y3217D02*
X3849D01*
X3843*
Y3256*
X3836Y3250*
X3604Y3217D02*
X3617D01*
X3610*
Y3256*
X3604Y3250*
X3663Y3256D02*
X3637D01*
Y3237*
X3650Y3243*
X3656*
X3663Y3237*
Y3224*
X3656Y3217*
X3643*
X3637Y3224*
G54D56*
X2289Y1096D02*
D01*
X2289Y1096*
X2289Y1096*
X2289Y1097*
X2289Y1097*
X2289Y1097*
X2289Y1097*
X2289Y1097*
X2289Y1097*
X2289Y1097*
X2289Y1097*
X2288Y1097*
X2288Y1098*
X2288Y1098*
X2288Y1098*
X2288Y1098*
X2288Y1098*
X2288Y1098*
X2288Y1098*
X2287Y1098*
X2287Y1098*
X2287Y1098*
X2287Y1098*
X2287*
X2287Y1098*
X2287Y1098*
X2287Y1098*
X2286Y1098*
X2286Y1098*
X2286Y1098*
X2286Y1098*
X2286Y1098*
X2286Y1098*
X2286Y1098*
X2286Y1097*
X2285Y1097*
X2285Y1097*
X2285Y1097*
X2285Y1097*
X2285Y1097*
X2285Y1097*
X2285Y1097*
X2285Y1097*
X2285Y1096*
X2285Y1096*
X2285Y1096*
X2285Y1096*
X2285Y1096*
X2285Y1096*
X2285Y1096*
X2285Y1095*
X2285Y1095*
X2285Y1095*
X2285Y1095*
X2285Y1095*
X2285Y1095*
X2286Y1095*
X2286Y1095*
X2286Y1095*
X2286Y1094*
X2286Y1094*
X2286Y1094*
X2286Y1094*
X2286Y1094*
X2287Y1094*
X2287Y1094*
X2287Y1094*
X2287Y1094*
X2287*
X2287Y1094*
X2287Y1094*
X2287Y1094*
X2288Y1094*
X2288Y1094*
X2288Y1094*
X2288Y1094*
X2288Y1094*
X2288Y1095*
X2288Y1095*
X2288Y1095*
X2289Y1095*
X2289Y1095*
X2289Y1095*
X2289Y1095*
X2289Y1095*
X2289Y1095*
X2289Y1096*
X2289Y1096*
X2289Y1096*
X2289Y1096*
X2289Y1096*
X2391Y3458D02*
D01*
X2391Y3458*
X2392Y3458*
X2392Y3458*
X2392Y3458*
X2392Y3457*
X2392Y3457*
X2392Y3457*
X2392Y3457*
X2392Y3457*
X2392Y3457*
X2392Y3457*
X2392Y3457*
X2392Y3457*
X2392Y3457*
X2392Y3456*
X2393Y3456*
X2393Y3456*
X2393Y3456*
X2393Y3456*
X2393Y3456*
X2393Y3456*
X2393Y3456*
X2394*
X2394Y3456*
X2394Y3456*
X2394Y3456*
X2394Y3456*
X2394Y3456*
X2394Y3456*
X2394Y3456*
X2395Y3457*
X2395Y3457*
X2395Y3457*
X2395Y3457*
X2395Y3457*
X2395Y3457*
X2395Y3457*
X2395Y3457*
X2395Y3457*
X2395Y3457*
X2395Y3458*
X2395Y3458*
X2395Y3458*
X2395Y3458*
X2395Y3458*
X1165Y3465D02*
D01*
X1165Y3465*
X1165Y3465*
X1165Y3464*
X1165Y3464*
X1165Y3464*
X1165Y3464*
X1165Y3464*
X1165Y3464*
X1165Y3464*
X1165Y3464*
X1165Y3464*
X1166Y3463*
X1166Y3463*
X1166Y3463*
X1166Y3463*
X1166Y3463*
X1166Y3463*
X1166Y3463*
X1166Y3463*
X1166Y3463*
X1167Y3463*
X1167Y3463*
X1167*
X1167Y3463*
X1167Y3463*
X1167Y3463*
X1167Y3463*
X1168Y3463*
X1168Y3463*
X1168Y3463*
X1168Y3463*
X1168Y3463*
X1168Y3463*
X1168Y3464*
X1168Y3464*
X1168Y3464*
X1168Y3464*
X1169Y3464*
X1169Y3464*
X1169Y3464*
X1169Y3464*
X1169Y3464*
X1169Y3465*
X1169Y3465*
X1169Y3465*
X2035Y3329D02*
D01*
X2035Y3329*
X2035Y3329*
X2035Y3330*
X2035Y3330*
X2035Y3330*
X2035Y3330*
X2035Y3330*
X2035Y3330*
X2035Y3330*
X2035Y3330*
X2035Y3331*
X2035Y3331*
X2035Y3331*
X2035Y3331*
X2034Y3331*
X2034Y3331*
X2034Y3331*
X2034Y3331*
X2034Y3331*
X2034Y3331*
X2034Y3331*
X2033Y3331*
X2033*
X2033Y3331*
X2033Y3331*
X2033Y3331*
X2033Y3331*
X2033Y3331*
X2033Y3331*
X2032Y3331*
X2032Y3331*
X2032Y3331*
X2032Y3331*
X2032Y3331*
X2032Y3330*
X2032Y3330*
X2032Y3330*
X2032Y3330*
X2032Y3330*
X2032Y3330*
X2032Y3330*
X2032Y3330*
X2031Y3329*
X2031Y3329*
X2031Y3329*
X2031Y3329*
X2031Y3329*
X2032Y3329*
X2032Y3329*
X2032Y3329*
X2032Y3328*
X2032Y3328*
X2032Y3328*
X2032Y3328*
X2032Y3328*
X2032Y3328*
X2032Y3328*
X2032Y3328*
X2032Y3328*
X2032Y3328*
X2033Y3327*
X2033Y3327*
X2033Y3327*
X2033Y3327*
X2033Y3327*
X2033Y3327*
X2033Y3327*
X2033*
X2034Y3327*
X2034Y3327*
X2034Y3327*
X2034Y3327*
X2034Y3327*
X2034Y3327*
X2034Y3328*
X2035Y3328*
X2035Y3328*
X2035Y3328*
X2035Y3328*
X2035Y3328*
X2035Y3328*
X2035Y3328*
X2035Y3328*
X2035Y3328*
X2035Y3329*
X2035Y3329*
X2035Y3329*
X2035Y3329*
X2035Y3329*
X2035Y3329*
X1435Y3355D02*
D01*
X1435Y3356*
X1435Y3356*
X1434Y3356*
X1434Y3356*
X1434Y3356*
X1434Y3356*
X1434Y3356*
X1434Y3357*
X1434Y3357*
X1434Y3357*
X1434Y3357*
X1434Y3357*
X1434Y3357*
X1434Y3357*
X1434Y3357*
X1433Y3357*
X1433Y3357*
X1433Y3357*
X1433Y3357*
X1433Y3357*
X1433Y3357*
X1433Y3357*
X1433*
X1432Y3357*
X1432Y3357*
X1432Y3357*
X1432Y3357*
X1432Y3357*
X1432Y3357*
X1432Y3357*
X1431Y3357*
X1431Y3357*
X1431Y3357*
X1431Y3357*
X1431Y3357*
X1431Y3357*
X1431Y3357*
X1431Y3356*
X1431Y3356*
X1431Y3356*
X1431Y3356*
X1431Y3356*
X1431Y3356*
X1431Y3356*
X1431Y3355*
X1431Y3355*
X1431Y3355*
X1431Y3355*
X1431Y3355*
X1431Y3355*
X1431Y3355*
X1431Y3355*
X1431Y3354*
X1431Y3354*
X1431Y3354*
X1431Y3354*
X1431Y3354*
X1431Y3354*
X1431Y3354*
X1432Y3354*
X1432Y3354*
X1432Y3354*
X1432Y3354*
X1432Y3354*
X1432Y3354*
X1432Y3354*
X1433Y3353*
X1433*
X1433Y3354*
X1433Y3354*
X1433Y3354*
X1433Y3354*
X1433Y3354*
X1433Y3354*
X1434Y3354*
X1434Y3354*
X1434Y3354*
X1434Y3354*
X1434Y3354*
X1434Y3354*
X1434Y3354*
X1434Y3354*
X1434Y3355*
X1434Y3355*
X1434Y3355*
X1434Y3355*
X1434Y3355*
X1435Y3355*
X1435Y3355*
X1435Y3355*
X1599Y990D02*
X1606D01*
X1599Y1147D02*
X1606D01*
X1551Y978D02*
Y1159D01*
X1654Y978D02*
Y1159D01*
X1551D02*
X1654D01*
X1551Y978D02*
X1654D01*
X1599Y1642D02*
X1606D01*
X1599Y1799D02*
X1606D01*
X1551Y1630D02*
Y1811D01*
X1654Y1630D02*
Y1811D01*
X1551D02*
X1654D01*
X1551Y1630D02*
X1654D01*
X2204Y417D02*
Y437D01*
X2185Y417D02*
X2204D01*
X2185Y574D02*
X2204D01*
Y555D02*
Y574D01*
X2047Y555D02*
Y574D01*
X2066*
X2047Y417D02*
X2066D01*
X2047D02*
Y437D01*
X1741Y1076D02*
Y1167D01*
X1802Y1076D02*
Y1167D01*
X1741D02*
X1802D01*
X1741Y1076D02*
X1802D01*
X1741Y1726D02*
Y1816D01*
X1802Y1726D02*
Y1816D01*
X1741D02*
X1802D01*
X1741Y1726D02*
X1802D01*
X2399Y3480D02*
X2549D01*
X2399Y3360D02*
X2549D01*
Y3480*
X2399Y3360D02*
Y3480D01*
X1173Y3486D02*
X1323D01*
X1173Y3366D02*
X1323D01*
Y3486*
X1173Y3366D02*
Y3486D01*
X2015Y3149D02*
Y3277D01*
X2507*
Y3149D02*
Y3277D01*
X2015Y2785D02*
Y2913D01*
Y2785D02*
X2507D01*
Y2913*
X1514Y2789D02*
Y2917D01*
X1022Y2789D02*
X1514D01*
X1022D02*
Y2917D01*
X1514Y3153D02*
Y3281D01*
X1022D02*
X1514D01*
X1022Y3153D02*
Y3281D01*
X2716Y3545D02*
X3130D01*
X2716D02*
Y3844D01*
X3130*
Y3545D02*
Y3844D01*
X433Y3544D02*
X846D01*
X433D02*
Y3844D01*
X846*
Y3544D02*
Y3844D01*
X1586Y3559D02*
X1999D01*
X1586D02*
Y3858D01*
X1999*
Y3559D02*
Y3858D01*
G54D57*
X2209Y589D02*
D01*
X2209Y589*
X2209Y590*
X2209Y590*
X2208Y591*
X2208Y591*
X2208Y592*
X2208Y592*
X2208Y592*
X2207Y593*
X2207Y593*
X2207Y593*
X2207Y594*
X2206Y594*
X2206Y594*
X2205Y595*
X2205Y595*
X2205Y595*
X2204Y595*
X2204Y595*
X2203Y595*
X2203Y595*
X2202Y595*
X2202*
X2202Y595*
X2201Y595*
X2201Y595*
X2200Y595*
X2200Y595*
X2199Y595*
X2199Y595*
X2199Y594*
X2198Y594*
X2198Y594*
X2198Y593*
X2197Y593*
X2197Y593*
X2197Y592*
X2197Y592*
X2196Y592*
X2196Y591*
X2196Y591*
X2196Y590*
X2196Y590*
X2196Y589*
X2196Y589*
X2196Y589*
X2196Y588*
X2196Y588*
X2196Y587*
X2196Y587*
X2196Y586*
X2197Y586*
X2197Y586*
X2197Y585*
X2197Y585*
X2198Y585*
X2198Y584*
X2198Y584*
X2199Y584*
X2199Y584*
X2199Y583*
X2200Y583*
X2200Y583*
X2201Y583*
X2201Y583*
X2202Y583*
X2202Y583*
X2202*
X2203Y583*
X2203Y583*
X2204Y583*
X2204Y583*
X2205Y583*
X2205Y583*
X2205Y584*
X2206Y584*
X2206Y584*
X2207Y584*
X2207Y585*
X2207Y585*
X2207Y585*
X2208Y586*
X2208Y586*
X2208Y586*
X2208Y587*
X2208Y587*
X2209Y588*
X2209Y588*
X2209Y589*
X2209Y589*
G54D58*
X1535Y574D02*
D01*
X1535Y574*
X1535Y574*
X1535Y574*
X1535Y575*
X1535Y575*
X1534Y575*
X1534Y575*
X1534Y575*
X1534Y575*
X1534Y575*
X1534Y575*
X1534Y575*
X1534Y576*
X1534Y576*
X1534Y576*
X1534Y576*
X1533Y576*
X1533Y576*
X1533Y576*
X1533Y576*
X1533Y576*
X1533Y576*
X1533*
X1532Y576*
X1532Y576*
X1532Y576*
X1532Y576*
X1532Y576*
X1532Y576*
X1532Y576*
X1532Y576*
X1531Y576*
X1531Y575*
X1531Y575*
X1531Y575*
X1531Y575*
X1531Y575*
X1531Y575*
X1531Y575*
X1531Y575*
X1531Y575*
X1531Y574*
X1531Y574*
X1531Y574*
X1531Y574*
X1531Y574*
X1531Y574*
X1531Y574*
X1531Y573*
X1531Y573*
X1531Y573*
X1531Y573*
X1531Y573*
X1531Y573*
X1531Y573*
X1531Y573*
X1531Y573*
X1531Y572*
X1532Y572*
X1532Y572*
X1532Y572*
X1532Y572*
X1532Y572*
X1532Y572*
X1532Y572*
X1532Y572*
X1533Y572*
X1533*
X1533Y572*
X1533Y572*
X1533Y572*
X1533Y572*
X1533Y572*
X1534Y572*
X1534Y572*
X1534Y572*
X1534Y572*
X1534Y573*
X1534Y573*
X1534Y573*
X1534Y573*
X1534Y573*
X1534Y573*
X1534Y573*
X1535Y573*
X1535Y573*
X1535Y574*
X1535Y574*
X1535Y574*
X1535Y574*
G54D59*
X3019Y3792D02*
D01*
X3019Y3792*
X3019Y3793*
X3019Y3793*
X3019Y3794*
X3019Y3794*
X3019Y3795*
X3018Y3795*
X3018Y3796*
X3018Y3796*
X3017Y3797*
X3017Y3797*
X3017Y3797*
X3016Y3798*
X3016Y3798*
X3015Y3798*
X3015Y3799*
X3014Y3799*
X3014Y3799*
X3013Y3799*
X3013Y3799*
X3012Y3799*
X3012Y3799*
X3011*
X3010Y3799*
X3010Y3799*
X3009Y3799*
X3009Y3799*
X3008Y3799*
X3008Y3799*
X3007Y3798*
X3007Y3798*
X3006Y3798*
X3006Y3797*
X3006Y3797*
X3005Y3797*
X3005Y3796*
X3005Y3796*
X3004Y3795*
X3004Y3795*
X3004Y3794*
X3004Y3794*
X3004Y3793*
X3004Y3793*
X3003Y3792*
X3003Y3792*
X3003Y3791*
X3004Y3790*
X3004Y3790*
X3004Y3789*
X3004Y3789*
X3004Y3788*
X3004Y3788*
X3005Y3787*
X3005Y3787*
X3005Y3786*
X3006Y3786*
X3006Y3786*
X3006Y3785*
X3007Y3785*
X3007Y3785*
X3008Y3784*
X3008Y3784*
X3009Y3784*
X3009Y3784*
X3010Y3784*
X3010Y3784*
X3011Y3784*
X3012*
X3012Y3784*
X3013Y3784*
X3013Y3784*
X3014Y3784*
X3014Y3784*
X3015Y3784*
X3015Y3785*
X3016Y3785*
X3016Y3785*
X3017Y3786*
X3017Y3786*
X3017Y3786*
X3018Y3787*
X3018Y3787*
X3018Y3788*
X3019Y3788*
X3019Y3789*
X3019Y3789*
X3019Y3790*
X3019Y3790*
X3019Y3791*
X3019Y3792*
X736Y3791D02*
D01*
X736Y3791*
X736Y3792*
X736Y3792*
X735Y3793*
X735Y3793*
X735Y3794*
X735Y3794*
X735Y3795*
X734Y3795*
X734Y3796*
X734Y3796*
X733Y3797*
X733Y3797*
X732Y3797*
X732Y3798*
X731Y3798*
X731Y3798*
X730Y3798*
X730Y3798*
X729Y3799*
X729Y3799*
X728Y3799*
X728*
X727Y3799*
X726Y3799*
X726Y3798*
X725Y3798*
X725Y3798*
X724Y3798*
X724Y3798*
X723Y3797*
X723Y3797*
X723Y3797*
X722Y3796*
X722Y3796*
X721Y3795*
X721Y3795*
X721Y3794*
X721Y3794*
X720Y3793*
X720Y3793*
X720Y3792*
X720Y3792*
X720Y3791*
X720Y3791*
X720Y3790*
X720Y3790*
X720Y3789*
X720Y3789*
X720Y3788*
X721Y3788*
X721Y3787*
X721Y3787*
X721Y3786*
X722Y3786*
X722Y3785*
X723Y3785*
X723Y3785*
X723Y3784*
X724Y3784*
X724Y3784*
X725Y3783*
X725Y3783*
X726Y3783*
X726Y3783*
X727Y3783*
X728Y3783*
X728*
X729Y3783*
X729Y3783*
X730Y3783*
X730Y3783*
X731Y3783*
X731Y3784*
X732Y3784*
X732Y3784*
X733Y3785*
X733Y3785*
X734Y3785*
X734Y3786*
X734Y3786*
X735Y3787*
X735Y3787*
X735Y3788*
X735Y3788*
X735Y3789*
X736Y3789*
X736Y3790*
X736Y3790*
X736Y3791*
X1889Y3805D02*
D01*
X1889Y3806*
X1889Y3806*
X1889Y3807*
X1889Y3807*
X1888Y3808*
X1888Y3808*
X1888Y3809*
X1888Y3809*
X1887Y3810*
X1887Y3810*
X1887Y3810*
X1886Y3811*
X1886Y3811*
X1885Y3811*
X1885Y3812*
X1884Y3812*
X1884Y3812*
X1883Y3812*
X1883Y3813*
X1882Y3813*
X1882Y3813*
X1881Y3813*
X1881*
X1880Y3813*
X1880Y3813*
X1879Y3813*
X1879Y3812*
X1878Y3812*
X1878Y3812*
X1877Y3812*
X1877Y3811*
X1876Y3811*
X1876Y3811*
X1875Y3810*
X1875Y3810*
X1875Y3810*
X1874Y3809*
X1874Y3809*
X1874Y3808*
X1874Y3808*
X1873Y3807*
X1873Y3807*
X1873Y3806*
X1873Y3806*
X1873Y3805*
X1873Y3804*
X1873Y3804*
X1873Y3803*
X1873Y3803*
X1874Y3802*
X1874Y3802*
X1874Y3801*
X1874Y3801*
X1875Y3800*
X1875Y3800*
X1875Y3800*
X1876Y3799*
X1876Y3799*
X1877Y3798*
X1877Y3798*
X1878Y3798*
X1878Y3798*
X1879Y3797*
X1879Y3797*
X1880Y3797*
X1880Y3797*
X1881Y3797*
X1881*
X1882Y3797*
X1882Y3797*
X1883Y3797*
X1883Y3797*
X1884Y3798*
X1884Y3798*
X1885Y3798*
X1885Y3798*
X1886Y3799*
X1886Y3799*
X1887Y3800*
X1887Y3800*
X1887Y3800*
X1888Y3801*
X1888Y3801*
X1888Y3802*
X1888Y3802*
X1889Y3803*
X1889Y3803*
X1889Y3804*
X1889Y3804*
X1889Y3805*
G54D60*
X3178Y3652D02*
D01*
X3178Y3651*
X3178Y3650*
X3178Y3649*
X3178Y3649*
X3178Y3648*
X3179Y3647*
X3179Y3647*
X3179Y3646*
X3180Y3646*
X3180Y3645*
X3181Y3645*
X3181Y3644*
X3182Y3644*
X3182Y3643*
X3183Y3643*
X3183Y3643*
X3184Y3642*
X3185Y3642*
X3185Y3642*
X3186Y3642*
X3187Y3642*
X3188Y3642*
X3188Y3642*
Y3842D02*
D01*
X3187Y3841*
X3186Y3841*
X3186Y3841*
X3185Y3841*
X3184Y3841*
X3184Y3841*
X3183Y3840*
X3183Y3840*
X3182Y3840*
X3181Y3839*
X3181Y3839*
X3180Y3838*
X3180Y3838*
X3180Y3837*
X3179Y3837*
X3179Y3836*
X3179Y3835*
X3178Y3835*
X3178Y3834*
X3178Y3833*
X3178Y3833*
X3178Y3832*
X3178Y3832*
X3268Y3642D02*
D01*
X3269Y3642*
X3269Y3642*
X3270Y3642*
X3271Y3642*
X3271Y3642*
X3272Y3642*
X3273Y3643*
X3273Y3643*
X3274Y3643*
X3274Y3644*
X3275Y3644*
X3275Y3645*
X3276Y3645*
X3276Y3646*
X3277Y3647*
X3277Y3647*
X3277Y3648*
X3277Y3648*
X3278Y3649*
X3278Y3650*
X3278Y3650*
X3278Y3651*
X3278Y3652*
Y3832D02*
D01*
X3278Y3832*
X3278Y3833*
X3278Y3834*
X3277Y3834*
X3277Y3835*
X3277Y3836*
X3277Y3836*
X3276Y3837*
X3276Y3837*
X3276Y3838*
X3275Y3838*
X3275Y3839*
X3274Y3839*
X3273Y3840*
X3273Y3840*
X3272Y3841*
X3272Y3841*
X3271Y3841*
X3270Y3841*
X3270Y3841*
X3269Y3841*
X3268Y3842*
X3268Y3842*
X264Y3651D02*
D01*
X264Y3650*
X265Y3649*
X265Y3649*
X265Y3648*
X265Y3647*
X265Y3647*
X266Y3646*
X266Y3645*
X266Y3645*
X267Y3644*
X267Y3644*
X268Y3643*
X268Y3643*
X269Y3642*
X269Y3642*
X270Y3642*
X271Y3641*
X271Y3641*
X272Y3641*
X273Y3641*
X273Y3641*
X274Y3641*
X274Y3641*
Y3841D02*
D01*
X274Y3841*
X273Y3841*
X272Y3841*
X272Y3840*
X271Y3840*
X270Y3840*
X270Y3840*
X269Y3839*
X269Y3839*
X268Y3838*
X268Y3838*
X267Y3837*
X267Y3837*
X266Y3836*
X266Y3836*
X265Y3835*
X265Y3834*
X265Y3834*
X265Y3833*
X265Y3832*
X265Y3832*
X264Y3831*
X264Y3831*
X354Y3641D02*
D01*
X355Y3641*
X356Y3641*
X357Y3641*
X357Y3641*
X358Y3641*
X359Y3642*
X359Y3642*
X360Y3642*
X360Y3643*
X361Y3643*
X361Y3644*
X362Y3644*
X362Y3645*
X363Y3645*
X363Y3646*
X363Y3646*
X364Y3647*
X364Y3648*
X364Y3648*
X364Y3649*
X364Y3650*
X364Y3650*
X364Y3651*
Y3831D02*
D01*
X364Y3831*
X364Y3832*
X364Y3833*
X364Y3834*
X364Y3834*
X364Y3835*
X363Y3835*
X363Y3836*
X363Y3837*
X362Y3837*
X362Y3838*
X361Y3838*
X361Y3839*
X360Y3839*
X359Y3839*
X359Y3840*
X358Y3840*
X358Y3840*
X357Y3840*
X356Y3841*
X356Y3841*
X355Y3841*
X354Y3841*
X3829Y3630D02*
D01*
X3830Y3630*
X3831Y3630*
X3831Y3630*
X3832Y3631*
X3833Y3631*
X3833Y3631*
X3834Y3631*
X3835Y3632*
X3835Y3632*
X3836Y3632*
X3836Y3633*
X3837Y3633*
X3837Y3634*
X3838Y3635*
X3838Y3635*
X3838Y3636*
X3838Y3636*
X3839Y3637*
X3839Y3638*
X3839Y3638*
X3839Y3639*
X3839Y3640*
X3839Y3640*
X3439D02*
D01*
X3439Y3639*
X3439Y3639*
X3439Y3638*
X3440Y3637*
X3440Y3637*
X3440Y3636*
X3440Y3635*
X3441Y3635*
X3441Y3634*
X3442Y3634*
X3442Y3633*
X3443Y3633*
X3443Y3632*
X3444Y3632*
X3444Y3631*
X3445Y3631*
X3445Y3631*
X3446Y3631*
X3447Y3630*
X3447Y3630*
X3448Y3630*
X3449Y3630*
X3449Y3630*
X3839Y3820D02*
D01*
X3839Y3821*
X3839Y3822*
X3839Y3822*
X3839Y3823*
X3839Y3824*
X3838Y3824*
X3838Y3825*
X3838Y3825*
X3837Y3826*
X3837Y3827*
X3836Y3827*
X3836Y3828*
X3835Y3828*
X3835Y3828*
X3834Y3829*
X3834Y3829*
X3833Y3829*
X3832Y3830*
X3832Y3830*
X3831Y3830*
X3830Y3830*
X3830Y3830*
X3829Y3830*
X3449D02*
D01*
X3449Y3830*
X3448Y3830*
X3447Y3830*
X3446Y3830*
X3446Y3830*
X3445Y3829*
X3445Y3829*
X3444Y3829*
X3443Y3828*
X3443Y3828*
X3442Y3827*
X3442Y3827*
X3441Y3826*
X3441Y3826*
X3441Y3825*
X3440Y3825*
X3440Y3824*
X3440Y3823*
X3440Y3823*
X3439Y3822*
X3439Y3821*
X3439Y3820*
X3439Y3820*
X3752Y1007D02*
D01*
X3752Y1008*
X3752Y1009*
X3752Y1009*
X3751Y1010*
X3751Y1011*
X3751Y1011*
X3751Y1012*
X3750Y1013*
X3750Y1013*
X3750Y1014*
X3749Y1014*
X3749Y1015*
X3748Y1015*
X3747Y1016*
X3747Y1016*
X3746Y1016*
X3746Y1016*
X3745Y1017*
X3744Y1017*
X3744Y1017*
X3743Y1017*
X3742Y1017*
X3742Y1017*
Y417D02*
D01*
X3743Y417*
X3743Y417*
X3744Y417*
X3745Y418*
X3745Y418*
X3746Y418*
X3747Y418*
X3747Y419*
X3748Y419*
X3748Y420*
X3749Y420*
X3749Y421*
X3750Y421*
X3750Y422*
X3751Y422*
X3751Y423*
X3751Y423*
X3751Y424*
X3752Y425*
X3752Y425*
X3752Y426*
X3752Y427*
X3752Y427*
X3562Y1017D02*
D01*
X3561Y1017*
X3560Y1017*
X3560Y1017*
X3559Y1017*
X3558Y1017*
X3558Y1016*
X3557Y1016*
X3557Y1016*
X3556Y1015*
X3555Y1015*
X3555Y1014*
X3554Y1014*
X3554Y1013*
X3554Y1013*
X3553Y1012*
X3553Y1012*
X3553Y1011*
X3552Y1010*
X3552Y1010*
X3552Y1009*
X3552Y1008*
X3552Y1008*
X3552Y1007*
Y427D02*
D01*
X3552Y427*
X3552Y426*
X3552Y425*
X3552Y424*
X3552Y424*
X3553Y423*
X3553Y423*
X3553Y422*
X3554Y421*
X3554Y421*
X3555Y420*
X3555Y420*
X3556Y419*
X3556Y419*
X3557Y419*
X3557Y418*
X3558Y418*
X3559Y418*
X3559Y418*
X3560Y417*
X3561Y417*
X3562Y417*
X3562Y417*
X3816Y3404D02*
X3852D01*
Y3282D02*
Y3404D01*
X3828Y3282D02*
X3852D01*
X3608Y3404D02*
X3643D01*
X3608Y3282D02*
Y3404D01*
Y3282D02*
X3631D01*
X3153Y3762D02*
Y3822D01*
X3178Y3652D02*
Y3832D01*
X3278Y3652D02*
Y3832D01*
X3188Y3842D02*
X3268D01*
X3188Y3642D02*
X3268D01*
X239Y3761D02*
Y3821D01*
X264Y3651D02*
Y3831D01*
X364Y3651D02*
Y3831D01*
X274Y3841D02*
X354D01*
X274Y3641D02*
X354D01*
X3459Y3605D02*
X3519D01*
X3449Y3630D02*
X3829D01*
X3449Y3830D02*
X3829D01*
X3439Y3640D02*
Y3820D01*
X3839Y3640D02*
Y3820D01*
X3777Y437D02*
Y497D01*
X3752Y427D02*
Y1007D01*
X3552Y427D02*
Y1007D01*
X3562Y417D02*
X3742D01*
X3562Y1017D02*
X3742D01*
X2197Y3906D02*
X2563Y3906D01*
X1476Y3641D02*
Y3651D01*
X1350Y3641D02*
X1476D01*
X964Y3651D02*
Y3681D01*
Y3742D02*
Y3777D01*
X1026Y3897D02*
X1417D01*
X1655Y3889D02*
X1687D01*
X1750Y3865D02*
X1765D01*
X1758*
Y3897*
X1750*
X1789Y3865D02*
Y3897D01*
X1813*
X1821Y3889*
Y3865*
X1884Y3889D02*
X1915D01*
X1899Y3905D02*
Y3873D01*
X413Y3494D02*
X453D01*
X543Y3464D02*
X563D01*
X573Y3474*
Y3494*
X563Y3504*
X543*
X533Y3494*
Y3474*
X543Y3464*
X593Y3504D02*
Y3474D01*
X603Y3464*
X633*
Y3504*
X663Y3514D02*
Y3504D01*
X653*
X673*
X663*
Y3474*
X673Y3464*
X703D02*
X723D01*
X713*
Y3524*
X703Y3514*
X813Y3494D02*
X853D01*
X833Y3514D02*
Y3474D01*
X2688Y3498D02*
X2728D01*
X2818Y3468D02*
X2838D01*
X2848Y3478*
Y3498*
X2838Y3508*
X2818*
X2808Y3498*
Y3478*
X2818Y3468*
X2868Y3508D02*
Y3478D01*
X2878Y3468*
X2908*
Y3508*
X2938Y3518D02*
Y3508D01*
X2928*
X2948*
X2938*
Y3478*
X2948Y3468*
X3018D02*
X2978D01*
X3018Y3508*
Y3518*
X3008Y3528*
X2988*
X2978Y3518*
X3098Y3498D02*
X3138D01*
X3118Y3518D02*
Y3478D01*
X2171Y3447D02*
X2111D01*
Y3477*
X2121Y3487*
X2141*
X2151Y3477*
Y3447*
Y3467D02*
X2171Y3487D01*
Y3547D02*
Y3507D01*
X2131Y3547*
X2121*
X2111Y3537*
Y3517*
X2121Y3507*
X2171Y3597D02*
X2111D01*
X2141Y3567*
Y3607*
X2593Y3502D02*
X2533D01*
Y3532*
X2543Y3542*
X2563*
X2573Y3532*
Y3502*
Y3522D02*
X2593Y3542D01*
Y3602D02*
Y3562D01*
X2553Y3602*
X2543*
X2533Y3592*
Y3572*
X2543Y3562*
Y3622D02*
X2533Y3632D01*
Y3652*
X2543Y3662*
X2553*
X2563Y3652*
Y3642*
Y3652*
X2573Y3662*
X2583*
X2593Y3652*
Y3632*
X2583Y3622*
X2425Y3515D02*
X2365D01*
Y3545*
X2375Y3555*
X2395*
X2405Y3545*
Y3515*
Y3535D02*
X2425Y3555D01*
Y3615D02*
Y3575D01*
X2385Y3615*
X2375*
X2365Y3605*
Y3585*
X2375Y3575*
X2425Y3635D02*
Y3655D01*
Y3645*
X2365*
X2375Y3635*
X2254Y3451D02*
X2194D01*
Y3481*
X2204Y3491*
X2224*
X2234Y3481*
Y3451*
Y3471D02*
X2254Y3491D01*
Y3511D02*
Y3531D01*
Y3521*
X2194*
X2204Y3511*
X2244Y3561D02*
X2254Y3571D01*
Y3591*
X2244Y3601*
X2204*
X2194Y3591*
Y3571*
X2204Y3561*
X2214*
X2224Y3571*
Y3601*
X1407Y3468D02*
X1347D01*
Y3498*
X1357Y3508*
X1377*
X1387Y3498*
Y3468*
Y3488D02*
X1407Y3508D01*
Y3528D02*
Y3548D01*
Y3538*
X1347*
X1357Y3528*
Y3578D02*
X1347Y3588D01*
Y3608*
X1357Y3618*
X1367*
X1377Y3608*
X1387Y3618*
X1397*
X1407Y3608*
Y3588*
X1397Y3578*
X1387*
X1377Y3588*
X1367Y3578*
X1357*
X1377Y3588D02*
Y3608D01*
X1432Y3676D02*
Y3736D01*
X1462*
X1472Y3726*
Y3706*
X1462Y3696*
X1432*
X1452D02*
X1472Y3676D01*
X1492D02*
X1512D01*
X1502*
Y3736*
X1492Y3726*
X1542Y3736D02*
X1582D01*
Y3726*
X1542Y3686*
Y3676*
X975Y3548D02*
Y3608D01*
X1004*
X1014Y3598*
Y3578*
X1004Y3568*
X975*
X994D02*
X1014Y3548D01*
X1034D02*
X1054D01*
X1044*
Y3608*
X1034Y3598*
X1124Y3608D02*
X1084D01*
Y3578*
X1104Y3588*
X1114*
X1124Y3578*
Y3558*
X1114Y3548*
X1094*
X1084Y3558*
X1563Y3466D02*
X1503D01*
Y3496*
X1513Y3506*
X1533*
X1543Y3496*
Y3466*
Y3486D02*
X1563Y3506D01*
Y3526D02*
Y3546D01*
Y3536*
X1503*
X1513Y3526*
Y3576D02*
X1503Y3586D01*
Y3606*
X1513Y3616*
X1523*
X1533Y3606*
Y3596*
Y3606*
X1543Y3616*
X1553*
X1563Y3606*
Y3586*
X1553Y3576*
X2380Y3707D02*
X2430D01*
X2440Y3717*
Y3737*
X2430Y3747*
X2380*
X2430Y3767D02*
X2440Y3776D01*
Y3796*
X2430Y3806*
X2390*
X2380Y3796*
Y3776*
X2390Y3767*
X2400*
X2410Y3776*
Y3806*
X1229Y3716D02*
X1279D01*
X1289Y3726*
Y3746*
X1279Y3756*
X1229*
X1239Y3776D02*
X1229Y3785D01*
Y3805*
X1239Y3815*
X1249*
X1259Y3805*
X1269Y3815*
X1279*
X1289Y3805*
Y3785*
X1279Y3776*
X1269*
X1259Y3785*
X1249Y3776*
X1239*
X1259Y3785D02*
Y3805D01*
X1422Y1191D02*
Y1141D01*
X1432Y1131*
X1452*
X1462Y1141*
Y1191*
X1482D02*
X1522D01*
Y1181*
X1482Y1141*
Y1131*
X2220Y940D02*
Y890D01*
X2230Y880*
X2250*
X2260Y890*
Y940*
X2320D02*
X2300Y930D01*
X2280Y910*
Y890*
X2290Y880*
X2310*
X2320Y890*
Y900*
X2310Y910*
X2280*
X1424Y1841D02*
Y1791D01*
X1434Y1781*
X1454*
X1464Y1791*
Y1841*
X1524D02*
X1484D01*
Y1811*
X1504Y1821*
X1514*
X1524Y1811*
Y1791*
X1514Y1781*
X1494*
X1484Y1791*
X2041Y373D02*
Y323D01*
X2051Y313*
X2071*
X2081Y323*
Y373*
X2131Y313D02*
Y373D01*
X2101Y343*
X2141*
X1721Y1270D02*
Y1220D01*
X1731Y1210*
X1751*
X1761Y1220*
Y1270*
X1781Y1260D02*
X1791Y1270D01*
X1811*
X1821Y1260*
Y1250*
X1811Y1240*
X1801*
X1811*
X1821Y1230*
Y1220*
X1811Y1210*
X1791*
X1781Y1220*
X1721Y1919D02*
Y1869D01*
X1731Y1859*
X1751*
X1761Y1869*
Y1919*
X1821Y1859D02*
X1781D01*
X1821Y1899*
Y1909*
X1811Y1919*
X1791*
X1781Y1909*
X1534Y407D02*
Y357D01*
X1544Y347*
X1564*
X1574Y357*
Y407*
X1594Y347D02*
X1614D01*
X1604*
Y407*
X1594Y397*
X1831Y3112D02*
Y3172D01*
X1861*
X1871Y3162*
Y3142*
X1861Y3132*
X1831*
X1851D02*
X1871Y3112D01*
X1931D02*
X1891D01*
X1931Y3152*
Y3162*
X1921Y3172*
X1901*
X1891Y3162*
X1991Y3112D02*
X1951D01*
X1991Y3152*
Y3162*
X1981Y3172*
X1961*
X1951Y3162*
X2096Y3743D02*
X2036D01*
Y3773*
X2046Y3783*
X2066*
X2076Y3773*
Y3743*
Y3763D02*
X2096Y3783D01*
Y3843D02*
Y3803D01*
X2056Y3843*
X2046*
X2036Y3833*
Y3813*
X2046Y3803*
Y3863D02*
X2036Y3873D01*
Y3893*
X2046Y3903*
X2086*
X2096Y3893*
Y3873*
X2086Y3863*
X2046*
X1551Y3112D02*
Y3172D01*
X1581*
X1591Y3162*
Y3142*
X1581Y3132*
X1551*
X1571D02*
X1591Y3112D01*
X1611D02*
X1631D01*
X1621*
Y3172*
X1611Y3162*
X1701Y3172D02*
X1681Y3162D01*
X1661Y3142*
Y3122*
X1671Y3112*
X1691*
X1701Y3122*
Y3132*
X1691Y3142*
X1661*
X935Y3739D02*
X875D01*
Y3769*
X885Y3779*
X905*
X915Y3769*
Y3739*
Y3759D02*
X935Y3779D01*
Y3799D02*
Y3819D01*
Y3809*
X875*
X885Y3799*
X935Y3879D02*
X875D01*
X905Y3849*
Y3889*
X1208Y971D02*
Y1031D01*
X1238*
X1248Y1021*
Y1001*
X1238Y991*
X1208*
X1228D02*
X1248Y971D01*
X1268D02*
X1288D01*
X1278*
Y1031*
X1268Y1021*
X1358Y971D02*
X1318D01*
X1358Y1011*
Y1021*
X1348Y1031*
X1328*
X1318Y1021*
X1234Y1059D02*
Y1119D01*
X1264*
X1274Y1109*
Y1089*
X1264Y1079*
X1234*
X1254D02*
X1274Y1059D01*
X1294D02*
X1314D01*
X1304*
Y1119*
X1294Y1109*
X1344Y1059D02*
X1364D01*
X1354*
Y1119*
X1344Y1109*
X1224Y1627D02*
Y1687D01*
X1254*
X1264Y1677*
Y1657*
X1254Y1647*
X1224*
X1244D02*
X1264Y1627D01*
X1284D02*
X1304D01*
X1294*
Y1687*
X1284Y1677*
X1334D02*
X1344Y1687D01*
X1364*
X1374Y1677*
Y1637*
X1364Y1627*
X1344*
X1334Y1637*
Y1677*
X1268Y1711D02*
Y1771D01*
X1298*
X1308Y1761*
Y1741*
X1298Y1731*
X1268*
X1288D02*
X1308Y1711D01*
X1328Y1721D02*
X1338Y1711D01*
X1358*
X1368Y1721*
Y1761*
X1358Y1771*
X1338*
X1328Y1761*
Y1751*
X1338Y1741*
X1368*
X1779Y710D02*
Y770D01*
X1809*
X1819Y760*
Y740*
X1809Y730*
X1779*
X1799D02*
X1819Y710D01*
X1839Y760D02*
X1849Y770D01*
X1869*
X1879Y760*
Y750*
X1869Y740*
X1879Y730*
Y720*
X1869Y710*
X1849*
X1839Y720*
Y730*
X1849Y740*
X1839Y750*
Y760*
X1849Y740D02*
X1869D01*
X1779Y631D02*
Y691D01*
X1809*
X1819Y681*
Y661*
X1809Y651*
X1779*
X1799D02*
X1819Y631D01*
X1839Y691D02*
X1879D01*
Y681*
X1839Y641*
Y631*
X1690Y1465D02*
Y1525D01*
X1720*
X1730Y1515*
Y1495*
X1720Y1485*
X1690*
X1710D02*
X1730Y1465D01*
X1790Y1525D02*
X1770Y1515D01*
X1750Y1495*
Y1475*
X1760Y1465*
X1780*
X1790Y1475*
Y1485*
X1780Y1495*
X1750*
X1690Y1385D02*
Y1445D01*
X1720*
X1730Y1435*
Y1415*
X1720Y1405*
X1690*
X1710D02*
X1730Y1385D01*
X1790Y1445D02*
X1750D01*
Y1415*
X1770Y1425*
X1780*
X1790Y1415*
Y1395*
X1780Y1385*
X1760*
X1750Y1395*
X2167Y693D02*
Y753D01*
X2197*
X2207Y743*
Y723*
X2197Y713*
X2167*
X2187D02*
X2207Y693D01*
X2257D02*
Y753D01*
X2227Y723*
X2267*
X2500Y284D02*
X2440D01*
Y314*
X2450Y324*
X2470*
X2480Y314*
Y284*
Y304D02*
X2500Y324D01*
X2450Y344D02*
X2440Y354D01*
Y374*
X2450Y384*
X2460*
X2470Y374*
Y364*
Y374*
X2480Y384*
X2490*
X2500Y374*
Y354*
X2490Y344*
X2608Y284D02*
X2548D01*
Y314*
X2558Y324*
X2578*
X2588Y314*
Y284*
Y304D02*
X2608Y324D01*
Y384D02*
Y344D01*
X2568Y384*
X2558*
X2548Y374*
Y354*
X2558Y344*
X1402Y347D02*
Y407D01*
X1432*
X1442Y397*
Y377*
X1432Y367*
X1402*
X1422D02*
X1442Y347D01*
X1462D02*
X1482D01*
X1472*
Y407*
X1462Y397*
X2603Y3373D02*
Y3413D01*
X2593Y3423*
X2573*
X2563Y3413*
Y3373*
X2573Y3363*
X2593*
X2583Y3383D02*
X2603Y3363D01*
X2593D02*
X2603Y3373D01*
X2663Y3363D02*
X2623D01*
X2663Y3403*
Y3413*
X2653Y3423*
X2633*
X2623Y3413*
X1220Y3306D02*
Y3346D01*
X1210Y3356*
X1190*
X1180Y3346*
Y3306*
X1190Y3296*
X1210*
X1200Y3316D02*
X1220Y3296D01*
X1210D02*
X1220Y3306D01*
X1240Y3296D02*
X1260D01*
X1250*
Y3356*
X1240Y3346*
X2528Y2884D02*
Y2824D01*
X2568*
X2588Y2874D02*
X2598Y2884D01*
X2618*
X2628Y2874*
Y2864*
X2618Y2854*
X2608*
X2618*
X2628Y2844*
Y2834*
X2618Y2824*
X2598*
X2588Y2834*
X894Y2884D02*
Y2824D01*
X934*
X994D02*
X954D01*
X994Y2864*
Y2874*
X984Y2884*
X964*
X954Y2874*
X1398Y657D02*
Y597D01*
X1438*
X1458D02*
X1478D01*
X1468*
Y657*
X1458Y647*
X3218Y3592D02*
X3198D01*
X3208*
Y3543*
X3198Y3533*
X3188*
X3178Y3543*
X3268Y3533D02*
Y3592D01*
X3238Y3562*
X3278*
X304Y3615D02*
X284D01*
X294*
Y3565*
X284Y3555*
X274*
X264Y3565*
X364Y3555D02*
X324D01*
X364Y3595*
Y3605*
X354Y3615*
X334*
X324Y3605*
X3618Y3612D02*
Y3552D01*
Y3582*
X3658*
Y3612*
Y3552*
X3678Y3612D02*
Y3552D01*
X3708*
X3718Y3562*
Y3602*
X3708Y3612*
X3678*
X3738Y3552D02*
Y3612D01*
X3768*
X3778Y3602*
Y3582*
X3768Y3572*
X3738*
X3758D02*
X3778Y3552D01*
X3798Y3602D02*
X3808Y3612D01*
X3828*
X3838Y3602*
Y3592*
X3828Y3582*
X3818*
X3828*
X3838Y3572*
Y3562*
X3828Y3552*
X3808*
X3798Y3562*
X3619Y3192D02*
Y3132D01*
Y3162*
X3659*
Y3192*
Y3132*
X3679Y3192D02*
Y3132D01*
X3709*
X3719Y3142*
Y3182*
X3709Y3192*
X3679*
X3739Y3132D02*
Y3192D01*
X3769*
X3779Y3182*
Y3162*
X3769Y3152*
X3739*
X3759D02*
X3779Y3132D01*
X3839D02*
X3799D01*
X3839Y3172*
Y3182*
X3829Y3192*
X3809*
X3799Y3182*
X3557Y1112D02*
Y1053D01*
Y1082*
X3596*
Y1112*
Y1053*
X3616Y1112D02*
Y1053D01*
X3646*
X3656Y1063*
Y1102*
X3646Y1112*
X3616*
X3676Y1053D02*
Y1112D01*
X3706*
X3716Y1102*
Y1082*
X3706Y1072*
X3676*
X3696D02*
X3716Y1053D01*
X3736D02*
X3756D01*
X3746*
Y1112*
X3736Y1102*
X2027Y3439D02*
X2087D01*
Y3469*
X2077Y3479*
X2037*
X2027Y3469*
Y3439*
X2087Y3539D02*
Y3499D01*
X2047Y3539*
X2037*
X2027Y3529*
Y3509*
X2037Y3499*
X1426Y3468D02*
X1486D01*
Y3498*
X1476Y3508*
X1436*
X1426Y3498*
Y3468*
X1486Y3528D02*
Y3548D01*
Y3538*
X1426*
X1436Y3528*
X2799Y3406D02*
X2789Y3416D01*
X2769*
X2759Y3406*
Y3366*
X2769Y3356*
X2789*
X2799Y3366*
X2859Y3356D02*
X2819D01*
X2859Y3396*
Y3406*
X2849Y3416*
X2829*
X2819Y3406*
X2879Y3356D02*
X2899D01*
X2889*
Y3416*
X2879Y3406*
X2046Y3596D02*
X2036Y3586D01*
Y3566*
X2046Y3556*
X2086*
X2096Y3566*
Y3586*
X2086Y3596*
X2096Y3655D02*
Y3616D01*
X2056Y3655*
X2046*
X2036Y3645*
Y3625*
X2046Y3616*
Y3675D02*
X2036Y3685D01*
Y3705*
X2046Y3715*
X2086*
X2096Y3705*
Y3685*
X2086Y3675*
X2046*
X2338Y3343D02*
X2328Y3353D01*
X2308*
X2298Y3343*
Y3303*
X2308Y3293*
X2328*
X2338Y3303*
X2358Y3293D02*
X2378D01*
X2368*
Y3353*
X2358Y3343*
X2408Y3303D02*
X2418Y3293D01*
X2438*
X2448Y3303*
Y3343*
X2438Y3353*
X2418*
X2408Y3343*
Y3333*
X2418Y3323*
X2448*
X2622Y3902D02*
X2612Y3912D01*
X2592*
X2582Y3902*
Y3862*
X2592Y3852*
X2612*
X2622Y3862*
X2642Y3852D02*
X2662D01*
X2652*
Y3912*
X2642Y3902*
X2692D02*
X2702Y3912D01*
X2722*
X2732Y3902*
Y3892*
X2722Y3882*
X2732Y3872*
Y3862*
X2722Y3852*
X2702*
X2692Y3862*
Y3872*
X2702Y3882*
X2692Y3892*
Y3902*
X2702Y3882D02*
X2722D01*
X673Y3389D02*
X663Y3399D01*
X643*
X633Y3389*
Y3349*
X643Y3339*
X663*
X673Y3349*
X693Y3339D02*
X713D01*
X703*
Y3399*
X693Y3389*
X743Y3399D02*
X783D01*
Y3389*
X743Y3349*
Y3339*
X885Y3581D02*
X875Y3571D01*
Y3551*
X885Y3541*
X925*
X935Y3551*
Y3571*
X925Y3581*
X935Y3601D02*
Y3621D01*
Y3611*
X875*
X885Y3601*
X875Y3691D02*
X885Y3671D01*
X905Y3651*
X925*
X935Y3661*
Y3681*
X925Y3691*
X915*
X905Y3681*
Y3651*
X1014Y3523D02*
X1004Y3533D01*
X985*
X975Y3523*
Y3483*
X985Y3473*
X1004*
X1014Y3483*
X1034Y3473D02*
X1054D01*
X1044*
Y3533*
X1034Y3523*
X1124Y3533D02*
X1084D01*
Y3503*
X1104Y3513*
X1114*
X1124Y3503*
Y3483*
X1114Y3473*
X1094*
X1084Y3483*
X1472Y3890D02*
X1462Y3900D01*
X1442*
X1432Y3890*
Y3850*
X1442Y3840*
X1462*
X1472Y3850*
X1492Y3840D02*
X1512D01*
X1502*
Y3900*
X1492Y3890*
X1572Y3840D02*
Y3900D01*
X1542Y3870*
X1582*
X1579Y2769D02*
X1569Y2779D01*
X1549*
X1539Y2769*
Y2730*
X1549Y2720*
X1569*
X1579Y2730*
X1599Y2720D02*
X1619D01*
X1609*
Y2779*
X1599Y2769*
X1649D02*
X1659Y2779D01*
X1679*
X1689Y2769*
Y2760*
X1679Y2750*
X1669*
X1679*
X1689Y2740*
Y2730*
X1679Y2720*
X1659*
X1649Y2730*
X1421Y1307D02*
X1411Y1317D01*
X1391*
X1381Y1307*
Y1267*
X1391Y1257*
X1411*
X1421Y1267*
X1441Y1257D02*
X1461D01*
X1451*
Y1317*
X1441Y1307*
X1531Y1257D02*
X1491D01*
X1531Y1297*
Y1307*
X1521Y1317*
X1501*
X1491Y1307*
X1696Y1358D02*
X1686Y1368D01*
X1666*
X1656Y1358*
Y1318*
X1666Y1308*
X1686*
X1696Y1318*
X1716Y1308D02*
X1736D01*
X1726*
Y1368*
X1716Y1358*
X1766Y1308D02*
X1786D01*
X1776*
Y1368*
X1766Y1358*
X2258Y835D02*
X2248Y845D01*
X2228*
X2218Y835*
Y795*
X2228Y785*
X2248*
X2258Y795*
X2278Y785D02*
X2298D01*
X2288*
Y845*
X2278Y835*
X2328D02*
X2338Y845D01*
X2358*
X2368Y835*
Y795*
X2358Y785*
X2338*
X2328Y795*
Y835*
X1464Y1959D02*
X1454Y1969D01*
X1434*
X1424Y1959*
Y1919*
X1434Y1909*
X1454*
X1464Y1919*
X1484D02*
X1494Y1909D01*
X1514*
X1524Y1919*
Y1959*
X1514Y1969*
X1494*
X1484Y1959*
Y1949*
X1494Y1939*
X1524*
X1677Y2008D02*
X1667Y2018D01*
X1647*
X1637Y2008*
Y1968*
X1647Y1958*
X1667*
X1677Y1968*
X1697Y2008D02*
X1707Y2018D01*
X1727*
X1737Y2008*
Y1998*
X1727Y1988*
X1737Y1978*
Y1968*
X1727Y1958*
X1707*
X1697Y1968*
Y1978*
X1707Y1988*
X1697Y1998*
Y2008*
X1707Y1988D02*
X1727D01*
X1897Y1025D02*
X1887Y1035D01*
X1867*
X1857Y1025*
Y985*
X1867Y975*
X1887*
X1897Y985*
X1917Y1035D02*
X1957D01*
Y1025*
X1917Y985*
Y975*
X1729Y1594D02*
X1719Y1604D01*
X1699*
X1689Y1594*
Y1554*
X1699Y1544*
X1719*
X1729Y1554*
X1788Y1604D02*
X1768Y1594D01*
X1749Y1574*
Y1554*
X1758Y1544*
X1778*
X1788Y1554*
Y1564*
X1778Y1574*
X1749*
X2253Y383D02*
X2243Y373D01*
Y353*
X2253Y343*
X2293*
X2303Y353*
Y373*
X2293Y383*
X2243Y443D02*
Y403D01*
X2273*
X2263Y423*
Y433*
X2273Y443*
X2293*
X2303Y433*
Y413*
X2293Y403*
X2347Y383D02*
X2337Y373D01*
Y353*
X2347Y343*
X2387*
X2397Y353*
Y373*
X2387Y383*
X2397Y433D02*
X2337D01*
X2367Y403*
Y443*
X1580Y767D02*
X1570Y777D01*
X1551*
X1541Y767*
Y728*
X1551Y718*
X1570*
X1580Y728*
X1600Y767D02*
X1610Y777D01*
X1630*
X1640Y767*
Y757*
X1630Y747*
X1620*
X1630*
X1640Y737*
Y728*
X1630Y718*
X1610*
X1600Y728*
X1786Y408D02*
X1776Y418D01*
X1756*
X1746Y408*
Y368*
X1756Y358*
X1776*
X1786Y368*
X1846Y358D02*
X1806D01*
X1846Y398*
Y408*
X1836Y418*
X1816*
X1806Y408*
X1102Y778D02*
X1092Y788D01*
X1072*
X1062Y778*
Y738*
X1072Y728*
X1092*
X1102Y738*
X1122Y728D02*
X1142D01*
X1132*
Y788*
X1122Y778*
M02*