%FSLAX23Y23*%
%MOIN*%
%SFA1B1*%

%IPPOS*%
%ADD90R,0.080710X0.080710*%
%ADD91C,0.080710*%
%ADD92C,0.066930*%
%ADD93R,0.066930X0.066930*%
%ADD94R,0.066930X0.066930*%
%ADD95C,0.248030*%
%ADD96C,0.023620*%
%ADD97C,0.053940*%
%ADD98C,0.035430*%
%LNbase_pcb1_soldermask_bot-1*%
%LPD*%
G54D90*
X3011Y3707D03*
X728Y3706D03*
X1881Y3720D03*
G54D91*
X2814Y3707D03*
X531Y3706D03*
X1684Y3720D03*
G54D92*
X3228Y3692D03*
X314Y3691D03*
X3489Y3780D03*
X3589D03*
X3689D03*
X3789D03*
Y3680D03*
X3689D03*
X3589D03*
X3702Y567D03*
Y667D03*
Y767D03*
Y867D03*
Y967D03*
X3602D03*
Y867D03*
Y767D03*
Y667D03*
Y567D03*
Y467D03*
G54D93*
X3228Y3792D03*
X314Y3791D03*
X3702Y467D03*
G54D94*
X3489Y3680D03*
G54D95*
X3346Y3346D03*
X196D03*
X3346Y192D03*
X196Y196D03*
X2677Y2677D03*
X866D03*
X2677Y866D03*
X866D03*
G54D96*
X3671Y3249D03*
X3741Y3434D03*
X3660Y3424D03*
X3742Y3254D03*
X3559Y3250D03*
X3756Y297D03*
Y100D03*
X3559Y3053D03*
Y2856D03*
Y2659D03*
Y2462D03*
Y2265D03*
Y2069D03*
Y1872D03*
Y1675D03*
Y1478D03*
Y1281D03*
Y1084D03*
Y297D03*
Y100D03*
X3362Y3643D03*
Y3053D03*
Y2856D03*
Y2659D03*
Y2462D03*
Y2265D03*
Y2069D03*
Y1872D03*
Y1675D03*
Y1478D03*
Y1281D03*
Y1084D03*
Y887D03*
Y691D03*
X3165Y3643D03*
Y1478D03*
Y1281D03*
Y1084D03*
Y887D03*
Y691D03*
Y297D03*
Y100D03*
X2969Y3447D03*
Y3250D03*
Y3053D03*
Y2856D03*
Y2659D03*
Y2462D03*
Y2265D03*
Y2069D03*
Y1872D03*
Y1675D03*
Y1478D03*
Y1281D03*
Y1084D03*
Y887D03*
Y691D03*
Y297D03*
Y100D03*
X2772Y3643D03*
Y2856D03*
Y2462D03*
Y2069D03*
Y1872D03*
Y1675D03*
Y1478D03*
Y1281D03*
Y1084D03*
Y691D03*
Y297D03*
Y100D03*
X2575Y3643D03*
Y3447D03*
Y3250D03*
Y3053D03*
Y2856D03*
Y1084D03*
Y691D03*
Y297D03*
Y100D03*
X2378Y3250D03*
Y2856D03*
Y887D03*
Y691D03*
Y297D03*
Y100D03*
X2181Y3250D03*
Y3053D03*
Y2856D03*
Y887D03*
Y297D03*
Y100D03*
X1984Y3643D03*
Y3447D03*
Y3250D03*
Y2856D03*
Y297D03*
Y100D03*
X1787Y3643D03*
Y2462D03*
Y2265D03*
Y2069D03*
Y1872D03*
Y1281D03*
Y887D03*
Y297D03*
Y100D03*
X1591Y3643D03*
Y3053D03*
Y2856D03*
Y2462D03*
Y2265D03*
Y2069D03*
Y1478D03*
Y297D03*
Y100D03*
X1394Y3643D03*
Y3250D03*
Y2856D03*
Y2659D03*
Y2462D03*
Y2265D03*
Y2069D03*
Y1872D03*
Y1478D03*
Y691D03*
Y297D03*
Y100D03*
X1197Y3250D03*
Y3053D03*
Y2856D03*
Y2659D03*
Y2462D03*
Y2265D03*
Y2069D03*
Y1872D03*
Y1675D03*
Y1478D03*
Y1281D03*
Y1084D03*
Y887D03*
Y297D03*
Y100D03*
X1000Y2856D03*
Y2462D03*
Y2265D03*
Y2069D03*
Y1872D03*
Y1675D03*
Y1478D03*
Y1281D03*
Y1084D03*
Y691D03*
Y494D03*
Y297D03*
Y100D03*
X803Y2856D03*
Y2462D03*
Y2265D03*
Y2069D03*
Y1872D03*
Y1675D03*
Y1478D03*
Y1281D03*
Y1084D03*
Y691D03*
Y494D03*
Y297D03*
Y100D03*
X606Y3643D03*
Y3447D03*
Y3250D03*
Y3053D03*
Y2856D03*
Y691D03*
Y494D03*
Y297D03*
Y100D03*
X410Y3643D03*
Y3447D03*
Y3250D03*
Y3053D03*
Y2856D03*
Y691D03*
Y494D03*
Y297D03*
Y100D03*
X213Y3643D03*
Y3053D03*
Y2856D03*
Y691D03*
Y494D03*
X1665Y1114D03*
X1664Y1766D03*
X1063Y3281D03*
X651Y3598D03*
X1326Y3648D03*
X1417Y3791D03*
X935Y3841D03*
X2563Y3793D03*
X2081Y3844D03*
X1808Y1068D03*
X2232Y948D03*
X2293Y951D03*
X2720Y473D03*
X2684Y508D03*
X1808Y1718D03*
X1680Y1005D03*
X1681Y1657D03*
X1757Y1699D03*
X1541Y1136D03*
Y1784D03*
X1882Y475D03*
Y550D03*
X1636Y597D03*
X1956Y514D03*
X2411Y616D03*
X1924Y701D03*
X1901Y1455D03*
X2000Y454D03*
X1712Y469D03*
X1533Y492D03*
Y452D03*
X1757Y1050D03*
G54D97*
X2746Y2933D03*
X785Y2913D03*
X1043Y3361D03*
X1122Y3364D03*
X1771Y2750D03*
Y3149D03*
X2283Y3472D03*
X2277Y3404D03*
G54D98*
X1567Y3440D03*
Y3480D03*
X2102Y3411D03*
X1630Y1939D03*
X1574Y708D03*
X1712Y543D03*
X2239Y532D03*
Y485D03*
X1496Y1217D03*
Y1869D03*
X2007Y508D03*
X1354Y548D03*
X1279D03*
X1633Y1299D03*
M02*