%FSLAX23Y23*%
%MOIN*%
%SFA1B1*%

%IPPOS*%
%ADD99O,0.008300X0.034680*%
%ADD100R,0.008320X0.034700*%
%ADD101R,0.058110X0.025630*%
%ADD102R,0.026120X0.027100*%
%ADD103C,0.008800*%
%ADD104R,0.012730X0.040280*%
%ADD105R,0.040280X0.012730*%
%ADD106R,0.084410X0.084410*%
%ADD107R,0.014850X0.018790*%
%ADD108R,0.054950X0.090780*%
%ADD109R,0.034420X0.012770*%
%ADD110R,0.033840X0.025970*%
%ADD111R,0.130670X0.132640*%
%ADD112R,0.025970X0.033840*%
%ADD113R,0.016810X0.016810*%
%ADD114R,0.037860X0.093530*%
%ADD115R,0.020300X0.094630*%
%ADD116R,0.114100X0.204660*%
%ADD117R,0.037030X0.035060*%
%ADD118R,0.030050X0.024140*%
%ADD119R,0.029660X0.039510*%
%ADD120R,0.058570X0.133380*%
%ADD121R,0.037350X0.037350*%
%ADD122R,0.054320X0.048410*%
%ADD123R,0.048410X0.054320*%
%ADD124R,0.037350X0.037350*%
%ADD125R,0.025360X0.026930*%
%ADD126R,0.026930X0.025360*%
%LNbase_pcb1_paste_top-1*%
%LPD*%
G54D99*
X3801Y3396D03*
X3777D03*
X3753D03*
X3730D03*
X3706D03*
X3683D03*
X3659D03*
X3647Y3286D03*
X3671D03*
X3694D03*
X3742D03*
X3718D03*
X3765D03*
X3789D03*
G54D100*
X3812Y3286D03*
G54D101*
X2520Y3842D03*
Y3792D03*
Y3742D03*
Y3692D03*
X2307D03*
Y3742D03*
Y3792D03*
Y3842D03*
X1375D03*
Y3792D03*
Y3742D03*
Y3692D03*
X1161D03*
Y3742D03*
Y3792D03*
Y3842D03*
G54D102*
X1575Y1005D03*
Y1047D03*
Y1090D03*
Y1132D03*
X1630D03*
Y1090D03*
Y1047D03*
Y1005D03*
X1575Y1657D03*
Y1699D03*
Y1741D03*
Y1784D03*
X1630D03*
Y1741D03*
Y1699D03*
Y1657D03*
G54D103*
X2270Y1078D03*
Y1062D03*
Y1047D03*
X2255Y1078D03*
Y1062D03*
Y1047D03*
G54D104*
X2164Y568D03*
X2138D03*
X2113D03*
X2087D03*
Y423D03*
X2113D03*
X2138D03*
X2164D03*
G54D105*
X2053Y534D03*
Y508D03*
Y483D03*
Y457D03*
X2198D03*
Y483D03*
Y508D03*
Y534D03*
G54D106*
X2125Y496D03*
G54D107*
X1785Y1150D03*
Y1122D03*
Y1093D03*
X1757D03*
Y1122D03*
Y1150D03*
X1785Y1800D03*
Y1771D03*
Y1743D03*
X1757D03*
Y1771D03*
Y1800D03*
G54D108*
X1615Y507D03*
G54D109*
X1670Y469D03*
Y494D03*
Y520D03*
Y545D03*
X1560Y469D03*
Y494D03*
Y520D03*
Y545D03*
G54D110*
X2141Y3411D03*
Y3345D03*
X2490Y3600D03*
Y3534D03*
X2322Y3599D03*
Y3534D03*
X2224Y3345D03*
Y3411D03*
X1377Y3425D03*
Y3360D03*
X1299Y3615D03*
Y3550D03*
X1181Y3613D03*
Y3548D03*
X1533Y3358D03*
Y3423D03*
X2480Y492D03*
Y427D03*
X2578Y492D03*
Y427D03*
G54D111*
X1870Y3437D03*
Y3274D03*
X1670Y3437D03*
Y3274D03*
G54D112*
X2213Y3757D03*
X2148D03*
X1076Y3759D03*
X1011D03*
X1477Y1005D03*
X1412D03*
X1476Y1090D03*
X1411D03*
X1475Y1657D03*
X1410D03*
X1474Y1741D03*
X1409D03*
X1989Y740D03*
X1924D03*
X1989Y661D03*
X1924D03*
X1835Y1495D03*
X1901D03*
X1835Y1415D03*
X1901D03*
X2246Y647D03*
X2181D03*
X1475Y459D03*
X1410D03*
G54D113*
X2420Y3458D03*
Y3433D03*
Y3407D03*
Y3381D03*
X2529D03*
Y3407D03*
Y3433D03*
Y3458D03*
X1193Y3465D03*
Y3439D03*
Y3414D03*
Y3388D03*
X1302D03*
Y3414D03*
Y3439D03*
Y3465D03*
G54D114*
X2491Y3420D03*
X1265Y3426D03*
G54D115*
X2448Y3420D03*
X1221Y3426D03*
G54D116*
X2066Y3031D03*
X2456D03*
X1463Y3035D03*
X1073D03*
G54D117*
X1467Y548D03*
X1410D03*
G54D118*
X2057Y3397D03*
X1456Y3423D03*
G54D119*
X2057Y3356D03*
X1456Y3382D03*
G54D120*
X2747Y3246D03*
Y3038D03*
X785Y3234D03*
Y3025D03*
X1771Y3051D03*
Y2842D03*
X1200Y616D03*
Y407D03*
G54D121*
X2209Y3671D03*
X2152D03*
X1072D03*
X1015D03*
G54D122*
X2334Y3466D03*
Y3393D03*
X1582Y1287D03*
Y1214D03*
Y1939D03*
Y1866D03*
X2362Y577D03*
Y504D03*
X1769Y470D03*
Y543D03*
G54D123*
X2135Y3842D03*
X2207D03*
X1027Y3415D03*
X1100D03*
X973Y3838D03*
X1046D03*
X1735Y1010D03*
X1808D03*
X1735Y1660D03*
X1808D03*
X1639Y647D03*
X1566D03*
G54D124*
X1663Y1266D03*
Y1208D03*
Y1918D03*
Y1860D03*
G54D125*
X2281Y1140D03*
X2246D03*
G54D126*
X2283Y526D03*
Y491D03*
M02*