%FSLAX23Y23*%
%MOIN*%
%SFA1B1*%

%IPPOS*%
%ADD71R,0.037350X0.037350*%
%ADD72R,0.012890X0.022730*%
%ADD73R,0.022730X0.012890*%
%ADD74C,0.008800*%
%ADD75R,0.032370X0.014650*%
%ADD76R,0.040280X0.012730*%
%ADD77R,0.012730X0.040280*%
%ADD78R,0.084410X0.084410*%
%ADD79R,0.054950X0.090780*%
%ADD80R,0.034420X0.012770*%
%ADD81R,0.025970X0.033840*%
%ADD82R,0.033840X0.025970*%
%ADD83R,0.130970X0.067980*%
%ADD84R,0.046350X0.121550*%
%ADD85R,0.037350X0.037350*%
%ADD86R,0.026930X0.025360*%
%ADD87R,0.048410X0.054320*%
%ADD88R,0.025360X0.026930*%
%ADD89R,0.054320X0.048410*%
%LNmirror_pcb1_paste_top-1*%
%LPD*%
G54D71*
X2678Y1537D03*
X2621D03*
X2661Y1971D03*
X2604D03*
Y2236D03*
X2661D03*
X2507Y504D03*
X2450D03*
G54D72*
X2636Y1913D03*
X2604D03*
X2636Y1858D03*
X2604D03*
X2636Y2348D03*
Y2293D03*
X2604Y2348D03*
Y2293D03*
G54D73*
X2690Y1625D03*
Y1651D03*
Y1599D03*
Y1676D03*
X2609Y1651D03*
Y1676D03*
Y1625D03*
Y1599D03*
G54D74*
X1787Y1377D03*
X1771D03*
X1756D03*
X1787Y1393D03*
X1771D03*
X1756D03*
X1787Y1771D03*
X1771D03*
X1756D03*
X1787Y1787D03*
X1771D03*
X1756D03*
X1787Y2116D03*
X1771D03*
X1755D03*
X1787Y2131D03*
X1771D03*
X1755D03*
X1787Y2460D03*
X1771D03*
X1755D03*
X1787Y2476D03*
X1771D03*
X1755D03*
G54D75*
X2522Y424D03*
Y373D03*
X2434D03*
Y398D03*
Y424D03*
G54D76*
X3216Y1733D03*
Y1758D03*
Y1784D03*
Y1810D03*
X3071D03*
Y1784D03*
Y1758D03*
Y1733D03*
G54D77*
X3182Y1844D03*
X3156D03*
X3131D03*
X3105D03*
Y1698D03*
X3131D03*
X3156D03*
X3182D03*
G54D78*
X3143Y1771D03*
G54D79*
X3198Y1004D03*
G54D80*
X3253Y966D03*
Y991D03*
Y1017D03*
Y1042D03*
X3143Y966D03*
Y991D03*
Y1017D03*
Y1042D03*
G54D81*
X3124Y2047D03*
X3189D03*
X3157Y1968D03*
X3222D03*
X2511Y290D03*
X2446D03*
X2985Y1122D03*
X2920D03*
X2965Y1200D03*
X2900D03*
G54D82*
X2636Y500D03*
Y435D03*
X2775Y1410D03*
Y1345D03*
X2854Y1410D03*
Y1345D03*
X2775Y1804D03*
Y1739D03*
X2854Y1804D03*
Y1739D03*
X3255Y1568D03*
Y1633D03*
X2775Y2148D03*
Y2083D03*
X2854Y2148D03*
Y2083D03*
X2775Y2493D03*
Y2428D03*
X2854Y2493D03*
Y2428D03*
G54D83*
X2675Y349D03*
X2281Y560D03*
G54D84*
X1320Y405D03*
X1420D03*
X1620D03*
X1520D03*
X1720D03*
X1920D03*
X1820D03*
X2020D03*
X2220D03*
X2120D03*
G54D85*
X2714Y495D03*
Y438D03*
G54D86*
X1698Y1413D03*
Y1378D03*
Y1807D03*
Y1771D03*
Y2151D03*
Y2116D03*
X1696Y2496D03*
Y2460D03*
G54D87*
X2442Y585D03*
X2515D03*
X3181Y1543D03*
X3109D03*
X3171Y1126D03*
X3244D03*
G54D88*
X3178Y1624D03*
X3142D03*
G54D89*
X3061Y968D03*
Y1041D03*
M02*