%FSLAX23Y23*%
%MOIN*%
%SFA1B1*%

%IPPOS*%
%ADD45C,0.003940*%
%ADD46C,0.009840*%
%ADD47C,0.012800*%
%ADD48C,0.010000*%
%ADD49C,0.007870*%
%LNmirror_pcb1_legend_top-1*%
%LPD*%
G54D45*
X2591Y1839D02*
D01*
X2591Y1839*
X2591Y1839*
X2591Y1839*
X2590Y1839*
X2590Y1839*
X2590Y1839*
X2590Y1839*
X2590Y1840*
X2590Y1840*
X2590Y1840*
X2590Y1840*
X2590Y1840*
X2590Y1840*
X2590Y1840*
X2590Y1840*
X2589Y1840*
X2589Y1840*
X2589Y1840*
X2589Y1840*
X2589Y1841*
X2589Y1841*
X2589Y1841*
X2589*
X2588Y1841*
X2588Y1841*
X2588Y1840*
X2588Y1840*
X2588Y1840*
X2588Y1840*
X2588Y1840*
X2587Y1840*
X2587Y1840*
X2587Y1840*
X2587Y1840*
X2587Y1840*
X2587Y1840*
X2587Y1840*
X2587Y1839*
X2587Y1839*
X2587Y1839*
X2587Y1839*
X2587Y1839*
X2587Y1839*
X2587Y1839*
X2587Y1839*
X2587Y1838*
X2587Y1838*
X2587Y1838*
X2587Y1838*
X2587Y1838*
X2587Y1838*
X2587Y1838*
X2587Y1838*
X2587Y1837*
X2587Y1837*
X2587Y1837*
X2587Y1837*
X2587Y1837*
X2587Y1837*
X2588Y1837*
X2588Y1837*
X2588Y1837*
X2588Y1837*
X2588Y1837*
X2588Y1837*
X2588Y1837*
X2589Y1837*
X2589*
X2589Y1837*
X2589Y1837*
X2589Y1837*
X2589Y1837*
X2589Y1837*
X2589Y1837*
X2590Y1837*
X2590Y1837*
X2590Y1837*
X2590Y1837*
X2590Y1837*
X2590Y1837*
X2590Y1837*
X2590Y1838*
X2590Y1838*
X2590Y1838*
X2590Y1838*
X2590Y1838*
X2591Y1838*
X2591Y1838*
X2591Y1838*
X2591Y1839*
X2585Y1590D02*
D01*
X2585Y1590*
X2585Y1590*
X2585Y1590*
X2585Y1590*
X2585Y1590*
X2585Y1590*
X2585Y1590*
X2585Y1591*
X2585Y1591*
X2585Y1591*
X2585Y1591*
X2585Y1591*
X2585Y1591*
X2585Y1591*
X2584Y1591*
X2584Y1591*
X2584Y1591*
X2584Y1591*
X2584Y1591*
X2584Y1591*
X2584Y1592*
X2584Y1592*
X2583*
X2583Y1592*
X2583Y1591*
X2583Y1591*
X2583Y1591*
X2583Y1591*
X2583Y1591*
X2582Y1591*
X2582Y1591*
X2582Y1591*
X2582Y1591*
X2582Y1591*
X2582Y1591*
X2582Y1591*
X2582Y1591*
X2582Y1590*
X2582Y1590*
X2582Y1590*
X2582Y1590*
X2582Y1590*
X2582Y1590*
X2582Y1590*
X2582Y1590*
X2582Y1589*
X2582Y1589*
X2582Y1589*
X2582Y1589*
X2582Y1589*
X2582Y1589*
X2582Y1589*
X2582Y1589*
X2582Y1588*
X2582Y1588*
X2582Y1588*
X2582Y1588*
X2582Y1588*
X2582Y1588*
X2582Y1588*
X2583Y1588*
X2583Y1588*
X2583Y1588*
X2583Y1588*
X2583Y1588*
X2583Y1588*
X2583Y1588*
X2584*
X2584Y1588*
X2584Y1588*
X2584Y1588*
X2584Y1588*
X2584Y1588*
X2584Y1588*
X2584Y1588*
X2585Y1588*
X2585Y1588*
X2585Y1588*
X2585Y1588*
X2585Y1588*
X2585Y1588*
X2585Y1589*
X2585Y1589*
X2585Y1589*
X2585Y1589*
X2585Y1589*
X2585Y1589*
X2585Y1589*
X2585Y1589*
X2585Y1590*
X2654Y2368D02*
D01*
X2654Y2368*
X2654Y2368*
X2653Y2368*
X2653Y2368*
X2653Y2368*
X2653Y2368*
X2653Y2369*
X2653Y2369*
X2653Y2369*
X2653Y2369*
X2653Y2369*
X2653Y2369*
X2653Y2369*
X2653Y2369*
X2653Y2369*
X2652Y2369*
X2652Y2369*
X2652Y2370*
X2652Y2370*
X2652Y2370*
X2652Y2370*
X2652Y2370*
X2652*
X2651Y2370*
X2651Y2370*
X2651Y2370*
X2651Y2370*
X2651Y2369*
X2651Y2369*
X2651Y2369*
X2650Y2369*
X2650Y2369*
X2650Y2369*
X2650Y2369*
X2650Y2369*
X2650Y2369*
X2650Y2369*
X2650Y2369*
X2650Y2368*
X2650Y2368*
X2650Y2368*
X2650Y2368*
X2650Y2368*
X2650Y2368*
X2650Y2368*
X2650Y2368*
X2650Y2367*
X2650Y2367*
X2650Y2367*
X2650Y2367*
X2650Y2367*
X2650Y2367*
X2650Y2367*
X2650Y2367*
X2650Y2366*
X2650Y2366*
X2650Y2366*
X2650Y2366*
X2650Y2366*
X2651Y2366*
X2651Y2366*
X2651Y2366*
X2651Y2366*
X2651Y2366*
X2651Y2366*
X2651Y2366*
X2652Y2366*
X2652*
X2652Y2366*
X2652Y2366*
X2652Y2366*
X2652Y2366*
X2652Y2366*
X2652Y2366*
X2653Y2366*
X2653Y2366*
X2653Y2366*
X2653Y2366*
X2653Y2366*
X2653Y2366*
X2653Y2367*
X2653Y2367*
X2653Y2367*
X2653Y2367*
X2653Y2367*
X2653Y2367*
X2653Y2367*
X2654Y2367*
X2654Y2368*
X2654Y2368*
X1740Y1410D02*
D01*
X1740Y1410*
X1740Y1410*
X1740Y1410*
X1740Y1410*
X1740Y1410*
X1740Y1411*
X1739Y1411*
X1739Y1411*
X1739Y1411*
X1739Y1411*
X1739Y1411*
X1739Y1411*
X1739Y1411*
X1739Y1411*
X1739Y1411*
X1739Y1412*
X1738Y1412*
X1738Y1412*
X1738Y1412*
X1738Y1412*
X1738Y1412*
X1738Y1412*
X1738*
X1738Y1412*
X1737Y1412*
X1737Y1412*
X1737Y1412*
X1737Y1412*
X1737Y1412*
X1737Y1411*
X1737Y1411*
X1737Y1411*
X1736Y1411*
X1736Y1411*
X1736Y1411*
X1736Y1411*
X1736Y1411*
X1736Y1411*
X1736Y1411*
X1736Y1410*
X1736Y1410*
X1736Y1410*
X1736Y1410*
X1736Y1410*
X1736Y1410*
X1736Y1410*
X1736Y1409*
X1736Y1409*
X1736Y1409*
X1736Y1409*
X1736Y1409*
X1736Y1409*
X1736Y1409*
X1736Y1409*
X1736Y1408*
X1736Y1408*
X1736Y1408*
X1737Y1408*
X1737Y1408*
X1737Y1408*
X1737Y1408*
X1737Y1408*
X1737Y1408*
X1737Y1408*
X1737Y1408*
X1738Y1408*
X1738Y1408*
X1738*
X1738Y1408*
X1738Y1408*
X1738Y1408*
X1738Y1408*
X1738Y1408*
X1739Y1408*
X1739Y1408*
X1739Y1408*
X1739Y1408*
X1739Y1408*
X1739Y1408*
X1739Y1408*
X1739Y1409*
X1739Y1409*
X1739Y1409*
X1740Y1409*
X1740Y1409*
X1740Y1409*
X1740Y1409*
X1740Y1409*
X1740Y1410*
X1740Y1410*
Y1803D02*
D01*
X1740Y1804*
X1740Y1804*
X1740Y1804*
X1740Y1804*
X1740Y1804*
X1740Y1804*
X1739Y1804*
X1739Y1804*
X1739Y1805*
X1739Y1805*
X1739Y1805*
X1739Y1805*
X1739Y1805*
X1739Y1805*
X1739Y1805*
X1739Y1805*
X1738Y1805*
X1738Y1805*
X1738Y1805*
X1738Y1805*
X1738Y1805*
X1738Y1805*
X1738*
X1738Y1805*
X1737Y1805*
X1737Y1805*
X1737Y1805*
X1737Y1805*
X1737Y1805*
X1737Y1805*
X1737Y1805*
X1737Y1805*
X1736Y1805*
X1736Y1805*
X1736Y1805*
X1736Y1805*
X1736Y1804*
X1736Y1804*
X1736Y1804*
X1736Y1804*
X1736Y1804*
X1736Y1804*
X1736Y1804*
X1736Y1804*
X1736Y1803*
X1736Y1803*
X1736Y1803*
X1736Y1803*
X1736Y1803*
X1736Y1803*
X1736Y1803*
X1736Y1803*
X1736Y1802*
X1736Y1802*
X1736Y1802*
X1736Y1802*
X1736Y1802*
X1737Y1802*
X1737Y1802*
X1737Y1802*
X1737Y1802*
X1737Y1802*
X1737Y1802*
X1737Y1802*
X1737Y1801*
X1738Y1801*
X1738Y1801*
X1738*
X1738Y1801*
X1738Y1801*
X1738Y1802*
X1738Y1802*
X1738Y1802*
X1739Y1802*
X1739Y1802*
X1739Y1802*
X1739Y1802*
X1739Y1802*
X1739Y1802*
X1739Y1802*
X1739Y1802*
X1739Y1802*
X1739Y1803*
X1740Y1803*
X1740Y1803*
X1740Y1803*
X1740Y1803*
X1740Y1803*
X1740Y1803*
X1740Y1803*
X1739Y2148D02*
D01*
X1739Y2148*
X1739Y2148*
X1739Y2148*
X1739Y2148*
X1739Y2149*
X1739Y2149*
X1739Y2149*
X1739Y2149*
X1739Y2149*
X1739Y2149*
X1739Y2149*
X1739Y2149*
X1739Y2149*
X1739Y2150*
X1738Y2150*
X1738Y2150*
X1738Y2150*
X1738Y2150*
X1738Y2150*
X1738Y2150*
X1738Y2150*
X1738Y2150*
X1737*
X1737Y2150*
X1737Y2150*
X1737Y2150*
X1737Y2150*
X1737Y2150*
X1737Y2150*
X1737Y2150*
X1736Y2150*
X1736Y2149*
X1736Y2149*
X1736Y2149*
X1736Y2149*
X1736Y2149*
X1736Y2149*
X1736Y2149*
X1736Y2149*
X1736Y2149*
X1736Y2148*
X1736Y2148*
X1736Y2148*
X1736Y2148*
X1736Y2148*
X1736Y2148*
X1736Y2148*
X1736Y2148*
X1736Y2147*
X1736Y2147*
X1736Y2147*
X1736Y2147*
X1736Y2147*
X1736Y2147*
X1736Y2147*
X1736Y2147*
X1736Y2146*
X1736Y2146*
X1736Y2146*
X1737Y2146*
X1737Y2146*
X1737Y2146*
X1737Y2146*
X1737Y2146*
X1737Y2146*
X1737Y2146*
X1737Y2146*
X1738*
X1738Y2146*
X1738Y2146*
X1738Y2146*
X1738Y2146*
X1738Y2146*
X1738Y2146*
X1738Y2146*
X1739Y2146*
X1739Y2146*
X1739Y2146*
X1739Y2147*
X1739Y2147*
X1739Y2147*
X1739Y2147*
X1739Y2147*
X1739Y2147*
X1739Y2147*
X1739Y2147*
X1739Y2148*
X1739Y2148*
X1739Y2148*
X1739Y2148*
Y2492D02*
D01*
X1739Y2493*
X1739Y2493*
X1739Y2493*
X1739Y2493*
X1739Y2493*
X1739Y2493*
X1739Y2493*
X1739Y2493*
X1739Y2494*
X1739Y2494*
X1739Y2494*
X1739Y2494*
X1739Y2494*
X1739Y2494*
X1738Y2494*
X1738Y2494*
X1738Y2494*
X1738Y2494*
X1738Y2494*
X1738Y2494*
X1738Y2494*
X1738Y2494*
X1737*
X1737Y2494*
X1737Y2494*
X1737Y2494*
X1737Y2494*
X1737Y2494*
X1737Y2494*
X1737Y2494*
X1736Y2494*
X1736Y2494*
X1736Y2494*
X1736Y2494*
X1736Y2494*
X1736Y2494*
X1736Y2493*
X1736Y2493*
X1736Y2493*
X1736Y2493*
X1736Y2493*
X1736Y2493*
X1736Y2493*
X1736Y2493*
X1736Y2492*
X1736Y2492*
X1736Y2492*
X1736Y2492*
X1736Y2492*
X1736Y2492*
X1736Y2492*
X1736Y2491*
X1736Y2491*
X1736Y2491*
X1736Y2491*
X1736Y2491*
X1736Y2491*
X1736Y2491*
X1736Y2491*
X1737Y2491*
X1737Y2491*
X1737Y2491*
X1737Y2491*
X1737Y2490*
X1737Y2490*
X1737Y2490*
X1737Y2490*
X1738*
X1738Y2490*
X1738Y2490*
X1738Y2490*
X1738Y2491*
X1738Y2491*
X1738Y2491*
X1738Y2491*
X1739Y2491*
X1739Y2491*
X1739Y2491*
X1739Y2491*
X1739Y2491*
X1739Y2491*
X1739Y2491*
X1739Y2491*
X1739Y2492*
X1739Y2492*
X1739Y2492*
X1739Y2492*
X1739Y2492*
X1739Y2492*
X1739Y2492*
X3118Y1071D02*
D01*
X3118Y1071*
X3118Y1071*
X3118Y1071*
X3118Y1071*
X3118Y1072*
X3117Y1072*
X3117Y1072*
X3117Y1072*
X3117Y1072*
X3117Y1072*
X3117Y1072*
X3117Y1072*
X3117Y1072*
X3117Y1073*
X3117Y1073*
X3117Y1073*
X3116Y1073*
X3116Y1073*
X3116Y1073*
X3116Y1073*
X3116Y1073*
X3116Y1073*
X3116*
X3115Y1073*
X3115Y1073*
X3115Y1073*
X3115Y1073*
X3115Y1073*
X3115Y1073*
X3115Y1073*
X3115Y1073*
X3114Y1072*
X3114Y1072*
X3114Y1072*
X3114Y1072*
X3114Y1072*
X3114Y1072*
X3114Y1072*
X3114Y1072*
X3114Y1072*
X3114Y1071*
X3114Y1071*
X3114Y1071*
X3114Y1071*
X3114Y1071*
X3114Y1071*
X3114Y1071*
X3114Y1071*
X3114Y1070*
X3114Y1070*
X3114Y1070*
X3114Y1070*
X3114Y1070*
X3114Y1070*
X3114Y1070*
X3114Y1070*
X3114Y1069*
X3114Y1069*
X3115Y1069*
X3115Y1069*
X3115Y1069*
X3115Y1069*
X3115Y1069*
X3115Y1069*
X3115Y1069*
X3115Y1069*
X3116Y1069*
X3116*
X3116Y1069*
X3116Y1069*
X3116Y1069*
X3116Y1069*
X3116Y1069*
X3117Y1069*
X3117Y1069*
X3117Y1069*
X3117Y1069*
X3117Y1069*
X3117Y1070*
X3117Y1070*
X3117Y1070*
X3117Y1070*
X3117Y1070*
X3117Y1070*
X3118Y1070*
X3118Y1070*
X3118Y1071*
X3118Y1071*
X3118Y1071*
X3118Y1071*
X2647Y1919D02*
X2654D01*
X2615D02*
X2625D01*
X2654Y1852D02*
Y1919D01*
X2647Y1852D02*
X2654D01*
X2615D02*
X2625D01*
X2587Y1919D02*
X2594D01*
X2587Y1852D02*
X2594D01*
X2587D02*
Y1919D01*
X2596Y1691D02*
X2703D01*
X2596Y1585D02*
X2703D01*
X2647Y2354D02*
X2654D01*
X2615D02*
X2625D01*
X2654Y2287D02*
Y2354D01*
X2647Y2287D02*
X2654D01*
X2615D02*
X2625D01*
X2587Y2354D02*
X2594D01*
X2587Y2287D02*
X2594D01*
X2587D02*
Y2354D01*
X3065Y1692D02*
X3084D01*
X3065D02*
Y1712D01*
X3222Y1692D02*
Y1712D01*
X3202Y1692D02*
X3222D01*
X3202Y1850D02*
X3222D01*
Y1830D02*
Y1850D01*
X3065Y1830D02*
Y1850D01*
X3084*
G54D46*
X2439Y453D02*
D01*
X2439Y454*
X2439Y454*
X2439Y454*
X2439Y455*
X2439Y455*
X2438Y455*
X2438Y456*
X2438Y456*
X2438Y456*
X2438Y457*
X2437Y457*
X2437Y457*
X2437Y457*
X2437Y458*
X2436Y458*
X2436Y458*
X2436Y458*
X2435Y458*
X2435Y458*
X2435Y458*
X2434Y458*
X2434Y458*
X2434*
X2433Y458*
X2433Y458*
X2433Y458*
X2432Y458*
X2432Y458*
X2432Y458*
X2431Y458*
X2431Y458*
X2431Y457*
X2431Y457*
X2430Y457*
X2430Y457*
X2430Y456*
X2430Y456*
X2430Y456*
X2429Y455*
X2429Y455*
X2429Y455*
X2429Y454*
X2429Y454*
X2429Y454*
X2429Y453*
X2429Y453*
X2429Y453*
X2429Y452*
X2429Y452*
X2429Y452*
X2429Y451*
X2430Y451*
X2430Y451*
X2430Y451*
X2430Y450*
X2430Y450*
X2431Y450*
X2431Y450*
X2431Y449*
X2431Y449*
X2432Y449*
X2432Y449*
X2432Y449*
X2433Y449*
X2433Y449*
X2433Y449*
X2434Y449*
X2434*
X2434Y449*
X2435Y449*
X2435Y449*
X2435Y449*
X2436Y449*
X2436Y449*
X2436Y449*
X2437Y449*
X2437Y450*
X2437Y450*
X2437Y450*
X2438Y450*
X2438Y451*
X2438Y451*
X2438Y451*
X2438Y451*
X2439Y452*
X2439Y452*
X2439Y452*
X2439Y453*
X2439Y453*
X2439Y453*
G54D47*
X3243Y1694D02*
D01*
X3243Y1695*
X3243Y1695*
X3243Y1696*
X3243Y1696*
X3243Y1697*
X3243Y1697*
X3243Y1697*
X3242Y1698*
X3242Y1698*
X3242Y1698*
X3242Y1699*
X3241Y1699*
X3241Y1699*
X3240Y1700*
X3240Y1700*
X3240Y1700*
X3239Y1700*
X3239Y1700*
X3238Y1701*
X3238Y1701*
X3238Y1701*
X3237Y1701*
X3237*
X3236Y1701*
X3236Y1701*
X3235Y1701*
X3235Y1700*
X3235Y1700*
X3234Y1700*
X3234Y1700*
X3233Y1700*
X3233Y1699*
X3233Y1699*
X3232Y1699*
X3232Y1698*
X3232Y1698*
X3231Y1698*
X3231Y1697*
X3231Y1697*
X3231Y1697*
X3231Y1696*
X3231Y1696*
X3231Y1695*
X3231Y1695*
X3231Y1694*
X3231Y1694*
X3231Y1693*
X3231Y1693*
X3231Y1693*
X3231Y1692*
X3231Y1692*
X3231Y1691*
X3231Y1691*
X3232Y1691*
X3232Y1690*
X3232Y1690*
X3233Y1690*
X3233Y1689*
X3233Y1689*
X3234Y1689*
X3234Y1689*
X3235Y1688*
X3235Y1688*
X3235Y1688*
X3236Y1688*
X3236Y1688*
X3237Y1688*
X3237*
X3238Y1688*
X3238Y1688*
X3238Y1688*
X3239Y1688*
X3239Y1688*
X3240Y1689*
X3240Y1689*
X3240Y1689*
X3241Y1689*
X3241Y1690*
X3242Y1690*
X3242Y1690*
X3242Y1691*
X3242Y1691*
X3243Y1691*
X3243Y1692*
X3243Y1692*
X3243Y1693*
X3243Y1693*
X3243Y1693*
X3243Y1694*
X3243Y1694*
G54D48*
X2270Y236D02*
D01*
X2270Y237*
X2270Y238*
X2270Y238*
X2270Y239*
X2270Y240*
X2270Y240*
X2269Y241*
X2269Y242*
X2268Y242*
X2268Y243*
X2268Y243*
X2267Y244*
X2267Y244*
X2266Y245*
X2265Y245*
X2265Y245*
X2264Y246*
X2263Y246*
X2263Y246*
X2262Y246*
X2261Y246*
X2261Y246*
X2260Y246*
Y146D02*
D01*
X2261Y146*
X2262Y146*
X2262Y147*
X2263Y147*
X2264Y147*
X2264Y147*
X2265Y148*
X2266Y148*
X2266Y148*
X2267Y149*
X2267Y149*
X2268Y150*
X2268Y150*
X2269Y151*
X2269Y151*
X2269Y152*
X2270Y153*
X2270Y153*
X2270Y154*
X2270Y155*
X2270Y155*
X2270Y156*
X2270Y156*
X1280Y246D02*
D01*
X1280Y246*
X1279Y246*
X1278Y246*
X1278Y246*
X1277Y246*
X1276Y245*
X1276Y245*
X1275Y245*
X1274Y244*
X1274Y244*
X1273Y244*
X1273Y243*
X1272Y243*
X1272Y242*
X1272Y241*
X1271Y241*
X1271Y240*
X1271Y239*
X1271Y239*
X1271Y238*
X1270Y237*
X1270Y237*
X1270Y236*
Y156D02*
D01*
X1270Y156*
X1270Y155*
X1271Y154*
X1271Y154*
X1271Y153*
X1271Y152*
X1272Y152*
X1272Y151*
X1272Y150*
X1273Y150*
X1273Y149*
X1274Y149*
X1274Y148*
X1275Y148*
X1275Y148*
X1276Y147*
X1277Y147*
X1277Y147*
X1278Y147*
X1279Y147*
X1279Y146*
X1280Y146*
X1280Y146*
X2270Y355D02*
Y455D01*
Y156D02*
Y236D01*
X1270Y156D02*
Y236D01*
X1280Y146D02*
X2260D01*
X1280Y246D02*
X2260D01*
X2640Y1490D02*
X2630Y1500D01*
X2610*
X2600Y1490*
Y1450*
X2610Y1440*
X2630*
X2640Y1450*
X2660Y1440D02*
X2680D01*
X2670*
Y1500*
X2660Y1490*
X2740Y1440D02*
Y1500D01*
X2710Y1470*
X2750*
X2675Y1912D02*
Y1862D01*
X2685Y1852*
X2705*
X2715Y1862*
Y1912*
X2735Y1852D02*
X2755D01*
X2745*
Y1912*
X2735Y1902*
X2785D02*
X2795Y1912D01*
X2815*
X2825Y1902*
Y1862*
X2815Y1852*
X2795*
X2785Y1862*
Y1902*
X2599Y1769D02*
Y1719D01*
X2609Y1709*
X2629*
X2639Y1719*
Y1769*
X2659Y1719D02*
X2669Y1709D01*
X2689*
X2699Y1719*
Y1759*
X2689Y1769*
X2669*
X2659Y1759*
Y1749*
X2669Y1739*
X2699*
X2622Y2057D02*
X2612Y2067D01*
X2592*
X2582Y2057*
Y2017*
X2592Y2007*
X2612*
X2622Y2017*
X2642Y2007D02*
X2662D01*
X2652*
Y2067*
X2642Y2057*
X2732Y2067D02*
X2692D01*
Y2037*
X2712Y2047*
X2722*
X2732Y2037*
Y2017*
X2722Y2007*
X2702*
X2692Y2017*
X2587Y2441D02*
Y2391D01*
X2597Y2381*
X2617*
X2627Y2391*
Y2441*
X2647Y2431D02*
X2657Y2441D01*
X2677*
X2687Y2431*
Y2421*
X2677Y2411*
X2687Y2401*
Y2391*
X2677Y2381*
X2657*
X2647Y2391*
Y2401*
X2657Y2411*
X2647Y2421*
Y2431*
X2657Y2411D02*
X2677D01*
X2622Y2189D02*
X2612Y2199D01*
X2592*
X2582Y2189*
Y2149*
X2592Y2139*
X2612*
X2622Y2149*
X2642Y2139D02*
X2662D01*
X2652*
Y2199*
X2642Y2189*
X2692D02*
X2702Y2199D01*
X2722*
X2732Y2189*
Y2179*
X2722Y2169*
X2712*
X2722*
X2732Y2159*
Y2149*
X2722Y2139*
X2702*
X2692Y2149*
X1025Y226D02*
Y166D01*
Y196*
X1065*
Y226*
Y166*
X1085Y226D02*
Y166D01*
X1115*
X1125Y176*
Y216*
X1115Y226*
X1085*
X1145Y166D02*
Y226D01*
X1175*
X1185Y216*
Y196*
X1175Y186*
X1145*
X1165D02*
X1185Y166D01*
X1245D02*
X1205D01*
X1245Y206*
Y216*
X1235Y226*
X1215*
X1205Y216*
X2936Y2036D02*
Y2096D01*
X2966*
X2976Y2086*
Y2066*
X2966Y2056*
X2936*
X2956D02*
X2976Y2036D01*
X2996D02*
X3016D01*
X3006*
Y2096*
X2996Y2086*
X3086Y2096D02*
X3046D01*
Y2066*
X3066Y2076*
X3076*
X3086Y2066*
Y2046*
X3076Y2036*
X3056*
X3046Y2046*
X2956Y1938D02*
Y1998D01*
X2986*
X2996Y1988*
Y1968*
X2986Y1958*
X2956*
X2976D02*
X2996Y1938D01*
X3016D02*
X3036D01*
X3026*
Y1998*
X3016Y1988*
X3096Y1938D02*
Y1998D01*
X3066Y1968*
X3106*
X2292Y417D02*
Y367D01*
X2302Y357*
X2322*
X2332Y367*
Y417*
X2392D02*
X2372Y407D01*
X2352Y387*
Y367*
X2362Y357*
X2382*
X2392Y367*
Y377*
X2382Y387*
X2352*
X3221Y1916D02*
Y1866D01*
X3231Y1856*
X3251*
X3261Y1866*
Y1916*
X3321D02*
X3281D01*
Y1886*
X3301Y1896*
X3311*
X3321Y1886*
Y1866*
X3311Y1856*
X3291*
X3281Y1866*
X3129Y915D02*
Y865D01*
X3139Y855*
X3159*
X3169Y865*
Y915*
X3189Y855D02*
X3209D01*
X3199*
Y915*
X3189Y905*
X2666Y550D02*
X2606D01*
Y580*
X2616Y590*
X2636*
X2646Y580*
Y550*
Y570D02*
X2666Y590D01*
Y610D02*
Y630D01*
Y620*
X2606*
X2616Y610*
Y660D02*
X2606Y670D01*
Y690*
X2616Y700*
X2626*
X2636Y690*
Y680*
Y690*
X2646Y700*
X2656*
X2666Y690*
Y670*
X2656Y660*
X2805Y1152D02*
X2745D01*
Y1182*
X2755Y1192*
X2775*
X2785Y1182*
Y1152*
Y1172D02*
X2805Y1192D01*
Y1212D02*
Y1232D01*
Y1222*
X2745*
X2755Y1212*
X2805Y1302D02*
Y1262D01*
X2765Y1302*
X2755*
X2745Y1292*
Y1272*
X2755Y1262*
X2884Y1162D02*
X2824D01*
Y1192*
X2834Y1202*
X2854*
X2864Y1192*
Y1162*
Y1182D02*
X2884Y1202D01*
Y1222D02*
Y1242D01*
Y1232*
X2824*
X2834Y1222*
X2884Y1272D02*
Y1292D01*
Y1282*
X2824*
X2834Y1272*
X2403Y181D02*
Y241D01*
X2433*
X2443Y231*
Y211*
X2433Y201*
X2403*
X2423D02*
X2443Y181D01*
X2463D02*
X2483D01*
X2473*
Y241*
X2463Y231*
X2513D02*
X2523Y241D01*
X2543*
X2553Y231*
Y191*
X2543Y181*
X2523*
X2513Y191*
Y231*
X2805Y1603D02*
X2745D01*
Y1633*
X2755Y1643*
X2775*
X2785Y1633*
Y1603*
Y1623D02*
X2805Y1643D01*
X2795Y1663D02*
X2805Y1673D01*
Y1693*
X2795Y1703*
X2755*
X2745Y1693*
Y1673*
X2755Y1663*
X2765*
X2775Y1673*
Y1703*
X2884Y1603D02*
X2824D01*
Y1633*
X2834Y1643*
X2854*
X2864Y1633*
Y1603*
Y1623D02*
X2884Y1643D01*
X2834Y1663D02*
X2824Y1673D01*
Y1693*
X2834Y1703*
X2844*
X2854Y1693*
X2864Y1703*
X2874*
X2884Y1693*
Y1673*
X2874Y1663*
X2864*
X2854Y1673*
X2844Y1663*
X2834*
X2854Y1673D02*
Y1693D01*
X3356Y1553D02*
X3296D01*
Y1583*
X3306Y1593*
X3326*
X3336Y1583*
Y1553*
Y1573D02*
X3356Y1593D01*
X3296Y1613D02*
Y1653D01*
X3306*
X3346Y1613*
X3356*
X2902Y1013D02*
Y1073D01*
X2932*
X2942Y1063*
Y1043*
X2932Y1033*
X2902*
X2922D02*
X2942Y1013D01*
X3002Y1073D02*
X2982Y1063D01*
X2962Y1043*
Y1023*
X2972Y1013*
X2992*
X3002Y1023*
Y1033*
X2992Y1043*
X2962*
X2902Y1249D02*
Y1309D01*
X2932*
X2942Y1299*
Y1279*
X2932Y1269*
X2902*
X2922D02*
X2942Y1249D01*
X3002Y1309D02*
X2962D01*
Y1279*
X2982Y1289*
X2992*
X3002Y1279*
Y1259*
X2992Y1249*
X2972*
X2962Y1259*
X2805Y1935D02*
X2745D01*
Y1965*
X2755Y1975*
X2775*
X2785Y1965*
Y1935*
Y1955D02*
X2805Y1975D01*
Y2025D02*
X2745D01*
X2775Y1995*
Y2035*
X2884Y1935D02*
X2824D01*
Y1965*
X2834Y1975*
X2854*
X2864Y1965*
Y1935*
Y1955D02*
X2884Y1975D01*
X2834Y1995D02*
X2824Y2005D01*
Y2025*
X2834Y2035*
X2844*
X2854Y2025*
Y2015*
Y2025*
X2864Y2035*
X2874*
X2884Y2025*
Y2005*
X2874Y1995*
X2805Y2292D02*
X2745D01*
Y2322*
X2755Y2332*
X2775*
X2785Y2322*
Y2292*
Y2312D02*
X2805Y2332D01*
Y2392D02*
Y2352D01*
X2765Y2392*
X2755*
X2745Y2382*
Y2362*
X2755Y2352*
X2884Y2302D02*
X2824D01*
Y2332*
X2834Y2342*
X2854*
X2864Y2332*
Y2302*
Y2322D02*
X2884Y2342D01*
Y2362D02*
Y2382D01*
Y2372*
X2824*
X2834Y2362*
X3640Y3509D02*
Y3449D01*
Y3479*
X3680*
Y3509*
Y3449*
X3700Y3509D02*
Y3449D01*
X3730*
X3740Y3459*
Y3499*
X3730Y3509*
X3700*
X3760Y3449D02*
Y3509D01*
X3790*
X3800Y3499*
Y3479*
X3790Y3469*
X3760*
X3780D02*
X3800Y3449D01*
X3820D02*
X3840D01*
X3830*
Y3509*
X3820Y3499*
X2694Y600D02*
X2684Y590D01*
Y570*
X2694Y560*
X2734*
X2744Y570*
Y590*
X2734Y600*
X2744Y620D02*
Y640D01*
Y630*
X2684*
X2694Y620*
X2744Y670D02*
Y690D01*
Y680*
X2684*
X2694Y670*
X2332Y501D02*
X2322Y511D01*
X2302*
X2292Y501*
Y461*
X2302Y451*
X2322*
X2332Y461*
X2352D02*
X2362Y451D01*
X2382*
X2392Y461*
Y501*
X2382Y511*
X2362*
X2352Y501*
Y491*
X2362Y481*
X2392*
X2480Y685D02*
X2470Y695D01*
X2450*
X2440Y685*
Y645*
X2450Y635*
X2470*
X2480Y645*
X2500Y685D02*
X2510Y695D01*
X2530*
X2540Y685*
Y675*
X2530Y665*
X2540Y655*
Y645*
X2530Y635*
X2510*
X2500Y645*
Y655*
X2510Y665*
X2500Y675*
Y685*
X2510Y665D02*
X2530D01*
X3021Y1653D02*
X3011Y1663D01*
X2991*
X2981Y1653*
Y1613*
X2991Y1603*
X3011*
X3021Y1613*
X3081Y1663D02*
X3061Y1653D01*
X3041Y1633*
Y1613*
X3051Y1603*
X3071*
X3081Y1613*
Y1623*
X3071Y1633*
X3041*
X3001Y1555D02*
X2991Y1565D01*
X2971*
X2961Y1555*
Y1515*
X2971Y1505*
X2991*
X3001Y1515*
X3061Y1565D02*
X3021D01*
Y1535*
X3041Y1545*
X3051*
X3061Y1535*
Y1515*
X3051Y1505*
X3031*
X3021Y1515*
X3041Y1126D02*
X3031Y1116D01*
Y1096*
X3041Y1086*
X3081*
X3091Y1096*
Y1116*
X3081Y1126*
X3041Y1146D02*
X3031Y1156D01*
Y1176*
X3041Y1186*
X3051*
X3061Y1176*
Y1166*
Y1176*
X3071Y1186*
X3081*
X3091Y1176*
Y1156*
X3081Y1146*
X3175Y1230D02*
X3165Y1240D01*
X3145*
X3135Y1230*
Y1190*
X3145Y1180*
X3165*
X3175Y1190*
X3235Y1180D02*
X3195D01*
X3235Y1220*
Y1230*
X3225Y1240*
X3205*
X3195Y1230*
G54D49*
X1736Y1359D02*
Y1375D01*
Y1359D02*
X1752D01*
X1791Y1359D02*
X1807D01*
Y1375*
X1807Y1396D02*
Y1411D01*
X1791D02*
X1807D01*
X2490Y355D02*
Y442D01*
X2466Y355D02*
Y442D01*
Y355D02*
X2490D01*
X2466Y442D02*
X2490D01*
X1736Y1753D02*
Y1769D01*
Y1753D02*
X1752D01*
X1791Y1753D02*
X1807D01*
Y1769*
X1807Y1789D02*
Y1805D01*
X1791D02*
X1807D01*
X1736Y2098D02*
Y2113D01*
Y2098D02*
X1752D01*
X1791Y2098D02*
X1806D01*
Y2113*
X1806Y2134D02*
Y2150D01*
X1791D02*
X1806D01*
X1736Y2442D02*
Y2458D01*
Y2442D02*
X1752D01*
X1791Y2442D02*
X1806D01*
Y2458*
X1806Y2478D02*
Y2494D01*
X1791D02*
X1806D01*
X3239Y937D02*
X3265D01*
X3131D02*
X3157D01*
X3239Y1071D02*
X3265D01*
X3131D02*
X3157D01*
X3265Y937D02*
Y943D01*
Y1065D02*
Y1071D01*
X3131Y937D02*
Y943D01*
Y1065D02*
Y1071D01*
M02*