%FSLAX23Y23*%
%MOIN*%
%SFA1B1*%

%IPPOS*%
%AMD36*
4,1,11,0.006000,0.039400,0.006000,-0.035400,0.002000,-0.039300,0.002000,-0.039300,-0.001900,-0.039300,-0.005900,-0.035400,-0.005900,-0.014700,-0.001900,-0.010800,-0.001900,0.014800,-0.005900,0.018700,-0.005900,0.039400,0.006000,0.039400,0.0*
%
%AMD37*
4,1,12,0.006000,0.012800,0.006000,-0.008800,0.002000,-0.012800,0.002000,-0.039300,-0.001900,-0.039300,-0.001900,-0.012800,-0.005900,-0.008800,-0.005900,0.012800,-0.001900,0.016800,-0.001900,0.039400,0.002000,0.039400,0.002000,0.016800,0.006000,0.012800,0.0*
%
%AMD38*
4,1,14,0.006000,0.039400,0.006000,0.018700,0.002000,0.014800,0.002000,-0.010800,0.006000,-0.014700,0.006000,-0.035400,0.002000,-0.039300,-0.001900,-0.039300,-0.005900,-0.035400,-0.005900,-0.014700,-0.001900,-0.010800,-0.001900,0.014800,-0.005900,0.018700,-0.005900,0.039400,0.006000,0.039400,0.0*
%
%AMD39*
4,1,12,0.006000,0.039400,0.006000,0.018700,0.002000,0.014800,0.002000,0.014800,0.002000,-0.010800,0.006000,-0.014700,0.006000,-0.014700,0.006000,-0.035400,0.002000,-0.039300,-0.001900,-0.039300,-0.005900,-0.035400,-0.005900,0.039400,0.006000,0.039400,0.0*
%
%ADD10R,0.039370X0.039370*%
%ADD11R,0.013780X0.023620*%
%ADD12R,0.023620X0.013780*%
%ADD13R,0.004000X0.004000*%
%ADD14C,0.009840*%
%ADD15R,0.033470X0.015750*%
%ADD16R,0.041340X0.013780*%
%ADD17R,0.013780X0.041340*%
%ADD18R,0.088980X0.088980*%
%ADD19R,0.058660X0.094490*%
%ADD20R,0.035430X0.013780*%
%ADD21R,0.027560X0.035430*%
%ADD22R,0.035430X0.027560*%
%ADD23R,0.135830X0.072840*%
%ADD24R,0.050000X0.125200*%
%ADD25R,0.039370X0.039370*%
%ADD26R,0.028350X0.026770*%
%ADD27R,0.051180X0.057090*%
%ADD28R,0.026770X0.028350*%
%ADD29R,0.057090X0.051180*%
%ADD30C,0.005510*%
%ADD31C,0.004000*%
%ADD32C,0.011810*%
%ADD33C,0.019680*%
%ADD34C,0.007870*%
%ADD35C,0.029530*%
%ADD36D36*%
%ADD37D37*%
%ADD38D38*%
%ADD39D39*%
%ADD40C,0.244100*%
%ADD41C,0.013780*%
%ADD42C,0.023620*%
%LNmirror_pcb1_copper_signal_top-1*%
%LPD*%
G36*
X2826Y2404D02*
X2838D01*
Y2263*
X2839Y2257*
X2842Y2252*
X2869Y2225*
X2867Y2220*
X2755*
Y2404*
X2803*
Y2411*
X2826*
Y2404*
G37*
G36*
X3254Y2138D02*
Y2118D01*
X3250Y2115*
X2882Y2483*
Y2504*
X2887Y2505*
X3254Y2138*
G37*
G36*
X3113Y2130D02*
X3113Y2129D01*
Y2122*
X3115Y2116*
X3120Y2111*
X3126Y2109*
X3128*
X3165Y2072*
Y2025*
X3163Y2024*
X3156*
X3152Y2023*
X3148Y2025*
X3147Y2026*
Y2074*
X3100*
Y2037*
X3096Y2033*
X3093Y2029*
X3092Y2024*
Y1884*
X3090Y1883*
X2947*
X2946Y1884*
X2946Y1888*
X2951Y1893*
X2954Y1901*
Y1910*
X2951Y1918*
X2945Y1924*
X2937Y1927*
X2934*
X2870Y1991*
Y2059*
X2882*
Y2084*
X2895Y2097*
X2901*
X2901Y2097*
X2909Y2094*
X2917*
X2925Y2097*
X2931Y2103*
X2935Y2111*
Y2120*
X2931Y2128*
X2929Y2130*
X2931Y2135*
X3110*
X3113Y2130*
G37*
G36*
X2826Y2059D02*
X2838D01*
Y1984*
X2839Y1978*
X2842Y1973*
X2889Y1926*
X2887Y1922*
X2755*
Y2059*
X2803*
Y2067*
X2826*
Y2059*
G37*
G36*
X2916Y1888D02*
X2914Y1883D01*
X2845*
X2840Y1882*
X2836Y1879*
X2784Y1827*
X2755*
Y1889*
X2915*
X2916Y1888*
G37*
G36*
X3260Y2068D02*
X3259Y2062D01*
X3258Y2061*
X3253Y2056*
X3250Y2050*
Y2043*
X3253Y2037*
X3254Y2036*
Y1817*
X3252Y1815*
X3247Y1818*
Y1826*
X3229*
Y1940*
X3246*
Y1996*
X3228*
Y2069*
X3227Y2074*
X3224Y2079*
X3145Y2157*
X3141Y2160*
X3136Y2161*
X3099*
X3097Y2166*
X3099Y2171*
Y2178*
X3097Y2184*
X3092Y2189*
X3086Y2192*
X3079*
X3073Y2189*
X3071Y2188*
X2934*
X2932Y2193*
X2935Y2200*
Y2209*
X2931Y2217*
X2925Y2223*
X2917Y2226*
X2914*
X2870Y2270*
Y2404*
X2882*
Y2440*
X2886Y2442*
X3260Y2068*
G37*
G36*
X3040Y1826D02*
D01*
Y1817*
X3037Y1815*
X2891Y1669*
X2887Y1672*
X2891Y1680*
Y1689*
X2887Y1697*
X2885Y1699*
Y1724*
X2884Y1730*
X2882Y1733*
Y1739*
X2930Y1788*
X2937*
X2945Y1791*
X2951Y1797*
X2954Y1805*
Y1814*
X2951Y1822*
X2947Y1826*
X2949Y1831*
X3039*
X3040Y1826*
G37*
G36*
X2539Y2536D02*
Y1660D01*
X1012*
X1008Y1659*
X1003Y1662*
Y2536*
Y2539*
X2539*
Y2536*
G37*
G36*
X2826Y1715D02*
X2853D01*
Y1699*
X2850Y1697*
X2847Y1689*
Y1683*
X2833Y1669*
X2830Y1664*
X2829Y1659*
Y1641*
X2804Y1617*
X2755*
Y1715*
X2803*
Y1722*
X2826*
Y1715*
G37*
G36*
X3309Y2011D02*
Y2008D01*
Y2004*
X3312Y1998*
X3317Y1993*
X3323Y1990*
X3325*
X3339Y1976*
Y1017*
X3335Y1015*
X3296Y1054*
X3291Y1057*
X3285Y1059*
X3281*
Y1059*
X3269*
Y1088*
X3279*
Y1165*
X3212*
X3207Y1166*
X3203*
X3176*
Y1154*
X3166*
Y1166*
X3134*
Y1131*
X3146*
Y1121*
X3134*
Y1087*
X3166*
Y1099*
X3176*
Y1087*
X3203*
X3207*
X3212Y1088*
X3237*
Y1061*
X3159*
Y1059*
X3116*
Y1059*
X3100*
Y1076*
X3078*
Y1486*
X3096Y1504*
X3126*
X3143Y1486*
X3148Y1484*
X3153Y1483*
X3233*
X3238Y1484*
X3242Y1486*
X3264Y1508*
X3267Y1512*
X3268Y1517*
Y1544*
X3282*
Y1592*
X3227*
Y1544*
X3242*
Y1523*
X3228Y1509*
X3218*
Y1538*
X3206*
Y1548*
X3218*
Y1582*
X3186*
Y1570*
X3176*
Y1582*
X3147*
Y1599*
X3153*
Y1598*
X3173*
Y1611*
X3183*
Y1598*
X3202*
Y1619*
X3190*
Y1629*
X3202*
Y1649*
X3183*
Y1637*
X3173*
Y1649*
X3153*
Y1648*
X3147*
Y1667*
X3151*
Y1679*
X3161*
Y1667*
X3177*
Y1679*
X3187*
Y1667*
X3200*
Y1693*
X3188*
Y1703*
X3200*
Y1716*
X3229*
X3242Y1703*
Y1657*
X3227*
Y1610*
X3282*
Y1657*
X3268*
Y1708*
X3267Y1713*
X3264Y1717*
X3247Y1734*
Y1745*
X3254*
X3259Y1746*
X3264Y1749*
X3296Y1782*
X3299Y1786*
X3300Y1791*
Y2010*
X3303Y2012*
X3305*
X3309Y2011*
G37*
G36*
X3114Y1624D02*
X3115Y1621D01*
Y1581*
X3073*
Y1527*
X3055Y1509*
X3042*
X3020Y1530*
Y1534*
X3017Y1542*
X3011Y1548*
X3003Y1551*
X2999*
X2997Y1556*
X3108Y1668*
X3114*
Y1624*
G37*
G36*
X3039Y1744D02*
Y1740D01*
X3040*
Y1716*
X3056*
Y1692*
X2890Y1526*
X2887Y1521*
X2886Y1516*
Y1436*
X2882Y1434*
X2867*
Y1544*
X2868Y1545*
X2871Y1551*
Y1558*
X2868Y1564*
X2863Y1569*
X2863Y1569*
X2862Y1574*
X3034Y1746*
X3039Y1744*
G37*
G36*
X2839Y1605D02*
X2840Y1604D01*
X2844Y1599*
X2845Y1599*
X2846Y1594*
X2781Y1530*
X2778Y1525*
X2777Y1520*
Y1434*
X2755*
Y1588*
X2810*
X2815Y1589*
X2820Y1592*
X2834Y1606*
X2839Y1605*
G37*
G36*
X2839Y1545D02*
X2840Y1545D01*
X2841Y1544*
Y1434*
X2826*
Y1420*
X2826*
X2822Y1417*
X2807Y1403*
X2803Y1405*
Y1420*
X2803Y1421*
Y1515*
X2834Y1546*
X2839Y1545*
G37*
G36*
X1835Y1424D02*
X1836Y1419D01*
X1838Y1416*
X1836Y1412*
X1835Y1408*
X1836Y1403*
X1838Y1400*
X1836Y1396*
X1836Y1395*
X1835Y1394*
X1830Y1393*
X1826Y1394*
X1824*
Y1399*
X1821Y1405*
X1816Y1410*
X1810Y1413*
X1803*
X1797Y1410*
X1794Y1407*
X1790Y1408*
X1784*
X1779Y1406*
X1774Y1408*
X1768*
X1765Y1407*
X1765Y1407*
X1759Y1409*
X1753*
X1747Y1407*
X1742Y1402*
X1740Y1396*
Y1390*
X1731*
X1728Y1390*
X1724Y1393*
X1723Y1394*
Y1408*
X1711*
Y1418*
X1723*
Y1427*
X1832*
X1835Y1424*
G37*
G36*
X2977Y1529D02*
Y1525D01*
X2980Y1517*
X2986Y1511*
X2994Y1507*
X2997*
X3024Y1481*
X3029Y1478*
X3035Y1476*
X3045*
Y1080*
X3042Y1076*
X3010*
X3001Y1085*
Y1094*
X3009*
Y1149*
X2984*
X2981Y1152*
Y1173*
X2989*
Y1228*
X2947*
Y1506*
X2972Y1531*
X2977Y1529*
G37*
G36*
X2954Y1134D02*
X2961Y1126D01*
Y1094*
X2969*
Y1078*
X2970Y1072*
X2973Y1067*
X2991Y1049*
X2997Y1045*
X3001Y1044*
X3001Y1039*
X2937*
X2935Y1044*
X2937Y1051*
Y1057*
X2935Y1063*
X2934Y1064*
Y1094*
X2943*
Y1126*
X2946Y1129*
X2947Y1135*
Y1135*
X2952Y1137*
X2954Y1134*
G37*
G36*
X2826Y1321D02*
X2838D01*
Y1039*
X2755*
Y1321*
X2803*
Y1329*
X2826*
Y1321*
G37*
G36*
X1012Y1123D02*
X2527D01*
Y1008*
Y988*
X1017*
Y1001*
X1003*
Y1121*
X1008Y1124*
X1012Y1123*
G37*
G36*
X3115Y1022D02*
X3127D01*
Y1012*
X3115*
Y999*
Y996*
X3127*
Y986*
X3115*
Y973*
Y971*
X3127*
Y961*
X3115*
Y948*
X3138*
Y960*
X3148*
Y948*
X3159*
Y947*
X3238*
Y948*
X3248*
Y960*
X3258*
Y948*
X3282*
Y961*
X3270*
Y971*
X3282*
Y973*
Y986*
X3270*
Y996*
X3282*
Y1001*
X3283*
X3289Y1002*
X3294Y1005*
X3297Y1008*
X3319Y985*
Y769*
X3320Y763*
X3324Y757*
X3404Y677*
X3402Y672*
X3280*
Y676*
X3277Y682*
X3272Y687*
X3266Y689*
X3259*
X3253Y687*
X3251Y684*
X2936Y999*
Y999*
X2935Y1002*
X2938Y1007*
X3018*
X3022Y1004*
Y1000*
Y973*
X3034*
Y963*
X3022*
Y931*
X3056*
Y943*
X3066*
Y931*
X3101*
Y963*
X3089*
Y973*
X3101*
Y1000*
Y1004*
X3100Y1009*
Y1026*
X3115*
Y1022*
G37*
G36*
X3657Y3762D02*
X3661D01*
X3665Y3763*
X3669Y3762*
X3673*
X3675Y3762*
X3679Y3760*
X3680Y3759*
Y3748*
X3668Y3736*
X3665Y3732*
X3664Y3727*
Y761*
X3635Y733*
X3478*
X3436Y775*
Y777*
X3434Y783*
X3429Y788*
X3423Y790*
X3421*
X3379Y832*
Y2007*
X3378Y2012*
X3375Y2017*
X3353Y2038*
X3349Y2041*
X3344Y2042*
X3317*
X3316Y2043*
X3310Y2046*
X3303*
X3300Y2048*
Y2060*
X3299Y2065*
X3296Y2069*
X3276Y2089*
X3277Y2091*
X3282Y2096*
X3284Y2102*
Y2109*
X3282Y2115*
X3280Y2117*
Y2143*
X3279Y2148*
X3276Y2152*
X2900Y2528*
X2896Y2531*
X2891Y2532*
X2806*
X2801Y2531*
X2796Y2528*
X2784Y2516*
X2755*
Y2539*
Y2569*
X2763Y2575*
X2767Y2579*
X2759Y2588*
X2766Y2595*
X2774Y2586*
X2778Y2590*
X2790Y2607*
X2800Y2626*
X2806Y2646*
X2810Y2666*
Y2687*
X2806Y2708*
X2800Y2728*
X2790Y2746*
X2778Y2763*
X2774Y2767*
X2766Y2759*
X2759Y2766*
X2767Y2774*
X2763Y2778*
X2746Y2790*
X2728Y2800*
X2708Y2806*
X2687Y2810*
X2666*
X2646Y2806*
X2626Y2800*
X2607Y2790*
X2590Y2778*
X2586Y2774*
X2595Y2766*
X2588Y2759*
X2579Y2767*
X2575Y2763*
X2569Y2755*
X973*
X967Y2763*
X963Y2767*
X955Y2759*
X948Y2766*
X956Y2774*
X952Y2778*
X935Y2790*
X917Y2800*
X897Y2806*
X876Y2810*
X855*
X834Y2806*
X815Y2800*
X796Y2790*
X779Y2778*
X775Y2774*
X784Y2766*
X777Y2759*
X768Y2767*
X764Y2763*
X752Y2746*
X742Y2728*
X736Y2708*
X733Y2687*
Y2666*
X736Y2646*
X742Y2626*
X752Y2607*
X764Y2590*
X768Y2586*
X777Y2595*
X784Y2588*
X775Y2579*
X779Y2575*
X787Y2569*
Y2539*
Y973*
X779Y967*
X775Y963*
X784Y955*
X777Y948*
X768Y956*
X764Y952*
X752Y935*
X742Y917*
X736Y897*
X733Y876*
Y855*
X736Y834*
X742Y815*
X752Y796*
X764Y779*
X768Y775*
X777Y784*
X784Y777*
X775Y768*
X779Y764*
X796Y752*
X815Y742*
X834Y736*
X855Y733*
X876*
X897Y736*
X917Y742*
X935Y752*
X952Y764*
X959Y771*
X2308*
X2310Y766*
X2273Y729*
X2270Y725*
X2269Y721*
Y607*
X2203*
Y514*
X2269*
Y488*
X2270Y483*
X2273Y479*
X2364Y388*
Y336*
X2365Y330*
X2368Y325*
X2410Y283*
X2415Y280*
X2421Y279*
X2422*
Y262*
X2469*
Y318*
X2422*
X2418Y321*
X2396Y343*
Y380*
X2406*
Y378*
X2418*
Y368*
X2406*
Y354*
X2429*
Y366*
X2439*
Y354*
X2462*
Y368*
X2449*
Y378*
X2462*
Y392*
X2461*
Y405*
X2462*
Y419*
X2449*
Y429*
X2462*
Y443*
X2439*
Y431*
X2429*
Y443*
X2406*
Y429*
X2418*
Y419*
X2406*
Y413*
X2387*
X2380Y411*
X2377Y409*
X2294Y493*
Y514*
X2359*
Y607*
X2294*
Y715*
X2349Y771*
X2498*
Y624*
X2483*
X2478Y625*
X2475*
X2447*
Y613*
X2437*
Y625*
X2405*
Y590*
X2417*
Y580*
X2405*
Y546*
X2437*
Y558*
X2447*
Y546*
X2475*
X2478*
X2483Y547*
X2506*
Y534*
X2480*
Y535*
X2455*
Y523*
X2445*
Y535*
X2419*
Y509*
X2431*
Y499*
X2419*
Y474*
X2445*
Y486*
X2455*
Y474*
X2480*
Y475*
X2506*
Y442*
X2496*
Y406*
X2549*
Y442*
X2539*
Y547*
X2550*
Y624*
X2531*
Y771*
X2583*
X2590Y764*
X2607Y752*
X2626Y742*
X2646Y736*
X2666Y733*
X2687*
X2708Y736*
X2728Y742*
X2746Y752*
X2763Y764*
X2767Y768*
X2759Y777*
X2766Y784*
X2774Y775*
X2778Y779*
X2790Y796*
X2800Y815*
X2806Y834*
X2810Y855*
Y876*
X2806Y897*
X2800Y917*
X2790Y935*
X2778Y952*
X2774Y956*
X2766Y948*
X2759Y955*
X2767Y963*
X2763Y967*
X2755Y973*
Y988*
Y1007*
X2870*
X2872Y1002*
X2871Y1001*
X2869Y995*
Y989*
X2871Y982*
X2876Y978*
X2882Y975*
X2883*
X3226Y632*
Y534*
X3225Y533*
X3223Y527*
Y520*
X3225Y514*
X3223Y509*
X2744*
Y525*
X2685*
Y514*
X2663*
Y523*
X2608*
Y476*
X2663*
Y485*
X2685*
Y469*
X2684*
Y443*
X2696*
Y433*
X2684*
Y407*
X2709*
Y419*
X2719*
Y407*
X2745*
Y433*
X2733*
Y443*
X2745*
Y469*
X2744*
Y481*
X2921*
Y461*
X2710Y251*
X2315*
X2238Y327*
X2240Y332*
X2255*
Y478*
X2185*
Y332*
X2206*
Y325*
X2207Y319*
X2210Y315*
X2295Y230*
X2293Y225*
X2222*
X2135Y313*
Y332*
X2155*
Y478*
X2085*
Y332*
X2106*
Y307*
X2107Y301*
X2110Y297*
X2198Y209*
X2196Y204*
X2135*
X2035Y304*
Y332*
X2055*
Y478*
X1985*
Y332*
X2006*
Y299*
X2007Y293*
X2010Y289*
X2111Y188*
X2109Y184*
X2057*
X1933Y307*
Y332*
X1955*
Y478*
X1885*
Y332*
X1907*
Y302*
X1908Y297*
X1911Y293*
X2040Y164*
X2037Y159*
X1986*
X1833Y312*
Y332*
X1855*
Y478*
X1785*
Y332*
X1807*
Y306*
X1808Y301*
X1811Y297*
X1966Y142*
X1964Y137*
X1925*
X1737Y326*
Y332*
X1755*
Y478*
X1685*
Y332*
X1704*
Y319*
X1705Y313*
X1709Y308*
X1907Y110*
X1913Y106*
X1919Y105*
X2813*
X2819Y106*
X2824Y110*
X3057Y342*
X3310*
X3316Y344*
X3321Y347*
X3429Y455*
X3431Y456*
X3436Y461*
X3438Y467*
Y474*
X3437Y476*
X3441Y481*
X3571*
X3577Y482*
X3581Y485*
X3773Y677*
X3776Y681*
X3777Y687*
Y3688*
X3807Y3719*
X3812Y3716*
Y3561*
X3813Y3556*
X3816Y3552*
X3865Y3502*
Y590*
Y578*
X3862Y554*
X3856Y531*
X3847Y508*
X3835Y487*
X3820Y468*
X3803Y451*
X3784Y436*
X3763Y424*
X3740Y415*
X3717Y408*
X3693Y405*
X3681*
X3680Y405*
X3680Y405*
X3671Y405*
X3671Y405*
X3670Y405*
X3652Y402*
X3651Y402*
X3651Y402*
X3633Y398*
X3632Y397*
X3632Y397*
X3615Y390*
X3614Y390*
X3614Y389*
X3598Y380*
X3597Y380*
X3597Y380*
X3582Y369*
X3582Y368*
X3581Y368*
X3568Y355*
X3568Y354*
X3567Y354*
X3556Y339*
X3556Y339*
X3556Y338*
X3547Y322*
X3546Y322*
X3546Y321*
X3539Y304*
X3539Y304*
X3538Y303*
X3534Y285*
X3534Y285*
X3534Y284*
X3531Y266*
X3531Y265*
X3531Y265*
X3531Y256*
X3531Y256*
X3531Y255*
Y196*
Y184*
X3528Y160*
X3521Y137*
X3512Y114*
X3500Y93*
X3485Y74*
X3468Y57*
X3449Y42*
X3428Y30*
X3405Y21*
X3382Y15*
X3358Y12*
X3346*
X196*
X184*
X160Y15*
X137Y21*
X114Y30*
X93Y42*
X74Y57*
X57Y74*
X42Y93*
X30Y114*
X21Y137*
X15Y160*
X12Y184*
Y196*
Y3346*
Y3358*
X15Y3382*
X21Y3405*
X30Y3428*
X42Y3449*
X57Y3468*
X74Y3485*
X93Y3500*
X114Y3512*
X137Y3521*
X160Y3528*
X184Y3531*
X196*
X3346*
X3358*
X3382Y3528*
X3405Y3521*
X3428Y3512*
X3449Y3500*
X3468Y3485*
X3485Y3468*
X3500Y3449*
X3512Y3428*
X3521Y3405*
X3528Y3382*
X3531Y3358*
Y3346*
Y826*
X3531Y826*
X3531Y825*
X3531Y821*
X3532Y820*
X3532Y818*
X3535Y811*
X3538Y807*
X3543Y801*
X3547Y799*
X3554Y796*
X3556Y795*
X3557Y795*
X3561Y795*
X3562Y795*
X3564Y795*
X3568Y795*
X3569Y795*
X3571Y796*
X3578Y799*
X3582Y801*
X3587Y807*
X3590Y811*
X3593Y818*
X3593Y820*
X3594Y821*
X3594Y825*
X3594Y826*
X3594Y826*
Y3502*
X3644Y3552*
X3646Y3556*
X3647Y3561*
Y3762*
X3649*
X3653Y3763*
X3657Y3762*
G37*
G36*
X3356Y619D02*
X3355Y617D01*
Y610*
X3357Y604*
X3359Y603*
Y528*
X3357Y526*
X3355Y520*
Y513*
X3352Y509*
X3256*
X3254Y514*
X3256Y520*
Y525*
X3259Y528*
X3261Y529*
X3262Y528*
X3269*
X3275Y531*
X3280Y536*
X3282Y542*
Y549*
X3280Y555*
X3279Y555*
Y603*
X3280Y603*
X3282Y609*
Y616*
X3281Y618*
X3285Y623*
X3353*
X3356Y619*
G37*
G36*
X3675Y619D02*
X3565Y509D01*
X3441*
X3437Y514*
X3438Y517*
Y523*
X3438Y525*
Y608*
X3438Y609*
Y616*
X3437Y618*
X3441Y623*
X3673*
X3675Y619*
G37*
G36*
X3350Y476D02*
X3349Y474D01*
Y472*
X3290Y413*
X3249*
X3247Y418*
X3267Y438*
X3267*
X3274Y441*
X3278Y445*
X3281Y452*
Y458*
X3278Y465*
X3274Y469*
X3267Y472*
X3261*
X3259Y473*
X3258Y477*
X3261Y481*
X3346*
X3350Y476*
G37*
G36*
X3231Y456D02*
X3236Y454D01*
X3238Y449*
X3226Y437*
X3003*
X2997Y436*
X2993Y433*
X2764Y204*
X2746*
X2744Y209*
X2991Y456*
X3231*
X3231Y456*
G37*
%LNmirror_pcb1_copper_signal_top-2*%
%LPC*%
G36*
X1722Y2520D02*
X1701D01*
Y2508*
X1691*
Y2520*
X1671*
Y2501*
X1683*
Y2491*
X1671*
Y2471*
X1672*
Y2437*
X1695*
X1698Y2431*
X1703Y2426*
X1709Y2424*
X1715*
X1722Y2426*
X1725Y2429*
X1725*
X1730Y2430*
X1734Y2433*
X1748Y2446*
X1750*
X1752Y2445*
X1758*
X1762Y2447*
X1762Y2447*
X1768Y2444*
X1774*
X1780Y2447*
X1780Y2447*
X1784Y2445*
X1790*
X1795Y2447*
X1796Y2448*
X1811*
X1813Y2446*
X1819Y2443*
X1826*
X1832Y2446*
X1837Y2451*
X1839Y2457*
Y2463*
X1837Y2470*
X1832Y2474*
X1826Y2477*
X1823*
Y2482*
X1821Y2488*
X1816Y2493*
X1810Y2495*
X1803*
X1797Y2493*
X1793Y2489*
X1790Y2491*
X1784*
X1780Y2489*
X1780Y2489*
X1774Y2492*
X1768*
X1763Y2490*
X1759Y2492*
X1752*
X1746Y2489*
X1742Y2485*
X1739Y2479*
Y2473*
X1739Y2472*
X1737Y2471*
X1733Y2469*
X1726Y2461*
X1721Y2463*
Y2471*
X1722*
Y2491*
X1709*
Y2501*
X1722*
Y2520*
G37*
G36*
X1723Y2175D02*
X1703D01*
Y2163*
X1693*
Y2175*
X1673*
Y2156*
X1685*
Y2146*
X1673*
Y2127*
X1674*
Y2092*
X1704*
X1705Y2092*
X1705Y2090*
X1710Y2086*
X1716Y2083*
X1723*
X1729Y2086*
X1734Y2090*
X1737Y2097*
Y2098*
X1741Y2103*
X1748*
X1752Y2101*
X1758*
X1763Y2103*
X1768Y2101*
X1774*
X1779Y2103*
X1784Y2101*
X1790*
X1795Y2103*
X1796Y2103*
X1811*
X1813Y2101*
X1819Y2099*
X1826*
X1832Y2101*
X1837Y2106*
X1839Y2112*
Y2119*
X1837Y2125*
X1832Y2130*
X1826Y2133*
X1823*
Y2137*
X1821Y2143*
X1816Y2148*
X1810Y2151*
X1803*
X1797Y2148*
X1793Y2145*
X1790Y2146*
X1784*
X1779Y2144*
X1774Y2146*
X1768*
X1765Y2145*
X1764Y2145*
X1759Y2147*
X1752*
X1746Y2145*
X1742Y2140*
X1739Y2135*
Y2129*
X1736*
X1731Y2128*
X1728Y2126*
X1723Y2129*
Y2146*
X1711*
Y2156*
X1723*
Y2175*
G37*
G36*
Y1831D02*
X1703D01*
Y1819*
X1693*
Y1831*
X1673*
Y1812*
X1685*
Y1802*
X1673*
Y1782*
X1674*
Y1748*
X1704*
X1705Y1747*
X1705Y1746*
X1710Y1741*
X1716Y1739*
X1723*
X1729Y1741*
X1731Y1742*
X1740*
X1745Y1743*
X1749Y1746*
X1758Y1755*
X1762Y1758*
X1768Y1755*
X1775*
X1780Y1758*
X1781Y1758*
X1784Y1756*
X1790*
X1796Y1759*
X1796Y1759*
X1811*
X1813Y1757*
X1819Y1754*
X1826*
X1832Y1757*
X1837Y1762*
X1839Y1768*
Y1775*
X1837Y1781*
X1832Y1785*
X1826Y1788*
X1824*
Y1793*
X1821Y1799*
X1816Y1804*
X1810Y1806*
X1803*
X1797Y1804*
X1794Y1800*
X1790Y1802*
X1784*
X1781Y1800*
X1780Y1800*
X1775Y1803*
X1768*
X1764Y1801*
X1759Y1803*
X1753*
X1747Y1800*
X1742Y1796*
X1740Y1790*
Y1784*
X1742Y1778*
X1742Y1778*
X1741Y1775*
X1735Y1768*
X1731*
X1729Y1770*
X1723Y1772*
X1722*
Y1782*
X1723*
Y1802*
X1711*
Y1812*
X1723*
Y1831*
G37*
G36*
X3356Y3479D02*
X3335D01*
X3315Y3476*
X3295Y3469*
X3276Y3460*
X3259Y3447*
X3255Y3444*
X3264Y3435*
X3257Y3428*
X3248Y3437*
X3244Y3433*
X3232Y3416*
X3223Y3397*
X3216Y3377*
X3213Y3356*
Y3335*
X3216Y3315*
X3223Y3295*
X3232Y3276*
X3244Y3259*
X3248Y3255*
X3257Y3264*
X3264Y3257*
X3255Y3248*
X3259Y3244*
X3276Y3232*
X3295Y3223*
X3315Y3216*
X3335Y3213*
X3356*
X3377Y3216*
X3397Y3223*
X3416Y3232*
X3433Y3244*
X3437Y3248*
X3428Y3257*
X3435Y3264*
X3444Y3255*
X3447Y3259*
X3460Y3276*
X3469Y3295*
X3476Y3315*
X3479Y3335*
Y3356*
X3476Y3377*
X3469Y3397*
X3460Y3416*
X3447Y3433*
X3444Y3437*
X3435Y3428*
X3428Y3435*
X3437Y3444*
X3433Y3447*
X3416Y3460*
X3397Y3469*
X3377Y3476*
X3356Y3479*
G37*
G36*
X207D02*
X186D01*
X165Y3476*
X145Y3469*
X127Y3460*
X110Y3447*
X106Y3444*
X115Y3435*
X107Y3428*
X99Y3437*
X95Y3433*
X83Y3416*
X73Y3397*
X67Y3377*
X63Y3356*
Y3335*
X67Y3315*
X73Y3295*
X83Y3276*
X95Y3259*
X99Y3255*
X107Y3264*
X115Y3257*
X106Y3248*
X110Y3244*
X127Y3232*
X145Y3223*
X165Y3216*
X186Y3213*
X207*
X228Y3216*
X247Y3223*
X266Y3232*
X283Y3244*
X287Y3248*
X278Y3257*
X285Y3264*
X294Y3255*
X298Y3259*
X310Y3276*
X320Y3295*
X326Y3315*
X329Y3335*
Y3356*
X326Y3377*
X320Y3397*
X310Y3416*
X298Y3433*
X294Y3437*
X285Y3428*
X278Y3435*
X287Y3444*
X283Y3447*
X266Y3460*
X247Y3469*
X228Y3476*
X207Y3479*
G37*
G36*
X2884Y3007D02*
X2863D01*
X2842Y3003*
X2822Y2997*
X2804Y2987*
X2787Y2975*
X2783Y2971*
X2792Y2962*
X2785Y2955*
X2776Y2964*
X2772Y2960*
X2760Y2943*
X2750Y2925*
X2744Y2905*
X2740Y2884*
Y2863*
X2744Y2842*
X2750Y2822*
X2760Y2804*
X2772Y2787*
X2776Y2783*
X2785Y2792*
X2792Y2785*
X2783Y2776*
X2787Y2772*
X2804Y2760*
X2822Y2750*
X2842Y2744*
X2863Y2740*
X2884*
X2905Y2744*
X2925Y2750*
X2943Y2760*
X2960Y2772*
X2964Y2776*
X2955Y2785*
X2962Y2792*
X2971Y2783*
X2975Y2787*
X2987Y2804*
X2997Y2822*
X3003Y2842*
X3007Y2863*
Y2884*
X3003Y2905*
X2997Y2925*
X2987Y2943*
X2975Y2960*
X2971Y2964*
X2962Y2955*
X2955Y2962*
X2964Y2971*
X2960Y2975*
X2943Y2987*
X2925Y2997*
X2905Y3003*
X2884Y3007*
G37*
G36*
X679D02*
X658D01*
X638Y3003*
X618Y2997*
X599Y2987*
X582Y2975*
X578Y2971*
X587Y2962*
X580Y2955*
X571Y2964*
X567Y2960*
X555Y2943*
X545Y2925*
X539Y2905*
X536Y2884*
Y2863*
X539Y2842*
X545Y2822*
X555Y2804*
X567Y2787*
X571Y2783*
X580Y2792*
X587Y2785*
X578Y2776*
X582Y2772*
X599Y2760*
X618Y2750*
X638Y2744*
X658Y2740*
X679*
X700Y2744*
X720Y2750*
X739Y2760*
X755Y2772*
X759Y2776*
X751Y2785*
X758Y2792*
X766Y2783*
X770Y2787*
X783Y2804*
X792Y2822*
X799Y2842*
X802Y2863*
Y2884*
X799Y2905*
X792Y2925*
X783Y2943*
X770Y2960*
X766Y2964*
X758Y2955*
X751Y2962*
X759Y2971*
X755Y2975*
X739Y2987*
X720Y2997*
X700Y3003*
X679Y3007*
G37*
G36*
Y802D02*
X658D01*
X638Y799*
X618Y792*
X599Y783*
X582Y770*
X578Y766*
X587Y758*
X580Y751*
X571Y759*
X567Y755*
X555Y739*
X545Y720*
X539Y700*
X536Y679*
Y658*
X539Y638*
X545Y618*
X555Y599*
X567Y582*
X571Y578*
X580Y587*
X587Y580*
X578Y571*
X582Y567*
X599Y555*
X618Y545*
X638Y539*
X658Y536*
X679*
X700Y539*
X720Y545*
X739Y555*
X755Y567*
X759Y571*
X751Y580*
X758Y587*
X766Y578*
X770Y582*
X783Y599*
X792Y618*
X799Y638*
X802Y658*
Y679*
X799Y700*
X792Y720*
X783Y739*
X770Y755*
X766Y759*
X758Y751*
X751Y758*
X759Y766*
X755Y770*
X739Y783*
X720Y792*
X700Y799*
X679Y802*
G37*
G36*
X2885Y802D02*
X2864D01*
X2843Y798*
X2823Y792*
X2805Y782*
X2788Y770*
X2784Y766*
X2793Y758*
X2786Y751*
X2777Y759*
X2773Y755*
X2761Y738*
X2751Y720*
X2745Y700*
X2741Y679*
Y658*
X2745Y637*
X2751Y618*
X2761Y599*
X2773Y582*
X2777Y578*
X2786Y587*
X2793Y580*
X2784Y571*
X2788Y567*
X2805Y555*
X2823Y545*
X2843Y539*
X2864Y536*
X2885*
X2906Y539*
X2926Y545*
X2944Y555*
X2961Y567*
X2965Y571*
X2956Y580*
X2963Y587*
X2972Y578*
X2976Y582*
X2988Y599*
X2998Y618*
X3004Y637*
X3008Y658*
Y679*
X3004Y700*
X2998Y720*
X2988Y738*
X2976Y755*
X2972Y759*
X2963Y751*
X2956Y758*
X2965Y766*
X2961Y770*
X2944Y782*
X2926Y792*
X2906Y798*
X2885Y802*
G37*
G36*
X1656Y479D02*
X1625D01*
Y466*
X1615*
Y479*
X1584*
Y410*
X1597*
Y400*
X1584*
Y331*
X1615*
Y344*
X1625*
Y331*
X1656*
Y400*
X1644*
Y410*
X1656*
Y479*
G37*
G36*
X2663Y458D02*
X2608D01*
Y411*
X2621*
Y395*
X2597*
Y387*
X2549*
Y391*
X2496*
Y355*
X2508*
Y318*
X2487*
Y262*
X2535*
Y299*
X2536Y300*
X2537Y306*
Y355*
X2549*
Y359*
X2597*
Y303*
X2753*
Y395*
X2650*
Y411*
X2663*
Y458*
G37*
G36*
X374Y1529D02*
X364Y1527D01*
X356Y1521*
X350Y1513*
X348Y1504*
Y677*
X350Y667*
X356Y659*
X547Y468*
X555Y463*
X564Y461*
X1135*
X1145Y463*
X1153Y468*
X1242Y558*
X1434*
X1495Y497*
Y478*
X1485*
Y332*
X1555*
Y478*
X1546*
Y507*
X1544Y517*
X1538Y525*
X1462Y601*
X1454Y606*
X1444Y608*
X1232*
X1222Y606*
X1214Y601*
X1124Y511*
X575*
X399Y687*
Y1504*
X397Y1513*
X391Y1521*
X383Y1527*
X374Y1529*
G37*
G36*
X226Y1796D02*
X216Y1794D01*
X208Y1789*
X203Y1781*
X201Y1771*
Y718*
X203Y708*
X208Y700*
X521Y387*
X529Y382*
X539Y380*
X1153*
X1163Y382*
X1171Y387*
X1270Y486*
X1390*
X1393Y484*
Y478*
X1385*
Y332*
X1455*
Y478*
X1443*
Y494*
X1442Y504*
X1436Y512*
X1419Y529*
X1411Y535*
X1401Y537*
X1259*
X1250Y535*
X1241Y529*
X1143Y430*
X549*
X251Y728*
Y1771*
X249Y1781*
X244Y1789*
X236Y1794*
X226Y1796*
G37*
G36*
X157Y1934D02*
X147Y1932D01*
X139Y1927*
X134Y1919*
X132Y1909*
Y674*
X134Y664*
X139Y656*
X493Y302*
X502Y296*
X511Y294*
X1189*
X1199Y296*
X1207Y302*
X1280Y375*
X1285Y373*
Y332*
X1355*
Y478*
X1285*
Y430*
X1275*
X1265Y428*
X1257Y423*
X1179Y345*
X522*
X182Y684*
Y1909*
X180Y1919*
X175Y1927*
X167Y1932*
X157Y1934*
G37*
G36*
X207Y329D02*
X186D01*
X165Y326*
X145Y320*
X127Y310*
X110Y298*
X106Y294*
X115Y285*
X107Y278*
X99Y287*
X95Y283*
X83Y266*
X73Y247*
X67Y228*
X63Y207*
Y186*
X67Y165*
X73Y145*
X83Y127*
X95Y110*
X99Y106*
X107Y115*
X115Y107*
X106Y99*
X110Y95*
X127Y83*
X145Y73*
X165Y67*
X186Y63*
X207*
X228Y67*
X247Y73*
X266Y83*
X283Y95*
X287Y99*
X278Y107*
X285Y115*
X294Y106*
X298Y110*
X310Y127*
X320Y145*
X326Y165*
X329Y186*
Y207*
X326Y228*
X320Y247*
X310Y266*
X298Y283*
X294Y287*
X285Y278*
X278Y285*
X287Y294*
X283Y298*
X266Y310*
X247Y320*
X228Y326*
X207Y329*
G37*
G36*
X3356Y325D02*
X3335D01*
X3315Y322*
X3295Y315*
X3276Y306*
X3259Y293*
X3255Y289*
X3264Y281*
X3257Y274*
X3248Y282*
X3244Y278*
X3232Y262*
X3223Y243*
X3216Y223*
X3213Y202*
Y181*
X3216Y161*
X3223Y141*
X3232Y122*
X3244Y105*
X3248Y101*
X3257Y110*
X3264Y103*
X3255Y94*
X3259Y90*
X3276Y78*
X3295Y68*
X3315Y62*
X3335Y59*
X3356*
X3377Y62*
X3397Y68*
X3416Y78*
X3433Y90*
X3437Y94*
X3428Y103*
X3435Y110*
X3444Y101*
X3447Y105*
X3460Y122*
X3469Y141*
X3476Y161*
X3479Y181*
Y202*
X3476Y223*
X3469Y243*
X3460Y262*
X3447Y278*
X3444Y282*
X3435Y274*
X3428Y281*
X3437Y289*
X3433Y293*
X3416Y306*
X3397Y315*
X3377Y322*
X3356Y325*
G37*
%LNmirror_pcb1_copper_signal_top-3*%
%LPD*%
G54D10*
X2678Y1537D03*
X2621D03*
X2661Y1971D03*
X2604D03*
Y2236D03*
X2661D03*
X2507Y504D03*
X2450D03*
G54D11*
X2636Y1913D03*
X2604D03*
X2636Y1858D03*
X2604D03*
X2636Y2348D03*
Y2293D03*
X2604Y2348D03*
Y2293D03*
G54D12*
X2690Y1625D03*
Y1651D03*
Y1599D03*
Y1676D03*
X2609Y1651D03*
Y1676D03*
Y1625D03*
Y1599D03*
G54D13*
X2540Y1008D03*
X1004Y988D03*
G54D14*
X1787Y1377D03*
X1771D03*
X1756D03*
X1787Y1393D03*
X1771D03*
X1756D03*
X1787Y1771D03*
X1771D03*
X1756D03*
X1787Y1787D03*
X1771D03*
X1756D03*
X1787Y2116D03*
X1771D03*
X1755D03*
X1787Y2131D03*
X1771D03*
X1755D03*
X1787Y2460D03*
X1771D03*
X1755D03*
X1787Y2476D03*
X1771D03*
X1755D03*
G54D15*
X2522Y424D03*
Y373D03*
X2434D03*
Y398D03*
Y424D03*
G54D16*
X3216Y1733D03*
Y1758D03*
Y1784D03*
Y1810D03*
X3071D03*
Y1784D03*
Y1758D03*
Y1733D03*
G54D17*
X3182Y1844D03*
X3156D03*
X3131D03*
X3105D03*
Y1698D03*
X3131D03*
X3156D03*
X3182D03*
G54D18*
X3143Y1771D03*
G54D19*
X3198Y1004D03*
G54D20*
X3253Y966D03*
Y991D03*
Y1017D03*
Y1042D03*
X3143Y966D03*
Y991D03*
Y1017D03*
Y1042D03*
G54D21*
X3124Y2047D03*
X3189D03*
X3157Y1968D03*
X3222D03*
X2511Y290D03*
X2446D03*
X2985Y1122D03*
X2920D03*
X2965Y1200D03*
X2900D03*
G54D22*
X2636Y500D03*
Y435D03*
X2775Y1410D03*
Y1345D03*
X2854Y1410D03*
Y1345D03*
X2775Y1804D03*
Y1739D03*
X2854Y1804D03*
Y1739D03*
X3255Y1568D03*
Y1633D03*
X2775Y2148D03*
Y2083D03*
X2854Y2148D03*
Y2083D03*
X2775Y2493D03*
Y2428D03*
X2854Y2493D03*
Y2428D03*
G54D23*
X2675Y349D03*
X2281Y560D03*
G54D24*
X1320Y405D03*
X1420D03*
X1620D03*
X1520D03*
X1720D03*
X1920D03*
X1820D03*
X2020D03*
X2220D03*
X2120D03*
G54D25*
X2714Y495D03*
Y438D03*
G54D26*
X1698Y1413D03*
Y1378D03*
Y1807D03*
Y1771D03*
Y2151D03*
Y2116D03*
X1696Y2496D03*
Y2460D03*
G54D27*
X2442Y585D03*
X2515D03*
X3181Y1543D03*
X3109D03*
X3171Y1126D03*
X3244D03*
G54D28*
X3178Y1624D03*
X3142D03*
G54D29*
X3061Y968D03*
Y1041D03*
G54D30*
X2571Y1784D02*
X2591Y1804D01*
X2587Y1771D02*
X2714D01*
X2587D02*
X2587D01*
X2591Y1804D02*
X2714D01*
X2581Y1854D02*
X2600D01*
X2604Y1858D02*
Y1858D01*
X2600Y1854D02*
X2604Y1858D01*
X1004Y1658D02*
X2539D01*
X2606Y2350D02*
Y2379D01*
X2604Y2348D02*
X2606Y2350D01*
Y2379D02*
X2608Y2380D01*
X1675Y2401D02*
X2763D01*
X1672Y2404D02*
Y2433D01*
Y2404D02*
X1675Y2401D01*
X2579Y2329D02*
X2581Y2327D01*
X2620Y2330D02*
Y2334D01*
X2581Y2327D02*
X2617D01*
X2620Y2330*
Y2334D02*
X2625Y2339D01*
X2632*
X2636Y2343*
Y2348*
X2587Y2460D02*
X2817D01*
X2641Y2284D02*
X2661Y2264D01*
X2636Y2288D02*
X2640Y2284D01*
X2636Y2288D02*
Y2293D01*
X2661Y2236D02*
Y2264D01*
X2640Y2284D02*
X2641D01*
X2802Y2236D02*
X2814Y2224D01*
Y2175D02*
X3082D01*
X2661Y2236D02*
X2802D01*
X2249Y2175D02*
X2766D01*
X3067Y1806D02*
X3071Y1810D01*
X2854Y1614D02*
X3046Y1806D01*
X3067*
X2690Y1676D02*
X2772D01*
X2627Y1886D02*
X2676D01*
X2714Y1847D02*
X2775D01*
X2676Y1886D02*
X2714Y1847D01*
X2604Y1908D02*
X2627Y1886D01*
X2604Y1908D02*
Y1913D01*
X2772Y2027D02*
X2814D01*
X2660D02*
X2772D01*
X2604Y1971D02*
X2660Y2027D01*
X2604Y1913D02*
Y1970D01*
X2604Y1971D02*
X2604Y1970D01*
X2714Y1804D02*
X2775D01*
X2714Y1771D02*
X2817D01*
X2636Y1856D02*
X2640Y1852D01*
X2661*
X2636Y1856D02*
Y1858D01*
X2775Y1804D02*
X2779D01*
X2614Y1676D02*
X2627Y1689D01*
X2637D02*
X2639Y1691D01*
X2627Y1689D02*
X2637D01*
X2698Y1460D02*
X2755D01*
X2621Y1537D02*
X2698Y1460D01*
X2609Y1549D02*
X2621Y1537D01*
X2609Y1549D02*
Y1599D01*
Y1676D02*
X2614D01*
X2579Y1663D02*
X2591Y1651D01*
X2609*
Y1625D02*
X2639D01*
X2664Y1651*
X2660Y1625D02*
X2690D01*
X2635Y1599D02*
X2660Y1625D01*
X2587Y1377D02*
X2800D01*
X2831Y1408*
X2609Y1599D02*
X2635D01*
X2664Y1651D02*
X2690D01*
X1920Y302D02*
X2052Y171D01*
X2793*
X1920Y302D02*
Y405D01*
X2795Y146D02*
X3028Y380D01*
X2793Y171D02*
X3022Y400D01*
X1980Y146D02*
X2795D01*
X3295Y400D02*
X3366Y471D01*
X3028Y380D02*
X3299D01*
X3393Y474*
X3022Y400D02*
X3295D01*
X1820Y306D02*
X1980Y146D01*
X1820Y306D02*
Y405D01*
X3419Y773D02*
X3473Y720D01*
X3397Y526D02*
Y528D01*
X3389Y536D02*
Y612D01*
Y536D02*
X3397Y528D01*
X3366Y827D02*
X3419Y773D01*
X3390Y770D02*
X3455Y705D01*
X3372Y517D02*
Y614D01*
X3352Y807D02*
X3390Y770D01*
X3473Y720D02*
X3641D01*
X3366Y827D02*
Y2007D01*
X3455Y705D02*
X3649D01*
X3352Y807D02*
Y1981D01*
X3649Y705D02*
X3690Y746D01*
X3641Y720D02*
X3677Y756D01*
Y3727D02*
X3693Y3743D01*
X3677Y756D02*
Y3727D01*
X3690Y746D02*
Y3718D01*
X3693Y3743D02*
Y3773D01*
X3717Y3745D02*
Y3773D01*
X3690Y3718D02*
X3717Y3745D01*
X2496Y2496D02*
X2677Y2677D01*
X1696Y2496D02*
X2496D01*
X2570Y2473D02*
X2590Y2493D01*
X2775*
X2779*
X1663Y2496D02*
X1696D01*
X1047D02*
X1663D01*
X1647Y2458D02*
Y2462D01*
X1663Y2478D02*
Y2496D01*
X1647Y2458D02*
X1672Y2433D01*
X1647Y2462D02*
X1663Y2478D01*
X2224Y2151D02*
X2249Y2175D01*
X2571Y2128D02*
X2591Y2148D01*
X2775*
X1698Y2151D02*
X2224D01*
X1645D02*
X1698D01*
X773D02*
X1645D01*
Y2066D02*
Y2151D01*
Y2066D02*
X2748D01*
X2772Y2042*
Y2027D02*
Y2042D01*
X1713Y1757D02*
X1718D01*
X1720Y1755*
X649Y2027D02*
X773Y2151D01*
X1633Y2814D02*
X1696Y2751D01*
Y2496D02*
Y2751D01*
X866Y2677D02*
X1047Y2496D01*
X2817Y1771D02*
X2850Y1804D01*
X2587Y2116D02*
X2817D01*
X2591Y1410D02*
X2775D01*
X2779*
X2571Y1390D02*
X2591Y1410D01*
X2898Y1844D02*
X3071D01*
X2858Y1804D02*
X2898Y1844D01*
X3326Y2007D02*
X3352Y1981D01*
X3344Y2029D02*
X3366Y2007D01*
X3287Y1791D02*
Y2060D01*
X3307Y2029D02*
X3344D01*
X1720Y1366D02*
X1731Y1377D01*
X1717Y1364D02*
X1720Y1366D01*
X2831Y1408D02*
X2852D01*
X2854Y1410*
X2790Y1520D02*
X3050Y1780D01*
X2790Y1421D02*
Y1520D01*
X3066Y1780D02*
X3071Y1784D01*
X3050Y1780D02*
X3066D01*
X1712Y2440D02*
X1714Y2442D01*
X1742Y2459D02*
X1755D01*
X1755Y2460*
X1725Y2442D02*
X1742Y2459D01*
X1714Y2442D02*
X1725D01*
X1720Y2100D02*
X1736Y2116D01*
X1755*
X1698D02*
X1699D01*
X1713Y2101*
X1718*
X1720Y2100*
X1717Y1364D02*
Y1366D01*
X1731Y1377D02*
X1756D01*
X1698Y1378D02*
X1709Y1367D01*
X1716*
X1717Y1366*
X1740Y1755D02*
X1756Y1771D01*
X1698D02*
X1699D01*
X1720Y1755D02*
X1740D01*
X1699Y1771D02*
X1713Y1757D01*
X2845Y1870D02*
X3090D01*
X3098Y1862*
X3101D02*
X3105Y1858D01*
X2779Y1804D02*
X2845Y1870D01*
X3098Y1862D02*
X3101D01*
X2850Y1804D02*
X2854D01*
X2858*
X3124Y2016D02*
Y2043D01*
Y2016D02*
X3130Y2010D01*
Y2007D02*
Y2010D01*
X3157Y1968D02*
X3160Y1971D01*
Y2007*
X1744Y2131D02*
X1755D01*
X1708Y2141D02*
X1734D01*
X1744Y2131*
X1745Y2476D02*
X1755D01*
X1706Y2486D02*
X1734D01*
X1745Y2476*
X3130Y2126D02*
X3189Y2066D01*
X2854Y2148D02*
X3136D01*
X1698Y2151D02*
X1708Y2141D01*
X3105Y1858D02*
Y2024D01*
Y1844D02*
Y1858D01*
X2817Y2460D02*
X2850Y2493D01*
X3153Y1496D02*
X3233D01*
X3109Y1540D02*
X3153Y1496D01*
X3233D02*
X3255Y1517D01*
Y1568*
X3216Y1733D02*
X3230D01*
X3255Y1633D02*
Y1708D01*
X3230Y1733D02*
X3255Y1708D01*
X3218Y1785D02*
X3242D01*
X3216Y1784D02*
X3218Y1785D01*
X3242D02*
X3267Y1811D01*
Y2047*
Y2106D02*
Y2143D01*
X2891Y2519D02*
X3267Y2143D01*
X2869Y2478D02*
X3287Y2060D01*
X2806Y2519D02*
X2891D01*
X2779Y2493D02*
X2806Y2519D01*
X2854Y2493D02*
X2858D01*
X2869Y2482*
Y2478D02*
Y2482D01*
X2850Y2493D02*
X2854D01*
X3216Y1758D02*
X3254D01*
X3287Y1791*
X3215Y1976D02*
Y2069D01*
X3136Y2148D02*
X3215Y2069D01*
Y1976D02*
X3222Y1968D01*
X2850Y2148D02*
X2854D01*
X3105Y2024D02*
X3124Y2043D01*
Y2047*
X2854Y1410D02*
Y1555D01*
Y1410D02*
D01*
X2779D02*
X2790Y1421D01*
X3142Y1917D02*
Y1927D01*
X3143Y1929*
X3131Y1906D02*
X3142Y1917D01*
X3131Y1906D02*
Y1937D01*
Y1844D02*
Y1906D01*
X3182Y1844D02*
Y1905D01*
X3189Y1912D02*
Y2047D01*
X3182Y1905D02*
X3189Y1912D01*
X2775Y2148D02*
X2785Y2158D01*
X3189Y2047D02*
Y2066D01*
X2785Y2158D02*
X2798D01*
X2814Y2175*
X2817Y2116D02*
X2850Y2148D01*
X3131Y1937D02*
X3157Y1964D01*
Y1968*
X3216Y1810D02*
Y1962D01*
X3222Y1968*
X1696Y2496D02*
X1706Y2486D01*
G54D31*
X1787Y1771D02*
X1823D01*
X2770Y1830D02*
X2775Y1836D01*
X2555Y1830D02*
X2770D01*
X2775Y1836D02*
Y1847D01*
X2532Y1807D02*
X2555Y1830D01*
X1672Y1432D02*
X1840D01*
X2501Y1400D02*
X2509Y1408D01*
X1840Y1384D02*
Y1400D01*
Y1416D02*
Y1432D01*
Y1368D02*
Y1384D01*
Y1352D02*
Y1368D01*
Y1400D02*
X2501D01*
X1840D02*
Y1416D01*
X2509Y1408D02*
X2512D01*
X1848Y1424D02*
X2540D01*
Y1008D02*
Y1424D01*
Y1472*
X1012Y1440D02*
X2539D01*
X1012Y1472D02*
X2539D01*
X2540Y1456D02*
Y1472D01*
Y1645*
X1012Y1632D02*
X2539D01*
X1012Y1504D02*
X2539D01*
X1012Y1488D02*
X2539D01*
X1012Y1552D02*
X2539D01*
X1012Y1520D02*
X2539D01*
X1012Y1536D02*
X2539D01*
X1012Y1584D02*
X2539D01*
X1012Y1568D02*
X2539D01*
X1012Y1616D02*
X2539D01*
X1012Y1600D02*
X2539D01*
X1012Y1456D02*
X2539D01*
X1012Y1248D02*
X2539D01*
X1012Y1200D02*
X2539D01*
X1012Y1184D02*
X2539D01*
X1012Y1264D02*
X2539D01*
X1012Y1216D02*
X2539D01*
X1012Y1232D02*
X2539D01*
X1012Y1168D02*
X2539D01*
X1012Y1136D02*
X2539D01*
X1012Y1152D02*
X2539D01*
X1012Y1296D02*
X2539D01*
X1012Y1280D02*
X2539D01*
X1012Y1328D02*
X2539D01*
X1012Y1312D02*
X2539D01*
X1848Y1360D02*
X2540D01*
X1848Y1376D02*
X2540D01*
X1848Y1392D02*
X2540D01*
X1840Y1352D02*
X2532D01*
X1840Y1368D02*
X2532D01*
X1840Y1384D02*
X2532D01*
X1840Y1416D02*
X2480D01*
X1840Y1432D02*
X2532D01*
X1004Y1128D02*
X2532D01*
X1004Y1144D02*
X2532D01*
X1004Y1160D02*
X2532D01*
X1004Y1176D02*
X2532D01*
X1004Y1192D02*
X2532D01*
X1004Y1208D02*
X2532D01*
X1004Y1224D02*
X2532D01*
X1004Y1240D02*
X2532D01*
X1004Y1256D02*
X2532D01*
X1004Y1272D02*
X2532D01*
X1004Y1288D02*
X2532D01*
X1004Y1304D02*
X2532D01*
X1004Y1320D02*
X2532D01*
X1004Y1336D02*
X2532D01*
X1672Y1344D02*
X2540D01*
X1012Y1392D02*
X1663D01*
X1012Y1424D02*
X1663D01*
X1672Y1352D02*
X1840D01*
X1672D02*
Y1432D01*
X1012Y1408D02*
X1663D01*
X1004Y988D02*
Y1658D01*
X1012Y1376D02*
X1663D01*
X1004Y1352D02*
X1672D01*
X1012Y1344D02*
X1672D01*
X1012Y1648D02*
X2539D01*
X1004Y1448D02*
X2532D01*
X1004Y1464D02*
X2532D01*
X1004Y1480D02*
X2532D01*
X1004Y1496D02*
X2532D01*
X1004Y1512D02*
X2532D01*
X1004Y1528D02*
X2532D01*
X1004Y1544D02*
X2532D01*
X1004Y1560D02*
X2532D01*
X1004Y1576D02*
X2532D01*
X1004Y1592D02*
X2532D01*
X1004Y1608D02*
X2532D01*
X1004Y1624D02*
X2532D01*
X1004Y1640D02*
X2532D01*
X1004Y1400D02*
X1655D01*
X1004Y1384D02*
X1655D01*
X1004Y1368D02*
X1655D01*
X1004Y1416D02*
X1655D01*
X1004Y1432D02*
X1655D01*
X1012Y1360D02*
X1663D01*
Y1440*
X1848Y1408D02*
X2488D01*
Y1423D01*
X2224Y694D02*
X2525Y995D01*
X2772Y1676D02*
X2814Y1633D01*
X2736Y1712D02*
X2772Y1676D01*
X1685Y1712D02*
X2736D01*
X2281Y488D02*
Y583D01*
Y721*
X2540Y979*
X3800Y3732D02*
X3810Y3742D01*
Y3772*
X1663Y1734D02*
X1685Y1712D01*
X1663Y1734D02*
Y1796D01*
X1698Y1807D02*
X2532D01*
X673D02*
X1661D01*
X649Y1830D02*
X673Y1807D01*
X2224Y649D02*
Y694D01*
X2540Y979D02*
Y1008D01*
X1659Y1801D02*
X1663Y1796D01*
X1661Y1807D02*
X1698D01*
X1659Y1804D02*
X1661Y1807D01*
X1659Y1801D02*
Y1804D01*
X866Y866D02*
X882D01*
X1004Y988*
X2281Y488D02*
X2380Y389D01*
X1717Y1432D02*
X1720D01*
X1698Y1413D02*
X1699D01*
X1717Y1432*
X1787Y2460D02*
X1822D01*
X1801Y2476D02*
X1804Y2478D01*
X1806*
X1787Y2476D02*
X1801D01*
X1802Y1393D02*
X1804Y1396D01*
X1787Y1393D02*
X1802D01*
X1804Y1396D02*
X1807D01*
X1802Y1787D02*
X1804Y1789D01*
X1787Y1787D02*
X1802D01*
X1804Y1789D02*
X1807D01*
X1801Y2131D02*
X1804Y2134D01*
X1787Y2131D02*
X1801D01*
X1804Y2134D02*
X1806D01*
X1787Y2116D02*
X1822D01*
X1744Y1393D02*
X1756D01*
X1709Y1402D02*
X1735D01*
X1744Y1393*
X1744Y1787D02*
X1755D01*
X1708Y1797D02*
X1735D01*
X1744Y1787*
X1698Y1413D02*
X1709Y1402D01*
X1787Y1377D02*
X1823D01*
X1698Y1807D02*
X1708Y1797D01*
X1755Y1787D02*
X1756Y1787D01*
X1771Y1393D02*
X1787D01*
X1771Y1377D02*
Y1393D01*
X1771Y2131D02*
X1787D01*
X1771Y2116D02*
Y2131D01*
X1771Y1771D02*
Y1787D01*
X1756D02*
X1771D01*
X1755Y2476D02*
X1771D01*
Y2460D02*
Y2476D01*
G54D32*
X2604Y2236D02*
X2618Y2222D01*
Y2211D02*
Y2222D01*
X2625Y2204D02*
X2913D01*
X2618Y2211D02*
X2625Y2204D01*
X2854Y2263D02*
X2913Y2204D01*
X3181Y1617D02*
X3188Y1624D01*
X3156Y1758D02*
Y1844D01*
X2854Y2263D02*
Y2428D01*
X2604Y2237D02*
Y2293D01*
X2604Y2236D02*
X2604Y2237D01*
X2661Y1971D02*
X2726Y1905D01*
X2933*
X3253Y966D02*
Y991D01*
Y940D02*
Y966D01*
X2869Y1685D02*
Y1724D01*
X2442Y512D02*
Y546D01*
X2450Y501D02*
Y504D01*
X2442Y512D02*
X2450Y504D01*
X2442Y546D02*
Y585D01*
X2415Y467D02*
X2450Y501D01*
Y431D02*
Y501D01*
X2813Y121D02*
X3050Y359D01*
X1919Y121D02*
X2813D01*
X3050Y359D02*
X3310D01*
X1720Y319D02*
Y405D01*
Y319D02*
X1919Y121D01*
X2852Y1023D02*
X3044D01*
X2637D02*
X2852D01*
X2854Y1025D02*
Y1345D01*
X2852Y1023D02*
X2854Y1025D01*
X2775Y1345D02*
X2854D01*
X3310Y359D02*
X3421Y470D01*
X3669Y687D02*
X3706Y724D01*
X3444Y687D02*
X3669D01*
X3335Y769D02*
X3417Y687D01*
X3335Y769D02*
Y992D01*
X3421Y687D02*
X3444D01*
X3421Y687D02*
X3421Y687D01*
X3417Y687D02*
X3421D01*
X3421Y520D02*
X3421Y520D01*
X3421Y520D02*
Y613D01*
X2522Y424D02*
Y577D01*
X2985Y1078D02*
Y1125D01*
X3736Y3740D02*
Y3791D01*
X3706Y724D02*
Y3710D01*
X3736Y3740*
Y3791D02*
X3748Y3803D01*
X2714Y438D02*
X2751D01*
X2755Y435*
X2755*
X3186Y1538D02*
X3218D01*
X3181Y1543D02*
X3186Y1538D01*
X3183Y1629D02*
X3188Y1624D01*
X3183Y1629D02*
Y1654D01*
X3123Y1094D02*
X3155Y1126D01*
X3171*
X3064Y968D02*
X3131D01*
X3098Y934D02*
X3115D01*
X3115Y933*
X3061Y968D02*
X3064D01*
X3098Y934*
X3044Y1023D02*
X3061Y1041D01*
X2965Y1145D02*
X2985Y1125D01*
X2965Y1145D02*
Y1200D01*
X3003Y1060D02*
X3042D01*
X2985Y1078D02*
X3003Y1060D01*
X3292Y1035D02*
X3335Y992D01*
X2515Y585D02*
Y901D01*
X2637Y1023*
X2998Y1529D02*
X3035Y1493D01*
X3061*
X2911Y2113D02*
X2913Y2116D01*
X2858Y2083D02*
X2888Y2113D01*
X2911*
X3157Y1670D02*
Y1697D01*
X3156Y1698D02*
X3157Y1697D01*
Y1670D02*
X3175Y1653D01*
X3181Y1543D02*
Y1617D01*
X3156Y1698D02*
Y1758D01*
X3182Y1733*
X3143Y1771D02*
X3156Y1758D01*
X3182Y1698D02*
Y1733D01*
X3131Y1758D02*
X3143Y1771D01*
X3071Y1758D02*
X3131D01*
X2775Y2428D02*
X2854D01*
Y2083D02*
X2858D01*
X2932Y1809D02*
X2933Y1810D01*
X2928Y1809D02*
X2932D01*
X2858Y1739D02*
X2928Y1809D01*
X2775Y2083D02*
X2854D01*
Y1984D02*
Y2083D01*
Y1984D02*
X2933Y1905D01*
X2775Y1739D02*
X2854D01*
X2775D02*
D01*
X2866Y1727D02*
Y1731D01*
X2854Y1739D02*
X2858D01*
X2866Y1731*
Y1727D02*
X2869Y1724D01*
X2387Y396D02*
X2432D01*
X2380Y336D02*
Y389D01*
Y336D02*
X2421Y295D01*
X2380Y389D02*
X2387Y396D01*
X2441Y295D02*
X2446Y290D01*
X2421Y295D02*
X2441D01*
X2432Y396D02*
X2434Y398D01*
X2443Y424D02*
X2450Y431D01*
X2434Y424D02*
X2443D01*
X3143Y940D02*
X3150Y933D01*
X3143Y940D02*
Y966D01*
X3150Y933D02*
X3246D01*
X3253Y940*
X3143Y966D02*
Y991D01*
X3133Y966D02*
X3143D01*
Y991D02*
Y1017D01*
X3131Y968D02*
X3133Y966D01*
X3283Y1017D02*
X3292Y1026D01*
X3253Y1042D02*
X3285D01*
X3253Y1017D02*
X3283D01*
X3292Y1026D02*
Y1035D01*
X3285Y1042D02*
X3292Y1035D01*
X3253Y1042D02*
Y1117D01*
X3244Y1126D02*
X3253Y1117D01*
X3109Y1543D02*
Y1546D01*
Y1540D02*
Y1543D01*
X2515Y585D02*
X2522Y577D01*
X3042Y1060D02*
X3061Y1041D01*
X3109Y1546D02*
X3131Y1568D01*
Y1624*
X3131Y1624D02*
X3131Y1624D01*
X3131Y1624D02*
Y1698D01*
X3061Y1493D02*
X3109Y1540D01*
X3061Y1041D02*
Y1493D01*
Y1041D02*
X3063Y1042D01*
X3143*
G54D33*
X3659Y3754D02*
Y3812D01*
Y3754D02*
X3665Y3748D01*
G54D34*
X2843Y1636D02*
Y1659D01*
X2810Y1602D02*
X2843Y1636D01*
X2706Y1602D02*
X2810D01*
X2636Y1913D02*
Y1945D01*
X2661Y1971*
X2843Y1659D02*
X2869Y1685D01*
X2570Y1755D02*
X2587Y1739D01*
X2775*
X2693Y1648D02*
X2700D01*
X2690Y1651D02*
X2693Y1648D01*
X2700D02*
X2706Y1642D01*
X2714Y1633*
Y1610D02*
Y1633D01*
X2690Y1599D02*
X2693Y1602D01*
X2706*
X2714Y1610*
X2678Y1593D02*
X2685Y1599D01*
X2678Y1537D02*
Y1593D01*
X2685Y1599D02*
X2690D01*
X2587Y1345D02*
X2775D01*
X2570Y1362D02*
X2587Y1345D01*
X2309Y236D02*
X2716D01*
X2220Y325D02*
Y405D01*
Y325D02*
X2309Y236D01*
X2120Y307D02*
Y405D01*
X2216Y211D02*
X2726D01*
X2120Y307D02*
X2216Y211D01*
X2935Y495D02*
X3571D01*
X2770Y190D02*
X3003Y423D01*
X2129Y190D02*
X2770D01*
X2020Y299D02*
X2129Y190D01*
X2020Y299D02*
Y405D01*
X3232Y423D02*
X3264Y455D01*
X3003Y423D02*
X3232D01*
X2726Y211D02*
X2985Y470D01*
X3240*
X2935Y455D02*
Y495D01*
X2716Y236D02*
X2935Y455D01*
X2714Y495D02*
X2935D01*
X3571D02*
X3763Y687D01*
Y3694*
X3800Y3732*
X3240Y637D02*
X3683D01*
X3257Y658D02*
X3676D01*
X3683Y637D02*
X3740Y694D01*
X3676Y658D02*
X3723Y705D01*
X2522Y373D02*
X2644D01*
X3265Y545D02*
Y613D01*
X3257Y667D02*
X3263Y672D01*
X3257Y658D02*
Y667D01*
X3239Y523D02*
X3240Y524D01*
Y637*
X3723Y3699D02*
X3765Y3742D01*
Y3773*
X3723Y3699D02*
Y705D01*
X3740Y3693D02*
X3789Y3742D01*
X3740Y3693D02*
Y694D01*
X3789Y3742D02*
Y3773D01*
X2919Y1122D02*
X2933Y1135D01*
X2886Y992D02*
X3240Y637D01*
X2919Y995D02*
X3257Y658D01*
X2920Y1054D02*
Y1121D01*
X2920Y1122D02*
X2920Y1121D01*
X2886Y1054D02*
Y1151D01*
X2900Y1165*
Y1200*
X1711Y2442D02*
Y2446D01*
X1697Y2460D02*
X1711Y2446D01*
Y2442D02*
X1712Y2440D01*
X1696Y2460D02*
X1697D01*
X2570Y2100D02*
X2587Y2083D01*
X2775*
X2587Y2428D02*
X2775D01*
X2570Y2444D02*
X2587Y2428D01*
X2636Y500D02*
X2710D01*
X2714Y495*
X2644Y373D02*
X2668Y349D01*
X2636Y381D02*
X2644Y373D01*
X2636Y381D02*
Y435D01*
X2668Y349D02*
X2675D01*
X2511Y294D02*
X2522Y306D01*
Y373*
X2511Y290D02*
Y294D01*
X3105Y1685D02*
Y1698D01*
X2933Y1512D02*
X3105Y1685D01*
X2933Y1135D02*
Y1512D01*
X3071Y1687D02*
Y1733D01*
X2900Y1200D02*
Y1516D01*
X3071Y1687*
G54D35*
X1135Y486D02*
X1232Y583D01*
X1444D02*
X1520Y507D01*
X1232Y583D02*
X1444D01*
X1520Y405D02*
Y507D01*
X1418Y407D02*
X1420Y405D01*
X1401Y511D02*
X1418Y494D01*
X1259Y511D02*
X1401D01*
X1418Y407D02*
Y494D01*
X1275Y405D02*
X1320D01*
X564Y486D02*
X1135D01*
X511Y320D02*
X1189D01*
X226Y718D02*
X539Y405D01*
X1153D02*
X1259Y511D01*
X539Y405D02*
X1153D01*
X1189Y320D02*
X1275Y405D01*
X374Y677D02*
Y1504D01*
Y677D02*
X564Y486D01*
X226Y718D02*
Y1771D01*
X157Y674D02*
X511Y320D01*
X157Y674D02*
Y1909D01*
G54D36*
X3812Y3812D03*
G54D37*
X3801Y3812D03*
X3777D03*
X3753D03*
X3730D03*
X3706D03*
X3683D03*
X3659D03*
G54D38*
X3789Y3812D03*
X3765D03*
X3742D03*
X3718D03*
X3694D03*
X3671D03*
G54D39*
X3647Y3812D03*
G54D40*
X3346Y3346D03*
X196D03*
X3346Y192D03*
X196Y196D03*
X669Y2874D03*
X2874D03*
X2875Y669D03*
X669Y669D03*
X2677Y2677D03*
X866D03*
X2677Y866D03*
X866D03*
G54D41*
X2571Y1788D03*
X2587Y1771D03*
X1823D03*
X2512Y1408D03*
X2027Y59D03*
X3208Y2421D03*
Y1240D03*
X2814Y59D03*
Y452D03*
X3405Y3011D03*
X649Y1437D03*
X59Y1240D03*
X3405D03*
X649Y452D03*
X1830Y2814D03*
X846Y452D03*
X59Y2618D03*
X1830Y649D03*
Y255D03*
X255Y1830D03*
X3011Y452D03*
X3405Y1437D03*
Y1043D03*
X1240Y255D03*
X3208Y846D03*
X649D03*
X846Y59D03*
X255Y1633D03*
X649Y59D03*
X255Y1240D03*
X1437Y255D03*
X59Y452D03*
Y2027D03*
X1043Y452D03*
X3011Y2618D03*
X3208Y1437D03*
X2224Y59D03*
X3011Y1437D03*
X3405Y2814D03*
X649Y2027D03*
X255D03*
X3405Y1830D03*
X452Y1043D03*
X255Y2814D03*
X3405Y2224D03*
X1240Y649D03*
X3405Y2027D03*
X2618Y255D03*
X1240Y2814D03*
X59Y1437D03*
X649Y1043D03*
X3405Y2421D03*
X649Y3405D03*
X59Y2421D03*
Y1043D03*
X3011Y1240D03*
X255Y2421D03*
X846Y649D03*
X649Y1830D03*
X1633Y59D03*
X2421Y2814D03*
X3011Y3011D03*
X255Y649D03*
X1437Y59D03*
X2618D03*
Y649D03*
X1437D03*
X2814Y2027D03*
X1043Y2814D03*
X452Y2618D03*
Y2814D03*
X59Y1633D03*
X3011Y3208D03*
X3208Y3011D03*
X1240Y59D03*
X649Y2421D03*
X59Y649D03*
X3208Y452D03*
X1043Y649D03*
X1633Y2814D03*
X2421Y59D03*
X3011Y2224D03*
X452D03*
X3011Y59D03*
X452Y1240D03*
Y846D03*
Y3208D03*
Y2421D03*
X2814Y1240D03*
X2027Y2814D03*
X255Y2618D03*
X649D03*
X452Y649D03*
X2814Y3405D03*
X3208Y2618D03*
X255Y452D03*
X59Y1830D03*
X255Y1043D03*
X1830Y59D03*
X2027Y255D03*
X59Y3208D03*
X3208Y2814D03*
X255Y1437D03*
X3405Y1633D03*
X59Y2814D03*
X3011Y2027D03*
X1633Y255D03*
X1043D03*
X255Y2224D03*
X846Y255D03*
X452Y3405D03*
X1633Y649D03*
X452Y59D03*
X3208D03*
X3011Y255D03*
X452D03*
X2421Y649D03*
X2814Y255D03*
X255Y3011D03*
X59D03*
X1043Y59D03*
X3011Y3405D03*
X649Y255D03*
X3602Y452D03*
X2027Y649D03*
X2814Y2224D03*
X3405Y2618D03*
X452Y3011D03*
X649Y1633D03*
X2814D03*
X59Y846D03*
X255D03*
X649Y3208D03*
X1240Y452D03*
X2224Y2814D03*
X2814Y3208D03*
X3208D03*
X1437Y2814D03*
X59Y2224D03*
X2587Y2460D03*
X2772Y2181D03*
X2767Y2385D03*
X2854Y1614D03*
X2571Y1755D03*
X3238Y2143D03*
Y2072D03*
X3242Y1893D03*
X2224Y255D03*
X2120D03*
X1920D03*
X2320Y262D03*
X3310Y454D03*
X2897Y2478D03*
X2994Y1807D03*
X2822Y1476D03*
X3020Y1687D03*
X3316Y567D03*
X3539Y577D03*
X3366Y471D03*
X3393Y474D03*
X3397Y526D03*
X3389Y612D03*
X3419Y773D03*
X3372Y517D03*
Y614D03*
X3390Y770D03*
X3421Y470D03*
X3421Y520D03*
X3421Y613D03*
Y687D03*
X3444Y687D03*
X3264Y455D03*
X3265Y545D03*
Y613D03*
X3263Y672D03*
X3240Y470D03*
X3239Y523D03*
X3665Y3748D03*
X1720Y1755D03*
X2308Y771D03*
X2587Y2116D03*
X2587Y1377D03*
X2442Y546D03*
X2415Y467D03*
X2755Y435D03*
X2571Y1390D03*
X3218Y1538D03*
X3183Y1654D03*
X3123Y1094D03*
X3115Y933D03*
X2919Y995D03*
X2920Y1054D03*
X2886Y992D03*
Y1054D03*
X1712Y2440D03*
X1720Y2100D03*
Y1366D03*
X3307Y2029D03*
X3130Y2007D03*
X3326D03*
X3160D03*
X1822Y2460D03*
X1806Y2478D03*
X2570Y2473D03*
X1807Y1396D03*
Y1789D03*
X1806Y2134D03*
X1822Y2116D03*
X3082Y2175D03*
X2570Y2129D03*
Y2100D03*
X1823Y1377D03*
X2571Y1362D03*
X2570Y2444D03*
X3267Y2047D03*
Y2106D03*
X2854Y1555D03*
X3071Y1844D03*
X3143Y1929D03*
X3129Y2125D03*
G54D42*
X2581Y1854D03*
X2608Y2380D03*
X2579Y2329D03*
X2913Y2204D03*
X2775Y1847D03*
X2714Y1804D03*
Y1771D03*
X2661Y1852D03*
X2639Y1691D03*
X2869Y1685D03*
X2755Y1460D03*
X2579Y1663D03*
X374Y1504D03*
X226Y1771D03*
X157Y1909D03*
X2998Y1529D03*
X2913Y2116D03*
X2933Y1810D03*
Y1905D03*
M02*