%FSLAX23Y23*%
%MOIN*%
%SFA1B1*%

%IPPOS*%
%ADD90C,0.013780*%
%ADD91C,0.023620*%
%LNmirror_pcb1_top_tenting-1*%
%LPD*%
G54D90*
X3129Y2125D03*
X3143Y1929D03*
X3071Y1844D03*
X2854Y1555D03*
X3267Y2106D03*
Y2047D03*
X2570Y2444D03*
X2571Y1362D03*
X1823Y1377D03*
X2570Y2100D03*
Y2129D03*
X3082Y2175D03*
X1822Y2116D03*
X1806Y2134D03*
X1807Y1789D03*
Y1396D03*
X2570Y2473D03*
X1806Y2478D03*
X1822Y2460D03*
X3160Y2007D03*
X3326D03*
X3130D03*
X3307Y2029D03*
X1720Y1366D03*
Y2100D03*
X1712Y2440D03*
X2886Y1054D03*
Y992D03*
X2920Y1054D03*
X2919Y995D03*
X3115Y933D03*
X3123Y1094D03*
X3183Y1654D03*
X3218Y1538D03*
X2571Y1390D03*
X2755Y435D03*
X2415Y467D03*
X2442Y546D03*
X2587Y1377D03*
X2587Y2116D03*
X2308Y771D03*
X1720Y1755D03*
X3665Y3748D03*
X3239Y523D03*
X3240Y470D03*
X3263Y672D03*
X3265Y613D03*
Y545D03*
X3264Y455D03*
X3444Y687D03*
X3421Y687D03*
Y613D03*
X3421Y520D03*
X3421Y470D03*
X3390Y770D03*
X3372Y614D03*
Y517D03*
X3419Y773D03*
X3389Y612D03*
X3397Y526D03*
X3393Y474D03*
X3366Y471D03*
X3539Y577D03*
X3316Y567D03*
X3020Y1687D03*
X2822Y1476D03*
X2994Y1807D03*
X2897Y2478D03*
X3310Y454D03*
X2320Y262D03*
X1920Y255D03*
X2120D03*
X2224D03*
X3242Y1893D03*
X3238Y2072D03*
Y2143D03*
X2571Y1755D03*
X2854Y1614D03*
X2587Y2460D03*
X59Y2224D03*
X1437Y2814D03*
X3208Y3208D03*
X2814D03*
X2224Y2814D03*
X1240Y452D03*
X649Y3208D03*
X255Y846D03*
X59D03*
X2814Y1633D03*
X649D03*
X452Y3011D03*
X3405Y2618D03*
X2814Y2224D03*
X2027Y649D03*
X3602Y452D03*
X649Y255D03*
X3011Y3405D03*
X1043Y59D03*
X59Y3011D03*
X255D03*
X2814Y255D03*
X2421Y649D03*
X452Y255D03*
X3011D03*
X3208Y59D03*
X452D03*
X1633Y649D03*
X452Y3405D03*
X846Y255D03*
X255Y2224D03*
X1043Y255D03*
X1633D03*
X3011Y2027D03*
X59Y2814D03*
X3405Y1633D03*
X255Y1437D03*
X3208Y2814D03*
X59Y3208D03*
X2027Y255D03*
X1830Y59D03*
X255Y1043D03*
X59Y1830D03*
X255Y452D03*
X3208Y2618D03*
X2814Y3405D03*
X452Y649D03*
X649Y2618D03*
X255D03*
X2027Y2814D03*
X2814Y1240D03*
X452Y2421D03*
Y3208D03*
Y846D03*
Y1240D03*
X3011Y59D03*
X452Y2224D03*
X3011D03*
X2421Y59D03*
X1633Y2814D03*
X1043Y649D03*
X3208Y452D03*
X59Y649D03*
X649Y2421D03*
X1240Y59D03*
X3208Y3011D03*
X3011Y3208D03*
X59Y1633D03*
X452Y2814D03*
Y2618D03*
X1043Y2814D03*
X2814Y2027D03*
X1437Y649D03*
X2618D03*
Y59D03*
X1437D03*
X255Y649D03*
X3011Y3011D03*
X2421Y2814D03*
X1633Y59D03*
X649Y1830D03*
X846Y649D03*
X255Y2421D03*
X3011Y1240D03*
X59Y1043D03*
Y2421D03*
X649Y3405D03*
X3405Y2421D03*
X649Y1043D03*
X59Y1437D03*
X1240Y2814D03*
X2618Y255D03*
X3405Y2027D03*
X1240Y649D03*
X3405Y2224D03*
X255Y2814D03*
X452Y1043D03*
X3405Y1830D03*
X255Y2027D03*
X649D03*
X3405Y2814D03*
X3011Y1437D03*
X2224Y59D03*
X3208Y1437D03*
X3011Y2618D03*
X1043Y452D03*
X59Y2027D03*
Y452D03*
X1437Y255D03*
X255Y1240D03*
X649Y59D03*
X255Y1633D03*
X846Y59D03*
X649Y846D03*
X3208D03*
X1240Y255D03*
X3405Y1043D03*
Y1437D03*
X3011Y452D03*
X255Y1830D03*
X1830Y255D03*
Y649D03*
X59Y2618D03*
X846Y452D03*
X1830Y2814D03*
X649Y452D03*
X3405Y1240D03*
X59D03*
X649Y1437D03*
X3405Y3011D03*
X2814Y452D03*
Y59D03*
X3208Y1240D03*
Y2421D03*
X2027Y59D03*
X1823Y1771D03*
X2587D03*
X2571Y1788D03*
G54D91*
X2933Y1905D03*
Y1810D03*
X2913Y2116D03*
X2998Y1529D03*
X157Y1909D03*
X226Y1771D03*
X374Y1504D03*
X2869Y1685D03*
X2913Y2204D03*
M02*