%FSLAX23Y23*%
%MOIN*%
%SFA1B1*%

%IPPOS*%
%ADD48C,0.010000*%
%LNmirror_pcb1_fab_notes-1*%
%LPD*%
G54D48*
X3822Y3849D02*
D01*
X3822Y3849*
X3822Y3850*
X3822Y3851*
X3822Y3852*
X3822Y3852*
X3821Y3853*
X3821Y3853*
X3821Y3854*
X3820Y3855*
X3820Y3855*
X3820Y3856*
X3819Y3856*
X3818Y3857*
X3818Y3857*
X3817Y3857*
X3817Y3858*
X3816Y3858*
X3815Y3858*
X3815Y3858*
X3814Y3859*
X3813Y3859*
X3813Y3859*
X3812Y3859*
Y3564D02*
D01*
X3813Y3564*
X3814Y3565*
X3814Y3565*
X3815Y3565*
X3816Y3565*
X3816Y3565*
X3817Y3566*
X3818Y3566*
X3818Y3566*
X3819Y3567*
X3819Y3567*
X3820Y3568*
X3820Y3568*
X3821Y3569*
X3821Y3569*
X3821Y3570*
X3822Y3571*
X3822Y3571*
X3822Y3572*
X3822Y3573*
X3822Y3573*
X3822Y3574*
X3822Y3574*
X3646Y3859D02*
D01*
X3646Y3859*
X3645Y3859*
X3644Y3859*
X3644Y3858*
X3643Y3858*
X3642Y3858*
X3642Y3858*
X3641Y3857*
X3640Y3857*
X3640Y3856*
X3639Y3856*
X3639Y3855*
X3638Y3855*
X3638Y3854*
X3638Y3854*
X3637Y3853*
X3637Y3852*
X3637Y3852*
X3637Y3851*
X3636Y3850*
X3636Y3850*
X3636Y3849*
X3636Y3849*
Y3574D02*
D01*
X3636Y3574*
X3636Y3573*
X3637Y3572*
X3637Y3572*
X3637Y3571*
X3637Y3570*
X3637Y3570*
X3638Y3569*
X3638Y3569*
X3639Y3568*
X3639Y3568*
X3640Y3567*
X3640Y3567*
X3641Y3566*
X3641Y3566*
X3642Y3565*
X3643Y3565*
X3643Y3565*
X3644Y3565*
X3645Y3565*
X3645Y3565*
X3646Y3564*
X3646Y3564*
X3812*
X3646Y3859D02*
X3812D01*
X3822Y3574D02*
Y3849D01*
X3636Y3574D02*
Y3849D01*
X2458Y3866D02*
X2438D01*
X2428Y3856*
Y3816*
X2438Y3806*
X2458*
X2468Y3816*
Y3856*
X2458Y3866*
X2488Y3806D02*
Y3846D01*
X2518*
X2528Y3836*
Y3806*
X2608Y3866D02*
Y3806D01*
X2638*
X2648Y3816*
Y3826*
X2638Y3836*
X2608*
X2638*
X2648Y3846*
Y3856*
X2638Y3866*
X2608*
X2678Y3806D02*
X2698D01*
X2708Y3816*
Y3836*
X2698Y3846*
X2678*
X2668Y3836*
Y3816*
X2678Y3806*
X2738Y3856D02*
Y3846D01*
X2728*
X2748*
X2738*
Y3816*
X2748Y3806*
X2788Y3856D02*
Y3846D01*
X2778*
X2798*
X2788*
Y3816*
X2798Y3806*
X2838D02*
X2858D01*
X2868Y3816*
Y3836*
X2858Y3846*
X2838*
X2828Y3836*
Y3816*
X2838Y3806*
X2888D02*
Y3846D01*
X2898*
X2908Y3836*
Y3806*
Y3836*
X2918Y3846*
X2928Y3836*
Y3806*
X2948Y3846D02*
X2958D01*
Y3836*
X2948*
Y3846*
Y3816D02*
X2958D01*
Y3806*
X2948*
Y3816*
X3088Y3806D02*
Y3866D01*
X3058Y3836*
X3098*
X3118Y3806D02*
Y3816D01*
X3128*
Y3806*
X3118*
X3208Y3866D02*
X3168D01*
Y3836*
X3188Y3846*
X3198*
X3208Y3836*
Y3816*
X3198Y3806*
X3178*
X3168Y3816*
X3228Y3846D02*
X3268Y3806D01*
X3248Y3826*
X3268Y3846*
X3228Y3806*
X3288Y3866D02*
X3328D01*
Y3856*
X3288Y3816*
Y3806*
X3348D02*
Y3816D01*
X3358*
Y3806*
X3348*
X3437Y3866D02*
X3397D01*
Y3836*
X3417Y3846*
X3427*
X3437Y3836*
Y3816*
X3427Y3806*
X3407*
X3397Y3816*
X3517Y3806D02*
Y3866D01*
X3547*
X3557Y3856*
Y3836*
X3547Y3826*
X3517*
X3577Y3806D02*
X3597D01*
X3587*
Y3846*
X3577*
X2468Y3760D02*
X2458Y3770D01*
X2438*
X2428Y3760*
Y3750*
X2438Y3740*
X2458*
X2468Y3730*
Y3720*
X2458Y3710*
X2438*
X2428Y3720*
X2498Y3760D02*
Y3750D01*
X2488*
X2508*
X2498*
Y3720*
X2508Y3710*
X2538D02*
X2558D01*
X2548*
Y3750*
X2538*
X2598Y3710D02*
Y3760D01*
Y3740*
X2588*
X2608*
X2598*
Y3760*
X2608Y3770*
X2648Y3710D02*
Y3760D01*
Y3740*
X2638*
X2658*
X2648*
Y3760*
X2658Y3770*
X2718Y3710D02*
X2698D01*
X2688Y3720*
Y3740*
X2698Y3750*
X2718*
X2728Y3740*
Y3730*
X2688*
X2748Y3710D02*
Y3750D01*
X2778*
X2788Y3740*
Y3710*
X2838D02*
X2818D01*
X2808Y3720*
Y3740*
X2818Y3750*
X2838*
X2848Y3740*
Y3730*
X2808*
X2868Y3750D02*
Y3710D01*
Y3730*
X2878Y3740*
X2888Y3750*
X2898*
X3008Y3710D02*
X2988Y3730D01*
Y3750*
X3008Y3770*
X3038D02*
X3078D01*
X3058*
Y3710*
X3098Y3730D02*
X3138D01*
X3098Y3750D02*
X3138D01*
X3158Y3760D02*
X3168Y3770D01*
X3188*
X3198Y3760*
Y3720*
X3188Y3710*
X3168*
X3158Y3720*
Y3760*
X3218Y3710D02*
Y3720D01*
X3228*
Y3710*
X3218*
X3268D02*
X3288D01*
X3278*
Y3770*
X3268Y3760*
X3318Y3710D02*
X3338Y3730D01*
Y3750*
X3318Y3770*
X2428Y3674D02*
X2468D01*
X2448*
Y3614*
X2488Y3634D02*
X2528D01*
X2488Y3654D02*
X2528D01*
X2548Y3664D02*
X2558Y3674D01*
X2578*
X2588Y3664*
Y3624*
X2578Y3614*
X2558*
X2548Y3624*
Y3664*
X2608Y3614D02*
Y3624D01*
X2618*
Y3614*
X2608*
X2698D02*
X2658D01*
X2698Y3654*
Y3664*
X2688Y3674*
X2668*
X2658Y3664*
X2798Y3614D02*
X2778Y3634D01*
Y3654*
X2798Y3674*
X2838Y3664D02*
Y3654D01*
X2828*
X2848*
X2838*
Y3624*
X2848Y3614*
X2888D02*
X2908D01*
X2918Y3624*
Y3644*
X2908Y3654*
X2888*
X2878Y3644*
Y3624*
X2888Y3614*
X2948Y3664D02*
Y3654D01*
X2938*
X2958*
X2948*
Y3624*
X2958Y3614*
X2998Y3654D02*
X3018D01*
X3028Y3644*
Y3614*
X2998*
X2988Y3624*
X2998Y3634*
X3028*
X3048Y3614D02*
X3068D01*
X3058*
Y3674*
X3048*
X3098Y3614D02*
X3118Y3634D01*
Y3654*
X3098Y3674*
M02*