G04*
G04 #@! TF.GenerationSoftware,Altium Limited,Altium Designer,23.8.1 (32)*
G04*
G04 Layer_Color=8388736*
%FSLAX25Y25*%
%MOIN*%
G70*
G04*
G04 #@! TF.SameCoordinates,E08CAFE3-3647-4911-8EA2-20DD2F02231A*
G04*
G04*
G04 #@! TF.FilePolarity,Positive*
G04*
G01*
G75*
%ADD65C,0.01968*%
D65*
X15258Y-84003D02*
D03*
X90059Y-101575D02*
D03*
X-72835Y-98721D02*
D03*
X-24902Y-102953D02*
D03*
X-20079Y-102854D02*
D03*
X-5413Y-82972D02*
D03*
X1378Y-80216D02*
D03*
X-10925Y-85433D02*
D03*
X-14764Y-87894D02*
D03*
X-19587Y-87795D02*
D03*
X-25295D02*
D03*
X-10433Y-91535D02*
D03*
X-2165Y-90945D02*
D03*
X-19783Y-91339D02*
D03*
X-25197D02*
D03*
X9941Y-68898D02*
D03*
X17146Y-79998D02*
D03*
X12992Y-60728D02*
D03*
X7384Y-52113D02*
D03*
X32677Y-82185D02*
D03*
X20354Y-81640D02*
D03*
X591Y-60039D02*
D03*
X3036Y-50248D02*
D03*
X17323Y-68110D02*
D03*
X-8758Y-78884D02*
D03*
X16832Y-114318D02*
D03*
X-1672Y-113924D02*
D03*
X-2459Y-51719D02*
D03*
X15258Y-76916D02*
D03*
X-1654Y-49153D02*
D03*
X394Y61024D02*
D03*
X1558Y49008D02*
D03*
X-15354Y76772D02*
D03*
X2362Y51575D02*
D03*
X1575Y113779D02*
D03*
X-16929Y114173D02*
D03*
X8661Y78740D02*
D03*
X-9449Y61024D02*
D03*
X-7480Y51968D02*
D03*
X-10236Y68110D02*
D03*
X-17323Y79921D02*
D03*
X-18898Y85433D02*
D03*
X-15354Y83858D02*
D03*
X-3133Y50103D02*
D03*
X-58268Y72441D02*
D03*
X-55118D02*
D03*
X-56693Y70079D02*
D03*
X-51968Y72441D02*
D03*
X-53543Y70079D02*
D03*
X-50394D02*
D03*
X-48819Y72441D02*
D03*
X-45669D02*
D03*
X-47244Y70079D02*
D03*
X-42520Y72441D02*
D03*
X-44094Y70079D02*
D03*
X-40945D02*
D03*
X-39370Y72441D02*
D03*
X-36220D02*
D03*
X-37795Y70079D02*
D03*
X-33071Y72441D02*
D03*
X-34646Y70079D02*
D03*
X-31496D02*
D03*
X-29921Y72441D02*
D03*
X-28346Y70079D02*
D03*
X29921Y72441D02*
D03*
X28346Y70079D02*
D03*
X33071Y72441D02*
D03*
X31496Y70079D02*
D03*
X34646D02*
D03*
X36220Y72441D02*
D03*
X39370D02*
D03*
X37795Y70079D02*
D03*
X42520Y72441D02*
D03*
X40945Y70079D02*
D03*
X44094D02*
D03*
X45669Y72441D02*
D03*
X48819D02*
D03*
X47244Y70079D02*
D03*
X51968Y72441D02*
D03*
X50394Y70079D02*
D03*
X53543D02*
D03*
X55118Y72441D02*
D03*
X58268D02*
D03*
X56693Y70079D02*
D03*
X-58268Y67716D02*
D03*
X-55118D02*
D03*
X-56693Y65354D02*
D03*
X-51968Y67716D02*
D03*
X-53543Y65354D02*
D03*
X-50394D02*
D03*
X-48819Y67716D02*
D03*
X-45669D02*
D03*
X-47244Y65354D02*
D03*
X-42520Y67716D02*
D03*
X-44094Y65354D02*
D03*
X-40945D02*
D03*
X-39370Y67716D02*
D03*
X-36220D02*
D03*
X-37795Y65354D02*
D03*
X-33071Y67716D02*
D03*
X-34646Y65354D02*
D03*
X-31496D02*
D03*
X-29921Y67716D02*
D03*
X-28346Y65354D02*
D03*
X29921Y67716D02*
D03*
X28346Y65354D02*
D03*
X33071Y67716D02*
D03*
X31496Y65354D02*
D03*
X34646D02*
D03*
X36220Y67716D02*
D03*
X39370D02*
D03*
X37795Y65354D02*
D03*
X42520Y67716D02*
D03*
X40945Y65354D02*
D03*
X44094D02*
D03*
X45669Y67716D02*
D03*
X48819D02*
D03*
X47244Y65354D02*
D03*
X51968Y67716D02*
D03*
X50394Y65354D02*
D03*
X53543D02*
D03*
X55118Y67716D02*
D03*
X58268D02*
D03*
X56693Y65354D02*
D03*
X-58268Y62992D02*
D03*
X-55118D02*
D03*
X-56693Y60630D02*
D03*
X-51968Y62992D02*
D03*
X-53543Y60630D02*
D03*
X-50394D02*
D03*
X-48819Y62992D02*
D03*
X-45669D02*
D03*
X-47244Y60630D02*
D03*
X-42520Y62992D02*
D03*
X-44094Y60630D02*
D03*
X-40945D02*
D03*
X-39370Y62992D02*
D03*
X-36220D02*
D03*
X-37795Y60630D02*
D03*
X-33071Y62992D02*
D03*
X-34646Y60630D02*
D03*
X-31496D02*
D03*
X-29921Y62992D02*
D03*
X-28346Y60630D02*
D03*
X29921Y62992D02*
D03*
X28346Y60630D02*
D03*
X33071Y62992D02*
D03*
X31496Y60630D02*
D03*
X34646D02*
D03*
X36220Y62992D02*
D03*
X39370D02*
D03*
X37795Y60630D02*
D03*
X42520Y62992D02*
D03*
X40945Y60630D02*
D03*
X44094D02*
D03*
X45669Y62992D02*
D03*
X48819D02*
D03*
X47244Y60630D02*
D03*
X51968Y62992D02*
D03*
X50394Y60630D02*
D03*
X53543D02*
D03*
X55118Y62992D02*
D03*
X58268D02*
D03*
X56693Y60630D02*
D03*
X58268Y-72441D02*
D03*
X55118D02*
D03*
X56693Y-70079D02*
D03*
X51968Y-72441D02*
D03*
X53543Y-70079D02*
D03*
X50394D02*
D03*
X48819Y-72441D02*
D03*
X45669D02*
D03*
X47244Y-70079D02*
D03*
X42520Y-72441D02*
D03*
X44094Y-70079D02*
D03*
X40945D02*
D03*
X39370Y-72441D02*
D03*
X36220D02*
D03*
X37795Y-70079D02*
D03*
X33071Y-72441D02*
D03*
X34646Y-70079D02*
D03*
X31496D02*
D03*
X29921Y-72441D02*
D03*
X28346Y-70079D02*
D03*
X-29921Y-72441D02*
D03*
X-28346Y-70079D02*
D03*
X-33071Y-72441D02*
D03*
X-31496Y-70079D02*
D03*
X-34646D02*
D03*
X-36220Y-72441D02*
D03*
X-39370D02*
D03*
X-37795Y-70079D02*
D03*
X-42520Y-72441D02*
D03*
X-40945Y-70079D02*
D03*
X-44094D02*
D03*
X-45669Y-72441D02*
D03*
X-48819D02*
D03*
X-47244Y-70079D02*
D03*
X-51968Y-72441D02*
D03*
X-50394Y-70079D02*
D03*
X-53543D02*
D03*
X-55118Y-72441D02*
D03*
X-58268D02*
D03*
X-56693Y-70079D02*
D03*
X58268Y-67716D02*
D03*
X55118D02*
D03*
X56693Y-65354D02*
D03*
X51968Y-67716D02*
D03*
X53543Y-65354D02*
D03*
X50394D02*
D03*
X48819Y-67716D02*
D03*
X45669D02*
D03*
X47244Y-65354D02*
D03*
X42520Y-67716D02*
D03*
X44094Y-65354D02*
D03*
X40945D02*
D03*
X39370Y-67716D02*
D03*
X36220D02*
D03*
X37795Y-65354D02*
D03*
X33071Y-67716D02*
D03*
X34646Y-65354D02*
D03*
X31496D02*
D03*
X29921Y-67716D02*
D03*
X28346Y-65354D02*
D03*
X-29921Y-67716D02*
D03*
X-28346Y-65354D02*
D03*
X-33071Y-67716D02*
D03*
X-31496Y-65354D02*
D03*
X-34646D02*
D03*
X-36220Y-67716D02*
D03*
X-39370D02*
D03*
X-37795Y-65354D02*
D03*
X-42520Y-67716D02*
D03*
X-40945Y-65354D02*
D03*
X-44094D02*
D03*
X-45669Y-67716D02*
D03*
X-48819D02*
D03*
X-47244Y-65354D02*
D03*
X-51968Y-67716D02*
D03*
X-50394Y-65354D02*
D03*
X-53543D02*
D03*
X-55118Y-67716D02*
D03*
X-58268D02*
D03*
X-56693Y-65354D02*
D03*
X58268Y-62992D02*
D03*
X55118D02*
D03*
X56693Y-60630D02*
D03*
X51968Y-62992D02*
D03*
X53543Y-60630D02*
D03*
X50394D02*
D03*
X48819Y-62992D02*
D03*
X45669D02*
D03*
X47244Y-60630D02*
D03*
X42520Y-62992D02*
D03*
X44094Y-60630D02*
D03*
X40945D02*
D03*
X39370Y-62992D02*
D03*
X36220D02*
D03*
X37795Y-60630D02*
D03*
X33071Y-62992D02*
D03*
X34646Y-60630D02*
D03*
X31496D02*
D03*
X29921Y-62992D02*
D03*
X28346Y-60630D02*
D03*
X-29921Y-62992D02*
D03*
X-28346Y-60630D02*
D03*
X-33071Y-62992D02*
D03*
X-31496Y-60630D02*
D03*
X-34646D02*
D03*
X-36220Y-62992D02*
D03*
X-39370D02*
D03*
X-37795Y-60630D02*
D03*
X-42520Y-62992D02*
D03*
X-40945Y-60630D02*
D03*
X-44094D02*
D03*
X-45669Y-62992D02*
D03*
X-48819D02*
D03*
X-47244Y-60630D02*
D03*
X-51968Y-62992D02*
D03*
X-50394Y-60630D02*
D03*
X-53543D02*
D03*
X-55118Y-62992D02*
D03*
X-58268D02*
D03*
X-56693Y-60630D02*
D03*
X60678Y-70844D02*
D03*
X63040Y-72419D02*
D03*
Y-69270D02*
D03*
X60678Y-67695D02*
D03*
Y-64545D02*
D03*
X63040Y-66120D02*
D03*
X60678Y-61396D02*
D03*
X63040Y-62970D02*
D03*
Y-59821D02*
D03*
X60678Y-58246D02*
D03*
Y-55096D02*
D03*
X63040Y-56671D02*
D03*
X60678Y-51947D02*
D03*
X63040Y-53522D02*
D03*
Y-50372D02*
D03*
X60678Y-48797D02*
D03*
Y-45647D02*
D03*
X63040Y-47222D02*
D03*
X60678Y-42498D02*
D03*
X63040Y-44073D02*
D03*
Y-40923D02*
D03*
X60678Y-39348D02*
D03*
Y-36199D02*
D03*
X63040Y-37773D02*
D03*
X60678Y-33049D02*
D03*
X63040Y-34624D02*
D03*
Y-31474D02*
D03*
X60678Y-29899D02*
D03*
Y-26750D02*
D03*
X63040Y-28325D02*
D03*
X60678Y-23600D02*
D03*
X63040Y-25175D02*
D03*
Y-22026D02*
D03*
X60678Y-20451D02*
D03*
Y-17301D02*
D03*
X63040Y-18876D02*
D03*
X60678Y-14151D02*
D03*
X63040Y-15726D02*
D03*
Y-12577D02*
D03*
X60678Y-11002D02*
D03*
Y-7852D02*
D03*
X63040Y-9427D02*
D03*
X60678Y-4703D02*
D03*
X63040Y-6277D02*
D03*
Y-3128D02*
D03*
X60678Y-1553D02*
D03*
Y1597D02*
D03*
X63040Y22D02*
D03*
X60678Y4746D02*
D03*
X63040Y3171D02*
D03*
Y6321D02*
D03*
X60678Y7896D02*
D03*
Y11045D02*
D03*
X63040Y9471D02*
D03*
X60678Y14195D02*
D03*
X63040Y12620D02*
D03*
Y15770D02*
D03*
X60678Y17345D02*
D03*
Y20494D02*
D03*
X63040Y18919D02*
D03*
X60678Y23644D02*
D03*
X63040Y22069D02*
D03*
Y25219D02*
D03*
X60678Y26793D02*
D03*
Y29943D02*
D03*
X63040Y28368D02*
D03*
X60678Y33093D02*
D03*
X63040Y31518D02*
D03*
Y34668D02*
D03*
X60678Y36242D02*
D03*
Y39392D02*
D03*
X63040Y37817D02*
D03*
X60678Y42542D02*
D03*
X63040Y40967D02*
D03*
Y44116D02*
D03*
X60678Y45691D02*
D03*
Y48841D02*
D03*
X63040Y47266D02*
D03*
X60678Y51990D02*
D03*
X63040Y50415D02*
D03*
Y53565D02*
D03*
X60678Y55140D02*
D03*
Y58289D02*
D03*
X63040Y56715D02*
D03*
X60678Y61439D02*
D03*
X63040Y59864D02*
D03*
Y63014D02*
D03*
X60678Y64589D02*
D03*
Y67738D02*
D03*
X63040Y66163D02*
D03*
X60678Y70888D02*
D03*
X63040Y69313D02*
D03*
Y72463D02*
D03*
X65402Y-70844D02*
D03*
X67765Y-72419D02*
D03*
Y-69270D02*
D03*
X65402Y-67695D02*
D03*
Y-64545D02*
D03*
X67765Y-66120D02*
D03*
X65402Y-61396D02*
D03*
X67765Y-62970D02*
D03*
Y-59821D02*
D03*
X65402Y-58246D02*
D03*
Y-55096D02*
D03*
X67765Y-56671D02*
D03*
X65402Y-51947D02*
D03*
X67765Y-53522D02*
D03*
Y-50372D02*
D03*
X65402Y-48797D02*
D03*
Y-45647D02*
D03*
X67765Y-47222D02*
D03*
X65402Y-42498D02*
D03*
X67765Y-44073D02*
D03*
Y-40923D02*
D03*
X65402Y-39348D02*
D03*
Y-36199D02*
D03*
X67765Y-37773D02*
D03*
X65402Y-33049D02*
D03*
X67765Y-34624D02*
D03*
Y-31474D02*
D03*
X65402Y-29899D02*
D03*
Y-26750D02*
D03*
X67765Y-28325D02*
D03*
X65402Y-23600D02*
D03*
X67765Y-25175D02*
D03*
Y-22026D02*
D03*
X65402Y-20451D02*
D03*
Y-17301D02*
D03*
X67765Y-18876D02*
D03*
X65402Y-14151D02*
D03*
X67765Y-15726D02*
D03*
Y-12577D02*
D03*
X65402Y-11002D02*
D03*
Y-7852D02*
D03*
X67765Y-9427D02*
D03*
X65402Y-4703D02*
D03*
X67765Y-6277D02*
D03*
Y-3128D02*
D03*
X65402Y-1553D02*
D03*
Y1597D02*
D03*
X67765Y22D02*
D03*
X65402Y4746D02*
D03*
X67765Y3171D02*
D03*
Y6321D02*
D03*
X65402Y7896D02*
D03*
Y11045D02*
D03*
X67765Y9471D02*
D03*
X65402Y14195D02*
D03*
X67765Y12620D02*
D03*
Y15770D02*
D03*
X65402Y17345D02*
D03*
Y20494D02*
D03*
X67765Y18919D02*
D03*
X65402Y23644D02*
D03*
X67765Y22069D02*
D03*
Y25219D02*
D03*
X65402Y26793D02*
D03*
Y29943D02*
D03*
X67765Y28368D02*
D03*
X65402Y33093D02*
D03*
X67765Y31518D02*
D03*
Y34668D02*
D03*
X65402Y36242D02*
D03*
Y39392D02*
D03*
X67765Y37817D02*
D03*
X65402Y42542D02*
D03*
X67765Y40967D02*
D03*
Y44116D02*
D03*
X65402Y45691D02*
D03*
Y48841D02*
D03*
X67765Y47266D02*
D03*
X65402Y51990D02*
D03*
X67765Y50415D02*
D03*
Y53565D02*
D03*
X65402Y55140D02*
D03*
Y58289D02*
D03*
X67765Y56715D02*
D03*
X65402Y61439D02*
D03*
X67765Y59864D02*
D03*
Y63014D02*
D03*
X65402Y64589D02*
D03*
Y67738D02*
D03*
X67765Y66163D02*
D03*
X65402Y70888D02*
D03*
X67765Y69313D02*
D03*
Y72463D02*
D03*
X70127Y-70844D02*
D03*
X72489Y-72419D02*
D03*
Y-69270D02*
D03*
X70127Y-67695D02*
D03*
Y-64545D02*
D03*
X72489Y-66120D02*
D03*
X70127Y-61396D02*
D03*
X72489Y-62970D02*
D03*
Y-59821D02*
D03*
X70127Y-58246D02*
D03*
Y-55096D02*
D03*
X72489Y-56671D02*
D03*
X70127Y-51947D02*
D03*
X72489Y-53522D02*
D03*
Y-50372D02*
D03*
X70127Y-48797D02*
D03*
Y-45647D02*
D03*
X72489Y-47222D02*
D03*
X70127Y-42498D02*
D03*
X72489Y-44073D02*
D03*
Y-40923D02*
D03*
X70127Y-39348D02*
D03*
Y-36199D02*
D03*
X72489Y-37773D02*
D03*
X70127Y-33049D02*
D03*
X72489Y-34624D02*
D03*
Y-31474D02*
D03*
X70127Y-29899D02*
D03*
Y-26750D02*
D03*
X72489Y-28325D02*
D03*
X70127Y-23600D02*
D03*
X72489Y-25175D02*
D03*
Y-22026D02*
D03*
X70127Y-20451D02*
D03*
Y-17301D02*
D03*
X72489Y-18876D02*
D03*
X70127Y-14151D02*
D03*
X72489Y-15726D02*
D03*
Y-12577D02*
D03*
X70127Y-11002D02*
D03*
Y-7852D02*
D03*
X72489Y-9427D02*
D03*
X70127Y-4703D02*
D03*
X72489Y-6277D02*
D03*
Y-3128D02*
D03*
X70127Y-1553D02*
D03*
Y1597D02*
D03*
X72489Y22D02*
D03*
X70127Y4746D02*
D03*
X72489Y3171D02*
D03*
Y6321D02*
D03*
X70127Y7896D02*
D03*
Y11045D02*
D03*
X72489Y9471D02*
D03*
X70127Y14195D02*
D03*
X72489Y12620D02*
D03*
Y15770D02*
D03*
X70127Y17345D02*
D03*
Y20494D02*
D03*
X72489Y18919D02*
D03*
X70127Y23644D02*
D03*
X72489Y22069D02*
D03*
Y25219D02*
D03*
X70127Y26793D02*
D03*
Y29943D02*
D03*
X72489Y28368D02*
D03*
X70127Y33093D02*
D03*
X72489Y31518D02*
D03*
Y34668D02*
D03*
X70127Y36242D02*
D03*
Y39392D02*
D03*
X72489Y37817D02*
D03*
X70127Y42542D02*
D03*
X72489Y40967D02*
D03*
Y44116D02*
D03*
X70127Y45691D02*
D03*
Y48841D02*
D03*
X72489Y47266D02*
D03*
X70127Y51990D02*
D03*
X72489Y50415D02*
D03*
Y53565D02*
D03*
X70127Y55140D02*
D03*
Y58289D02*
D03*
X72489Y56715D02*
D03*
X70127Y61439D02*
D03*
X72489Y59864D02*
D03*
Y63014D02*
D03*
X70127Y64589D02*
D03*
Y67738D02*
D03*
X72489Y66163D02*
D03*
X70127Y70888D02*
D03*
X72489Y69313D02*
D03*
Y72463D02*
D03*
X-60630Y70866D02*
D03*
X-62992Y72441D02*
D03*
Y69291D02*
D03*
X-60630Y67716D02*
D03*
Y64567D02*
D03*
X-62992Y66142D02*
D03*
X-60630Y61417D02*
D03*
X-62992Y62992D02*
D03*
Y59842D02*
D03*
X-60630Y58268D02*
D03*
Y55118D02*
D03*
X-62992Y56693D02*
D03*
X-60630Y51968D02*
D03*
X-62992Y53543D02*
D03*
Y50394D02*
D03*
X-60630Y48819D02*
D03*
Y45669D02*
D03*
X-62992Y47244D02*
D03*
X-60630Y42520D02*
D03*
X-62992Y44094D02*
D03*
Y40945D02*
D03*
X-60630Y39370D02*
D03*
Y36220D02*
D03*
X-62992Y37795D02*
D03*
X-60630Y33071D02*
D03*
X-62992Y34646D02*
D03*
Y31496D02*
D03*
X-60630Y29921D02*
D03*
Y26772D02*
D03*
X-62992Y28346D02*
D03*
X-60630Y23622D02*
D03*
X-62992Y25197D02*
D03*
Y22047D02*
D03*
X-60630Y20472D02*
D03*
Y17323D02*
D03*
X-62992Y18898D02*
D03*
X-60630Y14173D02*
D03*
X-62992Y15748D02*
D03*
Y12598D02*
D03*
X-60630Y11024D02*
D03*
Y7874D02*
D03*
X-62992Y9449D02*
D03*
X-60630Y4724D02*
D03*
X-62992Y6299D02*
D03*
Y3150D02*
D03*
X-60630Y1575D02*
D03*
Y-1575D02*
D03*
X-62992Y-0D02*
D03*
X-60630Y-4724D02*
D03*
X-62992Y-3150D02*
D03*
Y-6299D02*
D03*
X-60630Y-7874D02*
D03*
Y-11024D02*
D03*
X-62992Y-9449D02*
D03*
X-60630Y-14173D02*
D03*
X-62992Y-12598D02*
D03*
Y-15748D02*
D03*
X-60630Y-17323D02*
D03*
Y-20472D02*
D03*
X-62992Y-18898D02*
D03*
X-60630Y-23622D02*
D03*
X-62992Y-22047D02*
D03*
Y-25197D02*
D03*
X-60630Y-26772D02*
D03*
Y-29921D02*
D03*
X-62992Y-28346D02*
D03*
X-60630Y-33071D02*
D03*
X-62992Y-31496D02*
D03*
Y-34646D02*
D03*
X-60630Y-36220D02*
D03*
Y-39370D02*
D03*
X-62992Y-37795D02*
D03*
X-60630Y-42520D02*
D03*
X-62992Y-40945D02*
D03*
Y-44094D02*
D03*
X-60630Y-45669D02*
D03*
Y-48819D02*
D03*
X-62992Y-47244D02*
D03*
X-60630Y-51968D02*
D03*
X-62992Y-50394D02*
D03*
Y-53543D02*
D03*
X-60630Y-55118D02*
D03*
Y-58268D02*
D03*
X-62992Y-56693D02*
D03*
X-60630Y-61417D02*
D03*
X-62992Y-59842D02*
D03*
Y-62992D02*
D03*
X-60630Y-64567D02*
D03*
Y-67716D02*
D03*
X-62992Y-66142D02*
D03*
X-60630Y-70866D02*
D03*
X-62992Y-69291D02*
D03*
Y-72441D02*
D03*
X-65354Y70866D02*
D03*
X-67716Y72441D02*
D03*
Y69291D02*
D03*
X-65354Y67716D02*
D03*
Y64567D02*
D03*
X-67716Y66142D02*
D03*
X-65354Y61417D02*
D03*
X-67716Y62992D02*
D03*
Y59842D02*
D03*
X-65354Y58268D02*
D03*
Y55118D02*
D03*
X-67716Y56693D02*
D03*
X-65354Y51968D02*
D03*
X-67716Y53543D02*
D03*
Y50394D02*
D03*
X-65354Y48819D02*
D03*
Y45669D02*
D03*
X-67716Y47244D02*
D03*
X-65354Y42520D02*
D03*
X-67716Y44094D02*
D03*
Y40945D02*
D03*
X-65354Y39370D02*
D03*
Y36220D02*
D03*
X-67716Y37795D02*
D03*
X-65354Y33071D02*
D03*
X-67716Y34646D02*
D03*
Y31496D02*
D03*
X-65354Y29921D02*
D03*
Y26772D02*
D03*
X-67716Y28346D02*
D03*
X-65354Y23622D02*
D03*
X-67716Y25197D02*
D03*
Y22047D02*
D03*
X-65354Y20472D02*
D03*
Y17323D02*
D03*
X-67716Y18898D02*
D03*
X-65354Y14173D02*
D03*
X-67716Y15748D02*
D03*
Y12598D02*
D03*
X-65354Y11024D02*
D03*
Y7874D02*
D03*
X-67716Y9449D02*
D03*
X-65354Y4724D02*
D03*
X-67716Y6299D02*
D03*
Y3150D02*
D03*
X-65354Y1575D02*
D03*
Y-1575D02*
D03*
X-67716Y-0D02*
D03*
X-65354Y-4724D02*
D03*
X-67716Y-3150D02*
D03*
Y-6299D02*
D03*
X-65354Y-7874D02*
D03*
Y-11024D02*
D03*
X-67716Y-9449D02*
D03*
X-65354Y-14173D02*
D03*
X-67716Y-12598D02*
D03*
Y-15748D02*
D03*
X-65354Y-17323D02*
D03*
Y-20472D02*
D03*
X-67716Y-18898D02*
D03*
X-65354Y-23622D02*
D03*
X-67716Y-22047D02*
D03*
Y-25197D02*
D03*
X-65354Y-26772D02*
D03*
Y-29921D02*
D03*
X-67716Y-28346D02*
D03*
X-65354Y-33071D02*
D03*
X-67716Y-31496D02*
D03*
Y-34646D02*
D03*
X-65354Y-36220D02*
D03*
Y-39370D02*
D03*
X-67716Y-37795D02*
D03*
X-65354Y-42520D02*
D03*
X-67716Y-40945D02*
D03*
Y-44094D02*
D03*
X-65354Y-45669D02*
D03*
Y-48819D02*
D03*
X-67716Y-47244D02*
D03*
X-65354Y-51968D02*
D03*
X-67716Y-50394D02*
D03*
Y-53543D02*
D03*
X-65354Y-55118D02*
D03*
Y-58268D02*
D03*
X-67716Y-56693D02*
D03*
X-65354Y-61417D02*
D03*
X-67716Y-59842D02*
D03*
Y-62992D02*
D03*
X-65354Y-64567D02*
D03*
Y-67716D02*
D03*
X-67716Y-66142D02*
D03*
X-65354Y-70866D02*
D03*
X-67716Y-69291D02*
D03*
Y-72441D02*
D03*
X-70079Y70866D02*
D03*
X-72441Y72441D02*
D03*
Y69291D02*
D03*
X-70079Y67716D02*
D03*
Y64567D02*
D03*
X-72441Y66142D02*
D03*
X-70079Y61417D02*
D03*
X-72441Y62992D02*
D03*
Y59842D02*
D03*
X-70079Y58268D02*
D03*
Y55118D02*
D03*
X-72441Y56693D02*
D03*
X-70079Y51968D02*
D03*
X-72441Y53543D02*
D03*
Y50394D02*
D03*
X-70079Y48819D02*
D03*
Y45669D02*
D03*
X-72441Y47244D02*
D03*
X-70079Y42520D02*
D03*
X-72441Y44094D02*
D03*
Y40945D02*
D03*
X-70079Y39370D02*
D03*
Y36220D02*
D03*
X-72441Y37795D02*
D03*
X-70079Y33071D02*
D03*
X-72441Y34646D02*
D03*
Y31496D02*
D03*
X-70079Y29921D02*
D03*
Y26772D02*
D03*
X-72441Y28346D02*
D03*
X-70079Y23622D02*
D03*
X-72441Y25197D02*
D03*
Y22047D02*
D03*
X-70079Y20472D02*
D03*
Y17323D02*
D03*
X-72441Y18898D02*
D03*
X-70079Y14173D02*
D03*
X-72441Y15748D02*
D03*
Y12598D02*
D03*
X-70079Y11024D02*
D03*
Y7874D02*
D03*
X-72441Y9449D02*
D03*
X-70079Y4724D02*
D03*
X-72441Y6299D02*
D03*
Y3150D02*
D03*
X-70079Y1575D02*
D03*
Y-1575D02*
D03*
X-72441Y-0D02*
D03*
X-70079Y-4724D02*
D03*
X-72441Y-3150D02*
D03*
Y-6299D02*
D03*
X-70079Y-7874D02*
D03*
Y-11024D02*
D03*
X-72441Y-9449D02*
D03*
X-70079Y-14173D02*
D03*
X-72441Y-12598D02*
D03*
Y-15748D02*
D03*
X-70079Y-17323D02*
D03*
Y-20472D02*
D03*
X-72441Y-18898D02*
D03*
X-70079Y-23622D02*
D03*
X-72441Y-22047D02*
D03*
Y-25197D02*
D03*
X-70079Y-26772D02*
D03*
Y-29921D02*
D03*
X-72441Y-28346D02*
D03*
X-70079Y-33071D02*
D03*
X-72441Y-31496D02*
D03*
Y-34646D02*
D03*
X-70079Y-36220D02*
D03*
Y-39370D02*
D03*
X-72441Y-37795D02*
D03*
X-70079Y-42520D02*
D03*
X-72441Y-40945D02*
D03*
Y-44094D02*
D03*
X-70079Y-45669D02*
D03*
Y-48819D02*
D03*
X-72441Y-47244D02*
D03*
X-70079Y-51968D02*
D03*
X-72441Y-50394D02*
D03*
Y-53543D02*
D03*
X-70079Y-55118D02*
D03*
Y-58268D02*
D03*
X-72441Y-56693D02*
D03*
X-70079Y-61417D02*
D03*
X-72441Y-59842D02*
D03*
Y-62992D02*
D03*
X-70079Y-64567D02*
D03*
Y-67716D02*
D03*
X-72441Y-66142D02*
D03*
X-70079Y-70866D02*
D03*
X-72441Y-69291D02*
D03*
Y-72441D02*
D03*
X95276Y-97244D02*
D03*
X17717Y-90158D02*
D03*
M02*
