G04*
G04 #@! TF.GenerationSoftware,Altium Limited,Altium Designer,23.8.1 (32)*
G04*
G04 Layer_Color=32768*
%FSLAX25Y25*%
%MOIN*%
G70*
G04*
G04 #@! TF.SameCoordinates,E08CAFE3-3647-4911-8EA2-20DD2F02231A*
G04*
G04*
G04 #@! TF.FilePolarity,Positive*
G04*
G01*
G75*
%ADD65C,0.01968*%
D65*
X15258Y-84003D02*
D03*
X90059Y-101575D02*
D03*
X-72835Y-98721D02*
D03*
X-24902Y-102953D02*
D03*
X-20079Y-102854D02*
D03*
X-5413Y-82972D02*
D03*
X1378Y-80216D02*
D03*
X-10925Y-85433D02*
D03*
X-14764Y-87894D02*
D03*
X-19587Y-87795D02*
D03*
X-25295D02*
D03*
X-10433Y-91535D02*
D03*
X-2165Y-90945D02*
D03*
X-19783Y-91339D02*
D03*
X-25197D02*
D03*
X9941Y-68898D02*
D03*
X17146Y-79998D02*
D03*
X12992Y-60728D02*
D03*
X7384Y-52113D02*
D03*
X32677Y-82185D02*
D03*
X20354Y-81640D02*
D03*
X591Y-60039D02*
D03*
X3036Y-50248D02*
D03*
X17323Y-68110D02*
D03*
X-8758Y-78884D02*
D03*
X16832Y-114318D02*
D03*
X-1672Y-113924D02*
D03*
X-2459Y-51719D02*
D03*
X15258Y-76916D02*
D03*
X-1654Y-49153D02*
D03*
X394Y61024D02*
D03*
X1558Y49008D02*
D03*
X-15354Y76772D02*
D03*
X2362Y51575D02*
D03*
X1575Y113779D02*
D03*
X-16929Y114173D02*
D03*
X8661Y78740D02*
D03*
X-9449Y61024D02*
D03*
X-7480Y51968D02*
D03*
X-10236Y68110D02*
D03*
X-17323Y79921D02*
D03*
X-18898Y85433D02*
D03*
X-15354Y83858D02*
D03*
X-3133Y50103D02*
D03*
X95276Y-97244D02*
D03*
X17717Y-90158D02*
D03*
M02*
