%TF.GenerationSoftware,Altium Limited,Altium Designer,23.9.2 (47)*%
G04 Layer_Color=16711935*
%FSLAX25Y25*%
%MOIN*%
%TF.SameCoordinates,C1B3935E-4126-4279-B8D9-91AEC20F268D*%
%TF.FilePolarity,Negative*%
%TF.FileFunction,Soldermask,Bot*%
%TF.Part,Single*%
G01*
G75*
%TA.AperFunction,ComponentPad*%
%ADD67C,0.31496*%
%TA.AperFunction,ViaPad*%
%ADD68C,0.02756*%
%ADD69C,0.02769*%
G36*
X184697Y216336D02*
X184748Y216326D01*
X184797Y216309D01*
X184843Y216287D01*
X184886Y216258D01*
X184925Y216224D01*
X185318Y215830D01*
X185352Y215791D01*
X185381Y215749D01*
X185404Y215702D01*
X185421Y215653D01*
X185431Y215603D01*
X185434Y215551D01*
Y208071D01*
X185431Y208019D01*
X185421Y207969D01*
X185404Y207920D01*
X185381Y207874D01*
X185352Y207831D01*
X185318Y207792D01*
X185280Y207758D01*
X185237Y207729D01*
X185190Y207706D01*
X185142Y207690D01*
X185091Y207680D01*
X185039Y207676D01*
X183858D01*
X183807Y207680D01*
X183756Y207690D01*
X183707Y207706D01*
X183661Y207729D01*
X183616Y207706D01*
X183567Y207690D01*
X183516Y207680D01*
X183465Y207676D01*
X183071D01*
X183019Y207680D01*
X182969Y207690D01*
X182920Y207706D01*
X182874Y207729D01*
X182828Y207706D01*
X182779Y207690D01*
X182729Y207680D01*
X182677Y207676D01*
X181496D01*
X181445Y207680D01*
X181394Y207690D01*
X181345Y207706D01*
X181299Y207729D01*
X181253Y207706D01*
X181204Y207690D01*
X181154Y207680D01*
X181102Y207676D01*
X180709D01*
X180657Y207680D01*
X180607Y207690D01*
X180558Y207706D01*
X180512Y207729D01*
X180466Y207706D01*
X180417Y207690D01*
X180367Y207680D01*
X180315Y207676D01*
X179134D01*
X179082Y207680D01*
X179032Y207690D01*
X178983Y207706D01*
X178937Y207729D01*
X178891Y207706D01*
X178842Y207690D01*
X178792Y207680D01*
X178740Y207676D01*
X178347D01*
X178295Y207680D01*
X178244Y207690D01*
X178196Y207706D01*
X178150Y207729D01*
X178104Y207706D01*
X178055Y207690D01*
X178004Y207680D01*
X177953Y207676D01*
X176772D01*
X176720Y207680D01*
X176670Y207690D01*
X176621Y207706D01*
X176575Y207729D01*
X176529Y207706D01*
X176480Y207690D01*
X176429Y207680D01*
X176378Y207676D01*
X175984D01*
X175933Y207680D01*
X175882Y207690D01*
X175833Y207706D01*
X175787Y207729D01*
X175742Y207706D01*
X175693Y207690D01*
X175642Y207680D01*
X175591Y207676D01*
X174409D01*
X174358Y207680D01*
X174307Y207690D01*
X174258Y207706D01*
X174213Y207729D01*
X174167Y207706D01*
X174118Y207690D01*
X174067Y207680D01*
X174016Y207676D01*
X173622D01*
X173571Y207680D01*
X173520Y207690D01*
X173471Y207706D01*
X173425Y207729D01*
X173379Y207706D01*
X173330Y207690D01*
X173280Y207680D01*
X173228Y207676D01*
X172047D01*
X171996Y207680D01*
X171945Y207690D01*
X171896Y207706D01*
X171850Y207729D01*
X171804Y207706D01*
X171756Y207690D01*
X171705Y207680D01*
X171654Y207676D01*
X171260D01*
X171208Y207680D01*
X171158Y207690D01*
X171109Y207706D01*
X171063Y207729D01*
X171017Y207706D01*
X170968Y207690D01*
X170918Y207680D01*
X170866Y207676D01*
X169685D01*
X169633Y207680D01*
X169583Y207690D01*
X169534Y207706D01*
X169488Y207729D01*
X169442Y207706D01*
X169394Y207690D01*
X169343Y207680D01*
X169291Y207676D01*
X168898D01*
X168846Y207680D01*
X168796Y207690D01*
X168747Y207706D01*
X168701Y207729D01*
X168655Y207706D01*
X168606Y207690D01*
X168555Y207680D01*
X168504Y207676D01*
X167323D01*
X167271Y207680D01*
X167221Y207690D01*
X167172Y207706D01*
X167126Y207729D01*
X167083Y207758D01*
X167044Y207792D01*
X167010Y207831D01*
X166981Y207874D01*
X166958Y207920D01*
X166942Y207969D01*
X166932Y208019D01*
X166928Y208071D01*
Y215551D01*
X166932Y215603D01*
X166942Y215653D01*
X166958Y215702D01*
X166981Y215749D01*
X167010Y215791D01*
X167044Y215830D01*
X167438Y216224D01*
X167438Y216224D01*
X167476Y216258D01*
X167519Y216287D01*
X167566Y216309D01*
X167614Y216326D01*
X167665Y216336D01*
X167717Y216339D01*
X168110D01*
X168162Y216336D01*
X168212Y216326D01*
X168261Y216309D01*
X168307Y216287D01*
X168350Y216258D01*
X168389Y216224D01*
X168529Y216084D01*
X168533Y216096D01*
X168556Y216142D01*
X168585Y216185D01*
X168619Y216224D01*
X168658Y216258D01*
X168700Y216287D01*
X168747Y216309D01*
X168796Y216326D01*
X168846Y216336D01*
X168898Y216339D01*
X169291D01*
X169343Y216336D01*
X169394Y216326D01*
X169442Y216309D01*
X169489Y216287D01*
X169532Y216258D01*
X169570Y216224D01*
X169604Y216185D01*
X169633Y216142D01*
X169656Y216096D01*
X169660Y216084D01*
X169800Y216224D01*
X169839Y216258D01*
X169881Y216287D01*
X169928Y216309D01*
X169977Y216326D01*
X170027Y216336D01*
X170079Y216339D01*
X170473D01*
X170524Y216336D01*
X170575Y216326D01*
X170623Y216309D01*
X170670Y216287D01*
X170713Y216258D01*
X170751Y216224D01*
X170891Y216084D01*
X170895Y216096D01*
X170918Y216142D01*
X170947Y216185D01*
X170981Y216224D01*
X171020Y216258D01*
X171063Y216287D01*
X171109Y216309D01*
X171158Y216326D01*
X171208Y216336D01*
X171260Y216339D01*
X171654D01*
X171705Y216336D01*
X171756Y216326D01*
X171804Y216309D01*
X171851Y216287D01*
X171894Y216258D01*
X171932Y216224D01*
X171967Y216185D01*
X171995Y216142D01*
X172018Y216096D01*
X172022Y216084D01*
X172162Y216224D01*
X172201Y216258D01*
X172244Y216287D01*
X172290Y216309D01*
X172339Y216326D01*
X172389Y216336D01*
X172441Y216339D01*
X172835D01*
X172886Y216336D01*
X172937Y216326D01*
X172986Y216309D01*
X173032Y216287D01*
X173075Y216258D01*
X173114Y216224D01*
X173254Y216084D01*
X173258Y216096D01*
X173280Y216142D01*
X173309Y216185D01*
X173343Y216224D01*
X173382Y216258D01*
X173425Y216287D01*
X173471Y216309D01*
X173520Y216326D01*
X173571Y216336D01*
X173622Y216339D01*
X174016D01*
X174067Y216336D01*
X174118Y216326D01*
X174167Y216309D01*
X174213Y216287D01*
X174256Y216258D01*
X174295Y216224D01*
X174329Y216185D01*
X174357Y216142D01*
X174380Y216096D01*
X174384Y216084D01*
X174524Y216224D01*
X174563Y216258D01*
X174606Y216287D01*
X174652Y216309D01*
X174701Y216326D01*
X174752Y216336D01*
X174803Y216339D01*
X175197D01*
X175248Y216336D01*
X175299Y216326D01*
X175348Y216309D01*
X175394Y216287D01*
X175437Y216258D01*
X175476Y216224D01*
X175616Y216084D01*
X175620Y216096D01*
X175643Y216142D01*
X175671Y216185D01*
X175705Y216224D01*
X175744Y216258D01*
X175787Y216287D01*
X175833Y216309D01*
X175882Y216326D01*
X175933Y216336D01*
X175984Y216339D01*
X176378D01*
X176429Y216336D01*
X176480Y216326D01*
X176529Y216309D01*
X176575Y216287D01*
X176618Y216258D01*
X176657Y216224D01*
X176691Y216185D01*
X176720Y216142D01*
X176742Y216096D01*
X176746Y216084D01*
X176886Y216224D01*
X176925Y216258D01*
X176968Y216287D01*
X177014Y216309D01*
X177063Y216326D01*
X177114Y216336D01*
X177165Y216339D01*
X177559D01*
X177611Y216336D01*
X177661Y216326D01*
X177710Y216309D01*
X177756Y216287D01*
X177799Y216258D01*
X177838Y216224D01*
X177978Y216084D01*
X177982Y216096D01*
X178005Y216142D01*
X178033Y216185D01*
X178068Y216224D01*
X178106Y216258D01*
X178149Y216287D01*
X178196Y216309D01*
X178244Y216326D01*
X178295Y216336D01*
X178347Y216339D01*
X178740D01*
X178792Y216336D01*
X178842Y216326D01*
X178891Y216309D01*
X178937Y216287D01*
X178980Y216258D01*
X179019Y216224D01*
X179053Y216185D01*
X179082Y216142D01*
X179105Y216096D01*
X179109Y216084D01*
X179249Y216224D01*
X179287Y216258D01*
X179330Y216287D01*
X179377Y216309D01*
X179426Y216326D01*
X179476Y216336D01*
X179528Y216339D01*
X179921D01*
X179973Y216336D01*
X180023Y216326D01*
X180072Y216309D01*
X180119Y216287D01*
X180161Y216258D01*
X180200Y216224D01*
X180340Y216084D01*
X180344Y216096D01*
X180367Y216142D01*
X180396Y216185D01*
X180430Y216224D01*
X180468Y216258D01*
X180511Y216287D01*
X180558Y216309D01*
X180607Y216326D01*
X180657Y216336D01*
X180709Y216339D01*
X181102D01*
X181154Y216336D01*
X181204Y216326D01*
X181253Y216309D01*
X181300Y216287D01*
X181343Y216258D01*
X181381Y216224D01*
X181415Y216185D01*
X181444Y216142D01*
X181467Y216096D01*
X181471Y216084D01*
X181611Y216224D01*
X181650Y216258D01*
X181693Y216287D01*
X181739Y216309D01*
X181788Y216326D01*
X181838Y216336D01*
X181890Y216339D01*
X182283D01*
X182335Y216336D01*
X182386Y216326D01*
X182434Y216309D01*
X182481Y216287D01*
X182524Y216258D01*
X182562Y216224D01*
X182702Y216084D01*
X182706Y216096D01*
X182729Y216142D01*
X182758Y216185D01*
X182792Y216224D01*
X182831Y216258D01*
X182874Y216287D01*
X182920Y216309D01*
X182969Y216326D01*
X183019Y216336D01*
X183071Y216339D01*
X183465D01*
X183516Y216336D01*
X183567Y216326D01*
X183616Y216309D01*
X183662Y216287D01*
X183705Y216258D01*
X183744Y216224D01*
X183778Y216185D01*
X183806Y216142D01*
X183829Y216096D01*
X183833Y216084D01*
X183973Y216224D01*
X184012Y216258D01*
X184055Y216287D01*
X184101Y216309D01*
X184150Y216326D01*
X184201Y216336D01*
X184252Y216339D01*
X184646D01*
X184697Y216336D01*
D02*
G37*
G36*
X97548Y100785D02*
X97951Y100732D01*
X97971Y100728D01*
X98002Y100722D01*
X98394Y100617D01*
X98418Y100608D01*
X98443Y100600D01*
X98819Y100444D01*
X98865Y100422D01*
X99217Y100218D01*
X99246Y100199D01*
X99260Y100190D01*
X99582Y99942D01*
X99621Y99908D01*
X99908Y99621D01*
X99942Y99582D01*
X100190Y99260D01*
X100218Y99217D01*
X100422Y98865D01*
X100444Y98819D01*
X100600Y98443D01*
X100606Y98427D01*
X100617Y98394D01*
X100722Y98002D01*
X100728Y97968D01*
X100732Y97951D01*
X100785Y97548D01*
X100788Y97497D01*
Y97294D01*
Y-57924D01*
Y-58127D01*
D01*
Y-58127D01*
X100785Y-58178D01*
X100732Y-58581D01*
X100728Y-58601D01*
X100722Y-58632D01*
X100617Y-59024D01*
X100608Y-59048D01*
X100600Y-59073D01*
X100444Y-59449D01*
X100422Y-59495D01*
X100218Y-59847D01*
X100199Y-59876D01*
X100190Y-59890D01*
X99942Y-60212D01*
X99908Y-60251D01*
X99621Y-60538D01*
X99582Y-60572D01*
X99260Y-60820D01*
X99217Y-60848D01*
X98865Y-61052D01*
X98819Y-61074D01*
X98443Y-61230D01*
X98427Y-61235D01*
X98394Y-61247D01*
X98002Y-61352D01*
X97968Y-61358D01*
X97951Y-61362D01*
X97548Y-61415D01*
X97497Y-61418D01*
X42267D01*
D01*
X42267D01*
X42215Y-61415D01*
X41813Y-61362D01*
X41792Y-61358D01*
X41762Y-61352D01*
X41369Y-61247D01*
X41345Y-61238D01*
X41320Y-61230D01*
X40945Y-61074D01*
X40899Y-61052D01*
X40547Y-60848D01*
X40518Y-60829D01*
X40504Y-60820D01*
X40181Y-60572D01*
X40143Y-60538D01*
X39855Y-60251D01*
X39821Y-60212D01*
X39574Y-59890D01*
X39545Y-59847D01*
X39342Y-59495D01*
X39319Y-59449D01*
X39164Y-59073D01*
X39158Y-59057D01*
X39147Y-59024D01*
X39042Y-58632D01*
X39034Y-58590D01*
X39032Y-58581D01*
X38979Y-58178D01*
X38976Y-58130D01*
X38976Y-58127D01*
Y-57924D01*
Y-30666D01*
X38970Y-30488D01*
X38923Y-30132D01*
X38831Y-29790D01*
X38696Y-29463D01*
X38519Y-29157D01*
X38304Y-28876D01*
X38053Y-28626D01*
X37773Y-28410D01*
X37466Y-28233D01*
X37139Y-28098D01*
X36798Y-28006D01*
X36441Y-27959D01*
X36264Y-27954D01*
X3107D01*
X2929Y-27959D01*
X2572Y-28006D01*
X2231Y-28098D01*
X1904Y-28233D01*
X1597Y-28410D01*
X1317Y-28626D01*
X1067Y-28876D01*
X851Y-29156D01*
X674Y-29463D01*
X539Y-29790D01*
X447Y-30132D01*
X400Y-30488D01*
X395Y-30666D01*
Y-57924D01*
Y-58127D01*
X391Y-58178D01*
X338Y-58581D01*
X336Y-58591D01*
X328Y-58632D01*
X223Y-59024D01*
X215Y-59048D01*
X206Y-59073D01*
X51Y-59449D01*
X28Y-59495D01*
X-175Y-59847D01*
X-194Y-59876D01*
X-204Y-59890D01*
X-451Y-60212D01*
X-485Y-60251D01*
X-773Y-60538D01*
X-812Y-60572D01*
X-1134Y-60820D01*
X-1177Y-60848D01*
X-1529Y-61052D01*
X-1575Y-61074D01*
X-1950Y-61230D01*
X-1967Y-61235D01*
X-1999Y-61247D01*
X-2392Y-61352D01*
X-2426Y-61358D01*
X-2442Y-61362D01*
X-2845Y-61415D01*
X-2897Y-61418D01*
X-58127D01*
D01*
X-58127D01*
X-58178Y-61415D01*
X-58581Y-61362D01*
X-58601Y-61358D01*
X-58632Y-61352D01*
X-59024Y-61247D01*
X-59048Y-61238D01*
X-59073Y-61230D01*
X-59449Y-61074D01*
X-59495Y-61052D01*
X-59847Y-60848D01*
X-59876Y-60829D01*
X-59890Y-60820D01*
X-60212Y-60572D01*
X-60251Y-60538D01*
X-60538Y-60251D01*
X-60572Y-60212D01*
X-60820Y-59890D01*
X-60848Y-59847D01*
X-61052Y-59495D01*
X-61074Y-59449D01*
X-61230Y-59073D01*
X-61235Y-59057D01*
X-61247Y-59024D01*
X-61352Y-58632D01*
X-61358Y-58598D01*
X-61362Y-58581D01*
X-61415Y-58178D01*
X-61418Y-58127D01*
Y-57924D01*
Y97294D01*
Y97497D01*
D01*
Y97497D01*
X-61415Y97548D01*
X-61362Y97951D01*
X-61358Y97971D01*
X-61352Y98002D01*
X-61247Y98394D01*
X-61238Y98418D01*
X-61230Y98443D01*
X-61074Y98819D01*
X-61052Y98865D01*
X-60848Y99217D01*
X-60829Y99246D01*
X-60820Y99260D01*
X-60572Y99582D01*
X-60538Y99621D01*
X-60251Y99908D01*
X-60212Y99942D01*
X-59890Y100190D01*
X-59847Y100218D01*
X-59495Y100422D01*
X-59449Y100444D01*
X-59073Y100600D01*
X-59057Y100606D01*
X-59024Y100617D01*
X-58632Y100722D01*
X-58598Y100728D01*
X-58581Y100732D01*
X-58178Y100785D01*
X-58127Y100788D01*
X0D01*
X52Y100785D01*
X102Y100775D01*
X151Y100758D01*
X197Y100735D01*
X240Y100707D01*
X279Y100673D01*
X313Y100634D01*
X342Y100591D01*
X365Y100545D01*
X381Y100496D01*
X391Y100445D01*
X395Y100394D01*
Y70036D01*
X400Y69859D01*
X447Y69502D01*
X539Y69160D01*
X674Y68833D01*
X851Y68527D01*
X1067Y68246D01*
X1317Y67996D01*
X1597Y67780D01*
X1904Y67603D01*
X2231Y67468D01*
X2572Y67377D01*
X2929Y67330D01*
X3107Y67324D01*
X36264D01*
X36441Y67330D01*
X36798Y67377D01*
X37139Y67468D01*
X37466Y67603D01*
X37773Y67780D01*
X38053Y67996D01*
X38304Y68246D01*
X38519Y68527D01*
X38696Y68833D01*
X38831Y69160D01*
X38923Y69502D01*
X38970Y69859D01*
X38976Y70036D01*
Y97294D01*
Y97497D01*
X38979Y97548D01*
X39032Y97951D01*
X39034Y97961D01*
X39042Y98002D01*
X39147Y98394D01*
X39155Y98418D01*
X39164Y98443D01*
X39319Y98819D01*
X39342Y98865D01*
X39545Y99217D01*
X39564Y99246D01*
X39574Y99260D01*
X39821Y99582D01*
X39855Y99621D01*
X40143Y99908D01*
X40181Y99942D01*
X40504Y100190D01*
X40547Y100218D01*
X40899Y100422D01*
X40945Y100444D01*
X41320Y100600D01*
X41337Y100606D01*
X41369Y100617D01*
X41762Y100722D01*
X41796Y100728D01*
X41813Y100732D01*
X42215Y100785D01*
X42267Y100788D01*
X97497D01*
D01*
X97497D01*
X97548Y100785D01*
D02*
G37*
G36*
X-127901Y-168310D02*
X-127851Y-168320D01*
X-127802Y-168336D01*
X-127755Y-168359D01*
X-127713Y-168388D01*
X-127674Y-168422D01*
X-127640Y-168461D01*
X-127611Y-168503D01*
X-127588Y-168550D01*
X-127572Y-168599D01*
X-127562Y-168649D01*
X-127558Y-168701D01*
Y-176181D01*
X-127562Y-176233D01*
X-127572Y-176283D01*
X-127588Y-176332D01*
X-127611Y-176378D01*
X-127640Y-176421D01*
X-127674Y-176460D01*
X-128067Y-176854D01*
X-128068Y-176854D01*
X-128106Y-176888D01*
X-128149Y-176917D01*
X-128196Y-176939D01*
X-128244Y-176956D01*
X-128295Y-176966D01*
X-128347Y-176969D01*
X-128740D01*
X-128792Y-176966D01*
X-128842Y-176956D01*
X-128891Y-176939D01*
X-128937Y-176917D01*
X-128980Y-176888D01*
X-129019Y-176854D01*
X-129159Y-176714D01*
X-129163Y-176726D01*
X-129186Y-176772D01*
X-129215Y-176815D01*
X-129249Y-176854D01*
X-129287Y-176888D01*
X-129330Y-176917D01*
X-129377Y-176939D01*
X-129426Y-176956D01*
X-129476Y-176966D01*
X-129528Y-176969D01*
X-129921D01*
X-129973Y-176966D01*
X-130023Y-176956D01*
X-130072Y-176939D01*
X-130119Y-176917D01*
X-130161Y-176888D01*
X-130200Y-176854D01*
X-130234Y-176815D01*
X-130263Y-176772D01*
X-130286Y-176726D01*
X-130290Y-176714D01*
X-130430Y-176854D01*
X-130468Y-176888D01*
X-130511Y-176917D01*
X-130558Y-176939D01*
X-130607Y-176956D01*
X-130657Y-176966D01*
X-130709Y-176969D01*
X-131102D01*
X-131154Y-176966D01*
X-131204Y-176956D01*
X-131253Y-176939D01*
X-131300Y-176917D01*
X-131343Y-176888D01*
X-131381Y-176854D01*
X-131521Y-176714D01*
X-131525Y-176726D01*
X-131548Y-176772D01*
X-131577Y-176815D01*
X-131611Y-176854D01*
X-131650Y-176888D01*
X-131693Y-176917D01*
X-131739Y-176939D01*
X-131788Y-176956D01*
X-131838Y-176966D01*
X-131890Y-176969D01*
X-132283D01*
X-132335Y-176966D01*
X-132386Y-176956D01*
X-132434Y-176939D01*
X-132481Y-176917D01*
X-132524Y-176888D01*
X-132562Y-176854D01*
X-132597Y-176815D01*
X-132625Y-176772D01*
X-132648Y-176726D01*
X-132652Y-176714D01*
X-132792Y-176854D01*
X-132831Y-176888D01*
X-132874Y-176917D01*
X-132920Y-176939D01*
X-132969Y-176956D01*
X-133019Y-176966D01*
X-133071Y-176969D01*
X-133465D01*
X-133516Y-176966D01*
X-133567Y-176956D01*
X-133616Y-176939D01*
X-133662Y-176917D01*
X-133705Y-176888D01*
X-133744Y-176854D01*
X-133883Y-176714D01*
X-133888Y-176726D01*
X-133910Y-176772D01*
X-133939Y-176815D01*
X-133973Y-176854D01*
X-134012Y-176888D01*
X-134055Y-176917D01*
X-134101Y-176939D01*
X-134150Y-176956D01*
X-134201Y-176966D01*
X-134252Y-176969D01*
X-134646D01*
X-134697Y-176966D01*
X-134748Y-176956D01*
X-134797Y-176939D01*
X-134843Y-176917D01*
X-134886Y-176888D01*
X-134925Y-176854D01*
X-134959Y-176815D01*
X-134987Y-176772D01*
X-135010Y-176726D01*
X-135014Y-176714D01*
X-135154Y-176854D01*
X-135193Y-176888D01*
X-135236Y-176917D01*
X-135282Y-176939D01*
X-135331Y-176956D01*
X-135382Y-176966D01*
X-135433Y-176969D01*
X-135827D01*
X-135878Y-176966D01*
X-135929Y-176956D01*
X-135978Y-176939D01*
X-136024Y-176917D01*
X-136067Y-176888D01*
X-136106Y-176854D01*
X-136246Y-176714D01*
X-136250Y-176726D01*
X-136273Y-176772D01*
X-136301Y-176815D01*
X-136335Y-176854D01*
X-136374Y-176888D01*
X-136417Y-176917D01*
X-136463Y-176939D01*
X-136512Y-176956D01*
X-136563Y-176966D01*
X-136614Y-176969D01*
X-137008D01*
X-137059Y-176966D01*
X-137110Y-176956D01*
X-137159Y-176939D01*
X-137205Y-176917D01*
X-137248Y-176888D01*
X-137287Y-176854D01*
X-137321Y-176815D01*
X-137350Y-176772D01*
X-137372Y-176726D01*
X-137376Y-176714D01*
X-137516Y-176854D01*
X-137555Y-176888D01*
X-137598Y-176917D01*
X-137644Y-176939D01*
X-137693Y-176956D01*
X-137744Y-176966D01*
X-137795Y-176969D01*
X-138189D01*
X-138241Y-176966D01*
X-138291Y-176956D01*
X-138340Y-176939D01*
X-138386Y-176917D01*
X-138429Y-176888D01*
X-138468Y-176854D01*
X-138608Y-176714D01*
X-138612Y-176726D01*
X-138635Y-176772D01*
X-138663Y-176815D01*
X-138697Y-176854D01*
X-138736Y-176888D01*
X-138779Y-176917D01*
X-138825Y-176939D01*
X-138874Y-176956D01*
X-138925Y-176966D01*
X-138976Y-176969D01*
X-139370D01*
X-139422Y-176966D01*
X-139472Y-176956D01*
X-139521Y-176939D01*
X-139567Y-176917D01*
X-139610Y-176888D01*
X-139649Y-176854D01*
X-139683Y-176815D01*
X-139712Y-176772D01*
X-139735Y-176726D01*
X-139739Y-176714D01*
X-139878Y-176854D01*
X-139917Y-176888D01*
X-139960Y-176917D01*
X-140006Y-176939D01*
X-140055Y-176956D01*
X-140106Y-176966D01*
X-140157Y-176969D01*
X-140551D01*
X-140603Y-176966D01*
X-140653Y-176956D01*
X-140702Y-176939D01*
X-140749Y-176917D01*
X-140791Y-176888D01*
X-140830Y-176854D01*
X-140970Y-176714D01*
X-140974Y-176726D01*
X-140997Y-176772D01*
X-141026Y-176815D01*
X-141060Y-176854D01*
X-141098Y-176888D01*
X-141141Y-176917D01*
X-141188Y-176939D01*
X-141236Y-176956D01*
X-141287Y-176966D01*
X-141339Y-176969D01*
X-141732D01*
X-141784Y-176966D01*
X-141834Y-176956D01*
X-141883Y-176939D01*
X-141930Y-176917D01*
X-141972Y-176888D01*
X-142011Y-176854D01*
X-142045Y-176815D01*
X-142074Y-176772D01*
X-142097Y-176726D01*
X-142101Y-176714D01*
X-142241Y-176854D01*
X-142280Y-176888D01*
X-142322Y-176917D01*
X-142369Y-176939D01*
X-142418Y-176956D01*
X-142468Y-176966D01*
X-142520Y-176969D01*
X-142913D01*
X-142965Y-176966D01*
X-143016Y-176956D01*
X-143064Y-176939D01*
X-143111Y-176917D01*
X-143154Y-176888D01*
X-143192Y-176854D01*
X-143332Y-176714D01*
X-143336Y-176726D01*
X-143359Y-176772D01*
X-143388Y-176815D01*
X-143422Y-176854D01*
X-143461Y-176888D01*
X-143503Y-176917D01*
X-143550Y-176939D01*
X-143599Y-176956D01*
X-143649Y-176966D01*
X-143701Y-176969D01*
X-144095D01*
X-144146Y-176966D01*
X-144197Y-176956D01*
X-144246Y-176939D01*
X-144292Y-176917D01*
X-144335Y-176888D01*
X-144374Y-176854D01*
X-144407Y-176815D01*
X-144436Y-176772D01*
X-144459Y-176726D01*
X-144463Y-176714D01*
X-144603Y-176854D01*
X-144642Y-176888D01*
X-144685Y-176917D01*
X-144731Y-176939D01*
X-144780Y-176956D01*
X-144830Y-176966D01*
X-144882Y-176969D01*
X-145276D01*
X-145327Y-176966D01*
X-145378Y-176956D01*
X-145427Y-176939D01*
X-145473Y-176917D01*
X-145516Y-176888D01*
X-145555Y-176854D01*
X-145948Y-176460D01*
X-145982Y-176421D01*
X-146011Y-176378D01*
X-146034Y-176332D01*
X-146050Y-176283D01*
X-146061Y-176233D01*
X-146064Y-176181D01*
Y-168701D01*
X-146061Y-168649D01*
X-146050Y-168599D01*
X-146034Y-168550D01*
X-146011Y-168503D01*
X-145982Y-168461D01*
X-145948Y-168422D01*
X-145910Y-168388D01*
X-145867Y-168359D01*
X-145820Y-168336D01*
X-145771Y-168320D01*
X-145721Y-168310D01*
X-145669Y-168306D01*
X-144488D01*
X-144437Y-168310D01*
X-144386Y-168320D01*
X-144337Y-168336D01*
X-144291Y-168359D01*
X-144246Y-168336D01*
X-144197Y-168320D01*
X-144146Y-168310D01*
X-144095Y-168306D01*
X-143701D01*
X-143649Y-168310D01*
X-143599Y-168320D01*
X-143550Y-168336D01*
X-143504Y-168359D01*
X-143458Y-168336D01*
X-143409Y-168320D01*
X-143359Y-168310D01*
X-143307Y-168306D01*
X-142126D01*
X-142075Y-168310D01*
X-142024Y-168320D01*
X-141975Y-168336D01*
X-141929Y-168359D01*
X-141883Y-168336D01*
X-141834Y-168320D01*
X-141784Y-168310D01*
X-141732Y-168306D01*
X-141339D01*
X-141287Y-168310D01*
X-141236Y-168320D01*
X-141188Y-168336D01*
X-141142Y-168359D01*
X-141096Y-168336D01*
X-141047Y-168320D01*
X-140996Y-168310D01*
X-140945Y-168306D01*
X-139764D01*
X-139712Y-168310D01*
X-139662Y-168320D01*
X-139613Y-168336D01*
X-139567Y-168359D01*
X-139521Y-168336D01*
X-139472Y-168320D01*
X-139422Y-168310D01*
X-139370Y-168306D01*
X-138976D01*
X-138925Y-168310D01*
X-138874Y-168320D01*
X-138825Y-168336D01*
X-138779Y-168359D01*
X-138734Y-168336D01*
X-138685Y-168320D01*
X-138634Y-168310D01*
X-138583Y-168306D01*
X-137402D01*
X-137350Y-168310D01*
X-137300Y-168320D01*
X-137251Y-168336D01*
X-137205Y-168359D01*
X-137159Y-168336D01*
X-137110Y-168320D01*
X-137059Y-168310D01*
X-137008Y-168306D01*
X-136614D01*
X-136563Y-168310D01*
X-136512Y-168320D01*
X-136463Y-168336D01*
X-136417Y-168359D01*
X-136372Y-168336D01*
X-136323Y-168320D01*
X-136272Y-168310D01*
X-136221Y-168306D01*
X-135039D01*
X-134988Y-168310D01*
X-134937Y-168320D01*
X-134888Y-168336D01*
X-134843Y-168359D01*
X-134797Y-168336D01*
X-134748Y-168320D01*
X-134697Y-168310D01*
X-134646Y-168306D01*
X-134252D01*
X-134201Y-168310D01*
X-134150Y-168320D01*
X-134101Y-168336D01*
X-134055Y-168359D01*
X-134009Y-168336D01*
X-133960Y-168320D01*
X-133910Y-168310D01*
X-133858Y-168306D01*
X-132677D01*
X-132626Y-168310D01*
X-132575Y-168320D01*
X-132526Y-168336D01*
X-132480Y-168359D01*
X-132434Y-168336D01*
X-132386Y-168320D01*
X-132335Y-168310D01*
X-132283Y-168306D01*
X-131890D01*
X-131838Y-168310D01*
X-131788Y-168320D01*
X-131739Y-168336D01*
X-131693Y-168359D01*
X-131647Y-168336D01*
X-131598Y-168320D01*
X-131548Y-168310D01*
X-131496Y-168306D01*
X-130315D01*
X-130263Y-168310D01*
X-130213Y-168320D01*
X-130164Y-168336D01*
X-130118Y-168359D01*
X-130072Y-168336D01*
X-130023Y-168320D01*
X-129973Y-168310D01*
X-129921Y-168306D01*
X-129528D01*
X-129476Y-168310D01*
X-129426Y-168320D01*
X-129377Y-168336D01*
X-129331Y-168359D01*
X-129285Y-168336D01*
X-129236Y-168320D01*
X-129185Y-168310D01*
X-129134Y-168306D01*
X-127953D01*
X-127901Y-168310D01*
D02*
G37*
D67*
X-90551Y98425D02*
D03*
X129921Y-59055D02*
D03*
Y-122047D02*
D03*
X35433D02*
D03*
X3937D02*
D03*
X-59055D02*
D03*
X-27559D02*
D03*
X98425D02*
D03*
X66929D02*
D03*
X129921Y161417D02*
D03*
X35433D02*
D03*
X3937D02*
D03*
X-59055D02*
D03*
X-27559D02*
D03*
X98425D02*
D03*
X66929D02*
D03*
X-90551D02*
D03*
X129921Y129921D02*
D03*
Y35433D02*
D03*
Y3937D02*
D03*
Y-27559D02*
D03*
Y98425D02*
D03*
Y66929D02*
D03*
X-90551Y-122047D02*
D03*
Y-90551D02*
D03*
Y-59055D02*
D03*
Y-27559D02*
D03*
Y3937D02*
D03*
Y35433D02*
D03*
Y66929D02*
D03*
D68*
X183762Y205395D02*
D03*
D69*
X-52756Y-52756D02*
D03*
Y-49606D02*
D03*
X-50394Y-51181D02*
D03*
X-52756Y-46457D02*
D03*
X-50394Y-48031D02*
D03*
Y-44882D02*
D03*
X-52756Y-43307D02*
D03*
Y-40157D02*
D03*
X-50394Y-41732D02*
D03*
X-52756Y-37008D02*
D03*
X-50394Y-38583D02*
D03*
Y-35433D02*
D03*
X-52756Y-33858D02*
D03*
Y-30709D02*
D03*
X-50394Y-32283D02*
D03*
X-52756Y-27559D02*
D03*
X-50394Y-29134D02*
D03*
Y-25984D02*
D03*
X-52756Y-24409D02*
D03*
Y-21260D02*
D03*
X-50394Y-22835D02*
D03*
X-52756Y-18110D02*
D03*
X-50394Y-19685D02*
D03*
Y-16535D02*
D03*
X-52756Y-14961D02*
D03*
Y-11811D02*
D03*
X-50394Y-13386D02*
D03*
X-52756Y-8661D02*
D03*
X-50394Y-10236D02*
D03*
Y-7087D02*
D03*
X-52756Y-5512D02*
D03*
Y-2362D02*
D03*
X-50394Y-3937D02*
D03*
X-52756Y787D02*
D03*
X-50394Y-787D02*
D03*
Y2362D02*
D03*
X-52756Y3937D02*
D03*
Y7087D02*
D03*
X-50394Y5512D02*
D03*
X-52756Y10236D02*
D03*
X-50394Y8661D02*
D03*
Y11811D02*
D03*
X-52756Y13386D02*
D03*
Y16535D02*
D03*
X-50394Y14961D02*
D03*
X-52756Y19685D02*
D03*
X-50394Y18110D02*
D03*
Y21260D02*
D03*
X-52756Y22835D02*
D03*
Y25984D02*
D03*
X-50394Y24409D02*
D03*
X-52756Y29134D02*
D03*
X-50394Y27559D02*
D03*
Y30709D02*
D03*
X-52756Y32283D02*
D03*
Y35433D02*
D03*
X-50394Y33858D02*
D03*
X-52756Y38583D02*
D03*
X-50394Y37008D02*
D03*
Y40157D02*
D03*
X-52756Y41732D02*
D03*
Y44882D02*
D03*
X-50394Y43307D02*
D03*
X-52756Y48031D02*
D03*
X-50394Y46457D02*
D03*
Y49606D02*
D03*
X-52756Y51181D02*
D03*
Y54331D02*
D03*
X-50394Y52756D02*
D03*
X-52756Y57480D02*
D03*
X-50394Y55905D02*
D03*
Y59055D02*
D03*
X-52756Y60630D02*
D03*
Y63779D02*
D03*
X-50394Y62205D02*
D03*
X-52756Y66929D02*
D03*
X-50394Y65354D02*
D03*
Y68504D02*
D03*
X-52756Y70079D02*
D03*
Y73228D02*
D03*
X-50394Y71653D02*
D03*
X-52756Y76378D02*
D03*
X-50394Y74803D02*
D03*
Y77953D02*
D03*
X-52756Y79527D02*
D03*
Y82677D02*
D03*
X-50394Y81102D02*
D03*
X-52756Y85827D02*
D03*
X-50394Y84252D02*
D03*
Y87402D02*
D03*
X-52756Y88976D02*
D03*
Y92126D02*
D03*
X-50394Y90551D02*
D03*
X-48031Y-52756D02*
D03*
Y-49606D02*
D03*
X-45669Y-51181D02*
D03*
X-48031Y-46457D02*
D03*
X-45669Y-48031D02*
D03*
Y-44882D02*
D03*
X-48031Y-43307D02*
D03*
Y-40157D02*
D03*
X-45669Y-41732D02*
D03*
X-48031Y-37008D02*
D03*
X-45669Y-38583D02*
D03*
Y-35433D02*
D03*
X-48031Y-33858D02*
D03*
Y-30709D02*
D03*
X-45669Y-32283D02*
D03*
X-48031Y-27559D02*
D03*
X-45669Y-29134D02*
D03*
Y-25984D02*
D03*
X-48031Y-24409D02*
D03*
Y-21260D02*
D03*
X-45669Y-22835D02*
D03*
X-48031Y-18110D02*
D03*
X-45669Y-19685D02*
D03*
Y-16535D02*
D03*
X-48031Y-14961D02*
D03*
Y-11811D02*
D03*
X-45669Y-13386D02*
D03*
X-48031Y-8661D02*
D03*
X-45669Y-10236D02*
D03*
Y-7087D02*
D03*
X-48031Y-5512D02*
D03*
Y-2362D02*
D03*
X-45669Y-3937D02*
D03*
X-48031Y787D02*
D03*
X-45669Y-787D02*
D03*
Y2362D02*
D03*
X-48031Y3937D02*
D03*
Y7087D02*
D03*
X-45669Y5512D02*
D03*
X-48031Y10236D02*
D03*
X-45669Y8661D02*
D03*
Y11811D02*
D03*
X-48031Y13386D02*
D03*
Y16535D02*
D03*
X-45669Y14961D02*
D03*
X-48031Y19685D02*
D03*
X-45669Y18110D02*
D03*
Y21260D02*
D03*
X-48031Y22835D02*
D03*
Y25984D02*
D03*
X-45669Y24409D02*
D03*
X-48031Y29134D02*
D03*
X-45669Y27559D02*
D03*
Y30709D02*
D03*
X-48031Y32283D02*
D03*
Y35433D02*
D03*
X-45669Y33858D02*
D03*
X-48031Y38583D02*
D03*
X-45669Y37008D02*
D03*
Y40157D02*
D03*
X-48031Y41732D02*
D03*
Y44882D02*
D03*
X-45669Y43307D02*
D03*
X-48031Y48031D02*
D03*
X-45669Y46457D02*
D03*
Y49606D02*
D03*
X-48031Y51181D02*
D03*
Y54331D02*
D03*
X-45669Y52756D02*
D03*
X-48031Y57480D02*
D03*
X-45669Y55905D02*
D03*
Y59055D02*
D03*
X-48031Y60630D02*
D03*
Y63779D02*
D03*
X-45669Y62205D02*
D03*
X-48031Y66929D02*
D03*
X-45669Y65354D02*
D03*
Y68504D02*
D03*
X-48031Y70079D02*
D03*
Y73228D02*
D03*
X-45669Y71653D02*
D03*
X-48031Y76378D02*
D03*
X-45669Y74803D02*
D03*
Y77953D02*
D03*
X-48031Y79527D02*
D03*
Y82677D02*
D03*
X-45669Y81102D02*
D03*
X-48031Y85827D02*
D03*
X-45669Y84252D02*
D03*
Y87402D02*
D03*
X-48031Y88976D02*
D03*
Y92126D02*
D03*
X-45669Y90551D02*
D03*
X-43307Y-52756D02*
D03*
Y-49606D02*
D03*
X-40945Y-51181D02*
D03*
X-43307Y-46457D02*
D03*
X-40945Y-48031D02*
D03*
Y-44882D02*
D03*
X-43307Y-43307D02*
D03*
Y-40157D02*
D03*
X-40945Y-41732D02*
D03*
X-43307Y-37008D02*
D03*
X-40945Y-38583D02*
D03*
Y-35433D02*
D03*
X-43307Y-33858D02*
D03*
Y-30709D02*
D03*
X-40945Y-32283D02*
D03*
X-43307Y-27559D02*
D03*
X-40945Y-29134D02*
D03*
Y-25984D02*
D03*
X-43307Y-24409D02*
D03*
Y-21260D02*
D03*
X-40945Y-22835D02*
D03*
X-43307Y-18110D02*
D03*
X-40945Y-19685D02*
D03*
Y-16535D02*
D03*
X-43307Y-14961D02*
D03*
Y-11811D02*
D03*
X-40945Y-13386D02*
D03*
X-43307Y-8661D02*
D03*
X-40945Y-10236D02*
D03*
Y-7087D02*
D03*
X-43307Y-5512D02*
D03*
Y-2362D02*
D03*
X-40945Y-3937D02*
D03*
X-43307Y787D02*
D03*
X-40945Y-787D02*
D03*
Y2362D02*
D03*
X-43307Y3937D02*
D03*
Y7087D02*
D03*
X-40945Y5512D02*
D03*
X-43307Y10236D02*
D03*
X-40945Y8661D02*
D03*
Y11811D02*
D03*
X-43307Y13386D02*
D03*
Y16535D02*
D03*
X-40945Y14961D02*
D03*
X-43307Y19685D02*
D03*
X-40945Y18110D02*
D03*
Y21260D02*
D03*
X-43307Y22835D02*
D03*
Y25984D02*
D03*
X-40945Y24409D02*
D03*
X-43307Y29134D02*
D03*
X-40945Y27559D02*
D03*
Y30709D02*
D03*
X-43307Y32283D02*
D03*
Y35433D02*
D03*
X-40945Y33858D02*
D03*
X-43307Y38583D02*
D03*
X-40945Y37008D02*
D03*
Y40157D02*
D03*
X-43307Y41732D02*
D03*
Y44882D02*
D03*
X-40945Y43307D02*
D03*
X-43307Y48031D02*
D03*
X-40945Y46457D02*
D03*
Y49606D02*
D03*
X-43307Y51181D02*
D03*
Y54331D02*
D03*
X-40945Y52756D02*
D03*
X-43307Y57480D02*
D03*
X-40945Y55905D02*
D03*
Y59055D02*
D03*
X-43307Y60630D02*
D03*
Y63779D02*
D03*
X-40945Y62205D02*
D03*
X-43307Y66929D02*
D03*
X-40945Y65354D02*
D03*
Y68504D02*
D03*
X-43307Y70079D02*
D03*
Y73228D02*
D03*
X-40945Y71653D02*
D03*
X-43307Y76378D02*
D03*
X-40945Y74803D02*
D03*
Y77953D02*
D03*
X-43307Y79527D02*
D03*
Y82677D02*
D03*
X-40945Y81102D02*
D03*
X-43307Y85827D02*
D03*
X-40945Y84252D02*
D03*
Y87402D02*
D03*
X-43307Y88976D02*
D03*
Y92126D02*
D03*
X-40945Y90551D02*
D03*
X92174Y92148D02*
D03*
Y88998D02*
D03*
X89812Y90573D02*
D03*
X92174Y85849D02*
D03*
X89812Y87423D02*
D03*
Y84274D02*
D03*
X92174Y82699D02*
D03*
Y79549D02*
D03*
X89812Y81124D02*
D03*
X92174Y76400D02*
D03*
X89812Y77974D02*
D03*
Y74825D02*
D03*
X92174Y73250D02*
D03*
Y70100D02*
D03*
X89812Y71675D02*
D03*
X92174Y66951D02*
D03*
X89812Y68526D02*
D03*
Y65376D02*
D03*
X92174Y63801D02*
D03*
Y60652D02*
D03*
X89812Y62226D02*
D03*
X92174Y57502D02*
D03*
X89812Y59077D02*
D03*
Y55927D02*
D03*
X92174Y54352D02*
D03*
Y51203D02*
D03*
X89812Y52778D02*
D03*
X92174Y48053D02*
D03*
X89812Y49628D02*
D03*
Y46479D02*
D03*
X92174Y44904D02*
D03*
Y41754D02*
D03*
X89812Y43329D02*
D03*
X92174Y38605D02*
D03*
X89812Y40179D02*
D03*
Y37030D02*
D03*
X92174Y35455D02*
D03*
Y32305D02*
D03*
X89812Y33880D02*
D03*
X92174Y29156D02*
D03*
X89812Y30731D02*
D03*
Y27581D02*
D03*
X92174Y26006D02*
D03*
Y22857D02*
D03*
X89812Y24431D02*
D03*
X92174Y19707D02*
D03*
X89812Y21282D02*
D03*
Y18132D02*
D03*
X92174Y16557D02*
D03*
Y13408D02*
D03*
X89812Y14982D02*
D03*
X92174Y10258D02*
D03*
X89812Y11833D02*
D03*
Y8683D02*
D03*
X92174Y7108D02*
D03*
Y3959D02*
D03*
X89812Y5534D02*
D03*
X92174Y809D02*
D03*
X89812Y2384D02*
D03*
Y-766D02*
D03*
X92174Y-2340D02*
D03*
Y-5490D02*
D03*
X89812Y-3915D02*
D03*
X92174Y-8640D02*
D03*
X89812Y-7065D02*
D03*
Y-10214D02*
D03*
X92174Y-11789D02*
D03*
Y-14939D02*
D03*
X89812Y-13364D02*
D03*
X92174Y-18088D02*
D03*
X89812Y-16514D02*
D03*
Y-19663D02*
D03*
X92174Y-21238D02*
D03*
Y-24388D02*
D03*
X89812Y-22813D02*
D03*
X92174Y-27537D02*
D03*
X89812Y-25962D02*
D03*
Y-29112D02*
D03*
X92174Y-30687D02*
D03*
Y-33836D02*
D03*
X89812Y-32262D02*
D03*
X92174Y-36986D02*
D03*
X89812Y-35411D02*
D03*
Y-38561D02*
D03*
X92174Y-40136D02*
D03*
Y-43285D02*
D03*
X89812Y-41710D02*
D03*
X92174Y-46435D02*
D03*
X89812Y-44860D02*
D03*
Y-48010D02*
D03*
X92174Y-49584D02*
D03*
Y-52734D02*
D03*
X89812Y-51159D02*
D03*
X87450Y92148D02*
D03*
Y88998D02*
D03*
X85087Y90573D02*
D03*
X87450Y85849D02*
D03*
X85087Y87423D02*
D03*
Y84274D02*
D03*
X87450Y82699D02*
D03*
Y79549D02*
D03*
X85087Y81124D02*
D03*
X87450Y76400D02*
D03*
X85087Y77974D02*
D03*
Y74825D02*
D03*
X87450Y73250D02*
D03*
Y70100D02*
D03*
X85087Y71675D02*
D03*
X87450Y66951D02*
D03*
X85087Y68526D02*
D03*
Y65376D02*
D03*
X87450Y63801D02*
D03*
Y60652D02*
D03*
X85087Y62226D02*
D03*
X87450Y57502D02*
D03*
X85087Y59077D02*
D03*
Y55927D02*
D03*
X87450Y54352D02*
D03*
Y51203D02*
D03*
X85087Y52778D02*
D03*
X87450Y48053D02*
D03*
X85087Y49628D02*
D03*
Y46479D02*
D03*
X87450Y44904D02*
D03*
Y41754D02*
D03*
X85087Y43329D02*
D03*
X87450Y38605D02*
D03*
X85087Y40179D02*
D03*
Y37030D02*
D03*
X87450Y35455D02*
D03*
Y32305D02*
D03*
X85087Y33880D02*
D03*
X87450Y29156D02*
D03*
X85087Y30731D02*
D03*
Y27581D02*
D03*
X87450Y26006D02*
D03*
Y22857D02*
D03*
X85087Y24431D02*
D03*
X87450Y19707D02*
D03*
X85087Y21282D02*
D03*
Y18132D02*
D03*
X87450Y16557D02*
D03*
Y13408D02*
D03*
X85087Y14982D02*
D03*
X87450Y10258D02*
D03*
X85087Y11833D02*
D03*
Y8683D02*
D03*
X87450Y7108D02*
D03*
Y3959D02*
D03*
X85087Y5534D02*
D03*
X87450Y809D02*
D03*
X85087Y2384D02*
D03*
Y-766D02*
D03*
X87450Y-2340D02*
D03*
Y-5490D02*
D03*
X85087Y-3915D02*
D03*
X87450Y-8640D02*
D03*
X85087Y-7065D02*
D03*
Y-10214D02*
D03*
X87450Y-11789D02*
D03*
Y-14939D02*
D03*
X85087Y-13364D02*
D03*
X87450Y-18088D02*
D03*
X85087Y-16514D02*
D03*
Y-19663D02*
D03*
X87450Y-21238D02*
D03*
Y-24388D02*
D03*
X85087Y-22813D02*
D03*
X87450Y-27537D02*
D03*
X85087Y-25962D02*
D03*
Y-29112D02*
D03*
X87450Y-30687D02*
D03*
Y-33836D02*
D03*
X85087Y-32262D02*
D03*
X87450Y-36986D02*
D03*
X85087Y-35411D02*
D03*
Y-38561D02*
D03*
X87450Y-40136D02*
D03*
Y-43285D02*
D03*
X85087Y-41710D02*
D03*
X87450Y-46435D02*
D03*
X85087Y-44860D02*
D03*
Y-48010D02*
D03*
X87450Y-49584D02*
D03*
Y-52734D02*
D03*
X85087Y-51159D02*
D03*
X82725Y92148D02*
D03*
Y88998D02*
D03*
X80363Y90573D02*
D03*
X82725Y85849D02*
D03*
X80363Y87423D02*
D03*
Y84274D02*
D03*
X82725Y82699D02*
D03*
Y79549D02*
D03*
X80363Y81124D02*
D03*
X82725Y76400D02*
D03*
X80363Y77974D02*
D03*
Y74825D02*
D03*
X82725Y73250D02*
D03*
Y70100D02*
D03*
X80363Y71675D02*
D03*
X82725Y66951D02*
D03*
X80363Y68526D02*
D03*
Y65376D02*
D03*
X82725Y63801D02*
D03*
Y60652D02*
D03*
X80363Y62226D02*
D03*
X82725Y57502D02*
D03*
X80363Y59077D02*
D03*
Y55927D02*
D03*
X82725Y54352D02*
D03*
Y51203D02*
D03*
X80363Y52778D02*
D03*
X82725Y48053D02*
D03*
X80363Y49628D02*
D03*
Y46479D02*
D03*
X82725Y44904D02*
D03*
Y41754D02*
D03*
X80363Y43329D02*
D03*
X82725Y38605D02*
D03*
X80363Y40179D02*
D03*
Y37030D02*
D03*
X82725Y35455D02*
D03*
Y32305D02*
D03*
X80363Y33880D02*
D03*
X82725Y29156D02*
D03*
X80363Y30731D02*
D03*
Y27581D02*
D03*
X82725Y26006D02*
D03*
Y22857D02*
D03*
X80363Y24431D02*
D03*
X82725Y19707D02*
D03*
X80363Y21282D02*
D03*
Y18132D02*
D03*
X82725Y16557D02*
D03*
Y13408D02*
D03*
X80363Y14982D02*
D03*
X82725Y10258D02*
D03*
X80363Y11833D02*
D03*
Y8683D02*
D03*
X82725Y7108D02*
D03*
Y3959D02*
D03*
X80363Y5534D02*
D03*
X82725Y809D02*
D03*
X80363Y2384D02*
D03*
Y-766D02*
D03*
X82725Y-2340D02*
D03*
Y-5490D02*
D03*
X80363Y-3915D02*
D03*
X82725Y-8640D02*
D03*
X80363Y-7065D02*
D03*
Y-10214D02*
D03*
X82725Y-11789D02*
D03*
Y-14939D02*
D03*
X80363Y-13364D02*
D03*
X82725Y-18088D02*
D03*
X80363Y-16514D02*
D03*
Y-19663D02*
D03*
X82725Y-21238D02*
D03*
Y-24388D02*
D03*
X80363Y-22813D02*
D03*
X82725Y-27537D02*
D03*
X80363Y-25962D02*
D03*
Y-29112D02*
D03*
X82725Y-30687D02*
D03*
Y-33836D02*
D03*
X80363Y-32262D02*
D03*
X82725Y-36986D02*
D03*
X80363Y-35411D02*
D03*
Y-38561D02*
D03*
X82725Y-40136D02*
D03*
Y-43285D02*
D03*
X80363Y-41710D02*
D03*
X82725Y-46435D02*
D03*
X80363Y-44860D02*
D03*
Y-48010D02*
D03*
X82725Y-49584D02*
D03*
Y-52734D02*
D03*
X80363Y-51159D02*
D03*
X-37008Y-40945D02*
D03*
X-38583Y-43307D02*
D03*
X-35433D02*
D03*
X-33858Y-40945D02*
D03*
X-30709D02*
D03*
X-32283Y-43307D02*
D03*
X-27559Y-40945D02*
D03*
X-29134Y-43307D02*
D03*
X-25984D02*
D03*
X-24409Y-40945D02*
D03*
X-21260D02*
D03*
X-22835Y-43307D02*
D03*
X-18110Y-40945D02*
D03*
X-19685Y-43307D02*
D03*
X-16535D02*
D03*
X-14961Y-40945D02*
D03*
X-11811D02*
D03*
X-13386Y-43307D02*
D03*
X-8661Y-40945D02*
D03*
X-10236Y-43307D02*
D03*
X48031Y-40945D02*
D03*
X49606Y-43307D02*
D03*
X51181Y-40945D02*
D03*
X54331D02*
D03*
X52756Y-43307D02*
D03*
X57480Y-40945D02*
D03*
X55905Y-43307D02*
D03*
X59055D02*
D03*
X60630Y-40945D02*
D03*
X63779D02*
D03*
X62205Y-43307D02*
D03*
X66929Y-40945D02*
D03*
X65354Y-43307D02*
D03*
X68504D02*
D03*
X70079Y-40945D02*
D03*
X73228D02*
D03*
X71653Y-43307D02*
D03*
X76378Y-40945D02*
D03*
X74803Y-43307D02*
D03*
X77953D02*
D03*
X-37008Y-45669D02*
D03*
X-38583Y-48031D02*
D03*
X-35433D02*
D03*
X-33858Y-45669D02*
D03*
X-30709D02*
D03*
X-32283Y-48031D02*
D03*
X-27559Y-45669D02*
D03*
X-29134Y-48031D02*
D03*
X-25984D02*
D03*
X-24409Y-45669D02*
D03*
X-21260D02*
D03*
X-22835Y-48031D02*
D03*
X-18110Y-45669D02*
D03*
X-19685Y-48031D02*
D03*
X-16535D02*
D03*
X-14961Y-45669D02*
D03*
X-11811D02*
D03*
X-13386Y-48031D02*
D03*
X-8661Y-45669D02*
D03*
X-10236Y-48031D02*
D03*
X48031Y-45669D02*
D03*
X49606Y-48031D02*
D03*
X51181Y-45669D02*
D03*
X54331D02*
D03*
X52756Y-48031D02*
D03*
X57480Y-45669D02*
D03*
X55905Y-48031D02*
D03*
X59055D02*
D03*
X60630Y-45669D02*
D03*
X63779D02*
D03*
X62205Y-48031D02*
D03*
X66929Y-45669D02*
D03*
X65354Y-48031D02*
D03*
X68504D02*
D03*
X70079Y-45669D02*
D03*
X73228D02*
D03*
X71653Y-48031D02*
D03*
X76378Y-45669D02*
D03*
X74803Y-48031D02*
D03*
X77953D02*
D03*
X-37008Y-50394D02*
D03*
X-38583Y-52756D02*
D03*
X-35433D02*
D03*
X-33858Y-50394D02*
D03*
X-30709D02*
D03*
X-32283Y-52756D02*
D03*
X-27559Y-50394D02*
D03*
X-29134Y-52756D02*
D03*
X-25984D02*
D03*
X-24409Y-50394D02*
D03*
X-21260D02*
D03*
X-22835Y-52756D02*
D03*
X-18110Y-50394D02*
D03*
X-19685Y-52756D02*
D03*
X-16535D02*
D03*
X-14961Y-50394D02*
D03*
X-11811D02*
D03*
X-13386Y-52756D02*
D03*
X-8661Y-50394D02*
D03*
X-10236Y-52756D02*
D03*
X48031Y-50394D02*
D03*
X49606Y-52756D02*
D03*
X51181Y-50394D02*
D03*
X54331D02*
D03*
X52756Y-52756D02*
D03*
X57480Y-50394D02*
D03*
X55905Y-52756D02*
D03*
X59055D02*
D03*
X60630Y-50394D02*
D03*
X63779D02*
D03*
X62205Y-52756D02*
D03*
X66929Y-50394D02*
D03*
X65354Y-52756D02*
D03*
X68504D02*
D03*
X70079Y-50394D02*
D03*
X73228D02*
D03*
X71653Y-52756D02*
D03*
X76378Y-50394D02*
D03*
X74803Y-52756D02*
D03*
X77953D02*
D03*
X76378Y80315D02*
D03*
X77953Y82677D02*
D03*
X74803D02*
D03*
X73228Y80315D02*
D03*
X70079D02*
D03*
X71653Y82677D02*
D03*
X66929Y80315D02*
D03*
X68504Y82677D02*
D03*
X65354D02*
D03*
X63779Y80315D02*
D03*
X60630D02*
D03*
X62205Y82677D02*
D03*
X57480Y80315D02*
D03*
X59055Y82677D02*
D03*
X55905D02*
D03*
X54331Y80315D02*
D03*
X51181D02*
D03*
X52756Y82677D02*
D03*
X48031Y80315D02*
D03*
X49606Y82677D02*
D03*
X-8661Y80315D02*
D03*
X-10236Y82677D02*
D03*
X-11811Y80315D02*
D03*
X-14961D02*
D03*
X-13386Y82677D02*
D03*
X-18110Y80315D02*
D03*
X-16535Y82677D02*
D03*
X-19685D02*
D03*
X-21260Y80315D02*
D03*
X-24409D02*
D03*
X-22835Y82677D02*
D03*
X-27559Y80315D02*
D03*
X-25984Y82677D02*
D03*
X-29134D02*
D03*
X-30709Y80315D02*
D03*
X-33858D02*
D03*
X-32283Y82677D02*
D03*
X-37008Y80315D02*
D03*
X-35433Y82677D02*
D03*
X-38583D02*
D03*
X76378Y85039D02*
D03*
X77953Y87402D02*
D03*
X74803D02*
D03*
X73228Y85039D02*
D03*
X70079D02*
D03*
X71653Y87402D02*
D03*
X66929Y85039D02*
D03*
X68504Y87402D02*
D03*
X65354D02*
D03*
X63779Y85039D02*
D03*
X60630D02*
D03*
X62205Y87402D02*
D03*
X57480Y85039D02*
D03*
X59055Y87402D02*
D03*
X55905D02*
D03*
X54331Y85039D02*
D03*
X51181D02*
D03*
X52756Y87402D02*
D03*
X48031Y85039D02*
D03*
X49606Y87402D02*
D03*
X-8661Y85039D02*
D03*
X-10236Y87402D02*
D03*
X-11811Y85039D02*
D03*
X-14961D02*
D03*
X-13386Y87402D02*
D03*
X-18110Y85039D02*
D03*
X-16535Y87402D02*
D03*
X-19685D02*
D03*
X-21260Y85039D02*
D03*
X-24409D02*
D03*
X-22835Y87402D02*
D03*
X-27559Y85039D02*
D03*
X-25984Y87402D02*
D03*
X-29134D02*
D03*
X-30709Y85039D02*
D03*
X-33858D02*
D03*
X-32283Y87402D02*
D03*
X-37008Y85039D02*
D03*
X-35433Y87402D02*
D03*
X-38583D02*
D03*
X76378Y89764D02*
D03*
X77953Y92126D02*
D03*
X74803D02*
D03*
X73228Y89764D02*
D03*
X70079D02*
D03*
X71653Y92126D02*
D03*
X66929Y89764D02*
D03*
X68504Y92126D02*
D03*
X65354D02*
D03*
X63779Y89764D02*
D03*
X60630D02*
D03*
X62205Y92126D02*
D03*
X57480Y89764D02*
D03*
X59055Y92126D02*
D03*
X55905D02*
D03*
X54331Y89764D02*
D03*
X51181D02*
D03*
X52756Y92126D02*
D03*
X48031Y89764D02*
D03*
X49606Y92126D02*
D03*
X-8661Y89764D02*
D03*
X-10236Y92126D02*
D03*
X-11811Y89764D02*
D03*
X-14961D02*
D03*
X-13386Y92126D02*
D03*
X-18110Y89764D02*
D03*
X-16535Y92126D02*
D03*
X-19685D02*
D03*
X-21260Y89764D02*
D03*
X-24409D02*
D03*
X-22835Y92126D02*
D03*
X-27559Y89764D02*
D03*
X-25984Y92126D02*
D03*
X-29134D02*
D03*
X-30709Y89764D02*
D03*
X-33858D02*
D03*
X-32283Y92126D02*
D03*
X-37008Y89764D02*
D03*
X-35433Y92126D02*
D03*
X-38583D02*
D03*
%TF.MD5,ed41bff4d3976fd58ef41fa902517f2d*%
M02*
