G04*
G04 #@! TF.GenerationSoftware,Altium Limited,Altium Designer,23.8.1 (32)*
G04*
G04 Layer_Color=65535*
%FSLAX25Y25*%
%MOIN*%
G70*
G04*
G04 #@! TF.SameCoordinates,E08CAFE3-3647-4911-8EA2-20DD2F02231A*
G04*
G04*
G04 #@! TF.FilePolarity,Positive*
G04*
G01*
G75*
%ADD10C,0.00394*%
%ADD11C,0.00984*%
%ADD12C,0.00787*%
%ADD13C,0.01000*%
D10*
X20669Y-44094D02*
D03*
X-294Y-103688D02*
D03*
X-884Y-44967D02*
D03*
X-61122Y-75532D02*
D03*
X591Y103543D02*
D03*
X1181Y44823D02*
D03*
X-22047Y44291D02*
D03*
D11*
X-4920Y-45223D02*
X-5658Y-44797D01*
Y-45649D01*
X-4920Y-45223D01*
X5807Y45079D02*
X5069Y45505D01*
Y44653D01*
X5807Y45079D01*
D12*
X20472Y-46870D02*
Y-45669D01*
Y-53937D02*
Y-52736D01*
X11024Y-46870D02*
Y-45669D01*
Y-53937D02*
Y-52736D01*
X11891Y-117073D02*
X14470D01*
X1084D02*
X3663D01*
X11891Y-103688D02*
X14470D01*
X1084D02*
X3663D01*
X14470Y-117073D02*
Y-116483D01*
Y-104278D02*
Y-103688D01*
X1084Y-117073D02*
Y-116483D01*
Y-104278D02*
Y-103688D01*
X-1252Y-49973D02*
Y-48398D01*
Y-49973D02*
X323D01*
X4209Y-49986D02*
X5784D01*
Y-48412D01*
X5787Y-46359D02*
Y-44784D01*
X4212D02*
X5787D01*
X-22144Y-50440D02*
Y-47782D01*
X-19487D01*
X-22144Y-65105D02*
Y-62447D01*
Y-65105D02*
X-19487D01*
X-7479D02*
X-4821D01*
Y-62447D01*
Y-50440D02*
Y-47782D01*
X-7479D02*
X-4821D01*
X-61516Y-77106D02*
X-61319D01*
X-74311D02*
X-74114D01*
X-61516Y-90098D02*
X-61319D01*
X-74311D02*
X-74114D01*
X-61319Y-79114D02*
Y-77106D01*
Y-90098D02*
Y-88090D01*
X-74311Y-79114D02*
Y-77106D01*
Y-90098D02*
Y-88090D01*
X-14567Y116929D02*
X-11988D01*
X-3760D02*
X-1181D01*
X-14567Y103543D02*
X-11988D01*
X-3760D02*
X-1181D01*
X-14567Y116339D02*
Y116929D01*
Y103543D02*
Y104134D01*
X-1181Y116339D02*
Y116929D01*
Y103543D02*
Y104134D01*
X1155Y48254D02*
Y49828D01*
X-420D02*
X1155D01*
X-5881Y49842D02*
X-4306D01*
X-5881Y48267D02*
Y49842D01*
X-5884Y44640D02*
Y46215D01*
Y44640D02*
X-4309D01*
X22047Y47638D02*
Y50295D01*
X19390Y47638D02*
X22047D01*
Y62303D02*
Y64961D01*
X19390D02*
X22047D01*
X4724D02*
X7382D01*
X4724Y62303D02*
Y64961D01*
Y47638D02*
Y50295D01*
Y47638D02*
X7382D01*
X-22244Y45866D02*
X-22047D01*
X-9449D02*
X-9252D01*
X-22244Y58858D02*
X-22047D01*
X-9449D02*
X-9252D01*
X-22244Y45866D02*
Y47874D01*
Y56850D02*
Y58858D01*
X-9252Y45866D02*
Y47874D01*
Y56850D02*
Y58858D01*
D13*
X-15354Y74278D02*
X-16273Y75196D01*
X-18109D01*
X-19028Y74278D01*
Y70604D01*
X-18109Y69686D01*
X-16273D01*
X-15354Y70604D01*
X-13518Y69686D02*
X-11681D01*
X-12599D01*
Y75196D01*
X-13518Y74278D01*
X4069Y84515D02*
X3150Y83596D01*
Y81760D01*
X4069Y80841D01*
X7742D01*
X8660Y81760D01*
Y83596D01*
X7742Y84515D01*
X8660Y90025D02*
Y86351D01*
X4987Y90025D01*
X4069D01*
X3150Y89106D01*
Y87270D01*
X4069Y86351D01*
X11943Y109318D02*
X11024Y108399D01*
Y106563D01*
X11943Y105645D01*
X15616D01*
X16534Y106563D01*
Y108399D01*
X15616Y109318D01*
X16534Y113910D02*
X11024D01*
X13780Y111155D01*
Y114828D01*
X-31364Y109318D02*
X-32283Y108399D01*
Y106563D01*
X-31364Y105645D01*
X-27691D01*
X-26773Y106563D01*
Y108399D01*
X-27691Y109318D01*
X-32283Y114828D02*
Y111155D01*
X-29528D01*
X-30446Y112991D01*
Y113910D01*
X-29528Y114828D01*
X-27691D01*
X-26773Y113910D01*
Y112073D01*
X-27691Y111155D01*
X-3412Y80184D02*
X-4330Y79266D01*
Y77429D01*
X-3412Y76511D01*
X262D01*
X1180Y77429D01*
Y79266D01*
X262Y80184D01*
X-3412Y82021D02*
X-4330Y82939D01*
Y84776D01*
X-3412Y85694D01*
X-2493D01*
X-1575Y84776D01*
Y83857D01*
Y84776D01*
X-656Y85694D01*
X262D01*
X1180Y84776D01*
Y82939D01*
X262Y82021D01*
X-160433Y-179135D02*
X-162270D01*
X-161351D01*
Y-183726D01*
X-162270Y-184645D01*
X-163188D01*
X-164106Y-183726D01*
X-158596Y-184645D02*
X-156760D01*
X-157678D01*
Y-179135D01*
X-158596Y-180053D01*
X-34776Y93308D02*
Y98818D01*
X-32021D01*
X-31102Y97900D01*
Y96063D01*
X-32021Y95145D01*
X-34776D01*
X-32939D02*
X-31102Y93308D01*
X-29266D02*
X-27429D01*
X-28347D01*
Y98818D01*
X-29266Y97900D01*
X-24670Y93308D02*
Y98818D01*
X-21915D01*
X-20997Y97900D01*
Y96063D01*
X-21915Y95145D01*
X-24670D01*
X-22834D02*
X-20997Y93308D01*
X-15487D02*
X-19160D01*
X-15487Y96981D01*
Y97900D01*
X-16405Y98818D01*
X-18242D01*
X-19160Y97900D01*
X16141Y80841D02*
X10631D01*
Y83596D01*
X11549Y84515D01*
X13386D01*
X14304Y83596D01*
Y80841D01*
Y82678D02*
X16141Y84515D01*
X11549Y86351D02*
X10631Y87270D01*
Y89106D01*
X11549Y90025D01*
X12467D01*
X13386Y89106D01*
Y88188D01*
Y89106D01*
X14304Y90025D01*
X15223D01*
X16141Y89106D01*
Y87270D01*
X15223Y86351D01*
X23621Y80841D02*
X18111D01*
Y83596D01*
X19029Y84515D01*
X20866D01*
X21784Y83596D01*
Y80841D01*
Y82678D02*
X23621Y84515D01*
Y89106D02*
X18111D01*
X20866Y86351D01*
Y90025D01*
X-7741Y68898D02*
Y74409D01*
X-4986D01*
X-4068Y73490D01*
Y71653D01*
X-4986Y70735D01*
X-7741D01*
X-5905D02*
X-4068Y68898D01*
X1442Y74409D02*
X-2231D01*
Y71653D01*
X-395Y72572D01*
X524D01*
X1442Y71653D01*
Y69817D01*
X524Y68898D01*
X-1313D01*
X-2231Y69817D01*
X-19028Y83070D02*
Y78478D01*
X-18109Y77560D01*
X-16273D01*
X-15354Y78478D01*
Y83070D01*
X-13518Y77560D02*
X-11681D01*
X-12599D01*
Y83070D01*
X-13518Y82152D01*
X14306Y98818D02*
Y94226D01*
X15224Y93308D01*
X17061D01*
X17979Y94226D01*
Y98818D01*
X23489Y93308D02*
X19816D01*
X23489Y96981D01*
Y97900D01*
X22571Y98818D01*
X20734D01*
X19816Y97900D01*
X-7741Y93306D02*
Y88714D01*
X-6823Y87796D01*
X-4986D01*
X-4068Y88714D01*
Y93306D01*
X-2231Y92388D02*
X-1313Y93306D01*
X524D01*
X1442Y92388D01*
Y91470D01*
X524Y90551D01*
X-395D01*
X524D01*
X1442Y89633D01*
Y88714D01*
X524Y87796D01*
X-1313D01*
X-2231Y88714D01*
X-12466Y124802D02*
Y120211D01*
X-11547Y119292D01*
X-9711D01*
X-8792Y120211D01*
Y124802D01*
X-4201Y119292D02*
Y124802D01*
X-6956Y122047D01*
X-3282D01*
X12466Y-124802D02*
Y-120211D01*
X11547Y-119292D01*
X9711D01*
X8792Y-120211D01*
Y-124802D01*
X6956Y-123884D02*
X6037Y-124802D01*
X4201D01*
X3282Y-123884D01*
Y-122966D01*
X4201Y-122047D01*
X3282Y-121129D01*
Y-120211D01*
X4201Y-119292D01*
X6037D01*
X6956Y-120211D01*
Y-121129D01*
X6037Y-122047D01*
X6956Y-122966D01*
Y-123884D01*
X6037Y-122047D02*
X4201D01*
X7348Y-94487D02*
Y-89896D01*
X6429Y-88977D01*
X4593D01*
X3674Y-89896D01*
Y-94487D01*
X1838D02*
X-1836D01*
Y-93569D01*
X1838Y-89896D01*
Y-88977D01*
X-24312Y-47967D02*
X-28904D01*
X-29822Y-48886D01*
Y-50722D01*
X-28904Y-51641D01*
X-24312D01*
Y-57151D02*
X-25230Y-55314D01*
X-27067Y-53477D01*
X-28904D01*
X-29822Y-54396D01*
Y-56232D01*
X-28904Y-57151D01*
X-27985D01*
X-27067Y-56232D01*
Y-53477D01*
X-53643Y-77987D02*
X-58234D01*
X-59153Y-78905D01*
Y-80742D01*
X-58234Y-81660D01*
X-53643D01*
Y-87170D02*
Y-83497D01*
X-56398D01*
X-55479Y-85334D01*
Y-86252D01*
X-56398Y-87170D01*
X-58234D01*
X-59153Y-86252D01*
Y-84415D01*
X-58234Y-83497D01*
X11612Y-68997D02*
Y-74507D01*
X8857D01*
X7939Y-73589D01*
Y-71752D01*
X8857Y-70834D01*
X11612D01*
X9775D02*
X7939Y-68997D01*
X6102D02*
X4265D01*
X5184D01*
Y-74507D01*
X6102Y-73589D01*
X1510D02*
X592Y-74507D01*
X-1245D01*
X-2163Y-73589D01*
Y-69915D01*
X-1245Y-68997D01*
X592D01*
X1510Y-69915D01*
Y-73589D01*
X-23718Y-80986D02*
X-18208D01*
Y-83741D01*
X-19126Y-84659D01*
X-20963D01*
X-21881Y-83741D01*
Y-80986D01*
Y-82822D02*
X-23718Y-84659D01*
X-22800Y-86496D02*
X-23718Y-87414D01*
Y-89251D01*
X-22800Y-90169D01*
X-19126D01*
X-18208Y-89251D01*
Y-87414D01*
X-19126Y-86496D01*
X-20045D01*
X-20963Y-87414D01*
Y-90169D01*
X-16238Y-80986D02*
X-10728D01*
Y-83741D01*
X-11646Y-84659D01*
X-13483D01*
X-14401Y-83741D01*
Y-80986D01*
Y-82822D02*
X-16238Y-84659D01*
X-11646Y-86496D02*
X-10728Y-87414D01*
Y-89251D01*
X-11646Y-90169D01*
X-12564D01*
X-13483Y-89251D01*
X-14401Y-90169D01*
X-15319D01*
X-16238Y-89251D01*
Y-87414D01*
X-15319Y-86496D01*
X-14401D01*
X-13483Y-87414D01*
X-12564Y-86496D01*
X-11646D01*
X-13483Y-87414D02*
Y-89251D01*
X24574Y-93452D02*
Y-98962D01*
X21819D01*
X20900Y-98044D01*
Y-96207D01*
X21819Y-95289D01*
X24574D01*
X22737D02*
X20900Y-93452D01*
X19064Y-98962D02*
X15390D01*
Y-98044D01*
X19064Y-94371D01*
Y-93452D01*
X35597D02*
Y-98962D01*
X32842D01*
X31924Y-98044D01*
Y-96207D01*
X32842Y-95289D01*
X35597D01*
X33761D02*
X31924Y-93452D01*
X26414Y-98962D02*
X28251Y-98044D01*
X30087Y-96207D01*
Y-94371D01*
X29169Y-93452D01*
X27332D01*
X26414Y-94371D01*
Y-95289D01*
X27332Y-96207D01*
X30087D01*
X160267Y179279D02*
X162104D01*
X161185D01*
Y183871D01*
X162104Y184789D01*
X163022D01*
X163940Y183871D01*
X154757Y184789D02*
X158430D01*
X154757Y181116D01*
Y180197D01*
X155675Y179279D01*
X157512D01*
X158430Y180197D01*
X3305Y-80419D02*
X4224Y-79501D01*
Y-77664D01*
X3305Y-76745D01*
X-368D01*
X-1286Y-77664D01*
Y-79501D01*
X-368Y-80419D01*
X3305Y-82256D02*
X4224Y-83174D01*
Y-85011D01*
X3305Y-85929D01*
X2387D01*
X1469Y-85011D01*
X550Y-85929D01*
X-368D01*
X-1286Y-85011D01*
Y-83174D01*
X-368Y-82256D01*
X550D01*
X1469Y-83174D01*
X2387Y-82256D01*
X3305D01*
X1469Y-83174D02*
Y-85011D01*
X31364Y-108991D02*
X32283Y-108072D01*
Y-106236D01*
X31364Y-105317D01*
X27691D01*
X26773Y-106236D01*
Y-108072D01*
X27691Y-108991D01*
X26773Y-110827D02*
Y-112664D01*
Y-111746D01*
X32283D01*
X31364Y-110827D01*
Y-115419D02*
X32283Y-116337D01*
Y-118174D01*
X31364Y-119092D01*
X27691D01*
X26773Y-118174D01*
Y-116337D01*
X27691Y-115419D01*
X31364D01*
X-11943Y-109318D02*
X-11024Y-108399D01*
Y-106563D01*
X-11943Y-105645D01*
X-15616D01*
X-16534Y-106563D01*
Y-108399D01*
X-15616Y-109318D01*
Y-111155D02*
X-16534Y-112073D01*
Y-113910D01*
X-15616Y-114828D01*
X-11943D01*
X-11024Y-113910D01*
Y-112073D01*
X-11943Y-111155D01*
X-12861D01*
X-13780Y-112073D01*
Y-114828D01*
X-4166Y-84659D02*
X-3247Y-83741D01*
Y-81904D01*
X-4166Y-80986D01*
X-7839D01*
X-8757Y-81904D01*
Y-83741D01*
X-7839Y-84659D01*
X-3247Y-86496D02*
Y-90169D01*
X-4166D01*
X-7839Y-86496D01*
X-8757D01*
X-69267Y-104593D02*
X-68348Y-105511D01*
X-66512D01*
X-65593Y-104593D01*
Y-100919D01*
X-66512Y-100001D01*
X-68348D01*
X-69267Y-100919D01*
X-74777Y-105511D02*
X-72940Y-104593D01*
X-71103Y-102756D01*
Y-100919D01*
X-72022Y-100001D01*
X-73858D01*
X-74777Y-100919D01*
Y-101838D01*
X-73858Y-102756D01*
X-71103D01*
X25129Y-62068D02*
X26129Y-61068D01*
Y-59069D01*
X25129Y-58069D01*
X21131D01*
X20131Y-59069D01*
Y-61068D01*
X21131Y-62068D01*
X20131Y-64067D02*
Y-66066D01*
Y-65067D01*
X26129D01*
X25129Y-64067D01*
X20131Y-69065D02*
Y-71065D01*
Y-70065D01*
X26129D01*
X25129Y-69065D01*
X27999Y-44903D02*
X23001D01*
X22001Y-45903D01*
Y-47902D01*
X23001Y-48902D01*
X27999D01*
X23001Y-50901D02*
X22001Y-51901D01*
Y-53900D01*
X23001Y-54900D01*
X26999D01*
X27999Y-53900D01*
Y-51901D01*
X26999Y-50901D01*
X26000D01*
X25000Y-51901D01*
Y-54900D01*
X14717Y-74211D02*
X20716D01*
Y-77210D01*
X19716Y-78210D01*
X17717D01*
X16717Y-77210D01*
Y-74211D01*
Y-76210D02*
X14717Y-78210D01*
Y-80209D02*
Y-82208D01*
Y-81208D01*
X20716D01*
X19716Y-80209D01*
X14717Y-85207D02*
Y-87207D01*
Y-86207D01*
X20716D01*
X19716Y-85207D01*
M02*
