%TF.GenerationSoftware,Altium Limited,Altium Designer,23.9.2 (47)*%
G04 Layer_Physical_Order=2*
G04 Layer_Color=16711680*
%FSLAX25Y25*%
%MOIN*%
%TF.SameCoordinates,C1B3935E-4126-4279-B8D9-91AEC20F268D*%
%TF.FilePolarity,Positive*%
%TF.FileFunction,Copper,L2,Bot,Signal*%
%TF.Part,Single*%
G01*
G75*
%TA.AperFunction,Conductor*%
%ADD27C,0.30709*%
%ADD28C,0.00551*%
%ADD29C,0.01968*%
%ADD30C,0.00787*%
%ADD31C,0.03937*%
%TA.AperFunction,ComponentPad*%
%ADD34C,0.30709*%
%TA.AperFunction,SMDPad,CuDef*%
%AMCUSTOMSHAPE35*
4,1,11,-0.00591,-0.03937,-0.00591,0.03543,-0.00197,0.03937,-0.00197,0.03937,0.00197,0.03937,0.00591,0.03543,0.00591,0.01476,0.00197,0.01083,0.00197,-0.01476,0.00591,-0.01870,0.00591,-0.03937,-0.00591,-0.03937,0.0*%
%ADD35CUSTOMSHAPE35*%

%AMCUSTOMSHAPE36*
4,1,12,-0.00591,-0.01280,-0.00591,0.00886,-0.00197,0.01280,-0.00197,0.03937,0.00197,0.03937,0.00197,0.01280,0.00591,0.00886,0.00591,-0.01280,0.00197,-0.01673,0.00197,-0.03937,-0.00197,-0.03937,-0.00197,-0.01673,-0.00591,-0.01280,0.0*%
%ADD36CUSTOMSHAPE36*%

%AMCUSTOMSHAPE37*
4,1,14,-0.00591,-0.03937,-0.00591,-0.01870,-0.00197,-0.01476,-0.00197,0.01083,-0.00591,0.01476,-0.00591,0.03543,-0.00197,0.03937,0.00197,0.03937,0.00591,0.03543,0.00591,0.01476,0.00197,0.01083,0.00197,-0.01476,0.00591,-0.01870,0.00591,-0.03937,-0.00591,-0.03937,0.0*%
%ADD37CUSTOMSHAPE37*%

%AMCUSTOMSHAPE38*
4,1,12,-0.00591,-0.03937,-0.00591,-0.01870,-0.00197,-0.01476,-0.00197,-0.01476,-0.00197,0.01083,-0.00591,0.01476,-0.00591,0.01476,-0.00591,0.03543,-0.00197,0.03937,0.00197,0.03937,0.00591,0.03543,0.00591,-0.03937,-0.00591,-0.03937,0.0*%
%ADD38CUSTOMSHAPE38*%

%AMCUSTOMSHAPE39*
4,1,11,0.00591,0.03937,0.00591,-0.03543,0.00197,-0.03937,0.00197,-0.03937,-0.00197,-0.03937,-0.00591,-0.03543,-0.00591,-0.01476,-0.00197,-0.01083,-0.00197,0.01476,-0.00591,0.01870,-0.00591,0.03937,0.00591,0.03937,0.0*%
%ADD39CUSTOMSHAPE39*%

%AMCUSTOMSHAPE40*
4,1,12,0.00591,0.01280,0.00591,-0.00886,0.00197,-0.01280,0.00197,-0.03937,-0.00197,-0.03937,-0.00197,-0.01280,-0.00591,-0.00886,-0.00591,0.01280,-0.00197,0.01673,-0.00197,0.03937,0.00197,0.03937,0.00197,0.01673,0.00591,0.01280,0.0*%
%ADD40CUSTOMSHAPE40*%

%AMCUSTOMSHAPE41*
4,1,14,0.00591,0.03937,0.00591,0.01870,0.00197,0.01476,0.00197,-0.01083,0.00591,-0.01476,0.00591,-0.03543,0.00197,-0.03937,-0.00197,-0.03937,-0.00591,-0.03543,-0.00591,-0.01476,-0.00197,-0.01083,-0.00197,0.01476,-0.00591,0.01870,-0.00591,0.03937,0.00591,0.03937,0.0*%
%ADD41CUSTOMSHAPE41*%

%AMCUSTOMSHAPE42*
4,1,12,0.00591,0.03937,0.00591,0.01870,0.00197,0.01476,0.00197,0.01476,0.00197,-0.01083,0.00591,-0.01476,0.00591,-0.01476,0.00591,-0.03543,0.00197,-0.03937,-0.00197,-0.03937,-0.00591,-0.03543,-0.00591,0.03937,0.00591,0.03937,0.0*%
%ADD42CUSTOMSHAPE42*%

%TA.AperFunction,ViaPad*%
%ADD43C,0.01968*%
%TA.AperFunction,Conductor*%
%ADD44C,0.15748*%
%ADD45C,0.00394*%
G36*
X44094Y103150D02*
X5720D01*
X5630Y103285D01*
Y103802D01*
X5432Y104279D01*
X5067Y104645D01*
X4589Y104842D01*
X4072D01*
X3595Y104645D01*
X3229Y104279D01*
X3032Y103802D01*
Y103285D01*
X2941Y103150D01*
X1462D01*
X1341Y103330D01*
Y103941D01*
X1523Y104017D01*
X1889Y104382D01*
X2087Y104860D01*
Y105377D01*
X1889Y105854D01*
X1523Y106219D01*
X1046Y106417D01*
X529D01*
X52Y106219D01*
X-314Y105854D01*
X-512Y105377D01*
Y104860D01*
X-314Y104382D01*
X51Y104017D01*
X126Y103539D01*
X-191Y103150D01*
X-66929D01*
X-84252Y120472D01*
X-122047Y120472D01*
X-128740Y114370D01*
Y-167323D01*
X-142277D01*
X-142611Y-166823D01*
X-142548Y-166670D01*
X-144489D01*
Y-166170D01*
X-144989D01*
Y-164229D01*
X-145057Y-164257D01*
X-145472Y-163979D01*
Y120330D01*
X-124803Y140945D01*
X44094D01*
Y103150D01*
D02*
G37*
G36*
X181885Y206049D02*
X181821Y205895D01*
X183762D01*
Y205395D01*
X184262D01*
Y203455D01*
X184427Y203523D01*
X184843Y203245D01*
Y-81104D01*
X164075Y-101719D01*
X-56595D01*
Y-63924D01*
X13129D01*
X13170Y-64023D01*
X13536Y-64389D01*
X14013Y-64587D01*
X14530D01*
X15008Y-64389D01*
X15373Y-64023D01*
X15414Y-63924D01*
X33553D01*
X33643Y-64059D01*
Y-64576D01*
X33841Y-65053D01*
X34207Y-65419D01*
X34684Y-65617D01*
X35201D01*
X35678Y-65419D01*
X36044Y-65053D01*
X36242Y-64576D01*
Y-64059D01*
X36332Y-63924D01*
X39400D01*
Y-67369D01*
X37596Y-69173D01*
X37143D01*
X36666Y-69371D01*
X36300Y-69736D01*
X36102Y-70214D01*
Y-70731D01*
X36300Y-71208D01*
X36666Y-71574D01*
X37143Y-71772D01*
X37660D01*
X38138Y-71574D01*
X38503Y-71208D01*
X38701Y-70731D01*
Y-70214D01*
X38602Y-69975D01*
X40491Y-68085D01*
X40679Y-67633D01*
Y-63924D01*
X109987D01*
X127310Y-81247D01*
X159744Y-81247D01*
X167421Y-75144D01*
Y181773D01*
X168464Y182816D01*
X168651Y183268D01*
Y206431D01*
X168768Y206549D01*
X181551D01*
X181885Y206049D01*
D02*
G37*
%LPC*%
G36*
X3256Y135799D02*
Y134358D01*
X4696D01*
X4438Y134982D01*
X3880Y135540D01*
X3256Y135799D01*
D02*
G37*
G36*
X2256D02*
X1632Y135540D01*
X1074Y134982D01*
X815Y134358D01*
X2256D01*
Y135799D01*
D02*
G37*
G36*
X21760Y135405D02*
Y133965D01*
X23201D01*
X22942Y134589D01*
X22384Y135147D01*
X21760Y135405D01*
D02*
G37*
G36*
X20760D02*
X20136Y135147D01*
X19578Y134589D01*
X19319Y133965D01*
X20760D01*
Y135405D01*
D02*
G37*
G36*
X4696Y133358D02*
X3256D01*
Y131918D01*
X3880Y132176D01*
X4438Y132734D01*
X4696Y133358D01*
D02*
G37*
G36*
X2256D02*
X815D01*
X1074Y132734D01*
X1632Y132176D01*
X2256Y131918D01*
Y133358D01*
D02*
G37*
G36*
X23201Y132965D02*
X21760D01*
Y131524D01*
X22384Y131782D01*
X22942Y132341D01*
X23201Y132965D01*
D02*
G37*
G36*
X20760D02*
X19319D01*
X19578Y132341D01*
X20136Y131782D01*
X20760Y131524D01*
Y132965D01*
D02*
G37*
G36*
X-143989Y-164229D02*
Y-165670D01*
X-142548D01*
X-142806Y-165046D01*
X-143365Y-164488D01*
X-143989Y-164229D01*
D02*
G37*
G36*
X183262Y204895D02*
X181821D01*
X182080Y204272D01*
X182638Y203713D01*
X183262Y203455D01*
Y204895D01*
D02*
G37*
G36*
X9018Y-64449D02*
X8501D01*
X8024Y-64647D01*
X7658Y-65012D01*
X7506Y-65380D01*
X7111D01*
X6659Y-65567D01*
X5276Y-66949D01*
X5180Y-66909D01*
X4663D01*
X4185Y-67107D01*
X3820Y-67473D01*
X3622Y-67950D01*
Y-68467D01*
X3820Y-68945D01*
X4185Y-69310D01*
X4663Y-69508D01*
X5180D01*
X5657Y-69310D01*
X6023Y-68945D01*
X6221Y-68467D01*
Y-67950D01*
X6180Y-67853D01*
X7345Y-66689D01*
X7863D01*
X8024Y-66849D01*
X8501Y-67047D01*
X9018D01*
X9496Y-66849D01*
X9861Y-66484D01*
X10059Y-66006D01*
Y-65490D01*
X9861Y-65012D01*
X9496Y-64647D01*
X9018Y-64449D01*
D02*
G37*
G36*
X357Y-66811D02*
X-160D01*
X-637Y-67009D01*
X-1003Y-67374D01*
X-1043Y-67471D01*
X-4469D01*
X-4509Y-67374D01*
X-4874Y-67009D01*
X-5352Y-66811D01*
X-5869D01*
X-6346Y-67009D01*
X-6712Y-67374D01*
X-6909Y-67852D01*
Y-68369D01*
X-6712Y-68846D01*
X-6346Y-69212D01*
X-5869Y-69410D01*
X-5352D01*
X-4874Y-69212D01*
X-4509Y-68846D01*
X-4469Y-68749D01*
X-1043D01*
X-1003Y-68846D01*
X-637Y-69212D01*
X-160Y-69410D01*
X357D01*
X834Y-69212D01*
X1200Y-68846D01*
X1398Y-68369D01*
Y-67852D01*
X1200Y-67374D01*
X834Y-67009D01*
X357Y-66811D01*
D02*
G37*
G36*
X17778Y-69961D02*
X17261D01*
X16784Y-70158D01*
X16418Y-70524D01*
X16378Y-70621D01*
X10226D01*
X9952Y-70734D01*
X9510Y-70551D01*
X8993D01*
X8516Y-70749D01*
X8151Y-71114D01*
X7953Y-71592D01*
Y-72109D01*
X8151Y-72586D01*
X8516Y-72952D01*
X8993Y-73150D01*
X9510D01*
X9988Y-72952D01*
X10353Y-72586D01*
X10551Y-72109D01*
Y-71899D01*
X16378D01*
X16418Y-71996D01*
X16784Y-72361D01*
X17261Y-72559D01*
X17778D01*
X18256Y-72361D01*
X18621Y-71996D01*
X18819Y-71518D01*
Y-71001D01*
X18621Y-70524D01*
X18256Y-70158D01*
X17778Y-69961D01*
D02*
G37*
G36*
X160Y-70354D02*
X-357D01*
X-834Y-70552D01*
X-1200Y-70918D01*
X-1240Y-71014D01*
X-4370D01*
X-4410Y-70918D01*
X-4776Y-70552D01*
X-5253Y-70354D01*
X-5770D01*
X-6248Y-70552D01*
X-6613Y-70918D01*
X-6811Y-71395D01*
Y-71912D01*
X-6613Y-72390D01*
X-6248Y-72755D01*
X-5770Y-72953D01*
X-5253D01*
X-4776Y-72755D01*
X-4410Y-72390D01*
X-4370Y-72293D01*
X-1240D01*
X-1200Y-72390D01*
X-834Y-72755D01*
X-357Y-72953D01*
X160D01*
X637Y-72755D01*
X1003Y-72390D01*
X1201Y-71912D01*
Y-71395D01*
X1003Y-70918D01*
X637Y-70552D01*
X160Y-70354D01*
D02*
G37*
G36*
X-52650Y-77095D02*
Y-78535D01*
X-51209D01*
X-51467Y-77911D01*
X-52026Y-77353D01*
X-52650Y-77095D01*
D02*
G37*
G36*
X-53650D02*
X-54274Y-77353D01*
X-54832Y-77911D01*
X-55090Y-78535D01*
X-53650D01*
Y-77095D01*
D02*
G37*
G36*
X115219Y-76260D02*
X114702D01*
X114225Y-76458D01*
X113859Y-76823D01*
X113687Y-77239D01*
X113352Y-77378D01*
X110099Y-80631D01*
X110003Y-80590D01*
X109486D01*
X109008Y-80788D01*
X108643Y-81154D01*
X108445Y-81631D01*
Y-82148D01*
X108643Y-82626D01*
X109008Y-82991D01*
X109486Y-83189D01*
X110003D01*
X110480Y-82991D01*
X110845Y-82626D01*
X111043Y-82148D01*
Y-81631D01*
X111003Y-81535D01*
X114051Y-78487D01*
X114225Y-78661D01*
X114702Y-78858D01*
X115219D01*
X115697Y-78661D01*
X116062Y-78295D01*
X116260Y-77817D01*
Y-77301D01*
X116062Y-76823D01*
X115697Y-76458D01*
X115219Y-76260D01*
D02*
G37*
G36*
X-51209Y-79535D02*
X-52650D01*
Y-80976D01*
X-52026Y-80718D01*
X-51467Y-80159D01*
X-51209Y-79535D01*
D02*
G37*
G36*
X-53650D02*
X-55090D01*
X-54832Y-80159D01*
X-54274Y-80718D01*
X-53650Y-80976D01*
Y-79535D01*
D02*
G37*
G36*
X-135Y-81870D02*
X-652D01*
X-1130Y-82068D01*
X-1495Y-82433D01*
X-1556Y-82579D01*
X-4095D01*
X-4115Y-82532D01*
X-4481Y-82166D01*
X-4958Y-81968D01*
X-5475D01*
X-5953Y-82166D01*
X-6318Y-82532D01*
X-6516Y-83009D01*
Y-83526D01*
X-6318Y-84004D01*
X-5953Y-84369D01*
X-5475Y-84567D01*
X-4958D01*
X-4481Y-84369D01*
X-4115Y-84004D01*
X-4055Y-83858D01*
X-1515D01*
X-1495Y-83905D01*
X-1130Y-84271D01*
X-652Y-84469D01*
X-135D01*
X342Y-84271D01*
X708Y-83905D01*
X905Y-83428D01*
Y-82911D01*
X708Y-82433D01*
X342Y-82068D01*
X-135Y-81870D01*
D02*
G37*
G36*
X18514Y-92298D02*
Y-93739D01*
X19954D01*
X19696Y-93115D01*
X19138Y-92557D01*
X18514Y-92298D01*
D02*
G37*
G36*
X17514D02*
X16890Y-92557D01*
X16331Y-93115D01*
X16073Y-93739D01*
X17514D01*
Y-92298D01*
D02*
G37*
G36*
X37017Y-92692D02*
Y-94133D01*
X38458D01*
X38199Y-93508D01*
X37641Y-92950D01*
X37017Y-92692D01*
D02*
G37*
G36*
X36017D02*
X35393Y-92950D01*
X34835Y-93508D01*
X34577Y-94133D01*
X36017D01*
Y-92692D01*
D02*
G37*
G36*
X19954Y-94739D02*
X18514D01*
Y-96179D01*
X19138Y-95921D01*
X19696Y-95363D01*
X19954Y-94739D01*
D02*
G37*
G36*
X17514D02*
X16073D01*
X16331Y-95363D01*
X16890Y-95921D01*
X17514Y-96179D01*
Y-94739D01*
D02*
G37*
G36*
X38458Y-95132D02*
X37017D01*
Y-96573D01*
X37641Y-96315D01*
X38199Y-95756D01*
X38458Y-95132D01*
D02*
G37*
G36*
X36017D02*
X34577D01*
X34835Y-95756D01*
X35393Y-96315D01*
X36017Y-96573D01*
Y-95132D01*
D02*
G37*
%LPD*%
G36*
G01X97294Y-61024D02*
G01X42470D01*
G02X39370Y-57924I0J3100D01*
G01Y-30659D01*
G03X36270Y-27559I-3100J0D01*
G01X3100D01*
G03X0Y-30659I0J-3100D01*
G01Y-57924D01*
G02X-3100Y-61024I-3100J0D01*
G01X-57924D01*
G02X-61024Y-57924I0J3100D01*
G01Y97294D01*
G02X-57924Y100394I3100J0D01*
G01X0D01*
G01Y70029D01*
G03X3100Y66929I3100J0D01*
G01X36270D01*
G03X39370Y70029I0J3100D01*
G01Y97294D01*
G02X42470Y100394I3100J0D01*
G01X97294D01*
G02X100394Y97294I0J-3100D01*
G01Y-57924D01*
G02X97294Y-61024I-3100J0D01*
D02*
G37*
D27*
X-90551Y-122047D02*
Y98425D01*
Y-122047D02*
X129921D01*
Y-59055D02*
Y161417D01*
X-90551D02*
X129921D01*
D28*
X37402Y-70271D02*
X40039Y-67633D01*
X37402Y-70472D02*
Y-70271D01*
X40039Y-67633D02*
Y-61955D01*
X113804Y-77830D02*
X114690D01*
X114961Y-77559D01*
X109744Y-81890D02*
X113804Y-77830D01*
X29134Y-58268D02*
X29380Y-58022D01*
Y-49459D01*
X29626Y-49213D01*
X169095Y207779D02*
Y212008D01*
X168012Y206696D02*
X169095Y207779D01*
X168012Y183268D02*
Y206696D01*
X165453Y180709D02*
X168012Y183268D01*
X9252Y87598D02*
X9449Y87795D01*
X-10236Y87402D02*
X-10039Y87598D01*
X28346Y98425D02*
Y104724D01*
X-10039Y87598D02*
X9252D01*
X44242Y-48031D02*
X49365D01*
X43848Y-48425D02*
X44242Y-48031D01*
X37008Y-48425D02*
X43848D01*
X38673Y-60371D02*
X40039Y-61738D01*
X40968Y-62500D02*
X52362D01*
X40367Y-61899D02*
X40968Y-62500D01*
X36831Y-60313D02*
X36889Y-60371D01*
X38673D01*
X10927Y-65499D02*
Y-59199D01*
X-5512Y-71653D02*
X-98D01*
X40039Y-61955D02*
Y-61899D01*
Y-61738D01*
Y-61899D02*
X40367D01*
X9635Y-71850D02*
X10226Y-71260D01*
X9252Y-71850D02*
X9635D01*
X10226Y-71260D02*
X17520D01*
X-5610Y-68110D02*
X98D01*
X8489Y-66019D02*
X8760Y-65748D01*
X7111Y-66019D02*
X8489D01*
X4921Y-68209D02*
X7111Y-66019D01*
X14272Y-63287D02*
X17028Y-60532D01*
X21063D01*
X-443Y-83218D02*
X-394Y-83169D01*
X-5167Y-83218D02*
X-443D01*
X-5217Y-83268D02*
X-5167Y-83218D01*
X34943Y-64318D02*
Y-57231D01*
X49365Y-48031D02*
X49510Y-48176D01*
D29*
X-66082Y103877D02*
X-61811Y99606D01*
X-55512D02*
X-52756Y96850D01*
Y92126D02*
Y96850D01*
X-61811Y99606D02*
X-55512D01*
X94785Y-60381D02*
X101084D01*
X92029Y-57625D02*
Y-52900D01*
Y-57625D02*
X94785Y-60381D01*
X101084D02*
X105355Y-64651D01*
X-52953Y91929D02*
X-51378Y90354D01*
X90651Y-51129D02*
X92226Y-52703D01*
D30*
X42520Y42520D02*
Y103150D01*
X19685Y19685D02*
X42520Y42520D01*
X-3543Y98819D02*
Y103937D01*
X-10236Y92126D02*
X-3543Y98819D01*
X-3246Y-3294D02*
X19588Y19541D01*
X-3246Y-63924D02*
Y-3294D01*
X55118Y-64253D02*
Y-58268D01*
X49606Y-52756D02*
X55118Y-58268D01*
X32358Y-41043D02*
X32677D01*
X20276Y-40354D02*
X31669D01*
X32358Y-41043D01*
D31*
X19291Y19685D02*
X19685D01*
X-51378Y90354D02*
X19291Y19685D01*
X19588Y19541D02*
X19982D01*
X90651Y-51129D01*
D34*
X-90551Y98425D02*
D03*
X129921Y-59055D02*
D03*
Y-122047D02*
D03*
X35433D02*
D03*
X3937D02*
D03*
X-59055D02*
D03*
X-27559D02*
D03*
X98425D02*
D03*
X66929D02*
D03*
X129921Y161417D02*
D03*
X35433D02*
D03*
X3937D02*
D03*
X-59055D02*
D03*
X-27559D02*
D03*
X98425D02*
D03*
X66929D02*
D03*
X-90551D02*
D03*
X129921Y129921D02*
D03*
Y35433D02*
D03*
Y3937D02*
D03*
Y-27559D02*
D03*
Y98425D02*
D03*
Y66929D02*
D03*
X-90551Y-122047D02*
D03*
Y-90551D02*
D03*
Y-59055D02*
D03*
Y-27559D02*
D03*
Y3937D02*
D03*
Y35433D02*
D03*
Y66929D02*
D03*
D35*
X167913Y212008D02*
D03*
D36*
X169095D02*
D03*
X171457D02*
D03*
X173819D02*
D03*
X176181D02*
D03*
X178543D02*
D03*
X180905D02*
D03*
X183268D02*
D03*
D37*
X170276D02*
D03*
X172638D02*
D03*
X175000D02*
D03*
X177362D02*
D03*
X179724D02*
D03*
X182087D02*
D03*
D38*
X184449D02*
D03*
D39*
X-128543Y-172638D02*
D03*
D40*
X-129724D02*
D03*
X-132087D02*
D03*
X-134449D02*
D03*
X-136811D02*
D03*
X-139173D02*
D03*
X-141535D02*
D03*
X-143898D02*
D03*
D41*
X-130905D02*
D03*
X-133268D02*
D03*
X-135630D02*
D03*
X-137992D02*
D03*
X-140354D02*
D03*
X-142717D02*
D03*
D42*
X-145079D02*
D03*
D43*
X37402Y-70472D02*
D03*
X114961Y-77559D02*
D03*
X29134Y-58268D02*
D03*
X-52756Y-52756D02*
D03*
Y-49606D02*
D03*
X-50394Y-51181D02*
D03*
X-52756Y-46457D02*
D03*
X-50394Y-48031D02*
D03*
Y-44882D02*
D03*
X-52756Y-43307D02*
D03*
Y-40157D02*
D03*
X-50394Y-41732D02*
D03*
X-52756Y-37008D02*
D03*
X-50394Y-38583D02*
D03*
Y-35433D02*
D03*
X-52756Y-33858D02*
D03*
Y-30709D02*
D03*
X-50394Y-32283D02*
D03*
X-52756Y-27559D02*
D03*
X-50394Y-29134D02*
D03*
Y-25984D02*
D03*
X-52756Y-24409D02*
D03*
Y-21260D02*
D03*
X-50394Y-22835D02*
D03*
X-52756Y-18110D02*
D03*
X-50394Y-19685D02*
D03*
Y-16535D02*
D03*
X-52756Y-14961D02*
D03*
Y-11811D02*
D03*
X-50394Y-13386D02*
D03*
X-52756Y-8661D02*
D03*
X-50394Y-10236D02*
D03*
Y-7087D02*
D03*
X-52756Y-5512D02*
D03*
Y-2362D02*
D03*
X-50394Y-3937D02*
D03*
X-52756Y787D02*
D03*
X-50394Y-787D02*
D03*
Y2362D02*
D03*
X-52756Y3937D02*
D03*
Y7087D02*
D03*
X-50394Y5512D02*
D03*
X-52756Y10236D02*
D03*
X-50394Y8661D02*
D03*
Y11811D02*
D03*
X-52756Y13386D02*
D03*
Y16535D02*
D03*
X-50394Y14961D02*
D03*
X-52756Y19685D02*
D03*
X-50394Y18110D02*
D03*
Y21260D02*
D03*
X-52756Y22835D02*
D03*
Y25984D02*
D03*
X-50394Y24409D02*
D03*
X-52756Y29134D02*
D03*
X-50394Y27559D02*
D03*
Y30709D02*
D03*
X-52756Y32283D02*
D03*
Y35433D02*
D03*
X-50394Y33858D02*
D03*
X-52756Y38583D02*
D03*
X-50394Y37008D02*
D03*
Y40157D02*
D03*
X-52756Y41732D02*
D03*
Y44882D02*
D03*
X-50394Y43307D02*
D03*
X-52756Y48031D02*
D03*
X-50394Y46457D02*
D03*
Y49606D02*
D03*
X-52756Y51181D02*
D03*
Y54331D02*
D03*
X-50394Y52756D02*
D03*
X-52756Y57480D02*
D03*
X-50394Y55905D02*
D03*
Y59055D02*
D03*
X-52756Y60630D02*
D03*
Y63779D02*
D03*
X-50394Y62205D02*
D03*
X-52756Y66929D02*
D03*
X-50394Y65354D02*
D03*
Y68504D02*
D03*
X-52756Y70079D02*
D03*
Y73228D02*
D03*
X-50394Y71653D02*
D03*
X-52756Y76378D02*
D03*
X-50394Y74803D02*
D03*
Y77953D02*
D03*
X-52756Y79527D02*
D03*
Y82677D02*
D03*
X-50394Y81102D02*
D03*
X-52756Y85827D02*
D03*
X-50394Y84252D02*
D03*
Y87402D02*
D03*
X-52756Y88976D02*
D03*
Y92126D02*
D03*
X-50394Y90551D02*
D03*
X-48031Y-52756D02*
D03*
Y-49606D02*
D03*
X-45669Y-51181D02*
D03*
X-48031Y-46457D02*
D03*
X-45669Y-48031D02*
D03*
Y-44882D02*
D03*
X-48031Y-43307D02*
D03*
Y-40157D02*
D03*
X-45669Y-41732D02*
D03*
X-48031Y-37008D02*
D03*
X-45669Y-38583D02*
D03*
Y-35433D02*
D03*
X-48031Y-33858D02*
D03*
Y-30709D02*
D03*
X-45669Y-32283D02*
D03*
X-48031Y-27559D02*
D03*
X-45669Y-29134D02*
D03*
Y-25984D02*
D03*
X-48031Y-24409D02*
D03*
Y-21260D02*
D03*
X-45669Y-22835D02*
D03*
X-48031Y-18110D02*
D03*
X-45669Y-19685D02*
D03*
Y-16535D02*
D03*
X-48031Y-14961D02*
D03*
Y-11811D02*
D03*
X-45669Y-13386D02*
D03*
X-48031Y-8661D02*
D03*
X-45669Y-10236D02*
D03*
Y-7087D02*
D03*
X-48031Y-5512D02*
D03*
Y-2362D02*
D03*
X-45669Y-3937D02*
D03*
X-48031Y787D02*
D03*
X-45669Y-787D02*
D03*
Y2362D02*
D03*
X-48031Y3937D02*
D03*
Y7087D02*
D03*
X-45669Y5512D02*
D03*
X-48031Y10236D02*
D03*
X-45669Y8661D02*
D03*
Y11811D02*
D03*
X-48031Y13386D02*
D03*
Y16535D02*
D03*
X-45669Y14961D02*
D03*
X-48031Y19685D02*
D03*
X-45669Y18110D02*
D03*
Y21260D02*
D03*
X-48031Y22835D02*
D03*
Y25984D02*
D03*
X-45669Y24409D02*
D03*
X-48031Y29134D02*
D03*
X-45669Y27559D02*
D03*
Y30709D02*
D03*
X-48031Y32283D02*
D03*
Y35433D02*
D03*
X-45669Y33858D02*
D03*
X-48031Y38583D02*
D03*
X-45669Y37008D02*
D03*
Y40157D02*
D03*
X-48031Y41732D02*
D03*
Y44882D02*
D03*
X-45669Y43307D02*
D03*
X-48031Y48031D02*
D03*
X-45669Y46457D02*
D03*
Y49606D02*
D03*
X-48031Y51181D02*
D03*
Y54331D02*
D03*
X-45669Y52756D02*
D03*
X-48031Y57480D02*
D03*
X-45669Y55905D02*
D03*
Y59055D02*
D03*
X-48031Y60630D02*
D03*
Y63779D02*
D03*
X-45669Y62205D02*
D03*
X-48031Y66929D02*
D03*
X-45669Y65354D02*
D03*
Y68504D02*
D03*
X-48031Y70079D02*
D03*
Y73228D02*
D03*
X-45669Y71653D02*
D03*
X-48031Y76378D02*
D03*
X-45669Y74803D02*
D03*
Y77953D02*
D03*
X-48031Y79527D02*
D03*
Y82677D02*
D03*
X-45669Y81102D02*
D03*
X-48031Y85827D02*
D03*
X-45669Y84252D02*
D03*
Y87402D02*
D03*
X-48031Y88976D02*
D03*
Y92126D02*
D03*
X-45669Y90551D02*
D03*
X-43307Y-52756D02*
D03*
Y-49606D02*
D03*
X-40945Y-51181D02*
D03*
X-43307Y-46457D02*
D03*
X-40945Y-48031D02*
D03*
Y-44882D02*
D03*
X-43307Y-43307D02*
D03*
Y-40157D02*
D03*
X-40945Y-41732D02*
D03*
X-43307Y-37008D02*
D03*
X-40945Y-38583D02*
D03*
Y-35433D02*
D03*
X-43307Y-33858D02*
D03*
Y-30709D02*
D03*
X-40945Y-32283D02*
D03*
X-43307Y-27559D02*
D03*
X-40945Y-29134D02*
D03*
Y-25984D02*
D03*
X-43307Y-24409D02*
D03*
Y-21260D02*
D03*
X-40945Y-22835D02*
D03*
X-43307Y-18110D02*
D03*
X-40945Y-19685D02*
D03*
Y-16535D02*
D03*
X-43307Y-14961D02*
D03*
Y-11811D02*
D03*
X-40945Y-13386D02*
D03*
X-43307Y-8661D02*
D03*
X-40945Y-10236D02*
D03*
Y-7087D02*
D03*
X-43307Y-5512D02*
D03*
Y-2362D02*
D03*
X-40945Y-3937D02*
D03*
X-43307Y787D02*
D03*
X-40945Y-787D02*
D03*
Y2362D02*
D03*
X-43307Y3937D02*
D03*
Y7087D02*
D03*
X-40945Y5512D02*
D03*
X-43307Y10236D02*
D03*
X-40945Y8661D02*
D03*
Y11811D02*
D03*
X-43307Y13386D02*
D03*
Y16535D02*
D03*
X-40945Y14961D02*
D03*
X-43307Y19685D02*
D03*
X-40945Y18110D02*
D03*
Y21260D02*
D03*
X-43307Y22835D02*
D03*
Y25984D02*
D03*
X-40945Y24409D02*
D03*
X-43307Y29134D02*
D03*
X-40945Y27559D02*
D03*
Y30709D02*
D03*
X-43307Y32283D02*
D03*
Y35433D02*
D03*
X-40945Y33858D02*
D03*
X-43307Y38583D02*
D03*
X-40945Y37008D02*
D03*
Y40157D02*
D03*
X-43307Y41732D02*
D03*
Y44882D02*
D03*
X-40945Y43307D02*
D03*
X-43307Y48031D02*
D03*
X-40945Y46457D02*
D03*
Y49606D02*
D03*
X-43307Y51181D02*
D03*
Y54331D02*
D03*
X-40945Y52756D02*
D03*
X-43307Y57480D02*
D03*
X-40945Y55905D02*
D03*
Y59055D02*
D03*
X-43307Y60630D02*
D03*
Y63779D02*
D03*
X-40945Y62205D02*
D03*
X-43307Y66929D02*
D03*
X-40945Y65354D02*
D03*
Y68504D02*
D03*
X-43307Y70079D02*
D03*
Y73228D02*
D03*
X-40945Y71653D02*
D03*
X-43307Y76378D02*
D03*
X-40945Y74803D02*
D03*
Y77953D02*
D03*
X-43307Y79527D02*
D03*
Y82677D02*
D03*
X-40945Y81102D02*
D03*
X-43307Y85827D02*
D03*
X-40945Y84252D02*
D03*
Y87402D02*
D03*
X-43307Y88976D02*
D03*
Y92126D02*
D03*
X-40945Y90551D02*
D03*
X92174Y92148D02*
D03*
Y88998D02*
D03*
X89812Y90573D02*
D03*
X92174Y85849D02*
D03*
X89812Y87423D02*
D03*
Y84274D02*
D03*
X92174Y82699D02*
D03*
Y79549D02*
D03*
X89812Y81124D02*
D03*
X92174Y76400D02*
D03*
X89812Y77974D02*
D03*
Y74825D02*
D03*
X92174Y73250D02*
D03*
Y70100D02*
D03*
X89812Y71675D02*
D03*
X92174Y66951D02*
D03*
X89812Y68526D02*
D03*
Y65376D02*
D03*
X92174Y63801D02*
D03*
Y60652D02*
D03*
X89812Y62226D02*
D03*
X92174Y57502D02*
D03*
X89812Y59077D02*
D03*
Y55927D02*
D03*
X92174Y54352D02*
D03*
Y51203D02*
D03*
X89812Y52778D02*
D03*
X92174Y48053D02*
D03*
X89812Y49628D02*
D03*
Y46479D02*
D03*
X92174Y44904D02*
D03*
Y41754D02*
D03*
X89812Y43329D02*
D03*
X92174Y38605D02*
D03*
X89812Y40179D02*
D03*
Y37030D02*
D03*
X92174Y35455D02*
D03*
Y32305D02*
D03*
X89812Y33880D02*
D03*
X92174Y29156D02*
D03*
X89812Y30731D02*
D03*
Y27581D02*
D03*
X92174Y26006D02*
D03*
Y22857D02*
D03*
X89812Y24431D02*
D03*
X92174Y19707D02*
D03*
X89812Y21282D02*
D03*
Y18132D02*
D03*
X92174Y16557D02*
D03*
Y13408D02*
D03*
X89812Y14982D02*
D03*
X92174Y10258D02*
D03*
X89812Y11833D02*
D03*
Y8683D02*
D03*
X92174Y7108D02*
D03*
Y3959D02*
D03*
X89812Y5534D02*
D03*
X92174Y809D02*
D03*
X89812Y2384D02*
D03*
Y-766D02*
D03*
X92174Y-2340D02*
D03*
Y-5490D02*
D03*
X89812Y-3915D02*
D03*
X92174Y-8640D02*
D03*
X89812Y-7065D02*
D03*
Y-10214D02*
D03*
X92174Y-11789D02*
D03*
Y-14939D02*
D03*
X89812Y-13364D02*
D03*
X92174Y-18088D02*
D03*
X89812Y-16514D02*
D03*
Y-19663D02*
D03*
X92174Y-21238D02*
D03*
Y-24388D02*
D03*
X89812Y-22813D02*
D03*
X92174Y-27537D02*
D03*
X89812Y-25962D02*
D03*
Y-29112D02*
D03*
X92174Y-30687D02*
D03*
Y-33836D02*
D03*
X89812Y-32262D02*
D03*
X92174Y-36986D02*
D03*
X89812Y-35411D02*
D03*
Y-38561D02*
D03*
X92174Y-40136D02*
D03*
Y-43285D02*
D03*
X89812Y-41710D02*
D03*
X92174Y-46435D02*
D03*
X89812Y-44860D02*
D03*
Y-48010D02*
D03*
X92174Y-49584D02*
D03*
Y-52734D02*
D03*
X89812Y-51159D02*
D03*
X87450Y92148D02*
D03*
Y88998D02*
D03*
X85087Y90573D02*
D03*
X87450Y85849D02*
D03*
X85087Y87423D02*
D03*
Y84274D02*
D03*
X87450Y82699D02*
D03*
Y79549D02*
D03*
X85087Y81124D02*
D03*
X87450Y76400D02*
D03*
X85087Y77974D02*
D03*
Y74825D02*
D03*
X87450Y73250D02*
D03*
Y70100D02*
D03*
X85087Y71675D02*
D03*
X87450Y66951D02*
D03*
X85087Y68526D02*
D03*
Y65376D02*
D03*
X87450Y63801D02*
D03*
Y60652D02*
D03*
X85087Y62226D02*
D03*
X87450Y57502D02*
D03*
X85087Y59077D02*
D03*
Y55927D02*
D03*
X87450Y54352D02*
D03*
Y51203D02*
D03*
X85087Y52778D02*
D03*
X87450Y48053D02*
D03*
X85087Y49628D02*
D03*
Y46479D02*
D03*
X87450Y44904D02*
D03*
Y41754D02*
D03*
X85087Y43329D02*
D03*
X87450Y38605D02*
D03*
X85087Y40179D02*
D03*
Y37030D02*
D03*
X87450Y35455D02*
D03*
Y32305D02*
D03*
X85087Y33880D02*
D03*
X87450Y29156D02*
D03*
X85087Y30731D02*
D03*
Y27581D02*
D03*
X87450Y26006D02*
D03*
Y22857D02*
D03*
X85087Y24431D02*
D03*
X87450Y19707D02*
D03*
X85087Y21282D02*
D03*
Y18132D02*
D03*
X87450Y16557D02*
D03*
Y13408D02*
D03*
X85087Y14982D02*
D03*
X87450Y10258D02*
D03*
X85087Y11833D02*
D03*
Y8683D02*
D03*
X87450Y7108D02*
D03*
Y3959D02*
D03*
X85087Y5534D02*
D03*
X87450Y809D02*
D03*
X85087Y2384D02*
D03*
Y-766D02*
D03*
X87450Y-2340D02*
D03*
Y-5490D02*
D03*
X85087Y-3915D02*
D03*
X87450Y-8640D02*
D03*
X85087Y-7065D02*
D03*
Y-10214D02*
D03*
X87450Y-11789D02*
D03*
Y-14939D02*
D03*
X85087Y-13364D02*
D03*
X87450Y-18088D02*
D03*
X85087Y-16514D02*
D03*
Y-19663D02*
D03*
X87450Y-21238D02*
D03*
Y-24388D02*
D03*
X85087Y-22813D02*
D03*
X87450Y-27537D02*
D03*
X85087Y-25962D02*
D03*
Y-29112D02*
D03*
X87450Y-30687D02*
D03*
Y-33836D02*
D03*
X85087Y-32262D02*
D03*
X87450Y-36986D02*
D03*
X85087Y-35411D02*
D03*
Y-38561D02*
D03*
X87450Y-40136D02*
D03*
Y-43285D02*
D03*
X85087Y-41710D02*
D03*
X87450Y-46435D02*
D03*
X85087Y-44860D02*
D03*
Y-48010D02*
D03*
X87450Y-49584D02*
D03*
Y-52734D02*
D03*
X85087Y-51159D02*
D03*
X82725Y92148D02*
D03*
Y88998D02*
D03*
X80363Y90573D02*
D03*
X82725Y85849D02*
D03*
X80363Y87423D02*
D03*
Y84274D02*
D03*
X82725Y82699D02*
D03*
Y79549D02*
D03*
X80363Y81124D02*
D03*
X82725Y76400D02*
D03*
X80363Y77974D02*
D03*
Y74825D02*
D03*
X82725Y73250D02*
D03*
Y70100D02*
D03*
X80363Y71675D02*
D03*
X82725Y66951D02*
D03*
X80363Y68526D02*
D03*
Y65376D02*
D03*
X82725Y63801D02*
D03*
Y60652D02*
D03*
X80363Y62226D02*
D03*
X82725Y57502D02*
D03*
X80363Y59077D02*
D03*
Y55927D02*
D03*
X82725Y54352D02*
D03*
Y51203D02*
D03*
X80363Y52778D02*
D03*
X82725Y48053D02*
D03*
X80363Y49628D02*
D03*
Y46479D02*
D03*
X82725Y44904D02*
D03*
Y41754D02*
D03*
X80363Y43329D02*
D03*
X82725Y38605D02*
D03*
X80363Y40179D02*
D03*
Y37030D02*
D03*
X82725Y35455D02*
D03*
Y32305D02*
D03*
X80363Y33880D02*
D03*
X82725Y29156D02*
D03*
X80363Y30731D02*
D03*
Y27581D02*
D03*
X82725Y26006D02*
D03*
Y22857D02*
D03*
X80363Y24431D02*
D03*
X82725Y19707D02*
D03*
X80363Y21282D02*
D03*
Y18132D02*
D03*
X82725Y16557D02*
D03*
Y13408D02*
D03*
X80363Y14982D02*
D03*
X82725Y10258D02*
D03*
X80363Y11833D02*
D03*
Y8683D02*
D03*
X82725Y7108D02*
D03*
Y3959D02*
D03*
X80363Y5534D02*
D03*
X82725Y809D02*
D03*
X80363Y2384D02*
D03*
Y-766D02*
D03*
X82725Y-2340D02*
D03*
Y-5490D02*
D03*
X80363Y-3915D02*
D03*
X82725Y-8640D02*
D03*
X80363Y-7065D02*
D03*
Y-10214D02*
D03*
X82725Y-11789D02*
D03*
Y-14939D02*
D03*
X80363Y-13364D02*
D03*
X82725Y-18088D02*
D03*
X80363Y-16514D02*
D03*
Y-19663D02*
D03*
X82725Y-21238D02*
D03*
Y-24388D02*
D03*
X80363Y-22813D02*
D03*
X82725Y-27537D02*
D03*
X80363Y-25962D02*
D03*
Y-29112D02*
D03*
X82725Y-30687D02*
D03*
Y-33836D02*
D03*
X80363Y-32262D02*
D03*
X82725Y-36986D02*
D03*
X80363Y-35411D02*
D03*
Y-38561D02*
D03*
X82725Y-40136D02*
D03*
Y-43285D02*
D03*
X80363Y-41710D02*
D03*
X82725Y-46435D02*
D03*
X80363Y-44860D02*
D03*
Y-48010D02*
D03*
X82725Y-49584D02*
D03*
Y-52734D02*
D03*
X80363Y-51159D02*
D03*
X-37008Y-40945D02*
D03*
X-38583Y-43307D02*
D03*
X-35433D02*
D03*
X-33858Y-40945D02*
D03*
X-30709D02*
D03*
X-32283Y-43307D02*
D03*
X-27559Y-40945D02*
D03*
X-29134Y-43307D02*
D03*
X-25984D02*
D03*
X-24409Y-40945D02*
D03*
X-21260D02*
D03*
X-22835Y-43307D02*
D03*
X-18110Y-40945D02*
D03*
X-19685Y-43307D02*
D03*
X-16535D02*
D03*
X-14961Y-40945D02*
D03*
X-11811D02*
D03*
X-13386Y-43307D02*
D03*
X-8661Y-40945D02*
D03*
X-10236Y-43307D02*
D03*
X48031Y-40945D02*
D03*
X49606Y-43307D02*
D03*
X51181Y-40945D02*
D03*
X54331D02*
D03*
X52756Y-43307D02*
D03*
X57480Y-40945D02*
D03*
X55905Y-43307D02*
D03*
X59055D02*
D03*
X60630Y-40945D02*
D03*
X63779D02*
D03*
X62205Y-43307D02*
D03*
X66929Y-40945D02*
D03*
X65354Y-43307D02*
D03*
X68504D02*
D03*
X70079Y-40945D02*
D03*
X73228D02*
D03*
X71653Y-43307D02*
D03*
X76378Y-40945D02*
D03*
X74803Y-43307D02*
D03*
X77953D02*
D03*
X-37008Y-45669D02*
D03*
X-38583Y-48031D02*
D03*
X-35433D02*
D03*
X-33858Y-45669D02*
D03*
X-30709D02*
D03*
X-32283Y-48031D02*
D03*
X-27559Y-45669D02*
D03*
X-29134Y-48031D02*
D03*
X-25984D02*
D03*
X-24409Y-45669D02*
D03*
X-21260D02*
D03*
X-22835Y-48031D02*
D03*
X-18110Y-45669D02*
D03*
X-19685Y-48031D02*
D03*
X-16535D02*
D03*
X-14961Y-45669D02*
D03*
X-11811D02*
D03*
X-13386Y-48031D02*
D03*
X-8661Y-45669D02*
D03*
X-10236Y-48031D02*
D03*
X48031Y-45669D02*
D03*
X49606Y-48031D02*
D03*
X51181Y-45669D02*
D03*
X54331D02*
D03*
X52756Y-48031D02*
D03*
X57480Y-45669D02*
D03*
X55905Y-48031D02*
D03*
X59055D02*
D03*
X60630Y-45669D02*
D03*
X63779D02*
D03*
X62205Y-48031D02*
D03*
X66929Y-45669D02*
D03*
X65354Y-48031D02*
D03*
X68504D02*
D03*
X70079Y-45669D02*
D03*
X73228D02*
D03*
X71653Y-48031D02*
D03*
X76378Y-45669D02*
D03*
X74803Y-48031D02*
D03*
X77953D02*
D03*
X-37008Y-50394D02*
D03*
X-38583Y-52756D02*
D03*
X-35433D02*
D03*
X-33858Y-50394D02*
D03*
X-30709D02*
D03*
X-32283Y-52756D02*
D03*
X-27559Y-50394D02*
D03*
X-29134Y-52756D02*
D03*
X-25984D02*
D03*
X-24409Y-50394D02*
D03*
X-21260D02*
D03*
X-22835Y-52756D02*
D03*
X-18110Y-50394D02*
D03*
X-19685Y-52756D02*
D03*
X-16535D02*
D03*
X-14961Y-50394D02*
D03*
X-11811D02*
D03*
X-13386Y-52756D02*
D03*
X-8661Y-50394D02*
D03*
X-10236Y-52756D02*
D03*
X48031Y-50394D02*
D03*
X49606Y-52756D02*
D03*
X51181Y-50394D02*
D03*
X54331D02*
D03*
X52756Y-52756D02*
D03*
X57480Y-50394D02*
D03*
X55905Y-52756D02*
D03*
X59055D02*
D03*
X60630Y-50394D02*
D03*
X63779D02*
D03*
X62205Y-52756D02*
D03*
X66929Y-50394D02*
D03*
X65354Y-52756D02*
D03*
X68504D02*
D03*
X70079Y-50394D02*
D03*
X73228D02*
D03*
X71653Y-52756D02*
D03*
X76378Y-50394D02*
D03*
X74803Y-52756D02*
D03*
X77953D02*
D03*
X76378Y80315D02*
D03*
X77953Y82677D02*
D03*
X74803D02*
D03*
X73228Y80315D02*
D03*
X70079D02*
D03*
X71653Y82677D02*
D03*
X66929Y80315D02*
D03*
X68504Y82677D02*
D03*
X65354D02*
D03*
X63779Y80315D02*
D03*
X60630D02*
D03*
X62205Y82677D02*
D03*
X57480Y80315D02*
D03*
X59055Y82677D02*
D03*
X55905D02*
D03*
X54331Y80315D02*
D03*
X51181D02*
D03*
X52756Y82677D02*
D03*
X48031Y80315D02*
D03*
X49606Y82677D02*
D03*
X-8661Y80315D02*
D03*
X-10236Y82677D02*
D03*
X-11811Y80315D02*
D03*
X-14961D02*
D03*
X-13386Y82677D02*
D03*
X-18110Y80315D02*
D03*
X-16535Y82677D02*
D03*
X-19685D02*
D03*
X-21260Y80315D02*
D03*
X-24409D02*
D03*
X-22835Y82677D02*
D03*
X-27559Y80315D02*
D03*
X-25984Y82677D02*
D03*
X-29134D02*
D03*
X-30709Y80315D02*
D03*
X-33858D02*
D03*
X-32283Y82677D02*
D03*
X-37008Y80315D02*
D03*
X-35433Y82677D02*
D03*
X-38583D02*
D03*
X76378Y85039D02*
D03*
X77953Y87402D02*
D03*
X74803D02*
D03*
X73228Y85039D02*
D03*
X70079D02*
D03*
X71653Y87402D02*
D03*
X66929Y85039D02*
D03*
X68504Y87402D02*
D03*
X65354D02*
D03*
X63779Y85039D02*
D03*
X60630D02*
D03*
X62205Y87402D02*
D03*
X57480Y85039D02*
D03*
X59055Y87402D02*
D03*
X55905D02*
D03*
X54331Y85039D02*
D03*
X51181D02*
D03*
X52756Y87402D02*
D03*
X48031Y85039D02*
D03*
X49606Y87402D02*
D03*
X-8661Y85039D02*
D03*
X-10236Y87402D02*
D03*
X-11811Y85039D02*
D03*
X-14961D02*
D03*
X-13386Y87402D02*
D03*
X-18110Y85039D02*
D03*
X-16535Y87402D02*
D03*
X-19685D02*
D03*
X-21260Y85039D02*
D03*
X-24409D02*
D03*
X-22835Y87402D02*
D03*
X-27559Y85039D02*
D03*
X-25984Y87402D02*
D03*
X-29134D02*
D03*
X-30709Y85039D02*
D03*
X-33858D02*
D03*
X-32283Y87402D02*
D03*
X-37008Y85039D02*
D03*
X-35433Y87402D02*
D03*
X-38583D02*
D03*
X76378Y89764D02*
D03*
X77953Y92126D02*
D03*
X74803D02*
D03*
X73228Y89764D02*
D03*
X70079D02*
D03*
X71653Y92126D02*
D03*
X66929Y89764D02*
D03*
X68504Y92126D02*
D03*
X65354D02*
D03*
X63779Y89764D02*
D03*
X60630D02*
D03*
X62205Y92126D02*
D03*
X57480Y89764D02*
D03*
X59055Y92126D02*
D03*
X55905D02*
D03*
X54331Y89764D02*
D03*
X51181D02*
D03*
X52756Y92126D02*
D03*
X48031Y89764D02*
D03*
X49606Y92126D02*
D03*
X-8661Y89764D02*
D03*
X-10236Y92126D02*
D03*
X-11811Y89764D02*
D03*
X-14961D02*
D03*
X-13386Y92126D02*
D03*
X-18110Y89764D02*
D03*
X-16535Y92126D02*
D03*
X-19685D02*
D03*
X-21260Y89764D02*
D03*
X-24409D02*
D03*
X-22835Y92126D02*
D03*
X-27559Y89764D02*
D03*
X-25984Y92126D02*
D03*
X-29134D02*
D03*
X-30709Y89764D02*
D03*
X-33858D02*
D03*
X-32283Y92126D02*
D03*
X-37008Y89764D02*
D03*
X-35433Y92126D02*
D03*
X-38583D02*
D03*
X-144489Y-166170D02*
D03*
X16553Y69788D02*
D03*
X4331Y103543D02*
D03*
X787Y105118D02*
D03*
X2362Y99606D02*
D03*
X9449Y87795D02*
D03*
X12205Y71653D02*
D03*
X10236Y80709D02*
D03*
X28346Y98425D02*
D03*
X2756Y133858D02*
D03*
X21260Y133465D02*
D03*
X22047Y71260D02*
D03*
X4331Y96457D02*
D03*
X21243Y68693D02*
D03*
X20079Y80709D02*
D03*
X183762Y205395D02*
D03*
X18031Y-29468D02*
D03*
X34943Y-57231D02*
D03*
X17226Y-32034D02*
D03*
X18013Y-94239D02*
D03*
X36517Y-94633D02*
D03*
X10927Y-59199D02*
D03*
X37008Y-48425D02*
D03*
X22721Y-30563D02*
D03*
X20276Y-40354D02*
D03*
X40039Y-61955D02*
D03*
X52362Y-62500D02*
D03*
X27069Y-32428D02*
D03*
X32677Y-41043D02*
D03*
X36831Y-60313D02*
D03*
X29626Y-49213D02*
D03*
X-5512Y-71653D02*
D03*
X-98D02*
D03*
X17520Y-71260D02*
D03*
X9252Y-71850D02*
D03*
X-5610Y-68110D02*
D03*
X98D02*
D03*
X4921Y-68209D02*
D03*
X8760Y-65748D02*
D03*
X21063Y-60532D02*
D03*
X14272Y-63287D02*
D03*
X-394Y-83169D02*
D03*
X-5217Y-83268D02*
D03*
X-53150Y-79035D02*
D03*
X109744Y-81890D02*
D03*
X165453Y180709D02*
D03*
X34943Y-64318D02*
D03*
D44*
X-90551Y98425D02*
Y161417D01*
X129921Y-122047D02*
Y-59055D01*
D45*
X16553Y69725D02*
Y69788D01*
Y69725D02*
X17774Y68504D01*
X394Y101575D02*
Y102936D01*
X787Y103330D01*
Y105118D01*
X394Y101575D02*
X2362Y99606D01*
X12205Y71653D02*
X12402Y71457D01*
X21850D01*
X22047Y71260D01*
X21053Y68504D02*
X21243Y68693D01*
X10236Y80709D02*
X20079D01*
X17774Y68504D02*
X21053D01*
X4331Y96457D02*
Y103543D01*
X18031Y-29468D02*
X18220Y-29278D01*
X21500D01*
X22721Y-30563D02*
Y-30499D01*
X21500Y-29278D02*
X22721Y-30499D01*
X17226Y-32034D02*
X17423Y-32231D01*
X26872D01*
X27069Y-32428D01*
%TF.MD5,5e838410055641415ec8a5915bd2938b*%
M02*
