G04*
G04 #@! TF.GenerationSoftware,Altium Limited,Altium Designer,23.8.1 (32)*
G04*
G04 Layer_Physical_Order=2*
G04 Layer_Color=16711680*
%FSLAX25Y25*%
%MOIN*%
G70*
G04*
G04 #@! TF.SameCoordinates,E08CAFE3-3647-4911-8EA2-20DD2F02231A*
G04*
G04*
G04 #@! TF.FilePolarity,Positive*
G04*
G01*
G75*
%ADD12C,0.00787*%
%ADD50C,0.30709*%
%ADD51C,0.00551*%
%ADD52C,0.01968*%
%ADD53C,0.03937*%
%ADD56C,0.30709*%
%AMCUSTOMSHAPE57*
4,1,11,-0.00591,-0.03937,-0.00591,0.03543,-0.00197,0.03937,-0.00197,0.03937,0.00197,0.03937,0.00591,0.03543,0.00591,0.01476,0.00197,0.01083,0.00197,-0.01476,0.00591,-0.01870,0.00591,-0.03937,-0.00591,-0.03937,0.0*%
%ADD57CUSTOMSHAPE57*%

%AMCUSTOMSHAPE58*
4,1,12,-0.00591,-0.01280,-0.00591,0.00886,-0.00197,0.01280,-0.00197,0.03937,0.00197,0.03937,0.00197,0.01280,0.00591,0.00886,0.00591,-0.01280,0.00197,-0.01673,0.00197,-0.03937,-0.00197,-0.03937,-0.00197,-0.01673,-0.00591,-0.01280,0.0*%
%ADD58CUSTOMSHAPE58*%

%AMCUSTOMSHAPE59*
4,1,14,-0.00591,-0.03937,-0.00591,-0.01870,-0.00197,-0.01476,-0.00197,0.01083,-0.00591,0.01476,-0.00591,0.03543,-0.00197,0.03937,0.00197,0.03937,0.00591,0.03543,0.00591,0.01476,0.00197,0.01083,0.00197,-0.01476,0.00591,-0.01870,0.00591,-0.03937,-0.00591,-0.03937,0.0*%
%ADD59CUSTOMSHAPE59*%

%AMCUSTOMSHAPE60*
4,1,12,-0.00591,-0.03937,-0.00591,-0.01870,-0.00197,-0.01476,-0.00197,-0.01476,-0.00197,0.01083,-0.00591,0.01476,-0.00591,0.01476,-0.00591,0.03543,-0.00197,0.03937,0.00197,0.03937,0.00591,0.03543,0.00591,-0.03937,-0.00591,-0.03937,0.0*%
%ADD60CUSTOMSHAPE60*%

%AMCUSTOMSHAPE61*
4,1,11,0.00591,0.03937,0.00591,-0.03543,0.00197,-0.03937,0.00197,-0.03937,-0.00197,-0.03937,-0.00591,-0.03543,-0.00591,-0.01476,-0.00197,-0.01083,-0.00197,0.01476,-0.00591,0.01870,-0.00591,0.03937,0.00591,0.03937,0.0*%
%ADD61CUSTOMSHAPE61*%

%AMCUSTOMSHAPE62*
4,1,12,0.00591,0.01280,0.00591,-0.00886,0.00197,-0.01280,0.00197,-0.03937,-0.00197,-0.03937,-0.00197,-0.01280,-0.00591,-0.00886,-0.00591,0.01280,-0.00197,0.01673,-0.00197,0.03937,0.00197,0.03937,0.00197,0.01673,0.00591,0.01280,0.0*%
%ADD62CUSTOMSHAPE62*%

%AMCUSTOMSHAPE63*
4,1,14,0.00591,0.03937,0.00591,0.01870,0.00197,0.01476,0.00197,-0.01083,0.00591,-0.01476,0.00591,-0.03543,0.00197,-0.03937,-0.00197,-0.03937,-0.00591,-0.03543,-0.00591,-0.01476,-0.00197,-0.01083,-0.00197,0.01476,-0.00591,0.01870,-0.00591,0.03937,0.00591,0.03937,0.0*%
%ADD63CUSTOMSHAPE63*%

%AMCUSTOMSHAPE64*
4,1,12,0.00591,0.03937,0.00591,0.01870,0.00197,0.01476,0.00197,0.01476,0.00197,-0.01083,0.00591,-0.01476,0.00591,-0.01476,0.00591,-0.03543,0.00197,-0.03937,-0.00197,-0.03937,-0.00591,-0.03543,-0.00591,0.03937,0.00591,0.03937,0.0*%
%ADD64CUSTOMSHAPE64*%

%ADD65C,0.01968*%
%ADD66C,0.15748*%
%ADD67C,0.00394*%
G36*
X24409Y83465D02*
X-13370D01*
Y84253D01*
X-13672Y84982D01*
X-14230Y85540D01*
X-14960Y85843D01*
X-15749D01*
X-16413Y85567D01*
X-16913Y85759D01*
Y85828D01*
X-17215Y86557D01*
X-17774Y87115D01*
X-18503Y87417D01*
X-19292D01*
X-20022Y87115D01*
X-20580Y86557D01*
X-20882Y85828D01*
Y85038D01*
X-20580Y84309D01*
X-20247Y83976D01*
X-20419Y83719D01*
X-20469Y83465D01*
X-86614D01*
X-103937Y100787D01*
X-141732Y100787D01*
X-148425Y94685D01*
Y-187008D01*
X-161962D01*
X-162296Y-186508D01*
X-162233Y-186355D01*
X-164174D01*
Y-185855D01*
X-164674D01*
Y-183699D01*
X-164925Y-183525D01*
X-164925Y-167126D01*
X-165003Y-166736D01*
X-165157Y-166504D01*
Y100645D01*
X-144488Y121260D01*
X24409D01*
Y83465D01*
D02*
G37*
G36*
X162200Y186364D02*
X162136Y186210D01*
X164077D01*
Y185710D01*
X164577D01*
Y183770D01*
X164742Y183838D01*
X165157Y183560D01*
Y-100789D01*
X144390Y-121404D01*
X-76279D01*
Y-83609D01*
X-6556D01*
X-6515Y-83708D01*
X-6149Y-84074D01*
X-5672Y-84272D01*
X-5155D01*
X-4677Y-84074D01*
X-4312Y-83708D01*
X-4271Y-83609D01*
X13868D01*
X13958Y-83744D01*
Y-84261D01*
X14156Y-84738D01*
X14522Y-85104D01*
X14999Y-85302D01*
X15516D01*
X15993Y-85104D01*
X16359Y-84738D01*
X16557Y-84261D01*
Y-83744D01*
X16647Y-83609D01*
X19715D01*
Y-87054D01*
X17911Y-88858D01*
X17458D01*
X16981Y-89056D01*
X16615Y-89421D01*
X16417Y-89899D01*
Y-90416D01*
X16615Y-90893D01*
X16981Y-91259D01*
X17458Y-91457D01*
X17975D01*
X18452Y-91259D01*
X18818Y-90893D01*
X19016Y-90416D01*
Y-89899D01*
X18917Y-89660D01*
X20806Y-87771D01*
X20994Y-87319D01*
Y-83609D01*
X90302D01*
X107625Y-100932D01*
X140059Y-100932D01*
X147736Y-94829D01*
Y162088D01*
X148779Y163131D01*
X148966Y163583D01*
Y186746D01*
X149083Y186864D01*
X161866D01*
X162200Y186364D01*
D02*
G37*
%LPC*%
G36*
X-16429Y116114D02*
Y114673D01*
X-14988D01*
X-15247Y115297D01*
X-15805Y115855D01*
X-16429Y116114D01*
D02*
G37*
G36*
X-17429D02*
X-18053Y115855D01*
X-18611Y115297D01*
X-18870Y114673D01*
X-17429D01*
Y116114D01*
D02*
G37*
G36*
X2075Y115720D02*
Y114279D01*
X3515D01*
X3257Y114903D01*
X2699Y115462D01*
X2075Y115720D01*
D02*
G37*
G36*
X1075D02*
X451Y115462D01*
X-107Y114903D01*
X-366Y114279D01*
X1075D01*
Y115720D01*
D02*
G37*
G36*
X-14988Y113673D02*
X-16429D01*
Y112233D01*
X-15805Y112491D01*
X-15247Y113049D01*
X-14988Y113673D01*
D02*
G37*
G36*
X-17429D02*
X-18870D01*
X-18611Y113049D01*
X-18053Y112491D01*
X-17429Y112233D01*
Y113673D01*
D02*
G37*
G36*
X3515Y113279D02*
X2075D01*
Y111839D01*
X2699Y112097D01*
X3257Y112655D01*
X3515Y113279D01*
D02*
G37*
G36*
X1075D02*
X-366D01*
X-107Y112655D01*
X451Y112097D01*
X1075Y111839D01*
Y113279D01*
D02*
G37*
G36*
X-163674Y-183914D02*
Y-185355D01*
X-162233D01*
X-162492Y-184731D01*
X-163050Y-184172D01*
X-163674Y-183914D01*
D02*
G37*
G36*
X163577Y185210D02*
X162136D01*
X162395Y184586D01*
X162953Y184028D01*
X163577Y183770D01*
Y185210D01*
D02*
G37*
G36*
X-10667Y-84134D02*
X-11184D01*
X-11661Y-84332D01*
X-12027Y-84697D01*
X-12179Y-85065D01*
X-12574D01*
X-13026Y-85252D01*
X-14409Y-86635D01*
X-14505Y-86594D01*
X-15022D01*
X-15500Y-86792D01*
X-15865Y-87158D01*
X-16063Y-87635D01*
Y-88152D01*
X-15865Y-88630D01*
X-15500Y-88995D01*
X-15022Y-89193D01*
X-14505D01*
X-14028Y-88995D01*
X-13662Y-88630D01*
X-13465Y-88152D01*
Y-87635D01*
X-13505Y-87538D01*
X-12310Y-86343D01*
X-11852D01*
X-11661Y-86535D01*
X-11184Y-86732D01*
X-10667D01*
X-10189Y-86535D01*
X-9824Y-86169D01*
X-9626Y-85691D01*
Y-85175D01*
X-9824Y-84697D01*
X-10189Y-84332D01*
X-10667Y-84134D01*
D02*
G37*
G36*
X-19328Y-86496D02*
X-19845D01*
X-20323Y-86694D01*
X-20688Y-87059D01*
X-20728Y-87156D01*
X-24154D01*
X-24194Y-87059D01*
X-24559Y-86694D01*
X-25037Y-86496D01*
X-25554D01*
X-26031Y-86694D01*
X-26397Y-87059D01*
X-26594Y-87537D01*
Y-88054D01*
X-26397Y-88531D01*
X-26031Y-88897D01*
X-25554Y-89095D01*
X-25037D01*
X-24559Y-88897D01*
X-24194Y-88531D01*
X-24154Y-88434D01*
X-20728D01*
X-20688Y-88531D01*
X-20323Y-88897D01*
X-19845Y-89095D01*
X-19328D01*
X-18851Y-88897D01*
X-18485Y-88531D01*
X-18287Y-88054D01*
Y-87537D01*
X-18485Y-87059D01*
X-18851Y-86694D01*
X-19328Y-86496D01*
D02*
G37*
G36*
X-1907Y-89646D02*
X-2424D01*
X-2901Y-89843D01*
X-3267Y-90209D01*
X-3307Y-90306D01*
X-9459D01*
X-9733Y-90419D01*
X-10175Y-90236D01*
X-10691D01*
X-11169Y-90434D01*
X-11535Y-90799D01*
X-11732Y-91277D01*
Y-91794D01*
X-11535Y-92271D01*
X-11169Y-92637D01*
X-10691Y-92835D01*
X-10175D01*
X-9697Y-92637D01*
X-9332Y-92271D01*
X-9134Y-91794D01*
Y-91584D01*
X-3307D01*
X-3267Y-91681D01*
X-2901Y-92046D01*
X-2424Y-92244D01*
X-1907D01*
X-1429Y-92046D01*
X-1064Y-91681D01*
X-866Y-91203D01*
Y-90687D01*
X-1064Y-90209D01*
X-1429Y-89843D01*
X-1907Y-89646D01*
D02*
G37*
G36*
X-19525Y-90039D02*
X-20042D01*
X-20519Y-90237D01*
X-20885Y-90603D01*
X-20925Y-90699D01*
X-24055D01*
X-24095Y-90603D01*
X-24461Y-90237D01*
X-24938Y-90039D01*
X-25455D01*
X-25933Y-90237D01*
X-26298Y-90603D01*
X-26496Y-91080D01*
Y-91597D01*
X-26298Y-92075D01*
X-25933Y-92440D01*
X-25455Y-92638D01*
X-24938D01*
X-24461Y-92440D01*
X-24095Y-92075D01*
X-24055Y-91978D01*
X-20925D01*
X-20885Y-92075D01*
X-20519Y-92440D01*
X-20042Y-92638D01*
X-19525D01*
X-19048Y-92440D01*
X-18682Y-92075D01*
X-18484Y-91597D01*
Y-91080D01*
X-18682Y-90603D01*
X-19048Y-90237D01*
X-19525Y-90039D01*
D02*
G37*
G36*
X-72335Y-96780D02*
Y-98220D01*
X-70894D01*
X-71153Y-97597D01*
X-71711Y-97038D01*
X-72335Y-96780D01*
D02*
G37*
G36*
X-73335D02*
X-73959Y-97038D01*
X-74517Y-97597D01*
X-74775Y-98220D01*
X-73335D01*
Y-96780D01*
D02*
G37*
G36*
X95534Y-95945D02*
X95017D01*
X94540Y-96143D01*
X94174Y-96508D01*
X94002Y-96925D01*
X93667Y-97063D01*
X90414Y-100316D01*
X90317Y-100276D01*
X89801D01*
X89323Y-100473D01*
X88958Y-100839D01*
X88760Y-101316D01*
Y-101833D01*
X88958Y-102311D01*
X89323Y-102676D01*
X89801Y-102874D01*
X90317D01*
X90795Y-102676D01*
X91161Y-102311D01*
X91358Y-101833D01*
Y-101316D01*
X91318Y-101220D01*
X94366Y-98172D01*
X94540Y-98346D01*
X95017Y-98543D01*
X95534D01*
X96012Y-98346D01*
X96377Y-97980D01*
X96575Y-97502D01*
Y-96986D01*
X96377Y-96508D01*
X96012Y-96143D01*
X95534Y-95945D01*
D02*
G37*
G36*
X-70894Y-99221D02*
X-72335D01*
Y-100661D01*
X-71711Y-100403D01*
X-71153Y-99844D01*
X-70894Y-99221D01*
D02*
G37*
G36*
X-73335D02*
X-74775D01*
X-74517Y-99844D01*
X-73959Y-100403D01*
X-73335Y-100661D01*
Y-99221D01*
D02*
G37*
G36*
X-19820Y-101555D02*
X-20337D01*
X-20815Y-101753D01*
X-21180Y-102118D01*
X-21241Y-102264D01*
X-23780D01*
X-23800Y-102217D01*
X-24166Y-101851D01*
X-24643Y-101654D01*
X-25160D01*
X-25638Y-101851D01*
X-26003Y-102217D01*
X-26201Y-102694D01*
Y-103211D01*
X-26003Y-103689D01*
X-25638Y-104054D01*
X-25160Y-104252D01*
X-24643D01*
X-24166Y-104054D01*
X-23800Y-103689D01*
X-23740Y-103543D01*
X-21200D01*
X-21180Y-103590D01*
X-20815Y-103956D01*
X-20337Y-104154D01*
X-19820D01*
X-19343Y-103956D01*
X-18977Y-103590D01*
X-18779Y-103113D01*
Y-102596D01*
X-18977Y-102118D01*
X-19343Y-101753D01*
X-19820Y-101555D01*
D02*
G37*
G36*
X-1172Y-111983D02*
Y-113424D01*
X269D01*
X11Y-112800D01*
X-548Y-112242D01*
X-1172Y-111983D01*
D02*
G37*
G36*
X-2172D02*
X-2796Y-112242D01*
X-3354Y-112800D01*
X-3612Y-113424D01*
X-2172D01*
Y-111983D01*
D02*
G37*
G36*
X17332Y-112377D02*
Y-113818D01*
X18773D01*
X18515Y-113194D01*
X17956Y-112635D01*
X17332Y-112377D01*
D02*
G37*
G36*
X16332D02*
X15708Y-112635D01*
X15150Y-113194D01*
X14892Y-113818D01*
X16332D01*
Y-112377D01*
D02*
G37*
G36*
X269Y-114424D02*
X-1172D01*
Y-115864D01*
X-548Y-115606D01*
X11Y-115048D01*
X269Y-114424D01*
D02*
G37*
G36*
X-2172D02*
X-3612D01*
X-3354Y-115048D01*
X-2796Y-115606D01*
X-2172Y-115864D01*
Y-114424D01*
D02*
G37*
G36*
X18773Y-114818D02*
X17332D01*
Y-116258D01*
X17956Y-116000D01*
X18515Y-115442D01*
X18773Y-114818D01*
D02*
G37*
G36*
X16332D02*
X14892D01*
X15150Y-115442D01*
X15708Y-116000D01*
X16332Y-116258D01*
Y-114818D01*
D02*
G37*
%LPD*%
G36*
G01X77609Y-80709D02*
G01X22785D01*
G02X19685Y-77609I0J3100D01*
G01Y-50344D01*
G03X16585Y-47244I-3100J0D01*
G01X-16585D01*
G03X-19685Y-50344I0J-3100D01*
G01Y-77609D01*
G02X-22785Y-80709I-3100J0D01*
G01X-77609D01*
G02X-80709Y-77609I0J3100D01*
G01Y77609D01*
G02X-77609Y80709I3100J0D01*
G01X-19685D01*
G01Y50344D01*
G03X-16585Y47244I3100J0D01*
G01X16585D01*
G03X19685Y50344I0J3100D01*
G01Y77609D01*
G02X22785Y80709I3100J0D01*
G01X77609D01*
G02X80709Y77609I0J-3100D01*
G01Y-77609D01*
G02X77609Y-80709I-3100J0D01*
D02*
G37*
D12*
X22835Y22835D02*
Y83465D01*
X0Y0D02*
X22835Y22835D01*
X-23228Y79134D02*
Y84252D01*
X-29921Y72441D02*
X-23228Y79134D01*
X-22931Y-22979D02*
X-97Y-144D01*
X-22931Y-83609D02*
Y-22979D01*
X35433Y-83938D02*
Y-77953D01*
X29921Y-72441D02*
X35433Y-77953D01*
X12673Y-60728D02*
X12992D01*
X591Y-60039D02*
X11983D01*
X12673Y-60728D01*
D50*
X-110236Y141732D02*
X110236D01*
Y-78740D02*
Y141732D01*
X-110236Y-141732D02*
X110236D01*
X-110236D02*
Y78740D01*
D51*
X17717Y-89956D02*
X20354Y-87319D01*
X17717Y-90158D02*
Y-89956D01*
X20354Y-87319D02*
Y-81640D01*
X94119Y-97515D02*
X95004D01*
X95276Y-97244D01*
X90059Y-101575D02*
X94119Y-97515D01*
X9449Y-77953D02*
X9695Y-77707D01*
Y-69144D01*
X9941Y-68898D01*
X149409Y188094D02*
Y192323D01*
X148327Y187011D02*
X149409Y188094D01*
X148327Y163583D02*
Y187011D01*
X145768Y161024D02*
X148327Y163583D01*
X-10433Y67913D02*
X-10236Y68110D01*
X-29921Y67716D02*
X-29724Y67913D01*
X8661Y78740D02*
Y85039D01*
X-29724Y67913D02*
X-10433D01*
X24557Y-67716D02*
X29680D01*
X24163Y-68110D02*
X24557Y-67716D01*
X17323Y-68110D02*
X24163D01*
X18987Y-80056D02*
X20354Y-81423D01*
X21283Y-82185D02*
X32677D01*
X20682Y-81584D02*
X21283Y-82185D01*
X17146Y-79998D02*
X17204Y-80056D01*
X18987D01*
X-8758Y-85184D02*
Y-78884D01*
X-25197Y-91339D02*
X-19783D01*
X20354Y-81640D02*
Y-81584D01*
Y-81423D01*
Y-81584D02*
X20682D01*
X-10050Y-91535D02*
X-9459Y-90945D01*
X-10433Y-91535D02*
X-10050D01*
X-9459Y-90945D02*
X-2165D01*
X-25295Y-87795D02*
X-19587D01*
X-11196Y-85704D02*
X-10925Y-85433D01*
X-12574Y-85704D02*
X-11196D01*
X-14764Y-87894D02*
X-12574Y-85704D01*
X-5413Y-82972D02*
X-2657Y-80216D01*
X1378D01*
X-20128Y-102903D02*
X-20079Y-102854D01*
X-24852Y-102903D02*
X-20128D01*
X-24902Y-102953D02*
X-24852Y-102903D01*
X15258Y-84003D02*
Y-76916D01*
X29680Y-67716D02*
X29825Y-67861D01*
D52*
X-85767Y84192D02*
X-81496Y79921D01*
X-75197D02*
X-72441Y77165D01*
Y72441D02*
Y77165D01*
X-81496Y79921D02*
X-75197D01*
X75100Y-80066D02*
X81399D01*
X72344Y-77310D02*
Y-72585D01*
Y-77310D02*
X75100Y-80066D01*
X81399D02*
X85670Y-84336D01*
X-72638Y72244D02*
X-71063Y70669D01*
X70966Y-70814D02*
X72541Y-72388D01*
D53*
X-394Y0D02*
X0D01*
X-71063Y70669D02*
X-394Y0D01*
X-97Y-144D02*
X297D01*
X70966Y-70814D01*
D56*
X-110236Y47244D02*
D03*
Y15748D02*
D03*
Y-15748D02*
D03*
Y-47244D02*
D03*
Y-78740D02*
D03*
Y-110236D02*
D03*
Y-141732D02*
D03*
X110236Y47244D02*
D03*
Y78740D02*
D03*
Y-47244D02*
D03*
Y-15748D02*
D03*
Y15748D02*
D03*
Y110236D02*
D03*
X-110236Y141732D02*
D03*
X47244D02*
D03*
X78740D02*
D03*
X-47244D02*
D03*
X-78740D02*
D03*
X-15748D02*
D03*
X15748D02*
D03*
X110236D02*
D03*
X47244Y-141732D02*
D03*
X78740D02*
D03*
X-47244D02*
D03*
X-78740D02*
D03*
X-15748D02*
D03*
X15748D02*
D03*
X110236D02*
D03*
Y-78740D02*
D03*
X-110236Y78740D02*
D03*
D57*
X148228Y192323D02*
D03*
D58*
X149409D02*
D03*
X151772D02*
D03*
X154134D02*
D03*
X156496D02*
D03*
X158858D02*
D03*
X161221D02*
D03*
X163583D02*
D03*
D59*
X150591D02*
D03*
X152953D02*
D03*
X155315D02*
D03*
X157677D02*
D03*
X160039D02*
D03*
X162402D02*
D03*
D60*
X164764D02*
D03*
D61*
X-148228Y-192323D02*
D03*
D62*
X-149409D02*
D03*
X-151772D02*
D03*
X-154134D02*
D03*
X-156496D02*
D03*
X-158858D02*
D03*
X-161221D02*
D03*
X-163583D02*
D03*
D63*
X-150591D02*
D03*
X-152953D02*
D03*
X-155315D02*
D03*
X-157677D02*
D03*
X-160039D02*
D03*
X-162402D02*
D03*
D64*
X-164764D02*
D03*
D65*
X17717Y-90158D02*
D03*
X95276Y-97244D02*
D03*
X9449Y-77953D02*
D03*
X-72441Y-72441D02*
D03*
Y-69291D02*
D03*
X-70079Y-70866D02*
D03*
X-72441Y-66142D02*
D03*
X-70079Y-67716D02*
D03*
Y-64567D02*
D03*
X-72441Y-62992D02*
D03*
Y-59842D02*
D03*
X-70079Y-61417D02*
D03*
X-72441Y-56693D02*
D03*
X-70079Y-58268D02*
D03*
Y-55118D02*
D03*
X-72441Y-53543D02*
D03*
Y-50394D02*
D03*
X-70079Y-51968D02*
D03*
X-72441Y-47244D02*
D03*
X-70079Y-48819D02*
D03*
Y-45669D02*
D03*
X-72441Y-44094D02*
D03*
Y-40945D02*
D03*
X-70079Y-42520D02*
D03*
X-72441Y-37795D02*
D03*
X-70079Y-39370D02*
D03*
Y-36220D02*
D03*
X-72441Y-34646D02*
D03*
Y-31496D02*
D03*
X-70079Y-33071D02*
D03*
X-72441Y-28346D02*
D03*
X-70079Y-29921D02*
D03*
Y-26772D02*
D03*
X-72441Y-25197D02*
D03*
Y-22047D02*
D03*
X-70079Y-23622D02*
D03*
X-72441Y-18898D02*
D03*
X-70079Y-20472D02*
D03*
Y-17323D02*
D03*
X-72441Y-15748D02*
D03*
Y-12598D02*
D03*
X-70079Y-14173D02*
D03*
X-72441Y-9449D02*
D03*
X-70079Y-11024D02*
D03*
Y-7874D02*
D03*
X-72441Y-6299D02*
D03*
Y-3150D02*
D03*
X-70079Y-4724D02*
D03*
X-72441Y-0D02*
D03*
X-70079Y-1575D02*
D03*
Y1575D02*
D03*
X-72441Y3150D02*
D03*
Y6299D02*
D03*
X-70079Y4724D02*
D03*
X-72441Y9449D02*
D03*
X-70079Y7874D02*
D03*
Y11024D02*
D03*
X-72441Y12598D02*
D03*
Y15748D02*
D03*
X-70079Y14173D02*
D03*
X-72441Y18898D02*
D03*
X-70079Y17323D02*
D03*
Y20472D02*
D03*
X-72441Y22047D02*
D03*
Y25197D02*
D03*
X-70079Y23622D02*
D03*
X-72441Y28346D02*
D03*
X-70079Y26772D02*
D03*
Y29921D02*
D03*
X-72441Y31496D02*
D03*
Y34646D02*
D03*
X-70079Y33071D02*
D03*
X-72441Y37795D02*
D03*
X-70079Y36220D02*
D03*
Y39370D02*
D03*
X-72441Y40945D02*
D03*
Y44094D02*
D03*
X-70079Y42520D02*
D03*
X-72441Y47244D02*
D03*
X-70079Y45669D02*
D03*
Y48819D02*
D03*
X-72441Y50394D02*
D03*
Y53543D02*
D03*
X-70079Y51968D02*
D03*
X-72441Y56693D02*
D03*
X-70079Y55118D02*
D03*
Y58268D02*
D03*
X-72441Y59842D02*
D03*
Y62992D02*
D03*
X-70079Y61417D02*
D03*
X-72441Y66142D02*
D03*
X-70079Y64567D02*
D03*
Y67716D02*
D03*
X-72441Y69291D02*
D03*
Y72441D02*
D03*
X-70079Y70866D02*
D03*
X-67716Y-72441D02*
D03*
Y-69291D02*
D03*
X-65354Y-70866D02*
D03*
X-67716Y-66142D02*
D03*
X-65354Y-67716D02*
D03*
Y-64567D02*
D03*
X-67716Y-62992D02*
D03*
Y-59842D02*
D03*
X-65354Y-61417D02*
D03*
X-67716Y-56693D02*
D03*
X-65354Y-58268D02*
D03*
Y-55118D02*
D03*
X-67716Y-53543D02*
D03*
Y-50394D02*
D03*
X-65354Y-51968D02*
D03*
X-67716Y-47244D02*
D03*
X-65354Y-48819D02*
D03*
Y-45669D02*
D03*
X-67716Y-44094D02*
D03*
Y-40945D02*
D03*
X-65354Y-42520D02*
D03*
X-67716Y-37795D02*
D03*
X-65354Y-39370D02*
D03*
Y-36220D02*
D03*
X-67716Y-34646D02*
D03*
Y-31496D02*
D03*
X-65354Y-33071D02*
D03*
X-67716Y-28346D02*
D03*
X-65354Y-29921D02*
D03*
Y-26772D02*
D03*
X-67716Y-25197D02*
D03*
Y-22047D02*
D03*
X-65354Y-23622D02*
D03*
X-67716Y-18898D02*
D03*
X-65354Y-20472D02*
D03*
Y-17323D02*
D03*
X-67716Y-15748D02*
D03*
Y-12598D02*
D03*
X-65354Y-14173D02*
D03*
X-67716Y-9449D02*
D03*
X-65354Y-11024D02*
D03*
Y-7874D02*
D03*
X-67716Y-6299D02*
D03*
Y-3150D02*
D03*
X-65354Y-4724D02*
D03*
X-67716Y-0D02*
D03*
X-65354Y-1575D02*
D03*
Y1575D02*
D03*
X-67716Y3150D02*
D03*
Y6299D02*
D03*
X-65354Y4724D02*
D03*
X-67716Y9449D02*
D03*
X-65354Y7874D02*
D03*
Y11024D02*
D03*
X-67716Y12598D02*
D03*
Y15748D02*
D03*
X-65354Y14173D02*
D03*
X-67716Y18898D02*
D03*
X-65354Y17323D02*
D03*
Y20472D02*
D03*
X-67716Y22047D02*
D03*
Y25197D02*
D03*
X-65354Y23622D02*
D03*
X-67716Y28346D02*
D03*
X-65354Y26772D02*
D03*
Y29921D02*
D03*
X-67716Y31496D02*
D03*
Y34646D02*
D03*
X-65354Y33071D02*
D03*
X-67716Y37795D02*
D03*
X-65354Y36220D02*
D03*
Y39370D02*
D03*
X-67716Y40945D02*
D03*
Y44094D02*
D03*
X-65354Y42520D02*
D03*
X-67716Y47244D02*
D03*
X-65354Y45669D02*
D03*
Y48819D02*
D03*
X-67716Y50394D02*
D03*
Y53543D02*
D03*
X-65354Y51968D02*
D03*
X-67716Y56693D02*
D03*
X-65354Y55118D02*
D03*
Y58268D02*
D03*
X-67716Y59842D02*
D03*
Y62992D02*
D03*
X-65354Y61417D02*
D03*
X-67716Y66142D02*
D03*
X-65354Y64567D02*
D03*
Y67716D02*
D03*
X-67716Y69291D02*
D03*
Y72441D02*
D03*
X-65354Y70866D02*
D03*
X-62992Y-72441D02*
D03*
Y-69291D02*
D03*
X-60630Y-70866D02*
D03*
X-62992Y-66142D02*
D03*
X-60630Y-67716D02*
D03*
Y-64567D02*
D03*
X-62992Y-62992D02*
D03*
Y-59842D02*
D03*
X-60630Y-61417D02*
D03*
X-62992Y-56693D02*
D03*
X-60630Y-58268D02*
D03*
Y-55118D02*
D03*
X-62992Y-53543D02*
D03*
Y-50394D02*
D03*
X-60630Y-51968D02*
D03*
X-62992Y-47244D02*
D03*
X-60630Y-48819D02*
D03*
Y-45669D02*
D03*
X-62992Y-44094D02*
D03*
Y-40945D02*
D03*
X-60630Y-42520D02*
D03*
X-62992Y-37795D02*
D03*
X-60630Y-39370D02*
D03*
Y-36220D02*
D03*
X-62992Y-34646D02*
D03*
Y-31496D02*
D03*
X-60630Y-33071D02*
D03*
X-62992Y-28346D02*
D03*
X-60630Y-29921D02*
D03*
Y-26772D02*
D03*
X-62992Y-25197D02*
D03*
Y-22047D02*
D03*
X-60630Y-23622D02*
D03*
X-62992Y-18898D02*
D03*
X-60630Y-20472D02*
D03*
Y-17323D02*
D03*
X-62992Y-15748D02*
D03*
Y-12598D02*
D03*
X-60630Y-14173D02*
D03*
X-62992Y-9449D02*
D03*
X-60630Y-11024D02*
D03*
Y-7874D02*
D03*
X-62992Y-6299D02*
D03*
Y-3150D02*
D03*
X-60630Y-4724D02*
D03*
X-62992Y-0D02*
D03*
X-60630Y-1575D02*
D03*
Y1575D02*
D03*
X-62992Y3150D02*
D03*
Y6299D02*
D03*
X-60630Y4724D02*
D03*
X-62992Y9449D02*
D03*
X-60630Y7874D02*
D03*
Y11024D02*
D03*
X-62992Y12598D02*
D03*
Y15748D02*
D03*
X-60630Y14173D02*
D03*
X-62992Y18898D02*
D03*
X-60630Y17323D02*
D03*
Y20472D02*
D03*
X-62992Y22047D02*
D03*
Y25197D02*
D03*
X-60630Y23622D02*
D03*
X-62992Y28346D02*
D03*
X-60630Y26772D02*
D03*
Y29921D02*
D03*
X-62992Y31496D02*
D03*
Y34646D02*
D03*
X-60630Y33071D02*
D03*
X-62992Y37795D02*
D03*
X-60630Y36220D02*
D03*
Y39370D02*
D03*
X-62992Y40945D02*
D03*
Y44094D02*
D03*
X-60630Y42520D02*
D03*
X-62992Y47244D02*
D03*
X-60630Y45669D02*
D03*
Y48819D02*
D03*
X-62992Y50394D02*
D03*
Y53543D02*
D03*
X-60630Y51968D02*
D03*
X-62992Y56693D02*
D03*
X-60630Y55118D02*
D03*
Y58268D02*
D03*
X-62992Y59842D02*
D03*
Y62992D02*
D03*
X-60630Y61417D02*
D03*
X-62992Y66142D02*
D03*
X-60630Y64567D02*
D03*
Y67716D02*
D03*
X-62992Y69291D02*
D03*
Y72441D02*
D03*
X-60630Y70866D02*
D03*
X72489Y72463D02*
D03*
Y69313D02*
D03*
X70127Y70888D02*
D03*
X72489Y66163D02*
D03*
X70127Y67738D02*
D03*
Y64589D02*
D03*
X72489Y63014D02*
D03*
Y59864D02*
D03*
X70127Y61439D02*
D03*
X72489Y56715D02*
D03*
X70127Y58289D02*
D03*
Y55140D02*
D03*
X72489Y53565D02*
D03*
Y50415D02*
D03*
X70127Y51990D02*
D03*
X72489Y47266D02*
D03*
X70127Y48841D02*
D03*
Y45691D02*
D03*
X72489Y44116D02*
D03*
Y40967D02*
D03*
X70127Y42542D02*
D03*
X72489Y37817D02*
D03*
X70127Y39392D02*
D03*
Y36242D02*
D03*
X72489Y34668D02*
D03*
Y31518D02*
D03*
X70127Y33093D02*
D03*
X72489Y28368D02*
D03*
X70127Y29943D02*
D03*
Y26793D02*
D03*
X72489Y25219D02*
D03*
Y22069D02*
D03*
X70127Y23644D02*
D03*
X72489Y18919D02*
D03*
X70127Y20494D02*
D03*
Y17345D02*
D03*
X72489Y15770D02*
D03*
Y12620D02*
D03*
X70127Y14195D02*
D03*
X72489Y9471D02*
D03*
X70127Y11045D02*
D03*
Y7896D02*
D03*
X72489Y6321D02*
D03*
Y3171D02*
D03*
X70127Y4746D02*
D03*
X72489Y22D02*
D03*
X70127Y1597D02*
D03*
Y-1553D02*
D03*
X72489Y-3128D02*
D03*
Y-6277D02*
D03*
X70127Y-4703D02*
D03*
X72489Y-9427D02*
D03*
X70127Y-7852D02*
D03*
Y-11002D02*
D03*
X72489Y-12577D02*
D03*
Y-15726D02*
D03*
X70127Y-14151D02*
D03*
X72489Y-18876D02*
D03*
X70127Y-17301D02*
D03*
Y-20451D02*
D03*
X72489Y-22026D02*
D03*
Y-25175D02*
D03*
X70127Y-23600D02*
D03*
X72489Y-28325D02*
D03*
X70127Y-26750D02*
D03*
Y-29899D02*
D03*
X72489Y-31474D02*
D03*
Y-34624D02*
D03*
X70127Y-33049D02*
D03*
X72489Y-37773D02*
D03*
X70127Y-36199D02*
D03*
Y-39348D02*
D03*
X72489Y-40923D02*
D03*
Y-44073D02*
D03*
X70127Y-42498D02*
D03*
X72489Y-47222D02*
D03*
X70127Y-45647D02*
D03*
Y-48797D02*
D03*
X72489Y-50372D02*
D03*
Y-53522D02*
D03*
X70127Y-51947D02*
D03*
X72489Y-56671D02*
D03*
X70127Y-55096D02*
D03*
Y-58246D02*
D03*
X72489Y-59821D02*
D03*
Y-62970D02*
D03*
X70127Y-61396D02*
D03*
X72489Y-66120D02*
D03*
X70127Y-64545D02*
D03*
Y-67695D02*
D03*
X72489Y-69270D02*
D03*
Y-72419D02*
D03*
X70127Y-70844D02*
D03*
X67765Y72463D02*
D03*
Y69313D02*
D03*
X65402Y70888D02*
D03*
X67765Y66163D02*
D03*
X65402Y67738D02*
D03*
Y64589D02*
D03*
X67765Y63014D02*
D03*
Y59864D02*
D03*
X65402Y61439D02*
D03*
X67765Y56715D02*
D03*
X65402Y58289D02*
D03*
Y55140D02*
D03*
X67765Y53565D02*
D03*
Y50415D02*
D03*
X65402Y51990D02*
D03*
X67765Y47266D02*
D03*
X65402Y48841D02*
D03*
Y45691D02*
D03*
X67765Y44116D02*
D03*
Y40967D02*
D03*
X65402Y42542D02*
D03*
X67765Y37817D02*
D03*
X65402Y39392D02*
D03*
Y36242D02*
D03*
X67765Y34668D02*
D03*
Y31518D02*
D03*
X65402Y33093D02*
D03*
X67765Y28368D02*
D03*
X65402Y29943D02*
D03*
Y26793D02*
D03*
X67765Y25219D02*
D03*
Y22069D02*
D03*
X65402Y23644D02*
D03*
X67765Y18919D02*
D03*
X65402Y20494D02*
D03*
Y17345D02*
D03*
X67765Y15770D02*
D03*
Y12620D02*
D03*
X65402Y14195D02*
D03*
X67765Y9471D02*
D03*
X65402Y11045D02*
D03*
Y7896D02*
D03*
X67765Y6321D02*
D03*
Y3171D02*
D03*
X65402Y4746D02*
D03*
X67765Y22D02*
D03*
X65402Y1597D02*
D03*
Y-1553D02*
D03*
X67765Y-3128D02*
D03*
Y-6277D02*
D03*
X65402Y-4703D02*
D03*
X67765Y-9427D02*
D03*
X65402Y-7852D02*
D03*
Y-11002D02*
D03*
X67765Y-12577D02*
D03*
Y-15726D02*
D03*
X65402Y-14151D02*
D03*
X67765Y-18876D02*
D03*
X65402Y-17301D02*
D03*
Y-20451D02*
D03*
X67765Y-22026D02*
D03*
Y-25175D02*
D03*
X65402Y-23600D02*
D03*
X67765Y-28325D02*
D03*
X65402Y-26750D02*
D03*
Y-29899D02*
D03*
X67765Y-31474D02*
D03*
Y-34624D02*
D03*
X65402Y-33049D02*
D03*
X67765Y-37773D02*
D03*
X65402Y-36199D02*
D03*
Y-39348D02*
D03*
X67765Y-40923D02*
D03*
Y-44073D02*
D03*
X65402Y-42498D02*
D03*
X67765Y-47222D02*
D03*
X65402Y-45647D02*
D03*
Y-48797D02*
D03*
X67765Y-50372D02*
D03*
Y-53522D02*
D03*
X65402Y-51947D02*
D03*
X67765Y-56671D02*
D03*
X65402Y-55096D02*
D03*
Y-58246D02*
D03*
X67765Y-59821D02*
D03*
Y-62970D02*
D03*
X65402Y-61396D02*
D03*
X67765Y-66120D02*
D03*
X65402Y-64545D02*
D03*
Y-67695D02*
D03*
X67765Y-69270D02*
D03*
Y-72419D02*
D03*
X65402Y-70844D02*
D03*
X63040Y72463D02*
D03*
Y69313D02*
D03*
X60678Y70888D02*
D03*
X63040Y66163D02*
D03*
X60678Y67738D02*
D03*
Y64589D02*
D03*
X63040Y63014D02*
D03*
Y59864D02*
D03*
X60678Y61439D02*
D03*
X63040Y56715D02*
D03*
X60678Y58289D02*
D03*
Y55140D02*
D03*
X63040Y53565D02*
D03*
Y50415D02*
D03*
X60678Y51990D02*
D03*
X63040Y47266D02*
D03*
X60678Y48841D02*
D03*
Y45691D02*
D03*
X63040Y44116D02*
D03*
Y40967D02*
D03*
X60678Y42542D02*
D03*
X63040Y37817D02*
D03*
X60678Y39392D02*
D03*
Y36242D02*
D03*
X63040Y34668D02*
D03*
Y31518D02*
D03*
X60678Y33093D02*
D03*
X63040Y28368D02*
D03*
X60678Y29943D02*
D03*
Y26793D02*
D03*
X63040Y25219D02*
D03*
Y22069D02*
D03*
X60678Y23644D02*
D03*
X63040Y18919D02*
D03*
X60678Y20494D02*
D03*
Y17345D02*
D03*
X63040Y15770D02*
D03*
Y12620D02*
D03*
X60678Y14195D02*
D03*
X63040Y9471D02*
D03*
X60678Y11045D02*
D03*
Y7896D02*
D03*
X63040Y6321D02*
D03*
Y3171D02*
D03*
X60678Y4746D02*
D03*
X63040Y22D02*
D03*
X60678Y1597D02*
D03*
Y-1553D02*
D03*
X63040Y-3128D02*
D03*
Y-6277D02*
D03*
X60678Y-4703D02*
D03*
X63040Y-9427D02*
D03*
X60678Y-7852D02*
D03*
Y-11002D02*
D03*
X63040Y-12577D02*
D03*
Y-15726D02*
D03*
X60678Y-14151D02*
D03*
X63040Y-18876D02*
D03*
X60678Y-17301D02*
D03*
Y-20451D02*
D03*
X63040Y-22026D02*
D03*
Y-25175D02*
D03*
X60678Y-23600D02*
D03*
X63040Y-28325D02*
D03*
X60678Y-26750D02*
D03*
Y-29899D02*
D03*
X63040Y-31474D02*
D03*
Y-34624D02*
D03*
X60678Y-33049D02*
D03*
X63040Y-37773D02*
D03*
X60678Y-36199D02*
D03*
Y-39348D02*
D03*
X63040Y-40923D02*
D03*
Y-44073D02*
D03*
X60678Y-42498D02*
D03*
X63040Y-47222D02*
D03*
X60678Y-45647D02*
D03*
Y-48797D02*
D03*
X63040Y-50372D02*
D03*
Y-53522D02*
D03*
X60678Y-51947D02*
D03*
X63040Y-56671D02*
D03*
X60678Y-55096D02*
D03*
Y-58246D02*
D03*
X63040Y-59821D02*
D03*
Y-62970D02*
D03*
X60678Y-61396D02*
D03*
X63040Y-66120D02*
D03*
X60678Y-64545D02*
D03*
Y-67695D02*
D03*
X63040Y-69270D02*
D03*
Y-72419D02*
D03*
X60678Y-70844D02*
D03*
X-56693Y-60630D02*
D03*
X-58268Y-62992D02*
D03*
X-55118D02*
D03*
X-53543Y-60630D02*
D03*
X-50394D02*
D03*
X-51968Y-62992D02*
D03*
X-47244Y-60630D02*
D03*
X-48819Y-62992D02*
D03*
X-45669D02*
D03*
X-44094Y-60630D02*
D03*
X-40945D02*
D03*
X-42520Y-62992D02*
D03*
X-37795Y-60630D02*
D03*
X-39370Y-62992D02*
D03*
X-36220D02*
D03*
X-34646Y-60630D02*
D03*
X-31496D02*
D03*
X-33071Y-62992D02*
D03*
X-28346Y-60630D02*
D03*
X-29921Y-62992D02*
D03*
X28346Y-60630D02*
D03*
X29921Y-62992D02*
D03*
X31496Y-60630D02*
D03*
X34646D02*
D03*
X33071Y-62992D02*
D03*
X37795Y-60630D02*
D03*
X36220Y-62992D02*
D03*
X39370D02*
D03*
X40945Y-60630D02*
D03*
X44094D02*
D03*
X42520Y-62992D02*
D03*
X47244Y-60630D02*
D03*
X45669Y-62992D02*
D03*
X48819D02*
D03*
X50394Y-60630D02*
D03*
X53543D02*
D03*
X51968Y-62992D02*
D03*
X56693Y-60630D02*
D03*
X55118Y-62992D02*
D03*
X58268D02*
D03*
X-56693Y-65354D02*
D03*
X-58268Y-67716D02*
D03*
X-55118D02*
D03*
X-53543Y-65354D02*
D03*
X-50394D02*
D03*
X-51968Y-67716D02*
D03*
X-47244Y-65354D02*
D03*
X-48819Y-67716D02*
D03*
X-45669D02*
D03*
X-44094Y-65354D02*
D03*
X-40945D02*
D03*
X-42520Y-67716D02*
D03*
X-37795Y-65354D02*
D03*
X-39370Y-67716D02*
D03*
X-36220D02*
D03*
X-34646Y-65354D02*
D03*
X-31496D02*
D03*
X-33071Y-67716D02*
D03*
X-28346Y-65354D02*
D03*
X-29921Y-67716D02*
D03*
X28346Y-65354D02*
D03*
X29921Y-67716D02*
D03*
X31496Y-65354D02*
D03*
X34646D02*
D03*
X33071Y-67716D02*
D03*
X37795Y-65354D02*
D03*
X36220Y-67716D02*
D03*
X39370D02*
D03*
X40945Y-65354D02*
D03*
X44094D02*
D03*
X42520Y-67716D02*
D03*
X47244Y-65354D02*
D03*
X45669Y-67716D02*
D03*
X48819D02*
D03*
X50394Y-65354D02*
D03*
X53543D02*
D03*
X51968Y-67716D02*
D03*
X56693Y-65354D02*
D03*
X55118Y-67716D02*
D03*
X58268D02*
D03*
X-56693Y-70079D02*
D03*
X-58268Y-72441D02*
D03*
X-55118D02*
D03*
X-53543Y-70079D02*
D03*
X-50394D02*
D03*
X-51968Y-72441D02*
D03*
X-47244Y-70079D02*
D03*
X-48819Y-72441D02*
D03*
X-45669D02*
D03*
X-44094Y-70079D02*
D03*
X-40945D02*
D03*
X-42520Y-72441D02*
D03*
X-37795Y-70079D02*
D03*
X-39370Y-72441D02*
D03*
X-36220D02*
D03*
X-34646Y-70079D02*
D03*
X-31496D02*
D03*
X-33071Y-72441D02*
D03*
X-28346Y-70079D02*
D03*
X-29921Y-72441D02*
D03*
X28346Y-70079D02*
D03*
X29921Y-72441D02*
D03*
X31496Y-70079D02*
D03*
X34646D02*
D03*
X33071Y-72441D02*
D03*
X37795Y-70079D02*
D03*
X36220Y-72441D02*
D03*
X39370D02*
D03*
X40945Y-70079D02*
D03*
X44094D02*
D03*
X42520Y-72441D02*
D03*
X47244Y-70079D02*
D03*
X45669Y-72441D02*
D03*
X48819D02*
D03*
X50394Y-70079D02*
D03*
X53543D02*
D03*
X51968Y-72441D02*
D03*
X56693Y-70079D02*
D03*
X55118Y-72441D02*
D03*
X58268D02*
D03*
X56693Y60630D02*
D03*
X58268Y62992D02*
D03*
X55118D02*
D03*
X53543Y60630D02*
D03*
X50394D02*
D03*
X51968Y62992D02*
D03*
X47244Y60630D02*
D03*
X48819Y62992D02*
D03*
X45669D02*
D03*
X44094Y60630D02*
D03*
X40945D02*
D03*
X42520Y62992D02*
D03*
X37795Y60630D02*
D03*
X39370Y62992D02*
D03*
X36220D02*
D03*
X34646Y60630D02*
D03*
X31496D02*
D03*
X33071Y62992D02*
D03*
X28346Y60630D02*
D03*
X29921Y62992D02*
D03*
X-28346Y60630D02*
D03*
X-29921Y62992D02*
D03*
X-31496Y60630D02*
D03*
X-34646D02*
D03*
X-33071Y62992D02*
D03*
X-37795Y60630D02*
D03*
X-36220Y62992D02*
D03*
X-39370D02*
D03*
X-40945Y60630D02*
D03*
X-44094D02*
D03*
X-42520Y62992D02*
D03*
X-47244Y60630D02*
D03*
X-45669Y62992D02*
D03*
X-48819D02*
D03*
X-50394Y60630D02*
D03*
X-53543D02*
D03*
X-51968Y62992D02*
D03*
X-56693Y60630D02*
D03*
X-55118Y62992D02*
D03*
X-58268D02*
D03*
X56693Y65354D02*
D03*
X58268Y67716D02*
D03*
X55118D02*
D03*
X53543Y65354D02*
D03*
X50394D02*
D03*
X51968Y67716D02*
D03*
X47244Y65354D02*
D03*
X48819Y67716D02*
D03*
X45669D02*
D03*
X44094Y65354D02*
D03*
X40945D02*
D03*
X42520Y67716D02*
D03*
X37795Y65354D02*
D03*
X39370Y67716D02*
D03*
X36220D02*
D03*
X34646Y65354D02*
D03*
X31496D02*
D03*
X33071Y67716D02*
D03*
X28346Y65354D02*
D03*
X29921Y67716D02*
D03*
X-28346Y65354D02*
D03*
X-29921Y67716D02*
D03*
X-31496Y65354D02*
D03*
X-34646D02*
D03*
X-33071Y67716D02*
D03*
X-37795Y65354D02*
D03*
X-36220Y67716D02*
D03*
X-39370D02*
D03*
X-40945Y65354D02*
D03*
X-44094D02*
D03*
X-42520Y67716D02*
D03*
X-47244Y65354D02*
D03*
X-45669Y67716D02*
D03*
X-48819D02*
D03*
X-50394Y65354D02*
D03*
X-53543D02*
D03*
X-51968Y67716D02*
D03*
X-56693Y65354D02*
D03*
X-55118Y67716D02*
D03*
X-58268D02*
D03*
X56693Y70079D02*
D03*
X58268Y72441D02*
D03*
X55118D02*
D03*
X53543Y70079D02*
D03*
X50394D02*
D03*
X51968Y72441D02*
D03*
X47244Y70079D02*
D03*
X48819Y72441D02*
D03*
X45669D02*
D03*
X44094Y70079D02*
D03*
X40945D02*
D03*
X42520Y72441D02*
D03*
X37795Y70079D02*
D03*
X39370Y72441D02*
D03*
X36220D02*
D03*
X34646Y70079D02*
D03*
X31496D02*
D03*
X33071Y72441D02*
D03*
X28346Y70079D02*
D03*
X29921Y72441D02*
D03*
X-28346Y70079D02*
D03*
X-29921Y72441D02*
D03*
X-31496Y70079D02*
D03*
X-34646D02*
D03*
X-33071Y72441D02*
D03*
X-37795Y70079D02*
D03*
X-36220Y72441D02*
D03*
X-39370D02*
D03*
X-40945Y70079D02*
D03*
X-44094D02*
D03*
X-42520Y72441D02*
D03*
X-47244Y70079D02*
D03*
X-45669Y72441D02*
D03*
X-48819D02*
D03*
X-50394Y70079D02*
D03*
X-53543D02*
D03*
X-51968Y72441D02*
D03*
X-56693Y70079D02*
D03*
X-55118Y72441D02*
D03*
X-58268D02*
D03*
X-164174Y-185855D02*
D03*
X-3133Y50103D02*
D03*
X-15354Y83858D02*
D03*
X-18898Y85433D02*
D03*
X-17323Y79921D02*
D03*
X-10236Y68110D02*
D03*
X-7480Y51968D02*
D03*
X-9449Y61024D02*
D03*
X8661Y78740D02*
D03*
X-16929Y114173D02*
D03*
X1575Y113779D02*
D03*
X2362Y51575D02*
D03*
X-15354Y76772D02*
D03*
X1558Y49008D02*
D03*
X394Y61024D02*
D03*
X164077Y185710D02*
D03*
X-1654Y-49153D02*
D03*
X15258Y-76916D02*
D03*
X-2459Y-51719D02*
D03*
X-1672Y-113924D02*
D03*
X16832Y-114318D02*
D03*
X-8758Y-78884D02*
D03*
X17323Y-68110D02*
D03*
X3036Y-50248D02*
D03*
X591Y-60039D02*
D03*
X20354Y-81640D02*
D03*
X32677Y-82185D02*
D03*
X7384Y-52113D02*
D03*
X12992Y-60728D02*
D03*
X17146Y-79998D02*
D03*
X9941Y-68898D02*
D03*
X-25197Y-91339D02*
D03*
X-19783D02*
D03*
X-2165Y-90945D02*
D03*
X-10433Y-91535D02*
D03*
X-25295Y-87795D02*
D03*
X-19587D02*
D03*
X-14764Y-87894D02*
D03*
X-10925Y-85433D02*
D03*
X1378Y-80216D02*
D03*
X-5413Y-82972D02*
D03*
X-20079Y-102854D02*
D03*
X-24902Y-102953D02*
D03*
X-72835Y-98721D02*
D03*
X90059Y-101575D02*
D03*
X145768Y161024D02*
D03*
X15258Y-84003D02*
D03*
D66*
X-110236Y78740D02*
Y141732D01*
X110236Y-141732D02*
Y-78740D01*
D67*
X-3133Y50040D02*
Y50103D01*
Y50040D02*
X-1911Y48819D01*
X-19291Y81890D02*
Y83252D01*
X-18898Y83645D01*
Y85433D01*
X-19291Y81890D02*
X-17323Y79921D01*
X-7480Y51968D02*
X-7283Y51772D01*
X2165D01*
X2362Y51575D01*
X1368Y48819D02*
X1558Y49008D01*
X-9449Y61024D02*
X394D01*
X-1911Y48819D02*
X1368D01*
X-15354Y76772D02*
Y83858D01*
X-1654Y-49153D02*
X-1465Y-48963D01*
X1815D01*
X3036Y-50248D02*
Y-50184D01*
X1815Y-48963D02*
X3036Y-50184D01*
X-2459Y-51719D02*
X-2262Y-51916D01*
X7187D01*
X7384Y-52113D01*
M02*
