%TF.GenerationSoftware,Altium Limited,Altium Designer,23.9.2 (47)*%
G04 Layer_Color=255*
%FSLAX45Y45*%
%MOMM*%
%TF.SameCoordinates,9F32D3C1-515D-4E76-A5FB-46C0C9FD6927*%
%TF.FilePolarity,Positive*%
%TF.FileFunction,Pads,Bot*%
%TF.Part,Single*%
G01*
G75*
%TA.AperFunction,ComponentPad*%
%ADD34C,7.80000*%
%TA.AperFunction,SMDPad,CuDef*%
%AMCUSTOMSHAPE35*
4,1,11,-0.15000,-1.00000,-0.15000,0.90000,-0.05000,1.00000,-0.05000,1.00000,0.05000,1.00000,0.15000,0.90000,0.15000,0.37500,0.05000,0.27500,0.05000,-0.37500,0.15000,-0.47500,0.15000,-1.00000,-0.15000,-1.00000,0.0*%
%ADD35CUSTOMSHAPE35*%

%AMCUSTOMSHAPE36*
4,1,12,-0.15000,-0.32500,-0.15000,0.22500,-0.05000,0.32500,-0.05000,1.00000,0.05000,1.00000,0.05000,0.32500,0.15000,0.22500,0.15000,-0.32500,0.05000,-0.42500,0.05000,-1.00000,-0.05000,-1.00000,-0.05000,-0.42500,-0.15000,-0.32500,0.0*%
%ADD36CUSTOMSHAPE36*%

%AMCUSTOMSHAPE37*
4,1,14,-0.15000,-1.00000,-0.15000,-0.47500,-0.05000,-0.37500,-0.05000,0.27500,-0.15000,0.37500,-0.15000,0.90000,-0.05000,1.00000,0.05000,1.00000,0.15000,0.90000,0.15000,0.37500,0.05000,0.27500,0.05000,-0.37500,0.15000,-0.47500,0.15000,-1.00000,-0.15000,-1.00000,0.0*%
%ADD37CUSTOMSHAPE37*%

%AMCUSTOMSHAPE38*
4,1,12,-0.15000,-1.00000,-0.15000,-0.47500,-0.05000,-0.37500,-0.05000,-0.37500,-0.05000,0.27500,-0.15000,0.37500,-0.15000,0.37500,-0.15000,0.90000,-0.05000,1.00000,0.05000,1.00000,0.15000,0.90000,0.15000,-1.00000,-0.15000,-1.00000,0.0*%
%ADD38CUSTOMSHAPE38*%

%TA.AperFunction,ConnectorPad*%
%AMCUSTOMSHAPE39*
4,1,11,0.15000,1.00000,0.15000,-0.90000,0.05000,-1.00000,0.05000,-1.00000,-0.05000,-1.00000,-0.15000,-0.90000,-0.15000,-0.37500,-0.05000,-0.27500,-0.05000,0.37500,-0.15000,0.47500,-0.15000,1.00000,0.15000,1.00000,0.0*%
%ADD39CUSTOMSHAPE39*%

%AMCUSTOMSHAPE40*
4,1,12,0.15000,0.32500,0.15000,-0.22500,0.05000,-0.32500,0.05000,-1.00000,-0.05000,-1.00000,-0.05000,-0.32500,-0.15000,-0.22500,-0.15000,0.32500,-0.05000,0.42500,-0.05000,1.00000,0.05000,1.00000,0.05000,0.42500,0.15000,0.32500,0.0*%
%ADD40CUSTOMSHAPE40*%

%AMCUSTOMSHAPE41*
4,1,14,0.15000,1.00000,0.15000,0.47500,0.05000,0.37500,0.05000,-0.27500,0.15000,-0.37500,0.15000,-0.90000,0.05000,-1.00000,-0.05000,-1.00000,-0.15000,-0.90000,-0.15000,-0.37500,-0.05000,-0.27500,-0.05000,0.37500,-0.15000,0.47500,-0.15000,1.00000,0.15000,1.00000,0.0*%
%ADD41CUSTOMSHAPE41*%

%AMCUSTOMSHAPE42*
4,1,12,0.15000,1.00000,0.15000,0.47500,0.05000,0.37500,0.05000,0.37500,0.05000,-0.27500,0.15000,-0.37500,0.15000,-0.37500,0.15000,-0.90000,0.05000,-1.00000,-0.05000,-1.00000,-0.15000,-0.90000,-0.15000,1.00000,0.15000,1.00000,0.0*%
%ADD42CUSTOMSHAPE42*%

G36*
G01X1971260Y-2050000D02*
G01X578740D01*
G02X500000Y-1971260I0J78740D01*
G01Y-1278740D01*
G03X421260Y-1200000I-78740J0D01*
G01X-421260D01*
G03X-500000Y-1278740I0J-78740D01*
G01Y-1971260D01*
G02X-578740Y-2050000I-78740J0D01*
G01X-1971260D01*
G02X-2050000Y-1971260I0J78740D01*
G01Y1971260D01*
G02X-1971260Y2050000I78740J0D01*
G01X-500000D01*
G01Y1278740D01*
G03X-421260Y1200000I78740J0D01*
G01X421260D01*
G03X500000Y1278740I0J78740D01*
G01Y1971260D01*
G02X578740Y2050000I78740J0D01*
G01X1971260D01*
G02X2050000Y1971260I0J-78740D01*
G01Y-1971260D01*
G02X1971260Y-2050000I-78740J0D01*
D02*
G37*
D34*
X-2800000Y2000000D02*
D03*
X2800000Y-2000000D02*
D03*
Y-3600000D02*
D03*
X400000D02*
D03*
X-400000D02*
D03*
X-2000000D02*
D03*
X-1200000D02*
D03*
X2000000D02*
D03*
X1200000D02*
D03*
X2800000Y3600000D02*
D03*
X400000D02*
D03*
X-400000D02*
D03*
X-2000000D02*
D03*
X-1200000D02*
D03*
X2000000D02*
D03*
X1200000D02*
D03*
X-2800000D02*
D03*
X2800000Y2800000D02*
D03*
Y400000D02*
D03*
Y-400000D02*
D03*
Y-1200000D02*
D03*
Y2000000D02*
D03*
Y1200000D02*
D03*
X-2800000Y-3599999D02*
D03*
Y-2799999D02*
D03*
Y-2000000D02*
D03*
Y-1200000D02*
D03*
Y-400000D02*
D03*
Y400000D02*
D03*
Y1200000D02*
D03*
D35*
X3765000Y4885000D02*
D03*
D36*
X3795000D02*
D03*
X3855000D02*
D03*
X3915000D02*
D03*
X3975000D02*
D03*
X4035000D02*
D03*
X4095000D02*
D03*
X4155000D02*
D03*
D37*
X3825000D02*
D03*
X3885000D02*
D03*
X3945000D02*
D03*
X4005000D02*
D03*
X4065000D02*
D03*
X4125000D02*
D03*
D38*
X4185000D02*
D03*
D39*
X-3765000Y-4885000D02*
D03*
D40*
X-3795000D02*
D03*
X-3855000D02*
D03*
X-3915000D02*
D03*
X-3975000D02*
D03*
X-4035000D02*
D03*
X-4095000D02*
D03*
X-4155000D02*
D03*
D41*
X-3825000D02*
D03*
X-3885000D02*
D03*
X-3945000D02*
D03*
X-4005000D02*
D03*
X-4065000D02*
D03*
X-4125000D02*
D03*
D42*
X-4185000D02*
D03*
%TF.MD5,c45ddcdecdb4d04f4887518f5d112efc*%
M02*
