%TF.GenerationSoftware,Altium Limited,Altium Designer,23.9.2 (47)*%
G04 Layer_Color=9597184*
%FSLAX45Y45*%
%MOMM*%
%TF.SameCoordinates,9F32D3C1-515D-4E76-A5FB-46C0C9FD6927*%
%TF.FilePolarity,Positive*%
%TF.FileFunction,Coverlay,Board_Layer_Stack_Bottom_Coverlay_(Board_Layer_Stack)*%
%TF.Part,Single*%
G01*
G75*
%TA.AperFunction,ComponentPad*%
%ADD67C,8.00000*%
%TA.AperFunction,ViaPad*%
%ADD68C,0.70000*%
%ADD69C,0.70320*%
%TA.AperFunction,Profile*%
%ADD70C,0.02540*%
G36*
X4191308Y4994936D02*
X4192594Y4994680D01*
X4193835Y4994259D01*
X4195011Y4993679D01*
X4196101Y4992951D01*
X4197086Y4992086D01*
X4207086Y4982086D01*
X4207951Y4981101D01*
X4208679Y4980011D01*
X4209259Y4978835D01*
X4209680Y4977594D01*
X4209936Y4976308D01*
X4210022Y4975000D01*
Y4785000D01*
X4209936Y4783692D01*
X4209680Y4782406D01*
X4209259Y4781165D01*
X4208679Y4779989D01*
X4207951Y4778900D01*
X4207086Y4777914D01*
X4206101Y4777050D01*
X4205011Y4776321D01*
X4203835Y4775742D01*
X4202594Y4775320D01*
X4201308Y4775065D01*
X4200000Y4774979D01*
X4170000D01*
X4168692Y4775065D01*
X4167406Y4775320D01*
X4166165Y4775742D01*
X4165000Y4776316D01*
X4163835Y4775742D01*
X4162594Y4775320D01*
X4161308Y4775065D01*
X4160000Y4774979D01*
X4150000D01*
X4148692Y4775065D01*
X4147406Y4775320D01*
X4146165Y4775742D01*
X4145000Y4776316D01*
X4143835Y4775742D01*
X4142594Y4775320D01*
X4141308Y4775065D01*
X4140000Y4774979D01*
X4110000D01*
X4108692Y4775065D01*
X4107407Y4775320D01*
X4106166Y4775742D01*
X4105000Y4776316D01*
X4103835Y4775742D01*
X4102594Y4775320D01*
X4101309Y4775065D01*
X4100000Y4774979D01*
X4090000D01*
X4088692Y4775065D01*
X4087407Y4775320D01*
X4086165Y4775742D01*
X4085000Y4776316D01*
X4083835Y4775742D01*
X4082594Y4775320D01*
X4081308Y4775065D01*
X4080000Y4774979D01*
X4050000D01*
X4048692Y4775065D01*
X4047407Y4775320D01*
X4046165Y4775742D01*
X4045000Y4776316D01*
X4043835Y4775742D01*
X4042594Y4775320D01*
X4041308Y4775065D01*
X4040000Y4774979D01*
X4030000D01*
X4028692Y4775065D01*
X4027406Y4775320D01*
X4026165Y4775742D01*
X4025000Y4776316D01*
X4023835Y4775742D01*
X4022594Y4775320D01*
X4021308Y4775065D01*
X4020000Y4774979D01*
X3990000D01*
X3988692Y4775065D01*
X3987407Y4775320D01*
X3986166Y4775742D01*
X3985000Y4776316D01*
X3983835Y4775742D01*
X3982594Y4775320D01*
X3981309Y4775065D01*
X3980000Y4774979D01*
X3970000D01*
X3968692Y4775065D01*
X3967407Y4775320D01*
X3966165Y4775742D01*
X3965000Y4776316D01*
X3963835Y4775742D01*
X3962594Y4775320D01*
X3961308Y4775065D01*
X3960000Y4774979D01*
X3930000D01*
X3928692Y4775065D01*
X3927407Y4775320D01*
X3926165Y4775742D01*
X3925000Y4776316D01*
X3923835Y4775742D01*
X3922594Y4775320D01*
X3921308Y4775065D01*
X3920000Y4774979D01*
X3910000D01*
X3908692Y4775065D01*
X3907406Y4775320D01*
X3906165Y4775742D01*
X3905000Y4776316D01*
X3903835Y4775742D01*
X3902594Y4775320D01*
X3901308Y4775065D01*
X3900000Y4774979D01*
X3870000D01*
X3868692Y4775065D01*
X3867407Y4775320D01*
X3866165Y4775742D01*
X3865000Y4776316D01*
X3863835Y4775742D01*
X3862594Y4775320D01*
X3861309Y4775065D01*
X3860000Y4774979D01*
X3850000D01*
X3848692Y4775065D01*
X3847407Y4775320D01*
X3846165Y4775742D01*
X3845000Y4776316D01*
X3843835Y4775742D01*
X3842594Y4775320D01*
X3841308Y4775065D01*
X3840000Y4774979D01*
X3810000D01*
X3808692Y4775065D01*
X3807407Y4775320D01*
X3806165Y4775742D01*
X3805000Y4776316D01*
X3803835Y4775742D01*
X3802594Y4775320D01*
X3801308Y4775065D01*
X3800000Y4774979D01*
X3790000D01*
X3788692Y4775065D01*
X3787406Y4775320D01*
X3786165Y4775742D01*
X3785000Y4776316D01*
X3783835Y4775742D01*
X3782594Y4775320D01*
X3781308Y4775065D01*
X3780000Y4774979D01*
X3750000D01*
X3748692Y4775065D01*
X3747407Y4775320D01*
X3746165Y4775742D01*
X3744989Y4776321D01*
X3743900Y4777050D01*
X3742914Y4777914D01*
X3742050Y4778900D01*
X3741321Y4779989D01*
X3740742Y4781165D01*
X3740320Y4782406D01*
X3740065Y4783692D01*
X3739979Y4785000D01*
Y4975000D01*
X3740065Y4976308D01*
X3740320Y4977594D01*
X3740742Y4978835D01*
X3741321Y4980011D01*
X3742050Y4981101D01*
X3742914Y4982086D01*
X3752912Y4992084D01*
X3752914Y4992086D01*
X3753900Y4992951D01*
X3754989Y4993679D01*
X3756165Y4994259D01*
X3757407Y4994680D01*
X3758692Y4994936D01*
X3760000Y4995022D01*
X3770000D01*
X3771308Y4994936D01*
X3772594Y4994680D01*
X3773835Y4994259D01*
X3775011Y4993679D01*
X3776101Y4992951D01*
X3777086Y4992086D01*
X3780639Y4988533D01*
X3780741Y4988835D01*
X3781321Y4990011D01*
X3782050Y4991101D01*
X3782914Y4992086D01*
X3783899Y4992951D01*
X3784989Y4993679D01*
X3786165Y4994259D01*
X3787406Y4994680D01*
X3788692Y4994936D01*
X3790000Y4995022D01*
X3800000D01*
X3801308Y4994936D01*
X3802594Y4994680D01*
X3803835Y4994259D01*
X3805011Y4993679D01*
X3806101Y4992951D01*
X3807086Y4992086D01*
X3807951Y4991101D01*
X3808679Y4990011D01*
X3809259Y4988835D01*
X3809361Y4988533D01*
X3812914Y4992086D01*
X3813900Y4992951D01*
X3814990Y4993679D01*
X3816165Y4994259D01*
X3817407Y4994680D01*
X3818692Y4994936D01*
X3820000Y4995022D01*
X3830000D01*
X3831308Y4994936D01*
X3832594Y4994680D01*
X3833835Y4994259D01*
X3835011Y4993679D01*
X3836101Y4992951D01*
X3837086Y4992086D01*
X3840639Y4988533D01*
X3840742Y4988835D01*
X3841322Y4990011D01*
X3842050Y4991101D01*
X3842914Y4992086D01*
X3843900Y4992951D01*
X3844990Y4993679D01*
X3846165Y4994259D01*
X3847407Y4994680D01*
X3848692Y4994936D01*
X3850000Y4995022D01*
X3860000D01*
X3861309Y4994936D01*
X3862594Y4994680D01*
X3863835Y4994259D01*
X3865011Y4993679D01*
X3866101Y4992951D01*
X3867086Y4992086D01*
X3867951Y4991101D01*
X3868679Y4990011D01*
X3869259Y4988835D01*
X3869361Y4988533D01*
X3872914Y4992086D01*
X3873900Y4992951D01*
X3874990Y4993679D01*
X3876165Y4994259D01*
X3877407Y4994680D01*
X3878692Y4994936D01*
X3880000Y4995022D01*
X3890000D01*
X3891308Y4994936D01*
X3892594Y4994680D01*
X3893835Y4994259D01*
X3895011Y4993679D01*
X3896101Y4992951D01*
X3897086Y4992086D01*
X3900639Y4988534D01*
X3900741Y4988835D01*
X3901321Y4990011D01*
X3902050Y4991101D01*
X3902914Y4992086D01*
X3903899Y4992951D01*
X3904989Y4993679D01*
X3906165Y4994259D01*
X3907406Y4994680D01*
X3908692Y4994936D01*
X3910000Y4995022D01*
X3920000D01*
X3921308Y4994936D01*
X3922594Y4994680D01*
X3923835Y4994259D01*
X3925011Y4993679D01*
X3926101Y4992951D01*
X3927086Y4992086D01*
X3927951Y4991101D01*
X3928679Y4990011D01*
X3929259Y4988835D01*
X3929361Y4988533D01*
X3932914Y4992086D01*
X3933900Y4992951D01*
X3934990Y4993679D01*
X3936165Y4994259D01*
X3937407Y4994680D01*
X3938692Y4994936D01*
X3940000Y4995022D01*
X3950000D01*
X3951308Y4994936D01*
X3952594Y4994680D01*
X3953835Y4994259D01*
X3955011Y4993679D01*
X3956101Y4992951D01*
X3957086Y4992086D01*
X3960639Y4988533D01*
X3960742Y4988835D01*
X3961322Y4990011D01*
X3962050Y4991101D01*
X3962914Y4992086D01*
X3963900Y4992951D01*
X3964990Y4993679D01*
X3966165Y4994259D01*
X3967407Y4994680D01*
X3968692Y4994936D01*
X3970000Y4995022D01*
X3980000D01*
X3981309Y4994936D01*
X3982594Y4994680D01*
X3983835Y4994259D01*
X3985011Y4993679D01*
X3986101Y4992951D01*
X3987087Y4992086D01*
X3987951Y4991101D01*
X3988679Y4990011D01*
X3989259Y4988835D01*
X3989361Y4988533D01*
X3992914Y4992086D01*
X3993900Y4992951D01*
X3994990Y4993679D01*
X3996165Y4994259D01*
X3997407Y4994680D01*
X3998692Y4994936D01*
X4000000Y4995022D01*
X4010000D01*
X4011308Y4994936D01*
X4012594Y4994680D01*
X4013836Y4994259D01*
X4015011Y4993679D01*
X4016101Y4992951D01*
X4017086Y4992086D01*
X4020639Y4988534D01*
X4020742Y4988835D01*
X4021321Y4990011D01*
X4022050Y4991101D01*
X4022914Y4992086D01*
X4023899Y4992951D01*
X4024989Y4993679D01*
X4026165Y4994259D01*
X4027406Y4994680D01*
X4028692Y4994936D01*
X4030000Y4995022D01*
X4040000D01*
X4041308Y4994936D01*
X4042594Y4994680D01*
X4043835Y4994259D01*
X4045011Y4993679D01*
X4046101Y4992951D01*
X4047086Y4992086D01*
X4047951Y4991101D01*
X4048679Y4990011D01*
X4049259Y4988835D01*
X4049361Y4988533D01*
X4052914Y4992086D01*
X4053900Y4992951D01*
X4054990Y4993679D01*
X4056165Y4994259D01*
X4057407Y4994680D01*
X4058692Y4994936D01*
X4060000Y4995022D01*
X4070000D01*
X4071308Y4994936D01*
X4072594Y4994680D01*
X4073835Y4994259D01*
X4075011Y4993679D01*
X4076101Y4992951D01*
X4077086Y4992086D01*
X4080639Y4988533D01*
X4080742Y4988835D01*
X4081322Y4990011D01*
X4082050Y4991101D01*
X4082914Y4992086D01*
X4083900Y4992951D01*
X4084990Y4993679D01*
X4086165Y4994259D01*
X4087407Y4994680D01*
X4088692Y4994936D01*
X4090000Y4995022D01*
X4100000D01*
X4101309Y4994936D01*
X4102594Y4994680D01*
X4103835Y4994259D01*
X4105011Y4993679D01*
X4106101Y4992951D01*
X4107087Y4992086D01*
X4107951Y4991101D01*
X4108679Y4990011D01*
X4109259Y4988835D01*
X4109361Y4988533D01*
X4112914Y4992086D01*
X4113900Y4992951D01*
X4114990Y4993679D01*
X4116165Y4994259D01*
X4117407Y4994680D01*
X4118692Y4994936D01*
X4120000Y4995022D01*
X4130000D01*
X4131308Y4994936D01*
X4132594Y4994680D01*
X4133836Y4994259D01*
X4135011Y4993679D01*
X4136101Y4992951D01*
X4137086Y4992086D01*
X4140639Y4988534D01*
X4140742Y4988835D01*
X4141321Y4990011D01*
X4142050Y4991101D01*
X4142914Y4992086D01*
X4143900Y4992951D01*
X4144989Y4993679D01*
X4146165Y4994259D01*
X4147406Y4994680D01*
X4148692Y4994936D01*
X4150000Y4995022D01*
X4160000D01*
X4161308Y4994936D01*
X4162594Y4994680D01*
X4163835Y4994259D01*
X4165011Y4993679D01*
X4166101Y4992951D01*
X4167086Y4992086D01*
X4167951Y4991101D01*
X4168679Y4990011D01*
X4169259Y4988835D01*
X4169361Y4988533D01*
X4172914Y4992086D01*
X4173900Y4992951D01*
X4174989Y4993679D01*
X4176165Y4994259D01*
X4177407Y4994680D01*
X4178692Y4994936D01*
X4180000Y4995022D01*
X4190000D01*
X4191308Y4994936D01*
D02*
G37*
G36*
X1977729Y2059935D02*
X1987962Y2058588D01*
X1988474Y2058486D01*
X1989248Y2058332D01*
X1999218Y2055661D01*
X1999830Y2055453D01*
X2000460Y2055240D01*
X2009995Y2051290D01*
X2011171Y2050710D01*
X2020110Y2045549D01*
X2020838Y2045062D01*
X2021200Y2044821D01*
X2029389Y2038537D01*
X2030374Y2037673D01*
X2037673Y2030374D01*
X2038537Y2029389D01*
X2044821Y2021200D01*
X2045549Y2020110D01*
X2050710Y2011171D01*
X2051290Y2009995D01*
X2055240Y2000460D01*
X2055383Y2000038D01*
X2055661Y1999218D01*
X2058332Y1989248D01*
X2058503Y1988389D01*
X2058588Y1987962D01*
X2059935Y1977729D01*
X2060021Y1976421D01*
Y1971260D01*
Y-1971260D01*
Y-1976421D01*
D01*
Y-1976421D01*
X2059935Y-1977729D01*
X2058588Y-1987962D01*
X2058486Y-1988474D01*
X2058332Y-1989248D01*
X2055661Y-1999218D01*
X2055453Y-1999830D01*
X2055240Y-2000460D01*
X2051290Y-2009995D01*
X2050710Y-2011171D01*
X2045549Y-2020110D01*
X2045062Y-2020838D01*
X2044821Y-2021200D01*
X2038537Y-2029389D01*
X2037673Y-2030374D01*
X2030374Y-2037673D01*
X2029389Y-2038537D01*
X2021200Y-2044821D01*
X2020110Y-2045549D01*
X2011171Y-2050710D01*
X2009995Y-2051290D01*
X2000460Y-2055240D01*
X2000038Y-2055383D01*
X1999218Y-2055661D01*
X1989248Y-2058332D01*
X1988389Y-2058503D01*
X1987962Y-2058588D01*
X1977729Y-2059935D01*
X1976421Y-2060021D01*
X573579D01*
D01*
X573579D01*
X572271Y-2059935D01*
X562037Y-2058588D01*
X561526Y-2058486D01*
X560752Y-2058332D01*
X550782Y-2055661D01*
X550170Y-2055453D01*
X549540Y-2055240D01*
X540005Y-2051290D01*
X538829Y-2050710D01*
X529889Y-2045549D01*
X529161Y-2045062D01*
X528800Y-2044821D01*
X520611Y-2038537D01*
X519626Y-2037673D01*
X512327Y-2030374D01*
X511463Y-2029389D01*
X505179Y-2021200D01*
X504451Y-2020110D01*
X499290Y-2011171D01*
X498710Y-2009995D01*
X494760Y-2000460D01*
X494617Y-2000038D01*
X494339Y-1999218D01*
X491667Y-1989248D01*
X491454Y-1988175D01*
X491412Y-1987962D01*
X490064Y-1977729D01*
X489984Y-1976506D01*
X489979Y-1976421D01*
Y-1971260D01*
Y-1278905D01*
X489831Y-1274409D01*
X488637Y-1265339D01*
X486311Y-1256658D01*
X482872Y-1248355D01*
X478380Y-1240574D01*
X472909Y-1233444D01*
X466556Y-1227091D01*
X459427Y-1221621D01*
X451645Y-1217128D01*
X443342Y-1213688D01*
X434660Y-1211362D01*
X425591Y-1210168D01*
X421095Y-1210021D01*
X-421095D01*
X-425591Y-1210168D01*
X-434661Y-1211362D01*
X-443342Y-1213688D01*
X-451644Y-1217127D01*
X-459426Y-1221620D01*
X-466556Y-1227091D01*
X-472909Y-1233444D01*
X-478379Y-1240573D01*
X-482872Y-1248355D01*
X-486311Y-1256658D01*
X-488637Y-1265339D01*
X-489831Y-1274409D01*
X-489979Y-1278905D01*
Y-1971260D01*
Y-1976421D01*
X-490065Y-1977729D01*
X-491412Y-1987962D01*
X-491463Y-1988218D01*
X-491667Y-1989248D01*
X-494339Y-1999218D01*
X-494547Y-1999830D01*
X-494760Y-2000460D01*
X-498710Y-2009995D01*
X-499290Y-2011171D01*
X-504451Y-2020110D01*
X-504938Y-2020838D01*
X-505179Y-2021200D01*
X-511463Y-2029389D01*
X-512327Y-2030374D01*
X-519626Y-2037673D01*
X-520611Y-2038537D01*
X-528800Y-2044821D01*
X-529890Y-2045549D01*
X-538829Y-2050710D01*
X-540004Y-2051290D01*
X-549540Y-2055240D01*
X-549962Y-2055383D01*
X-550782Y-2055661D01*
X-560752Y-2058332D01*
X-561611Y-2058503D01*
X-562037Y-2058588D01*
X-572271Y-2059935D01*
X-573579Y-2060021D01*
X-1976421D01*
D01*
X-1976421D01*
X-1977729Y-2059935D01*
X-1987962Y-2058588D01*
X-1988474Y-2058486D01*
X-1989248Y-2058332D01*
X-1999218Y-2055661D01*
X-1999830Y-2055453D01*
X-2000460Y-2055240D01*
X-2009995Y-2051290D01*
X-2011171Y-2050710D01*
X-2020110Y-2045549D01*
X-2020838Y-2045062D01*
X-2021200Y-2044821D01*
X-2029389Y-2038537D01*
X-2030374Y-2037673D01*
X-2037673Y-2030374D01*
X-2038537Y-2029389D01*
X-2044821Y-2021200D01*
X-2045549Y-2020110D01*
X-2050710Y-2011171D01*
X-2051290Y-2009995D01*
X-2055240Y-2000460D01*
X-2055383Y-2000038D01*
X-2055661Y-1999218D01*
X-2058332Y-1989248D01*
X-2058503Y-1988389D01*
X-2058588Y-1987962D01*
X-2059935Y-1977729D01*
X-2060021Y-1976421D01*
Y-1971260D01*
Y1971260D01*
Y1976421D01*
D01*
Y1976421D01*
X-2059935Y1977729D01*
X-2058588Y1987962D01*
X-2058486Y1988474D01*
X-2058332Y1989248D01*
X-2055661Y1999218D01*
X-2055453Y1999830D01*
X-2055240Y2000460D01*
X-2051290Y2009995D01*
X-2050710Y2011171D01*
X-2045549Y2020110D01*
X-2045062Y2020838D01*
X-2044821Y2021200D01*
X-2038537Y2029389D01*
X-2037673Y2030374D01*
X-2030374Y2037673D01*
X-2029389Y2038537D01*
X-2021200Y2044821D01*
X-2020110Y2045549D01*
X-2011171Y2050710D01*
X-2009995Y2051290D01*
X-2000460Y2055240D01*
X-2000038Y2055383D01*
X-1999218Y2055661D01*
X-1989248Y2058332D01*
X-1988389Y2058503D01*
X-1987962Y2058588D01*
X-1977729Y2059935D01*
X-1976421Y2060021D01*
X-500000D01*
X-498692Y2059935D01*
X-497406Y2059680D01*
X-496165Y2059259D01*
X-494989Y2058679D01*
X-493899Y2057950D01*
X-492914Y2057086D01*
X-492050Y2056101D01*
X-491321Y2055011D01*
X-490741Y2053835D01*
X-490320Y2052594D01*
X-490065Y2051308D01*
X-489979Y2050000D01*
Y1278905D01*
X-489831Y1274409D01*
X-488637Y1265339D01*
X-486311Y1256658D01*
X-482872Y1248355D01*
X-478380Y1240574D01*
X-472909Y1233444D01*
X-466556Y1227091D01*
X-459427Y1221621D01*
X-451645Y1217128D01*
X-443342Y1213688D01*
X-434660Y1211362D01*
X-425591Y1210168D01*
X-421095Y1210021D01*
X421095D01*
X425591Y1210168D01*
X434661Y1211362D01*
X443342Y1213688D01*
X451644Y1217127D01*
X459426Y1221620D01*
X466556Y1227091D01*
X472909Y1233444D01*
X478379Y1240573D01*
X482872Y1248355D01*
X486311Y1256658D01*
X488637Y1265339D01*
X489831Y1274409D01*
X489979Y1278905D01*
Y1971260D01*
Y1976421D01*
X490065Y1977729D01*
X491412Y1987962D01*
X491463Y1988218D01*
X491667Y1989248D01*
X494339Y1999218D01*
X494547Y1999830D01*
X494760Y2000460D01*
X498710Y2009995D01*
X499290Y2011171D01*
X504451Y2020110D01*
X504938Y2020838D01*
X505179Y2021200D01*
X511463Y2029389D01*
X512327Y2030374D01*
X519626Y2037673D01*
X520611Y2038537D01*
X528800Y2044821D01*
X529890Y2045549D01*
X538829Y2050710D01*
X540004Y2051290D01*
X549540Y2055240D01*
X549962Y2055383D01*
X550782Y2055661D01*
X560752Y2058332D01*
X561611Y2058503D01*
X562037Y2058588D01*
X572271Y2059935D01*
X573579Y2060021D01*
X1976421D01*
D01*
X1976421D01*
X1977729Y2059935D01*
D02*
G37*
G36*
X-3748692Y-4775065D02*
X-3747407Y-4775320D01*
X-3746165Y-4775742D01*
X-3744989Y-4776321D01*
X-3743900Y-4777050D01*
X-3742914Y-4777914D01*
X-3742050Y-4778900D01*
X-3741321Y-4779989D01*
X-3740742Y-4781165D01*
X-3740320Y-4782406D01*
X-3740065Y-4783692D01*
X-3739979Y-4785000D01*
Y-4975000D01*
X-3740065Y-4976308D01*
X-3740320Y-4977594D01*
X-3740742Y-4978835D01*
X-3741321Y-4980011D01*
X-3742050Y-4981101D01*
X-3742914Y-4982086D01*
X-3752912Y-4992084D01*
X-3752914Y-4992086D01*
X-3753900Y-4992951D01*
X-3754989Y-4993679D01*
X-3756165Y-4994259D01*
X-3757407Y-4994680D01*
X-3758692Y-4994936D01*
X-3760000Y-4995022D01*
X-3770000D01*
X-3771308Y-4994936D01*
X-3772594Y-4994680D01*
X-3773835Y-4994259D01*
X-3775011Y-4993679D01*
X-3776101Y-4992951D01*
X-3777086Y-4992086D01*
X-3780639Y-4988533D01*
X-3780741Y-4988835D01*
X-3781321Y-4990011D01*
X-3782050Y-4991101D01*
X-3782914Y-4992086D01*
X-3783899Y-4992951D01*
X-3784989Y-4993679D01*
X-3786165Y-4994259D01*
X-3787406Y-4994680D01*
X-3788692Y-4994936D01*
X-3790000Y-4995022D01*
X-3800000D01*
X-3801308Y-4994936D01*
X-3802594Y-4994680D01*
X-3803835Y-4994259D01*
X-3805011Y-4993679D01*
X-3806101Y-4992951D01*
X-3807086Y-4992086D01*
X-3807951Y-4991101D01*
X-3808679Y-4990011D01*
X-3809259Y-4988835D01*
X-3809361Y-4988533D01*
X-3812914Y-4992086D01*
X-3813900Y-4992951D01*
X-3814990Y-4993679D01*
X-3816165Y-4994259D01*
X-3817407Y-4994680D01*
X-3818692Y-4994936D01*
X-3820000Y-4995022D01*
X-3830000D01*
X-3831308Y-4994936D01*
X-3832594Y-4994680D01*
X-3833835Y-4994259D01*
X-3835011Y-4993679D01*
X-3836101Y-4992951D01*
X-3837086Y-4992086D01*
X-3840639Y-4988533D01*
X-3840742Y-4988835D01*
X-3841322Y-4990011D01*
X-3842050Y-4991101D01*
X-3842914Y-4992086D01*
X-3843900Y-4992951D01*
X-3844990Y-4993679D01*
X-3846165Y-4994259D01*
X-3847407Y-4994680D01*
X-3848692Y-4994936D01*
X-3850000Y-4995022D01*
X-3860000D01*
X-3861309Y-4994936D01*
X-3862594Y-4994680D01*
X-3863835Y-4994259D01*
X-3865011Y-4993679D01*
X-3866101Y-4992951D01*
X-3867086Y-4992086D01*
X-3867951Y-4991101D01*
X-3868679Y-4990011D01*
X-3869259Y-4988835D01*
X-3869361Y-4988533D01*
X-3872914Y-4992086D01*
X-3873900Y-4992951D01*
X-3874990Y-4993679D01*
X-3876165Y-4994259D01*
X-3877407Y-4994680D01*
X-3878692Y-4994936D01*
X-3880000Y-4995022D01*
X-3890000D01*
X-3891308Y-4994936D01*
X-3892594Y-4994680D01*
X-3893835Y-4994259D01*
X-3895011Y-4993679D01*
X-3896101Y-4992951D01*
X-3897086Y-4992086D01*
X-3900639Y-4988534D01*
X-3900741Y-4988835D01*
X-3901321Y-4990011D01*
X-3902050Y-4991101D01*
X-3902914Y-4992086D01*
X-3903899Y-4992951D01*
X-3904989Y-4993679D01*
X-3906165Y-4994259D01*
X-3907406Y-4994680D01*
X-3908692Y-4994936D01*
X-3910000Y-4995022D01*
X-3920000D01*
X-3921308Y-4994936D01*
X-3922594Y-4994680D01*
X-3923835Y-4994259D01*
X-3925011Y-4993679D01*
X-3926101Y-4992951D01*
X-3927086Y-4992086D01*
X-3927951Y-4991101D01*
X-3928679Y-4990011D01*
X-3929259Y-4988835D01*
X-3929361Y-4988533D01*
X-3932914Y-4992086D01*
X-3933900Y-4992951D01*
X-3934990Y-4993679D01*
X-3936165Y-4994259D01*
X-3937407Y-4994680D01*
X-3938692Y-4994936D01*
X-3940000Y-4995022D01*
X-3950000D01*
X-3951308Y-4994936D01*
X-3952594Y-4994680D01*
X-3953835Y-4994259D01*
X-3955011Y-4993679D01*
X-3956101Y-4992951D01*
X-3957086Y-4992086D01*
X-3960639Y-4988533D01*
X-3960742Y-4988835D01*
X-3961322Y-4990011D01*
X-3962050Y-4991101D01*
X-3962914Y-4992086D01*
X-3963900Y-4992951D01*
X-3964990Y-4993679D01*
X-3966165Y-4994259D01*
X-3967407Y-4994680D01*
X-3968692Y-4994936D01*
X-3970000Y-4995022D01*
X-3980000D01*
X-3981309Y-4994936D01*
X-3982594Y-4994680D01*
X-3983835Y-4994259D01*
X-3985011Y-4993679D01*
X-3986101Y-4992951D01*
X-3987087Y-4992086D01*
X-3987951Y-4991101D01*
X-3988679Y-4990011D01*
X-3989259Y-4988835D01*
X-3989361Y-4988533D01*
X-3992914Y-4992086D01*
X-3993900Y-4992951D01*
X-3994990Y-4993679D01*
X-3996165Y-4994259D01*
X-3997407Y-4994680D01*
X-3998692Y-4994936D01*
X-4000000Y-4995022D01*
X-4010000D01*
X-4011308Y-4994936D01*
X-4012594Y-4994680D01*
X-4013836Y-4994259D01*
X-4015011Y-4993679D01*
X-4016101Y-4992951D01*
X-4017086Y-4992086D01*
X-4020639Y-4988534D01*
X-4020742Y-4988835D01*
X-4021321Y-4990011D01*
X-4022050Y-4991101D01*
X-4022914Y-4992086D01*
X-4023899Y-4992951D01*
X-4024989Y-4993679D01*
X-4026165Y-4994259D01*
X-4027406Y-4994680D01*
X-4028692Y-4994936D01*
X-4030000Y-4995022D01*
X-4040000D01*
X-4041308Y-4994936D01*
X-4042594Y-4994680D01*
X-4043835Y-4994259D01*
X-4045011Y-4993679D01*
X-4046101Y-4992951D01*
X-4047086Y-4992086D01*
X-4047951Y-4991101D01*
X-4048679Y-4990011D01*
X-4049259Y-4988835D01*
X-4049361Y-4988533D01*
X-4052914Y-4992086D01*
X-4053900Y-4992951D01*
X-4054990Y-4993679D01*
X-4056165Y-4994259D01*
X-4057407Y-4994680D01*
X-4058692Y-4994936D01*
X-4060000Y-4995022D01*
X-4070000D01*
X-4071308Y-4994936D01*
X-4072594Y-4994680D01*
X-4073835Y-4994259D01*
X-4075011Y-4993679D01*
X-4076101Y-4992951D01*
X-4077086Y-4992086D01*
X-4080639Y-4988533D01*
X-4080742Y-4988835D01*
X-4081322Y-4990011D01*
X-4082050Y-4991101D01*
X-4082914Y-4992086D01*
X-4083900Y-4992951D01*
X-4084990Y-4993679D01*
X-4086165Y-4994259D01*
X-4087407Y-4994680D01*
X-4088692Y-4994936D01*
X-4090000Y-4995022D01*
X-4100000D01*
X-4101309Y-4994936D01*
X-4102594Y-4994680D01*
X-4103835Y-4994259D01*
X-4105011Y-4993679D01*
X-4106101Y-4992951D01*
X-4107087Y-4992086D01*
X-4107951Y-4991101D01*
X-4108679Y-4990011D01*
X-4109259Y-4988835D01*
X-4109361Y-4988533D01*
X-4112914Y-4992086D01*
X-4113900Y-4992951D01*
X-4114990Y-4993679D01*
X-4116165Y-4994259D01*
X-4117407Y-4994680D01*
X-4118692Y-4994936D01*
X-4120000Y-4995022D01*
X-4130000D01*
X-4131308Y-4994936D01*
X-4132594Y-4994680D01*
X-4133836Y-4994259D01*
X-4135011Y-4993679D01*
X-4136101Y-4992951D01*
X-4137086Y-4992086D01*
X-4140639Y-4988534D01*
X-4140742Y-4988835D01*
X-4141321Y-4990011D01*
X-4142050Y-4991101D01*
X-4142914Y-4992086D01*
X-4143900Y-4992951D01*
X-4144989Y-4993679D01*
X-4146165Y-4994259D01*
X-4147406Y-4994680D01*
X-4148692Y-4994936D01*
X-4150000Y-4995022D01*
X-4160000D01*
X-4161308Y-4994936D01*
X-4162594Y-4994680D01*
X-4163835Y-4994259D01*
X-4165011Y-4993679D01*
X-4166101Y-4992951D01*
X-4167086Y-4992086D01*
X-4167951Y-4991101D01*
X-4168679Y-4990011D01*
X-4169259Y-4988835D01*
X-4169361Y-4988533D01*
X-4172914Y-4992086D01*
X-4173900Y-4992951D01*
X-4174989Y-4993679D01*
X-4176165Y-4994259D01*
X-4177407Y-4994680D01*
X-4178692Y-4994936D01*
X-4180000Y-4995022D01*
X-4190000D01*
X-4191308Y-4994936D01*
X-4192594Y-4994680D01*
X-4193835Y-4994259D01*
X-4195011Y-4993679D01*
X-4196101Y-4992951D01*
X-4197086Y-4992086D01*
X-4207086Y-4982086D01*
X-4207951Y-4981101D01*
X-4208679Y-4980011D01*
X-4209259Y-4978835D01*
X-4209680Y-4977594D01*
X-4209936Y-4976308D01*
X-4210022Y-4975000D01*
Y-4785000D01*
X-4209936Y-4783692D01*
X-4209680Y-4782406D01*
X-4209259Y-4781165D01*
X-4208679Y-4779989D01*
X-4207951Y-4778900D01*
X-4207086Y-4777914D01*
X-4206101Y-4777050D01*
X-4205011Y-4776321D01*
X-4203835Y-4775742D01*
X-4202594Y-4775320D01*
X-4201308Y-4775065D01*
X-4200000Y-4774979D01*
X-4170000D01*
X-4168692Y-4775065D01*
X-4167406Y-4775320D01*
X-4166165Y-4775742D01*
X-4165000Y-4776316D01*
X-4163835Y-4775742D01*
X-4162594Y-4775320D01*
X-4161308Y-4775065D01*
X-4160000Y-4774979D01*
X-4150000D01*
X-4148692Y-4775065D01*
X-4147406Y-4775320D01*
X-4146165Y-4775742D01*
X-4145000Y-4776316D01*
X-4143835Y-4775742D01*
X-4142594Y-4775320D01*
X-4141308Y-4775065D01*
X-4140000Y-4774979D01*
X-4110000D01*
X-4108692Y-4775065D01*
X-4107407Y-4775320D01*
X-4106166Y-4775742D01*
X-4105000Y-4776316D01*
X-4103835Y-4775742D01*
X-4102594Y-4775320D01*
X-4101309Y-4775065D01*
X-4100000Y-4774979D01*
X-4090000D01*
X-4088692Y-4775065D01*
X-4087407Y-4775320D01*
X-4086165Y-4775742D01*
X-4085000Y-4776316D01*
X-4083835Y-4775742D01*
X-4082594Y-4775320D01*
X-4081308Y-4775065D01*
X-4080000Y-4774979D01*
X-4050000D01*
X-4048692Y-4775065D01*
X-4047407Y-4775320D01*
X-4046165Y-4775742D01*
X-4045000Y-4776316D01*
X-4043835Y-4775742D01*
X-4042594Y-4775320D01*
X-4041308Y-4775065D01*
X-4040000Y-4774979D01*
X-4030000D01*
X-4028692Y-4775065D01*
X-4027406Y-4775320D01*
X-4026165Y-4775742D01*
X-4025000Y-4776316D01*
X-4023835Y-4775742D01*
X-4022594Y-4775320D01*
X-4021308Y-4775065D01*
X-4020000Y-4774979D01*
X-3990000D01*
X-3988692Y-4775065D01*
X-3987407Y-4775320D01*
X-3986166Y-4775742D01*
X-3985000Y-4776316D01*
X-3983835Y-4775742D01*
X-3982594Y-4775320D01*
X-3981309Y-4775065D01*
X-3980000Y-4774979D01*
X-3970000D01*
X-3968692Y-4775065D01*
X-3967407Y-4775320D01*
X-3966165Y-4775742D01*
X-3965000Y-4776316D01*
X-3963835Y-4775742D01*
X-3962594Y-4775320D01*
X-3961308Y-4775065D01*
X-3960000Y-4774979D01*
X-3930000D01*
X-3928692Y-4775065D01*
X-3927407Y-4775320D01*
X-3926165Y-4775742D01*
X-3925000Y-4776316D01*
X-3923835Y-4775742D01*
X-3922594Y-4775320D01*
X-3921308Y-4775065D01*
X-3920000Y-4774979D01*
X-3910000D01*
X-3908692Y-4775065D01*
X-3907406Y-4775320D01*
X-3906165Y-4775742D01*
X-3905000Y-4776316D01*
X-3903835Y-4775742D01*
X-3902594Y-4775320D01*
X-3901308Y-4775065D01*
X-3900000Y-4774979D01*
X-3870000D01*
X-3868692Y-4775065D01*
X-3867407Y-4775320D01*
X-3866165Y-4775742D01*
X-3865000Y-4776316D01*
X-3863835Y-4775742D01*
X-3862594Y-4775320D01*
X-3861309Y-4775065D01*
X-3860000Y-4774979D01*
X-3850000D01*
X-3848692Y-4775065D01*
X-3847407Y-4775320D01*
X-3846165Y-4775742D01*
X-3845000Y-4776316D01*
X-3843835Y-4775742D01*
X-3842594Y-4775320D01*
X-3841308Y-4775065D01*
X-3840000Y-4774979D01*
X-3810000D01*
X-3808692Y-4775065D01*
X-3807407Y-4775320D01*
X-3806165Y-4775742D01*
X-3805000Y-4776316D01*
X-3803835Y-4775742D01*
X-3802594Y-4775320D01*
X-3801308Y-4775065D01*
X-3800000Y-4774979D01*
X-3790000D01*
X-3788692Y-4775065D01*
X-3787406Y-4775320D01*
X-3786165Y-4775742D01*
X-3785000Y-4776316D01*
X-3783835Y-4775742D01*
X-3782594Y-4775320D01*
X-3781308Y-4775065D01*
X-3780000Y-4774979D01*
X-3750000D01*
X-3748692Y-4775065D01*
D02*
G37*
D67*
X-2800000Y2000000D02*
D03*
X2800000Y-2000000D02*
D03*
Y-3600000D02*
D03*
X400000D02*
D03*
X-400000D02*
D03*
X-2000000D02*
D03*
X-1200000D02*
D03*
X2000000D02*
D03*
X1200000D02*
D03*
X2800000Y3600000D02*
D03*
X400000D02*
D03*
X-400000D02*
D03*
X-2000000D02*
D03*
X-1200000D02*
D03*
X2000000D02*
D03*
X1200000D02*
D03*
X-2800000D02*
D03*
X2800000Y2800000D02*
D03*
Y400000D02*
D03*
Y-400000D02*
D03*
Y-1200000D02*
D03*
Y2000000D02*
D03*
Y1200000D02*
D03*
X-2800000Y-3599999D02*
D03*
Y-2799999D02*
D03*
Y-2000000D02*
D03*
Y-1200000D02*
D03*
Y-400000D02*
D03*
Y400000D02*
D03*
Y1200000D02*
D03*
D68*
X240000Y-1980000D02*
D03*
X-4170011Y-4720709D02*
D03*
X4167552Y4717044D02*
D03*
X3702500Y4090000D02*
D03*
D69*
X-1840000Y-1840000D02*
D03*
Y-1760000D02*
D03*
X-1780000Y-1800000D02*
D03*
X-1840000Y-1680000D02*
D03*
X-1780000Y-1720000D02*
D03*
Y-1640000D02*
D03*
X-1840000Y-1600000D02*
D03*
Y-1520000D02*
D03*
X-1780000Y-1560000D02*
D03*
X-1840000Y-1440000D02*
D03*
X-1780000Y-1480000D02*
D03*
Y-1400000D02*
D03*
X-1840000Y-1360000D02*
D03*
Y-1280000D02*
D03*
X-1780000Y-1320000D02*
D03*
X-1840000Y-1200000D02*
D03*
X-1780000Y-1240000D02*
D03*
Y-1160000D02*
D03*
X-1840000Y-1120000D02*
D03*
Y-1040000D02*
D03*
X-1780000Y-1080000D02*
D03*
X-1840000Y-960000D02*
D03*
X-1780000Y-1000001D02*
D03*
Y-920000D02*
D03*
X-1840000Y-880000D02*
D03*
Y-800000D02*
D03*
X-1780000Y-840000D02*
D03*
X-1840000Y-720000D02*
D03*
X-1780000Y-760000D02*
D03*
Y-680000D02*
D03*
X-1840000Y-640000D02*
D03*
Y-560000D02*
D03*
X-1780000Y-600000D02*
D03*
X-1840000Y-480000D02*
D03*
X-1780000Y-520000D02*
D03*
Y-440000D02*
D03*
X-1840000Y-400000D02*
D03*
Y-320000D02*
D03*
X-1780000Y-360000D02*
D03*
X-1840000Y-240000D02*
D03*
X-1780000Y-280000D02*
D03*
Y-200000D02*
D03*
X-1840000Y-160000D02*
D03*
Y-80001D02*
D03*
X-1780000Y-120001D02*
D03*
X-1840000Y-1D02*
D03*
X-1780000Y-40001D02*
D03*
Y39999D02*
D03*
X-1840000Y80000D02*
D03*
Y160000D02*
D03*
X-1780000Y120000D02*
D03*
X-1840000Y240000D02*
D03*
X-1780000Y200000D02*
D03*
Y280000D02*
D03*
X-1840000Y320000D02*
D03*
Y400000D02*
D03*
X-1780000Y360000D02*
D03*
X-1840000Y480000D02*
D03*
X-1780000Y440000D02*
D03*
Y520000D02*
D03*
X-1840000Y560000D02*
D03*
Y640000D02*
D03*
X-1780000Y600000D02*
D03*
X-1840000Y720000D02*
D03*
X-1780000Y680000D02*
D03*
Y760000D02*
D03*
X-1840000Y800000D02*
D03*
Y880000D02*
D03*
X-1780000Y840000D02*
D03*
X-1840000Y960000D02*
D03*
X-1780000Y919999D02*
D03*
Y1000000D02*
D03*
X-1840000Y1040000D02*
D03*
Y1120000D02*
D03*
X-1780000Y1080000D02*
D03*
X-1840000Y1200000D02*
D03*
X-1780000Y1160000D02*
D03*
Y1240000D02*
D03*
X-1840000Y1280000D02*
D03*
Y1360000D02*
D03*
X-1780000Y1320000D02*
D03*
X-1840000Y1440000D02*
D03*
X-1780000Y1399999D02*
D03*
Y1480000D02*
D03*
X-1840000Y1520000D02*
D03*
Y1600000D02*
D03*
X-1780000Y1560000D02*
D03*
X-1840000Y1680000D02*
D03*
X-1780000Y1640000D02*
D03*
Y1720000D02*
D03*
X-1840000Y1760000D02*
D03*
Y1839999D02*
D03*
X-1780000Y1799999D02*
D03*
X-1720000Y-1840000D02*
D03*
Y-1760000D02*
D03*
X-1660000Y-1800000D02*
D03*
X-1720000Y-1680000D02*
D03*
X-1660000Y-1720000D02*
D03*
Y-1640000D02*
D03*
X-1720000Y-1600000D02*
D03*
Y-1520000D02*
D03*
X-1660000Y-1560000D02*
D03*
X-1720000Y-1440000D02*
D03*
X-1660000Y-1480000D02*
D03*
Y-1400000D02*
D03*
X-1720000Y-1360000D02*
D03*
Y-1280000D02*
D03*
X-1660000Y-1320000D02*
D03*
X-1720000Y-1200000D02*
D03*
X-1660000Y-1240000D02*
D03*
Y-1160000D02*
D03*
X-1720000Y-1120000D02*
D03*
Y-1040000D02*
D03*
X-1660000Y-1080000D02*
D03*
X-1720000Y-960000D02*
D03*
X-1660000Y-1000001D02*
D03*
Y-920000D02*
D03*
X-1720000Y-880000D02*
D03*
Y-800000D02*
D03*
X-1660000Y-840000D02*
D03*
X-1720000Y-720000D02*
D03*
X-1660000Y-760000D02*
D03*
Y-680000D02*
D03*
X-1720000Y-640000D02*
D03*
Y-560000D02*
D03*
X-1660000Y-600000D02*
D03*
X-1720000Y-480000D02*
D03*
X-1660000Y-520000D02*
D03*
Y-440000D02*
D03*
X-1720000Y-400000D02*
D03*
Y-320000D02*
D03*
X-1660000Y-360000D02*
D03*
X-1720000Y-240000D02*
D03*
X-1660000Y-280000D02*
D03*
Y-200000D02*
D03*
X-1720000Y-160000D02*
D03*
Y-80001D02*
D03*
X-1660000Y-120001D02*
D03*
X-1720000Y-1D02*
D03*
X-1660000Y-40001D02*
D03*
Y39999D02*
D03*
X-1720000Y80000D02*
D03*
Y160000D02*
D03*
X-1660000Y120000D02*
D03*
X-1720000Y240000D02*
D03*
X-1660000Y200000D02*
D03*
Y280000D02*
D03*
X-1720000Y320000D02*
D03*
Y400000D02*
D03*
X-1660000Y360000D02*
D03*
X-1720000Y480000D02*
D03*
X-1660000Y440000D02*
D03*
Y520000D02*
D03*
X-1720000Y560000D02*
D03*
Y640000D02*
D03*
X-1660000Y600000D02*
D03*
X-1720000Y720000D02*
D03*
X-1660000Y680000D02*
D03*
Y760000D02*
D03*
X-1720000Y800000D02*
D03*
Y880000D02*
D03*
X-1660000Y840000D02*
D03*
X-1720000Y960000D02*
D03*
X-1660000Y919999D02*
D03*
Y1000000D02*
D03*
X-1720000Y1040000D02*
D03*
Y1120000D02*
D03*
X-1660000Y1080000D02*
D03*
X-1720000Y1200000D02*
D03*
X-1660000Y1160000D02*
D03*
Y1240000D02*
D03*
X-1720000Y1280000D02*
D03*
Y1360000D02*
D03*
X-1660000Y1320000D02*
D03*
X-1720000Y1440000D02*
D03*
X-1660000Y1399999D02*
D03*
Y1480000D02*
D03*
X-1720000Y1520000D02*
D03*
Y1600000D02*
D03*
X-1660000Y1560000D02*
D03*
X-1720000Y1680000D02*
D03*
X-1660000Y1640000D02*
D03*
Y1720000D02*
D03*
X-1720000Y1760000D02*
D03*
Y1839999D02*
D03*
X-1660000Y1799999D02*
D03*
X-1600000Y-1840000D02*
D03*
Y-1760000D02*
D03*
X-1540000Y-1800000D02*
D03*
X-1600000Y-1680000D02*
D03*
X-1540000Y-1720000D02*
D03*
Y-1640000D02*
D03*
X-1600000Y-1600000D02*
D03*
Y-1520000D02*
D03*
X-1540000Y-1560000D02*
D03*
X-1600000Y-1440000D02*
D03*
X-1540000Y-1480000D02*
D03*
Y-1400000D02*
D03*
X-1600000Y-1360000D02*
D03*
Y-1280000D02*
D03*
X-1540000Y-1320000D02*
D03*
X-1600000Y-1200000D02*
D03*
X-1540000Y-1240000D02*
D03*
Y-1160000D02*
D03*
X-1600000Y-1120000D02*
D03*
Y-1040000D02*
D03*
X-1540000Y-1080000D02*
D03*
X-1600000Y-960000D02*
D03*
X-1540000Y-1000001D02*
D03*
Y-920000D02*
D03*
X-1600000Y-880000D02*
D03*
Y-800000D02*
D03*
X-1540000Y-840000D02*
D03*
X-1600000Y-720000D02*
D03*
X-1540000Y-760000D02*
D03*
Y-680000D02*
D03*
X-1600000Y-640000D02*
D03*
Y-560000D02*
D03*
X-1540000Y-600000D02*
D03*
X-1600000Y-480000D02*
D03*
X-1540000Y-520000D02*
D03*
Y-440000D02*
D03*
X-1600000Y-400000D02*
D03*
Y-320000D02*
D03*
X-1540000Y-360000D02*
D03*
X-1600000Y-240000D02*
D03*
X-1540000Y-280000D02*
D03*
Y-200000D02*
D03*
X-1600000Y-160000D02*
D03*
Y-80001D02*
D03*
X-1540000Y-120001D02*
D03*
X-1600000Y-1D02*
D03*
X-1540000Y-40001D02*
D03*
Y39999D02*
D03*
X-1600000Y80000D02*
D03*
Y160000D02*
D03*
X-1540000Y120000D02*
D03*
X-1600000Y240000D02*
D03*
X-1540000Y200000D02*
D03*
Y280000D02*
D03*
X-1600000Y320000D02*
D03*
Y400000D02*
D03*
X-1540000Y360000D02*
D03*
X-1600000Y480000D02*
D03*
X-1540000Y440000D02*
D03*
Y520000D02*
D03*
X-1600000Y560000D02*
D03*
Y640000D02*
D03*
X-1540000Y600000D02*
D03*
X-1600000Y720000D02*
D03*
X-1540000Y680000D02*
D03*
Y760000D02*
D03*
X-1600000Y800000D02*
D03*
Y880000D02*
D03*
X-1540000Y840000D02*
D03*
X-1600000Y960000D02*
D03*
X-1540000Y919999D02*
D03*
Y1000000D02*
D03*
X-1600000Y1040000D02*
D03*
Y1120000D02*
D03*
X-1540000Y1080000D02*
D03*
X-1600000Y1200000D02*
D03*
X-1540000Y1160000D02*
D03*
Y1240000D02*
D03*
X-1600000Y1280000D02*
D03*
Y1360000D02*
D03*
X-1540000Y1320000D02*
D03*
X-1600000Y1440000D02*
D03*
X-1540000Y1399999D02*
D03*
Y1480000D02*
D03*
X-1600000Y1520000D02*
D03*
Y1600000D02*
D03*
X-1540000Y1560000D02*
D03*
X-1600000Y1680000D02*
D03*
X-1540000Y1640000D02*
D03*
Y1720000D02*
D03*
X-1600000Y1760000D02*
D03*
Y1839999D02*
D03*
X-1540000Y1799999D02*
D03*
X1841220Y1840553D02*
D03*
Y1760553D02*
D03*
X1781220Y1800553D02*
D03*
X1841220Y1680553D02*
D03*
X1781220Y1720553D02*
D03*
Y1640553D02*
D03*
X1841220Y1600553D02*
D03*
Y1520553D02*
D03*
X1781220Y1560553D02*
D03*
X1841220Y1440553D02*
D03*
X1781220Y1480554D02*
D03*
Y1400553D02*
D03*
X1841220Y1360553D02*
D03*
Y1280553D02*
D03*
X1781220Y1320553D02*
D03*
X1841220Y1200553D02*
D03*
X1781220Y1240554D02*
D03*
Y1160553D02*
D03*
X1841220Y1120554D02*
D03*
Y1040554D02*
D03*
X1781220Y1080554D02*
D03*
X1841220Y960554D02*
D03*
X1781220Y1000554D02*
D03*
Y920554D02*
D03*
X1841220Y880553D02*
D03*
Y800553D02*
D03*
X1781220Y840553D02*
D03*
X1841220Y720553D02*
D03*
X1781220Y760553D02*
D03*
Y680553D02*
D03*
X1841220Y640553D02*
D03*
Y560554D02*
D03*
X1781220Y600554D02*
D03*
X1841220Y480554D02*
D03*
X1781220Y520554D02*
D03*
Y440554D02*
D03*
X1841220Y400553D02*
D03*
Y320554D02*
D03*
X1781220Y360554D02*
D03*
X1841220Y240553D02*
D03*
X1781220Y280554D02*
D03*
Y200554D02*
D03*
X1841220Y160554D02*
D03*
Y80554D02*
D03*
X1781220Y120554D02*
D03*
X1841220Y554D02*
D03*
X1781220Y40554D02*
D03*
Y-39446D02*
D03*
X1841220Y-79447D02*
D03*
Y-159447D02*
D03*
X1781220Y-119447D02*
D03*
X1841220Y-239447D02*
D03*
X1781220Y-199447D02*
D03*
Y-279447D02*
D03*
X1841220Y-319447D02*
D03*
Y-399446D02*
D03*
X1781220Y-359447D02*
D03*
X1841220Y-479447D02*
D03*
X1781220Y-439446D02*
D03*
Y-519447D02*
D03*
X1841220Y-559447D02*
D03*
Y-639447D02*
D03*
X1781220Y-599447D02*
D03*
X1841220Y-719447D02*
D03*
X1781220Y-679446D02*
D03*
Y-759447D02*
D03*
X1841220Y-799446D02*
D03*
Y-879446D02*
D03*
X1781220Y-839446D02*
D03*
X1841220Y-959446D02*
D03*
X1781220Y-919446D02*
D03*
Y-999446D02*
D03*
X1841220Y-1039447D02*
D03*
Y-1119447D02*
D03*
X1781220Y-1079447D02*
D03*
X1841220Y-1199447D02*
D03*
X1781220Y-1159446D02*
D03*
Y-1239447D02*
D03*
X1841220Y-1279447D02*
D03*
Y-1359446D02*
D03*
X1781220Y-1319446D02*
D03*
X1841220Y-1439446D02*
D03*
X1781220Y-1399446D02*
D03*
Y-1479446D02*
D03*
X1841220Y-1519447D02*
D03*
Y-1599446D02*
D03*
X1781220Y-1559446D02*
D03*
X1841220Y-1679446D02*
D03*
X1781220Y-1639446D02*
D03*
Y-1719446D02*
D03*
X1841220Y-1759446D02*
D03*
Y-1839446D02*
D03*
X1781220Y-1799446D02*
D03*
X1721220Y1840553D02*
D03*
Y1760553D02*
D03*
X1661220Y1800553D02*
D03*
X1721220Y1680553D02*
D03*
X1661220Y1720553D02*
D03*
Y1640553D02*
D03*
X1721220Y1600553D02*
D03*
Y1520553D02*
D03*
X1661220Y1560553D02*
D03*
X1721220Y1440553D02*
D03*
X1661220Y1480554D02*
D03*
Y1400553D02*
D03*
X1721220Y1360553D02*
D03*
Y1280553D02*
D03*
X1661220Y1320553D02*
D03*
X1721220Y1200553D02*
D03*
X1661220Y1240554D02*
D03*
Y1160553D02*
D03*
X1721220Y1120554D02*
D03*
Y1040554D02*
D03*
X1661220Y1080554D02*
D03*
X1721220Y960554D02*
D03*
X1661220Y1000554D02*
D03*
Y920554D02*
D03*
X1721220Y880553D02*
D03*
Y800553D02*
D03*
X1661220Y840553D02*
D03*
X1721220Y720553D02*
D03*
X1661220Y760553D02*
D03*
Y680553D02*
D03*
X1721220Y640553D02*
D03*
Y560554D02*
D03*
X1661220Y600554D02*
D03*
X1721220Y480554D02*
D03*
X1661220Y520554D02*
D03*
Y440554D02*
D03*
X1721220Y400553D02*
D03*
Y320554D02*
D03*
X1661220Y360554D02*
D03*
X1721220Y240553D02*
D03*
X1661220Y280554D02*
D03*
Y200554D02*
D03*
X1721220Y160554D02*
D03*
Y80554D02*
D03*
X1661220Y120554D02*
D03*
X1721220Y554D02*
D03*
X1661220Y40554D02*
D03*
Y-39446D02*
D03*
X1721220Y-79447D02*
D03*
Y-159447D02*
D03*
X1661220Y-119447D02*
D03*
X1721220Y-239447D02*
D03*
X1661220Y-199447D02*
D03*
Y-279447D02*
D03*
X1721220Y-319447D02*
D03*
Y-399446D02*
D03*
X1661220Y-359447D02*
D03*
X1721220Y-479447D02*
D03*
X1661220Y-439446D02*
D03*
Y-519447D02*
D03*
X1721220Y-559447D02*
D03*
Y-639447D02*
D03*
X1661220Y-599447D02*
D03*
X1721220Y-719447D02*
D03*
X1661220Y-679446D02*
D03*
Y-759447D02*
D03*
X1721220Y-799446D02*
D03*
Y-879446D02*
D03*
X1661220Y-839446D02*
D03*
X1721220Y-959446D02*
D03*
X1661220Y-919446D02*
D03*
Y-999446D02*
D03*
X1721220Y-1039447D02*
D03*
Y-1119447D02*
D03*
X1661220Y-1079447D02*
D03*
X1721220Y-1199447D02*
D03*
X1661220Y-1159446D02*
D03*
Y-1239447D02*
D03*
X1721220Y-1279447D02*
D03*
Y-1359446D02*
D03*
X1661220Y-1319446D02*
D03*
X1721220Y-1439446D02*
D03*
X1661220Y-1399446D02*
D03*
Y-1479446D02*
D03*
X1721220Y-1519447D02*
D03*
Y-1599446D02*
D03*
X1661220Y-1559446D02*
D03*
X1721220Y-1679446D02*
D03*
X1661220Y-1639446D02*
D03*
Y-1719446D02*
D03*
X1721220Y-1759446D02*
D03*
Y-1839446D02*
D03*
X1661220Y-1799446D02*
D03*
X1601220Y1840553D02*
D03*
Y1760553D02*
D03*
X1541220Y1800553D02*
D03*
X1601220Y1680553D02*
D03*
X1541220Y1720553D02*
D03*
Y1640553D02*
D03*
X1601220Y1600553D02*
D03*
Y1520553D02*
D03*
X1541220Y1560553D02*
D03*
X1601220Y1440553D02*
D03*
X1541220Y1480554D02*
D03*
Y1400553D02*
D03*
X1601220Y1360553D02*
D03*
Y1280553D02*
D03*
X1541220Y1320553D02*
D03*
X1601220Y1200553D02*
D03*
X1541220Y1240554D02*
D03*
Y1160553D02*
D03*
X1601220Y1120554D02*
D03*
Y1040554D02*
D03*
X1541220Y1080554D02*
D03*
X1601220Y960554D02*
D03*
X1541220Y1000554D02*
D03*
Y920554D02*
D03*
X1601220Y880553D02*
D03*
Y800553D02*
D03*
X1541220Y840553D02*
D03*
X1601220Y720553D02*
D03*
X1541220Y760553D02*
D03*
Y680553D02*
D03*
X1601220Y640553D02*
D03*
Y560554D02*
D03*
X1541220Y600554D02*
D03*
X1601220Y480554D02*
D03*
X1541220Y520554D02*
D03*
Y440554D02*
D03*
X1601220Y400553D02*
D03*
Y320554D02*
D03*
X1541220Y360554D02*
D03*
X1601220Y240553D02*
D03*
X1541220Y280554D02*
D03*
Y200554D02*
D03*
X1601220Y160554D02*
D03*
Y80554D02*
D03*
X1541220Y120554D02*
D03*
X1601220Y554D02*
D03*
X1541220Y40554D02*
D03*
Y-39446D02*
D03*
X1601220Y-79447D02*
D03*
Y-159447D02*
D03*
X1541220Y-119447D02*
D03*
X1601220Y-239447D02*
D03*
X1541220Y-199447D02*
D03*
Y-279447D02*
D03*
X1601220Y-319447D02*
D03*
Y-399446D02*
D03*
X1541220Y-359447D02*
D03*
X1601220Y-479447D02*
D03*
X1541220Y-439446D02*
D03*
Y-519447D02*
D03*
X1601220Y-559447D02*
D03*
Y-639447D02*
D03*
X1541220Y-599447D02*
D03*
X1601220Y-719447D02*
D03*
X1541220Y-679446D02*
D03*
Y-759447D02*
D03*
X1601220Y-799446D02*
D03*
Y-879446D02*
D03*
X1541220Y-839446D02*
D03*
X1601220Y-959446D02*
D03*
X1541220Y-919446D02*
D03*
Y-999446D02*
D03*
X1601220Y-1039447D02*
D03*
Y-1119447D02*
D03*
X1541220Y-1079447D02*
D03*
X1601220Y-1199447D02*
D03*
X1541220Y-1159446D02*
D03*
Y-1239447D02*
D03*
X1601220Y-1279447D02*
D03*
Y-1359446D02*
D03*
X1541220Y-1319446D02*
D03*
X1601220Y-1439446D02*
D03*
X1541220Y-1399446D02*
D03*
Y-1479446D02*
D03*
X1601220Y-1519447D02*
D03*
Y-1599446D02*
D03*
X1541220Y-1559446D02*
D03*
X1601220Y-1679446D02*
D03*
X1541220Y-1639446D02*
D03*
Y-1719446D02*
D03*
X1601220Y-1759446D02*
D03*
Y-1839446D02*
D03*
X1541220Y-1799446D02*
D03*
X-1440000Y-1540000D02*
D03*
X-1480000Y-1600000D02*
D03*
X-1400000D02*
D03*
X-1360000Y-1540000D02*
D03*
X-1280000D02*
D03*
X-1320000Y-1600000D02*
D03*
X-1200000Y-1540000D02*
D03*
X-1240000Y-1600000D02*
D03*
X-1160000D02*
D03*
X-1120000Y-1540000D02*
D03*
X-1040000D02*
D03*
X-1080000Y-1600000D02*
D03*
X-960000Y-1540000D02*
D03*
X-1000001Y-1600000D02*
D03*
X-920000D02*
D03*
X-880000Y-1540000D02*
D03*
X-800000D02*
D03*
X-840000Y-1600000D02*
D03*
X-720000Y-1540000D02*
D03*
X-760000Y-1600000D02*
D03*
X720000Y-1540000D02*
D03*
X760000Y-1600000D02*
D03*
X800000Y-1540000D02*
D03*
X880000D02*
D03*
X840000Y-1600000D02*
D03*
X960000Y-1540000D02*
D03*
X919999Y-1600000D02*
D03*
X1000000D02*
D03*
X1040000Y-1540000D02*
D03*
X1120000D02*
D03*
X1080000Y-1600000D02*
D03*
X1200000Y-1540000D02*
D03*
X1160000Y-1600000D02*
D03*
X1240000D02*
D03*
X1280000Y-1540000D02*
D03*
X1360000D02*
D03*
X1320000Y-1600000D02*
D03*
X1440000Y-1540000D02*
D03*
X1399999Y-1600000D02*
D03*
X1480000D02*
D03*
X-1440000Y-1660000D02*
D03*
X-1480000Y-1720000D02*
D03*
X-1400000D02*
D03*
X-1360000Y-1660000D02*
D03*
X-1280000D02*
D03*
X-1320000Y-1720000D02*
D03*
X-1200000Y-1660000D02*
D03*
X-1240000Y-1720000D02*
D03*
X-1160000D02*
D03*
X-1120000Y-1660000D02*
D03*
X-1040000D02*
D03*
X-1080000Y-1720000D02*
D03*
X-960000Y-1660000D02*
D03*
X-1000001Y-1720000D02*
D03*
X-920000D02*
D03*
X-880000Y-1660000D02*
D03*
X-800000D02*
D03*
X-840000Y-1720000D02*
D03*
X-720000Y-1660000D02*
D03*
X-760000Y-1720000D02*
D03*
X720000Y-1660000D02*
D03*
X760000Y-1720000D02*
D03*
X800000Y-1660000D02*
D03*
X880000D02*
D03*
X840000Y-1720000D02*
D03*
X960000Y-1660000D02*
D03*
X919999Y-1720000D02*
D03*
X1000000D02*
D03*
X1040000Y-1660000D02*
D03*
X1120000D02*
D03*
X1080000Y-1720000D02*
D03*
X1200000Y-1660000D02*
D03*
X1160000Y-1720000D02*
D03*
X1240000D02*
D03*
X1280000Y-1660000D02*
D03*
X1360000D02*
D03*
X1320000Y-1720000D02*
D03*
X1440000Y-1660000D02*
D03*
X1399999Y-1720000D02*
D03*
X1480000D02*
D03*
X-1440000Y-1780000D02*
D03*
X-1480000Y-1840000D02*
D03*
X-1400000D02*
D03*
X-1360000Y-1780000D02*
D03*
X-1280000D02*
D03*
X-1320000Y-1840000D02*
D03*
X-1200000Y-1780000D02*
D03*
X-1240000Y-1840000D02*
D03*
X-1160000D02*
D03*
X-1120000Y-1780000D02*
D03*
X-1040000D02*
D03*
X-1080000Y-1840000D02*
D03*
X-960000Y-1780000D02*
D03*
X-1000001Y-1840000D02*
D03*
X-920000D02*
D03*
X-880000Y-1780000D02*
D03*
X-800000D02*
D03*
X-840000Y-1840000D02*
D03*
X-720000Y-1780000D02*
D03*
X-760000Y-1840000D02*
D03*
X720000Y-1780000D02*
D03*
X760000Y-1840000D02*
D03*
X800000Y-1780000D02*
D03*
X880000D02*
D03*
X840000Y-1840000D02*
D03*
X960000Y-1780000D02*
D03*
X919999Y-1840000D02*
D03*
X1000000D02*
D03*
X1040000Y-1780000D02*
D03*
X1120000D02*
D03*
X1080000Y-1840000D02*
D03*
X1200000Y-1780000D02*
D03*
X1160000Y-1840000D02*
D03*
X1240000D02*
D03*
X1280000Y-1780000D02*
D03*
X1360000D02*
D03*
X1320000Y-1840000D02*
D03*
X1440000Y-1780000D02*
D03*
X1399999Y-1840000D02*
D03*
X1480000D02*
D03*
X1440000Y1540000D02*
D03*
X1480000Y1600000D02*
D03*
X1400000D02*
D03*
X1360000Y1540000D02*
D03*
X1280000D02*
D03*
X1320000Y1600000D02*
D03*
X1200000Y1540000D02*
D03*
X1240000Y1600000D02*
D03*
X1160000D02*
D03*
X1120000Y1540000D02*
D03*
X1040000D02*
D03*
X1080000Y1600000D02*
D03*
X960000Y1540000D02*
D03*
X1000001Y1600000D02*
D03*
X920000D02*
D03*
X880000Y1540000D02*
D03*
X800000D02*
D03*
X840000Y1600000D02*
D03*
X720000Y1540000D02*
D03*
X760000Y1600000D02*
D03*
X-720000Y1540000D02*
D03*
X-760000Y1600000D02*
D03*
X-800000Y1540000D02*
D03*
X-880000D02*
D03*
X-840000Y1600000D02*
D03*
X-960000Y1540000D02*
D03*
X-919999Y1600000D02*
D03*
X-1000000D02*
D03*
X-1040000Y1540000D02*
D03*
X-1120000D02*
D03*
X-1080000Y1600000D02*
D03*
X-1200000Y1540000D02*
D03*
X-1160000Y1600000D02*
D03*
X-1240000D02*
D03*
X-1280000Y1540000D02*
D03*
X-1360000D02*
D03*
X-1320000Y1600000D02*
D03*
X-1440000Y1540000D02*
D03*
X-1399999Y1600000D02*
D03*
X-1480000D02*
D03*
X1440000Y1660000D02*
D03*
X1480000Y1720000D02*
D03*
X1400000D02*
D03*
X1360000Y1660000D02*
D03*
X1280000D02*
D03*
X1320000Y1720000D02*
D03*
X1200000Y1660000D02*
D03*
X1240000Y1720000D02*
D03*
X1160000D02*
D03*
X1120000Y1660000D02*
D03*
X1040000D02*
D03*
X1080000Y1720000D02*
D03*
X960000Y1660000D02*
D03*
X1000001Y1720000D02*
D03*
X920000D02*
D03*
X880000Y1660000D02*
D03*
X800000D02*
D03*
X840000Y1720000D02*
D03*
X720000Y1660000D02*
D03*
X760000Y1720000D02*
D03*
X-720000Y1660000D02*
D03*
X-760000Y1720000D02*
D03*
X-800000Y1660000D02*
D03*
X-880000D02*
D03*
X-840000Y1720000D02*
D03*
X-960000Y1660000D02*
D03*
X-919999Y1720000D02*
D03*
X-1000000D02*
D03*
X-1040000Y1660000D02*
D03*
X-1120000D02*
D03*
X-1080000Y1720000D02*
D03*
X-1200000Y1660000D02*
D03*
X-1160000Y1720000D02*
D03*
X-1240000D02*
D03*
X-1280000Y1660000D02*
D03*
X-1360000D02*
D03*
X-1320000Y1720000D02*
D03*
X-1440000Y1660000D02*
D03*
X-1399999Y1720000D02*
D03*
X-1480000D02*
D03*
X1440000Y1780000D02*
D03*
X1480000Y1840000D02*
D03*
X1400000D02*
D03*
X1360000Y1780000D02*
D03*
X1280000D02*
D03*
X1320000Y1840000D02*
D03*
X1200000Y1780000D02*
D03*
X1240000Y1840000D02*
D03*
X1160000D02*
D03*
X1120000Y1780000D02*
D03*
X1040000D02*
D03*
X1080000Y1840000D02*
D03*
X960000Y1780000D02*
D03*
X1000001Y1840000D02*
D03*
X920000D02*
D03*
X880000Y1780000D02*
D03*
X800000D02*
D03*
X840000Y1840000D02*
D03*
X720000Y1780000D02*
D03*
X760000Y1840000D02*
D03*
X-720000Y1780000D02*
D03*
X-760000Y1840000D02*
D03*
X-800000Y1780000D02*
D03*
X-880000D02*
D03*
X-840000Y1840000D02*
D03*
X-960000Y1780000D02*
D03*
X-919999Y1840000D02*
D03*
X-1000000D02*
D03*
X-1040000Y1780000D02*
D03*
X-1120000D02*
D03*
X-1080000Y1840000D02*
D03*
X-1200000Y1780000D02*
D03*
X-1160000Y1840000D02*
D03*
X-1240000D02*
D03*
X-1280000Y1780000D02*
D03*
X-1360000D02*
D03*
X-1320000Y1840000D02*
D03*
X-1440000Y1780000D02*
D03*
X-1399999Y1840000D02*
D03*
X-1480000D02*
D03*
D70*
X4189105Y5000000D02*
X4189099Y4245004D01*
D01*
Y4245003D01*
X4191071Y4235093D01*
X4194821Y4229479D01*
X4196684Y4226691D01*
X4196685D01*
Y4226691D01*
X4334190Y4089186D01*
X4342592Y4083572D01*
X4350541Y4081991D01*
Y-4350540D01*
X-3299210D01*
X-3299103Y-4350000D01*
Y-4350000D01*
X-3299967Y-4345653D01*
X-3300617Y-4341275D01*
X-3300948Y-4340722D01*
X-3301074Y-4340089D01*
X-3303536Y-4336405D01*
X-3305812Y-4332608D01*
X-3306329Y-4332224D01*
X-3306688Y-4331687D01*
X-3310372Y-4329226D01*
X-3313928Y-4326589D01*
X-3314553Y-4326432D01*
X-3315090Y-4326073D01*
X-3319435Y-4325209D01*
X-3323730Y-4324133D01*
X-3338974Y-4323385D01*
X-3368245Y-4317562D01*
X-3395226Y-4306387D01*
X-3419509Y-4290161D01*
X-3440159Y-4269511D01*
X-3456383Y-4245229D01*
X-3467559Y-4218248D01*
X-3473382Y-4188977D01*
X-3474099Y-4174368D01*
X-3474100Y2450000D01*
X-3474101Y2450005D01*
X-3474100Y2459944D01*
Y2459945D01*
Y2459945D01*
X-3474753Y2463227D01*
X-3476071Y2469855D01*
X-3476072Y2469855D01*
Y2469856D01*
X-3483683Y2488233D01*
Y2488233D01*
X-3487434Y2493847D01*
X-3489297Y2496635D01*
X-3489297D01*
Y2496635D01*
X-3503363Y2510700D01*
X-3503363D01*
Y2510701D01*
X-3506151Y2512563D01*
X-3511764Y2516314D01*
X-3511765D01*
X-3530142Y2523926D01*
X-3530142Y2523926D01*
X-3536764Y2525243D01*
X-3540052Y2525897D01*
X-3540053D01*
X-3540053D01*
X-3549998Y2525897D01*
X-3550001Y2525897D01*
X-3559943Y2525897D01*
X-3559944D01*
X-3559944D01*
X-3564876Y2524916D01*
X-3569854Y2523926D01*
X-3569854Y2523926D01*
X-3569854D01*
X-3588231Y2516314D01*
X-3596633Y2510700D01*
X-3610698Y2496635D01*
X-3616312Y2488233D01*
X-3623924Y2469856D01*
Y2469856D01*
X-3623924Y2469856D01*
X-3624914Y2464878D01*
X-3625895Y2459946D01*
Y2459945D01*
Y2459945D01*
X-3625895Y2449999D01*
Y-4099274D01*
X-3753313Y-4226691D01*
Y-4226691D01*
X-3753314D01*
X-3755176Y-4229479D01*
X-3758927Y-4235093D01*
X-3760898Y-4245003D01*
Y-4245004D01*
D01*
X-3760893Y-5000000D01*
X-3760786Y-5000538D01*
X-4189209D01*
X-4189102Y-5000000D01*
X-4189096Y-4245004D01*
D01*
Y-4245003D01*
X-4191068Y-4235093D01*
X-4193879Y-4230885D01*
X-4196681Y-4226691D01*
X-4196682Y-4226691D01*
X-4331688Y-4091685D01*
X-4340089Y-4086072D01*
X-4350000Y-4084100D01*
X-4350535Y-4084207D01*
Y3150000D01*
Y4350541D01*
X3299210D01*
X3299102Y4350000D01*
X3299284Y4349088D01*
X3299167Y4348163D01*
X3300099Y4344760D01*
X3300616Y4341274D01*
X3300948Y4340721D01*
X3301074Y4340089D01*
X3301590Y4339317D01*
X3301836Y4338417D01*
X3303999Y4335631D01*
X3305811Y4332607D01*
X3306330Y4332222D01*
X3306688Y4331688D01*
X3307459Y4331172D01*
X3308031Y4330435D01*
X3311095Y4328688D01*
X3313927Y4326588D01*
X3314555Y4326431D01*
X3315089Y4326074D01*
X3316000Y4325893D01*
X3316810Y4325431D01*
X3320310Y4324989D01*
X3323729Y4324133D01*
X3338974Y4323384D01*
X3368246Y4317561D01*
X3395228Y4306385D01*
X3419511Y4290160D01*
X3440163Y4269508D01*
X3456388Y4245226D01*
X3467564Y4218244D01*
X3473387Y4188971D01*
X3474105Y4174362D01*
X3474105Y2800000D01*
X3474105Y-2449999D01*
X3474105Y-2459945D01*
Y-2459945D01*
Y-2459945D01*
X3474759Y-2463233D01*
X3476076Y-2469856D01*
X3476077Y-2469856D01*
X3483688Y-2488233D01*
Y-2488233D01*
X3487439Y-2493847D01*
X3489302Y-2496635D01*
X3489302D01*
Y-2496635D01*
X3503367Y-2510700D01*
X3511769Y-2516314D01*
X3530146Y-2523926D01*
X3530147D01*
X3530147Y-2523927D01*
X3535125Y-2524917D01*
X3540057Y-2525898D01*
X3540057D01*
X3540058D01*
X3550003Y-2525897D01*
X3559947Y-2525898D01*
X3559948D01*
X3559948D01*
X3563236Y-2525244D01*
X3569858Y-2523927D01*
X3569859Y-2523926D01*
X3588235Y-2516314D01*
X3588236D01*
X3593850Y-2512564D01*
X3596637Y-2510701D01*
Y-2510701D01*
X3596638D01*
X3610703Y-2496635D01*
Y-2496635D01*
X3610703D01*
X3612566Y-2493847D01*
X3616317Y-2488234D01*
Y-2488233D01*
X3623928Y-2469856D01*
X3623929Y-2469856D01*
X3625246Y-2463234D01*
X3625900Y-2459946D01*
Y-2459945D01*
Y-2459945D01*
X3625900Y-2449999D01*
X3625900Y4099272D01*
X3753319Y4226690D01*
Y4226690D01*
X3753319D01*
X3755182Y4229478D01*
X3758933Y4235091D01*
X3760904Y4245002D01*
Y4245002D01*
D01*
X3760898Y4999999D01*
X3760791Y5000538D01*
X4189212D01*
X4189105Y5000000D01*
%TF.MD5,a4caef279ee5ac4176e21214e448c12f*%
M02*
