M48
;Layer_Color=9474304
;FILE_FORMAT=2:4
INCH,TZ
;TYPE=PLATED
T01F00S00C0.0118
T02F00S00C0.1909
%
T01
X-14449Y-16617
X-5315Y-7904
X-5276Y-5276
Y-4961
Y-4646
Y-4331
X-5039Y-4488
Y-4173
X-4803Y-4331
Y-4646
Y-4961
Y-5276
X-5039Y-5118
Y-4803
X-4567
Y-5118
X-4331Y-5276
Y-4961
Y-4646
Y-4331
X-4094Y-4488
Y-4173
X-3858Y-4331
X-3543
X-3228
X-2913
X-2598
X-2283
X-1969
X-1654
X-1811Y-4094
X-2126
X-2441
X-2756
X-3071
X-3386
X-3701
Y-4567
X-3386
X-3071
X-2756
X-2441
X-2126
X-1811
X-1654Y-4803
X-1969
X-2283
X-2598
X-2913
X-3228
X-3543
X-3858
X-4094Y-4803
Y-5118
X-3858Y-5276
X-3543
X-3228
X-2913
X-2598
X-2283
X-1969
X-1654
X-1811Y-5039
X-2126
X-2441
X-2756
X-3071
X-3386
X-3701
X-4567Y-4488
Y-4173
X-1496Y-4094
X-1181
X-866
X-1024Y-4331
X-1339
X-1496Y-4567
X-1181
X-866
X-1024Y-4803
X-1339
X-1496Y-5039
X-1181
X-866
X-1024Y-5276
X-1339
X-561Y-6811
X-551Y-7165
X-10
X10Y-6811
X492Y-6821
X876Y-6575
X925Y-7185
X1752Y-7126
X1427Y-6329
X1093Y-5920
X2106Y-6053
X2913Y-5827
X3494Y-5723
X3683Y-6031
X4004Y-6196
X3494Y-6432
X3740Y-7047
X3701Y-4843
X2963Y-4921
X3268Y-4104
X4803Y-4094
X5118
X5433
X5748
X6063
X6378
X6693
X7008
X7323
X7638
X7795Y-4331
X7480
X7165
X6850
X6535
X6220
X5906
X5591
X5276
X4961
X4803Y-4567
X5118
X5433
X5748
X6063
X6378
X6693
X7008
X7323
X7638
X7795Y-4803
X8036Y-4801
Y-5116
X8273Y-4958
Y-4643
Y-4329
X8036Y-4171
Y-4486
X8509
Y-4171
X8745Y-4329
Y-4643
Y-4958
Y-5273
X8981Y-5116
Y-4801
Y-4486
Y-4171
X9217Y-4329
Y-4643
Y-4958
Y-5273
X8509Y-5116
Y-4801
X8273Y-5273
X7795Y-5276
X7480
X7165
X6850
X6535
X6220
X5906
X5591
X5276
X4961
X4803Y-5039
X5118
X5433
X5748
X6063
X6378
X6693
X7008
X7323
X7638
X7480Y-4803
X7165
X6850
X6535
X6220
X5906
X5591
X5276
X4961
X5236Y-6250
X3652Y-9463
X1801Y-9424
X-39Y-8317
X-522Y-8327
X10974Y-8189
X11496Y-7756
X9217Y-4014
Y-3699
Y-3384
Y-3069
Y-2754
Y-2439
Y-2124
Y-1809
Y-1494
Y-1179
Y-864
Y-549
Y-234
Y81
Y396
Y711
Y1026
Y1341
Y1656
Y1971
Y2286
Y2601
Y2916
Y3231
Y3545
Y3860
Y4175
Y4490
Y4805
Y5120
Y5435
Y5750
Y6065
Y6380
Y6695
Y7010
Y7325
Y7640
Y7955
Y8270
Y8585
Y8900
Y9215
X8981Y9057
Y8742
Y8427
Y8112
Y7797
Y7482
Y7168
Y6853
Y6538
Y6223
Y5908
Y5593
Y5278
Y4963
Y4648
Y4333
Y4018
Y3703
Y3388
Y3073
Y2758
Y2443
Y2128
Y1813
Y1498
Y1183
Y868
Y553
Y238
Y-77
Y-392
Y-706
Y-1021
Y-1336
Y-1651
Y-1966
Y-2281
Y-2596
Y-2911
Y-3226
Y-3541
Y-3856
X8745Y-3699
Y-3384
Y-3069
Y-2754
Y-2439
Y-2124
Y-1809
Y-1494
Y-1179
Y-864
Y-549
Y-234
Y81
Y396
Y711
Y1026
Y1341
Y1656
Y1971
Y2286
Y2601
Y2916
Y3231
Y3545
Y3860
Y4175
Y4490
Y4805
Y5120
Y5435
Y5750
Y6065
Y6380
Y6695
Y7010
Y7325
Y7640
Y7955
Y8270
Y8585
Y8900
Y9215
X8509Y9057
Y8742
Y8427
Y8112
Y7797
Y7482
Y7168
Y6853
Y6538
Y6223
Y5908
Y5593
Y5278
Y4963
Y4648
Y4333
Y4018
Y3703
Y3388
Y3073
Y2758
Y2443
Y2128
Y1813
Y1498
Y1183
Y868
Y553
Y238
Y-77
Y-392
Y-706
Y-1021
Y-1336
Y-1651
Y-1966
Y-2281
Y-2596
Y-2911
Y-3226
Y-3541
Y-3856
X8745Y-4014
X8273
Y-3699
Y-3384
Y-3069
Y-2754
Y-2439
Y-2124
Y-1809
Y-1494
Y-1179
Y-864
Y-549
Y-234
Y81
Y396
Y711
Y1026
Y1341
Y1656
Y1971
Y2286
Y2601
Y2916
Y3231
Y3545
Y3860
Y4175
Y4490
Y4805
Y5120
Y5435
Y5750
Y6065
Y6380
Y6695
Y7010
Y7325
Y7640
Y7955
Y8270
Y8585
Y8900
Y9215
X8036Y9057
Y8742
X7795Y8740
X7480
X7165
X6850
X6535
X6220
X5906
X5591
X5276
X4961
X5118Y8504
X5433
X5748
X6063
X6378
X6693
X7008
X7323
X7638
X7480Y8268
X7795
X7638Y8031
X7323
X7008
X6693
X6378
X6063
X5748
X5433
X5118
X4803
X4961Y8268
X5276
X5591
X5906
X6220
X6535
X6850
X7165
X7323Y8976
X7008
X6693
X6378
X6063
X5748
X5433
X5118
X4803
X4961Y9213
X5276
X5591
X5906
X6220
X6535
X6850
X7165
X7480
X7795
X7638Y8976
X8036Y8427
Y8112
Y7797
Y7482
Y7168
Y6853
Y6538
Y6223
Y5908
Y5593
Y5278
Y4963
Y4648
Y4333
Y4018
Y3703
Y3388
Y3073
Y2758
Y2443
Y2128
Y1813
Y1498
Y1183
Y868
Y553
Y238
Y-77
Y-392
Y-706
Y-1021
Y-1336
Y-1651
Y-1966
Y-2281
Y-2596
Y-2911
Y-3226
Y-3541
Y-3856
X2707Y-3243
X2272Y-3056
X1803Y-2947
X1723Y-3203
X2028Y-4035
X2124Y6869
X2205Y7126
X1655Y6979
X1220Y7165
X1024Y8071
X945Y8780
X433Y9646
X236Y9961
X433Y10354
X79Y10512
X-1024Y9213
X-1339
X-1181Y8976
X-866
X-1024Y8740
X-1339
X-1181Y8504
X-866
X-1024Y8268
X-1339
X-1181Y8031
X-866
X-1496
Y8504
Y8976
X2008Y8071
X2835Y9843
X4803Y8504
X-1811
X-2126
X-2441
X-2756
X-3071
X-3386
X-3701
X-3858Y8268
X-3543
X-3228
X-2913
X-2598
X-2283
X-1969
X-1654
X-1811Y8031
X-2126
X-2441
X-2756
X-3071
X-3386
X-3701
X-4094Y8110
Y8425
Y8740
X-3858
X-3543
X-3228
X-2913
X-2598
X-2283
X-1969
X-1654
X-1811Y8976
X-2126
X-2441
X-2756
X-3071
X-3386
X-3701
X-3858Y9213
X-3543
X-3228
X-2913
X-2598
X-2283
X-1969
X-1654
X-4094Y9055
X-4331Y8898
Y8583
Y8268
Y7953
Y7638
Y7323
Y7008
Y6693
Y6378
Y6063
Y5748
Y5433
Y5118
Y4803
Y4488
Y4173
Y3858
Y3543
Y3228
Y2913
Y2598
Y2283
Y1969
Y1654
Y1339
Y1024
Y709
Y394
Y79
Y-236
Y-551
Y-866
Y-1181
Y-1496
Y-1811
Y-2126
Y-2441
Y-2756
Y-3071
Y-3386
Y-3701
Y-4016
X-4094Y-3858
Y-3543
Y-3228
Y-2913
Y-2598
Y-2283
Y-1969
Y-1654
Y-1339
Y-1024
Y-709
Y-394
Y-79
Y236
Y551
Y866
Y1181
Y1496
Y1811
Y2126
Y2441
Y2756
Y3071
Y3386
Y3701
Y4016
Y4331
Y4646
Y4961
Y5276
Y5591
Y5906
Y6220
Y6535
Y6850
Y7165
Y7480
Y7795
X-4567
Y7480
Y7165
Y6850
Y6535
Y6220
Y5906
Y5591
Y5276
Y4961
Y4646
Y4331
Y4016
Y3701
Y3386
Y3071
Y2756
Y2441
Y2126
Y1811
Y1496
Y1181
Y866
Y551
Y236
Y-79
Y-394
Y-709
Y-1024
Y-1339
Y-1654
Y-1969
Y-2283
Y-2598
Y-2913
Y-3228
Y-3543
Y-3858
X-4803Y-4016
Y-3701
Y-3386
Y-3071
Y-2756
Y-2441
Y-2126
Y-1811
Y-1496
Y-1181
Y-866
Y-551
Y-236
Y79
Y394
Y709
Y1024
Y1339
Y1654
Y1969
Y2283
Y2598
Y2913
Y3228
Y3543
Y3858
Y4173
Y4488
Y4803
Y5118
Y5433
Y5748
Y6063
Y6378
Y6693
Y7008
Y7323
Y7638
Y7953
Y8268
Y8583
Y8898
Y9213
X-5039Y9055
Y8740
Y8425
Y8110
Y7795
Y7480
Y7165
Y6850
Y6535
Y6220
Y5906
Y5591
Y5276
Y4961
Y4646
Y4331
Y4016
Y3701
Y3386
Y3071
Y2756
Y2441
Y2126
Y1811
Y1496
Y1181
Y866
Y551
Y236
Y-79
Y-394
Y-709
Y-1024
Y-1339
Y-1654
Y-1969
Y-2283
Y-2598
Y-2913
Y-3228
Y-3543
Y-3858
X-5276Y-4016
Y-3701
Y-3386
Y-3071
Y-2756
Y-2441
Y-2126
Y-1811
Y-1496
Y-1181
Y-866
Y-551
Y-236
Y79
Y394
Y709
Y1024
Y1339
Y1654
Y1969
Y2283
Y2598
Y2913
Y3228
Y3543
Y3858
Y4173
Y4488
Y4803
Y5118
Y5433
Y5748
Y6063
Y6378
Y6693
Y7008
Y7323
Y7638
Y7953
Y8268
Y8583
Y8898
Y9213
X-4567Y9055
Y8740
Y8425
Y8110
X-4331Y9213
X276Y13386
X2126Y13346
X16545Y18071
X18376Y20540
T02
X-9055Y-12205
Y-9055
Y-5906
X-5906Y-12205
X-2756
X394
X3543
X6693
X9843
X12992
Y-5906
Y-2756
Y394
Y3543
Y6693
Y9843
X-9055
Y6693
Y3543
Y394
Y-2756
Y16142
X-5906
X-2756
X394
X3543
X6693
X9843
X12992
Y12992
M30
