%TF.GenerationSoftware,Altium Limited,Altium Designer,23.9.2 (47)*%
G04 Layer_Color=0*
%FSLAX25Y25*%
%MOIN*%
%TF.SameCoordinates,C1B3935E-4126-4279-B8D9-91AEC20F268D*%
%TF.FilePolarity,Positive*%
%TF.FileFunction,Plated,1,2,PTH,Drill*%
%TF.Part,Single*%
G01*
G75*
%TA.AperFunction,ComponentDrill*%
%ADD71C,0.19095*%
%ADD72C,0.19095*%
%TA.AperFunction,ViaDrill,NotFilled*%
%ADD73C,0.01181*%
D71*
X-90551Y98425D02*
D03*
X129921Y-59055D02*
D03*
X-90551Y161417D02*
D03*
X129921Y129921D02*
D03*
Y35433D02*
D03*
Y3937D02*
D03*
Y-27559D02*
D03*
Y98425D02*
D03*
Y66929D02*
D03*
X-90551Y-122047D02*
D03*
Y-90551D02*
D03*
Y-59055D02*
D03*
Y-27559D02*
D03*
Y3937D02*
D03*
Y35433D02*
D03*
Y66929D02*
D03*
D72*
X129921Y-122047D02*
D03*
X35433D02*
D03*
X3937D02*
D03*
X-59055D02*
D03*
X-27559D02*
D03*
X98425D02*
D03*
X66929D02*
D03*
X129921Y161417D02*
D03*
X35433D02*
D03*
X3937D02*
D03*
X-59055D02*
D03*
X-27559D02*
D03*
X98425D02*
D03*
X66929D02*
D03*
D73*
X37402Y-70472D02*
D03*
X114961Y-77559D02*
D03*
X29134Y-58268D02*
D03*
X-52756Y-52756D02*
D03*
Y-49606D02*
D03*
X-50394Y-51181D02*
D03*
X-52756Y-46457D02*
D03*
X-50394Y-48031D02*
D03*
Y-44882D02*
D03*
X-52756Y-43307D02*
D03*
Y-40157D02*
D03*
X-50394Y-41732D02*
D03*
X-52756Y-37008D02*
D03*
X-50394Y-38583D02*
D03*
Y-35433D02*
D03*
X-52756Y-33858D02*
D03*
Y-30709D02*
D03*
X-50394Y-32283D02*
D03*
X-52756Y-27559D02*
D03*
X-50394Y-29134D02*
D03*
Y-25984D02*
D03*
X-52756Y-24409D02*
D03*
Y-21260D02*
D03*
X-50394Y-22835D02*
D03*
X-52756Y-18110D02*
D03*
X-50394Y-19685D02*
D03*
Y-16535D02*
D03*
X-52756Y-14961D02*
D03*
Y-11811D02*
D03*
X-50394Y-13386D02*
D03*
X-52756Y-8661D02*
D03*
X-50394Y-10236D02*
D03*
Y-7087D02*
D03*
X-52756Y-5512D02*
D03*
Y-2362D02*
D03*
X-50394Y-3937D02*
D03*
X-52756Y787D02*
D03*
X-50394Y-787D02*
D03*
Y2362D02*
D03*
X-52756Y3937D02*
D03*
Y7087D02*
D03*
X-50394Y5512D02*
D03*
X-52756Y10236D02*
D03*
X-50394Y8661D02*
D03*
Y11811D02*
D03*
X-52756Y13386D02*
D03*
Y16535D02*
D03*
X-50394Y14961D02*
D03*
X-52756Y19685D02*
D03*
X-50394Y18110D02*
D03*
Y21260D02*
D03*
X-52756Y22835D02*
D03*
Y25984D02*
D03*
X-50394Y24409D02*
D03*
X-52756Y29134D02*
D03*
X-50394Y27559D02*
D03*
Y30709D02*
D03*
X-52756Y32283D02*
D03*
Y35433D02*
D03*
X-50394Y33858D02*
D03*
X-52756Y38583D02*
D03*
X-50394Y37008D02*
D03*
Y40157D02*
D03*
X-52756Y41732D02*
D03*
Y44882D02*
D03*
X-50394Y43307D02*
D03*
X-52756Y48031D02*
D03*
X-50394Y46457D02*
D03*
Y49606D02*
D03*
X-52756Y51181D02*
D03*
Y54331D02*
D03*
X-50394Y52756D02*
D03*
X-52756Y57480D02*
D03*
X-50394Y55905D02*
D03*
Y59055D02*
D03*
X-52756Y60630D02*
D03*
Y63779D02*
D03*
X-50394Y62205D02*
D03*
X-52756Y66929D02*
D03*
X-50394Y65354D02*
D03*
Y68504D02*
D03*
X-52756Y70079D02*
D03*
Y73228D02*
D03*
X-50394Y71653D02*
D03*
X-52756Y76378D02*
D03*
X-50394Y74803D02*
D03*
Y77953D02*
D03*
X-52756Y79527D02*
D03*
Y82677D02*
D03*
X-50394Y81102D02*
D03*
X-52756Y85827D02*
D03*
X-50394Y84252D02*
D03*
Y87402D02*
D03*
X-52756Y88976D02*
D03*
Y92126D02*
D03*
X-50394Y90551D02*
D03*
X-48031Y-52756D02*
D03*
Y-49606D02*
D03*
X-45669Y-51181D02*
D03*
X-48031Y-46457D02*
D03*
X-45669Y-48031D02*
D03*
Y-44882D02*
D03*
X-48031Y-43307D02*
D03*
Y-40157D02*
D03*
X-45669Y-41732D02*
D03*
X-48031Y-37008D02*
D03*
X-45669Y-38583D02*
D03*
Y-35433D02*
D03*
X-48031Y-33858D02*
D03*
Y-30709D02*
D03*
X-45669Y-32283D02*
D03*
X-48031Y-27559D02*
D03*
X-45669Y-29134D02*
D03*
Y-25984D02*
D03*
X-48031Y-24409D02*
D03*
Y-21260D02*
D03*
X-45669Y-22835D02*
D03*
X-48031Y-18110D02*
D03*
X-45669Y-19685D02*
D03*
Y-16535D02*
D03*
X-48031Y-14961D02*
D03*
Y-11811D02*
D03*
X-45669Y-13386D02*
D03*
X-48031Y-8661D02*
D03*
X-45669Y-10236D02*
D03*
Y-7087D02*
D03*
X-48031Y-5512D02*
D03*
Y-2362D02*
D03*
X-45669Y-3937D02*
D03*
X-48031Y787D02*
D03*
X-45669Y-787D02*
D03*
Y2362D02*
D03*
X-48031Y3937D02*
D03*
Y7087D02*
D03*
X-45669Y5512D02*
D03*
X-48031Y10236D02*
D03*
X-45669Y8661D02*
D03*
Y11811D02*
D03*
X-48031Y13386D02*
D03*
Y16535D02*
D03*
X-45669Y14961D02*
D03*
X-48031Y19685D02*
D03*
X-45669Y18110D02*
D03*
Y21260D02*
D03*
X-48031Y22835D02*
D03*
Y25984D02*
D03*
X-45669Y24409D02*
D03*
X-48031Y29134D02*
D03*
X-45669Y27559D02*
D03*
Y30709D02*
D03*
X-48031Y32283D02*
D03*
Y35433D02*
D03*
X-45669Y33858D02*
D03*
X-48031Y38583D02*
D03*
X-45669Y37008D02*
D03*
Y40157D02*
D03*
X-48031Y41732D02*
D03*
Y44882D02*
D03*
X-45669Y43307D02*
D03*
X-48031Y48031D02*
D03*
X-45669Y46457D02*
D03*
Y49606D02*
D03*
X-48031Y51181D02*
D03*
Y54331D02*
D03*
X-45669Y52756D02*
D03*
X-48031Y57480D02*
D03*
X-45669Y55905D02*
D03*
Y59055D02*
D03*
X-48031Y60630D02*
D03*
Y63779D02*
D03*
X-45669Y62205D02*
D03*
X-48031Y66929D02*
D03*
X-45669Y65354D02*
D03*
Y68504D02*
D03*
X-48031Y70079D02*
D03*
Y73228D02*
D03*
X-45669Y71653D02*
D03*
X-48031Y76378D02*
D03*
X-45669Y74803D02*
D03*
Y77953D02*
D03*
X-48031Y79527D02*
D03*
Y82677D02*
D03*
X-45669Y81102D02*
D03*
X-48031Y85827D02*
D03*
X-45669Y84252D02*
D03*
Y87402D02*
D03*
X-48031Y88976D02*
D03*
Y92126D02*
D03*
X-45669Y90551D02*
D03*
X-43307Y-52756D02*
D03*
Y-49606D02*
D03*
X-40945Y-51181D02*
D03*
X-43307Y-46457D02*
D03*
X-40945Y-48031D02*
D03*
Y-44882D02*
D03*
X-43307Y-43307D02*
D03*
Y-40157D02*
D03*
X-40945Y-41732D02*
D03*
X-43307Y-37008D02*
D03*
X-40945Y-38583D02*
D03*
Y-35433D02*
D03*
X-43307Y-33858D02*
D03*
Y-30709D02*
D03*
X-40945Y-32283D02*
D03*
X-43307Y-27559D02*
D03*
X-40945Y-29134D02*
D03*
Y-25984D02*
D03*
X-43307Y-24409D02*
D03*
Y-21260D02*
D03*
X-40945Y-22835D02*
D03*
X-43307Y-18110D02*
D03*
X-40945Y-19685D02*
D03*
Y-16535D02*
D03*
X-43307Y-14961D02*
D03*
Y-11811D02*
D03*
X-40945Y-13386D02*
D03*
X-43307Y-8661D02*
D03*
X-40945Y-10236D02*
D03*
Y-7087D02*
D03*
X-43307Y-5512D02*
D03*
Y-2362D02*
D03*
X-40945Y-3937D02*
D03*
X-43307Y787D02*
D03*
X-40945Y-787D02*
D03*
Y2362D02*
D03*
X-43307Y3937D02*
D03*
Y7087D02*
D03*
X-40945Y5512D02*
D03*
X-43307Y10236D02*
D03*
X-40945Y8661D02*
D03*
Y11811D02*
D03*
X-43307Y13386D02*
D03*
Y16535D02*
D03*
X-40945Y14961D02*
D03*
X-43307Y19685D02*
D03*
X-40945Y18110D02*
D03*
Y21260D02*
D03*
X-43307Y22835D02*
D03*
Y25984D02*
D03*
X-40945Y24409D02*
D03*
X-43307Y29134D02*
D03*
X-40945Y27559D02*
D03*
Y30709D02*
D03*
X-43307Y32283D02*
D03*
Y35433D02*
D03*
X-40945Y33858D02*
D03*
X-43307Y38583D02*
D03*
X-40945Y37008D02*
D03*
Y40157D02*
D03*
X-43307Y41732D02*
D03*
Y44882D02*
D03*
X-40945Y43307D02*
D03*
X-43307Y48031D02*
D03*
X-40945Y46457D02*
D03*
Y49606D02*
D03*
X-43307Y51181D02*
D03*
Y54331D02*
D03*
X-40945Y52756D02*
D03*
X-43307Y57480D02*
D03*
X-40945Y55905D02*
D03*
Y59055D02*
D03*
X-43307Y60630D02*
D03*
Y63779D02*
D03*
X-40945Y62205D02*
D03*
X-43307Y66929D02*
D03*
X-40945Y65354D02*
D03*
Y68504D02*
D03*
X-43307Y70079D02*
D03*
Y73228D02*
D03*
X-40945Y71653D02*
D03*
X-43307Y76378D02*
D03*
X-40945Y74803D02*
D03*
Y77953D02*
D03*
X-43307Y79527D02*
D03*
Y82677D02*
D03*
X-40945Y81102D02*
D03*
X-43307Y85827D02*
D03*
X-40945Y84252D02*
D03*
Y87402D02*
D03*
X-43307Y88976D02*
D03*
Y92126D02*
D03*
X-40945Y90551D02*
D03*
X92174Y92148D02*
D03*
Y88998D02*
D03*
X89812Y90573D02*
D03*
X92174Y85849D02*
D03*
X89812Y87423D02*
D03*
Y84274D02*
D03*
X92174Y82699D02*
D03*
Y79549D02*
D03*
X89812Y81124D02*
D03*
X92174Y76400D02*
D03*
X89812Y77974D02*
D03*
Y74825D02*
D03*
X92174Y73250D02*
D03*
Y70100D02*
D03*
X89812Y71675D02*
D03*
X92174Y66951D02*
D03*
X89812Y68526D02*
D03*
Y65376D02*
D03*
X92174Y63801D02*
D03*
Y60652D02*
D03*
X89812Y62226D02*
D03*
X92174Y57502D02*
D03*
X89812Y59077D02*
D03*
Y55927D02*
D03*
X92174Y54352D02*
D03*
Y51203D02*
D03*
X89812Y52778D02*
D03*
X92174Y48053D02*
D03*
X89812Y49628D02*
D03*
Y46479D02*
D03*
X92174Y44904D02*
D03*
Y41754D02*
D03*
X89812Y43329D02*
D03*
X92174Y38605D02*
D03*
X89812Y40179D02*
D03*
Y37030D02*
D03*
X92174Y35455D02*
D03*
Y32305D02*
D03*
X89812Y33880D02*
D03*
X92174Y29156D02*
D03*
X89812Y30731D02*
D03*
Y27581D02*
D03*
X92174Y26006D02*
D03*
Y22857D02*
D03*
X89812Y24431D02*
D03*
X92174Y19707D02*
D03*
X89812Y21282D02*
D03*
Y18132D02*
D03*
X92174Y16557D02*
D03*
Y13408D02*
D03*
X89812Y14982D02*
D03*
X92174Y10258D02*
D03*
X89812Y11833D02*
D03*
Y8683D02*
D03*
X92174Y7108D02*
D03*
Y3959D02*
D03*
X89812Y5534D02*
D03*
X92174Y809D02*
D03*
X89812Y2384D02*
D03*
Y-766D02*
D03*
X92174Y-2340D02*
D03*
Y-5490D02*
D03*
X89812Y-3915D02*
D03*
X92174Y-8640D02*
D03*
X89812Y-7065D02*
D03*
Y-10214D02*
D03*
X92174Y-11789D02*
D03*
Y-14939D02*
D03*
X89812Y-13364D02*
D03*
X92174Y-18088D02*
D03*
X89812Y-16514D02*
D03*
Y-19663D02*
D03*
X92174Y-21238D02*
D03*
Y-24388D02*
D03*
X89812Y-22813D02*
D03*
X92174Y-27537D02*
D03*
X89812Y-25962D02*
D03*
Y-29112D02*
D03*
X92174Y-30687D02*
D03*
Y-33836D02*
D03*
X89812Y-32262D02*
D03*
X92174Y-36986D02*
D03*
X89812Y-35411D02*
D03*
Y-38561D02*
D03*
X92174Y-40136D02*
D03*
Y-43285D02*
D03*
X89812Y-41710D02*
D03*
X92174Y-46435D02*
D03*
X89812Y-44860D02*
D03*
Y-48010D02*
D03*
X92174Y-49584D02*
D03*
Y-52734D02*
D03*
X89812Y-51159D02*
D03*
X87450Y92148D02*
D03*
Y88998D02*
D03*
X85087Y90573D02*
D03*
X87450Y85849D02*
D03*
X85087Y87423D02*
D03*
Y84274D02*
D03*
X87450Y82699D02*
D03*
Y79549D02*
D03*
X85087Y81124D02*
D03*
X87450Y76400D02*
D03*
X85087Y77974D02*
D03*
Y74825D02*
D03*
X87450Y73250D02*
D03*
Y70100D02*
D03*
X85087Y71675D02*
D03*
X87450Y66951D02*
D03*
X85087Y68526D02*
D03*
Y65376D02*
D03*
X87450Y63801D02*
D03*
Y60652D02*
D03*
X85087Y62226D02*
D03*
X87450Y57502D02*
D03*
X85087Y59077D02*
D03*
Y55927D02*
D03*
X87450Y54352D02*
D03*
Y51203D02*
D03*
X85087Y52778D02*
D03*
X87450Y48053D02*
D03*
X85087Y49628D02*
D03*
Y46479D02*
D03*
X87450Y44904D02*
D03*
Y41754D02*
D03*
X85087Y43329D02*
D03*
X87450Y38605D02*
D03*
X85087Y40179D02*
D03*
Y37030D02*
D03*
X87450Y35455D02*
D03*
Y32305D02*
D03*
X85087Y33880D02*
D03*
X87450Y29156D02*
D03*
X85087Y30731D02*
D03*
Y27581D02*
D03*
X87450Y26006D02*
D03*
Y22857D02*
D03*
X85087Y24431D02*
D03*
X87450Y19707D02*
D03*
X85087Y21282D02*
D03*
Y18132D02*
D03*
X87450Y16557D02*
D03*
Y13408D02*
D03*
X85087Y14982D02*
D03*
X87450Y10258D02*
D03*
X85087Y11833D02*
D03*
Y8683D02*
D03*
X87450Y7108D02*
D03*
Y3959D02*
D03*
X85087Y5534D02*
D03*
X87450Y809D02*
D03*
X85087Y2384D02*
D03*
Y-766D02*
D03*
X87450Y-2340D02*
D03*
Y-5490D02*
D03*
X85087Y-3915D02*
D03*
X87450Y-8640D02*
D03*
X85087Y-7065D02*
D03*
Y-10214D02*
D03*
X87450Y-11789D02*
D03*
Y-14939D02*
D03*
X85087Y-13364D02*
D03*
X87450Y-18088D02*
D03*
X85087Y-16514D02*
D03*
Y-19663D02*
D03*
X87450Y-21238D02*
D03*
Y-24388D02*
D03*
X85087Y-22813D02*
D03*
X87450Y-27537D02*
D03*
X85087Y-25962D02*
D03*
Y-29112D02*
D03*
X87450Y-30687D02*
D03*
Y-33836D02*
D03*
X85087Y-32262D02*
D03*
X87450Y-36986D02*
D03*
X85087Y-35411D02*
D03*
Y-38561D02*
D03*
X87450Y-40136D02*
D03*
Y-43285D02*
D03*
X85087Y-41710D02*
D03*
X87450Y-46435D02*
D03*
X85087Y-44860D02*
D03*
Y-48010D02*
D03*
X87450Y-49584D02*
D03*
Y-52734D02*
D03*
X85087Y-51159D02*
D03*
X82725Y92148D02*
D03*
Y88998D02*
D03*
X80363Y90573D02*
D03*
X82725Y85849D02*
D03*
X80363Y87423D02*
D03*
Y84274D02*
D03*
X82725Y82699D02*
D03*
Y79549D02*
D03*
X80363Y81124D02*
D03*
X82725Y76400D02*
D03*
X80363Y77974D02*
D03*
Y74825D02*
D03*
X82725Y73250D02*
D03*
Y70100D02*
D03*
X80363Y71675D02*
D03*
X82725Y66951D02*
D03*
X80363Y68526D02*
D03*
Y65376D02*
D03*
X82725Y63801D02*
D03*
Y60652D02*
D03*
X80363Y62226D02*
D03*
X82725Y57502D02*
D03*
X80363Y59077D02*
D03*
Y55927D02*
D03*
X82725Y54352D02*
D03*
Y51203D02*
D03*
X80363Y52778D02*
D03*
X82725Y48053D02*
D03*
X80363Y49628D02*
D03*
Y46479D02*
D03*
X82725Y44904D02*
D03*
Y41754D02*
D03*
X80363Y43329D02*
D03*
X82725Y38605D02*
D03*
X80363Y40179D02*
D03*
Y37030D02*
D03*
X82725Y35455D02*
D03*
Y32305D02*
D03*
X80363Y33880D02*
D03*
X82725Y29156D02*
D03*
X80363Y30731D02*
D03*
Y27581D02*
D03*
X82725Y26006D02*
D03*
Y22857D02*
D03*
X80363Y24431D02*
D03*
X82725Y19707D02*
D03*
X80363Y21282D02*
D03*
Y18132D02*
D03*
X82725Y16557D02*
D03*
Y13408D02*
D03*
X80363Y14982D02*
D03*
X82725Y10258D02*
D03*
X80363Y11833D02*
D03*
Y8683D02*
D03*
X82725Y7108D02*
D03*
Y3959D02*
D03*
X80363Y5534D02*
D03*
X82725Y809D02*
D03*
X80363Y2384D02*
D03*
Y-766D02*
D03*
X82725Y-2340D02*
D03*
Y-5490D02*
D03*
X80363Y-3915D02*
D03*
X82725Y-8640D02*
D03*
X80363Y-7065D02*
D03*
Y-10214D02*
D03*
X82725Y-11789D02*
D03*
Y-14939D02*
D03*
X80363Y-13364D02*
D03*
X82725Y-18088D02*
D03*
X80363Y-16514D02*
D03*
Y-19663D02*
D03*
X82725Y-21238D02*
D03*
Y-24388D02*
D03*
X80363Y-22813D02*
D03*
X82725Y-27537D02*
D03*
X80363Y-25962D02*
D03*
Y-29112D02*
D03*
X82725Y-30687D02*
D03*
Y-33836D02*
D03*
X80363Y-32262D02*
D03*
X82725Y-36986D02*
D03*
X80363Y-35411D02*
D03*
Y-38561D02*
D03*
X82725Y-40136D02*
D03*
Y-43285D02*
D03*
X80363Y-41710D02*
D03*
X82725Y-46435D02*
D03*
X80363Y-44860D02*
D03*
Y-48010D02*
D03*
X82725Y-49584D02*
D03*
Y-52734D02*
D03*
X80363Y-51159D02*
D03*
X-37008Y-40945D02*
D03*
X-38583Y-43307D02*
D03*
X-35433D02*
D03*
X-33858Y-40945D02*
D03*
X-30709D02*
D03*
X-32283Y-43307D02*
D03*
X-27559Y-40945D02*
D03*
X-29134Y-43307D02*
D03*
X-25984D02*
D03*
X-24409Y-40945D02*
D03*
X-21260D02*
D03*
X-22835Y-43307D02*
D03*
X-18110Y-40945D02*
D03*
X-19685Y-43307D02*
D03*
X-16535D02*
D03*
X-14961Y-40945D02*
D03*
X-11811D02*
D03*
X-13386Y-43307D02*
D03*
X-8661Y-40945D02*
D03*
X-10236Y-43307D02*
D03*
X48031Y-40945D02*
D03*
X49606Y-43307D02*
D03*
X51181Y-40945D02*
D03*
X54331D02*
D03*
X52756Y-43307D02*
D03*
X57480Y-40945D02*
D03*
X55905Y-43307D02*
D03*
X59055D02*
D03*
X60630Y-40945D02*
D03*
X63779D02*
D03*
X62205Y-43307D02*
D03*
X66929Y-40945D02*
D03*
X65354Y-43307D02*
D03*
X68504D02*
D03*
X70079Y-40945D02*
D03*
X73228D02*
D03*
X71653Y-43307D02*
D03*
X76378Y-40945D02*
D03*
X74803Y-43307D02*
D03*
X77953D02*
D03*
X-37008Y-45669D02*
D03*
X-38583Y-48031D02*
D03*
X-35433D02*
D03*
X-33858Y-45669D02*
D03*
X-30709D02*
D03*
X-32283Y-48031D02*
D03*
X-27559Y-45669D02*
D03*
X-29134Y-48031D02*
D03*
X-25984D02*
D03*
X-24409Y-45669D02*
D03*
X-21260D02*
D03*
X-22835Y-48031D02*
D03*
X-18110Y-45669D02*
D03*
X-19685Y-48031D02*
D03*
X-16535D02*
D03*
X-14961Y-45669D02*
D03*
X-11811D02*
D03*
X-13386Y-48031D02*
D03*
X-8661Y-45669D02*
D03*
X-10236Y-48031D02*
D03*
X48031Y-45669D02*
D03*
X49606Y-48031D02*
D03*
X51181Y-45669D02*
D03*
X54331D02*
D03*
X52756Y-48031D02*
D03*
X57480Y-45669D02*
D03*
X55905Y-48031D02*
D03*
X59055D02*
D03*
X60630Y-45669D02*
D03*
X63779D02*
D03*
X62205Y-48031D02*
D03*
X66929Y-45669D02*
D03*
X65354Y-48031D02*
D03*
X68504D02*
D03*
X70079Y-45669D02*
D03*
X73228D02*
D03*
X71653Y-48031D02*
D03*
X76378Y-45669D02*
D03*
X74803Y-48031D02*
D03*
X77953D02*
D03*
X-37008Y-50394D02*
D03*
X-38583Y-52756D02*
D03*
X-35433D02*
D03*
X-33858Y-50394D02*
D03*
X-30709D02*
D03*
X-32283Y-52756D02*
D03*
X-27559Y-50394D02*
D03*
X-29134Y-52756D02*
D03*
X-25984D02*
D03*
X-24409Y-50394D02*
D03*
X-21260D02*
D03*
X-22835Y-52756D02*
D03*
X-18110Y-50394D02*
D03*
X-19685Y-52756D02*
D03*
X-16535D02*
D03*
X-14961Y-50394D02*
D03*
X-11811D02*
D03*
X-13386Y-52756D02*
D03*
X-8661Y-50394D02*
D03*
X-10236Y-52756D02*
D03*
X48031Y-50394D02*
D03*
X49606Y-52756D02*
D03*
X51181Y-50394D02*
D03*
X54331D02*
D03*
X52756Y-52756D02*
D03*
X57480Y-50394D02*
D03*
X55905Y-52756D02*
D03*
X59055D02*
D03*
X60630Y-50394D02*
D03*
X63779D02*
D03*
X62205Y-52756D02*
D03*
X66929Y-50394D02*
D03*
X65354Y-52756D02*
D03*
X68504D02*
D03*
X70079Y-50394D02*
D03*
X73228D02*
D03*
X71653Y-52756D02*
D03*
X76378Y-50394D02*
D03*
X74803Y-52756D02*
D03*
X77953D02*
D03*
X76378Y80315D02*
D03*
X77953Y82677D02*
D03*
X74803D02*
D03*
X73228Y80315D02*
D03*
X70079D02*
D03*
X71653Y82677D02*
D03*
X66929Y80315D02*
D03*
X68504Y82677D02*
D03*
X65354D02*
D03*
X63779Y80315D02*
D03*
X60630D02*
D03*
X62205Y82677D02*
D03*
X57480Y80315D02*
D03*
X59055Y82677D02*
D03*
X55905D02*
D03*
X54331Y80315D02*
D03*
X51181D02*
D03*
X52756Y82677D02*
D03*
X48031Y80315D02*
D03*
X49606Y82677D02*
D03*
X-8661Y80315D02*
D03*
X-10236Y82677D02*
D03*
X-11811Y80315D02*
D03*
X-14961D02*
D03*
X-13386Y82677D02*
D03*
X-18110Y80315D02*
D03*
X-16535Y82677D02*
D03*
X-19685D02*
D03*
X-21260Y80315D02*
D03*
X-24409D02*
D03*
X-22835Y82677D02*
D03*
X-27559Y80315D02*
D03*
X-25984Y82677D02*
D03*
X-29134D02*
D03*
X-30709Y80315D02*
D03*
X-33858D02*
D03*
X-32283Y82677D02*
D03*
X-37008Y80315D02*
D03*
X-35433Y82677D02*
D03*
X-38583D02*
D03*
X76378Y85039D02*
D03*
X77953Y87402D02*
D03*
X74803D02*
D03*
X73228Y85039D02*
D03*
X70079D02*
D03*
X71653Y87402D02*
D03*
X66929Y85039D02*
D03*
X68504Y87402D02*
D03*
X65354D02*
D03*
X63779Y85039D02*
D03*
X60630D02*
D03*
X62205Y87402D02*
D03*
X57480Y85039D02*
D03*
X59055Y87402D02*
D03*
X55905D02*
D03*
X54331Y85039D02*
D03*
X51181D02*
D03*
X52756Y87402D02*
D03*
X48031Y85039D02*
D03*
X49606Y87402D02*
D03*
X-8661Y85039D02*
D03*
X-10236Y87402D02*
D03*
X-11811Y85039D02*
D03*
X-14961D02*
D03*
X-13386Y87402D02*
D03*
X-18110Y85039D02*
D03*
X-16535Y87402D02*
D03*
X-19685D02*
D03*
X-21260Y85039D02*
D03*
X-24409D02*
D03*
X-22835Y87402D02*
D03*
X-27559Y85039D02*
D03*
X-25984Y87402D02*
D03*
X-29134D02*
D03*
X-30709Y85039D02*
D03*
X-33858D02*
D03*
X-32283Y87402D02*
D03*
X-37008Y85039D02*
D03*
X-35433Y87402D02*
D03*
X-38583D02*
D03*
X76378Y89764D02*
D03*
X77953Y92126D02*
D03*
X74803D02*
D03*
X73228Y89764D02*
D03*
X70079D02*
D03*
X71653Y92126D02*
D03*
X66929Y89764D02*
D03*
X68504Y92126D02*
D03*
X65354D02*
D03*
X63779Y89764D02*
D03*
X60630D02*
D03*
X62205Y92126D02*
D03*
X57480Y89764D02*
D03*
X59055Y92126D02*
D03*
X55905D02*
D03*
X54331Y89764D02*
D03*
X51181D02*
D03*
X52756Y92126D02*
D03*
X48031Y89764D02*
D03*
X49606Y92126D02*
D03*
X-8661Y89764D02*
D03*
X-10236Y92126D02*
D03*
X-11811Y89764D02*
D03*
X-14961D02*
D03*
X-13386Y92126D02*
D03*
X-18110Y89764D02*
D03*
X-16535Y92126D02*
D03*
X-19685D02*
D03*
X-21260Y89764D02*
D03*
X-24409D02*
D03*
X-22835Y92126D02*
D03*
X-27559Y89764D02*
D03*
X-25984Y92126D02*
D03*
X-29134D02*
D03*
X-30709Y89764D02*
D03*
X-33858D02*
D03*
X-32283Y92126D02*
D03*
X-37008Y89764D02*
D03*
X-35433Y92126D02*
D03*
X-38583D02*
D03*
X-144489Y-166170D02*
D03*
X16553Y69788D02*
D03*
X4331Y103543D02*
D03*
X787Y105118D02*
D03*
X2362Y99606D02*
D03*
X9449Y87795D02*
D03*
X12205Y71653D02*
D03*
X10236Y80709D02*
D03*
X28346Y98425D02*
D03*
X2756Y133858D02*
D03*
X21260Y133465D02*
D03*
X22047Y71260D02*
D03*
X4331Y96457D02*
D03*
X21243Y68693D02*
D03*
X20079Y80709D02*
D03*
X183762Y205395D02*
D03*
X18031Y-29468D02*
D03*
X34943Y-57231D02*
D03*
X17226Y-32034D02*
D03*
X18013Y-94239D02*
D03*
X36517Y-94633D02*
D03*
X10927Y-59199D02*
D03*
X37008Y-48425D02*
D03*
X22721Y-30563D02*
D03*
X20276Y-40354D02*
D03*
X40039Y-61955D02*
D03*
X52362Y-62500D02*
D03*
X27069Y-32428D02*
D03*
X32677Y-41043D02*
D03*
X36831Y-60313D02*
D03*
X29626Y-49213D02*
D03*
X-5512Y-71653D02*
D03*
X-98D02*
D03*
X17520Y-71260D02*
D03*
X9252Y-71850D02*
D03*
X-5610Y-68110D02*
D03*
X98D02*
D03*
X4921Y-68209D02*
D03*
X8760Y-65748D02*
D03*
X21063Y-60532D02*
D03*
X14272Y-63287D02*
D03*
X-394Y-83169D02*
D03*
X-5217Y-83268D02*
D03*
X-53150Y-79035D02*
D03*
X109744Y-81890D02*
D03*
X165453Y180709D02*
D03*
X34943Y-64318D02*
D03*
%TF.MD5,874079b97d0bb39a155c2e728ec53fbf*%
M02*
