%FSLAX23Y23*%
%MOIN*%
%SFA1B1*%

%IPPOS*%
%ADD46C,0.003940*%
%ADD47C,0.009840*%
%ADD48C,0.007870*%
%ADD49C,0.010000*%
%LNhumflex2_1_legend_top-1*%
%LPD*%
G54D46*
X403Y-244D02*
D01*
X403Y-243*
X403Y-243*
X403Y-243*
X403Y-243*
X403Y-243*
X403Y-243*
X403Y-243*
X403Y-243*
X403Y-242*
X403Y-242*
X402Y-242*
X402Y-242*
X402Y-242*
X402Y-242*
X402Y-242*
X402Y-242*
X402Y-242*
X402Y-242*
X402Y-242*
X401Y-242*
X401Y-242*
X401Y-242*
X401*
X401Y-242*
X401Y-242*
X401Y-242*
X400Y-242*
X400Y-242*
X400Y-242*
X400Y-242*
X400Y-242*
X400Y-242*
X400Y-242*
X400Y-242*
X400Y-242*
X399Y-242*
X399Y-243*
X399Y-243*
X399Y-243*
X399Y-243*
X399Y-243*
X399Y-243*
X399Y-243*
X399Y-243*
X399Y-244*
X399Y-244*
X399Y-244*
X399Y-244*
X399Y-244*
X399Y-244*
X399Y-244*
X399Y-245*
X399Y-245*
X399Y-245*
X400Y-245*
X400Y-245*
X400Y-245*
X400Y-245*
X400Y-245*
X400Y-245*
X400Y-245*
X400Y-245*
X400Y-245*
X401Y-246*
X401Y-246*
X401Y-246*
X401Y-246*
X401*
X401Y-246*
X401Y-246*
X402Y-246*
X402Y-245*
X402Y-245*
X402Y-245*
X402Y-245*
X402Y-245*
X402Y-245*
X402Y-245*
X402Y-245*
X403Y-245*
X403Y-245*
X403Y-245*
X403Y-245*
X403Y-244*
X403Y-244*
X403Y-244*
X403Y-244*
X403Y-244*
X403Y-244*
X403Y-244*
X193Y-840D02*
D01*
X193Y-839*
X193Y-839*
X193Y-839*
X193Y-839*
X193Y-839*
X193Y-839*
X193Y-839*
X193Y-838*
X193Y-838*
X193Y-838*
X193Y-838*
X193Y-838*
X193Y-838*
X193Y-838*
X192Y-838*
X192Y-838*
X192Y-838*
X192Y-838*
X192Y-838*
X192Y-838*
X192Y-838*
X192Y-838*
X191*
X191Y-838*
X191Y-838*
X191Y-838*
X191Y-838*
X191Y-838*
X191Y-838*
X190Y-838*
X190Y-838*
X190Y-838*
X190Y-838*
X190Y-838*
X190Y-838*
X190Y-838*
X190Y-838*
X190Y-839*
X190Y-839*
X190Y-839*
X190Y-839*
X190Y-839*
X189Y-839*
X189Y-839*
X189Y-840*
X189Y-840*
X189Y-840*
X190Y-840*
X190Y-840*
X190Y-840*
X190Y-840*
X190Y-840*
X190Y-841*
X190Y-841*
X190Y-841*
X190Y-841*
X190Y-841*
X190Y-841*
X190Y-841*
X190Y-841*
X191Y-841*
X191Y-841*
X191Y-841*
X191Y-841*
X191Y-841*
X191Y-841*
X191Y-841*
X192*
X192Y-841*
X192Y-841*
X192Y-841*
X192Y-841*
X192Y-841*
X192Y-841*
X192Y-841*
X193Y-841*
X193Y-841*
X193Y-841*
X193Y-841*
X193Y-841*
X193Y-841*
X193Y-841*
X193Y-840*
X193Y-840*
X193Y-840*
X193Y-840*
X193Y-840*
X193Y-840*
X193Y-840*
X193Y-840*
X188Y-252D02*
D01*
X188Y-252*
X187Y-252*
X187Y-252*
X187Y-252*
X187Y-252*
X187Y-252*
X187Y-251*
X187Y-251*
X187Y-251*
X187Y-251*
X187Y-251*
X187Y-251*
X187Y-251*
X187Y-251*
X187Y-251*
X186Y-251*
X186Y-250*
X186Y-250*
X186Y-250*
X186Y-250*
X186Y-250*
X186Y-250*
X185*
X185Y-250*
X185Y-250*
X185Y-250*
X185Y-250*
X185Y-250*
X185Y-251*
X185Y-251*
X184Y-251*
X184Y-251*
X184Y-251*
X184Y-251*
X184Y-251*
X184Y-251*
X184Y-251*
X184Y-251*
X184Y-252*
X184Y-252*
X184Y-252*
X184Y-252*
X184Y-252*
X184Y-252*
X184Y-252*
X184Y-252*
X184Y-253*
X184Y-253*
X184Y-253*
X184Y-253*
X184Y-253*
X184Y-253*
X184Y-253*
X184Y-253*
X184Y-254*
X184Y-254*
X184Y-254*
X184Y-254*
X184Y-254*
X185Y-254*
X185Y-254*
X185Y-254*
X185Y-254*
X185Y-254*
X185Y-254*
X185Y-254*
X185Y-254*
X186*
X186Y-254*
X186Y-254*
X186Y-254*
X186Y-254*
X186Y-254*
X186Y-254*
X187Y-254*
X187Y-254*
X187Y-254*
X187Y-254*
X187Y-254*
X187Y-254*
X187Y-253*
X187Y-253*
X187Y-253*
X187Y-253*
X187Y-253*
X187Y-253*
X187Y-253*
X187Y-253*
X188Y-252*
X188Y-252*
X-414Y-558D02*
D01*
X-414Y-558*
X-414Y-558*
X-414Y-558*
X-414Y-557*
X-414Y-557*
X-414Y-557*
X-414Y-557*
X-414Y-557*
X-414Y-557*
X-414Y-557*
X-414Y-557*
X-415Y-557*
X-415Y-556*
X-415Y-556*
X-415Y-556*
X-415Y-556*
X-415Y-556*
X-415Y-556*
X-415Y-556*
X-415Y-556*
X-416Y-556*
X-416Y-556*
X-416*
X-416Y-556*
X-416Y-556*
X-416Y-556*
X-416Y-556*
X-417Y-556*
X-417Y-556*
X-417Y-556*
X-417Y-556*
X-417Y-556*
X-417Y-557*
X-417Y-557*
X-417Y-557*
X-417Y-557*
X-418Y-557*
X-418Y-557*
X-418Y-557*
X-418Y-557*
X-418Y-557*
X-418Y-558*
X-418Y-558*
X-418Y-558*
X-418Y-558*
X-418Y-558*
X-418Y-558*
X-418Y-558*
X-418Y-559*
X-418Y-559*
X-418Y-559*
X-418Y-559*
X-418Y-559*
X-417Y-559*
X-417Y-559*
X-417Y-559*
X-417Y-559*
X-417Y-560*
X-417Y-560*
X-417Y-560*
X-417Y-560*
X-417Y-560*
X-416Y-560*
X-416Y-560*
X-416Y-560*
X-416Y-560*
X-416Y-560*
X-416*
X-416Y-560*
X-415Y-560*
X-415Y-560*
X-415Y-560*
X-415Y-560*
X-415Y-560*
X-415Y-560*
X-415Y-560*
X-415Y-560*
X-415Y-559*
X-414Y-559*
X-414Y-559*
X-414Y-559*
X-414Y-559*
X-414Y-559*
X-414Y-559*
X-414Y-559*
X-414Y-559*
X-414Y-558*
X-414Y-558*
X-414Y-558*
X-414Y-558*
X202Y1232D02*
D01*
X202Y1232*
X202Y1232*
X202Y1232*
X202Y1232*
X202Y1232*
X202Y1233*
X202Y1233*
X202Y1233*
X202Y1233*
X202Y1233*
X202Y1233*
X202Y1233*
X202Y1233*
X201Y1233*
X201Y1233*
X201Y1234*
X201Y1234*
X201Y1234*
X201Y1234*
X201Y1234*
X200Y1234*
X200Y1234*
X200*
X200Y1234*
X200Y1234*
X200Y1234*
X200Y1234*
X200Y1234*
X199Y1234*
X199Y1233*
X199Y1233*
X199Y1233*
X199Y1233*
X199Y1233*
X199Y1233*
X199Y1233*
X199Y1233*
X199Y1233*
X198Y1233*
X198Y1232*
X198Y1232*
X198Y1232*
X198Y1232*
X198Y1232*
X198Y1232*
X198Y1232*
X198Y1232*
X198Y1231*
X198Y1231*
X198Y1231*
X198Y1231*
X199Y1231*
X199Y1231*
X199Y1231*
X199Y1231*
X199Y1230*
X199Y1230*
X199Y1230*
X199Y1230*
X199Y1230*
X199Y1230*
X200Y1230*
X200Y1230*
X200Y1230*
X200Y1230*
X200Y1230*
X200Y1230*
X200*
X200Y1230*
X201Y1230*
X201Y1230*
X201Y1230*
X201Y1230*
X201Y1230*
X201Y1230*
X201Y1230*
X202Y1230*
X202Y1230*
X202Y1230*
X202Y1231*
X202Y1231*
X202Y1231*
X202Y1231*
X202Y1231*
X202Y1231*
X202Y1231*
X202Y1231*
X202Y1232*
X202Y1232*
X202Y1232*
X208Y645D02*
D01*
X208Y645*
X208Y645*
X208Y645*
X208Y645*
X208Y645*
X208Y645*
X208Y646*
X208Y646*
X208Y646*
X208Y646*
X208Y646*
X208Y646*
X207Y646*
X207Y646*
X207Y646*
X207Y646*
X207Y646*
X207Y646*
X207Y646*
X207Y647*
X206Y647*
X206Y647*
X206*
X206Y647*
X206Y647*
X206Y646*
X206Y646*
X205Y646*
X205Y646*
X205Y646*
X205Y646*
X205Y646*
X205Y646*
X205Y646*
X205Y646*
X205Y646*
X205Y646*
X204Y646*
X204Y645*
X204Y645*
X204Y645*
X204Y645*
X204Y645*
X204Y645*
X204Y645*
X204Y644*
X204Y644*
X204Y644*
X204Y644*
X204Y644*
X204Y644*
X204Y644*
X205Y644*
X205Y643*
X205Y643*
X205Y643*
X205Y643*
X205Y643*
X205Y643*
X205Y643*
X205Y643*
X205Y643*
X206Y643*
X206Y643*
X206Y643*
X206Y643*
X206Y643*
X206*
X206Y643*
X207Y643*
X207Y643*
X207Y643*
X207Y643*
X207Y643*
X207Y643*
X207Y643*
X207Y643*
X208Y643*
X208Y643*
X208Y643*
X208Y643*
X208Y644*
X208Y644*
X208Y644*
X208Y644*
X208Y644*
X208Y644*
X208Y644*
X208Y644*
X208Y645*
X-23Y639D02*
D01*
X-23Y639*
X-23Y640*
X-23Y640*
X-23Y640*
X-23Y640*
X-23Y640*
X-23Y640*
X-23Y640*
X-23Y640*
X-24Y641*
X-24Y641*
X-24Y641*
X-24Y641*
X-24Y641*
X-24Y641*
X-24Y641*
X-24Y641*
X-24Y641*
X-25Y641*
X-25Y641*
X-25Y641*
X-25Y641*
X-25*
X-25Y641*
X-25Y641*
X-26Y641*
X-26Y641*
X-26Y641*
X-26Y641*
X-26Y641*
X-26Y641*
X-26Y641*
X-26Y641*
X-27Y641*
X-27Y641*
X-27Y640*
X-27Y640*
X-27Y640*
X-27Y640*
X-27Y640*
X-27Y640*
X-27Y640*
X-27Y640*
X-27Y639*
X-27Y639*
X-27Y639*
X-27Y639*
X-27Y639*
X-27Y639*
X-27Y639*
X-27Y638*
X-27Y638*
X-27Y638*
X-27Y638*
X-27Y638*
X-27Y638*
X-26Y638*
X-26Y638*
X-26Y638*
X-26Y638*
X-26Y637*
X-26Y637*
X-26Y637*
X-26Y637*
X-25Y637*
X-25Y637*
X-25Y637*
X-25*
X-25Y637*
X-25Y637*
X-25Y637*
X-24Y637*
X-24Y637*
X-24Y637*
X-24Y638*
X-24Y638*
X-24Y638*
X-24Y638*
X-24Y638*
X-24Y638*
X-23Y638*
X-23Y638*
X-23Y638*
X-23Y638*
X-23Y639*
X-23Y639*
X-23Y639*
X-23Y639*
X-23Y639*
X-23Y639*
G54D47*
X147Y-255D02*
D01*
X147Y-255*
X147Y-254*
X147Y-254*
X147Y-254*
X147Y-253*
X147Y-253*
X147Y-253*
X146Y-252*
X146Y-252*
X146Y-252*
X146Y-251*
X146Y-251*
X145Y-251*
X145Y-251*
X145Y-251*
X144Y-250*
X144Y-250*
X144Y-250*
X143Y-250*
X143Y-250*
X143Y-250*
X142Y-250*
X142*
X142Y-250*
X141Y-250*
X141Y-250*
X141Y-250*
X140Y-250*
X140Y-250*
X140Y-251*
X139Y-251*
X139Y-251*
X139Y-251*
X139Y-251*
X138Y-252*
X138Y-252*
X138Y-252*
X138Y-253*
X138Y-253*
X138Y-253*
X138Y-254*
X137Y-254*
X137Y-254*
X137Y-255*
X137Y-255*
X137Y-255*
X137Y-256*
X137Y-256*
X138Y-256*
X138Y-257*
X138Y-257*
X138Y-257*
X138Y-257*
X138Y-258*
X138Y-258*
X139Y-258*
X139Y-259*
X139Y-259*
X139Y-259*
X140Y-259*
X140Y-259*
X140Y-259*
X141Y-260*
X141Y-260*
X141Y-260*
X142Y-260*
X142Y-260*
X142*
X143Y-260*
X143Y-260*
X143Y-260*
X144Y-260*
X144Y-259*
X144Y-259*
X145Y-259*
X145Y-259*
X145Y-259*
X146Y-259*
X146Y-258*
X146Y-258*
X146Y-258*
X146Y-257*
X147Y-257*
X147Y-257*
X147Y-257*
X147Y-256*
X147Y-256*
X147Y-256*
X147Y-255*
X147Y-255*
X254Y647D02*
D01*
X254Y647*
X254Y648*
X254Y648*
X254Y648*
X254Y649*
X254Y649*
X254Y649*
X254Y650*
X253Y650*
X253Y650*
X253Y651*
X253Y651*
X253Y651*
X252Y651*
X252Y651*
X252Y652*
X251Y652*
X251Y652*
X251Y652*
X250Y652*
X250Y652*
X250Y652*
X249*
X249Y652*
X249Y652*
X248Y652*
X248Y652*
X248Y652*
X247Y652*
X247Y651*
X247Y651*
X246Y651*
X246Y651*
X246Y651*
X246Y650*
X246Y650*
X245Y650*
X245Y649*
X245Y649*
X245Y649*
X245Y648*
X245Y648*
X245Y648*
X245Y647*
X245Y647*
X245Y647*
X245Y646*
X245Y646*
X245Y646*
X245Y645*
X245Y645*
X245Y645*
X245Y645*
X246Y644*
X246Y644*
X246Y644*
X246Y643*
X246Y643*
X247Y643*
X247Y643*
X247Y643*
X248Y643*
X248Y642*
X248Y642*
X249Y642*
X249Y642*
X249Y642*
X250*
X250Y642*
X250Y642*
X251Y642*
X251Y642*
X251Y643*
X252Y643*
X252Y643*
X252Y643*
X253Y643*
X253Y643*
X253Y644*
X253Y644*
X253Y644*
X254Y645*
X254Y645*
X254Y645*
X254Y645*
X254Y646*
X254Y646*
X254Y646*
X254Y647*
X254Y647*
G54D48*
X401Y-271D02*
Y-259D01*
Y-342D02*
Y-330D01*
X307Y-271D02*
Y-259D01*
Y-342D02*
Y-330D01*
X315Y-973D02*
X341D01*
X207D02*
X233D01*
X315Y-840D02*
X341D01*
X207D02*
X233D01*
X341Y-973D02*
Y-967D01*
Y-845D02*
Y-840D01*
X207Y-973D02*
Y-967D01*
Y-845D02*
Y-840D01*
X184Y-302D02*
Y-287D01*
Y-302D02*
X200D01*
X238Y-303D02*
X254D01*
Y-287*
X254Y-266D02*
Y-250D01*
X238D02*
X254D01*
X-24Y-307D02*
Y-280D01*
X1*
X-24Y-454D02*
Y-427D01*
Y-454D02*
X1D01*
X122D02*
X148D01*
Y-427*
Y-307D02*
Y-280D01*
X122D02*
X148D01*
X-418Y-574D02*
X-416D01*
X-546D02*
X-544D01*
X-418Y-704D02*
X-416D01*
X-546D02*
X-544D01*
X-416Y-594D02*
Y-574D01*
Y-704D02*
Y-684D01*
X-546Y-594D02*
Y-574D01*
Y-704D02*
Y-684D01*
X51Y1366D02*
X76D01*
X159D02*
X185D01*
X51Y1232D02*
X76D01*
X159D02*
X185D01*
X51Y1360D02*
Y1366D01*
Y1232D02*
Y1238D01*
X185Y1360D02*
Y1366D01*
Y1232D02*
Y1238D01*
X208Y679D02*
Y695D01*
X192D02*
X208D01*
X138Y695D02*
X153D01*
X138Y679D02*
Y695D01*
X138Y643D02*
Y659D01*
Y643D02*
X153D01*
X417Y673D02*
Y699D01*
X390Y673D02*
X417D01*
Y819D02*
Y846D01*
X390D02*
X417D01*
X244D02*
X270D01*
X244Y819D02*
Y846D01*
Y673D02*
Y699D01*
Y673D02*
X270D01*
X-25Y655D02*
X-23D01*
X102D02*
X104D01*
X-25Y785D02*
X-23D01*
X102D02*
X104D01*
X-25Y655D02*
Y675D01*
Y765D02*
Y785D01*
X104Y655D02*
Y675D01*
Y765D02*
Y785D01*
G54D49*
X43Y939D02*
X34Y948D01*
X15*
X6Y939*
Y902*
X15Y893*
X34*
X43Y902*
X61Y893D02*
X80D01*
X70*
Y948*
X61Y939*
X237Y1042D02*
X228Y1032D01*
Y1014*
X237Y1005*
X274*
X283Y1014*
Y1032*
X274Y1042*
X283Y1097D02*
Y1060D01*
X246Y1097*
X237*
X228Y1087*
Y1069*
X237Y1060*
X316Y1290D02*
X307Y1280D01*
Y1262*
X316Y1253*
X353*
X362Y1262*
Y1280*
X353Y1290*
X362Y1335D02*
X307D01*
X334Y1308*
Y1345*
X-116Y1290D02*
X-125Y1280D01*
Y1262*
X-116Y1253*
X-80*
X-70Y1262*
Y1280*
X-80Y1290*
X-125Y1345D02*
Y1308D01*
X-98*
X-107Y1326*
Y1335*
X-98Y1345*
X-80*
X-70Y1335*
Y1317*
X-80Y1308*
X162Y998D02*
X153Y989D01*
Y971*
X162Y961*
X199*
X208Y971*
Y989*
X199Y998*
X162Y1017D02*
X153Y1026D01*
Y1044*
X162Y1053*
X171*
X181Y1044*
Y1035*
Y1044*
X190Y1053*
X199*
X208Y1044*
Y1026*
X199Y1017*
X-1407Y-1594D02*
X-1425D01*
X-1416*
Y-1640*
X-1425Y-1649*
X-1435*
X-1444Y-1640*
X-1389Y-1649D02*
X-1370D01*
X-1379*
Y-1594*
X-1389Y-1603*
X-150Y1129D02*
Y1185D01*
X-123*
X-114Y1175*
Y1157*
X-123Y1148*
X-150*
X-132D02*
X-114Y1129D01*
X-95D02*
X-77D01*
X-86*
Y1185*
X-95Y1175*
X-49Y1129D02*
Y1185D01*
X-22*
X-13Y1175*
Y1157*
X-22Y1148*
X-49*
X-31D02*
X-13Y1129D01*
X41D02*
X5D01*
X41Y1166*
Y1175*
X32Y1185*
X14*
X5Y1175*
X358Y1005D02*
X303D01*
Y1032*
X312Y1042*
X330*
X339Y1032*
Y1005*
Y1023D02*
X358Y1042D01*
X312Y1060D02*
X303Y1069D01*
Y1087*
X312Y1097*
X321*
X330Y1087*
Y1078*
Y1087*
X339Y1097*
X349*
X358Y1087*
Y1069*
X349Y1060*
X433Y1005D02*
X377D01*
Y1032*
X387Y1042*
X405*
X414Y1032*
Y1005*
Y1023D02*
X433Y1042D01*
Y1087D02*
X377D01*
X405Y1060*
Y1097*
X119Y885D02*
Y940D01*
X146*
X156Y931*
Y913*
X146Y904*
X119*
X137D02*
X156Y885D01*
X211Y940D02*
X174D01*
Y913*
X192Y922*
X202*
X211Y913*
Y895*
X202Y885*
X183*
X174Y895*
X6Y1027D02*
Y981D01*
X15Y972*
X34*
X43Y981*
Y1027*
X61Y972D02*
X80D01*
X70*
Y1027*
X61Y1018*
X339Y1185D02*
Y1139D01*
X349Y1129*
X367*
X376Y1139*
Y1185*
X431Y1129D02*
X395D01*
X431Y1166*
Y1175*
X422Y1185*
X404*
X395Y1175*
X119Y1129D02*
Y1083D01*
X128Y1074*
X146*
X156Y1083*
Y1129*
X174Y1120D02*
X183Y1129D01*
X202*
X211Y1120*
Y1111*
X202Y1102*
X192*
X202*
X211Y1093*
Y1083*
X202Y1074*
X183*
X174Y1083*
X72Y1444D02*
Y1398D01*
X81Y1389*
X99*
X108Y1398*
Y1444*
X154Y1389D02*
Y1444D01*
X127Y1417*
X164*
X321Y-1051D02*
Y-1005D01*
X312Y-996*
X293*
X284Y-1005*
Y-1051*
X266Y-1041D02*
X257Y-1051D01*
X238*
X229Y-1041*
Y-1032*
X238Y-1023*
X229Y-1014*
Y-1005*
X238Y-996*
X257*
X266Y-1005*
Y-1014*
X257Y-1023*
X266Y-1032*
Y-1041*
X257Y-1023D02*
X238D01*
X270Y-748D02*
Y-702D01*
X261Y-692*
X242*
X233Y-702*
Y-748*
X215D02*
X178D01*
Y-738*
X215Y-702*
Y-692*
X-46Y-282D02*
X-92D01*
X-101Y-292*
Y-310*
X-92Y-319*
X-46*
Y-374D02*
X-55Y-356D01*
X-73Y-337*
X-92*
X-101Y-347*
Y-365*
X-92Y-374*
X-83*
X-73Y-365*
Y-337*
X-339Y-583D02*
X-385D01*
X-394Y-592*
Y-610*
X-385Y-619*
X-339*
Y-674D02*
Y-638D01*
X-367*
X-357Y-656*
Y-665*
X-367Y-674*
X-385*
X-394Y-665*
Y-647*
X-385Y-638*
X312Y-493D02*
Y-548D01*
X285*
X276Y-539*
Y-520*
X285Y-511*
X312*
X294D02*
X276Y-493D01*
X257D02*
X239D01*
X248*
Y-548*
X257Y-539*
X211D02*
X202Y-548D01*
X184*
X175Y-539*
Y-502*
X184Y-493*
X202*
X211Y-502*
Y-539*
X-40Y-613D02*
X14D01*
Y-640*
X5Y-649*
X-12*
X-21Y-640*
Y-613*
Y-631D02*
X-40Y-649D01*
X-31Y-668D02*
X-40Y-677D01*
Y-695*
X-31Y-704*
X5*
X14Y-695*
Y-677*
X5Y-668*
X-3*
X-12Y-677*
Y-704*
X34Y-613D02*
X89D01*
Y-640*
X80Y-649*
X62*
X52Y-640*
Y-613*
Y-631D02*
X34Y-649D01*
X80Y-668D02*
X89Y-677D01*
Y-695*
X80Y-704*
X71*
X62Y-695*
X52Y-704*
X43*
X34Y-695*
Y-677*
X43Y-668*
X52*
X62Y-677*
X71Y-668*
X80*
X62Y-677D02*
Y-695D01*
X442Y-737D02*
Y-792D01*
X415*
X405Y-783*
Y-765*
X415Y-756*
X442*
X424D02*
X405Y-737D01*
X387Y-792D02*
X350D01*
Y-783*
X387Y-746*
Y-737*
X552D02*
Y-792D01*
X525*
X516Y-783*
Y-765*
X525Y-756*
X552*
X534D02*
X516Y-737D01*
X460Y-792D02*
X479Y-783D01*
X497Y-765*
Y-746*
X488Y-737*
X470*
X460Y-746*
Y-756*
X470Y-765*
X497*
X1799Y1989D02*
X1817D01*
X1808*
Y2035*
X1817Y2044*
X1827*
X1836Y2035*
X1744Y2044D02*
X1781D01*
X1744Y2008*
Y1998*
X1753Y1989*
X1771*
X1781Y1998*
X229Y-607D02*
X239Y-598D01*
Y-579*
X229Y-570*
X193*
X183Y-579*
Y-598*
X193Y-607*
X229Y-625D02*
X239Y-634D01*
Y-653*
X229Y-662*
X220*
X211Y-653*
X202Y-662*
X193*
X183Y-653*
Y-634*
X193Y-625*
X202*
X211Y-634*
X220Y-625*
X229*
X211Y-634D02*
Y-653D01*
X510Y-893D02*
X519Y-883D01*
Y-865*
X510Y-856*
X473*
X464Y-865*
Y-883*
X473Y-893*
X464Y-911D02*
Y-929D01*
Y-920*
X519*
X510Y-911*
Y-957D02*
X519Y-966D01*
Y-984*
X510Y-994*
X473*
X464Y-984*
Y-966*
X473Y-957*
X510*
X77Y-896D02*
X86Y-887D01*
Y-868*
X77Y-859*
X40*
X31Y-868*
Y-887*
X40Y-896*
Y-914D02*
X31Y-923D01*
Y-942*
X40Y-951*
X77*
X86Y-942*
Y-923*
X77Y-914*
X68*
X59Y-923*
Y-951*
X155Y-649D02*
X164Y-640D01*
Y-622*
X155Y-613*
X118*
X109Y-622*
Y-640*
X118Y-649*
X164Y-668D02*
Y-704D01*
X155*
X118Y-668*
X109*
X-495Y-849D02*
X-486Y-858D01*
X-468*
X-459Y-849*
Y-812*
X-468Y-803*
X-486*
X-495Y-812*
X-550Y-858D02*
X-532Y-849D01*
X-514Y-830*
Y-812*
X-523Y-803*
X-541*
X-550Y-812*
Y-821*
X-541Y-830*
X-514*
X448Y-423D02*
X458Y-413D01*
Y-393*
X448Y-383*
X408*
X398Y-393*
Y-413*
X408Y-423*
X398Y-443D02*
Y-463D01*
Y-453*
X458*
X448Y-443*
X398Y-493D02*
Y-513D01*
Y-503*
X458*
X448Y-493*
X476Y-252D02*
X426D01*
X416Y-262*
Y-282*
X426Y-292*
X476*
X426Y-312D02*
X416Y-322D01*
Y-342*
X426Y-352*
X466*
X476Y-342*
Y-322*
X466Y-312*
X456*
X446Y-322*
Y-352*
X344Y-545D02*
X404D01*
Y-575*
X394Y-585*
X374*
X364Y-575*
Y-545*
Y-565D02*
X344Y-585D01*
Y-605D02*
Y-625D01*
Y-615*
X404*
X394Y-605*
X344Y-655D02*
Y-675D01*
Y-665*
X404*
X394Y-655*
M02*