%FSLAX23Y23*%
%MOIN*%
%SFA1B1*%

%IPPOS*%
%AMD66*
4,1,8,-0.437000,0.424400,-0.437000,-0.424400,-0.424400,-0.437000,0.424400,-0.437000,0.437000,-0.424400,0.437000,0.424400,0.424400,0.437000,-0.424400,0.437000,-0.437000,0.424400,0.0*
1,1,0.025200,-0.424400,0.424400*
1,1,0.025200,-0.424400,-0.424400*
1,1,0.025200,0.424400,-0.424400*
1,1,0.025200,0.424400,0.424400*
%
%ADD50R,0.064960X0.059060*%
%ADD51R,0.047240X0.047240*%
%ADD52R,0.047240X0.047240*%
%ADD53R,0.036220X0.034650*%
%ADD54R,0.035430X0.043310*%
%ADD55R,0.043310X0.035430*%
%ADD56R,0.019680X0.035430*%
%ADD57R,0.070870X0.042910*%
%ADD58R,0.066530X0.102360*%
%ADD59R,0.043310X0.021650*%
%ADD60C,0.015750*%
%ADD61R,0.110240X0.110240*%
%ADD62O,0.041340X0.019680*%
%ADD63O,0.019680X0.041340*%
%ADD64R,0.023620X0.039370*%
%ADD65R,0.106300X0.066930*%
G04~CAMADD=66~8~0.0~0.0~8740.2~8740.2~126.0~0.0~15~0.0~0.0~0.0~0.0~0~0.0~0.0~0.0~0.0~0~0.0~0.0~0.0~90.0~8740.0~8740.0*
%ADD66D66*%
%ADD67C,0.314960*%
%ADD68C,0.027560*%
%LNhumflex2_1_soldermask_top-1*%
%LPD*%
G36*
X1846Y2163D02*
X1847Y2163D01*
X1847Y2163*
X1848Y2162*
X1848Y2162*
X1849Y2162*
X1853Y2158*
X1853Y2157*
X1853Y2157*
X1854Y2157*
X1854Y2156*
X1854Y2156*
X1854Y2155*
Y2080*
X1854Y2080*
X1854Y2079*
X1854Y2079*
X1853Y2078*
X1853Y2078*
X1853Y2077*
X1852Y2077*
X1852Y2077*
X1851Y2077*
X1851Y2076*
X1850Y2076*
X1850Y2076*
X1838*
X1838Y2076*
X1837Y2076*
X1837Y2077*
X1836Y2077*
X1836Y2077*
X1835Y2076*
X1835Y2076*
X1834Y2076*
X1830*
X1830Y2076*
X1829Y2076*
X1829Y2077*
X1828Y2077*
X1828Y2077*
X1827Y2076*
X1827Y2076*
X1826Y2076*
X1814*
X1814Y2076*
X1813Y2076*
X1813Y2077*
X1812Y2077*
X1812Y2077*
X1812Y2076*
X1811Y2076*
X1811Y2076*
X1807*
X1806Y2076*
X1806Y2076*
X1805Y2077*
X1805Y2077*
X1804Y2077*
X1804Y2076*
X1803Y2076*
X1803Y2076*
X1791*
X1790Y2076*
X1790Y2076*
X1789Y2077*
X1789Y2077*
X1788Y2077*
X1788Y2076*
X1787Y2076*
X1787Y2076*
X1783*
X1782Y2076*
X1782Y2076*
X1781Y2077*
X1781Y2077*
X1781Y2077*
X1780Y2076*
X1780Y2076*
X1779Y2076*
X1767*
X1767Y2076*
X1766Y2076*
X1766Y2077*
X1765Y2077*
X1765Y2077*
X1764Y2076*
X1764Y2076*
X1763Y2076*
X1759*
X1759Y2076*
X1758Y2076*
X1758Y2077*
X1757Y2077*
X1757Y2077*
X1756Y2076*
X1756Y2076*
X1755Y2076*
X1744*
X1743Y2076*
X1743Y2076*
X1742Y2077*
X1742Y2077*
X1741Y2077*
X1741Y2076*
X1740Y2076*
X1740Y2076*
X1736*
X1735Y2076*
X1735Y2076*
X1734Y2077*
X1734Y2077*
X1733Y2077*
X1733Y2076*
X1732Y2076*
X1732Y2076*
X1720*
X1719Y2076*
X1719Y2076*
X1718Y2077*
X1718Y2077*
X1718Y2077*
X1717Y2076*
X1717Y2076*
X1716Y2076*
X1712*
X1712Y2076*
X1711Y2076*
X1711Y2077*
X1710Y2077*
X1710Y2077*
X1709Y2076*
X1709Y2076*
X1708Y2076*
X1696*
X1696Y2076*
X1695Y2076*
X1695Y2077*
X1694Y2077*
X1694Y2077*
X1693Y2076*
X1693Y2076*
X1692Y2076*
X1688*
X1688Y2076*
X1687Y2076*
X1687Y2077*
X1687Y2077*
X1686Y2077*
X1686Y2076*
X1685Y2076*
X1685Y2076*
X1673*
X1672Y2076*
X1672Y2076*
X1671Y2077*
X1671Y2077*
X1670Y2077*
X1670Y2077*
X1670Y2078*
X1669Y2078*
X1669Y2079*
X1669Y2079*
X1669Y2080*
X1669Y2080*
Y2155*
X1669Y2156*
X1669Y2156*
X1669Y2157*
X1669Y2157*
X1670Y2157*
X1670Y2158*
X1674Y2162*
X1674Y2162*
X1675Y2162*
X1675Y2163*
X1676Y2163*
X1676Y2163*
X1677Y2163*
X1681*
X1681Y2163*
X1682Y2163*
X1682Y2163*
X1683Y2162*
X1683Y2162*
X1683Y2162*
X1685Y2160*
X1685Y2160*
X1685Y2161*
X1685Y2161*
X1686Y2162*
X1686Y2162*
X1687Y2162*
X1687Y2163*
X1687Y2163*
X1688Y2163*
X1688Y2163*
X1692*
X1693Y2163*
X1693Y2163*
X1694Y2163*
X1694Y2162*
X1695Y2162*
X1695Y2162*
X1696Y2161*
X1696Y2161*
X1696Y2160*
X1696Y2160*
X1698Y2162*
X1698Y2162*
X1698Y2162*
X1699Y2163*
X1699Y2163*
X1700Y2163*
X1700Y2163*
X1704*
X1705Y2163*
X1705Y2163*
X1706Y2163*
X1706Y2162*
X1707Y2162*
X1707Y2162*
X1708Y2160*
X1708Y2160*
X1709Y2161*
X1709Y2161*
X1709Y2162*
X1710Y2162*
X1710Y2162*
X1711Y2163*
X1711Y2163*
X1712Y2163*
X1712Y2163*
X1716*
X1717Y2163*
X1717Y2163*
X1718Y2163*
X1718Y2162*
X1718Y2162*
X1719Y2162*
X1719Y2161*
X1719Y2161*
X1720Y2160*
X1720Y2160*
X1721Y2162*
X1722Y2162*
X1722Y2162*
X1722Y2163*
X1723Y2163*
X1723Y2163*
X1724Y2163*
X1728*
X1728Y2163*
X1729Y2163*
X1729Y2163*
X1730Y2162*
X1730Y2162*
X1731Y2162*
X1732Y2160*
X1732Y2160*
X1732Y2161*
X1733Y2161*
X1733Y2162*
X1733Y2162*
X1734Y2162*
X1734Y2163*
X1735Y2163*
X1735Y2163*
X1736Y2163*
X1740*
X1740Y2163*
X1741Y2163*
X1741Y2163*
X1742Y2162*
X1742Y2162*
X1742Y2162*
X1743Y2161*
X1743Y2161*
X1743Y2160*
X1743Y2160*
X1745Y2162*
X1745Y2162*
X1746Y2162*
X1746Y2163*
X1747Y2163*
X1747Y2163*
X1748Y2163*
X1751*
X1752Y2163*
X1752Y2163*
X1753Y2163*
X1753Y2162*
X1754Y2162*
X1754Y2162*
X1756Y2160*
X1756Y2160*
X1756Y2161*
X1756Y2161*
X1757Y2162*
X1757Y2162*
X1757Y2162*
X1758Y2163*
X1758Y2163*
X1759Y2163*
X1759Y2163*
X1763*
X1764Y2163*
X1764Y2163*
X1765Y2163*
X1765Y2162*
X1766Y2162*
X1766Y2162*
X1766Y2161*
X1767Y2161*
X1767Y2160*
X1767Y2160*
X1768Y2162*
X1769Y2162*
X1769Y2162*
X1770Y2163*
X1770Y2163*
X1771Y2163*
X1771Y2163*
X1775*
X1776Y2163*
X1776Y2163*
X1777Y2163*
X1777Y2162*
X1777Y2162*
X1778Y2162*
X1779Y2160*
X1779Y2160*
X1780Y2161*
X1780Y2161*
X1780Y2162*
X1781Y2162*
X1781Y2162*
X1781Y2163*
X1782Y2163*
X1782Y2163*
X1783Y2163*
X1787*
X1787Y2163*
X1788Y2163*
X1788Y2163*
X1789Y2162*
X1789Y2162*
X1790Y2162*
X1790Y2161*
X1790Y2161*
X1791Y2160*
X1791Y2160*
X1792Y2162*
X1792Y2162*
X1793Y2162*
X1793Y2163*
X1794Y2163*
X1794Y2163*
X1795Y2163*
X1799*
X1799Y2163*
X1800Y2163*
X1800Y2163*
X1801Y2162*
X1801Y2162*
X1802Y2162*
X1803Y2160*
X1803Y2160*
X1803Y2161*
X1803Y2161*
X1804Y2162*
X1804Y2162*
X1805Y2162*
X1805Y2163*
X1806Y2163*
X1806Y2163*
X1807Y2163*
X1811*
X1811Y2163*
X1812Y2163*
X1812Y2163*
X1813Y2162*
X1813Y2162*
X1813Y2162*
X1814Y2161*
X1814Y2161*
X1814Y2160*
X1814Y2160*
X1816Y2162*
X1816Y2162*
X1816Y2162*
X1817Y2163*
X1817Y2163*
X1818Y2163*
X1818Y2163*
X1822*
X1823Y2163*
X1823Y2163*
X1824Y2163*
X1824Y2162*
X1825Y2162*
X1825Y2162*
X1827Y2160*
X1827Y2160*
X1827Y2161*
X1827Y2161*
X1827Y2162*
X1828Y2162*
X1828Y2162*
X1829Y2163*
X1829Y2163*
X1830Y2163*
X1830Y2163*
X1834*
X1835Y2163*
X1835Y2163*
X1836Y2163*
X1836Y2162*
X1837Y2162*
X1837Y2162*
X1837Y2161*
X1838Y2161*
X1838Y2160*
X1838Y2160*
X1839Y2162*
X1840Y2162*
X1840Y2162*
X1841Y2163*
X1841Y2163*
X1842Y2163*
X1842Y2163*
X1846*
X1846Y2163*
G37*
G36*
X-1279Y-1683D02*
X-1278Y-1683D01*
X-1278Y-1683*
X-1277Y-1683*
X-1277Y-1683*
X-1276Y-1684*
X-1276Y-1684*
X-1276Y-1685*
X-1275Y-1685*
X-1275Y-1685*
X-1275Y-1686*
X-1275Y-1687*
Y-1761*
X-1275Y-1762*
X-1275Y-1762*
X-1275Y-1763*
X-1276Y-1763*
X-1276Y-1764*
X-1276Y-1764*
X-1280Y-1768*
X-1280*
X-1281Y-1768*
X-1281Y-1769*
X-1281Y-1769*
X-1282Y-1769*
X-1282Y-1769*
X-1283Y-1769*
X-1287*
X-1287Y-1769*
X-1288Y-1769*
X-1288Y-1769*
X-1289Y-1769*
X-1289Y-1768*
X-1290Y-1768*
X-1291Y-1767*
X-1291Y-1767*
X-1291Y-1767*
X-1292Y-1768*
X-1292Y-1768*
X-1292Y-1768*
X-1293Y-1769*
X-1293Y-1769*
X-1294Y-1769*
X-1294Y-1769*
X-1295Y-1769*
X-1299*
X-1299Y-1769*
X-1300Y-1769*
X-1300Y-1769*
X-1301Y-1769*
X-1301Y-1768*
X-1302Y-1768*
X-1302Y-1768*
X-1302Y-1767*
X-1302Y-1767*
X-1302Y-1767*
X-1304Y-1768*
X-1304Y-1768*
X-1305Y-1769*
X-1305Y-1769*
X-1306Y-1769*
X-1306Y-1769*
X-1307Y-1769*
X-1311*
X-1311Y-1769*
X-1312Y-1769*
X-1312Y-1769*
X-1313Y-1769*
X-1313Y-1768*
X-1313Y-1768*
X-1315Y-1767*
X-1315Y-1767*
X-1315Y-1767*
X-1315Y-1768*
X-1316Y-1768*
X-1316Y-1768*
X-1316Y-1769*
X-1317Y-1769*
X-1317Y-1769*
X-1318Y-1769*
X-1318Y-1769*
X-1322*
X-1323Y-1769*
X-1323Y-1769*
X-1324Y-1769*
X-1324Y-1769*
X-1325Y-1768*
X-1325Y-1768*
X-1325Y-1768*
X-1326Y-1767*
X-1326Y-1767*
X-1326Y-1767*
X-1327Y-1768*
X-1328Y-1768*
X-1328Y-1769*
X-1329Y-1769*
X-1329Y-1769*
X-1330Y-1769*
X-1330Y-1769*
X-1334*
X-1335Y-1769*
X-1335Y-1769*
X-1336Y-1769*
X-1336Y-1769*
X-1337Y-1768*
X-1337Y-1768*
X-1338Y-1767*
X-1338Y-1767*
X-1339Y-1767*
X-1339Y-1768*
X-1339Y-1768*
X-1340Y-1768*
X-1340Y-1769*
X-1341Y-1769*
X-1341Y-1769*
X-1342Y-1769*
X-1342Y-1769*
X-1346*
X-1346Y-1769*
X-1347Y-1769*
X-1347Y-1769*
X-1348Y-1769*
X-1348Y-1768*
X-1349Y-1768*
X-1349Y-1768*
X-1349Y-1767*
X-1350Y-1767*
X-1350Y-1767*
X-1351Y-1768*
X-1351Y-1768*
X-1352Y-1769*
X-1352Y-1769*
X-1353Y-1769*
X-1353Y-1769*
X-1354Y-1769*
X-1358*
X-1358Y-1769*
X-1359Y-1769*
X-1359Y-1769*
X-1360Y-1769*
X-1360Y-1768*
X-1361Y-1768*
X-1362Y-1767*
X-1362Y-1767*
X-1362Y-1767*
X-1363Y-1768*
X-1363Y-1768*
X-1363Y-1768*
X-1364Y-1769*
X-1364Y-1769*
X-1365Y-1769*
X-1365Y-1769*
X-1366Y-1769*
X-1370*
X-1370Y-1769*
X-1371Y-1769*
X-1371Y-1769*
X-1372Y-1769*
X-1372Y-1768*
X-1372Y-1768*
X-1373Y-1768*
X-1373Y-1767*
X-1373Y-1767*
X-1373Y-1767*
X-1375Y-1768*
X-1375Y-1768*
X-1375Y-1769*
X-1376Y-1769*
X-1376Y-1769*
X-1377Y-1769*
X-1377Y-1769*
X-1381*
X-1382Y-1769*
X-1382Y-1769*
X-1383Y-1769*
X-1383Y-1769*
X-1384Y-1768*
X-1384Y-1768*
X-1386Y-1767*
X-1386Y-1767*
X-1386Y-1767*
X-1386Y-1768*
X-1386Y-1768*
X-1387Y-1768*
X-1387Y-1769*
X-1388Y-1769*
X-1388Y-1769*
X-1389Y-1769*
X-1389Y-1769*
X-1393*
X-1394Y-1769*
X-1394Y-1769*
X-1395Y-1769*
X-1395Y-1769*
X-1396Y-1768*
X-1396Y-1768*
X-1396Y-1768*
X-1397Y-1767*
X-1397Y-1767*
X-1397Y-1767*
X-1398Y-1768*
X-1399Y-1768*
X-1399Y-1769*
X-1400Y-1769*
X-1400Y-1769*
X-1401Y-1769*
X-1401Y-1769*
X-1405*
X-1406Y-1769*
X-1406Y-1769*
X-1407Y-1769*
X-1407Y-1769*
X-1407Y-1768*
X-1408Y-1768*
X-1409Y-1767*
X-1409Y-1767*
X-1409Y-1767*
X-1410Y-1768*
X-1410Y-1768*
X-1410Y-1768*
X-1411Y-1769*
X-1411Y-1769*
X-1412Y-1769*
X-1412Y-1769*
X-1413Y-1769*
X-1417*
X-1417Y-1769*
X-1418Y-1769*
X-1418Y-1769*
X-1419Y-1769*
X-1419Y-1768*
X-1420Y-1768*
X-1420Y-1768*
X-1420Y-1767*
X-1420Y-1767*
X-1421Y-1767*
X-1422Y-1768*
X-1422Y-1768*
X-1423Y-1769*
X-1423Y-1769*
X-1424Y-1769*
X-1424Y-1769*
X-1425Y-1769*
X-1429*
X-1429Y-1769*
X-1430Y-1769*
X-1430Y-1769*
X-1431Y-1769*
X-1431Y-1768*
X-1431Y-1768*
X-1433Y-1767*
X-1433Y-1767*
X-1433Y-1767*
X-1433Y-1768*
X-1434Y-1768*
X-1434Y-1768*
X-1435Y-1769*
X-1435Y-1769*
X-1435Y-1769*
X-1436Y-1769*
X-1437Y-1769*
X-1440*
X-1441Y-1769*
X-1441Y-1769*
X-1442Y-1769*
X-1442Y-1769*
X-1443Y-1768*
X-1443Y-1768*
X-1444Y-1768*
X-1444Y-1767*
X-1444Y-1767*
X-1444Y-1767*
X-1446Y-1768*
X-1446Y-1768*
X-1446Y-1769*
X-1447Y-1769*
X-1447Y-1769*
X-1448Y-1769*
X-1448Y-1769*
X-1452*
X-1453Y-1769*
X-1453Y-1769*
X-1454Y-1769*
X-1454Y-1769*
X-1455Y-1768*
X-1455Y-1768*
X-1459Y-1764*
X-1459Y-1764*
X-1460Y-1763*
X-1460Y-1763*
X-1460Y-1762*
X-1460Y-1762*
X-1460Y-1761*
Y-1687*
X-1460Y-1686*
X-1460Y-1685*
X-1460Y-1685*
X-1460Y-1685*
X-1459Y-1684*
X-1459Y-1684*
X-1459Y-1683*
X-1458Y-1683*
X-1458Y-1683*
X-1457Y-1683*
X-1457Y-1683*
X-1456Y-1683*
X-1444*
X-1444Y-1683*
X-1443Y-1683*
X-1443Y-1683*
X-1442Y-1683*
X-1442Y-1683*
X-1441Y-1683*
X-1441Y-1683*
X-1440Y-1683*
X-1437*
X-1436Y-1683*
X-1435Y-1683*
X-1435Y-1683*
X-1435Y-1683*
X-1434Y-1683*
X-1434Y-1683*
X-1433Y-1683*
X-1433Y-1683*
X-1421*
X-1420Y-1683*
X-1420Y-1683*
X-1419Y-1683*
X-1419Y-1683*
X-1418Y-1683*
X-1418Y-1683*
X-1417Y-1683*
X-1417Y-1683*
X-1413*
X-1412Y-1683*
X-1412Y-1683*
X-1411Y-1683*
X-1411Y-1683*
X-1410Y-1683*
X-1410Y-1683*
X-1409Y-1683*
X-1409Y-1683*
X-1397*
X-1397Y-1683*
X-1396Y-1683*
X-1396Y-1683*
X-1395Y-1683*
X-1395Y-1683*
X-1394Y-1683*
X-1394Y-1683*
X-1393Y-1683*
X-1389*
X-1389Y-1683*
X-1388Y-1683*
X-1388Y-1683*
X-1387Y-1683*
X-1387Y-1683*
X-1386Y-1683*
X-1386Y-1683*
X-1385Y-1683*
X-1374*
X-1373Y-1683*
X-1373Y-1683*
X-1372Y-1683*
X-1372Y-1683*
X-1371Y-1683*
X-1371Y-1683*
X-1370Y-1683*
X-1370Y-1683*
X-1366*
X-1365Y-1683*
X-1365Y-1683*
X-1364Y-1683*
X-1364Y-1683*
X-1363Y-1683*
X-1363Y-1683*
X-1362Y-1683*
X-1362Y-1683*
X-1350*
X-1349Y-1683*
X-1349Y-1683*
X-1348Y-1683*
X-1348Y-1683*
X-1347Y-1683*
X-1347Y-1683*
X-1346Y-1683*
X-1346Y-1683*
X-1342*
X-1342Y-1683*
X-1341Y-1683*
X-1341Y-1683*
X-1340Y-1683*
X-1340Y-1683*
X-1339Y-1683*
X-1339Y-1683*
X-1338Y-1683*
X-1326*
X-1326Y-1683*
X-1325Y-1683*
X-1325Y-1683*
X-1324Y-1683*
X-1324Y-1683*
X-1323Y-1683*
X-1323Y-1683*
X-1322Y-1683*
X-1318*
X-1318Y-1683*
X-1317Y-1683*
X-1317Y-1683*
X-1316Y-1683*
X-1316Y-1683*
X-1315Y-1683*
X-1315Y-1683*
X-1314Y-1683*
X-1303*
X-1302Y-1683*
X-1302Y-1683*
X-1301Y-1683*
X-1301Y-1683*
X-1300Y-1683*
X-1300Y-1683*
X-1299Y-1683*
X-1299Y-1683*
X-1295*
X-1294Y-1683*
X-1294Y-1683*
X-1293Y-1683*
X-1293Y-1683*
X-1292Y-1683*
X-1292Y-1683*
X-1291Y-1683*
X-1291Y-1683*
X-1279*
X-1279Y-1683*
G37*
G54D50*
X132Y-870D03*
Y-943D03*
X416Y-870D03*
Y-943D03*
X-23Y1262D03*
Y1335D03*
X259Y1262D03*
Y1335D03*
G54D51*
X355Y-451D03*
Y-394D03*
X136Y-562D03*
Y-505D03*
X255Y954D03*
Y897D03*
G54D52*
X-537Y-755D03*
X-480D03*
X75Y846D03*
X18D03*
G54D53*
X203Y-369D03*
Y-334D03*
X188Y761D03*
Y726D03*
G54D54*
X314Y-665D03*
X249D03*
X190Y-454D03*
X256D03*
X136Y846D03*
X201D03*
G54D55*
X495Y-711D03*
Y-646D03*
X428D03*
Y-711D03*
X69Y-565D03*
Y-500D03*
X6Y-499D03*
Y-564D03*
X385Y956D03*
Y891D03*
X322Y892D03*
Y957D03*
X-35Y1103D03*
Y1038D03*
X-102D03*
Y1103D03*
G54D56*
X379Y-262D03*
X354D03*
X328D03*
X379Y-340D03*
X354D03*
X328D03*
G54D57*
X354Y-301D03*
G54D58*
X274Y-906D03*
X118Y1299D03*
G54D59*
X329Y-945D03*
Y-919D03*
Y-894D03*
Y-868D03*
X219Y-945D03*
Y-919D03*
Y-894D03*
Y-868D03*
X63Y1337D03*
Y1312D03*
Y1286D03*
Y1260D03*
X173Y1337D03*
Y1312D03*
Y1286D03*
Y1260D03*
G54D60*
X235Y-284D03*
X219D03*
X203D03*
X235Y-269D03*
X219D03*
X203D03*
X157Y677D03*
X173D03*
X188D03*
X157Y661D03*
X173D03*
X188D03*
G54D61*
X62Y-367D03*
X330Y759D03*
G54D62*
X137Y-329D03*
Y-354D03*
Y-380D03*
Y-405D03*
X-13D03*
Y-380D03*
Y-354D03*
Y-329D03*
X254Y721D03*
Y747D03*
Y772D03*
Y798D03*
X406D03*
Y772D03*
Y747D03*
Y721D03*
G54D63*
X100Y-443D03*
X74D03*
X49D03*
X23D03*
Y-291D03*
X49D03*
X74D03*
X100D03*
X292Y835D03*
X317D03*
X343D03*
X369D03*
Y684D03*
X343D03*
X317D03*
X292D03*
G54D64*
X-441Y-582D03*
X-481D03*
X-520D03*
X-441Y-695D03*
X-481D03*
X-520D03*
X0Y663D03*
X39D03*
X78D03*
X0Y777D03*
X39D03*
X78D03*
G54D65*
X-481Y-639D03*
X39Y720D03*
G54D66*
X196Y196D03*
G54D67*
X-905Y984D03*
X1299Y-590D03*
Y-1220D03*
X354D03*
X39D03*
X-590D03*
X-275D03*
X984D03*
X669D03*
X1299Y1614D03*
X354D03*
X39D03*
X-590D03*
X-275D03*
X984D03*
X669D03*
X-905D03*
X1299Y1299D03*
Y354D03*
Y39D03*
Y-275D03*
Y984D03*
Y669D03*
X-905Y-1220D03*
Y-905D03*
Y-590D03*
Y-275D03*
Y39D03*
Y354D03*
Y669D03*
G54D68*
X1837Y2053D03*
M02*