%FSLAX23Y23*%
%MOIN*%
%SFA1B1*%

%IPPOS*%
%AMD26*
4,1,8,-0.433100,0.424400,-0.433100,-0.424400,-0.424400,-0.433100,0.424400,-0.433100,0.433100,-0.424400,0.433100,0.424400,0.424400,0.433100,-0.424400,0.433100,-0.433100,0.424400,0.0*
1,1,0.017320,-0.424400,0.424400*
1,1,0.017320,-0.424400,-0.424400*
1,1,0.017320,0.424400,-0.424400*
1,1,0.017320,0.424400,0.424400*
%
%AMD35*
4,1,11,-0.005900,-0.039300,-0.005900,0.035500,-0.001900,0.039400,-0.001900,0.039400,0.002000,0.039400,0.006000,0.035500,0.006000,0.014800,0.002000,0.010900,0.002000,-0.014700,0.006000,-0.018700,0.006000,-0.039300,-0.005900,-0.039300,0.0*
%
%AMD36*
4,1,12,-0.005900,-0.012800,-0.005900,0.008900,-0.001900,0.012800,-0.001900,0.039400,0.002000,0.039400,0.002000,0.012800,0.006000,0.008900,0.006000,-0.012800,0.002000,-0.016700,0.002000,-0.039300,-0.001900,-0.039300,-0.001900,-0.016700,-0.005900,-0.012800,0.0*
%
%AMD37*
4,1,14,-0.005900,-0.039300,-0.005900,-0.018700,-0.001900,-0.014700,-0.001900,0.010900,-0.005900,0.014800,-0.005900,0.035500,-0.001900,0.039400,0.002000,0.039400,0.006000,0.035500,0.006000,0.014800,0.002000,0.010900,0.002000,-0.014700,0.006000,-0.018700,0.006000,-0.039300,-0.005900,-0.039300,0.0*
%
%AMD38*
4,1,12,-0.005900,-0.039300,-0.005900,-0.018700,-0.001900,-0.014700,-0.001900,-0.014700,-0.001900,0.010900,-0.005900,0.014800,-0.005900,0.014800,-0.005900,0.035500,-0.001900,0.039400,0.002000,0.039400,0.006000,0.035500,0.006000,-0.039300,-0.005900,-0.039300,0.0*
%
%AMD39*
4,1,11,0.006000,0.039400,0.006000,-0.035400,0.002000,-0.039300,0.002000,-0.039300,-0.001900,-0.039300,-0.005900,-0.035400,-0.005900,-0.014700,-0.001900,-0.010800,-0.001900,0.014800,-0.005900,0.018700,-0.005900,0.039400,0.006000,0.039400,0.0*
%
%AMD40*
4,1,12,0.006000,0.012800,0.006000,-0.008800,0.002000,-0.012800,0.002000,-0.039300,-0.001900,-0.039300,-0.001900,-0.012800,-0.005900,-0.008800,-0.005900,0.012800,-0.001900,0.016800,-0.001900,0.039400,0.002000,0.039400,0.002000,0.016800,0.006000,0.012800,0.0*
%
%AMD41*
4,1,14,0.006000,0.039400,0.006000,0.018700,0.002000,0.014800,0.002000,-0.010800,0.006000,-0.014700,0.006000,-0.035400,0.002000,-0.039300,-0.001900,-0.039300,-0.005900,-0.035400,-0.005900,-0.014700,-0.001900,-0.010800,-0.001900,0.014800,-0.005900,0.018700,-0.005900,0.039400,0.006000,0.039400,0.0*
%
%AMD42*
4,1,12,0.006000,0.039400,0.006000,0.018700,0.002000,0.014800,0.002000,0.014800,0.002000,-0.010800,0.006000,-0.014700,0.006000,-0.014700,0.006000,-0.035400,0.002000,-0.039300,-0.001900,-0.039300,-0.005900,-0.035400,-0.005900,0.039400,0.006000,0.039400,0.0*
%
%ADD10R,0.057090X0.051180*%
%ADD11R,0.039370X0.039370*%
%ADD12R,0.039370X0.039370*%
%ADD13R,0.028350X0.026770*%
%ADD14R,0.027560X0.035430*%
%ADD15R,0.035430X0.027560*%
%ADD16R,0.011810X0.027560*%
%ADD17R,0.062990X0.035040*%
%ADD18R,0.058660X0.094490*%
%ADD19R,0.035430X0.013780*%
%ADD20C,0.007870*%
%ADD21R,0.102360X0.102360*%
%ADD22O,0.033470X0.011810*%
%ADD23O,0.011810X0.033470*%
%ADD24R,0.015750X0.031500*%
%ADD25R,0.098430X0.059060*%
G04~CAMADD=26~8~0.0~0.0~8661.4~8661.4~86.6~0.0~15~0.0~0.0~0.0~0.0~0~0.0~0.0~0.0~0.0~0~0.0~0.0~0.0~90.0~8662.0~8662.0*
%ADD26D26*%
%ADD27C,0.307090*%
%ADD28C,0.005510*%
%ADD29C,0.019680*%
%ADD30C,0.007870*%
%ADD31C,0.039370*%
%ADD32C,0.029530*%
%ADD33C,0.011810*%
%ADD34C,0.307090*%
%ADD35D35*%
%ADD36D36*%
%ADD37D37*%
%ADD38D38*%
%ADD39D39*%
%ADD40D40*%
%ADD41D41*%
%ADD42D42*%
%ADD43C,0.019680*%
%LNhumflex2_1_copper_signal_top-1*%
%LPD*%
G36*
X-551Y-551D02*
X-39D01*
Y-236*
X433*
Y-551*
X944*
Y944*
X433*
Y629*
X-39*
Y944*
X-551*
Y-551*
G37*
G54D10*
X132Y-870D03*
Y-943D03*
X416Y-870D03*
Y-943D03*
X-23Y1262D03*
Y1335D03*
X259Y1262D03*
Y1335D03*
G54D11*
X355Y-451D03*
Y-394D03*
X136Y-562D03*
Y-505D03*
X255Y954D03*
Y897D03*
G54D12*
X-537Y-755D03*
X-480D03*
X75Y846D03*
X18D03*
G54D13*
X203Y-369D03*
Y-334D03*
X188Y761D03*
Y726D03*
G54D14*
X314Y-665D03*
X249D03*
X190Y-454D03*
X256D03*
X136Y846D03*
X201D03*
G54D15*
X495Y-711D03*
Y-646D03*
X428D03*
Y-711D03*
X69Y-565D03*
Y-500D03*
X6Y-499D03*
Y-564D03*
X385Y956D03*
Y891D03*
X322Y892D03*
Y957D03*
X-35Y1103D03*
Y1038D03*
X-102D03*
Y1103D03*
G54D16*
X379Y-262D03*
X354D03*
X328D03*
X379Y-340D03*
X354D03*
X328D03*
G54D17*
X354Y-301D03*
G54D18*
X274Y-906D03*
X118Y1299D03*
G54D19*
X329Y-945D03*
Y-919D03*
Y-894D03*
Y-868D03*
X219Y-945D03*
Y-919D03*
Y-894D03*
Y-868D03*
X63Y1337D03*
Y1312D03*
Y1286D03*
Y1260D03*
X173Y1337D03*
Y1312D03*
Y1286D03*
Y1260D03*
G54D20*
X235Y-284D03*
X219D03*
X203D03*
X235Y-269D03*
X219D03*
X203D03*
X157Y677D03*
X173D03*
X188D03*
X157Y661D03*
X173D03*
X188D03*
G54D21*
X62Y-367D03*
X330Y759D03*
G54D22*
X137Y-329D03*
Y-354D03*
Y-380D03*
Y-405D03*
X-13D03*
Y-380D03*
Y-354D03*
Y-329D03*
X254Y721D03*
Y747D03*
Y772D03*
Y798D03*
X406D03*
Y772D03*
Y747D03*
Y721D03*
G54D23*
X100Y-443D03*
X74D03*
X49D03*
X23D03*
Y-291D03*
X49D03*
X74D03*
X100D03*
X292Y835D03*
X317D03*
X343D03*
X369D03*
Y684D03*
X343D03*
X317D03*
X292D03*
G54D24*
X-441Y-582D03*
X-481D03*
X-520D03*
X-441Y-695D03*
X-481D03*
X-520D03*
X0Y663D03*
X39D03*
X78D03*
X0Y777D03*
X39D03*
X78D03*
G54D25*
X-481Y-639D03*
X39Y720D03*
G54D26*
X196Y196D03*
G54D27*
X-905Y-1220D02*
Y984D01*
Y-1220D02*
X1299D01*
Y-590D02*
Y1614D01*
X-905D02*
X1299D01*
G54D28*
X185Y-704D02*
X374D01*
X177Y-712D02*
X185Y-704D01*
X175Y-712D02*
X177D01*
X314Y-669D02*
X330Y-685D01*
X963*
X1097Y-818*
X314Y-669D02*
Y-665D01*
X1149Y-775D02*
X1188Y-814D01*
X1177Y-828D02*
X1637D01*
X1167Y-859D02*
X1653D01*
X956Y-607D02*
X1177Y-828D01*
X984Y-654D02*
X1117Y-787D01*
X1173Y-843D02*
X1644D01*
X978Y-670D02*
X1095Y-787D01*
X1117D02*
X1173Y-843D01*
X1095Y-787D02*
X1167Y-859D01*
X364Y-670D02*
X978D01*
X291Y-637D02*
X314Y-661D01*
X291Y-637D02*
Y-582D01*
X314Y-665D02*
Y-661D01*
X231Y-477D02*
X355Y-602D01*
X256Y-478D02*
X349Y-572D01*
X290Y-556D02*
X364Y-630D01*
X241Y-605D02*
X290Y-556D01*
X215Y-481D02*
X290Y-556D01*
X349Y-643D02*
X352Y-645D01*
Y-657D02*
X364Y-670D01*
X352Y-657D02*
Y-645D01*
X-1403Y-1728D02*
Y1181D01*
X-1427Y1194D02*
X-1283Y1338D01*
X-1427Y1181D02*
Y1194D01*
X-1403Y1190D02*
X-1275Y1318D01*
X-1379Y1187D02*
X-1267Y1299D01*
X-1379Y1181D02*
Y1187D01*
X-1427Y-1728D02*
Y1181D01*
X-1379Y-1728D02*
Y1181D01*
X-1403D02*
Y1190D01*
X-1309Y-1728D02*
Y1155D01*
X-1332Y-1728D02*
Y1154D01*
X-1285Y-1728D02*
Y1155D01*
X-1259Y1181*
X-1332Y1154D02*
X-1305Y1181D01*
X-1309Y1155D02*
X-1283Y1181D01*
X-1228Y1236*
X-1259Y1181D02*
X-1220Y1220D01*
X-1305Y1181D02*
X-1234Y1251D01*
X1654Y1807D02*
X1659Y1802D01*
X1844Y2083D02*
Y2120D01*
X1773Y-787D02*
Y2120D01*
X1820Y-787D02*
Y2120D01*
X1797Y-787D02*
Y2120D01*
X1659Y1802D02*
Y-783D01*
X1726Y-786D02*
Y2120D01*
X1702Y-785D02*
Y2120D01*
X1678D02*
Y-787D01*
X1680Y-946D02*
X1820Y-806D01*
X1674Y-926D02*
X1797Y-804D01*
X1673Y-906D02*
X1773Y-807D01*
Y-787*
X1820Y-806D02*
Y-787D01*
X1653Y-859D02*
X1726Y-786D01*
X1644Y-843D02*
X1702Y-785D01*
X1637Y-828D02*
X1678Y-787D01*
X1797Y-804D02*
Y-787D01*
X1627Y-814D02*
X1659Y-783D01*
X369Y835D02*
Y873D01*
X330Y893D02*
X343Y880D01*
X326Y893D02*
X330D01*
X169Y649D02*
X173Y652D01*
X173Y661*
X137Y649D02*
X169D01*
X141Y664D02*
X143Y663D01*
X145Y662*
X157Y661*
X146Y680D02*
X147Y678D01*
X157Y677*
X317Y673D02*
Y684D01*
X302Y657D02*
X317Y673D01*
X122Y688D02*
X141Y664D01*
X249Y684D02*
X292D01*
X240Y657D02*
X302D01*
X122Y688D02*
Y716D01*
X102Y685D02*
X137Y649D01*
X141Y688D02*
Y686D01*
Y688D02*
Y693D01*
X142Y685D02*
X146Y680D01*
X141Y686D02*
X142Y685D01*
X122Y716D02*
Y779D01*
X141Y693D02*
X145Y697D01*
X165*
X0Y777D02*
Y785D01*
X15Y1286D02*
X63D01*
X359Y929D02*
X403D01*
X413Y938*
X389Y891D02*
X400Y902D01*
X385Y891D02*
X389D01*
X400Y906D02*
X425Y930D01*
X400Y902D02*
Y906D01*
X-11Y793D02*
Y960D01*
X-24Y681D02*
X-5Y662D01*
X-11Y793D02*
X-8Y790D01*
X-5*
X0Y785*
X-24Y681D02*
Y1027D01*
X-91Y1045D02*
X-87Y1049D01*
X-24Y1027D02*
X23D01*
X40Y1038D02*
X43Y1035D01*
X40Y1038D02*
Y1049D01*
X-35Y1038D02*
X-24Y1027D01*
X-24Y1027*
X23Y1027D02*
X177Y874D01*
X136Y846D02*
Y871D01*
X161Y818D02*
Y870D01*
X177Y814D02*
Y874D01*
X-50Y1027D02*
X-39Y1038D01*
X-35*
X2Y1299D02*
X15Y1286D01*
X-5Y662D02*
X0D01*
X-91Y1027D02*
Y1045D01*
X369Y873D02*
X386Y890D01*
X343Y835D02*
Y880D01*
X-748Y1181D02*
D01*
X25Y994D02*
X36D01*
X23Y996D02*
X25Y994D01*
X36D02*
X161Y870D01*
X-11Y960D02*
X23Y996D01*
X141Y779D02*
X177Y814D01*
X122Y779D02*
X161Y818D01*
X136Y813D02*
Y846D01*
X102Y685D02*
Y779D01*
X136Y813*
X141Y693D02*
Y779D01*
X-111Y1047D02*
X-91Y1027D01*
X-87Y1049D02*
D01*
X-4Y1061D02*
X5Y1051D01*
X-87Y1049D02*
X-75Y1061D01*
X5Y1051D02*
X7D01*
X-75Y1061D02*
X-4D01*
X-748Y1181D02*
X-645Y1078D01*
X12D02*
X40Y1049D01*
X-645Y1078D02*
X12D01*
X-50Y1023D02*
Y1027D01*
X220Y712D02*
X249Y684D01*
X43Y964D02*
X136Y871D01*
X212Y685D02*
Y686D01*
Y685D02*
X240Y657D01*
X425Y1181D02*
D01*
Y930D02*
Y1181D01*
Y1271D01*
X413Y938D02*
Y1181D01*
Y1259*
X299Y1374D02*
X413Y1259D01*
X-704Y1374D02*
X299D01*
X303Y1393D02*
X425Y1271D01*
X-712Y1393D02*
X303D01*
X325Y895D02*
X359Y929D01*
X-1267Y1299D02*
X2D01*
X322Y892D02*
X325Y895D01*
X-1283Y1338D02*
X-767D01*
X-712Y1393*
X-1275Y1318D02*
X-759D01*
X-704Y1374*
X-818Y1251D02*
X-748Y1181D01*
X-1234Y1251D02*
X-818D01*
X-637Y1047D02*
X-111D01*
X-1228Y1236D02*
X-826D01*
X-770Y1181D02*
X-637Y1047D01*
X-770Y1181D02*
D01*
X-826Y1236D02*
X-770Y1181D01*
X-1220Y1220D02*
X-834D01*
X-795Y1181D02*
D01*
X-834Y1220D02*
X-795Y1181D01*
X-74Y999D02*
X-50Y1023D01*
X-613Y999D02*
X-74D01*
X-795Y1181D02*
X-613Y999D01*
X443Y-631D02*
X467Y-607D01*
X67Y-502D02*
X69Y-500D01*
X152Y-265D02*
X180Y-292D01*
Y-294D02*
Y-292D01*
X143Y-291D02*
X172Y-320D01*
X443Y-635D02*
Y-631D01*
X256Y-454D02*
Y-421D01*
X49Y-488D02*
Y-443D01*
X6Y-498D02*
X23Y-480D01*
X428Y-646D02*
X432D01*
X443Y-635*
X256Y-478D02*
Y-454D01*
X2Y-499D02*
X6D01*
X329Y-894D02*
X377D01*
X246Y-305D02*
X251Y-301D01*
X249Y-292D02*
X251Y-294D01*
X246Y-288D02*
X249Y-292D01*
X251Y-301D02*
Y-296D01*
Y-294D02*
Y-296D01*
X270Y-324D02*
Y-296D01*
X90Y-265D02*
X152D01*
X100Y-291D02*
X143D01*
X251Y-272D02*
X270Y-296D01*
X74Y-280D02*
X90Y-265D01*
X74Y-291D02*
Y-280D01*
X235Y-284D02*
X244Y-286D01*
X246Y-288*
X235Y-269D02*
X247Y-270D01*
X249Y-270*
X251Y-272*
X222Y-257D02*
X254D01*
X219Y-269D02*
X219Y-260D01*
X222Y-257*
X62Y-501D02*
X65D01*
X49Y-488D02*
X62Y-501D01*
X23Y-480D02*
Y-443D01*
X231Y-426D02*
X270Y-387D01*
X231Y-477D02*
Y-426D01*
X215Y-481D02*
Y-422D01*
X227Y-305D02*
X246D01*
X215Y-422D02*
X251Y-387D01*
Y-301*
X379Y-348D02*
Y-340D01*
X387Y-277D02*
X388D01*
X379Y-269D02*
X387Y-277D01*
X379Y-269D02*
Y-262D01*
X493Y-644D02*
X501D01*
X520Y-625D02*
X523D01*
X501Y-644D02*
X520Y-625D01*
X493Y-644D02*
X504Y-654D01*
X388Y-277D02*
X400Y-289D01*
X270Y-387D02*
Y-324D01*
X379Y-348D02*
X386Y-355D01*
X364Y-630D02*
X386Y-609D01*
X310Y-288D02*
X320Y-277D01*
X328Y-269D02*
Y-262D01*
X320Y-277D02*
X320D01*
X328Y-269*
X325Y-354D02*
X325Y-354D01*
Y-343*
X328Y-340*
X307Y-401D02*
X325Y-383D01*
Y-354*
X254Y-257D02*
X287Y-290D01*
Y-389D02*
Y-290D01*
X256Y-421D02*
X287Y-389D01*
X310Y-382D02*
Y-288D01*
X294Y-398D02*
X310Y-382D01*
X367Y-602D02*
X368Y-603D01*
X355Y-602D02*
X367D01*
X386Y-540D02*
Y-355D01*
X307Y-460D02*
X386Y-540D01*
Y-609D02*
Y-540D01*
X307Y-460D02*
Y-401D01*
X377Y-894D02*
X390Y-906D01*
X1097Y-981D02*
X1152Y-926D01*
X1105Y-1001D02*
X1160Y-946D01*
X294Y-490D02*
Y-398D01*
Y-490D02*
X296Y-492D01*
X89Y-1001D02*
X1105D01*
X93Y-981D02*
X1097D01*
X-441Y-695D02*
X-421Y-716D01*
X-55*
X33Y-536D02*
X67Y-502D01*
X-32Y-879D02*
Y-788D01*
Y-538D02*
X-8Y-514D01*
Y-510D02*
X2Y-499D01*
X-32Y-879D02*
X89Y-1001D01*
X-20Y-867D02*
X93Y-981D01*
X-8Y-514D02*
Y-510D01*
X-20Y-788D02*
D01*
Y-546D02*
X-11Y-536D01*
X-20Y-867D02*
Y-788D01*
X-11Y-536D02*
X33D01*
X-20Y-788D02*
Y-546D01*
X-32Y-788D02*
Y-538D01*
X-441Y-582D02*
X-343Y-681D01*
X-56*
X91Y-717D02*
X92Y-718D01*
X0Y-716D02*
X0Y-717D01*
X91*
X48Y-681D02*
X49Y-682D01*
X1Y-681D02*
X48D01*
X0Y-681D02*
X1Y-681D01*
X210Y-605D02*
X241D01*
X112Y-632D02*
X142D01*
X87Y-657D02*
X112Y-632D01*
X467Y-607D02*
X956D01*
X504Y-654D02*
X984D01*
X1160Y-946D02*
X1680D01*
X1152Y-926D02*
X1674D01*
X390Y-906D02*
X1673D01*
X1188Y-814D02*
X1627D01*
X418Y-636D02*
X428Y-646D01*
X364Y-630D02*
X369Y-635D01*
X417*
X400Y-619D02*
Y-289D01*
G54D29*
X-1354Y-1728D02*
Y1169D01*
X-1342Y1181D02*
X-1248Y1275D01*
X-1354Y1169D02*
X-1342Y1181D01*
X1750Y2120D02*
D01*
Y-798D02*
Y-787D01*
Y2120*
X1664Y-883D02*
X1750Y-798D01*
X-36Y1275D02*
X-23Y1262D01*
X-1248Y1275D02*
X-36D01*
X416Y-870D02*
X429Y-883D01*
X1664*
X354Y-301D02*
Y-262D01*
X196Y196D02*
X354Y39D01*
Y-262D02*
Y39D01*
G54D30*
X-1444Y-1664D02*
Y-1661D01*
X-1452Y-1672D02*
X-1444Y-1664D01*
X-1452Y-1726D02*
Y-1672D01*
X1837Y2057D02*
X1844Y2064D01*
X1837Y2053D02*
Y2057D01*
X1844Y2064D02*
Y2083D01*
X157Y730D02*
X162Y726D01*
X188*
X257Y1260D02*
X259Y1262D01*
X18Y805D02*
X39Y785D01*
X18Y805D02*
Y846D01*
X39Y777D02*
Y785D01*
X188Y692D02*
Y726D01*
Y677D02*
Y692D01*
X173Y677D02*
X188Y692D01*
X157Y730D02*
Y775D01*
X259Y1122D02*
Y1262D01*
X216Y937D02*
Y1078D01*
X259Y1122*
X322Y1059*
X216Y864D02*
Y937D01*
X211Y860D02*
X211D01*
X216Y864*
X200Y849D02*
X211Y860D01*
X-102Y1103D02*
X-35D01*
X44*
X159Y1257D02*
X162Y1260D01*
X159Y1218D02*
Y1257D01*
X44Y1103D02*
X159Y1218D01*
X162Y1260D02*
X173D01*
X257*
X-21D02*
X63D01*
X322Y957D02*
Y1059D01*
X18Y846D02*
X57Y807D01*
X157Y775D02*
X188Y807D01*
X200*
X322Y1059D02*
X385Y996D01*
Y956D02*
Y996D01*
X255Y954D02*
X287Y923D01*
X291Y836D02*
Y861D01*
X255Y897D02*
X291Y861D01*
X216Y937D02*
X255Y897D01*
X291Y836D02*
X292Y835D01*
X317Y836D02*
X317Y835D01*
X287Y885D02*
X317Y855D01*
X287Y885D02*
Y923D01*
X317Y836D02*
Y855D01*
X57Y807D02*
X102D01*
X255Y954D02*
Y956D01*
X283Y984*
X-23Y1262D02*
X-22Y1261D01*
X-21Y1260*
X414Y-868D02*
X415Y-869D01*
X416Y-870*
X109Y-591D02*
X136Y-564D01*
Y-562*
X75Y-462D02*
Y-443D01*
X105Y-531D02*
Y-492D01*
X75Y-462D02*
X105Y-492D01*
X74Y-443D02*
X75Y-443D01*
X100Y-443D02*
X101Y-444D01*
X136Y-505D02*
X176Y-544D01*
X101Y-469D02*
X136Y-505D01*
X101Y-469D02*
Y-444D01*
X105Y-531D02*
X136Y-562D01*
X6Y-603D02*
Y-564D01*
X329Y-868D02*
X414D01*
X134D02*
X219D01*
X176Y-472D02*
X180Y-467D01*
X181*
X176Y-544D02*
Y-472D01*
X203Y-300D02*
X219Y-284D01*
X203Y-300D02*
Y-284D01*
Y-334D02*
Y-300D01*
X132Y-870D02*
X134Y-868D01*
X203Y-334D02*
X230D01*
X235Y-383D02*
Y-338D01*
X230Y-334D02*
X235Y-338D01*
X220Y-398D02*
X235Y-383D01*
X211Y-398D02*
X220D01*
X202Y-403D02*
X205D01*
X200Y-448D02*
Y-405D01*
X205Y-403D02*
X211Y-398D01*
X200Y-405D02*
X202Y-403D01*
X339Y-410D02*
X355Y-394D01*
X326Y-410D02*
X326Y-410D01*
X339*
X181Y-467D02*
X200Y-448D01*
X200Y807D02*
Y849D01*
X424Y-711D02*
X495D01*
X132Y-870D02*
Y-729D01*
X69Y-666D02*
X132Y-729D01*
X409D02*
X414Y-724D01*
Y-721D02*
X424Y-711D01*
X414Y-724D02*
Y-721D01*
X132Y-729D02*
X409D01*
X69Y-666D02*
Y-565D01*
X6Y-603D02*
X69Y-666D01*
X132Y-729D02*
X176Y-686D01*
X219Y-868D02*
X230D01*
X233Y-865*
X176Y-686D02*
Y-544D01*
X31Y-870D02*
X132D01*
X-481Y-754D02*
Y-695D01*
X-3Y-834D02*
X31Y-870D01*
X-3Y-834D02*
Y-831D01*
X-481Y-754D02*
X-480Y-755D01*
X-403Y-832*
X-52*
X-537Y-784D02*
Y-755D01*
Y-784D02*
X-531Y-790D01*
X176Y-686D02*
X197Y-665D01*
X249*
G54D31*
X406Y721D02*
Y747D01*
Y772*
Y798*
X369Y369D02*
Y606D01*
X23Y23D02*
X195Y195D01*
X23Y-214D02*
Y23D01*
X-13Y-405D02*
Y-380D01*
Y-354*
Y-329*
X196Y196D02*
X369Y369D01*
X39Y354D02*
X188Y204D01*
X39Y354D02*
Y663D01*
Y720*
X-481Y-639D02*
Y-582D01*
Y-528D02*
X-480Y-527D01*
X-481Y-582D02*
Y-528D01*
X-13Y-329D02*
X23Y-291D01*
Y-214*
X369Y606D02*
Y684D01*
X406Y721*
G54D32*
X343Y615D02*
X352Y606D01*
X330Y759D02*
X343Y747D01*
Y684D02*
Y747D01*
X49Y-354D02*
Y-291D01*
Y-222*
Y-354D02*
X62Y-367D01*
X23Y-214D02*
X40D01*
X49Y-222*
X352Y606D02*
X369D01*
X343Y615D02*
Y684D01*
G54D33*
X254Y747D02*
X317D01*
X254Y721D02*
X292D01*
X317Y747*
X330Y759*
X254Y772D02*
X317D01*
X292Y798D02*
X317Y772D01*
X330Y759*
X317Y772D02*
Y835D01*
X197Y770D02*
X225Y798D01*
X197Y769D02*
Y770D01*
X189Y761D02*
X197Y769D01*
X188Y761D02*
X189D01*
X75Y846D02*
X89Y860D01*
Y870*
X-23Y1335D02*
X22D01*
X25Y1338D02*
X27D01*
X22Y1335D02*
X25Y1338D01*
X27D02*
X28Y1338D01*
X62*
X63Y1337*
X212Y1334D02*
X258D01*
X259Y1335*
X225Y798D02*
X254D01*
X292*
X89Y870D02*
X94Y875D01*
Y877*
X188Y204D02*
X196Y196D01*
X100Y-405D02*
X137D01*
X167*
X132Y-943D02*
X133Y-942D01*
X180*
X329Y-945D02*
X330Y-945D01*
X364*
X365Y-946*
X367D02*
X370Y-943D01*
X365Y-946D02*
X367D01*
X370Y-943D02*
X416D01*
X202Y-369D02*
X203D01*
X195Y-377D02*
X202Y-369D01*
X195Y-377D02*
Y-377D01*
X167Y-405D02*
X195Y-377D01*
X74Y-443D02*
Y-380D01*
X62Y-367D02*
X74Y-380D01*
X100Y-405*
X74Y-380D02*
X137D01*
X62Y-367D02*
X74Y-354D01*
X100Y-329*
X137*
X74Y-354D02*
X137D01*
X203Y-269D02*
Y187D01*
X188Y204D02*
Y661D01*
X355Y-394D02*
Y-349D01*
X354Y-348D02*
Y-340D01*
Y-348D02*
X355Y-349D01*
X369Y-483D02*
X370Y-484D01*
X355Y-451D02*
X369Y-465D01*
Y-483D02*
Y-465D01*
G54D34*
X-905Y984D03*
X1299Y-590D03*
Y-1220D03*
X354D03*
X39D03*
X-590D03*
X-275D03*
X984D03*
X669D03*
X1299Y1614D03*
X354D03*
X39D03*
X-590D03*
X-275D03*
X984D03*
X669D03*
X-905D03*
X1299Y1299D03*
Y354D03*
Y39D03*
Y-275D03*
Y984D03*
Y669D03*
X-905Y-1220D03*
Y-905D03*
Y-590D03*
Y-275D03*
Y39D03*
Y354D03*
Y669D03*
G54D35*
X1679Y2120D03*
G54D36*
X1690Y2120D03*
X1714D03*
X1738D03*
X1761D03*
X1785D03*
X1809D03*
X1832D03*
G54D37*
X1702Y2120D03*
X1726D03*
X1750D03*
X1773D03*
X1797D03*
X1820D03*
G54D38*
X1844Y2120D03*
G54D39*
X-1285Y-1726D03*
G54D40*
X-1297Y-1726D03*
X-1320D03*
X-1344D03*
X-1368D03*
X-1391D03*
X-1415D03*
X-1438D03*
G54D41*
X-1309Y-1726D03*
X-1332D03*
X-1356D03*
X-1379D03*
X-1403D03*
X-1427D03*
G54D42*
X-1450Y-1726D03*
G54D43*
X374Y-704D03*
X1149Y-775D03*
X291Y-582D03*
X-527Y-527D03*
Y-496D03*
X-503Y-511D03*
X-527Y-464D03*
X-503Y-480D03*
Y-448D03*
X-527Y-433D03*
Y-401D03*
X-503Y-417D03*
X-527Y-370D03*
X-503Y-385D03*
Y-354D03*
X-527Y-338D03*
Y-307D03*
X-503Y-322D03*
X-527Y-275D03*
X-503Y-291D03*
Y-259D03*
X-527Y-244D03*
Y-212D03*
X-503Y-228D03*
X-527Y-181D03*
X-503Y-196D03*
Y-165D03*
X-527Y-149D03*
Y-118D03*
X-503Y-133D03*
X-527Y-86D03*
X-503Y-102D03*
Y-70D03*
X-527Y-55D03*
Y-23D03*
X-503Y-39D03*
X-527Y7D03*
X-503Y-7D03*
Y23D03*
X-527Y39D03*
Y70D03*
X-503Y55D03*
X-527Y102D03*
X-503Y86D03*
Y118D03*
X-527Y133D03*
Y165D03*
X-503Y149D03*
X-527Y196D03*
X-503Y181D03*
Y212D03*
X-527Y228D03*
Y259D03*
X-503Y244D03*
X-527Y291D03*
X-503Y275D03*
Y307D03*
X-527Y322D03*
Y354D03*
X-503Y338D03*
X-527Y385D03*
X-503Y370D03*
Y401D03*
X-527Y417D03*
Y448D03*
X-503Y433D03*
X-527Y480D03*
X-503Y464D03*
Y496D03*
X-527Y511D03*
Y543D03*
X-503Y527D03*
X-527Y574D03*
X-503Y559D03*
Y590D03*
X-527Y606D03*
Y637D03*
X-503Y622D03*
X-527Y669D03*
X-503Y653D03*
Y685D03*
X-527Y700D03*
Y732D03*
X-503Y716D03*
X-527Y763D03*
X-503Y748D03*
Y779D03*
X-527Y795D03*
Y826D03*
X-503Y811D03*
X-527Y858D03*
X-503Y842D03*
Y874D03*
X-527Y889D03*
Y921D03*
X-503Y905D03*
X-480Y-527D03*
Y-496D03*
X-456Y-511D03*
X-480Y-464D03*
X-456Y-480D03*
Y-448D03*
X-480Y-433D03*
Y-401D03*
X-456Y-417D03*
X-480Y-370D03*
X-456Y-385D03*
Y-354D03*
X-480Y-338D03*
Y-307D03*
X-456Y-322D03*
X-480Y-275D03*
X-456Y-291D03*
Y-259D03*
X-480Y-244D03*
Y-212D03*
X-456Y-228D03*
X-480Y-181D03*
X-456Y-196D03*
Y-165D03*
X-480Y-149D03*
Y-118D03*
X-456Y-133D03*
X-480Y-86D03*
X-456Y-102D03*
Y-70D03*
X-480Y-55D03*
Y-23D03*
X-456Y-39D03*
X-480Y7D03*
X-456Y-7D03*
Y23D03*
X-480Y39D03*
Y70D03*
X-456Y55D03*
X-480Y102D03*
X-456Y86D03*
Y118D03*
X-480Y133D03*
Y165D03*
X-456Y149D03*
X-480Y196D03*
X-456Y181D03*
Y212D03*
X-480Y228D03*
Y259D03*
X-456Y244D03*
X-480Y291D03*
X-456Y275D03*
Y307D03*
X-480Y322D03*
Y354D03*
X-456Y338D03*
X-480Y385D03*
X-456Y370D03*
Y401D03*
X-480Y417D03*
Y448D03*
X-456Y433D03*
X-480Y480D03*
X-456Y464D03*
Y496D03*
X-480Y511D03*
Y543D03*
X-456Y527D03*
X-480Y574D03*
X-456Y559D03*
Y590D03*
X-480Y606D03*
Y637D03*
X-456Y622D03*
X-480Y669D03*
X-456Y653D03*
Y685D03*
X-480Y700D03*
Y732D03*
X-456Y716D03*
X-480Y763D03*
X-456Y748D03*
Y779D03*
X-480Y795D03*
Y826D03*
X-456Y811D03*
X-480Y858D03*
X-456Y842D03*
Y874D03*
X-480Y889D03*
Y921D03*
X-456Y905D03*
X-433Y-527D03*
Y-496D03*
X-409Y-511D03*
X-433Y-464D03*
X-409Y-480D03*
Y-448D03*
X-433Y-433D03*
Y-401D03*
X-409Y-417D03*
X-433Y-370D03*
X-409Y-385D03*
Y-354D03*
X-433Y-338D03*
Y-307D03*
X-409Y-322D03*
X-433Y-275D03*
X-409Y-291D03*
Y-259D03*
X-433Y-244D03*
Y-212D03*
X-409Y-228D03*
X-433Y-181D03*
X-409Y-196D03*
Y-165D03*
X-433Y-149D03*
Y-118D03*
X-409Y-133D03*
X-433Y-86D03*
X-409Y-102D03*
Y-70D03*
X-433Y-55D03*
Y-23D03*
X-409Y-39D03*
X-433Y7D03*
X-409Y-7D03*
Y23D03*
X-433Y39D03*
Y70D03*
X-409Y55D03*
X-433Y102D03*
X-409Y86D03*
Y118D03*
X-433Y133D03*
Y165D03*
X-409Y149D03*
X-433Y196D03*
X-409Y181D03*
Y212D03*
X-433Y228D03*
Y259D03*
X-409Y244D03*
X-433Y291D03*
X-409Y275D03*
Y307D03*
X-433Y322D03*
Y354D03*
X-409Y338D03*
X-433Y385D03*
X-409Y370D03*
Y401D03*
X-433Y417D03*
Y448D03*
X-409Y433D03*
X-433Y480D03*
X-409Y464D03*
Y496D03*
X-433Y511D03*
Y543D03*
X-409Y527D03*
X-433Y574D03*
X-409Y559D03*
Y590D03*
X-433Y606D03*
Y637D03*
X-409Y622D03*
X-433Y669D03*
X-409Y653D03*
Y685D03*
X-433Y700D03*
Y732D03*
X-409Y716D03*
X-433Y763D03*
X-409Y748D03*
Y779D03*
X-433Y795D03*
Y826D03*
X-409Y811D03*
X-433Y858D03*
X-409Y842D03*
Y874D03*
X-433Y889D03*
Y921D03*
X-409Y905D03*
X921Y921D03*
Y889D03*
X898Y905D03*
X921Y858D03*
X898Y874D03*
Y842D03*
X921Y826D03*
Y795D03*
X898Y811D03*
X921Y764D03*
X898Y779D03*
Y748D03*
X921Y732D03*
Y701D03*
X898Y716D03*
X921Y669D03*
X898Y685D03*
Y653D03*
X921Y638D03*
Y606D03*
X898Y622D03*
X921Y575D03*
X898Y590D03*
Y559D03*
X921Y543D03*
Y512D03*
X898Y527D03*
X921Y480D03*
X898Y496D03*
Y464D03*
X921Y449D03*
Y417D03*
X898Y433D03*
X921Y386D03*
X898Y401D03*
Y370D03*
X921Y354D03*
Y323D03*
X898Y338D03*
X921Y291D03*
X898Y307D03*
Y275D03*
X921Y260D03*
Y228D03*
X898Y244D03*
X921Y197D03*
X898Y212D03*
Y181D03*
X921Y165D03*
Y134D03*
X898Y149D03*
X921Y102D03*
X898Y118D03*
Y86D03*
X921Y71D03*
Y39D03*
X898Y55D03*
X921Y8D03*
X898Y23D03*
Y-7D03*
X921Y-23D03*
Y-54D03*
X898Y-39D03*
X921Y-86D03*
X898Y-70D03*
Y-102D03*
X921Y-117D03*
Y-149D03*
X898Y-133D03*
X921Y-180D03*
X898Y-165D03*
Y-196D03*
X921Y-212D03*
Y-243D03*
X898Y-228D03*
X921Y-275D03*
X898Y-259D03*
Y-291D03*
X921Y-306D03*
Y-338D03*
X898Y-322D03*
X921Y-369D03*
X898Y-354D03*
Y-385D03*
X921Y-401D03*
Y-432D03*
X898Y-417D03*
X921Y-464D03*
X898Y-448D03*
Y-480D03*
X921Y-495D03*
Y-527D03*
X898Y-511D03*
X874Y921D03*
Y889D03*
X850Y905D03*
X874Y858D03*
X850Y874D03*
Y842D03*
X874Y826D03*
Y795D03*
X850Y811D03*
X874Y764D03*
X850Y779D03*
Y748D03*
X874Y732D03*
Y701D03*
X850Y716D03*
X874Y669D03*
X850Y685D03*
Y653D03*
X874Y638D03*
Y606D03*
X850Y622D03*
X874Y575D03*
X850Y590D03*
Y559D03*
X874Y543D03*
Y512D03*
X850Y527D03*
X874Y480D03*
X850Y496D03*
Y464D03*
X874Y449D03*
Y417D03*
X850Y433D03*
X874Y386D03*
X850Y401D03*
Y370D03*
X874Y354D03*
Y323D03*
X850Y338D03*
X874Y291D03*
X850Y307D03*
Y275D03*
X874Y260D03*
Y228D03*
X850Y244D03*
X874Y197D03*
X850Y212D03*
Y181D03*
X874Y165D03*
Y134D03*
X850Y149D03*
X874Y102D03*
X850Y118D03*
Y86D03*
X874Y71D03*
Y39D03*
X850Y55D03*
X874Y8D03*
X850Y23D03*
Y-7D03*
X874Y-23D03*
Y-54D03*
X850Y-39D03*
X874Y-86D03*
X850Y-70D03*
Y-102D03*
X874Y-117D03*
Y-149D03*
X850Y-133D03*
X874Y-180D03*
X850Y-165D03*
Y-196D03*
X874Y-212D03*
Y-243D03*
X850Y-228D03*
X874Y-275D03*
X850Y-259D03*
Y-291D03*
X874Y-306D03*
Y-338D03*
X850Y-322D03*
X874Y-369D03*
X850Y-354D03*
Y-385D03*
X874Y-401D03*
Y-432D03*
X850Y-417D03*
X874Y-464D03*
X850Y-448D03*
Y-480D03*
X874Y-495D03*
Y-527D03*
X850Y-511D03*
X827Y921D03*
Y889D03*
X803Y905D03*
X827Y858D03*
X803Y874D03*
Y842D03*
X827Y826D03*
Y795D03*
X803Y811D03*
X827Y764D03*
X803Y779D03*
Y748D03*
X827Y732D03*
Y701D03*
X803Y716D03*
X827Y669D03*
X803Y685D03*
Y653D03*
X827Y638D03*
Y606D03*
X803Y622D03*
X827Y575D03*
X803Y590D03*
Y559D03*
X827Y543D03*
Y512D03*
X803Y527D03*
X827Y480D03*
X803Y496D03*
Y464D03*
X827Y449D03*
Y417D03*
X803Y433D03*
X827Y386D03*
X803Y401D03*
Y370D03*
X827Y354D03*
Y323D03*
X803Y338D03*
X827Y291D03*
X803Y307D03*
Y275D03*
X827Y260D03*
Y228D03*
X803Y244D03*
X827Y197D03*
X803Y212D03*
Y181D03*
X827Y165D03*
Y134D03*
X803Y149D03*
X827Y102D03*
X803Y118D03*
Y86D03*
X827Y71D03*
Y39D03*
X803Y55D03*
X827Y8D03*
X803Y23D03*
Y-7D03*
X827Y-23D03*
Y-54D03*
X803Y-39D03*
X827Y-86D03*
X803Y-70D03*
Y-102D03*
X827Y-117D03*
Y-149D03*
X803Y-133D03*
X827Y-180D03*
X803Y-165D03*
Y-196D03*
X827Y-212D03*
Y-243D03*
X803Y-228D03*
X827Y-275D03*
X803Y-259D03*
Y-291D03*
X827Y-306D03*
Y-338D03*
X803Y-322D03*
X827Y-369D03*
X803Y-354D03*
Y-385D03*
X827Y-401D03*
Y-432D03*
X803Y-417D03*
X827Y-464D03*
X803Y-448D03*
Y-480D03*
X827Y-495D03*
Y-527D03*
X803Y-511D03*
X-370Y-409D03*
X-385Y-433D03*
X-354D03*
X-338Y-409D03*
X-307D03*
X-322Y-433D03*
X-275Y-409D03*
X-291Y-433D03*
X-259D03*
X-244Y-409D03*
X-212D03*
X-228Y-433D03*
X-181Y-409D03*
X-196Y-433D03*
X-165D03*
X-149Y-409D03*
X-118D03*
X-133Y-433D03*
X-86Y-409D03*
X-102Y-433D03*
X480Y-409D03*
X496Y-433D03*
X511Y-409D03*
X543D03*
X527Y-433D03*
X574Y-409D03*
X559Y-433D03*
X590D03*
X606Y-409D03*
X637D03*
X622Y-433D03*
X669Y-409D03*
X653Y-433D03*
X685D03*
X700Y-409D03*
X732D03*
X716Y-433D03*
X763Y-409D03*
X748Y-433D03*
X779D03*
X-370Y-456D03*
X-385Y-480D03*
X-354D03*
X-338Y-456D03*
X-307D03*
X-322Y-480D03*
X-275Y-456D03*
X-291Y-480D03*
X-259D03*
X-244Y-456D03*
X-212D03*
X-228Y-480D03*
X-181Y-456D03*
X-196Y-480D03*
X-165D03*
X-149Y-456D03*
X-118D03*
X-133Y-480D03*
X-86Y-456D03*
X-102Y-480D03*
X480Y-456D03*
X496Y-480D03*
X511Y-456D03*
X543D03*
X527Y-480D03*
X574Y-456D03*
X559Y-480D03*
X590D03*
X606Y-456D03*
X637D03*
X622Y-480D03*
X669Y-456D03*
X653Y-480D03*
X685D03*
X700Y-456D03*
X732D03*
X716Y-480D03*
X763Y-456D03*
X748Y-480D03*
X779D03*
X-370Y-503D03*
X-385Y-527D03*
X-354D03*
X-338Y-503D03*
X-307D03*
X-322Y-527D03*
X-275Y-503D03*
X-291Y-527D03*
X-259D03*
X-244Y-503D03*
X-212D03*
X-228Y-527D03*
X-181Y-503D03*
X-196Y-527D03*
X-165D03*
X-149Y-503D03*
X-118D03*
X-133Y-527D03*
X-86Y-503D03*
X-102Y-527D03*
X480Y-503D03*
X496Y-527D03*
X511Y-503D03*
X543D03*
X527Y-527D03*
X574Y-503D03*
X559Y-527D03*
X590D03*
X606Y-503D03*
X637D03*
X622Y-527D03*
X669Y-503D03*
X653Y-527D03*
X685D03*
X700Y-503D03*
X732D03*
X716Y-527D03*
X763Y-503D03*
X748Y-527D03*
X779D03*
X763Y803D03*
X779Y826D03*
X748D03*
X732Y803D03*
X700D03*
X716Y826D03*
X669Y803D03*
X685Y826D03*
X653D03*
X637Y803D03*
X606D03*
X622Y826D03*
X574Y803D03*
X590Y826D03*
X559D03*
X543Y803D03*
X511D03*
X527Y826D03*
X480Y803D03*
X496Y826D03*
X-86Y803D03*
X-102Y826D03*
X-118Y803D03*
X-149D03*
X-133Y826D03*
X-181Y803D03*
X-165Y826D03*
X-196D03*
X-212Y803D03*
X-244D03*
X-228Y826D03*
X-275Y803D03*
X-259Y826D03*
X-291D03*
X-307Y803D03*
X-338D03*
X-322Y826D03*
X-370Y803D03*
X-354Y826D03*
X-385D03*
X763Y850D03*
X779Y874D03*
X748D03*
X732Y850D03*
X700D03*
X716Y874D03*
X669Y850D03*
X685Y874D03*
X653D03*
X637Y850D03*
X606D03*
X622Y874D03*
X574Y850D03*
X590Y874D03*
X559D03*
X543Y850D03*
X511D03*
X527Y874D03*
X480Y850D03*
X496Y874D03*
X-86Y850D03*
X-102Y874D03*
X-118Y850D03*
X-149D03*
X-133Y874D03*
X-181Y850D03*
X-165Y874D03*
X-196D03*
X-212Y850D03*
X-244D03*
X-228Y874D03*
X-275Y850D03*
X-259Y874D03*
X-291D03*
X-307Y850D03*
X-338D03*
X-322Y874D03*
X-370Y850D03*
X-354Y874D03*
X-385D03*
X763Y897D03*
X779Y921D03*
X748D03*
X732Y897D03*
X700D03*
X716Y921D03*
X669Y897D03*
X685Y921D03*
X653D03*
X637Y897D03*
X606D03*
X622Y921D03*
X574Y897D03*
X590Y921D03*
X559D03*
X543Y897D03*
X511D03*
X527Y921D03*
X480Y897D03*
X496Y921D03*
X-86Y897D03*
X-102Y921D03*
X-118Y897D03*
X-149D03*
X-133Y921D03*
X-181Y897D03*
X-165Y921D03*
X-196D03*
X-212Y897D03*
X-244D03*
X-228Y921D03*
X-275Y897D03*
X-259Y921D03*
X-291D03*
X-307Y897D03*
X-338D03*
X-322Y921D03*
X-370Y897D03*
X-354Y921D03*
X-385D03*
X-1444Y-1661D03*
X165Y697D03*
X43Y1035D03*
X7Y1051D03*
X23Y996D03*
X94Y877D03*
X122Y716D03*
X102Y807D03*
X283Y984D03*
X27Y1338D03*
X212Y1334D03*
X220Y712D03*
X43Y964D03*
X212Y686D03*
X200Y807D03*
X1837Y2053D03*
X180Y-294D03*
X349Y-572D03*
X172Y-320D03*
X180Y-942D03*
X365Y-946D03*
X109Y-591D03*
X370Y-484D03*
X227Y-305D03*
X202Y-403D03*
X400Y-619D03*
X523Y-625D03*
X270Y-324D03*
X326Y-410D03*
X368Y-603D03*
X296Y-492D03*
X-55Y-716D03*
X0D03*
X175Y-712D03*
X92Y-718D03*
X-56Y-681D03*
X0D03*
X49Y-682D03*
X87Y-657D03*
X210Y-605D03*
X142Y-632D03*
X-3Y-831D03*
X-52Y-832D03*
X-531Y-790D03*
X1097Y-818D03*
X1654Y1807D03*
X349Y-643D03*
M02*