M48
;Layer_Color=9474304
;FILE_FORMAT=2:4
INCH,TZ
;TYPE=PLATED
T01F00S00C0.0157
T02F00S00C0.0402
%
T01
X31693Y29724
X31496Y30709
X32913
X30157
X28740
Y29724
X30709
X27402Y30709
X25984
X24409
X23031
X23819Y26969
X25805Y26932
X25591Y31693
X24803
X23228
X22244
X23750Y32219
X26575Y32240
X27559Y31693
X28346
X29331Y32271
X30315Y31693
X31102
Y34843
X30315
X30236Y35236
X28346Y34843
X27559
X27480Y35236
X25591Y34843
X24803
X24724Y35236
X22835Y34843
X22244
X23425Y36614
X23425Y38189
X22638Y38189
X23622Y38780
X24213Y38976
X25394Y38189
X26181Y38189
X26378Y38780
X26969Y38976
X28150Y38189
X28937Y38189
X29134Y38780
X29724Y38976
X30709Y38189
X28937Y36614
X26181
X31693
X31496Y38189
X31693Y38780
X32283Y38976
X32992Y35236
X32224Y32187
T02
X31315Y27150
Y28150
X32315
Y27150
X30315
Y28150
X29315
X28315
Y27150
X29315
M30
