G04*
G04 #@! TF.GenerationSoftware,Altium Limited,Altium Designer,24.5.2 (23)*
G04*
G04 Layer_Color=65535*
%FSLAX25Y25*%
%MOIN*%
G70*
G04*
G04 #@! TF.SameCoordinates,EE7ABEC0-FA62-49D2-8FE4-2AC88B8F3348*
G04*
G04*
G04 #@! TF.FilePolarity,Positive*
G04*
G01*
G75*
%ADD10C,0.00394*%
%ADD11C,0.00984*%
%ADD12C,0.00787*%
D10*
X328740Y379134D02*
D03*
X303150D02*
D03*
X275590D02*
D03*
X248031D02*
D03*
X226004Y365311D02*
D03*
X253909D02*
D03*
X281815D02*
D03*
X309221D02*
D03*
X245532Y304528D02*
D03*
X240811Y281157D02*
D03*
X275453Y304528D02*
D03*
X330571D02*
D03*
X303012D02*
D03*
D11*
X330118Y344587D02*
X329380Y345013D01*
Y344160D01*
X330118Y344587D01*
X301181Y345177D02*
X300443Y345603D01*
Y344751D01*
X301181Y345177D01*
X245374Y345276D02*
X244636Y345702D01*
Y344849D01*
X245374Y345276D01*
X273622Y345374D02*
X272884Y345800D01*
Y344948D01*
X273622Y345374D01*
D12*
X325768Y379134D02*
X326969D01*
X318701D02*
X319902D01*
X325768Y388583D02*
X326969D01*
X318701D02*
X319902D01*
X300177Y379134D02*
X301378D01*
X293110D02*
X294311D01*
X300177Y388583D02*
X301378D01*
X293110D02*
X294311D01*
X272618Y379134D02*
X273819D01*
X265551D02*
X266752D01*
X272618Y388583D02*
X273819D01*
X265551D02*
X266752D01*
X245059Y379134D02*
X246260D01*
X237992D02*
X239193D01*
X245059Y388583D02*
X246260D01*
X237992D02*
X239193D01*
X227382Y365114D02*
Y365311D01*
Y352319D02*
Y352516D01*
X240374Y365114D02*
Y365311D01*
Y352319D02*
Y352516D01*
X227382Y365311D02*
X229390D01*
X238366D02*
X240374D01*
X227382Y352319D02*
X229390D01*
X238366D02*
X240374D01*
X255287Y365114D02*
Y365311D01*
Y352319D02*
Y352516D01*
X268280Y365114D02*
Y365311D01*
Y352319D02*
Y352516D01*
X255287Y365311D02*
X257295D01*
X266272D02*
X268280D01*
X255287Y352319D02*
X257295D01*
X266272D02*
X268280D01*
X283193Y365114D02*
Y365311D01*
Y352319D02*
Y352516D01*
X296185Y365114D02*
Y365311D01*
Y352319D02*
Y352516D01*
X283193Y365311D02*
X285201D01*
X294177D02*
X296185D01*
X283193Y352319D02*
X285201D01*
X294177D02*
X296185D01*
X310598Y365114D02*
Y365311D01*
Y352319D02*
Y352516D01*
X323591Y365114D02*
Y365311D01*
Y352319D02*
Y352516D01*
X310598Y365311D02*
X312606D01*
X321583D02*
X323591D01*
X310598Y352319D02*
X312606D01*
X321583D02*
X323591D01*
X312894Y339370D02*
Y342028D01*
X315551D01*
X312894Y324705D02*
Y327362D01*
Y324705D02*
X315551D01*
X327559D02*
X330217D01*
Y327362D01*
Y339370D02*
Y342028D01*
X327559D02*
X330217D01*
X283957Y339961D02*
Y342618D01*
X286614D01*
X283957Y325295D02*
Y327953D01*
Y325295D02*
X286614D01*
X298622D02*
X301279D01*
Y327953D01*
Y339961D02*
Y342618D01*
X298622D02*
X301279D01*
X228150Y340059D02*
Y342717D01*
X230807D01*
X228150Y325394D02*
Y328051D01*
Y325394D02*
X230807D01*
X242815D02*
X245472D01*
Y328051D01*
Y340059D02*
Y342717D01*
X242815D02*
X245472D01*
X256398Y340158D02*
Y342815D01*
X259055D01*
X256398Y325492D02*
Y328150D01*
Y325492D02*
X259055D01*
X271063D02*
X273721D01*
Y328150D01*
Y340158D02*
Y342815D01*
X271063D02*
X273721D01*
X240329Y304698D02*
X241904D01*
X240329Y303123D02*
Y304698D01*
X240315Y297662D02*
Y299237D01*
Y297662D02*
X241890D01*
X243943Y297659D02*
X245517D01*
Y299234D01*
X252996Y267772D02*
X255575D01*
X242189D02*
X244768D01*
X252996Y281157D02*
X255575D01*
X242189D02*
X244768D01*
X255575Y267772D02*
Y268362D01*
Y280567D02*
Y281157D01*
X242189Y267772D02*
Y268362D01*
Y280567D02*
Y281157D01*
X270250Y304698D02*
X271825D01*
X270250Y303123D02*
Y304698D01*
X270237Y297662D02*
Y299237D01*
Y297662D02*
X271811D01*
X273864Y297659D02*
X275439D01*
Y299234D01*
X325368Y304698D02*
X326943D01*
X325368Y303123D02*
Y304698D01*
X325355Y297662D02*
Y299237D01*
Y297662D02*
X326929D01*
X328982Y297659D02*
X330557D01*
Y299234D01*
X297809Y304698D02*
X299384D01*
X297809Y303123D02*
Y304698D01*
X297796Y297662D02*
Y299237D01*
Y297662D02*
X299370D01*
X301423Y297659D02*
X302998D01*
Y299234D01*
X230315Y395013D02*
X229659Y395669D01*
X228347D01*
X227691Y395013D01*
Y392389D01*
X228347Y391733D01*
X229659D01*
X230315Y392389D01*
X231627Y391733D02*
X232939D01*
X232283D01*
Y395669D01*
X231627Y395013D01*
X239502Y397638D02*
Y401574D01*
X241470D01*
X242126Y400918D01*
Y399606D01*
X241470Y398950D01*
X239502D01*
X240814D02*
X242126Y397638D01*
X243438D02*
X244750D01*
X244094D01*
Y401574D01*
X243438Y400918D01*
X257218Y395013D02*
X256562Y395669D01*
X255250D01*
X254594Y395013D01*
Y392389D01*
X255250Y391733D01*
X256562D01*
X257218Y392389D01*
X261154Y391733D02*
X258530D01*
X261154Y394357D01*
Y395013D01*
X260498Y395669D01*
X259186D01*
X258530Y395013D01*
X266405Y397638D02*
Y401574D01*
X268373D01*
X269029Y400918D01*
Y399606D01*
X268373Y398950D01*
X266405D01*
X267717D02*
X269029Y397638D01*
X272965D02*
X270341D01*
X272965Y400262D01*
Y400918D01*
X272309Y401574D01*
X270997D01*
X270341Y400918D01*
X284777Y395013D02*
X284121Y395669D01*
X282809D01*
X282153Y395013D01*
Y392389D01*
X282809Y391733D01*
X284121D01*
X284777Y392389D01*
X286089Y395013D02*
X286745Y395669D01*
X288057D01*
X288713Y395013D01*
Y394357D01*
X288057Y393701D01*
X287401D01*
X288057D01*
X288713Y393045D01*
Y392389D01*
X288057Y391733D01*
X286745D01*
X286089Y392389D01*
X293964Y397638D02*
Y401574D01*
X295932D01*
X296588Y400918D01*
Y399606D01*
X295932Y398950D01*
X293964D01*
X295276D02*
X296588Y397638D01*
X297900Y400918D02*
X298556Y401574D01*
X299868D01*
X300524Y400918D01*
Y400262D01*
X299868Y399606D01*
X299212D01*
X299868D01*
X300524Y398950D01*
Y398294D01*
X299868Y397638D01*
X298556D01*
X297900Y398294D01*
X310368Y395013D02*
X309712Y395669D01*
X308400D01*
X307744Y395013D01*
Y392389D01*
X308400Y391733D01*
X309712D01*
X310368Y392389D01*
X313647Y391733D02*
Y395669D01*
X311680Y393701D01*
X314303D01*
X319555Y397638D02*
Y401574D01*
X321523D01*
X322179Y400918D01*
Y399606D01*
X321523Y398950D01*
X319555D01*
X320867D02*
X322179Y397638D01*
X325459D02*
Y401574D01*
X323491Y399606D01*
X326114D01*
X319555Y377952D02*
Y374672D01*
X320211Y374016D01*
X321523D01*
X322179Y374672D01*
Y377952D01*
X325459Y374016D02*
Y377952D01*
X323491Y375984D01*
X326114D01*
X293964Y377952D02*
Y374672D01*
X294620Y374016D01*
X295932D01*
X296588Y374672D01*
Y377952D01*
X297900Y377296D02*
X298556Y377952D01*
X299868D01*
X300524Y377296D01*
Y376640D01*
X299868Y375984D01*
X299212D01*
X299868D01*
X300524Y375328D01*
Y374672D01*
X299868Y374016D01*
X298556D01*
X297900Y374672D01*
X266405Y377952D02*
Y374672D01*
X267061Y374016D01*
X268373D01*
X269029Y374672D01*
Y377952D01*
X272965Y374016D02*
X270341D01*
X272965Y376640D01*
Y377296D01*
X272309Y377952D01*
X270997D01*
X270341Y377296D01*
X239502Y377952D02*
Y374672D01*
X240158Y374016D01*
X241470D01*
X242126Y374672D01*
Y377952D01*
X243438Y374016D02*
X244750D01*
X244094D01*
Y377952D01*
X243438Y377296D01*
X247375Y369422D02*
X246720Y370078D01*
X245408D01*
X244752Y369422D01*
Y366798D01*
X245408Y366142D01*
X246720D01*
X247375Y366798D01*
X251311Y370078D02*
X248688D01*
Y368110D01*
X249999Y368766D01*
X250655D01*
X251311Y368110D01*
Y366798D01*
X250655Y366142D01*
X249343D01*
X248688Y366798D01*
X230972Y372047D02*
Y368767D01*
X231628Y368111D01*
X232940D01*
X233596Y368767D01*
Y372047D01*
X237532D02*
X234908D01*
Y370079D01*
X236220Y370735D01*
X236876D01*
X237532Y370079D01*
Y368767D01*
X236876Y368111D01*
X235564D01*
X234908Y368767D01*
X258531Y372047D02*
Y368767D01*
X259187Y368111D01*
X260499D01*
X261155Y368767D01*
Y372047D01*
X265091D02*
X263779Y371391D01*
X262467Y370079D01*
Y368767D01*
X263123Y368111D01*
X264435D01*
X265091Y368767D01*
Y369423D01*
X264435Y370079D01*
X262467D01*
X286090Y372047D02*
Y368767D01*
X286746Y368111D01*
X288058D01*
X288714Y368767D01*
Y372047D01*
X290026D02*
X292650D01*
Y371391D01*
X290026Y368767D01*
Y368111D01*
X313649Y372047D02*
Y368767D01*
X314305Y368111D01*
X315617D01*
X316273Y368767D01*
Y372047D01*
X317585Y371391D02*
X318241Y372047D01*
X319553D01*
X320209Y371391D01*
Y370735D01*
X319553Y370079D01*
X320209Y369423D01*
Y368767D01*
X319553Y368111D01*
X318241D01*
X317585Y368767D01*
Y369423D01*
X318241Y370079D01*
X317585Y370735D01*
Y371391D01*
X318241Y370079D02*
X319553D01*
X315947Y348425D02*
Y345145D01*
X316602Y344489D01*
X317914D01*
X318570Y345145D01*
Y348425D01*
X319882Y344489D02*
X321194D01*
X320538D01*
Y348425D01*
X319882Y347769D01*
X325786Y344489D02*
X323162D01*
X325786Y347113D01*
Y347769D01*
X325130Y348425D01*
X323818D01*
X323162Y347769D01*
X287075Y348425D02*
Y345145D01*
X287731Y344489D01*
X289043D01*
X289699Y345145D01*
Y348425D01*
X291011Y344489D02*
X292322D01*
X291667D01*
Y348425D01*
X291011Y347769D01*
X294290Y344489D02*
X295602D01*
X294946D01*
Y348425D01*
X294290Y347769D01*
X232941Y348425D02*
Y345145D01*
X233597Y344489D01*
X234909D01*
X235564Y345145D01*
Y348425D01*
X236876Y345145D02*
X237532Y344489D01*
X238844D01*
X239500Y345145D01*
Y347769D01*
X238844Y348425D01*
X237532D01*
X236876Y347769D01*
Y347113D01*
X237532Y346457D01*
X239500D01*
X258860Y348425D02*
Y345145D01*
X259516Y344489D01*
X260828D01*
X261484Y345145D01*
Y348425D01*
X262796Y344489D02*
X264107D01*
X263452D01*
Y348425D01*
X262796Y347769D01*
X266075D02*
X266731Y348425D01*
X268043D01*
X268699Y347769D01*
Y345145D01*
X268043Y344489D01*
X266731D01*
X266075Y345145D01*
Y347769D01*
X263452Y286745D02*
X262796Y287401D01*
X261484D01*
X260828Y286745D01*
Y284121D01*
X261484Y283465D01*
X262796D01*
X263452Y284121D01*
X264764Y283465D02*
X266076D01*
X265420D01*
Y287401D01*
X264764Y286745D01*
X268044Y287401D02*
X270668D01*
Y286745D01*
X268044Y284121D01*
Y283465D01*
X231956Y286745D02*
X231300Y287401D01*
X229988D01*
X229332Y286745D01*
Y284121D01*
X229988Y283465D01*
X231300D01*
X231956Y284121D01*
X233268Y283465D02*
X234580D01*
X233924D01*
Y287401D01*
X233268Y286745D01*
X236548D02*
X237204Y287401D01*
X238516D01*
X239172Y286745D01*
Y286089D01*
X238516Y285433D01*
X239172Y284777D01*
Y284121D01*
X238516Y283465D01*
X237204D01*
X236548Y284121D01*
Y284777D01*
X237204Y285433D01*
X236548Y286089D01*
Y286745D01*
X237204Y285433D02*
X238516D01*
X332677Y275590D02*
X331365D01*
X332021D01*
Y272310D01*
X331365Y271654D01*
X330709D01*
X330053Y272310D01*
X333989Y271654D02*
X335301D01*
X334645D01*
Y275590D01*
X333989Y274934D01*
X225067Y316930D02*
Y320866D01*
X227034D01*
X227691Y320210D01*
Y318898D01*
X227034Y318242D01*
X225067D01*
X226379D02*
X227691Y316930D01*
X231626Y320866D02*
X230314Y320210D01*
X229002Y318898D01*
Y317586D01*
X229658Y316930D01*
X230970D01*
X231626Y317586D01*
Y318242D01*
X230970Y318898D01*
X229002D01*
X254594Y316930D02*
Y320866D01*
X256562D01*
X257218Y320210D01*
Y318898D01*
X256562Y318242D01*
X254594D01*
X255906D02*
X257218Y316930D01*
X258530Y320210D02*
X259186Y320866D01*
X260498D01*
X261154Y320210D01*
Y319554D01*
X260498Y318898D01*
X261154Y318242D01*
Y317586D01*
X260498Y316930D01*
X259186D01*
X258530Y317586D01*
Y318242D01*
X259186Y318898D01*
X258530Y319554D01*
Y320210D01*
X259186Y318898D02*
X260498D01*
X247054Y317954D02*
X246398Y317298D01*
Y315986D01*
X247054Y315331D01*
X249678D01*
X250334Y315986D01*
Y317298D01*
X249678Y317954D01*
Y319266D02*
X250334Y319922D01*
Y321234D01*
X249678Y321890D01*
X247054D01*
X246398Y321234D01*
Y319922D01*
X247054Y319266D01*
X247710D01*
X248366Y319922D01*
Y321890D01*
X246720Y305119D02*
Y309054D01*
X248688D01*
X249344Y308399D01*
Y307087D01*
X248688Y306431D01*
X246720D01*
X248032D02*
X249344Y305119D01*
X253280Y309054D02*
X250656D01*
Y307087D01*
X251968Y307743D01*
X252624D01*
X253280Y307087D01*
Y305775D01*
X252624Y305119D01*
X251312D01*
X250656Y305775D01*
X274279Y318570D02*
X273623Y317914D01*
Y316602D01*
X274279Y315947D01*
X276902D01*
X277558Y316602D01*
Y317914D01*
X276902Y318570D01*
X277558Y319882D02*
Y321194D01*
Y320538D01*
X273623D01*
X274279Y319882D01*
Y323162D02*
X273623Y323818D01*
Y325130D01*
X274279Y325786D01*
X276902D01*
X277558Y325130D01*
Y323818D01*
X276902Y323162D01*
X274279D01*
X276248Y305119D02*
Y309054D01*
X278216D01*
X278872Y308399D01*
Y307087D01*
X278216Y306431D01*
X276248D01*
X277560D02*
X278872Y305119D01*
X280184Y309054D02*
X282807D01*
Y308399D01*
X280184Y305775D01*
Y305119D01*
X302465Y318769D02*
X301809Y318113D01*
Y316801D01*
X302465Y316145D01*
X305088D01*
X305745Y316801D01*
Y318113D01*
X305088Y318769D01*
X305745Y320081D02*
Y321393D01*
Y320737D01*
X301809D01*
X302465Y320081D01*
X305745Y323361D02*
Y324673D01*
Y324017D01*
X301809D01*
X302465Y323361D01*
X279497Y316386D02*
Y320322D01*
X281465D01*
X282121Y319666D01*
Y318354D01*
X281465Y317698D01*
X279497D01*
X280809D02*
X282121Y316386D01*
X283433D02*
X284745D01*
X284089D01*
Y320322D01*
X283433Y319666D01*
X286713D02*
X287369Y320322D01*
X288681D01*
X289336Y319666D01*
Y317042D01*
X288681Y316386D01*
X287369D01*
X286713Y317042D01*
Y319666D01*
X303807Y305119D02*
Y309054D01*
X305775D01*
X306431Y308399D01*
Y307087D01*
X305775Y306431D01*
X303807D01*
X305119D02*
X306431Y305119D01*
X307743Y305775D02*
X308399Y305119D01*
X309710D01*
X310366Y305775D01*
Y308399D01*
X309710Y309054D01*
X308399D01*
X307743Y308399D01*
Y307743D01*
X308399Y307087D01*
X310366D01*
X334318Y320210D02*
X333662Y320866D01*
X332350D01*
X331695Y320210D01*
Y317586D01*
X332350Y316930D01*
X333662D01*
X334318Y317586D01*
X335630Y316930D02*
X336942D01*
X336286D01*
Y320866D01*
X335630Y320210D01*
X341534Y316930D02*
X338910D01*
X341534Y319554D01*
Y320210D01*
X340878Y320866D01*
X339566D01*
X338910Y320210D01*
X332350Y303150D02*
Y307086D01*
X334318D01*
X334974Y306430D01*
Y305118D01*
X334318Y304462D01*
X332350D01*
X333662D02*
X334974Y303150D01*
X336286D02*
X337598D01*
X336942D01*
Y307086D01*
X336286Y306430D01*
X339566Y303150D02*
X340878D01*
X340222D01*
Y307086D01*
X339566Y306430D01*
X307529Y315914D02*
Y319849D01*
X309497D01*
X310153Y319193D01*
Y317881D01*
X309497Y317225D01*
X307529D01*
X308841D02*
X310153Y315914D01*
X311465D02*
X312777D01*
X312121D01*
Y319849D01*
X311465Y319193D01*
X317368Y315914D02*
X314745D01*
X317368Y318537D01*
Y319193D01*
X316712Y319849D01*
X315401D01*
X314745Y319193D01*
X308728Y302493D02*
X308072Y303149D01*
X306760D01*
X306104Y302493D01*
Y299869D01*
X306760Y299213D01*
X308072D01*
X308728Y299869D01*
X310040Y299213D02*
X311352D01*
X310696D01*
Y303149D01*
X310040Y302493D01*
X315943Y303149D02*
X314631Y302493D01*
X313319Y301181D01*
Y299869D01*
X313975Y299213D01*
X315287D01*
X315943Y299869D01*
Y300525D01*
X315287Y301181D01*
X313319D01*
X281169Y302493D02*
X280513Y303149D01*
X279201D01*
X278545Y302493D01*
Y299869D01*
X279201Y299213D01*
X280513D01*
X281169Y299869D01*
X282481Y299213D02*
X283792D01*
X283137D01*
Y303149D01*
X282481Y302493D01*
X288384Y303149D02*
X285760D01*
Y301181D01*
X287072Y301837D01*
X287728D01*
X288384Y301181D01*
Y299869D01*
X287728Y299213D01*
X286416D01*
X285760Y299869D01*
X253610Y302493D02*
X252954Y303149D01*
X251642D01*
X250986Y302493D01*
Y299869D01*
X251642Y299213D01*
X252954D01*
X253610Y299869D01*
X254922Y299213D02*
X256234D01*
X255577D01*
Y303149D01*
X254922Y302493D01*
X260169Y299213D02*
Y303149D01*
X258201Y301181D01*
X260825D01*
X224082Y302493D02*
X223426Y303149D01*
X222114D01*
X221458Y302493D01*
Y299869D01*
X222114Y299213D01*
X223426D01*
X224082Y299869D01*
X225394Y299213D02*
X226706D01*
X226050D01*
Y303149D01*
X225394Y302493D01*
X228674D02*
X229330Y303149D01*
X230642D01*
X231298Y302493D01*
Y301837D01*
X230642Y301181D01*
X229986D01*
X230642D01*
X231298Y300525D01*
Y299869D01*
X230642Y299213D01*
X229330D01*
X228674Y299869D01*
X237206Y295275D02*
Y291995D01*
X237862Y291339D01*
X239174D01*
X239830Y291995D01*
Y295275D01*
X241142Y291339D02*
X242454D01*
X241798D01*
Y295275D01*
X241142Y294619D01*
X244422D02*
X245078Y295275D01*
X246390D01*
X247046Y294619D01*
Y293963D01*
X246390Y293307D01*
X245734D01*
X246390D01*
X247046Y292651D01*
Y291995D01*
X246390Y291339D01*
X245078D01*
X244422Y291995D01*
X245080Y287401D02*
Y284121D01*
X245736Y283465D01*
X247048D01*
X247704Y284121D01*
Y287401D01*
X249016Y283465D02*
X250328D01*
X249672D01*
Y287401D01*
X249016Y286745D01*
X252296Y287401D02*
X254920D01*
Y286745D01*
X252296Y284121D01*
Y283465D01*
X266734Y295275D02*
Y291995D01*
X267390Y291339D01*
X268702D01*
X269358Y291995D01*
Y295275D01*
X270670Y291339D02*
X271982D01*
X271326D01*
Y295275D01*
X270670Y294619D01*
X275917Y291339D02*
Y295275D01*
X273949Y293307D01*
X276573D01*
X321852Y295275D02*
Y291995D01*
X322508Y291339D01*
X323820D01*
X324476Y291995D01*
Y295275D01*
X325788Y291339D02*
X327100D01*
X326444D01*
Y295275D01*
X325788Y294619D01*
X331691Y295275D02*
X330379Y294619D01*
X329067Y293307D01*
Y291995D01*
X329724Y291339D01*
X331035D01*
X331691Y291995D01*
Y292651D01*
X331035Y293307D01*
X329067D01*
X294293Y295275D02*
Y291995D01*
X294949Y291339D01*
X296261D01*
X296917Y291995D01*
Y295275D01*
X298229Y291339D02*
X299541D01*
X298885D01*
Y295275D01*
X298229Y294619D01*
X304132Y295275D02*
X301508D01*
Y293307D01*
X302820Y293963D01*
X303476D01*
X304132Y293307D01*
Y291995D01*
X303476Y291339D01*
X302164D01*
X301508Y291995D01*
X330188Y369895D02*
X329532Y370551D01*
X328221D01*
X327565Y369895D01*
Y367271D01*
X328221Y366615D01*
X329532D01*
X330188Y367271D01*
X331500Y369895D02*
X332156Y370551D01*
X333468D01*
X334124Y369895D01*
Y369239D01*
X333468Y368583D01*
X334124Y367927D01*
Y367271D01*
X333468Y366615D01*
X332156D01*
X331500Y367271D01*
Y367927D01*
X332156Y368583D01*
X331500Y369239D01*
Y369895D01*
X332156Y368583D02*
X333468D01*
X302688Y369895D02*
X302032Y370551D01*
X300721D01*
X300065Y369895D01*
Y367271D01*
X300721Y366615D01*
X302032D01*
X302688Y367271D01*
X304000Y370551D02*
X306624D01*
Y369895D01*
X304000Y367271D01*
Y366615D01*
X275088Y369895D02*
X274432Y370551D01*
X273120D01*
X272465Y369895D01*
Y367271D01*
X273120Y366615D01*
X274432D01*
X275088Y367271D01*
X279024Y370551D02*
X277712Y369895D01*
X276400Y368583D01*
Y367271D01*
X277056Y366615D01*
X278368D01*
X279024Y367271D01*
Y367927D01*
X278368Y368583D01*
X276400D01*
M02*
