G04*
G04 #@! TF.GenerationSoftware,Altium Limited,Altium Designer,24.5.2 (23)*
G04*
G04 Layer_Color=32896*
%FSLAX25Y25*%
%MOIN*%
G70*
G04*
G04 #@! TF.SameCoordinates,EE7ABEC0-FA62-49D2-8FE4-2AC88B8F3348*
G04*
G04*
G04 #@! TF.FilePolarity,Positive*
G04*
G01*
G75*
%ADD12C,0.00787*%
D12*
X270866Y294901D02*
X268242D01*
X269554D01*
Y290966D01*
X264963D02*
X266274D01*
X266930Y291622D01*
Y292934D01*
X266274Y293589D01*
X264963D01*
X264307Y292934D01*
Y292278D01*
X266930D01*
X262995Y290966D02*
Y293589D01*
X262339D01*
X261683Y292934D01*
Y290966D01*
Y292934D01*
X261027Y293589D01*
X260371Y292934D01*
Y290966D01*
X259059Y289654D02*
Y293589D01*
X257091D01*
X256435Y292934D01*
Y291622D01*
X257091Y290966D01*
X259059D01*
X248564Y294246D02*
X249220Y294901D01*
X250532D01*
X251187Y294246D01*
Y293589D01*
X250532Y292934D01*
X249220D01*
X248564Y292278D01*
Y291622D01*
X249220Y290966D01*
X250532D01*
X251187Y291622D01*
X245284Y290966D02*
X246596D01*
X247252Y291622D01*
Y292934D01*
X246596Y293589D01*
X245284D01*
X244628Y292934D01*
Y292278D01*
X247252D01*
X243316Y290966D02*
Y293589D01*
X241348D01*
X240692Y292934D01*
Y290966D01*
X239380D02*
X237412D01*
X236756Y291622D01*
X237412Y292278D01*
X238724D01*
X239380Y292934D01*
X238724Y293589D01*
X236756D01*
X234788Y290966D02*
X233477D01*
X232821Y291622D01*
Y292934D01*
X233477Y293589D01*
X234788D01*
X235444Y292934D01*
Y291622D01*
X234788Y290966D01*
X231509Y293589D02*
Y290966D01*
Y292278D01*
X230853Y292934D01*
X230197Y293589D01*
X229541D01*
X227573Y290966D02*
X225605D01*
X224949Y291622D01*
X225605Y292278D01*
X226917D01*
X227573Y292934D01*
X226917Y293589D01*
X224949D01*
X270866Y286977D02*
X268242D01*
X269554D01*
Y283041D01*
X264963D02*
X266274D01*
X266930Y283697D01*
Y285009D01*
X266274Y285665D01*
X264963D01*
X264307Y285009D01*
Y284353D01*
X266930D01*
X262995Y283041D02*
X261027D01*
X260371Y283697D01*
X261027Y284353D01*
X262339D01*
X262995Y285009D01*
X262339Y285665D01*
X260371D01*
X258403Y286321D02*
Y285665D01*
X259059D01*
X257747D01*
X258403D01*
Y283697D01*
X257747Y283041D01*
X255779Y286977D02*
Y283041D01*
X253811D01*
X253155Y283697D01*
Y284353D01*
Y285009D01*
X253811Y285665D01*
X255779D01*
X251187Y283041D02*
X249875D01*
X249220Y283697D01*
Y285009D01*
X249875Y285665D01*
X251187D01*
X251843Y285009D01*
Y283697D01*
X251187Y283041D01*
X247252Y285665D02*
X245940D01*
X245284Y285009D01*
Y283041D01*
X247252D01*
X247908Y283697D01*
X247252Y284353D01*
X245284D01*
X243972Y285665D02*
Y283041D01*
Y284353D01*
X243316Y285009D01*
X242660Y285665D01*
X242004D01*
X237412Y286977D02*
Y283041D01*
X239380D01*
X240036Y283697D01*
Y285009D01*
X239380Y285665D01*
X237412D01*
X270866Y276429D02*
Y280364D01*
X269554Y279052D01*
X268242Y280364D01*
Y276429D01*
X266274Y279052D02*
X264963D01*
X264307Y278396D01*
Y276429D01*
X266274D01*
X266930Y277084D01*
X266274Y277740D01*
X264307D01*
X262995Y276429D02*
X261683D01*
X262339D01*
Y280364D01*
X262995D01*
X259059Y279708D02*
Y279052D01*
X259715D01*
X258403D01*
X259059D01*
Y277084D01*
X258403Y276429D01*
X254467D02*
X255779D01*
X256435Y277084D01*
Y278396D01*
X255779Y279052D01*
X254467D01*
X253811Y278396D01*
Y277740D01*
X256435D01*
X248564Y276429D02*
Y280364D01*
X245940Y276429D01*
Y280364D01*
X244628Y276429D02*
X243316D01*
X243972D01*
Y279052D01*
X244628D01*
X241348Y276429D02*
X240036D01*
X240692D01*
Y280364D01*
X241348D01*
X236756Y275117D02*
X236101D01*
X235444Y275773D01*
Y279052D01*
X237412D01*
X238068Y278396D01*
Y277084D01*
X237412Y276429D01*
X235444D01*
X232165D02*
X233477D01*
X234133Y277084D01*
Y278396D01*
X233477Y279052D01*
X232165D01*
X231509Y278396D01*
Y277740D01*
X234133D01*
X230197Y276429D02*
X228229D01*
X227573Y277084D01*
X228229Y277740D01*
X229541D01*
X230197Y278396D01*
X229541Y279052D01*
X227573D01*
X270866Y272440D02*
X269554D01*
X270210D01*
Y268504D01*
X270866D01*
X269554D01*
X264963Y272440D02*
X267586D01*
Y268504D01*
X264963D01*
X267586Y270472D02*
X266274D01*
X261027Y271784D02*
X261683Y272440D01*
X262995D01*
X263651Y271784D01*
Y271128D01*
X262995Y270472D01*
X261683D01*
X261027Y269816D01*
Y269160D01*
X261683Y268504D01*
X262995D01*
X263651Y269160D01*
X253155Y268504D02*
X255779D01*
X253155Y271128D01*
Y271784D01*
X253811Y272440D01*
X255123D01*
X255779Y271784D01*
X251843D02*
X251187Y272440D01*
X249875D01*
X249220Y271784D01*
Y269160D01*
X249875Y268504D01*
X251187D01*
X251843Y269160D01*
Y271784D01*
X245284Y268504D02*
X247908D01*
X245284Y271128D01*
Y271784D01*
X245940Y272440D01*
X247252D01*
X247908Y271784D01*
X242004Y268504D02*
Y272440D01*
X243972Y270472D01*
X241348D01*
X337795Y386613D02*
X335172D01*
X336483D01*
Y382677D01*
X333859D02*
Y386613D01*
X332548Y385301D01*
X331236Y386613D01*
Y382677D01*
X329924D02*
Y386613D01*
X327956D01*
X327300Y385957D01*
Y384645D01*
X327956Y383989D01*
X329924D01*
X325988Y382677D02*
X324676D01*
X325332D01*
Y386613D01*
X325988Y385957D01*
X322708Y382677D02*
X321396D01*
X322052D01*
Y386613D01*
X322708Y385957D01*
X319428Y386613D02*
X316805D01*
Y385957D01*
X319428Y383333D01*
Y382677D01*
X335172Y360366D02*
X335827Y361022D01*
X337139D01*
X337795Y360366D01*
Y359710D01*
X337139Y359054D01*
X335827D01*
X335172Y358399D01*
Y357743D01*
X335827Y357087D01*
X337139D01*
X337795Y357743D01*
X333859Y357087D02*
X332548D01*
X333204D01*
Y359710D01*
X333859D01*
X330580Y361022D02*
X327956D01*
Y360366D01*
X330580Y357743D01*
Y357087D01*
X326644Y360366D02*
X325988Y361022D01*
X324676D01*
X324020Y360366D01*
Y357743D01*
X324676Y357087D01*
X325988D01*
X326644Y357743D01*
Y360366D01*
X320085Y361022D02*
X322708D01*
Y359054D01*
X321396Y359710D01*
X320740D01*
X320085Y359054D01*
Y357743D01*
X320740Y357087D01*
X322052D01*
X322708Y357743D01*
X318773Y357087D02*
X317461D01*
X318117D01*
Y361022D01*
X318773Y360366D01*
X337795Y331496D02*
Y334120D01*
X336483Y335432D01*
X335172Y334120D01*
Y331496D01*
Y333464D01*
X337795D01*
X333859Y335432D02*
Y331496D01*
X331892D01*
X331236Y332152D01*
Y334776D01*
X331892Y335432D01*
X333859D01*
X329924D02*
X327300D01*
X328612D01*
Y331496D01*
X325988Y335432D02*
X323364D01*
Y334776D01*
X325988Y332152D01*
Y331496D01*
X320085D02*
Y335432D01*
X322052Y333464D01*
X319428D01*
X315493Y331496D02*
X318117D01*
X315493Y334120D01*
Y334776D01*
X316149Y335432D01*
X317461D01*
X318117Y334776D01*
X311557Y331496D02*
X314181D01*
X311557Y334120D01*
Y334776D01*
X312213Y335432D01*
X313525D01*
X314181Y334776D01*
X337795Y300000D02*
Y302624D01*
X336483Y303936D01*
X335172Y302624D01*
Y300000D01*
Y301968D01*
X337795D01*
X331236Y303280D02*
X331892Y303936D01*
X333204D01*
X333859Y303280D01*
Y302624D01*
X333204Y301968D01*
X331892D01*
X331236Y301312D01*
Y300656D01*
X331892Y300000D01*
X333204D01*
X333859Y300656D01*
X327300Y303936D02*
X328612Y303280D01*
X329924Y301968D01*
Y300656D01*
X329268Y300000D01*
X327956D01*
X327300Y300656D01*
Y301312D01*
X327956Y301968D01*
X329924D01*
X323364Y300000D02*
X325988D01*
X323364Y302624D01*
Y303280D01*
X324020Y303936D01*
X325332D01*
X325988Y303280D01*
X319428Y300000D02*
X322052D01*
X319428Y302624D01*
Y303280D01*
X320085Y303936D01*
X321396D01*
X322052Y303280D01*
X318117Y300000D02*
X316805D01*
X317461D01*
Y303936D01*
X318117Y303280D01*
M02*
