G04*
G04 #@! TF.GenerationSoftware,Altium Limited,Altium Designer,24.5.2 (23)*
G04*
G04 Layer_Color=16711935*
%FSLAX25Y25*%
%MOIN*%
G70*
G04*
G04 #@! TF.SameCoordinates,EE7ABEC0-FA62-49D2-8FE4-2AC88B8F3348*
G04*
G04*
G04 #@! TF.FilePolarity,Negative*
G04*
G01*
G75*
%ADD42R,0.06693X0.06693*%
%ADD43C,0.06693*%
%ADD44C,0.02756*%
D42*
X323150Y281496D02*
D03*
D43*
X313150D02*
D03*
X303150D02*
D03*
X293150D02*
D03*
X283150D02*
D03*
X323150Y271496D02*
D03*
X313150D02*
D03*
X303150D02*
D03*
X293150D02*
D03*
X283150D02*
D03*
D44*
X258045Y269315D02*
D03*
X234252Y381890D02*
D03*
X236221Y387795D02*
D03*
X261811Y381890D02*
D03*
X263779Y387795D02*
D03*
X289370Y381890D02*
D03*
X291339Y387795D02*
D03*
X316929D02*
D03*
X314961Y381890D02*
D03*
X248031Y316929D02*
D03*
X238189Y269685D02*
D03*
X314961Y307087D02*
D03*
X287402D02*
D03*
X259842D02*
D03*
X230315D02*
D03*
X311024Y316929D02*
D03*
X303150D02*
D03*
X283465D02*
D03*
X275590D02*
D03*
X255906D02*
D03*
X232283D02*
D03*
X222441D02*
D03*
X311024Y348425D02*
D03*
X303150D02*
D03*
X283465D02*
D03*
X275590D02*
D03*
X255906D02*
D03*
X274803Y352362D02*
D03*
X248031Y348425D02*
D03*
X222441D02*
D03*
X228346D02*
D03*
X287402Y297244D02*
D03*
X307087D02*
D03*
X316929D02*
D03*
X329134Y307087D02*
D03*
X274016D02*
D03*
X301575D02*
D03*
X244094D02*
D03*
X237498Y322188D02*
D03*
X265746Y322403D02*
D03*
X322242Y321870D02*
D03*
X293305Y322709D02*
D03*
X329921Y352362D02*
D03*
X316929Y366142D02*
D03*
X302362Y352362D02*
D03*
X289370Y366142D02*
D03*
X261811D02*
D03*
X234252D02*
D03*
X247244Y352362D02*
D03*
X322835Y389764D02*
D03*
X297244D02*
D03*
X269685D02*
D03*
X242126D02*
D03*
X307087Y381890D02*
D03*
X281496D02*
D03*
X253937D02*
D03*
X226378D02*
D03*
M02*
