G04*
G04 #@! TF.GenerationSoftware,Altium Limited,Altium Designer,24.5.2 (23)*
G04*
G04 Layer_Color=128*
%FSLAX25Y25*%
%MOIN*%
G70*
G04*
G04 #@! TF.SameCoordinates,EE7ABEC0-FA62-49D2-8FE4-2AC88B8F3348*
G04*
G04*
G04 #@! TF.FilePolarity,Positive*
G04*
G01*
G75*
%ADD51C,0.00500*%
D51*
X321142Y281496D02*
X325157D01*
X323150Y279488D02*
Y283504D01*
X311142Y281496D02*
X315158D01*
X313150Y279488D02*
Y283504D01*
X301142Y281496D02*
X305157D01*
X303150Y279488D02*
Y283504D01*
X291142Y281496D02*
X295158D01*
X293150Y279488D02*
Y283504D01*
X281142Y281496D02*
X285157D01*
X283150Y279488D02*
Y283504D01*
X321142Y271496D02*
X325157D01*
X323150Y269488D02*
Y273504D01*
X311142Y271496D02*
X315158D01*
X313150Y269488D02*
Y273504D01*
X301142Y271496D02*
X305157D01*
X303150Y269488D02*
Y273504D01*
X291142Y271496D02*
X295158D01*
X293150Y269488D02*
Y273504D01*
X281142Y271496D02*
X285157D01*
X283150Y269488D02*
Y273504D01*
X257258Y269315D02*
X258833D01*
X258045Y268528D02*
Y270103D01*
X233465Y381890D02*
X235039D01*
X234252Y381102D02*
Y382677D01*
X235433Y387795D02*
X237008D01*
X236221Y387008D02*
Y388583D01*
X261024Y381890D02*
X262598D01*
X261811Y381102D02*
Y382677D01*
X262992Y387795D02*
X264567D01*
X263779Y387008D02*
Y388583D01*
X288583Y381890D02*
X290158D01*
X289370Y381102D02*
Y382677D01*
X290551Y387795D02*
X292126D01*
X291339Y387008D02*
Y388583D01*
X316142Y387795D02*
X317717D01*
X316929Y387008D02*
Y388583D01*
X314173Y381890D02*
X315748D01*
X314961Y381102D02*
Y382677D01*
X247244Y316929D02*
X248819D01*
X248031Y316142D02*
Y317717D01*
X237402Y269685D02*
X238976D01*
X238189Y268898D02*
Y270472D01*
X314173Y307087D02*
X315748D01*
X314961Y306299D02*
Y307874D01*
X286614Y307087D02*
X288189D01*
X287402Y306299D02*
Y307874D01*
X259055Y307087D02*
X260630D01*
X259842Y306299D02*
Y307874D01*
X229528Y307087D02*
X231102D01*
X230315Y306299D02*
Y307874D01*
X310236Y316929D02*
X311811D01*
X311024Y316142D02*
Y317717D01*
X302362Y316929D02*
X303937D01*
X303150Y316142D02*
Y317717D01*
X282677Y316929D02*
X284252D01*
X283465Y316142D02*
Y317717D01*
X274803Y316929D02*
X276378D01*
X275590Y316142D02*
Y317717D01*
X255118Y316929D02*
X256693D01*
X255906Y316142D02*
Y317717D01*
X231496Y316929D02*
X233071D01*
X232283Y316142D02*
Y317717D01*
X221654Y316929D02*
X223228D01*
X222441Y316142D02*
Y317717D01*
X310236Y348425D02*
X311811D01*
X311024Y347638D02*
Y349213D01*
X302362Y348425D02*
X303937D01*
X303150Y347638D02*
Y349213D01*
X282677Y348425D02*
X284252D01*
X283465Y347638D02*
Y349213D01*
X274803Y348425D02*
X276378D01*
X275590Y347638D02*
Y349213D01*
X255118Y348425D02*
X256693D01*
X255906Y347638D02*
Y349213D01*
X274016Y352362D02*
X275590D01*
X274803Y351575D02*
Y353150D01*
X247244Y348425D02*
X248819D01*
X248031Y347638D02*
Y349213D01*
X221654Y348425D02*
X223228D01*
X222441Y347638D02*
Y349213D01*
X227559Y348425D02*
X229134D01*
X228346Y347638D02*
Y349213D01*
X286614Y297244D02*
X288189D01*
X287402Y296457D02*
Y298031D01*
X306299Y297244D02*
X307874D01*
X307087Y296457D02*
Y298031D01*
X316142Y297244D02*
X317717D01*
X316929Y296457D02*
Y298031D01*
X328346Y307087D02*
X329921D01*
X329134Y306299D02*
Y307874D01*
X273228Y307087D02*
X274803D01*
X274016Y306299D02*
Y307874D01*
X300787Y307087D02*
X302362D01*
X301575Y306299D02*
Y307874D01*
X243307Y307087D02*
X244882D01*
X244094Y306299D02*
Y307874D01*
X236710Y322188D02*
X238285D01*
X237498Y321400D02*
Y322975D01*
X264959Y322403D02*
X266533D01*
X265746Y321616D02*
Y323191D01*
X321455Y321870D02*
X323029D01*
X322242Y321083D02*
Y322657D01*
X292518Y322709D02*
X294092D01*
X293305Y321921D02*
Y323496D01*
X329134Y352362D02*
X330709D01*
X329921Y351575D02*
Y353150D01*
X316142Y366142D02*
X317717D01*
X316929Y365354D02*
Y366929D01*
X301575Y352362D02*
X303150D01*
X302362Y351575D02*
Y353150D01*
X288583Y366142D02*
X290158D01*
X289370Y365354D02*
Y366929D01*
X261024Y366142D02*
X262598D01*
X261811Y365354D02*
Y366929D01*
X233465Y366142D02*
X235039D01*
X234252Y365354D02*
Y366929D01*
X246457Y352362D02*
X248031D01*
X247244Y351575D02*
Y353150D01*
X322047Y389764D02*
X323622D01*
X322835Y388976D02*
Y390551D01*
X296457Y389764D02*
X298031D01*
X297244Y388976D02*
Y390551D01*
X268898Y389764D02*
X270472D01*
X269685Y388976D02*
Y390551D01*
X241339Y389764D02*
X242913D01*
X242126Y388976D02*
Y390551D01*
X306299Y381890D02*
X307874D01*
X307087Y381102D02*
Y382677D01*
X280709Y381890D02*
X282283D01*
X281496Y381102D02*
Y382677D01*
X253150Y381890D02*
X254724D01*
X253937Y381102D02*
Y382677D01*
X225591Y381890D02*
X227165D01*
X226378Y381102D02*
Y382677D01*
M02*
