G04*
G04 #@! TF.GenerationSoftware,Altium Limited,Altium Designer,24.5.2 (23)*
G04*
G04 Layer_Physical_Order=1*
G04 Layer_Color=255*
%FSLAX25Y25*%
%MOIN*%
G70*
G04*
G04 #@! TF.SameCoordinates,EE7ABEC0-FA62-49D2-8FE4-2AC88B8F3348*
G04*
G04*
G04 #@! TF.FilePolarity,Positive*
G04*
G01*
G75*
%ADD12C,0.00787*%
%ADD13R,0.03937X0.03937*%
%ADD14R,0.02756X0.03543*%
%ADD15R,0.02756X0.01181*%
%ADD16R,0.03504X0.06299*%
%ADD17R,0.03150X0.01575*%
%ADD18R,0.05906X0.09843*%
%ADD19R,0.10236X0.10236*%
%ADD20O,0.03347X0.01181*%
%ADD21O,0.01181X0.03347*%
%ADD22R,0.05709X0.05118*%
%ADD23R,0.03937X0.03937*%
%ADD24R,0.02835X0.02677*%
%ADD25C,0.00787*%
%ADD26R,0.05866X0.09449*%
%ADD27R,0.03543X0.01378*%
%ADD45C,0.01181*%
%ADD46C,0.02953*%
%ADD47C,0.00600*%
%ADD48R,0.06299X0.06299*%
%ADD49C,0.06299*%
%ADD50C,0.02362*%
D12*
X234252Y381890D02*
X234678D01*
X235269Y381299D01*
X236221Y387618D02*
Y387795D01*
X237421Y386417D02*
X238209D01*
X236221Y387618D02*
X237421Y386417D01*
X235269Y381299D02*
X237421D01*
X261811Y381890D02*
X262237D01*
X262828Y381299D01*
X263779Y387618D02*
Y387795D01*
X264980Y386417D02*
X265768D01*
X263779Y387618D02*
X264980Y386417D01*
X262828Y381299D02*
X264980D01*
X289370Y381890D02*
X289796D01*
X290387Y381299D01*
X291339Y387618D02*
Y387795D01*
X292539Y386417D02*
X293327D01*
X291339Y387618D02*
X292539Y386417D01*
X290387Y381299D02*
X292539D01*
X318130D02*
X318917D01*
X315977D02*
X318130D01*
X316929Y387618D02*
X318130Y386417D01*
X318917D01*
X316929Y387618D02*
Y387795D01*
X315387Y381890D02*
X315977Y381299D01*
X314961Y381890D02*
X315387D01*
X322835Y383858D02*
X326752D01*
X297244D02*
X301161D01*
X269685D02*
X273602D01*
X242126D02*
X246043D01*
X242421Y344488D02*
X250606D01*
X247605Y316929D02*
X248031D01*
X250606Y303756D02*
Y344488D01*
X246457Y299606D02*
X250606Y303756D01*
X243130Y317713D02*
X246822D01*
X247605Y316929D01*
X238764Y306988D02*
Y307706D01*
X235197Y303898D02*
X235673D01*
X242472Y311414D02*
Y311808D01*
X238764Y307706D02*
X242472Y311414D01*
X235673Y303898D02*
X238764Y306988D01*
X234252Y302953D02*
X235197Y303898D01*
X263779Y303071D02*
X264803Y304095D01*
X265201D02*
X269472Y308366D01*
X263779Y302953D02*
Y303071D01*
X269472Y310824D02*
X270457Y311808D01*
X269472Y308366D02*
Y310824D01*
X264803Y304095D02*
X265201D01*
X292760Y303898D02*
X294979Y306117D01*
X292284Y303898D02*
X292760D01*
X291339Y302953D02*
X292284Y303898D01*
X297816Y311414D02*
Y311808D01*
X294979Y308577D02*
X297816Y311414D01*
X294979Y306117D02*
Y308577D01*
X320319Y303701D02*
X325401Y308782D01*
Y311808D01*
X319843Y303701D02*
X320319D01*
X318898Y302756D02*
X319843Y303701D01*
X325394Y319547D02*
X327091Y317850D01*
X325401Y316160D02*
X327087Y317846D01*
X325401Y311808D02*
Y316160D01*
X316330Y311808D02*
X325401D01*
X311325Y316628D02*
X311904D01*
X311024Y316929D02*
X311325Y316628D01*
X316330Y311808D02*
Y312202D01*
X311904Y316628D02*
X316330Y312202D01*
X301425Y318653D02*
X303150Y316929D01*
X298437Y318653D02*
X301425D01*
X305724Y301787D02*
Y344208D01*
X297816Y318033D02*
X298437Y318653D01*
X297816Y311808D02*
Y318033D01*
X288689Y311808D02*
X297816D01*
X284263Y316628D02*
X288689Y312202D01*
X283766Y316628D02*
X284263D01*
X288689Y311808D02*
Y312202D01*
X283465Y316929D02*
X283766Y316628D01*
X274673Y317846D02*
X275590Y316929D01*
X270878Y317846D02*
X274673D01*
X270457Y317425D02*
X270878Y317846D01*
X270457Y311808D02*
Y317425D01*
X261130Y311808D02*
X270457D01*
X256704Y316628D02*
X261130Y312202D01*
X256207Y316628D02*
X256704D01*
X261130Y311808D02*
Y312202D01*
X255906Y316929D02*
X256207Y316628D01*
X242472Y317055D02*
X243130Y317713D01*
X242472Y311808D02*
Y317055D01*
X233390Y311808D02*
X242472D01*
X232283Y314567D02*
Y316929D01*
X232405Y312792D02*
X233390Y311808D01*
X232405Y312792D02*
Y314445D01*
X232283Y314567D02*
X232405Y314445D01*
X225740Y311808D02*
Y344747D01*
X273276Y358815D02*
Y359602D01*
X274803Y361130D01*
X269685Y348425D02*
X275590D01*
X255906D02*
X269685D01*
X272464Y358268D02*
X272728D01*
X271075Y356878D02*
X272464Y358268D01*
X269685Y348425D02*
X271075Y349815D01*
X272728Y358268D02*
X273276Y358815D01*
X271075Y349815D02*
Y356878D01*
X300835Y358815D02*
Y359602D01*
X302362Y361130D01*
X297244Y348425D02*
X303150D01*
X283465D02*
X297244D01*
X298634Y349815D01*
Y356878D02*
X300024Y358268D01*
X298634Y349815D02*
Y356878D01*
X300024Y358268D02*
X300287D01*
X300835Y358815D01*
X328394D02*
X330709Y361130D01*
X322764Y358815D02*
X328130D01*
X325962Y356647D02*
X328130Y358815D01*
X328394D01*
X325962Y350046D02*
Y356647D01*
X324342Y348425D02*
X325962Y350046D01*
X311024Y348425D02*
X324342D01*
X333283Y301787D02*
Y343843D01*
X325855D02*
X333283D01*
Y349917D01*
X325394Y340945D02*
Y343382D01*
X325855Y343843D01*
X333283Y352083D02*
Y366429D01*
Y349917D02*
Y352083D01*
X308457Y307685D02*
Y343601D01*
Y360571D01*
X321508Y343601D02*
X322759Y342350D01*
X308457Y343601D02*
X321508D01*
X297622Y344208D02*
X305724D01*
X296532Y343118D02*
X297622Y344208D01*
X305724D02*
Y351886D01*
X281051Y344255D02*
X292507D01*
X293822Y342940D01*
X281051Y344255D02*
Y360571D01*
Y311808D02*
Y344255D01*
Y307685D02*
Y311808D01*
X293822Y341611D02*
X293898Y341535D01*
X293822Y341611D02*
Y342940D01*
X296532Y341611D02*
Y343118D01*
X296457Y341535D02*
X296532Y341611D01*
X305724Y351886D02*
X305724Y351886D01*
X278165Y344542D02*
Y369478D01*
X269359Y344542D02*
X278165D01*
X268898Y341732D02*
Y344081D01*
X269359Y344542D01*
X278165Y301787D02*
Y344542D01*
X274803Y352362D02*
Y355405D01*
X274803Y355405D01*
X253146Y344525D02*
Y360571D01*
X264876Y344525D02*
X266263Y343137D01*
X253146Y344525D02*
X264876D01*
X253146Y307685D02*
Y344525D01*
X238189Y348425D02*
X248031D01*
X228346D02*
X238189D01*
X242682Y352918D01*
X240650Y342717D02*
X242421Y344488D01*
X250606D02*
Y369652D01*
X225740Y305756D02*
Y311808D01*
Y344747D02*
X236060D01*
X238091Y342717D01*
X225740Y344747D02*
Y359973D01*
X245717Y358815D02*
X248031Y361130D01*
X239547Y358815D02*
X245453D01*
X242682Y356044D02*
X245453Y358815D01*
X245717D01*
X242682Y352918D02*
Y356044D01*
X238091Y341634D02*
Y342717D01*
X262886Y397638D02*
X290445D01*
X266429Y393701D02*
Y394094D01*
X262886Y397638D02*
X266429Y394094D01*
X242807Y397638D02*
X262886D01*
X290445D02*
X315248D01*
X293988Y393701D02*
Y394094D01*
X290445Y397638D02*
X293988Y394094D01*
X319579Y393701D02*
Y394094D01*
Y393307D02*
Y393701D01*
X318595Y395079D02*
X319579Y394094D01*
X317807Y395079D02*
X318595D01*
X315248Y397638D02*
X317807Y395079D01*
X238870Y394094D02*
X239854Y395079D01*
X238870Y393701D02*
Y394094D01*
X239854Y395079D02*
X240248D01*
X242807Y397638D01*
X289130Y298973D02*
Y299606D01*
X287402Y297244D02*
X289130Y298973D01*
X286646Y293307D02*
X311339D01*
X307087Y297244D02*
Y300425D01*
X305724Y301787D02*
X307087Y300425D01*
X333283Y281630D02*
Y301787D01*
X323150Y271496D02*
X333283Y281630D01*
X316816Y297357D02*
Y299325D01*
X260917Y386720D02*
X263742Y383896D01*
X265730D01*
X265768Y383858D01*
X257874Y386720D02*
X260917D01*
X311339Y293307D02*
X323150Y281496D01*
X303307Y291339D02*
X313150Y281496D01*
X269492Y291339D02*
X303307D01*
X278165Y301787D02*
X286646Y293307D01*
X261224Y299606D02*
X269492Y291339D01*
X295276Y289370D02*
X303150Y281496D01*
X244094Y287402D02*
X287244D01*
X293150Y281496D01*
X250606Y303756D02*
X264992Y289370D01*
X295276D01*
X231890Y299606D02*
X244094Y287402D01*
X253146Y307685D02*
X261224Y299606D01*
X331102D02*
X333283Y301787D01*
X303543Y299606D02*
X305724Y301787D01*
X275984Y299606D02*
X278165Y301787D01*
X225740Y305756D02*
X231890Y299606D01*
X281051Y307685D02*
X289130Y299606D01*
X225740Y359973D02*
X226264Y360496D01*
X227747D01*
X228209Y360957D01*
Y362752D01*
X308457Y307685D02*
X316535Y299606D01*
X322759Y341020D02*
Y342350D01*
X308457Y360571D02*
X310638Y362752D01*
X322759Y341020D02*
X322835Y340945D01*
X310638Y362752D02*
X311425D01*
X325980Y373732D02*
X333283Y366429D01*
X281051Y360571D02*
X283232Y362752D01*
X284020D01*
X300390Y374640D02*
X305724Y369305D01*
Y351886D02*
Y369305D01*
X272831Y374813D02*
X278165Y369478D01*
X266263Y341808D02*
X266339Y341732D01*
X266263Y341808D02*
Y343137D01*
X253146Y360571D02*
X255327Y362752D01*
X256114D01*
X245272Y374986D02*
X250606Y369652D01*
X240650Y341634D02*
Y342717D01*
X228209Y358815D02*
X233878D01*
X256114D02*
X261784D01*
X284020D02*
X289689D01*
X311425D02*
X317094D01*
X329921Y352362D02*
Y355405D01*
X329921Y355405D01*
X316929Y359189D02*
Y366142D01*
X302362Y352362D02*
Y355405D01*
X302362Y355405D01*
X289370Y359189D02*
Y366142D01*
X261811Y359189D02*
Y366142D01*
X234252Y359189D02*
Y366142D01*
X233878Y358815D02*
X234252Y359189D01*
X247244Y355405D02*
X247244Y355405D01*
X247244Y352362D02*
Y355405D01*
X321650Y321277D02*
X322835Y322463D01*
X321650Y317567D02*
Y321277D01*
X322835Y322463D02*
Y325787D01*
X293898Y323301D02*
Y326378D01*
X292713Y322116D02*
X293898Y323301D01*
X265154Y321811D02*
X266339Y322996D01*
Y326575D01*
X240650Y325394D02*
Y326476D01*
Y325394D02*
X243130Y322913D01*
X238091Y325310D02*
Y326476D01*
X237405Y324625D02*
X238091Y325310D01*
X317717Y337205D02*
Y340945D01*
X320276Y334646D02*
Y340945D01*
X325394Y337205D02*
X329134D01*
X321555Y333366D02*
X322835Y334646D01*
X329134D01*
X322835D02*
X325394Y337205D01*
X322835Y332087D02*
X329134D01*
X325394Y329528D02*
X329134D01*
X322835Y332087D02*
X325394Y329528D01*
X322835Y325787D02*
Y332087D01*
X321555Y333366D02*
X322835Y332087D01*
X313976Y329528D02*
X317717D01*
X320276Y332087D02*
X321555Y333366D01*
X313976Y332087D02*
X320276D01*
X317717Y329528D02*
X320276Y332087D01*
X313976Y334646D02*
X320276D01*
X313976Y337205D02*
X317717D01*
X320276Y334646D01*
X321555Y333366D01*
X288779Y337795D02*
Y341535D01*
X291339Y335236D02*
Y341535D01*
X296457Y337795D02*
X300197D01*
X292618Y333957D02*
X293898Y335236D01*
X300197D01*
X293898D02*
X296457Y337795D01*
X293898Y332677D02*
X300197D01*
X296457Y330118D02*
X300197D01*
X293898Y332677D02*
X296457Y330118D01*
X293898Y326378D02*
Y332677D01*
X292618Y333957D02*
X293898Y332677D01*
X285039Y330118D02*
X288779D01*
X291339Y332677D02*
X292618Y333957D01*
X285039Y332677D02*
X291339D01*
X288779Y330118D02*
X291339Y332677D01*
X285039Y335236D02*
X291339D01*
X285039Y337795D02*
X288779D01*
X291339Y335236D01*
X292618Y333957D01*
X261221Y337992D02*
Y341732D01*
X263779Y335433D02*
Y341732D01*
X268898Y337992D02*
X272638D01*
X265059Y334154D02*
X266339Y335433D01*
X272638D01*
X266339D02*
X268898Y337992D01*
X266339Y332874D02*
X272638D01*
X268898Y330315D02*
X272638D01*
X266339Y332874D02*
X268898Y330315D01*
X266339Y326575D02*
Y332874D01*
X265059Y334154D02*
X266339Y332874D01*
X257480Y330315D02*
X261221D01*
X263779Y332874D02*
X265059Y334154D01*
X257480Y332874D02*
X263779D01*
X261221Y330315D02*
X263779Y332874D01*
X257480Y335433D02*
X263779D01*
X257480Y337992D02*
X261221D01*
X263779Y335433D01*
X265059Y334154D01*
X235531Y335335D02*
X236811Y334055D01*
X232972Y337894D02*
X235531Y335335D01*
X229232Y337894D02*
X232972D01*
X229232Y335335D02*
X235531D01*
X232972Y330217D02*
X235531Y332776D01*
X229232D02*
X235531D01*
X236811Y334055D01*
X229232Y330217D02*
X232972D01*
X236811Y334055D02*
X238091Y332776D01*
Y326476D02*
Y332776D01*
X240650Y330217D01*
X244390D01*
X238091Y332776D02*
X244390D01*
X238091Y335335D02*
X240650Y337894D01*
X238091Y335335D02*
X244390D01*
X236811Y334055D02*
X238091Y335335D01*
X240650Y337894D02*
X244390D01*
X235531Y335335D02*
Y341634D01*
X232972Y337894D02*
Y341634D01*
X295358Y358815D02*
X300835D01*
X267453D02*
X273276D01*
X325980Y373732D02*
Y381102D01*
X326177Y381299D01*
X326752D01*
X322764Y362752D02*
Y370516D01*
X325980Y373732D01*
X311425Y374594D02*
X318130Y381299D01*
X311425Y362752D02*
Y374594D01*
X295358Y369608D02*
X300390Y374640D01*
Y381102D01*
X295358Y362752D02*
Y369608D01*
X300390Y381102D02*
X300587Y381299D01*
X301161D01*
X284020Y372780D02*
X292539Y381299D01*
X293327D01*
X284020Y362752D02*
Y372780D01*
X267453Y369435D02*
X272831Y374813D01*
Y381102D01*
X273028Y381299D01*
X267453Y362752D02*
Y369435D01*
X273028Y381299D02*
X273602D01*
X256114Y362752D02*
Y372433D01*
X264980Y381299D01*
X265768D01*
X245272Y374986D02*
Y381102D01*
X245468Y381299D01*
X246043D01*
X239547Y362752D02*
Y369262D01*
X245272Y374986D01*
X228209Y372087D02*
X237421Y381299D01*
X228209Y362752D02*
Y372087D01*
X237421Y381299D02*
X238209D01*
X322835Y383858D02*
Y389764D01*
X322835Y389764D01*
X297244Y383858D02*
Y389764D01*
X297244Y389764D01*
X269685Y383858D02*
Y389764D01*
X269685Y389764D01*
X242126Y389764D02*
X242126Y389764D01*
X242126Y383858D02*
Y389764D01*
X307087Y381890D02*
X310130D01*
X311024Y380996D01*
X281496Y381890D02*
X284539D01*
X285433Y380996D01*
X253937Y381890D02*
X256980D01*
X257874Y380996D01*
X229421Y381890D02*
X230315Y380996D01*
X226378Y381890D02*
X229421D01*
X265154Y317846D02*
Y321811D01*
X237405Y317713D02*
Y324625D01*
X325394Y319547D02*
Y325787D01*
X245382Y386614D02*
Y393701D01*
Y386614D02*
X245579Y386417D01*
X246043D01*
X273138D02*
X273602D01*
X272941Y386614D02*
Y393701D01*
Y386614D02*
X273138Y386417D01*
X300697D02*
X301161D01*
X300500Y386614D02*
Y393701D01*
Y386614D02*
X300697Y386417D01*
X326091Y386614D02*
Y393701D01*
Y386614D02*
X326287Y386417D01*
X326752D01*
X316626Y392323D02*
X318595D01*
X319579Y393307D01*
X311024Y386720D02*
X316626Y392323D01*
X316839Y384055D02*
X318721D01*
X311024Y386720D02*
X314173D01*
X316839Y384055D01*
X318721D02*
X318917Y383858D01*
X291248Y384055D02*
X293130D01*
X293327Y383858D01*
X285433Y386720D02*
X288583D01*
X291248Y384055D01*
X293988Y393307D02*
Y393701D01*
X285433Y386720D02*
X291035Y392323D01*
X293004D01*
X293988Y393307D01*
X263476Y392323D02*
X265445D01*
X266429Y393307D01*
Y393701D01*
X257874Y386720D02*
X263476Y392323D01*
X237886D02*
X238870Y393307D01*
Y393701D01*
X235917Y392323D02*
X237886D01*
X230315Y386720D02*
X235917Y392323D01*
X233465Y386720D02*
X236130Y384055D01*
X238012D02*
X238209Y383858D01*
X230315Y386720D02*
X233465D01*
X236130Y384055D02*
X238012D01*
X243130Y317713D02*
Y322913D01*
X268898Y319827D02*
Y326575D01*
Y319827D02*
X270878Y317846D01*
X292713Y318653D02*
Y322116D01*
X296457Y320634D02*
Y326378D01*
Y320634D02*
X298437Y318653D01*
D13*
X230315Y380996D02*
D03*
Y386720D02*
D03*
X257874Y380996D02*
D03*
Y386720D02*
D03*
X285433Y380996D02*
D03*
Y386720D02*
D03*
X311024Y380996D02*
D03*
Y386720D02*
D03*
X247244Y355405D02*
D03*
Y361130D02*
D03*
X329921Y355405D02*
D03*
Y361130D02*
D03*
X302362Y355405D02*
D03*
Y361130D02*
D03*
X274803Y355405D02*
D03*
Y361130D02*
D03*
D14*
X245382Y393701D02*
D03*
X238870D02*
D03*
X272941D02*
D03*
X266429D02*
D03*
X300500D02*
D03*
X293988D02*
D03*
X326091D02*
D03*
X319579D02*
D03*
X233390Y311808D02*
D03*
X226878D02*
D03*
X261130D02*
D03*
X254618D02*
D03*
X242472D02*
D03*
X248984D02*
D03*
X270457D02*
D03*
X276968D02*
D03*
X288689D02*
D03*
X282177D02*
D03*
X297816D02*
D03*
X304328D02*
D03*
X325401D02*
D03*
X331912D02*
D03*
X316330D02*
D03*
X309818D02*
D03*
D15*
X326752Y381299D02*
D03*
Y383858D02*
D03*
Y386417D02*
D03*
X318917Y381299D02*
D03*
Y383858D02*
D03*
Y386417D02*
D03*
X301161Y381299D02*
D03*
Y383858D02*
D03*
Y386417D02*
D03*
X293327Y381299D02*
D03*
Y383858D02*
D03*
Y386417D02*
D03*
X273602Y381299D02*
D03*
Y383858D02*
D03*
Y386417D02*
D03*
X265768Y381299D02*
D03*
Y383858D02*
D03*
Y386417D02*
D03*
X246043Y381299D02*
D03*
Y383858D02*
D03*
Y386417D02*
D03*
X238209Y381299D02*
D03*
Y383858D02*
D03*
Y386417D02*
D03*
D16*
X322835Y383858D02*
D03*
X297244D02*
D03*
X269685D02*
D03*
X242126D02*
D03*
D17*
X228209Y362752D02*
D03*
Y358815D02*
D03*
Y354878D02*
D03*
X239547Y362752D02*
D03*
Y358815D02*
D03*
Y354878D02*
D03*
X256114Y362752D02*
D03*
Y358815D02*
D03*
Y354878D02*
D03*
X267453Y362752D02*
D03*
Y358815D02*
D03*
Y354878D02*
D03*
X284020Y362752D02*
D03*
Y358815D02*
D03*
Y354878D02*
D03*
X295358Y362752D02*
D03*
Y358815D02*
D03*
Y354878D02*
D03*
X311425Y362752D02*
D03*
Y358815D02*
D03*
Y354878D02*
D03*
X322764Y362752D02*
D03*
Y358815D02*
D03*
Y354878D02*
D03*
D18*
X233878Y358815D02*
D03*
X261784D02*
D03*
X289689D02*
D03*
X317094D02*
D03*
D19*
X321555Y333366D02*
D03*
X292618Y333957D02*
D03*
X236811Y334055D02*
D03*
X265059Y334154D02*
D03*
D20*
X329134Y337205D02*
D03*
Y334646D02*
D03*
Y332087D02*
D03*
Y329528D02*
D03*
X313976D02*
D03*
Y332087D02*
D03*
Y334646D02*
D03*
Y337205D02*
D03*
X300197Y337795D02*
D03*
Y335236D02*
D03*
Y332677D02*
D03*
Y330118D02*
D03*
X285039D02*
D03*
Y332677D02*
D03*
Y335236D02*
D03*
Y337795D02*
D03*
X244390Y337894D02*
D03*
Y335335D02*
D03*
Y332776D02*
D03*
Y330217D02*
D03*
X229232D02*
D03*
Y332776D02*
D03*
Y335335D02*
D03*
Y337894D02*
D03*
X272638Y337992D02*
D03*
Y335433D02*
D03*
Y332874D02*
D03*
Y330315D02*
D03*
X257480D02*
D03*
Y332874D02*
D03*
Y335433D02*
D03*
Y337992D02*
D03*
D21*
X325394Y325787D02*
D03*
X322835D02*
D03*
X320276D02*
D03*
X317717D02*
D03*
Y340945D02*
D03*
X320276D02*
D03*
X322835D02*
D03*
X325394D02*
D03*
X296457Y326378D02*
D03*
X293898D02*
D03*
X291339D02*
D03*
X288779D02*
D03*
Y341535D02*
D03*
X291339D02*
D03*
X293898D02*
D03*
X296457D02*
D03*
X240650Y326476D02*
D03*
X238091D02*
D03*
X235531D02*
D03*
X232972D02*
D03*
Y341634D02*
D03*
X235531D02*
D03*
X238091D02*
D03*
X240650D02*
D03*
X268898Y326575D02*
D03*
X266339D02*
D03*
X263779D02*
D03*
X261221D02*
D03*
Y341732D02*
D03*
X263779D02*
D03*
X266339D02*
D03*
X268898D02*
D03*
D22*
X264882Y278114D02*
D03*
Y270815D02*
D03*
X233882Y278114D02*
D03*
Y270815D02*
D03*
D23*
X237405Y317713D02*
D03*
X243130D02*
D03*
X265154Y317846D02*
D03*
X270878D02*
D03*
X292713Y318653D02*
D03*
X298437D02*
D03*
X321362Y317846D02*
D03*
X327087D02*
D03*
D24*
X318898Y302756D02*
D03*
Y306299D02*
D03*
X291339Y302953D02*
D03*
Y306496D02*
D03*
X263779Y303150D02*
D03*
Y306693D02*
D03*
X234252Y302953D02*
D03*
Y306496D02*
D03*
D25*
X242126Y299606D02*
D03*
Y301181D02*
D03*
Y302756D02*
D03*
X243701Y299606D02*
D03*
Y301181D02*
D03*
Y302756D02*
D03*
X272047Y299606D02*
D03*
Y301181D02*
D03*
Y302756D02*
D03*
X273622Y299606D02*
D03*
Y301181D02*
D03*
Y302756D02*
D03*
X327165Y299606D02*
D03*
Y301181D02*
D03*
Y302756D02*
D03*
X328740Y299606D02*
D03*
Y301181D02*
D03*
Y302756D02*
D03*
X299606Y299606D02*
D03*
Y301181D02*
D03*
Y302756D02*
D03*
X301181Y299606D02*
D03*
Y301181D02*
D03*
Y302756D02*
D03*
D26*
X248882Y274465D02*
D03*
D27*
X254374Y270626D02*
D03*
Y273185D02*
D03*
Y275744D02*
D03*
Y278303D02*
D03*
X243390Y270626D02*
D03*
Y273185D02*
D03*
Y275744D02*
D03*
Y278303D02*
D03*
D45*
X235012Y269685D02*
X238189D01*
X233882Y270815D02*
X235012Y269685D01*
X315280Y307087D02*
X316068Y306299D01*
X318898D01*
X314961Y307087D02*
X315280D01*
X287402D02*
X287992Y306496D01*
X291339D01*
X259842Y307087D02*
X260162D01*
X260556Y306693D02*
X263779D01*
X260162Y307087D02*
X260556Y306693D01*
X230315Y307087D02*
X230906Y306496D01*
X234252D01*
X239132Y278114D02*
X239321Y278303D01*
X233882Y278114D02*
X239132D01*
X239321Y278303D02*
X243390D01*
X265563Y271496D02*
X283150D01*
X264882Y270815D02*
X265563Y271496D01*
X264693Y270626D02*
X264882Y270815D01*
X254374Y270626D02*
X264693D01*
X260264Y278114D02*
X264882D01*
X255646D02*
X260264D01*
X259842Y276436D02*
Y277693D01*
X254374Y275744D02*
X259151D01*
X259842Y276436D01*
Y277693D02*
X260264Y278114D01*
X255457Y278303D02*
X255646Y278114D01*
X254374Y278303D02*
X255457D01*
X279572Y278114D02*
X282954Y281496D01*
X283150D01*
X264882Y278114D02*
X279572D01*
D46*
X222441Y348425D02*
Y384991D01*
Y316929D02*
Y348425D01*
Y289555D02*
Y316929D01*
Y384991D02*
X224171Y386720D01*
X230315D01*
X232504Y279197D02*
X233587Y278114D01*
X232504Y279197D02*
Y279492D01*
X222441Y289555D02*
X232504Y279492D01*
X233587Y278114D02*
X233882D01*
D47*
X316816Y297357D02*
X316929Y297244D01*
X316535Y299606D02*
X316816Y299325D01*
X329134Y306610D02*
Y307087D01*
X328740Y302756D02*
Y306216D01*
X329134Y306610D01*
X328740Y301181D02*
Y302756D01*
X243701Y299606D02*
X246457D01*
X261224D02*
X272047D01*
X328740D02*
X331102D01*
X301181D02*
X303543D01*
X273622D02*
X275984D01*
X273622Y302756D02*
Y306216D01*
X274016Y306610D01*
Y307087D01*
X289130Y299606D02*
X299606D01*
X316535D02*
X327165D01*
X231890D02*
X242126D01*
X318898Y302756D02*
X327165D01*
X301575Y306610D02*
Y307087D01*
X301181Y302756D02*
Y306216D01*
X301575Y306610D01*
X243701Y306216D02*
X244094Y306610D01*
X243701Y302756D02*
Y306216D01*
X244094Y306610D02*
Y307087D01*
X243701Y301181D02*
Y302756D01*
X242126Y301181D02*
Y302756D01*
X273622Y301181D02*
Y302756D01*
X272047Y301181D02*
Y302756D01*
X299606Y301181D02*
Y302756D01*
X301181Y301181D02*
Y302756D01*
X327165Y301181D02*
Y302756D01*
X318898Y302756D02*
X318898Y302756D01*
X291535D02*
X299606D01*
X291339Y302953D02*
X291535Y302756D01*
X263779Y302953D02*
X263976Y302756D01*
X272047D01*
X234449D02*
X242126D01*
X234252Y302953D02*
X234449Y302756D01*
D48*
X323150Y281496D02*
D03*
D49*
X313150D02*
D03*
X303150D02*
D03*
X293150D02*
D03*
X283150D02*
D03*
X323150Y271496D02*
D03*
X313150D02*
D03*
X303150D02*
D03*
X293150D02*
D03*
X283150D02*
D03*
D50*
X258045Y269315D02*
D03*
X234252Y381890D02*
D03*
X236221Y387795D02*
D03*
X261811Y381890D02*
D03*
X263779Y387795D02*
D03*
X289370Y381890D02*
D03*
X291339Y387795D02*
D03*
X316929D02*
D03*
X314961Y381890D02*
D03*
X248031Y316929D02*
D03*
X238189Y269685D02*
D03*
X314961Y307087D02*
D03*
X287402D02*
D03*
X259842D02*
D03*
X230315D02*
D03*
X311024Y316929D02*
D03*
X303150D02*
D03*
X283465D02*
D03*
X275590D02*
D03*
X255906D02*
D03*
X232283D02*
D03*
X222441D02*
D03*
X311024Y348425D02*
D03*
X303150D02*
D03*
X283465D02*
D03*
X275590D02*
D03*
X255906D02*
D03*
X274803Y352362D02*
D03*
X248031Y348425D02*
D03*
X222441D02*
D03*
X228346D02*
D03*
X287402Y297244D02*
D03*
X307087D02*
D03*
X316929D02*
D03*
X329134Y307087D02*
D03*
X274016D02*
D03*
X301575D02*
D03*
X244094D02*
D03*
X237498Y322188D02*
D03*
X265746Y322403D02*
D03*
X322242Y321870D02*
D03*
X293305Y322709D02*
D03*
X329921Y352362D02*
D03*
X316929Y366142D02*
D03*
X302362Y352362D02*
D03*
X289370Y366142D02*
D03*
X261811D02*
D03*
X234252D02*
D03*
X247244Y352362D02*
D03*
X322835Y389764D02*
D03*
X297244D02*
D03*
X269685D02*
D03*
X242126D02*
D03*
X307087Y381890D02*
D03*
X281496D02*
D03*
X253937D02*
D03*
X226378D02*
D03*
M02*
