%TF.GenerationSoftware,Altium Limited,Altium Designer,23.9.2 (47)*%
G04 Layer_Color=255*
%FSLAX45Y45*%
%MOMM*%
%TF.SameCoordinates,9F32D3C1-515D-4E76-A5FB-46C0C9FD6927*%
%TF.FilePolarity,Positive*%
%TF.FileFunction,Pads,Top*%
%TF.Part,Single*%
G01*
G75*
%TA.AperFunction,SMDPad,CuDef*%
%ADD10R,1.45000X1.30000*%
%ADD11R,1.00000X1.00000*%
%ADD12R,1.00000X1.00000*%
%ADD13R,0.72000X0.68000*%
%ADD14R,0.70000X0.90000*%
%ADD15R,0.90000X0.70000*%
%ADD16R,0.30000X0.70000*%
%ADD17R,1.60000X0.89000*%
%ADD18R,1.49000X2.40000*%
%ADD19R,0.90000X0.35000*%
%TA.AperFunction,BGAPad,CuDef*%
%ADD20C,0.20000*%
%TA.AperFunction,SMDPad,CuDef*%
%ADD21R,2.60000X2.60000*%
%ADD22O,0.85000X0.30000*%
%ADD23O,0.30000X0.85000*%
%ADD24R,0.40000X0.80000*%
%ADD25R,2.50000X1.50000*%
G04:AMPARAMS|DCode=26|XSize=22mm|YSize=22mm|CornerRadius=0.22mm|HoleSize=0mm|Usage=FLASHONLY|Rotation=90.000|XOffset=0mm|YOffset=0mm|HoleType=Round|Shape=RoundedRectangle|*
%AMROUNDEDRECTD26*
21,1,22.00000,21.56000,0,0,90.0*
21,1,21.56000,22.00000,0,0,90.0*
1,1,0.44000,10.78000,10.78000*
1,1,0.44000,10.78000,-10.78000*
1,1,0.44000,-10.78000,-10.78000*
1,1,0.44000,-10.78000,10.78000*
%
%ADD26ROUNDEDRECTD26*%
%TA.AperFunction,ComponentPad*%
%ADD34C,7.80000*%
%TA.AperFunction,SMDPad,CuDef*%
%AMCUSTOMSHAPE35*
4,1,11,-0.15000,-1.00000,-0.15000,0.90000,-0.05000,1.00000,-0.05000,1.00000,0.05000,1.00000,0.15000,0.90000,0.15000,0.37500,0.05000,0.27500,0.05000,-0.37500,0.15000,-0.47500,0.15000,-1.00000,-0.15000,-1.00000,0.0*%
%ADD35CUSTOMSHAPE35*%

%AMCUSTOMSHAPE36*
4,1,12,-0.15000,-0.32500,-0.15000,0.22500,-0.05000,0.32500,-0.05000,1.00000,0.05000,1.00000,0.05000,0.32500,0.15000,0.22500,0.15000,-0.32500,0.05000,-0.42500,0.05000,-1.00000,-0.05000,-1.00000,-0.05000,-0.42500,-0.15000,-0.32500,0.0*%
%ADD36CUSTOMSHAPE36*%

%AMCUSTOMSHAPE37*
4,1,14,-0.15000,-1.00000,-0.15000,-0.47500,-0.05000,-0.37500,-0.05000,0.27500,-0.15000,0.37500,-0.15000,0.90000,-0.05000,1.00000,0.05000,1.00000,0.15000,0.90000,0.15000,0.37500,0.05000,0.27500,0.05000,-0.37500,0.15000,-0.47500,0.15000,-1.00000,-0.15000,-1.00000,0.0*%
%ADD37CUSTOMSHAPE37*%

%AMCUSTOMSHAPE38*
4,1,12,-0.15000,-1.00000,-0.15000,-0.47500,-0.05000,-0.37500,-0.05000,-0.37500,-0.05000,0.27500,-0.15000,0.37500,-0.15000,0.37500,-0.15000,0.90000,-0.05000,1.00000,0.05000,1.00000,0.15000,0.90000,0.15000,-1.00000,-0.15000,-1.00000,0.0*%
%ADD38CUSTOMSHAPE38*%

%TA.AperFunction,ConnectorPad*%
%AMCUSTOMSHAPE39*
4,1,11,0.15000,1.00000,0.15000,-0.90000,0.05000,-1.00000,0.05000,-1.00000,-0.05000,-1.00000,-0.15000,-0.90000,-0.15000,-0.37500,-0.05000,-0.27500,-0.05000,0.37500,-0.15000,0.47500,-0.15000,1.00000,0.15000,1.00000,0.0*%
%ADD39CUSTOMSHAPE39*%

%AMCUSTOMSHAPE40*
4,1,12,0.15000,0.32500,0.15000,-0.22500,0.05000,-0.32500,0.05000,-1.00000,-0.05000,-1.00000,-0.05000,-0.32500,-0.15000,-0.22500,-0.15000,0.32500,-0.05000,0.42500,-0.05000,1.00000,0.05000,1.00000,0.05000,0.42500,0.15000,0.32500,0.0*%
%ADD40CUSTOMSHAPE40*%

%AMCUSTOMSHAPE41*
4,1,14,0.15000,1.00000,0.15000,0.47500,0.05000,0.37500,0.05000,-0.27500,0.15000,-0.37500,0.15000,-0.90000,0.05000,-1.00000,-0.05000,-1.00000,-0.15000,-0.90000,-0.15000,-0.37500,-0.05000,-0.27500,-0.05000,0.37500,-0.15000,0.47500,-0.15000,1.00000,0.15000,1.00000,0.0*%
%ADD41CUSTOMSHAPE41*%

%AMCUSTOMSHAPE42*
4,1,12,0.15000,1.00000,0.15000,0.47500,0.05000,0.37500,0.05000,0.37500,0.05000,-0.27500,0.15000,-0.37500,0.15000,-0.37500,0.15000,-0.90000,0.05000,-1.00000,-0.05000,-1.00000,-0.15000,-0.90000,-0.15000,1.00000,0.15000,1.00000,0.0*%
%ADD42CUSTOMSHAPE42*%

D10*
X-162458Y-2710965D02*
D03*
Y-2896365D02*
D03*
X557542Y-2710965D02*
D03*
Y-2896365D02*
D03*
X-560000Y2707300D02*
D03*
Y2892700D02*
D03*
X160000Y2707300D02*
D03*
Y2892700D02*
D03*
D11*
X402500Y-1647700D02*
D03*
Y-1502300D02*
D03*
X-152458Y-1929064D02*
D03*
Y-1783664D02*
D03*
X150000Y1925400D02*
D03*
Y1780000D02*
D03*
D12*
X-1865400Y-2420000D02*
D03*
X-1720000D02*
D03*
X-307300Y1650000D02*
D03*
X-452700D02*
D03*
D13*
X17542Y-1438665D02*
D03*
Y-1348665D02*
D03*
X-20000Y1435000D02*
D03*
Y1345000D02*
D03*
D14*
X300000Y-2190000D02*
D03*
X134600D02*
D03*
X-15158Y-1653664D02*
D03*
X150242D02*
D03*
X-152700Y1650000D02*
D03*
X12700D02*
D03*
D15*
X757542Y-2306364D02*
D03*
Y-2140964D02*
D03*
X587542D02*
D03*
Y-2306364D02*
D03*
X-322458Y-1936364D02*
D03*
Y-1770964D02*
D03*
X-482458Y-1768264D02*
D03*
Y-1933664D02*
D03*
X480000Y1930000D02*
D03*
Y1764600D02*
D03*
X320000Y1767300D02*
D03*
Y1932700D02*
D03*
X-590000Y2302700D02*
D03*
Y2137300D02*
D03*
X-760000D02*
D03*
Y2302700D02*
D03*
D16*
X465000Y-1165500D02*
D03*
X400000D02*
D03*
X335000D02*
D03*
X465000Y-1364500D02*
D03*
X400000D02*
D03*
X335000D02*
D03*
D17*
X400000Y-1265000D02*
D03*
D18*
X197542Y-2803664D02*
D03*
X-200000Y2800000D02*
D03*
D19*
X337042Y-2901165D02*
D03*
Y-2836165D02*
D03*
Y-2771165D02*
D03*
Y-2706165D02*
D03*
X58042Y-2901165D02*
D03*
Y-2836165D02*
D03*
Y-2771165D02*
D03*
Y-2706165D02*
D03*
X-339500Y2897500D02*
D03*
Y2832500D02*
D03*
Y2767500D02*
D03*
Y2702500D02*
D03*
X-60500Y2897500D02*
D03*
Y2832500D02*
D03*
Y2767500D02*
D03*
Y2702500D02*
D03*
D20*
X97542Y-1223664D02*
D03*
X57542D02*
D03*
X17542D02*
D03*
X97542Y-1183664D02*
D03*
X57542D02*
D03*
X17542D02*
D03*
X-100000Y1220000D02*
D03*
X-60000D02*
D03*
X-20000D02*
D03*
X-100000Y1180000D02*
D03*
X-60000D02*
D03*
X-20000D02*
D03*
D21*
X-342458Y-1433664D02*
D03*
X340000Y1430000D02*
D03*
D22*
X-149958Y-1336164D02*
D03*
Y-1401164D02*
D03*
Y-1466164D02*
D03*
Y-1531164D02*
D03*
X-534958D02*
D03*
Y-1466164D02*
D03*
Y-1401164D02*
D03*
Y-1336164D02*
D03*
X147500Y1332500D02*
D03*
Y1397500D02*
D03*
Y1462500D02*
D03*
Y1527500D02*
D03*
X532500D02*
D03*
Y1462500D02*
D03*
Y1397500D02*
D03*
Y1332500D02*
D03*
D23*
X-244958Y-1626164D02*
D03*
X-309958D02*
D03*
X-374958D02*
D03*
X-439958D02*
D03*
Y-1241164D02*
D03*
X-374958D02*
D03*
X-309958D02*
D03*
X-244958D02*
D03*
X242500Y1622500D02*
D03*
X307500D02*
D03*
X372500D02*
D03*
X437500D02*
D03*
Y1237500D02*
D03*
X372500D02*
D03*
X307500D02*
D03*
X242500D02*
D03*
D24*
X-1622500Y-1979500D02*
D03*
X-1722500D02*
D03*
X-1822500D02*
D03*
X-1622500Y-2267500D02*
D03*
X-1722500D02*
D03*
X-1822500D02*
D03*
X-500000Y1186000D02*
D03*
X-400000D02*
D03*
X-300000D02*
D03*
X-500000Y1474000D02*
D03*
X-400000D02*
D03*
X-300000D02*
D03*
D25*
X-1722500Y-2123500D02*
D03*
X-400000Y1330000D02*
D03*
D26*
X0Y0D02*
D03*
D34*
X-2800000Y2000000D02*
D03*
X2800000Y-2000000D02*
D03*
Y-3600000D02*
D03*
X400000D02*
D03*
X-400000D02*
D03*
X-2000000D02*
D03*
X-1200000D02*
D03*
X2000000D02*
D03*
X1200000D02*
D03*
X2800000Y3600000D02*
D03*
X400000D02*
D03*
X-400000D02*
D03*
X-2000000D02*
D03*
X-1200000D02*
D03*
X2000000D02*
D03*
X1200000D02*
D03*
X-2800000D02*
D03*
X2800000Y2800000D02*
D03*
Y400000D02*
D03*
Y-400000D02*
D03*
Y-1200000D02*
D03*
Y2000000D02*
D03*
Y1200000D02*
D03*
X-2800000Y-3599999D02*
D03*
Y-2799999D02*
D03*
Y-2000000D02*
D03*
Y-1200000D02*
D03*
Y-400000D02*
D03*
Y400000D02*
D03*
Y1200000D02*
D03*
D35*
X3765000Y4885000D02*
D03*
D36*
X3795000D02*
D03*
X3855000D02*
D03*
X3915000D02*
D03*
X3975000D02*
D03*
X4035000D02*
D03*
X4095000D02*
D03*
X4155000D02*
D03*
D37*
X3825000D02*
D03*
X3885000D02*
D03*
X3945000D02*
D03*
X4005000D02*
D03*
X4065000D02*
D03*
X4125000D02*
D03*
D38*
X4185000D02*
D03*
D39*
X-3765000Y-4885000D02*
D03*
D40*
X-3795000D02*
D03*
X-3855000D02*
D03*
X-3915000D02*
D03*
X-3975000D02*
D03*
X-4035000D02*
D03*
X-4095000D02*
D03*
X-4155000D02*
D03*
D41*
X-3825000D02*
D03*
X-3885000D02*
D03*
X-3945000D02*
D03*
X-4005000D02*
D03*
X-4065000D02*
D03*
X-4125000D02*
D03*
D42*
X-4185000D02*
D03*
%TF.MD5,acb182c7ca5019f59e84ce96e5fc07cd*%
M02*
