%TF.GenerationSoftware,Altium Limited,Altium Designer,23.9.2 (47)*%
G04 Layer_Color=32896*
%FSLAX25Y25*%
%MOIN*%
%TF.SameCoordinates,C1B3935E-4126-4279-B8D9-91AEC20F268D*%
%TF.FilePolarity,Positive*%
%TF.FileFunction,Other,Stiffener*%
%TF.Part,Single*%
G01*
G75*
%TA.AperFunction,NonConductor*%
%ADD49C,0.01000*%
D49*
X-127657Y-148441D02*
G03*
X-128657Y-147441I-1000J0D01*
G01*
Y-176870D02*
G03*
X-127657Y-175870I0J1000D01*
G01*
X-145260Y-147441D02*
G03*
X-146260Y-148441I0J-1000D01*
G01*
Y-175870D02*
G03*
X-145260Y-176870I1000J0D01*
G01*
X185433Y215634D02*
G03*
X184433Y216634I-1000J0D01*
G01*
Y187205D02*
G03*
X185433Y188205I0J1000D01*
G01*
X167831Y216634D02*
G03*
X166831Y215634I0J-1000D01*
G01*
Y188205D02*
G03*
X167831Y187205I1000J0D01*
G01*
X-145260Y-176870D02*
X-128657D01*
X-145260Y-147441D02*
X-128657D01*
X-127657Y-175870D02*
Y-148441D01*
X-146260Y-175870D02*
Y-148441D01*
X167831Y187205D02*
X184433D01*
X167831Y216634D02*
X184433D01*
X185433Y188205D02*
Y215634D01*
X166831Y188205D02*
Y215634D01*
X48979Y217335D02*
X46980D01*
X45980Y216336D01*
Y212337D01*
X46980Y211337D01*
X48979D01*
X49979Y212337D01*
Y216336D01*
X48979Y217335D01*
X51978Y211337D02*
Y215336D01*
X54977D01*
X55977Y214336D01*
Y211337D01*
X63974Y217335D02*
Y211337D01*
X66974D01*
X67973Y212337D01*
Y213336D01*
X66974Y214336D01*
X63974D01*
X66974D01*
X67973Y215336D01*
Y216336D01*
X66974Y217335D01*
X63974D01*
X70972Y211337D02*
X72972D01*
X73971Y212337D01*
Y214336D01*
X72972Y215336D01*
X70972D01*
X69973Y214336D01*
Y212337D01*
X70972Y211337D01*
X76970Y216336D02*
Y215336D01*
X75971D01*
X77970D01*
X76970D01*
Y212337D01*
X77970Y211337D01*
X81969Y216336D02*
Y215336D01*
X80969D01*
X82968D01*
X81969D01*
Y212337D01*
X82968Y211337D01*
X86967D02*
X88966D01*
X89966Y212337D01*
Y214336D01*
X88966Y215336D01*
X86967D01*
X85967Y214336D01*
Y212337D01*
X86967Y211337D01*
X91965D02*
Y215336D01*
X92965D01*
X93965Y214336D01*
Y211337D01*
Y214336D01*
X94964Y215336D01*
X95964Y214336D01*
Y211337D01*
X97964Y215336D02*
X98963D01*
Y214336D01*
X97964D01*
Y215336D01*
Y212337D02*
X98963D01*
Y211337D01*
X97964D01*
Y212337D01*
X111959Y211337D02*
Y217335D01*
X108960Y214336D01*
X112959D01*
X114958Y211337D02*
Y212337D01*
X115958D01*
Y211337D01*
X114958D01*
X123955Y217335D02*
X119956D01*
Y214336D01*
X121956Y215336D01*
X122955D01*
X123955Y214336D01*
Y212337D01*
X122955Y211337D01*
X120956D01*
X119956Y212337D01*
X125954Y215336D02*
X129953Y211337D01*
X127954Y213336D01*
X129953Y215336D01*
X125954Y211337D01*
X131953Y217335D02*
X135951D01*
Y216336D01*
X131953Y212337D01*
Y211337D01*
X137951D02*
Y212337D01*
X138950D01*
Y211337D01*
X137951D01*
X146948Y217335D02*
X142949D01*
Y214336D01*
X144948Y215336D01*
X145948D01*
X146948Y214336D01*
Y212337D01*
X145948Y211337D01*
X143949D01*
X142949Y212337D01*
X154945Y211337D02*
Y217335D01*
X157944D01*
X158944Y216336D01*
Y214336D01*
X157944Y213336D01*
X154945D01*
X160943Y211337D02*
X162943D01*
X161943D01*
Y215336D01*
X160943D01*
X49979Y206738D02*
X48979Y207737D01*
X46980D01*
X45980Y206738D01*
Y205738D01*
X46980Y204738D01*
X48979D01*
X49979Y203739D01*
Y202739D01*
X48979Y201739D01*
X46980D01*
X45980Y202739D01*
X52978Y206738D02*
Y205738D01*
X51978D01*
X53978D01*
X52978D01*
Y202739D01*
X53978Y201739D01*
X56977D02*
X58976D01*
X57976D01*
Y205738D01*
X56977D01*
X62975Y201739D02*
Y206738D01*
Y204738D01*
X61975D01*
X63974D01*
X62975D01*
Y206738D01*
X63974Y207737D01*
X67973Y201739D02*
Y206738D01*
Y204738D01*
X66974D01*
X68973D01*
X67973D01*
Y206738D01*
X68973Y207737D01*
X74971Y201739D02*
X72972D01*
X71972Y202739D01*
Y204738D01*
X72972Y205738D01*
X74971D01*
X75971Y204738D01*
Y203739D01*
X71972D01*
X77970Y201739D02*
Y205738D01*
X80969D01*
X81969Y204738D01*
Y201739D01*
X86967D02*
X84968D01*
X83968Y202739D01*
Y204738D01*
X84968Y205738D01*
X86967D01*
X87967Y204738D01*
Y203739D01*
X83968D01*
X89966Y205738D02*
Y201739D01*
Y203739D01*
X90966Y204738D01*
X91965Y205738D01*
X92965D01*
X103962Y201739D02*
X101962Y203739D01*
Y205738D01*
X103962Y207737D01*
X106961D02*
X110959D01*
X108960D01*
Y201739D01*
X112959Y203739D02*
X116957D01*
X112959Y205738D02*
X116957D01*
X118957Y206738D02*
X119956Y207737D01*
X121956D01*
X122955Y206738D01*
Y202739D01*
X121956Y201739D01*
X119956D01*
X118957Y202739D01*
Y206738D01*
X124955Y201739D02*
Y202739D01*
X125954D01*
Y201739D01*
X124955D01*
X129953D02*
X131953D01*
X130953D01*
Y207737D01*
X129953Y206738D01*
X134951Y201739D02*
X136951Y203739D01*
Y205738D01*
X134951Y207737D01*
X45980Y198140D02*
X49979D01*
X47980D01*
Y192142D01*
X51978Y194141D02*
X55977D01*
X51978Y196141D02*
X55977D01*
X57976Y197140D02*
X58976Y198140D01*
X60975D01*
X61975Y197140D01*
Y193141D01*
X60975Y192142D01*
X58976D01*
X57976Y193141D01*
Y197140D01*
X63974Y192142D02*
Y193141D01*
X64974D01*
Y192142D01*
X63974D01*
X72972D02*
X68973D01*
X72972Y196141D01*
Y197140D01*
X71972Y198140D01*
X69973D01*
X68973Y197140D01*
X82968Y192142D02*
X80969Y194141D01*
Y196141D01*
X82968Y198140D01*
X86967Y197140D02*
Y196141D01*
X85967D01*
X87967D01*
X86967D01*
Y193141D01*
X87967Y192142D01*
X91965D02*
X93965D01*
X94964Y193141D01*
Y195141D01*
X93965Y196141D01*
X91965D01*
X90966Y195141D01*
Y193141D01*
X91965Y192142D01*
X97964Y197140D02*
Y196141D01*
X96964D01*
X98963D01*
X97964D01*
Y193141D01*
X98963Y192142D01*
X102962Y196141D02*
X104961D01*
X105961Y195141D01*
Y192142D01*
X102962D01*
X101962Y193141D01*
X102962Y194141D01*
X105961D01*
X107960Y192142D02*
X109960D01*
X108960D01*
Y198140D01*
X107960D01*
X112959Y192142D02*
X114958Y194141D01*
Y196141D01*
X112959Y198140D01*
X-119820Y-150972D02*
X-121819D01*
X-122819Y-151972D01*
Y-155970D01*
X-121819Y-156970D01*
X-119820D01*
X-118820Y-155970D01*
Y-151972D01*
X-119820Y-150972D01*
X-116821Y-156970D02*
Y-152971D01*
X-113822D01*
X-112822Y-153971D01*
Y-156970D01*
X-104825Y-150972D02*
Y-156970D01*
X-101826D01*
X-100826Y-155970D01*
Y-154971D01*
X-101826Y-153971D01*
X-104825D01*
X-101826D01*
X-100826Y-152971D01*
Y-151972D01*
X-101826Y-150972D01*
X-104825D01*
X-97827Y-156970D02*
X-95828D01*
X-94828Y-155970D01*
Y-153971D01*
X-95828Y-152971D01*
X-97827D01*
X-98827Y-153971D01*
Y-155970D01*
X-97827Y-156970D01*
X-91829Y-151972D02*
Y-152971D01*
X-92829D01*
X-90829D01*
X-91829D01*
Y-155970D01*
X-90829Y-156970D01*
X-86831Y-151972D02*
Y-152971D01*
X-87830D01*
X-85831D01*
X-86831D01*
Y-155970D01*
X-85831Y-156970D01*
X-81832D02*
X-79833D01*
X-78833Y-155970D01*
Y-153971D01*
X-79833Y-152971D01*
X-81832D01*
X-82832Y-153971D01*
Y-155970D01*
X-81832Y-156970D01*
X-76834D02*
Y-152971D01*
X-75834D01*
X-74834Y-153971D01*
Y-156970D01*
Y-153971D01*
X-73835Y-152971D01*
X-72835Y-153971D01*
Y-156970D01*
X-70836Y-152971D02*
X-69836D01*
Y-153971D01*
X-70836D01*
Y-152971D01*
Y-155970D02*
X-69836D01*
Y-156970D01*
X-70836D01*
Y-155970D01*
X-56840Y-156970D02*
Y-150972D01*
X-59839Y-153971D01*
X-55841D01*
X-53841Y-156970D02*
Y-155970D01*
X-52842D01*
Y-156970D01*
X-53841D01*
X-44844Y-150972D02*
X-48843D01*
Y-153971D01*
X-46843Y-152971D01*
X-45844D01*
X-44844Y-153971D01*
Y-155970D01*
X-45844Y-156970D01*
X-47843D01*
X-48843Y-155970D01*
X-42845Y-152971D02*
X-38846Y-156970D01*
X-40845Y-154971D01*
X-38846Y-152971D01*
X-42845Y-156970D01*
X-36847Y-150972D02*
X-32848D01*
Y-151972D01*
X-36847Y-155970D01*
Y-156970D01*
X-30849D02*
Y-155970D01*
X-29849D01*
Y-156970D01*
X-30849D01*
X-21852Y-150972D02*
X-25850D01*
Y-153971D01*
X-23851Y-152971D01*
X-22851D01*
X-21852Y-153971D01*
Y-155970D01*
X-22851Y-156970D01*
X-24851D01*
X-25850Y-155970D01*
X-13854Y-156970D02*
Y-150972D01*
X-10855D01*
X-9855Y-151972D01*
Y-153971D01*
X-10855Y-154971D01*
X-13854D01*
X-7856Y-156970D02*
X-5857D01*
X-6856D01*
Y-152971D01*
X-7856D01*
X-118820Y-161569D02*
X-119820Y-160570D01*
X-121819D01*
X-122819Y-161569D01*
Y-162569D01*
X-121819Y-163569D01*
X-119820D01*
X-118820Y-164568D01*
Y-165568D01*
X-119820Y-166568D01*
X-121819D01*
X-122819Y-165568D01*
X-115821Y-161569D02*
Y-162569D01*
X-116821D01*
X-114822D01*
X-115821D01*
Y-165568D01*
X-114822Y-166568D01*
X-111822D02*
X-109823D01*
X-110823D01*
Y-162569D01*
X-111822D01*
X-105824Y-166568D02*
Y-161569D01*
Y-163569D01*
X-106824D01*
X-104825D01*
X-105824D01*
Y-161569D01*
X-104825Y-160570D01*
X-100826Y-166568D02*
Y-161569D01*
Y-163569D01*
X-101826D01*
X-99826D01*
X-100826D01*
Y-161569D01*
X-99826Y-160570D01*
X-93828Y-166568D02*
X-95828D01*
X-96827Y-165568D01*
Y-163569D01*
X-95828Y-162569D01*
X-93828D01*
X-92829Y-163569D01*
Y-164568D01*
X-96827D01*
X-90829Y-166568D02*
Y-162569D01*
X-87830D01*
X-86831Y-163569D01*
Y-166568D01*
X-81832D02*
X-83832D01*
X-84831Y-165568D01*
Y-163569D01*
X-83832Y-162569D01*
X-81832D01*
X-80832Y-163569D01*
Y-164568D01*
X-84831D01*
X-78833Y-162569D02*
Y-166568D01*
Y-164568D01*
X-77833Y-163569D01*
X-76834Y-162569D01*
X-75834D01*
X-64838Y-166568D02*
X-66837Y-164568D01*
Y-162569D01*
X-64838Y-160570D01*
X-61839D02*
X-57840D01*
X-59839D01*
Y-166568D01*
X-55841Y-164568D02*
X-51842D01*
X-55841Y-162569D02*
X-51842D01*
X-49843Y-161569D02*
X-48843Y-160570D01*
X-46843D01*
X-45844Y-161569D01*
Y-165568D01*
X-46843Y-166568D01*
X-48843D01*
X-49843Y-165568D01*
Y-161569D01*
X-43845Y-166568D02*
Y-165568D01*
X-42845D01*
Y-166568D01*
X-43845D01*
X-38846D02*
X-36847D01*
X-37846D01*
Y-160570D01*
X-38846Y-161569D01*
X-33848Y-166568D02*
X-31848Y-164568D01*
Y-162569D01*
X-33848Y-160570D01*
X-122819Y-170167D02*
X-118820D01*
X-120820D01*
Y-176165D01*
X-116821Y-174166D02*
X-112822D01*
X-116821Y-172167D02*
X-112822D01*
X-110823Y-171167D02*
X-109823Y-170167D01*
X-107824D01*
X-106824Y-171167D01*
Y-175166D01*
X-107824Y-176165D01*
X-109823D01*
X-110823Y-175166D01*
Y-171167D01*
X-104825Y-176165D02*
Y-175166D01*
X-103825D01*
Y-176165D01*
X-104825D01*
X-95828D02*
X-99826D01*
X-95828Y-172167D01*
Y-171167D01*
X-96827Y-170167D01*
X-98827D01*
X-99826Y-171167D01*
X-85831Y-176165D02*
X-87830Y-174166D01*
Y-172167D01*
X-85831Y-170167D01*
X-81832Y-171167D02*
Y-172167D01*
X-82832D01*
X-80832D01*
X-81832D01*
Y-175166D01*
X-80832Y-176165D01*
X-76834D02*
X-74834D01*
X-73835Y-175166D01*
Y-173166D01*
X-74834Y-172167D01*
X-76834D01*
X-77833Y-173166D01*
Y-175166D01*
X-76834Y-176165D01*
X-70836Y-171167D02*
Y-172167D01*
X-71835D01*
X-69836D01*
X-70836D01*
Y-175166D01*
X-69836Y-176165D01*
X-65837Y-172167D02*
X-63838D01*
X-62838Y-173166D01*
Y-176165D01*
X-65837D01*
X-66837Y-175166D01*
X-65837Y-174166D01*
X-62838D01*
X-60839Y-176165D02*
X-58840D01*
X-59839D01*
Y-170167D01*
X-60839D01*
X-55841Y-176165D02*
X-53841Y-174166D01*
Y-172167D01*
X-55841Y-170167D01*
%TF.MD5,6004e74f8113d2319ea0349a8e060e1f*%
M02*
