%TF.GenerationSoftware,Altium Limited,Altium Designer,23.9.2 (47)*%
G04 Layer_Color=0*
%FSLAX25Y25*%
%MOIN*%
%TF.SameCoordinates,C1B3935E-4126-4279-B8D9-91AEC20F268D*%
%TF.FilePolarity,Positive*%
%TF.FileFunction,Profile,NP*%
%TF.Part,Single*%
G01*
G75*
%TA.AperFunction,Profile*%
%ADD70C,0.00100*%
D70*
X-145670Y-177165D02*
X-127953D01*
X-127362Y-176575D01*
Y-147441D01*
X-122047Y-142126D01*
X-122047Y-118110D01*
X-122047Y116142D01*
D02*
G02*
X-120079Y118110I1969J-0D01*
G01*
D02*
G02*
X-118110Y116142I0J-1969D01*
G01*
X-118110Y-144675D01*
D02*
G03*
X-111210Y-151575I6900J0D01*
G01*
X184045D01*
D02*
G03*
X190945Y-144675I0J6900D01*
G01*
Y181496D01*
X185630Y186811D01*
X185630Y215945D01*
X185039Y216535D01*
X167323Y216535D01*
X166732Y215945D01*
X166732Y186811D01*
X161417Y181496D01*
X161417Y-76772D01*
D02*
G02*
X159449Y-78740I-1969J0D01*
G01*
D02*
G02*
X157480Y-76772I0J1969D01*
G01*
X157480Y184045D01*
D02*
G03*
X150580Y190945I-6900J-0D01*
G01*
X-144675D01*
D02*
G03*
X-151575Y184045I0J-6900D01*
G01*
Y118110D01*
X-151575Y-142126D01*
X-146260Y-147441D01*
X-146260Y-176575D01*
X-145670Y-177165D01*
%TF.MD5,cb0c3859d6422ca02cce695b56beb711*%
M02*
