%TF.GenerationSoftware,Altium Limited,Altium Designer,23.9.2 (47)*%
G04 Layer_Color=8388736*
%FSLAX25Y25*%
%MOIN*%
%TF.SameCoordinates,C1B3935E-4126-4279-B8D9-91AEC20F268D*%
%TF.FilePolarity,Negative*%
%TF.FileFunction,Soldermask,Top*%
%TF.Part,Single*%
G01*
G75*
%TA.AperFunction,SMDPad,CuDef*%
%ADD50R,0.06496X0.05906*%
%ADD51R,0.04724X0.04724*%
%ADD52R,0.04724X0.04724*%
%ADD53R,0.03622X0.03465*%
%ADD54R,0.03543X0.04331*%
%ADD55R,0.04331X0.03543*%
%ADD56R,0.01968X0.03543*%
%ADD57R,0.07087X0.04291*%
%ADD58R,0.06653X0.10236*%
%ADD59R,0.04331X0.02165*%
%TA.AperFunction,BGAPad,CuDef*%
%ADD60C,0.01575*%
%TA.AperFunction,SMDPad,CuDef*%
%ADD61R,0.11024X0.11024*%
%ADD62O,0.04134X0.01968*%
%ADD63O,0.01968X0.04134*%
%ADD64R,0.02362X0.03937*%
%ADD65R,0.10630X0.06693*%
G04:AMPARAMS|DCode=66|XSize=874.02mil|YSize=874.02mil|CornerRadius=12.6mil|HoleSize=0mil|Usage=FLASHONLY|Rotation=90.000|XOffset=0mil|YOffset=0mil|HoleType=Round|Shape=RoundedRectangle|*
%AMROUNDEDRECTD66*
21,1,0.87402,0.84882,0,0,90.0*
21,1,0.84882,0.87402,0,0,90.0*
1,1,0.02520,0.42441,0.42441*
1,1,0.02520,0.42441,-0.42441*
1,1,0.02520,-0.42441,-0.42441*
1,1,0.02520,-0.42441,0.42441*
%
%ADD66ROUNDEDRECTD66*%
%TA.AperFunction,ComponentPad*%
%ADD67C,0.31496*%
%TA.AperFunction,ViaPad*%
%ADD68C,0.02756*%
G36*
X184697Y216336D02*
X184748Y216326D01*
X184797Y216309D01*
X184843Y216287D01*
X184886Y216258D01*
X184925Y216224D01*
X185318Y215830D01*
X185352Y215791D01*
X185381Y215749D01*
X185404Y215702D01*
X185421Y215653D01*
X185431Y215603D01*
X185434Y215551D01*
Y208071D01*
X185431Y208019D01*
X185421Y207969D01*
X185404Y207920D01*
X185381Y207874D01*
X185352Y207831D01*
X185318Y207792D01*
X185280Y207758D01*
X185237Y207729D01*
X185190Y207706D01*
X185142Y207690D01*
X185091Y207680D01*
X185039Y207676D01*
X183858D01*
X183807Y207680D01*
X183756Y207690D01*
X183707Y207706D01*
X183661Y207729D01*
X183616Y207706D01*
X183567Y207690D01*
X183516Y207680D01*
X183465Y207676D01*
X183071D01*
X183019Y207680D01*
X182969Y207690D01*
X182920Y207706D01*
X182874Y207729D01*
X182828Y207706D01*
X182779Y207690D01*
X182729Y207680D01*
X182677Y207676D01*
X181496D01*
X181445Y207680D01*
X181394Y207690D01*
X181345Y207706D01*
X181299Y207729D01*
X181253Y207706D01*
X181204Y207690D01*
X181154Y207680D01*
X181102Y207676D01*
X180709D01*
X180657Y207680D01*
X180607Y207690D01*
X180558Y207706D01*
X180512Y207729D01*
X180466Y207706D01*
X180417Y207690D01*
X180367Y207680D01*
X180315Y207676D01*
X179134D01*
X179082Y207680D01*
X179032Y207690D01*
X178983Y207706D01*
X178937Y207729D01*
X178891Y207706D01*
X178842Y207690D01*
X178792Y207680D01*
X178740Y207676D01*
X178347D01*
X178295Y207680D01*
X178244Y207690D01*
X178196Y207706D01*
X178150Y207729D01*
X178104Y207706D01*
X178055Y207690D01*
X178004Y207680D01*
X177953Y207676D01*
X176772D01*
X176720Y207680D01*
X176670Y207690D01*
X176621Y207706D01*
X176575Y207729D01*
X176529Y207706D01*
X176480Y207690D01*
X176429Y207680D01*
X176378Y207676D01*
X175984D01*
X175933Y207680D01*
X175882Y207690D01*
X175833Y207706D01*
X175787Y207729D01*
X175742Y207706D01*
X175693Y207690D01*
X175642Y207680D01*
X175591Y207676D01*
X174409D01*
X174358Y207680D01*
X174307Y207690D01*
X174258Y207706D01*
X174213Y207729D01*
X174167Y207706D01*
X174118Y207690D01*
X174067Y207680D01*
X174016Y207676D01*
X173622D01*
X173571Y207680D01*
X173520Y207690D01*
X173471Y207706D01*
X173425Y207729D01*
X173379Y207706D01*
X173330Y207690D01*
X173280Y207680D01*
X173228Y207676D01*
X172047D01*
X171996Y207680D01*
X171945Y207690D01*
X171896Y207706D01*
X171850Y207729D01*
X171804Y207706D01*
X171756Y207690D01*
X171705Y207680D01*
X171654Y207676D01*
X171260D01*
X171208Y207680D01*
X171158Y207690D01*
X171109Y207706D01*
X171063Y207729D01*
X171017Y207706D01*
X170968Y207690D01*
X170918Y207680D01*
X170866Y207676D01*
X169685D01*
X169633Y207680D01*
X169583Y207690D01*
X169534Y207706D01*
X169488Y207729D01*
X169442Y207706D01*
X169394Y207690D01*
X169343Y207680D01*
X169291Y207676D01*
X168898D01*
X168846Y207680D01*
X168796Y207690D01*
X168747Y207706D01*
X168701Y207729D01*
X168655Y207706D01*
X168606Y207690D01*
X168555Y207680D01*
X168504Y207676D01*
X167323D01*
X167271Y207680D01*
X167221Y207690D01*
X167172Y207706D01*
X167126Y207729D01*
X167083Y207758D01*
X167044Y207792D01*
X167010Y207831D01*
X166981Y207874D01*
X166958Y207920D01*
X166942Y207969D01*
X166932Y208019D01*
X166928Y208071D01*
Y215551D01*
X166932Y215603D01*
X166942Y215653D01*
X166958Y215702D01*
X166981Y215749D01*
X167010Y215791D01*
X167044Y215830D01*
X167438Y216224D01*
X167438Y216224D01*
X167476Y216258D01*
X167519Y216287D01*
X167566Y216309D01*
X167614Y216326D01*
X167665Y216336D01*
X167717Y216339D01*
X168110D01*
X168162Y216336D01*
X168212Y216326D01*
X168261Y216309D01*
X168307Y216287D01*
X168350Y216258D01*
X168389Y216224D01*
X168529Y216084D01*
X168533Y216096D01*
X168556Y216142D01*
X168585Y216185D01*
X168619Y216224D01*
X168658Y216258D01*
X168700Y216287D01*
X168747Y216309D01*
X168796Y216326D01*
X168846Y216336D01*
X168898Y216339D01*
X169291D01*
X169343Y216336D01*
X169394Y216326D01*
X169442Y216309D01*
X169489Y216287D01*
X169532Y216258D01*
X169570Y216224D01*
X169604Y216185D01*
X169633Y216142D01*
X169656Y216096D01*
X169660Y216084D01*
X169800Y216224D01*
X169839Y216258D01*
X169881Y216287D01*
X169928Y216309D01*
X169977Y216326D01*
X170027Y216336D01*
X170079Y216339D01*
X170473D01*
X170524Y216336D01*
X170575Y216326D01*
X170623Y216309D01*
X170670Y216287D01*
X170713Y216258D01*
X170751Y216224D01*
X170891Y216084D01*
X170895Y216096D01*
X170918Y216142D01*
X170947Y216185D01*
X170981Y216224D01*
X171020Y216258D01*
X171063Y216287D01*
X171109Y216309D01*
X171158Y216326D01*
X171208Y216336D01*
X171260Y216339D01*
X171654D01*
X171705Y216336D01*
X171756Y216326D01*
X171804Y216309D01*
X171851Y216287D01*
X171894Y216258D01*
X171932Y216224D01*
X171967Y216185D01*
X171995Y216142D01*
X172018Y216096D01*
X172022Y216084D01*
X172162Y216224D01*
X172201Y216258D01*
X172244Y216287D01*
X172290Y216309D01*
X172339Y216326D01*
X172389Y216336D01*
X172441Y216339D01*
X172835D01*
X172886Y216336D01*
X172937Y216326D01*
X172986Y216309D01*
X173032Y216287D01*
X173075Y216258D01*
X173114Y216224D01*
X173254Y216084D01*
X173258Y216096D01*
X173280Y216142D01*
X173309Y216185D01*
X173343Y216224D01*
X173382Y216258D01*
X173425Y216287D01*
X173471Y216309D01*
X173520Y216326D01*
X173571Y216336D01*
X173622Y216339D01*
X174016D01*
X174067Y216336D01*
X174118Y216326D01*
X174167Y216309D01*
X174213Y216287D01*
X174256Y216258D01*
X174295Y216224D01*
X174329Y216185D01*
X174357Y216142D01*
X174380Y216096D01*
X174384Y216084D01*
X174524Y216224D01*
X174563Y216258D01*
X174606Y216287D01*
X174652Y216309D01*
X174701Y216326D01*
X174752Y216336D01*
X174803Y216339D01*
X175197D01*
X175248Y216336D01*
X175299Y216326D01*
X175348Y216309D01*
X175394Y216287D01*
X175437Y216258D01*
X175476Y216224D01*
X175616Y216084D01*
X175620Y216096D01*
X175643Y216142D01*
X175671Y216185D01*
X175705Y216224D01*
X175744Y216258D01*
X175787Y216287D01*
X175833Y216309D01*
X175882Y216326D01*
X175933Y216336D01*
X175984Y216339D01*
X176378D01*
X176429Y216336D01*
X176480Y216326D01*
X176529Y216309D01*
X176575Y216287D01*
X176618Y216258D01*
X176657Y216224D01*
X176691Y216185D01*
X176720Y216142D01*
X176742Y216096D01*
X176746Y216084D01*
X176886Y216224D01*
X176925Y216258D01*
X176968Y216287D01*
X177014Y216309D01*
X177063Y216326D01*
X177114Y216336D01*
X177165Y216339D01*
X177559D01*
X177611Y216336D01*
X177661Y216326D01*
X177710Y216309D01*
X177756Y216287D01*
X177799Y216258D01*
X177838Y216224D01*
X177978Y216084D01*
X177982Y216096D01*
X178005Y216142D01*
X178033Y216185D01*
X178068Y216224D01*
X178106Y216258D01*
X178149Y216287D01*
X178196Y216309D01*
X178244Y216326D01*
X178295Y216336D01*
X178347Y216339D01*
X178740D01*
X178792Y216336D01*
X178842Y216326D01*
X178891Y216309D01*
X178937Y216287D01*
X178980Y216258D01*
X179019Y216224D01*
X179053Y216185D01*
X179082Y216142D01*
X179105Y216096D01*
X179109Y216084D01*
X179249Y216224D01*
X179287Y216258D01*
X179330Y216287D01*
X179377Y216309D01*
X179426Y216326D01*
X179476Y216336D01*
X179528Y216339D01*
X179921D01*
X179973Y216336D01*
X180023Y216326D01*
X180072Y216309D01*
X180119Y216287D01*
X180161Y216258D01*
X180200Y216224D01*
X180340Y216084D01*
X180344Y216096D01*
X180367Y216142D01*
X180396Y216185D01*
X180430Y216224D01*
X180468Y216258D01*
X180511Y216287D01*
X180558Y216309D01*
X180607Y216326D01*
X180657Y216336D01*
X180709Y216339D01*
X181102D01*
X181154Y216336D01*
X181204Y216326D01*
X181253Y216309D01*
X181300Y216287D01*
X181343Y216258D01*
X181381Y216224D01*
X181415Y216185D01*
X181444Y216142D01*
X181467Y216096D01*
X181471Y216084D01*
X181611Y216224D01*
X181650Y216258D01*
X181693Y216287D01*
X181739Y216309D01*
X181788Y216326D01*
X181838Y216336D01*
X181890Y216339D01*
X182283D01*
X182335Y216336D01*
X182386Y216326D01*
X182434Y216309D01*
X182481Y216287D01*
X182524Y216258D01*
X182562Y216224D01*
X182702Y216084D01*
X182706Y216096D01*
X182729Y216142D01*
X182758Y216185D01*
X182792Y216224D01*
X182831Y216258D01*
X182874Y216287D01*
X182920Y216309D01*
X182969Y216326D01*
X183019Y216336D01*
X183071Y216339D01*
X183465D01*
X183516Y216336D01*
X183567Y216326D01*
X183616Y216309D01*
X183662Y216287D01*
X183705Y216258D01*
X183744Y216224D01*
X183778Y216185D01*
X183806Y216142D01*
X183829Y216096D01*
X183833Y216084D01*
X183973Y216224D01*
X184012Y216258D01*
X184055Y216287D01*
X184101Y216309D01*
X184150Y216326D01*
X184201Y216336D01*
X184252Y216339D01*
X184646D01*
X184697Y216336D01*
D02*
G37*
G36*
X-127901Y-168310D02*
X-127851Y-168320D01*
X-127802Y-168336D01*
X-127755Y-168359D01*
X-127713Y-168388D01*
X-127674Y-168422D01*
X-127640Y-168461D01*
X-127611Y-168503D01*
X-127588Y-168550D01*
X-127572Y-168599D01*
X-127562Y-168649D01*
X-127558Y-168701D01*
Y-176181D01*
X-127562Y-176233D01*
X-127572Y-176283D01*
X-127588Y-176332D01*
X-127611Y-176378D01*
X-127640Y-176421D01*
X-127674Y-176460D01*
X-128067Y-176854D01*
X-128068Y-176854D01*
X-128106Y-176888D01*
X-128149Y-176917D01*
X-128196Y-176939D01*
X-128244Y-176956D01*
X-128295Y-176966D01*
X-128347Y-176969D01*
X-128740D01*
X-128792Y-176966D01*
X-128842Y-176956D01*
X-128891Y-176939D01*
X-128937Y-176917D01*
X-128980Y-176888D01*
X-129019Y-176854D01*
X-129159Y-176714D01*
X-129163Y-176726D01*
X-129186Y-176772D01*
X-129215Y-176815D01*
X-129249Y-176854D01*
X-129287Y-176888D01*
X-129330Y-176917D01*
X-129377Y-176939D01*
X-129426Y-176956D01*
X-129476Y-176966D01*
X-129528Y-176969D01*
X-129921D01*
X-129973Y-176966D01*
X-130023Y-176956D01*
X-130072Y-176939D01*
X-130119Y-176917D01*
X-130161Y-176888D01*
X-130200Y-176854D01*
X-130234Y-176815D01*
X-130263Y-176772D01*
X-130286Y-176726D01*
X-130290Y-176714D01*
X-130430Y-176854D01*
X-130468Y-176888D01*
X-130511Y-176917D01*
X-130558Y-176939D01*
X-130607Y-176956D01*
X-130657Y-176966D01*
X-130709Y-176969D01*
X-131102D01*
X-131154Y-176966D01*
X-131204Y-176956D01*
X-131253Y-176939D01*
X-131300Y-176917D01*
X-131343Y-176888D01*
X-131381Y-176854D01*
X-131521Y-176714D01*
X-131525Y-176726D01*
X-131548Y-176772D01*
X-131577Y-176815D01*
X-131611Y-176854D01*
X-131650Y-176888D01*
X-131693Y-176917D01*
X-131739Y-176939D01*
X-131788Y-176956D01*
X-131838Y-176966D01*
X-131890Y-176969D01*
X-132283D01*
X-132335Y-176966D01*
X-132386Y-176956D01*
X-132434Y-176939D01*
X-132481Y-176917D01*
X-132524Y-176888D01*
X-132562Y-176854D01*
X-132597Y-176815D01*
X-132625Y-176772D01*
X-132648Y-176726D01*
X-132652Y-176714D01*
X-132792Y-176854D01*
X-132831Y-176888D01*
X-132874Y-176917D01*
X-132920Y-176939D01*
X-132969Y-176956D01*
X-133019Y-176966D01*
X-133071Y-176969D01*
X-133465D01*
X-133516Y-176966D01*
X-133567Y-176956D01*
X-133616Y-176939D01*
X-133662Y-176917D01*
X-133705Y-176888D01*
X-133744Y-176854D01*
X-133883Y-176714D01*
X-133888Y-176726D01*
X-133910Y-176772D01*
X-133939Y-176815D01*
X-133973Y-176854D01*
X-134012Y-176888D01*
X-134055Y-176917D01*
X-134101Y-176939D01*
X-134150Y-176956D01*
X-134201Y-176966D01*
X-134252Y-176969D01*
X-134646D01*
X-134697Y-176966D01*
X-134748Y-176956D01*
X-134797Y-176939D01*
X-134843Y-176917D01*
X-134886Y-176888D01*
X-134925Y-176854D01*
X-134959Y-176815D01*
X-134987Y-176772D01*
X-135010Y-176726D01*
X-135014Y-176714D01*
X-135154Y-176854D01*
X-135193Y-176888D01*
X-135236Y-176917D01*
X-135282Y-176939D01*
X-135331Y-176956D01*
X-135382Y-176966D01*
X-135433Y-176969D01*
X-135827D01*
X-135878Y-176966D01*
X-135929Y-176956D01*
X-135978Y-176939D01*
X-136024Y-176917D01*
X-136067Y-176888D01*
X-136106Y-176854D01*
X-136246Y-176714D01*
X-136250Y-176726D01*
X-136273Y-176772D01*
X-136301Y-176815D01*
X-136335Y-176854D01*
X-136374Y-176888D01*
X-136417Y-176917D01*
X-136463Y-176939D01*
X-136512Y-176956D01*
X-136563Y-176966D01*
X-136614Y-176969D01*
X-137008D01*
X-137059Y-176966D01*
X-137110Y-176956D01*
X-137159Y-176939D01*
X-137205Y-176917D01*
X-137248Y-176888D01*
X-137287Y-176854D01*
X-137321Y-176815D01*
X-137350Y-176772D01*
X-137372Y-176726D01*
X-137376Y-176714D01*
X-137516Y-176854D01*
X-137555Y-176888D01*
X-137598Y-176917D01*
X-137644Y-176939D01*
X-137693Y-176956D01*
X-137744Y-176966D01*
X-137795Y-176969D01*
X-138189D01*
X-138241Y-176966D01*
X-138291Y-176956D01*
X-138340Y-176939D01*
X-138386Y-176917D01*
X-138429Y-176888D01*
X-138468Y-176854D01*
X-138608Y-176714D01*
X-138612Y-176726D01*
X-138635Y-176772D01*
X-138663Y-176815D01*
X-138697Y-176854D01*
X-138736Y-176888D01*
X-138779Y-176917D01*
X-138825Y-176939D01*
X-138874Y-176956D01*
X-138925Y-176966D01*
X-138976Y-176969D01*
X-139370D01*
X-139422Y-176966D01*
X-139472Y-176956D01*
X-139521Y-176939D01*
X-139567Y-176917D01*
X-139610Y-176888D01*
X-139649Y-176854D01*
X-139683Y-176815D01*
X-139712Y-176772D01*
X-139735Y-176726D01*
X-139739Y-176714D01*
X-139878Y-176854D01*
X-139917Y-176888D01*
X-139960Y-176917D01*
X-140006Y-176939D01*
X-140055Y-176956D01*
X-140106Y-176966D01*
X-140157Y-176969D01*
X-140551D01*
X-140603Y-176966D01*
X-140653Y-176956D01*
X-140702Y-176939D01*
X-140749Y-176917D01*
X-140791Y-176888D01*
X-140830Y-176854D01*
X-140970Y-176714D01*
X-140974Y-176726D01*
X-140997Y-176772D01*
X-141026Y-176815D01*
X-141060Y-176854D01*
X-141098Y-176888D01*
X-141141Y-176917D01*
X-141188Y-176939D01*
X-141236Y-176956D01*
X-141287Y-176966D01*
X-141339Y-176969D01*
X-141732D01*
X-141784Y-176966D01*
X-141834Y-176956D01*
X-141883Y-176939D01*
X-141930Y-176917D01*
X-141972Y-176888D01*
X-142011Y-176854D01*
X-142045Y-176815D01*
X-142074Y-176772D01*
X-142097Y-176726D01*
X-142101Y-176714D01*
X-142241Y-176854D01*
X-142280Y-176888D01*
X-142322Y-176917D01*
X-142369Y-176939D01*
X-142418Y-176956D01*
X-142468Y-176966D01*
X-142520Y-176969D01*
X-142913D01*
X-142965Y-176966D01*
X-143016Y-176956D01*
X-143064Y-176939D01*
X-143111Y-176917D01*
X-143154Y-176888D01*
X-143192Y-176854D01*
X-143332Y-176714D01*
X-143336Y-176726D01*
X-143359Y-176772D01*
X-143388Y-176815D01*
X-143422Y-176854D01*
X-143461Y-176888D01*
X-143503Y-176917D01*
X-143550Y-176939D01*
X-143599Y-176956D01*
X-143649Y-176966D01*
X-143701Y-176969D01*
X-144095D01*
X-144146Y-176966D01*
X-144197Y-176956D01*
X-144246Y-176939D01*
X-144292Y-176917D01*
X-144335Y-176888D01*
X-144374Y-176854D01*
X-144407Y-176815D01*
X-144436Y-176772D01*
X-144459Y-176726D01*
X-144463Y-176714D01*
X-144603Y-176854D01*
X-144642Y-176888D01*
X-144685Y-176917D01*
X-144731Y-176939D01*
X-144780Y-176956D01*
X-144830Y-176966D01*
X-144882Y-176969D01*
X-145276D01*
X-145327Y-176966D01*
X-145378Y-176956D01*
X-145427Y-176939D01*
X-145473Y-176917D01*
X-145516Y-176888D01*
X-145555Y-176854D01*
X-145948Y-176460D01*
X-145982Y-176421D01*
X-146011Y-176378D01*
X-146034Y-176332D01*
X-146050Y-176283D01*
X-146061Y-176233D01*
X-146064Y-176181D01*
Y-168701D01*
X-146061Y-168649D01*
X-146050Y-168599D01*
X-146034Y-168550D01*
X-146011Y-168503D01*
X-145982Y-168461D01*
X-145948Y-168422D01*
X-145910Y-168388D01*
X-145867Y-168359D01*
X-145820Y-168336D01*
X-145771Y-168320D01*
X-145721Y-168310D01*
X-145669Y-168306D01*
X-144488D01*
X-144437Y-168310D01*
X-144386Y-168320D01*
X-144337Y-168336D01*
X-144291Y-168359D01*
X-144246Y-168336D01*
X-144197Y-168320D01*
X-144146Y-168310D01*
X-144095Y-168306D01*
X-143701D01*
X-143649Y-168310D01*
X-143599Y-168320D01*
X-143550Y-168336D01*
X-143504Y-168359D01*
X-143458Y-168336D01*
X-143409Y-168320D01*
X-143359Y-168310D01*
X-143307Y-168306D01*
X-142126D01*
X-142075Y-168310D01*
X-142024Y-168320D01*
X-141975Y-168336D01*
X-141929Y-168359D01*
X-141883Y-168336D01*
X-141834Y-168320D01*
X-141784Y-168310D01*
X-141732Y-168306D01*
X-141339D01*
X-141287Y-168310D01*
X-141236Y-168320D01*
X-141188Y-168336D01*
X-141142Y-168359D01*
X-141096Y-168336D01*
X-141047Y-168320D01*
X-140996Y-168310D01*
X-140945Y-168306D01*
X-139764D01*
X-139712Y-168310D01*
X-139662Y-168320D01*
X-139613Y-168336D01*
X-139567Y-168359D01*
X-139521Y-168336D01*
X-139472Y-168320D01*
X-139422Y-168310D01*
X-139370Y-168306D01*
X-138976D01*
X-138925Y-168310D01*
X-138874Y-168320D01*
X-138825Y-168336D01*
X-138779Y-168359D01*
X-138734Y-168336D01*
X-138685Y-168320D01*
X-138634Y-168310D01*
X-138583Y-168306D01*
X-137402D01*
X-137350Y-168310D01*
X-137300Y-168320D01*
X-137251Y-168336D01*
X-137205Y-168359D01*
X-137159Y-168336D01*
X-137110Y-168320D01*
X-137059Y-168310D01*
X-137008Y-168306D01*
X-136614D01*
X-136563Y-168310D01*
X-136512Y-168320D01*
X-136463Y-168336D01*
X-136417Y-168359D01*
X-136372Y-168336D01*
X-136323Y-168320D01*
X-136272Y-168310D01*
X-136221Y-168306D01*
X-135039D01*
X-134988Y-168310D01*
X-134937Y-168320D01*
X-134888Y-168336D01*
X-134843Y-168359D01*
X-134797Y-168336D01*
X-134748Y-168320D01*
X-134697Y-168310D01*
X-134646Y-168306D01*
X-134252D01*
X-134201Y-168310D01*
X-134150Y-168320D01*
X-134101Y-168336D01*
X-134055Y-168359D01*
X-134009Y-168336D01*
X-133960Y-168320D01*
X-133910Y-168310D01*
X-133858Y-168306D01*
X-132677D01*
X-132626Y-168310D01*
X-132575Y-168320D01*
X-132526Y-168336D01*
X-132480Y-168359D01*
X-132434Y-168336D01*
X-132386Y-168320D01*
X-132335Y-168310D01*
X-132283Y-168306D01*
X-131890D01*
X-131838Y-168310D01*
X-131788Y-168320D01*
X-131739Y-168336D01*
X-131693Y-168359D01*
X-131647Y-168336D01*
X-131598Y-168320D01*
X-131548Y-168310D01*
X-131496Y-168306D01*
X-130315D01*
X-130263Y-168310D01*
X-130213Y-168320D01*
X-130164Y-168336D01*
X-130118Y-168359D01*
X-130072Y-168336D01*
X-130023Y-168320D01*
X-129973Y-168310D01*
X-129921Y-168306D01*
X-129528D01*
X-129476Y-168310D01*
X-129426Y-168320D01*
X-129377Y-168336D01*
X-129331Y-168359D01*
X-129285Y-168336D01*
X-129236Y-168320D01*
X-129185Y-168310D01*
X-129134Y-168306D01*
X-127953D01*
X-127901Y-168310D01*
D02*
G37*
D50*
X13289Y-87046D02*
D03*
Y-94345D02*
D03*
X41636Y-87046D02*
D03*
Y-94345D02*
D03*
X-2362Y126272D02*
D03*
Y133571D02*
D03*
X25984Y126272D02*
D03*
Y133571D02*
D03*
D51*
X35531Y-45185D02*
D03*
Y-39461D02*
D03*
X13683Y-56262D02*
D03*
Y-50538D02*
D03*
X25591Y95488D02*
D03*
Y89764D02*
D03*
D52*
X-53756Y-75590D02*
D03*
X-48031D02*
D03*
X7587Y84646D02*
D03*
X1862D02*
D03*
D53*
X20376Y-36955D02*
D03*
Y-33412D02*
D03*
X18898Y76181D02*
D03*
Y72638D02*
D03*
D54*
X31496Y-66535D02*
D03*
X24984D02*
D03*
X19088Y-45420D02*
D03*
X25600D02*
D03*
X13673Y84646D02*
D03*
X20185D02*
D03*
D55*
X49510Y-71117D02*
D03*
Y-64605D02*
D03*
X42817D02*
D03*
Y-71117D02*
D03*
X6990Y-56550D02*
D03*
Y-50038D02*
D03*
X691Y-49932D02*
D03*
Y-56444D02*
D03*
X38583Y95669D02*
D03*
Y89157D02*
D03*
X32283Y89264D02*
D03*
Y95776D02*
D03*
X-3543Y110343D02*
D03*
Y103831D02*
D03*
X-10236D02*
D03*
Y110343D02*
D03*
D56*
X37992Y-26201D02*
D03*
X35433D02*
D03*
X32874D02*
D03*
X37992Y-34035D02*
D03*
X35433D02*
D03*
X32874D02*
D03*
D57*
X35433Y-30118D02*
D03*
D58*
X27462Y-90696D02*
D03*
X11811Y129921D02*
D03*
D59*
X32954Y-94534D02*
D03*
Y-91975D02*
D03*
Y-89416D02*
D03*
Y-86857D02*
D03*
X21970Y-94534D02*
D03*
Y-91975D02*
D03*
Y-89416D02*
D03*
Y-86857D02*
D03*
X6319Y133760D02*
D03*
Y131201D02*
D03*
Y128642D02*
D03*
Y126083D02*
D03*
X17303Y133760D02*
D03*
Y131201D02*
D03*
Y128642D02*
D03*
Y126083D02*
D03*
D60*
X23525Y-28491D02*
D03*
X21950D02*
D03*
X20376D02*
D03*
X23525Y-26916D02*
D03*
X21950D02*
D03*
X20376D02*
D03*
X15748Y67716D02*
D03*
X17323D02*
D03*
X18898D02*
D03*
X15748Y66142D02*
D03*
X17323D02*
D03*
X18898D02*
D03*
D61*
X6202Y-36758D02*
D03*
X33071Y75984D02*
D03*
D62*
X13781Y-32920D02*
D03*
Y-35479D02*
D03*
Y-38038D02*
D03*
Y-40597D02*
D03*
X-1376D02*
D03*
Y-38038D02*
D03*
Y-35479D02*
D03*
Y-32920D02*
D03*
X25492Y72146D02*
D03*
Y74705D02*
D03*
Y77264D02*
D03*
Y79823D02*
D03*
X40650D02*
D03*
Y77264D02*
D03*
Y74705D02*
D03*
Y72146D02*
D03*
D63*
X10041Y-44337D02*
D03*
X7482D02*
D03*
X4923D02*
D03*
X2364D02*
D03*
Y-29180D02*
D03*
X4923D02*
D03*
X7482D02*
D03*
X10041D02*
D03*
X29232Y83563D02*
D03*
X31791D02*
D03*
X34350D02*
D03*
X36909D02*
D03*
Y68405D02*
D03*
X34350D02*
D03*
X31791D02*
D03*
X29232D02*
D03*
D64*
X-44193Y-58248D02*
D03*
X-48130D02*
D03*
X-52067D02*
D03*
X-44193Y-69587D02*
D03*
X-48130D02*
D03*
X-52067D02*
D03*
X0Y66378D02*
D03*
X3937D02*
D03*
X7874D02*
D03*
X0Y77716D02*
D03*
X3937D02*
D03*
X7874D02*
D03*
D65*
X-48130Y-63917D02*
D03*
X3937Y72047D02*
D03*
D66*
X19685Y19685D02*
D03*
D67*
X-90551Y98425D02*
D03*
X129921Y-59055D02*
D03*
Y-122047D02*
D03*
X35433D02*
D03*
X3937D02*
D03*
X-59055D02*
D03*
X-27559D02*
D03*
X98425D02*
D03*
X66929D02*
D03*
X129921Y161417D02*
D03*
X35433D02*
D03*
X3937D02*
D03*
X-59055D02*
D03*
X-27559D02*
D03*
X98425D02*
D03*
X66929D02*
D03*
X-90551D02*
D03*
X129921Y129921D02*
D03*
Y35433D02*
D03*
Y3937D02*
D03*
Y-27559D02*
D03*
Y98425D02*
D03*
Y66929D02*
D03*
X-90551Y-122047D02*
D03*
Y-90551D02*
D03*
Y-59055D02*
D03*
Y-27559D02*
D03*
Y3937D02*
D03*
Y35433D02*
D03*
Y66929D02*
D03*
D68*
X183762Y205395D02*
D03*
%TF.MD5,6463d062c795f2e0f4813e2d36d57a4e*%
M02*
