%TF.GenerationSoftware,Altium Limited,Altium Designer,23.9.2 (47)*%
G04 Layer_Physical_Order=1*
G04 Layer_Color=255*
%FSLAX25Y25*%
%MOIN*%
%TF.SameCoordinates,C1B3935E-4126-4279-B8D9-91AEC20F268D*%
%TF.FilePolarity,Positive*%
%TF.FileFunction,Copper,L1,Top,Signal*%
%TF.Part,Single*%
G01*
G75*
%TA.AperFunction,SMDPad,CuDef*%
%ADD10R,0.05709X0.05118*%
%ADD11R,0.03937X0.03937*%
%ADD12R,0.03937X0.03937*%
%ADD13R,0.02835X0.02677*%
%ADD14R,0.02756X0.03543*%
%ADD15R,0.03543X0.02756*%
%ADD16R,0.01181X0.02756*%
%ADD17R,0.06299X0.03504*%
%ADD18R,0.05866X0.09449*%
%ADD19R,0.03543X0.01378*%
%TA.AperFunction,BGAPad,CuDef*%
%ADD20C,0.00787*%
%TA.AperFunction,SMDPad,CuDef*%
%ADD21R,0.10236X0.10236*%
%ADD22O,0.03347X0.01181*%
%ADD23O,0.01181X0.03347*%
%ADD24R,0.01575X0.03150*%
%ADD25R,0.09843X0.05906*%
G04:AMPARAMS|DCode=26|XSize=866.14mil|YSize=866.14mil|CornerRadius=8.66mil|HoleSize=0mil|Usage=FLASHONLY|Rotation=90.000|XOffset=0mil|YOffset=0mil|HoleType=Round|Shape=RoundedRectangle|*
%AMROUNDEDRECTD26*
21,1,0.86614,0.84882,0,0,90.0*
21,1,0.84882,0.86614,0,0,90.0*
1,1,0.01732,0.42441,0.42441*
1,1,0.01732,0.42441,-0.42441*
1,1,0.01732,-0.42441,-0.42441*
1,1,0.01732,-0.42441,0.42441*
%
%ADD26ROUNDEDRECTD26*%
%TA.AperFunction,Conductor*%
%ADD27C,0.30709*%
%ADD28C,0.00551*%
%ADD29C,0.01968*%
%ADD30C,0.00787*%
%ADD31C,0.03937*%
%ADD32C,0.02953*%
%ADD33C,0.01181*%
%TA.AperFunction,ComponentPad*%
%ADD34C,0.30709*%
%TA.AperFunction,SMDPad,CuDef*%
%AMCUSTOMSHAPE35*
4,1,11,-0.00591,-0.03937,-0.00591,0.03543,-0.00197,0.03937,-0.00197,0.03937,0.00197,0.03937,0.00591,0.03543,0.00591,0.01476,0.00197,0.01083,0.00197,-0.01476,0.00591,-0.01870,0.00591,-0.03937,-0.00591,-0.03937,0.0*%
%ADD35CUSTOMSHAPE35*%

%AMCUSTOMSHAPE36*
4,1,12,-0.00591,-0.01280,-0.00591,0.00886,-0.00197,0.01280,-0.00197,0.03937,0.00197,0.03937,0.00197,0.01280,0.00591,0.00886,0.00591,-0.01280,0.00197,-0.01673,0.00197,-0.03937,-0.00197,-0.03937,-0.00197,-0.01673,-0.00591,-0.01280,0.0*%
%ADD36CUSTOMSHAPE36*%

%AMCUSTOMSHAPE37*
4,1,14,-0.00591,-0.03937,-0.00591,-0.01870,-0.00197,-0.01476,-0.00197,0.01083,-0.00591,0.01476,-0.00591,0.03543,-0.00197,0.03937,0.00197,0.03937,0.00591,0.03543,0.00591,0.01476,0.00197,0.01083,0.00197,-0.01476,0.00591,-0.01870,0.00591,-0.03937,-0.00591,-0.03937,0.0*%
%ADD37CUSTOMSHAPE37*%

%AMCUSTOMSHAPE38*
4,1,12,-0.00591,-0.03937,-0.00591,-0.01870,-0.00197,-0.01476,-0.00197,-0.01476,-0.00197,0.01083,-0.00591,0.01476,-0.00591,0.01476,-0.00591,0.03543,-0.00197,0.03937,0.00197,0.03937,0.00591,0.03543,0.00591,-0.03937,-0.00591,-0.03937,0.0*%
%ADD38CUSTOMSHAPE38*%

%AMCUSTOMSHAPE39*
4,1,11,0.00591,0.03937,0.00591,-0.03543,0.00197,-0.03937,0.00197,-0.03937,-0.00197,-0.03937,-0.00591,-0.03543,-0.00591,-0.01476,-0.00197,-0.01083,-0.00197,0.01476,-0.00591,0.01870,-0.00591,0.03937,0.00591,0.03937,0.0*%
%ADD39CUSTOMSHAPE39*%

%AMCUSTOMSHAPE40*
4,1,12,0.00591,0.01280,0.00591,-0.00886,0.00197,-0.01280,0.00197,-0.03937,-0.00197,-0.03937,-0.00197,-0.01280,-0.00591,-0.00886,-0.00591,0.01280,-0.00197,0.01673,-0.00197,0.03937,0.00197,0.03937,0.00197,0.01673,0.00591,0.01280,0.0*%
%ADD40CUSTOMSHAPE40*%

%AMCUSTOMSHAPE41*
4,1,14,0.00591,0.03937,0.00591,0.01870,0.00197,0.01476,0.00197,-0.01083,0.00591,-0.01476,0.00591,-0.03543,0.00197,-0.03937,-0.00197,-0.03937,-0.00591,-0.03543,-0.00591,-0.01476,-0.00197,-0.01083,-0.00197,0.01476,-0.00591,0.01870,-0.00591,0.03937,0.00591,0.03937,0.0*%
%ADD41CUSTOMSHAPE41*%

%AMCUSTOMSHAPE42*
4,1,12,0.00591,0.03937,0.00591,0.01870,0.00197,0.01476,0.00197,0.01476,0.00197,-0.01083,0.00591,-0.01476,0.00591,-0.01476,0.00591,-0.03543,0.00197,-0.03937,-0.00197,-0.03937,-0.00591,-0.03543,-0.00591,0.03937,0.00591,0.03937,0.0*%
%ADD42CUSTOMSHAPE42*%

%TA.AperFunction,ViaPad*%
%ADD43C,0.01968*%
G36*
X-55118Y-55118D02*
X-3937D01*
Y-23622D01*
X43307D01*
Y-55118D01*
X94488D01*
Y94488D01*
X43307D01*
Y62992D01*
X-3937D01*
Y94488D01*
X-55118D01*
Y-55118D01*
D02*
G37*
D10*
X13289Y-87046D02*
D03*
Y-94345D02*
D03*
X41636Y-87046D02*
D03*
Y-94345D02*
D03*
X-2362Y126272D02*
D03*
Y133571D02*
D03*
X25984Y126272D02*
D03*
Y133571D02*
D03*
D11*
X35531Y-45185D02*
D03*
Y-39461D02*
D03*
X13683Y-56262D02*
D03*
Y-50538D02*
D03*
X25591Y95488D02*
D03*
Y89764D02*
D03*
D12*
X-53756Y-75590D02*
D03*
X-48031D02*
D03*
X7587Y84646D02*
D03*
X1862D02*
D03*
D13*
X20376Y-36955D02*
D03*
Y-33412D02*
D03*
X18898Y76181D02*
D03*
Y72638D02*
D03*
D14*
X31496Y-66535D02*
D03*
X24984D02*
D03*
X19088Y-45420D02*
D03*
X25600D02*
D03*
X13673Y84646D02*
D03*
X20185D02*
D03*
D15*
X49510Y-71117D02*
D03*
Y-64605D02*
D03*
X42817D02*
D03*
Y-71117D02*
D03*
X6990Y-56550D02*
D03*
Y-50038D02*
D03*
X691Y-49932D02*
D03*
Y-56444D02*
D03*
X38583Y95669D02*
D03*
Y89157D02*
D03*
X32283Y89264D02*
D03*
Y95776D02*
D03*
X-3543Y110343D02*
D03*
Y103831D02*
D03*
X-10236D02*
D03*
Y110343D02*
D03*
D16*
X37992Y-26201D02*
D03*
X35433D02*
D03*
X32874D02*
D03*
X37992Y-34035D02*
D03*
X35433D02*
D03*
X32874D02*
D03*
D17*
X35433Y-30118D02*
D03*
D18*
X27462Y-90696D02*
D03*
X11811Y129921D02*
D03*
D19*
X32954Y-94534D02*
D03*
Y-91975D02*
D03*
Y-89416D02*
D03*
Y-86857D02*
D03*
X21970Y-94534D02*
D03*
Y-91975D02*
D03*
Y-89416D02*
D03*
Y-86857D02*
D03*
X6319Y133760D02*
D03*
Y131201D02*
D03*
Y128642D02*
D03*
Y126083D02*
D03*
X17303Y133760D02*
D03*
Y131201D02*
D03*
Y128642D02*
D03*
Y126083D02*
D03*
D20*
X23525Y-28491D02*
D03*
X21950D02*
D03*
X20376D02*
D03*
X23525Y-26916D02*
D03*
X21950D02*
D03*
X20376D02*
D03*
X15748Y67716D02*
D03*
X17323D02*
D03*
X18898D02*
D03*
X15748Y66142D02*
D03*
X17323D02*
D03*
X18898D02*
D03*
D21*
X6202Y-36758D02*
D03*
X33071Y75984D02*
D03*
D22*
X13781Y-32920D02*
D03*
Y-35479D02*
D03*
Y-38038D02*
D03*
Y-40597D02*
D03*
X-1376D02*
D03*
Y-38038D02*
D03*
Y-35479D02*
D03*
Y-32920D02*
D03*
X25492Y72146D02*
D03*
Y74705D02*
D03*
Y77264D02*
D03*
Y79823D02*
D03*
X40650D02*
D03*
Y77264D02*
D03*
Y74705D02*
D03*
Y72146D02*
D03*
D23*
X10041Y-44337D02*
D03*
X7482D02*
D03*
X4923D02*
D03*
X2364D02*
D03*
Y-29180D02*
D03*
X4923D02*
D03*
X7482D02*
D03*
X10041D02*
D03*
X29232Y83563D02*
D03*
X31791D02*
D03*
X34350D02*
D03*
X36909D02*
D03*
Y68405D02*
D03*
X34350D02*
D03*
X31791D02*
D03*
X29232D02*
D03*
D24*
X-44193Y-58248D02*
D03*
X-48130D02*
D03*
X-52067D02*
D03*
X-44193Y-69587D02*
D03*
X-48130D02*
D03*
X-52067D02*
D03*
X0Y66378D02*
D03*
X3937D02*
D03*
X7874D02*
D03*
X0Y77716D02*
D03*
X3937D02*
D03*
X7874D02*
D03*
D25*
X-48130Y-63917D02*
D03*
X3937Y72047D02*
D03*
D26*
X19685Y19685D02*
D03*
D27*
X-90551Y-122047D02*
Y98425D01*
Y-122047D02*
X129921D01*
Y-59055D02*
Y161417D01*
X-90551D02*
X129921D01*
D28*
X18551Y-70472D02*
X37402D01*
X17764Y-71260D02*
X18551Y-70472D01*
X17520Y-71260D02*
X17764D01*
X31496Y-66929D02*
X33071Y-68504D01*
X96358D01*
X109744Y-81890D01*
X31496Y-66929D02*
Y-66535D01*
X114961Y-77559D02*
X118898Y-81496D01*
X117762Y-82821D02*
X163734D01*
X116778Y-85971D02*
X165308D01*
X95646Y-60705D02*
X117762Y-82821D01*
X98471Y-65499D02*
X111713Y-78740D01*
X117369Y-84396D02*
X164423D01*
X97835Y-67028D02*
X109547Y-78740D01*
X111713D02*
X117369Y-84396D01*
X109547Y-78740D02*
X116778Y-85971D01*
X36472Y-67028D02*
X97835D01*
X29134Y-63779D02*
X31496Y-66142D01*
X29134Y-63779D02*
Y-58268D01*
X31496Y-66535D02*
Y-66142D01*
X23132Y-47782D02*
X35591Y-60242D01*
X25600Y-47888D02*
X34943Y-57231D01*
X29017Y-55637D02*
X36478Y-63097D01*
X24123Y-60532D02*
X29017Y-55637D01*
X21557Y-48176D02*
X29017Y-55637D01*
X34943Y-64318D02*
X35214Y-64589D01*
Y-65770D02*
X36472Y-67028D01*
X35214Y-65770D02*
Y-64589D01*
X-140354Y-172835D02*
Y118110D01*
X-142717Y119488D02*
X-128347Y133858D01*
X-142717Y118110D02*
Y119488D01*
X-140354Y119095D02*
X-127559Y131890D01*
X-137992Y118701D02*
X-126772Y129921D01*
X-137992Y118110D02*
Y118701D01*
X-142717Y-172835D02*
Y118110D01*
X-137992Y-172835D02*
Y118110D01*
X-140354D02*
Y119095D01*
X-130905Y-172835D02*
Y115551D01*
X-133268Y-172835D02*
Y115416D01*
X-128543Y-172835D02*
Y115528D01*
X-125961Y118110D01*
X-133268Y115416D02*
X-130573Y118110D01*
X-130905Y115551D02*
X-128347Y118110D01*
X-122835Y123622D01*
X-125961Y118110D02*
X-122024Y122047D01*
X-130573Y118110D02*
X-123487Y125197D01*
X165453Y180709D02*
X165945Y180217D01*
X184449Y208366D02*
Y212008D01*
X177362Y-78740D02*
Y212008D01*
X182087Y-78740D02*
Y212008D01*
X179724Y-78740D02*
Y212008D01*
X165945Y180217D02*
X165945Y-78347D01*
X172638Y-78642D02*
Y212008D01*
X170276Y-78543D02*
Y212008D01*
X167817D02*
X167817Y-78738D01*
X168064Y-94633D02*
X182087Y-80610D01*
X167474Y-92664D02*
X179724Y-80413D01*
X167375Y-90696D02*
X177362Y-80709D01*
Y-78740D01*
X182087Y-80610D02*
Y-78740D01*
X165308Y-85971D02*
X172638Y-78642D01*
X164423Y-84396D02*
X170276Y-78543D01*
X163734Y-82821D02*
X167817Y-78738D01*
X179724Y-80413D02*
Y-78740D01*
X162795Y-81496D02*
X165945Y-78347D01*
X36909Y83563D02*
Y87303D01*
X33071Y89370D02*
X34350Y88090D01*
X32677Y89370D02*
X33071D01*
X16986Y64961D02*
X17304Y65279D01*
X17323Y66142D01*
X13780Y64961D02*
X16986D01*
X14155Y66459D02*
X14314Y66301D01*
X14506Y66280D01*
X15748Y66142D01*
X14620Y68035D02*
X14777Y67878D01*
X15748Y67716D01*
X31791Y67323D02*
Y68405D01*
X30217Y65748D02*
X31791Y67323D01*
X12205Y68898D02*
X14155Y66459D01*
X24902Y68405D02*
X29232D01*
X24016Y65748D02*
X30217D01*
X12205Y68898D02*
Y71653D01*
X10236Y68504D02*
X13780Y64961D01*
X14173Y68838D02*
X14173Y68661D01*
X14173Y68838D02*
Y69362D01*
X14276Y68518D02*
X14620Y68035D01*
X14173Y68661D02*
X14276Y68518D01*
X12205Y71653D02*
Y77953D01*
X14173Y69362D02*
X14599Y69788D01*
X16553D01*
X0Y77716D02*
Y78504D01*
X1516Y128642D02*
X6319D01*
X35933Y92913D02*
X40386D01*
X41339Y93866D01*
X38976Y89157D02*
X40079Y90260D01*
X38583Y89157D02*
X38976D01*
X40079Y90654D02*
X42520Y93094D01*
X40079Y90260D02*
Y90654D01*
X-1181Y79339D02*
Y96063D01*
X-2441Y68189D02*
X-504Y66252D01*
X-1181Y79339D02*
X-858Y79016D01*
X-512D01*
X0Y78504D01*
X-2441Y68189D02*
Y102728D01*
X-9134Y104539D02*
X-8740Y104933D01*
X-2468Y102756D02*
X2362D01*
X4059Y103814D02*
X4331Y103543D01*
X4059Y103814D02*
Y104996D01*
X-3543Y103831D02*
X-2468Y102756D01*
X-2441Y102728D01*
X2362Y102756D02*
X17717Y87402D01*
X13673Y84646D02*
Y87114D01*
X16142Y81890D02*
Y87008D01*
X17717Y81496D02*
Y87402D01*
X-5039Y102728D02*
X-3937Y103831D01*
X-3543D01*
X237Y129921D02*
X1516Y128642D01*
X-504Y66252D02*
X0D01*
X-9134Y102728D02*
Y104539D01*
X36909Y87303D02*
X38673Y89067D01*
X34350Y83563D02*
Y88090D01*
X-74803Y118110D02*
X-74803Y118110D01*
X2501Y99467D02*
X3682D01*
X2362Y99606D02*
X2501Y99467D01*
X3682D02*
X16142Y87008D01*
X-1181Y96063D02*
X2362Y99606D01*
X14173Y77953D02*
X17717Y81496D01*
X12205Y77953D02*
X16142Y81890D01*
X13673Y81390D02*
Y84646D01*
X10236Y68504D02*
Y77953D01*
X13673Y81390D01*
X14173Y69362D02*
Y77953D01*
X-11130Y104724D02*
X-9134Y102728D01*
X-8740Y104933D02*
X-8740D01*
X-471Y106132D02*
X543Y105118D01*
X-8740Y104933D02*
X-7541Y106132D01*
X543Y105118D02*
X787D01*
X-7541Y106132D02*
X-471D01*
X-74803Y118110D02*
X-64513Y107820D01*
X1235D02*
X4059Y104996D01*
X-64513Y107820D02*
X1235D01*
X-5039Y102335D02*
Y102728D01*
X22047Y71260D02*
X24902Y68405D01*
X4331Y96457D02*
X13673Y87114D01*
X21243Y68521D02*
Y68693D01*
Y68521D02*
X24016Y65748D01*
X42520Y118110D02*
Y118110D01*
Y93094D02*
Y118110D01*
Y118110D02*
Y127165D01*
X41339Y93866D02*
Y118110D01*
Y118110D01*
Y125984D01*
X29921Y137402D02*
X41339Y125984D01*
X-70472Y137402D02*
X29921D01*
X30315Y139370D02*
X42520Y127165D01*
X-71260Y139370D02*
X30315D01*
X32533Y89514D02*
X35933Y92913D01*
X-126772Y129921D02*
X237Y129921D01*
X32283Y89264D02*
X32533Y89514D01*
X-128347Y133858D02*
X-76772D01*
X-71260Y139370D01*
X-127559Y131890D02*
X-75984D01*
X-70472Y137402D01*
X-81890Y125197D02*
X-74803Y118110D01*
X-123487Y125197D02*
X-81890D01*
X-63709Y104724D02*
X-11130D01*
X-122835Y123622D02*
X-82607D01*
X-77095Y118110D02*
X-63709Y104724D01*
X-77095Y118110D02*
X-77095Y118110D01*
X-82607Y123622D02*
X-77095Y118110D01*
X-122024Y122047D02*
X-83466D01*
X-79529Y118110D02*
X-79529Y118110D01*
X-83466Y122047D02*
X-79529Y118110D01*
X-7444Y99931D02*
X-5039Y102335D01*
X-61349Y99931D02*
X-7444D01*
X-79529Y118110D02*
X-61349Y99931D01*
X44313Y-63109D02*
X46717Y-60705D01*
X6740Y-50288D02*
X6990Y-50038D01*
X15258Y-26522D02*
X18031Y-29295D01*
Y-29468D02*
Y-29295D01*
X14372Y-29180D02*
X17226Y-32034D01*
X44313Y-63503D02*
Y-63109D01*
X25600Y-45420D02*
Y-42164D01*
X4923Y-48865D02*
Y-44337D01*
X600Y-49841D02*
X2364Y-48077D01*
X42817Y-64605D02*
X43210D01*
X44313Y-63503D01*
X25600Y-47888D02*
Y-45420D01*
X297Y-49932D02*
X691D01*
X32954Y-89416D02*
X37757D01*
X24674Y-30563D02*
X25100Y-30136D01*
X24997Y-29292D02*
X25100Y-29436D01*
X24653Y-28810D02*
X24997Y-29292D01*
X25100Y-30136D02*
Y-29612D01*
X25100Y-29436D02*
X25100Y-29612D01*
X27069Y-32428D02*
Y-29672D01*
X9057Y-26522D02*
X15258D01*
X10041Y-29180D02*
X14372D01*
X25118Y-27234D02*
X27069Y-29672D01*
X7482Y-28097D02*
X9057Y-26522D01*
X7482Y-29180D02*
Y-28097D01*
X23525Y-28491D02*
X24496Y-28653D01*
X24653Y-28810D01*
X23525Y-26916D02*
X24768Y-27054D01*
X24960Y-27075D01*
X25118Y-27234D01*
X22287Y-25735D02*
X25494D01*
X21950Y-26916D02*
X21969Y-26053D01*
X22287Y-25735D01*
X6202Y-50144D02*
X6596D01*
X4923Y-48865D02*
X6202Y-50144D01*
X2364Y-48077D02*
Y-44337D01*
X23132Y-42664D02*
X27069Y-38727D01*
X23132Y-47782D02*
Y-42664D01*
X21557Y-48176D02*
Y-42270D01*
X22721Y-30563D02*
X24674D01*
X21557Y-42270D02*
X25100Y-38727D01*
Y-30136D01*
X37992Y-34823D02*
Y-34035D01*
X38780Y-27776D02*
X38827D01*
X37992Y-26988D02*
X38780Y-27776D01*
X37992Y-26988D02*
Y-26201D01*
X49313Y-64408D02*
X50100D01*
X52008Y-62500D02*
X52362D01*
X50100Y-64408D02*
X52008Y-62500D01*
X49313Y-64408D02*
X50403Y-65499D01*
X38827Y-27776D02*
X40039Y-28988D01*
X27069Y-38727D02*
Y-32428D01*
X37992Y-34823D02*
X38670Y-35500D01*
X36478Y-63097D02*
X38670Y-60906D01*
X31004Y-28811D02*
X32039Y-27776D01*
X32874Y-26988D02*
Y-26201D01*
X32039Y-27776D02*
X32087D01*
X32874Y-26988D01*
X32530Y-35461D02*
X32559Y-35432D01*
Y-34350D01*
X32874Y-34035D01*
X30709Y-40157D02*
X32530Y-38336D01*
Y-35461D01*
X25494Y-25735D02*
X28769Y-29010D01*
Y-38995D02*
Y-29010D01*
X25600Y-42164D02*
X28769Y-38995D01*
X31004Y-38287D02*
Y-28811D01*
X29429Y-39862D02*
X31004Y-38287D01*
X36759Y-60242D02*
X36831Y-60313D01*
X35591Y-60242D02*
X36759D01*
X38670Y-54024D02*
Y-35500D01*
X30709Y-46063D02*
X38670Y-54024D01*
Y-60906D02*
Y-54024D01*
X30709Y-46063D02*
Y-40157D01*
X37757Y-89416D02*
X39037Y-90696D01*
X109746Y-98176D02*
X115258Y-92664D01*
X110533Y-100144D02*
X116045Y-94633D01*
X29429Y-49016D02*
Y-39862D01*
Y-49016D02*
X29626Y-49213D01*
X8958Y-100144D02*
X110533D01*
X9352Y-98176D02*
X109746D01*
X-44193Y-69587D02*
X-42126Y-71653D01*
X-5512D01*
X3340Y-53688D02*
X6740Y-50288D01*
X-3246Y-87940D02*
Y-78884D01*
Y-78884D01*
Y-53869D02*
X-805Y-51428D01*
Y-51034D02*
X297Y-49932D01*
X-3246Y-87940D02*
X8958Y-100144D01*
X-2065Y-86759D02*
X9352Y-98176D01*
X-805Y-51428D02*
Y-51034D01*
X-2065Y-78884D02*
Y-78884D01*
Y-54640D02*
X-1113Y-53688D01*
X-2065Y-86759D02*
Y-78884D01*
X-1113Y-53688D02*
X3340D01*
X-2065Y-78884D02*
Y-54640D01*
X-3246Y-78884D02*
Y-53869D01*
X-44193Y-58248D02*
X-34331Y-68110D01*
X-5610D01*
X9154Y-71752D02*
X9252Y-71850D01*
X-98Y-71653D02*
X0Y-71752D01*
X9154D01*
X4872Y-68160D02*
X4921Y-68209D01*
X148Y-68160D02*
X4872D01*
X98Y-68110D02*
X148Y-68160D01*
X21063Y-60532D02*
X24123D01*
X11220Y-63287D02*
X14272D01*
X8760Y-65748D02*
X11220Y-63287D01*
X46717Y-60705D02*
X95646D01*
X50403Y-65499D02*
X98471D01*
X116045Y-94633D02*
X168064D01*
X115258Y-92664D02*
X167474D01*
X39037Y-90696D02*
X167375D01*
X118898Y-81496D02*
X162795D01*
X41831Y-63619D02*
X42817Y-64605D01*
X36478Y-63097D02*
X36911Y-63530D01*
X41742D01*
X40039Y-61955D02*
Y-28988D01*
D29*
X-135433Y-172835D02*
X-135433Y116929D01*
X-134252Y118110D02*
X-124803Y127559D01*
X-135433Y116929D02*
X-134252Y118110D01*
X175000Y212008D02*
X175000Y212008D01*
X175000Y-79823D02*
Y-78740D01*
X175000Y-78740D01*
Y212008D01*
X166490Y-88333D02*
X175000Y-79823D01*
X-3650Y127559D02*
X-2362Y126272D01*
X-124803Y127559D02*
X-3650Y127559D01*
X41636Y-87046D02*
X42923Y-88333D01*
X166490D01*
X35433Y-30118D02*
Y-26201D01*
X19685Y19685D02*
X35433Y3937D01*
Y-26201D02*
Y3937D01*
D30*
X-144489Y-166435D02*
Y-166170D01*
X-145276Y-167221D02*
X-144489Y-166435D01*
X-145276Y-172638D02*
Y-167221D01*
X183762Y205715D02*
X184449Y206402D01*
X183762Y205395D02*
Y205715D01*
X184449Y206402D02*
Y208366D01*
X15748Y73099D02*
X16209Y72638D01*
X18898D01*
X25795Y126083D02*
X25984Y126272D01*
X1862Y80579D02*
X3937Y78504D01*
X1862Y80579D02*
Y84646D01*
X3937Y77716D02*
Y78504D01*
X18898Y69291D02*
Y72638D01*
Y67716D02*
Y69291D01*
X17323Y67716D02*
X18898Y69291D01*
X15748Y73099D02*
Y77559D01*
X25984Y112205D02*
Y126272D01*
X21654Y93701D02*
Y107874D01*
X25984Y112205D01*
X32283Y105905D01*
X21654Y86485D02*
Y93701D01*
X21169Y86024D02*
X21192D01*
X21654Y86485D01*
X20079Y84933D02*
X21169Y86024D01*
X-10236Y110343D02*
X-3543D01*
X4435D01*
X15925Y125787D02*
X16220Y126083D01*
X15925Y121832D02*
Y125787D01*
X4435Y110343D02*
X15925Y121832D01*
X16220Y126083D02*
X17303D01*
X25795D01*
X-2173D02*
X6319D01*
X32283Y95776D02*
Y105905D01*
X1862Y84646D02*
X5799Y80709D01*
X15748Y77559D02*
X18898Y80709D01*
X20079D01*
X32283Y105905D02*
X38583Y99606D01*
Y95669D02*
Y99606D01*
X25591Y95488D02*
X28740Y92339D01*
X29157Y83638D02*
Y86197D01*
X25591Y89764D02*
X29157Y86197D01*
X21654Y93701D02*
X25591Y89764D01*
X29157Y83638D02*
X29232Y83563D01*
X31740Y83614D02*
X31791Y83563D01*
X28740Y88525D02*
X31740Y85525D01*
X28740Y88525D02*
Y92339D01*
X31740Y83614D02*
Y85525D01*
X5799Y80709D02*
X10236D01*
X25591Y95488D02*
Y95669D01*
X28346Y98425D01*
X-2362Y126272D02*
X-2268Y126177D01*
X-2173Y126083D01*
X41447Y-86857D02*
X41541Y-86951D01*
X41636Y-87046D01*
X10927Y-59199D02*
X13683Y-56444D01*
Y-56262D01*
X7534Y-46299D02*
Y-44389D01*
X10533Y-53113D02*
Y-49299D01*
X7534Y-46299D02*
X10533Y-49299D01*
X7482Y-44337D02*
X7534Y-44389D01*
X10041Y-44337D02*
X10116Y-44412D01*
X13683Y-50538D02*
X17620Y-54475D01*
X10116Y-46972D02*
X13683Y-50538D01*
X10116Y-46972D02*
Y-44412D01*
X10533Y-53113D02*
X13683Y-56262D01*
X691Y-60381D02*
Y-56444D01*
X32954Y-86857D02*
X41447D01*
X13478D02*
X21970D01*
X17620Y-47259D02*
X18081Y-46798D01*
X18104D01*
X17620Y-54475D02*
Y-47259D01*
X20376Y-30066D02*
X21950Y-28491D01*
X20376Y-30066D02*
Y-28491D01*
Y-33412D02*
Y-30066D01*
X13289Y-87046D02*
X13478Y-86857D01*
X20376Y-33412D02*
X23064D01*
X23525Y-38333D02*
Y-33873D01*
X23064Y-33412D02*
X23525Y-33873D01*
X22010Y-39848D02*
X23525Y-38333D01*
X21101Y-39848D02*
X22010D01*
X20276Y-40354D02*
X20595D01*
X20073Y-44829D02*
Y-40557D01*
X20595Y-40354D02*
X21101Y-39848D01*
X20073Y-40557D02*
X20276Y-40354D01*
X33957Y-41035D02*
X35531Y-39461D01*
X32677Y-41043D02*
X32685Y-41035D01*
X33957D01*
X18104Y-46798D02*
X20073Y-44829D01*
X20079Y80709D02*
Y84933D01*
X42423Y-71117D02*
X49510D01*
X13289Y-87046D02*
Y-72979D01*
X6990Y-66680D02*
X13289Y-72979D01*
X40954D02*
X41439Y-72495D01*
Y-72101D02*
X42423Y-71117D01*
X41439Y-72495D02*
Y-72101D01*
X13289Y-72979D02*
X40954D01*
X6990Y-66680D02*
Y-56550D01*
X691Y-60381D02*
X6990Y-66680D01*
X13289Y-72979D02*
X17620Y-68648D01*
X21970Y-86857D02*
X23053D01*
X23348Y-86562D01*
X17620Y-68648D02*
Y-54475D01*
X3188Y-87046D02*
X13289D01*
X-48130Y-75492D02*
Y-69587D01*
X-394Y-83465D02*
X3188Y-87046D01*
X-394Y-83465D02*
Y-83169D01*
X-48130Y-75492D02*
X-48031Y-75590D01*
X-40354Y-83268D01*
X-5217D01*
X-53756Y-78429D02*
Y-75590D01*
Y-78429D02*
X-53150Y-79035D01*
X17620Y-68648D02*
X19733Y-66535D01*
X24984D01*
D31*
X40650Y72146D02*
Y74705D01*
Y77264D01*
Y79823D01*
X36909Y36909D02*
Y60630D01*
X2364Y2316D02*
X19588Y19541D01*
X2364Y-21404D02*
Y2316D01*
X-1376Y-40597D02*
Y-38038D01*
Y-35479D01*
Y-32920D01*
X19685Y19685D02*
X36909Y36909D01*
X3937Y35433D02*
X18898Y20472D01*
X3937Y35433D02*
Y66378D01*
Y72047D01*
X-48130Y-63917D02*
Y-58248D01*
Y-52854D02*
X-48031Y-52756D01*
X-48130Y-58248D02*
Y-52854D01*
X-1376Y-32920D02*
X2364Y-29180D01*
Y-21404D01*
X36909Y60630D02*
Y68405D01*
X40650Y72146D01*
D32*
X34350Y61516D02*
X35236Y60630D01*
X33071Y75984D02*
X34350Y74705D01*
Y68405D02*
Y74705D01*
X4923Y-35479D02*
Y-29180D01*
Y-22290D01*
Y-35479D02*
X6202Y-36758D01*
X2364Y-21404D02*
X4037D01*
X4923Y-22290D01*
X35236Y60630D02*
X36909D01*
X34350Y61516D02*
Y68405D01*
D33*
X25492Y74705D02*
X31791D01*
X25492Y72146D02*
X29232D01*
X31791Y74705D01*
X33071Y75984D01*
X25492Y77264D02*
X31791D01*
X29232Y79823D02*
X31791Y77264D01*
X33071Y75984D01*
X31791Y77264D02*
Y83563D01*
X19724Y77008D02*
X22539Y79823D01*
X19724Y76929D02*
Y77008D01*
X18976Y76181D02*
X19724Y76929D01*
X18898Y76181D02*
X18976D01*
X7587Y84646D02*
X8965Y86024D01*
Y87098D01*
X-2362Y133571D02*
X2255D01*
X2543Y133858D02*
X2756D01*
X2255Y133571D02*
X2543Y133858D01*
X2756D02*
X2805Y133809D01*
X6270D01*
X6319Y133760D01*
X21260Y133465D02*
X25878D01*
X25984Y133571D01*
X22539Y79823D02*
X25492D01*
X29232D01*
X8965Y87098D02*
X9449Y87582D01*
Y87795D01*
X18898Y20472D02*
X19685Y19685D01*
X10041Y-40597D02*
X13781D01*
X16734D01*
X13289Y-94345D02*
X13395Y-94239D01*
X18013D01*
X32954Y-94534D02*
X33004Y-94583D01*
X36468D01*
X36517Y-94633D01*
X36731D02*
X37018Y-94345D01*
X36517Y-94633D02*
X36731D01*
X37018Y-94345D02*
X41636D01*
X20297Y-36955D02*
X20376D01*
X19549Y-37703D02*
X20297Y-36955D01*
X19549Y-37782D02*
Y-37703D01*
X16734Y-40597D02*
X19549Y-37782D01*
X7482Y-44337D02*
Y-38038D01*
X6202Y-36758D02*
X7482Y-38038D01*
X10041Y-40597D01*
X7482Y-38038D02*
X13781D01*
X6202Y-36758D02*
X7482Y-35479D01*
X10041Y-32920D01*
X13781D01*
X7482Y-35479D02*
X13781D01*
X20376Y-26916D02*
Y18753D01*
X18898Y20472D02*
Y66142D01*
X35531Y-39461D02*
Y-34921D01*
X35433Y-34823D02*
Y-34035D01*
Y-34823D02*
X35531Y-34921D01*
X36909Y-48327D02*
X37008Y-48425D01*
X35531Y-45185D02*
X36909Y-46563D01*
Y-48327D02*
Y-46563D01*
D34*
X-90551Y98425D02*
D03*
X129921Y-59055D02*
D03*
Y-122047D02*
D03*
X35433D02*
D03*
X3937D02*
D03*
X-59055D02*
D03*
X-27559D02*
D03*
X98425D02*
D03*
X66929D02*
D03*
X129921Y161417D02*
D03*
X35433D02*
D03*
X3937D02*
D03*
X-59055D02*
D03*
X-27559D02*
D03*
X98425D02*
D03*
X66929D02*
D03*
X-90551D02*
D03*
X129921Y129921D02*
D03*
Y35433D02*
D03*
Y3937D02*
D03*
Y-27559D02*
D03*
Y98425D02*
D03*
Y66929D02*
D03*
X-90551Y-122047D02*
D03*
Y-90551D02*
D03*
Y-59055D02*
D03*
Y-27559D02*
D03*
Y3937D02*
D03*
Y35433D02*
D03*
Y66929D02*
D03*
D35*
X167913Y212008D02*
D03*
D36*
X169095D02*
D03*
X171457D02*
D03*
X173819D02*
D03*
X176181D02*
D03*
X178543D02*
D03*
X180905D02*
D03*
X183268D02*
D03*
D37*
X170276D02*
D03*
X172638D02*
D03*
X175000D02*
D03*
X177362D02*
D03*
X179724D02*
D03*
X182087D02*
D03*
D38*
X184449D02*
D03*
D39*
X-128543Y-172638D02*
D03*
D40*
X-129724D02*
D03*
X-132087D02*
D03*
X-134449D02*
D03*
X-136811D02*
D03*
X-139173D02*
D03*
X-141535D02*
D03*
X-143898D02*
D03*
D41*
X-130905D02*
D03*
X-133268D02*
D03*
X-135630D02*
D03*
X-137992D02*
D03*
X-140354D02*
D03*
X-142717D02*
D03*
D42*
X-145079D02*
D03*
D43*
X37402Y-70472D02*
D03*
X114961Y-77559D02*
D03*
X29134Y-58268D02*
D03*
X-52756Y-52756D02*
D03*
Y-49606D02*
D03*
X-50394Y-51181D02*
D03*
X-52756Y-46457D02*
D03*
X-50394Y-48031D02*
D03*
Y-44882D02*
D03*
X-52756Y-43307D02*
D03*
Y-40157D02*
D03*
X-50394Y-41732D02*
D03*
X-52756Y-37008D02*
D03*
X-50394Y-38583D02*
D03*
Y-35433D02*
D03*
X-52756Y-33858D02*
D03*
Y-30709D02*
D03*
X-50394Y-32283D02*
D03*
X-52756Y-27559D02*
D03*
X-50394Y-29134D02*
D03*
Y-25984D02*
D03*
X-52756Y-24409D02*
D03*
Y-21260D02*
D03*
X-50394Y-22835D02*
D03*
X-52756Y-18110D02*
D03*
X-50394Y-19685D02*
D03*
Y-16535D02*
D03*
X-52756Y-14961D02*
D03*
Y-11811D02*
D03*
X-50394Y-13386D02*
D03*
X-52756Y-8661D02*
D03*
X-50394Y-10236D02*
D03*
Y-7087D02*
D03*
X-52756Y-5512D02*
D03*
Y-2362D02*
D03*
X-50394Y-3937D02*
D03*
X-52756Y787D02*
D03*
X-50394Y-787D02*
D03*
Y2362D02*
D03*
X-52756Y3937D02*
D03*
Y7087D02*
D03*
X-50394Y5512D02*
D03*
X-52756Y10236D02*
D03*
X-50394Y8661D02*
D03*
Y11811D02*
D03*
X-52756Y13386D02*
D03*
Y16535D02*
D03*
X-50394Y14961D02*
D03*
X-52756Y19685D02*
D03*
X-50394Y18110D02*
D03*
Y21260D02*
D03*
X-52756Y22835D02*
D03*
Y25984D02*
D03*
X-50394Y24409D02*
D03*
X-52756Y29134D02*
D03*
X-50394Y27559D02*
D03*
Y30709D02*
D03*
X-52756Y32283D02*
D03*
Y35433D02*
D03*
X-50394Y33858D02*
D03*
X-52756Y38583D02*
D03*
X-50394Y37008D02*
D03*
Y40157D02*
D03*
X-52756Y41732D02*
D03*
Y44882D02*
D03*
X-50394Y43307D02*
D03*
X-52756Y48031D02*
D03*
X-50394Y46457D02*
D03*
Y49606D02*
D03*
X-52756Y51181D02*
D03*
Y54331D02*
D03*
X-50394Y52756D02*
D03*
X-52756Y57480D02*
D03*
X-50394Y55905D02*
D03*
Y59055D02*
D03*
X-52756Y60630D02*
D03*
Y63779D02*
D03*
X-50394Y62205D02*
D03*
X-52756Y66929D02*
D03*
X-50394Y65354D02*
D03*
Y68504D02*
D03*
X-52756Y70079D02*
D03*
Y73228D02*
D03*
X-50394Y71653D02*
D03*
X-52756Y76378D02*
D03*
X-50394Y74803D02*
D03*
Y77953D02*
D03*
X-52756Y79527D02*
D03*
Y82677D02*
D03*
X-50394Y81102D02*
D03*
X-52756Y85827D02*
D03*
X-50394Y84252D02*
D03*
Y87402D02*
D03*
X-52756Y88976D02*
D03*
Y92126D02*
D03*
X-50394Y90551D02*
D03*
X-48031Y-52756D02*
D03*
Y-49606D02*
D03*
X-45669Y-51181D02*
D03*
X-48031Y-46457D02*
D03*
X-45669Y-48031D02*
D03*
Y-44882D02*
D03*
X-48031Y-43307D02*
D03*
Y-40157D02*
D03*
X-45669Y-41732D02*
D03*
X-48031Y-37008D02*
D03*
X-45669Y-38583D02*
D03*
Y-35433D02*
D03*
X-48031Y-33858D02*
D03*
Y-30709D02*
D03*
X-45669Y-32283D02*
D03*
X-48031Y-27559D02*
D03*
X-45669Y-29134D02*
D03*
Y-25984D02*
D03*
X-48031Y-24409D02*
D03*
Y-21260D02*
D03*
X-45669Y-22835D02*
D03*
X-48031Y-18110D02*
D03*
X-45669Y-19685D02*
D03*
Y-16535D02*
D03*
X-48031Y-14961D02*
D03*
Y-11811D02*
D03*
X-45669Y-13386D02*
D03*
X-48031Y-8661D02*
D03*
X-45669Y-10236D02*
D03*
Y-7087D02*
D03*
X-48031Y-5512D02*
D03*
Y-2362D02*
D03*
X-45669Y-3937D02*
D03*
X-48031Y787D02*
D03*
X-45669Y-787D02*
D03*
Y2362D02*
D03*
X-48031Y3937D02*
D03*
Y7087D02*
D03*
X-45669Y5512D02*
D03*
X-48031Y10236D02*
D03*
X-45669Y8661D02*
D03*
Y11811D02*
D03*
X-48031Y13386D02*
D03*
Y16535D02*
D03*
X-45669Y14961D02*
D03*
X-48031Y19685D02*
D03*
X-45669Y18110D02*
D03*
Y21260D02*
D03*
X-48031Y22835D02*
D03*
Y25984D02*
D03*
X-45669Y24409D02*
D03*
X-48031Y29134D02*
D03*
X-45669Y27559D02*
D03*
Y30709D02*
D03*
X-48031Y32283D02*
D03*
Y35433D02*
D03*
X-45669Y33858D02*
D03*
X-48031Y38583D02*
D03*
X-45669Y37008D02*
D03*
Y40157D02*
D03*
X-48031Y41732D02*
D03*
Y44882D02*
D03*
X-45669Y43307D02*
D03*
X-48031Y48031D02*
D03*
X-45669Y46457D02*
D03*
Y49606D02*
D03*
X-48031Y51181D02*
D03*
Y54331D02*
D03*
X-45669Y52756D02*
D03*
X-48031Y57480D02*
D03*
X-45669Y55905D02*
D03*
Y59055D02*
D03*
X-48031Y60630D02*
D03*
Y63779D02*
D03*
X-45669Y62205D02*
D03*
X-48031Y66929D02*
D03*
X-45669Y65354D02*
D03*
Y68504D02*
D03*
X-48031Y70079D02*
D03*
Y73228D02*
D03*
X-45669Y71653D02*
D03*
X-48031Y76378D02*
D03*
X-45669Y74803D02*
D03*
Y77953D02*
D03*
X-48031Y79527D02*
D03*
Y82677D02*
D03*
X-45669Y81102D02*
D03*
X-48031Y85827D02*
D03*
X-45669Y84252D02*
D03*
Y87402D02*
D03*
X-48031Y88976D02*
D03*
Y92126D02*
D03*
X-45669Y90551D02*
D03*
X-43307Y-52756D02*
D03*
Y-49606D02*
D03*
X-40945Y-51181D02*
D03*
X-43307Y-46457D02*
D03*
X-40945Y-48031D02*
D03*
Y-44882D02*
D03*
X-43307Y-43307D02*
D03*
Y-40157D02*
D03*
X-40945Y-41732D02*
D03*
X-43307Y-37008D02*
D03*
X-40945Y-38583D02*
D03*
Y-35433D02*
D03*
X-43307Y-33858D02*
D03*
Y-30709D02*
D03*
X-40945Y-32283D02*
D03*
X-43307Y-27559D02*
D03*
X-40945Y-29134D02*
D03*
Y-25984D02*
D03*
X-43307Y-24409D02*
D03*
Y-21260D02*
D03*
X-40945Y-22835D02*
D03*
X-43307Y-18110D02*
D03*
X-40945Y-19685D02*
D03*
Y-16535D02*
D03*
X-43307Y-14961D02*
D03*
Y-11811D02*
D03*
X-40945Y-13386D02*
D03*
X-43307Y-8661D02*
D03*
X-40945Y-10236D02*
D03*
Y-7087D02*
D03*
X-43307Y-5512D02*
D03*
Y-2362D02*
D03*
X-40945Y-3937D02*
D03*
X-43307Y787D02*
D03*
X-40945Y-787D02*
D03*
Y2362D02*
D03*
X-43307Y3937D02*
D03*
Y7087D02*
D03*
X-40945Y5512D02*
D03*
X-43307Y10236D02*
D03*
X-40945Y8661D02*
D03*
Y11811D02*
D03*
X-43307Y13386D02*
D03*
Y16535D02*
D03*
X-40945Y14961D02*
D03*
X-43307Y19685D02*
D03*
X-40945Y18110D02*
D03*
Y21260D02*
D03*
X-43307Y22835D02*
D03*
Y25984D02*
D03*
X-40945Y24409D02*
D03*
X-43307Y29134D02*
D03*
X-40945Y27559D02*
D03*
Y30709D02*
D03*
X-43307Y32283D02*
D03*
Y35433D02*
D03*
X-40945Y33858D02*
D03*
X-43307Y38583D02*
D03*
X-40945Y37008D02*
D03*
Y40157D02*
D03*
X-43307Y41732D02*
D03*
Y44882D02*
D03*
X-40945Y43307D02*
D03*
X-43307Y48031D02*
D03*
X-40945Y46457D02*
D03*
Y49606D02*
D03*
X-43307Y51181D02*
D03*
Y54331D02*
D03*
X-40945Y52756D02*
D03*
X-43307Y57480D02*
D03*
X-40945Y55905D02*
D03*
Y59055D02*
D03*
X-43307Y60630D02*
D03*
Y63779D02*
D03*
X-40945Y62205D02*
D03*
X-43307Y66929D02*
D03*
X-40945Y65354D02*
D03*
Y68504D02*
D03*
X-43307Y70079D02*
D03*
Y73228D02*
D03*
X-40945Y71653D02*
D03*
X-43307Y76378D02*
D03*
X-40945Y74803D02*
D03*
Y77953D02*
D03*
X-43307Y79527D02*
D03*
Y82677D02*
D03*
X-40945Y81102D02*
D03*
X-43307Y85827D02*
D03*
X-40945Y84252D02*
D03*
Y87402D02*
D03*
X-43307Y88976D02*
D03*
Y92126D02*
D03*
X-40945Y90551D02*
D03*
X92174Y92148D02*
D03*
Y88998D02*
D03*
X89812Y90573D02*
D03*
X92174Y85849D02*
D03*
X89812Y87423D02*
D03*
Y84274D02*
D03*
X92174Y82699D02*
D03*
Y79549D02*
D03*
X89812Y81124D02*
D03*
X92174Y76400D02*
D03*
X89812Y77974D02*
D03*
Y74825D02*
D03*
X92174Y73250D02*
D03*
Y70100D02*
D03*
X89812Y71675D02*
D03*
X92174Y66951D02*
D03*
X89812Y68526D02*
D03*
Y65376D02*
D03*
X92174Y63801D02*
D03*
Y60652D02*
D03*
X89812Y62226D02*
D03*
X92174Y57502D02*
D03*
X89812Y59077D02*
D03*
Y55927D02*
D03*
X92174Y54352D02*
D03*
Y51203D02*
D03*
X89812Y52778D02*
D03*
X92174Y48053D02*
D03*
X89812Y49628D02*
D03*
Y46479D02*
D03*
X92174Y44904D02*
D03*
Y41754D02*
D03*
X89812Y43329D02*
D03*
X92174Y38605D02*
D03*
X89812Y40179D02*
D03*
Y37030D02*
D03*
X92174Y35455D02*
D03*
Y32305D02*
D03*
X89812Y33880D02*
D03*
X92174Y29156D02*
D03*
X89812Y30731D02*
D03*
Y27581D02*
D03*
X92174Y26006D02*
D03*
Y22857D02*
D03*
X89812Y24431D02*
D03*
X92174Y19707D02*
D03*
X89812Y21282D02*
D03*
Y18132D02*
D03*
X92174Y16557D02*
D03*
Y13408D02*
D03*
X89812Y14982D02*
D03*
X92174Y10258D02*
D03*
X89812Y11833D02*
D03*
Y8683D02*
D03*
X92174Y7108D02*
D03*
Y3959D02*
D03*
X89812Y5534D02*
D03*
X92174Y809D02*
D03*
X89812Y2384D02*
D03*
Y-766D02*
D03*
X92174Y-2340D02*
D03*
Y-5490D02*
D03*
X89812Y-3915D02*
D03*
X92174Y-8640D02*
D03*
X89812Y-7065D02*
D03*
Y-10214D02*
D03*
X92174Y-11789D02*
D03*
Y-14939D02*
D03*
X89812Y-13364D02*
D03*
X92174Y-18088D02*
D03*
X89812Y-16514D02*
D03*
Y-19663D02*
D03*
X92174Y-21238D02*
D03*
Y-24388D02*
D03*
X89812Y-22813D02*
D03*
X92174Y-27537D02*
D03*
X89812Y-25962D02*
D03*
Y-29112D02*
D03*
X92174Y-30687D02*
D03*
Y-33836D02*
D03*
X89812Y-32262D02*
D03*
X92174Y-36986D02*
D03*
X89812Y-35411D02*
D03*
Y-38561D02*
D03*
X92174Y-40136D02*
D03*
Y-43285D02*
D03*
X89812Y-41710D02*
D03*
X92174Y-46435D02*
D03*
X89812Y-44860D02*
D03*
Y-48010D02*
D03*
X92174Y-49584D02*
D03*
Y-52734D02*
D03*
X89812Y-51159D02*
D03*
X87450Y92148D02*
D03*
Y88998D02*
D03*
X85087Y90573D02*
D03*
X87450Y85849D02*
D03*
X85087Y87423D02*
D03*
Y84274D02*
D03*
X87450Y82699D02*
D03*
Y79549D02*
D03*
X85087Y81124D02*
D03*
X87450Y76400D02*
D03*
X85087Y77974D02*
D03*
Y74825D02*
D03*
X87450Y73250D02*
D03*
Y70100D02*
D03*
X85087Y71675D02*
D03*
X87450Y66951D02*
D03*
X85087Y68526D02*
D03*
Y65376D02*
D03*
X87450Y63801D02*
D03*
Y60652D02*
D03*
X85087Y62226D02*
D03*
X87450Y57502D02*
D03*
X85087Y59077D02*
D03*
Y55927D02*
D03*
X87450Y54352D02*
D03*
Y51203D02*
D03*
X85087Y52778D02*
D03*
X87450Y48053D02*
D03*
X85087Y49628D02*
D03*
Y46479D02*
D03*
X87450Y44904D02*
D03*
Y41754D02*
D03*
X85087Y43329D02*
D03*
X87450Y38605D02*
D03*
X85087Y40179D02*
D03*
Y37030D02*
D03*
X87450Y35455D02*
D03*
Y32305D02*
D03*
X85087Y33880D02*
D03*
X87450Y29156D02*
D03*
X85087Y30731D02*
D03*
Y27581D02*
D03*
X87450Y26006D02*
D03*
Y22857D02*
D03*
X85087Y24431D02*
D03*
X87450Y19707D02*
D03*
X85087Y21282D02*
D03*
Y18132D02*
D03*
X87450Y16557D02*
D03*
Y13408D02*
D03*
X85087Y14982D02*
D03*
X87450Y10258D02*
D03*
X85087Y11833D02*
D03*
Y8683D02*
D03*
X87450Y7108D02*
D03*
Y3959D02*
D03*
X85087Y5534D02*
D03*
X87450Y809D02*
D03*
X85087Y2384D02*
D03*
Y-766D02*
D03*
X87450Y-2340D02*
D03*
Y-5490D02*
D03*
X85087Y-3915D02*
D03*
X87450Y-8640D02*
D03*
X85087Y-7065D02*
D03*
Y-10214D02*
D03*
X87450Y-11789D02*
D03*
Y-14939D02*
D03*
X85087Y-13364D02*
D03*
X87450Y-18088D02*
D03*
X85087Y-16514D02*
D03*
Y-19663D02*
D03*
X87450Y-21238D02*
D03*
Y-24388D02*
D03*
X85087Y-22813D02*
D03*
X87450Y-27537D02*
D03*
X85087Y-25962D02*
D03*
Y-29112D02*
D03*
X87450Y-30687D02*
D03*
Y-33836D02*
D03*
X85087Y-32262D02*
D03*
X87450Y-36986D02*
D03*
X85087Y-35411D02*
D03*
Y-38561D02*
D03*
X87450Y-40136D02*
D03*
Y-43285D02*
D03*
X85087Y-41710D02*
D03*
X87450Y-46435D02*
D03*
X85087Y-44860D02*
D03*
Y-48010D02*
D03*
X87450Y-49584D02*
D03*
Y-52734D02*
D03*
X85087Y-51159D02*
D03*
X82725Y92148D02*
D03*
Y88998D02*
D03*
X80363Y90573D02*
D03*
X82725Y85849D02*
D03*
X80363Y87423D02*
D03*
Y84274D02*
D03*
X82725Y82699D02*
D03*
Y79549D02*
D03*
X80363Y81124D02*
D03*
X82725Y76400D02*
D03*
X80363Y77974D02*
D03*
Y74825D02*
D03*
X82725Y73250D02*
D03*
Y70100D02*
D03*
X80363Y71675D02*
D03*
X82725Y66951D02*
D03*
X80363Y68526D02*
D03*
Y65376D02*
D03*
X82725Y63801D02*
D03*
Y60652D02*
D03*
X80363Y62226D02*
D03*
X82725Y57502D02*
D03*
X80363Y59077D02*
D03*
Y55927D02*
D03*
X82725Y54352D02*
D03*
Y51203D02*
D03*
X80363Y52778D02*
D03*
X82725Y48053D02*
D03*
X80363Y49628D02*
D03*
Y46479D02*
D03*
X82725Y44904D02*
D03*
Y41754D02*
D03*
X80363Y43329D02*
D03*
X82725Y38605D02*
D03*
X80363Y40179D02*
D03*
Y37030D02*
D03*
X82725Y35455D02*
D03*
Y32305D02*
D03*
X80363Y33880D02*
D03*
X82725Y29156D02*
D03*
X80363Y30731D02*
D03*
Y27581D02*
D03*
X82725Y26006D02*
D03*
Y22857D02*
D03*
X80363Y24431D02*
D03*
X82725Y19707D02*
D03*
X80363Y21282D02*
D03*
Y18132D02*
D03*
X82725Y16557D02*
D03*
Y13408D02*
D03*
X80363Y14982D02*
D03*
X82725Y10258D02*
D03*
X80363Y11833D02*
D03*
Y8683D02*
D03*
X82725Y7108D02*
D03*
Y3959D02*
D03*
X80363Y5534D02*
D03*
X82725Y809D02*
D03*
X80363Y2384D02*
D03*
Y-766D02*
D03*
X82725Y-2340D02*
D03*
Y-5490D02*
D03*
X80363Y-3915D02*
D03*
X82725Y-8640D02*
D03*
X80363Y-7065D02*
D03*
Y-10214D02*
D03*
X82725Y-11789D02*
D03*
Y-14939D02*
D03*
X80363Y-13364D02*
D03*
X82725Y-18088D02*
D03*
X80363Y-16514D02*
D03*
Y-19663D02*
D03*
X82725Y-21238D02*
D03*
Y-24388D02*
D03*
X80363Y-22813D02*
D03*
X82725Y-27537D02*
D03*
X80363Y-25962D02*
D03*
Y-29112D02*
D03*
X82725Y-30687D02*
D03*
Y-33836D02*
D03*
X80363Y-32262D02*
D03*
X82725Y-36986D02*
D03*
X80363Y-35411D02*
D03*
Y-38561D02*
D03*
X82725Y-40136D02*
D03*
Y-43285D02*
D03*
X80363Y-41710D02*
D03*
X82725Y-46435D02*
D03*
X80363Y-44860D02*
D03*
Y-48010D02*
D03*
X82725Y-49584D02*
D03*
Y-52734D02*
D03*
X80363Y-51159D02*
D03*
X-37008Y-40945D02*
D03*
X-38583Y-43307D02*
D03*
X-35433D02*
D03*
X-33858Y-40945D02*
D03*
X-30709D02*
D03*
X-32283Y-43307D02*
D03*
X-27559Y-40945D02*
D03*
X-29134Y-43307D02*
D03*
X-25984D02*
D03*
X-24409Y-40945D02*
D03*
X-21260D02*
D03*
X-22835Y-43307D02*
D03*
X-18110Y-40945D02*
D03*
X-19685Y-43307D02*
D03*
X-16535D02*
D03*
X-14961Y-40945D02*
D03*
X-11811D02*
D03*
X-13386Y-43307D02*
D03*
X-8661Y-40945D02*
D03*
X-10236Y-43307D02*
D03*
X48031Y-40945D02*
D03*
X49606Y-43307D02*
D03*
X51181Y-40945D02*
D03*
X54331D02*
D03*
X52756Y-43307D02*
D03*
X57480Y-40945D02*
D03*
X55905Y-43307D02*
D03*
X59055D02*
D03*
X60630Y-40945D02*
D03*
X63779D02*
D03*
X62205Y-43307D02*
D03*
X66929Y-40945D02*
D03*
X65354Y-43307D02*
D03*
X68504D02*
D03*
X70079Y-40945D02*
D03*
X73228D02*
D03*
X71653Y-43307D02*
D03*
X76378Y-40945D02*
D03*
X74803Y-43307D02*
D03*
X77953D02*
D03*
X-37008Y-45669D02*
D03*
X-38583Y-48031D02*
D03*
X-35433D02*
D03*
X-33858Y-45669D02*
D03*
X-30709D02*
D03*
X-32283Y-48031D02*
D03*
X-27559Y-45669D02*
D03*
X-29134Y-48031D02*
D03*
X-25984D02*
D03*
X-24409Y-45669D02*
D03*
X-21260D02*
D03*
X-22835Y-48031D02*
D03*
X-18110Y-45669D02*
D03*
X-19685Y-48031D02*
D03*
X-16535D02*
D03*
X-14961Y-45669D02*
D03*
X-11811D02*
D03*
X-13386Y-48031D02*
D03*
X-8661Y-45669D02*
D03*
X-10236Y-48031D02*
D03*
X48031Y-45669D02*
D03*
X49606Y-48031D02*
D03*
X51181Y-45669D02*
D03*
X54331D02*
D03*
X52756Y-48031D02*
D03*
X57480Y-45669D02*
D03*
X55905Y-48031D02*
D03*
X59055D02*
D03*
X60630Y-45669D02*
D03*
X63779D02*
D03*
X62205Y-48031D02*
D03*
X66929Y-45669D02*
D03*
X65354Y-48031D02*
D03*
X68504D02*
D03*
X70079Y-45669D02*
D03*
X73228D02*
D03*
X71653Y-48031D02*
D03*
X76378Y-45669D02*
D03*
X74803Y-48031D02*
D03*
X77953D02*
D03*
X-37008Y-50394D02*
D03*
X-38583Y-52756D02*
D03*
X-35433D02*
D03*
X-33858Y-50394D02*
D03*
X-30709D02*
D03*
X-32283Y-52756D02*
D03*
X-27559Y-50394D02*
D03*
X-29134Y-52756D02*
D03*
X-25984D02*
D03*
X-24409Y-50394D02*
D03*
X-21260D02*
D03*
X-22835Y-52756D02*
D03*
X-18110Y-50394D02*
D03*
X-19685Y-52756D02*
D03*
X-16535D02*
D03*
X-14961Y-50394D02*
D03*
X-11811D02*
D03*
X-13386Y-52756D02*
D03*
X-8661Y-50394D02*
D03*
X-10236Y-52756D02*
D03*
X48031Y-50394D02*
D03*
X49606Y-52756D02*
D03*
X51181Y-50394D02*
D03*
X54331D02*
D03*
X52756Y-52756D02*
D03*
X57480Y-50394D02*
D03*
X55905Y-52756D02*
D03*
X59055D02*
D03*
X60630Y-50394D02*
D03*
X63779D02*
D03*
X62205Y-52756D02*
D03*
X66929Y-50394D02*
D03*
X65354Y-52756D02*
D03*
X68504D02*
D03*
X70079Y-50394D02*
D03*
X73228D02*
D03*
X71653Y-52756D02*
D03*
X76378Y-50394D02*
D03*
X74803Y-52756D02*
D03*
X77953D02*
D03*
X76378Y80315D02*
D03*
X77953Y82677D02*
D03*
X74803D02*
D03*
X73228Y80315D02*
D03*
X70079D02*
D03*
X71653Y82677D02*
D03*
X66929Y80315D02*
D03*
X68504Y82677D02*
D03*
X65354D02*
D03*
X63779Y80315D02*
D03*
X60630D02*
D03*
X62205Y82677D02*
D03*
X57480Y80315D02*
D03*
X59055Y82677D02*
D03*
X55905D02*
D03*
X54331Y80315D02*
D03*
X51181D02*
D03*
X52756Y82677D02*
D03*
X48031Y80315D02*
D03*
X49606Y82677D02*
D03*
X-8661Y80315D02*
D03*
X-10236Y82677D02*
D03*
X-11811Y80315D02*
D03*
X-14961D02*
D03*
X-13386Y82677D02*
D03*
X-18110Y80315D02*
D03*
X-16535Y82677D02*
D03*
X-19685D02*
D03*
X-21260Y80315D02*
D03*
X-24409D02*
D03*
X-22835Y82677D02*
D03*
X-27559Y80315D02*
D03*
X-25984Y82677D02*
D03*
X-29134D02*
D03*
X-30709Y80315D02*
D03*
X-33858D02*
D03*
X-32283Y82677D02*
D03*
X-37008Y80315D02*
D03*
X-35433Y82677D02*
D03*
X-38583D02*
D03*
X76378Y85039D02*
D03*
X77953Y87402D02*
D03*
X74803D02*
D03*
X73228Y85039D02*
D03*
X70079D02*
D03*
X71653Y87402D02*
D03*
X66929Y85039D02*
D03*
X68504Y87402D02*
D03*
X65354D02*
D03*
X63779Y85039D02*
D03*
X60630D02*
D03*
X62205Y87402D02*
D03*
X57480Y85039D02*
D03*
X59055Y87402D02*
D03*
X55905D02*
D03*
X54331Y85039D02*
D03*
X51181D02*
D03*
X52756Y87402D02*
D03*
X48031Y85039D02*
D03*
X49606Y87402D02*
D03*
X-8661Y85039D02*
D03*
X-10236Y87402D02*
D03*
X-11811Y85039D02*
D03*
X-14961D02*
D03*
X-13386Y87402D02*
D03*
X-18110Y85039D02*
D03*
X-16535Y87402D02*
D03*
X-19685D02*
D03*
X-21260Y85039D02*
D03*
X-24409D02*
D03*
X-22835Y87402D02*
D03*
X-27559Y85039D02*
D03*
X-25984Y87402D02*
D03*
X-29134D02*
D03*
X-30709Y85039D02*
D03*
X-33858D02*
D03*
X-32283Y87402D02*
D03*
X-37008Y85039D02*
D03*
X-35433Y87402D02*
D03*
X-38583D02*
D03*
X76378Y89764D02*
D03*
X77953Y92126D02*
D03*
X74803D02*
D03*
X73228Y89764D02*
D03*
X70079D02*
D03*
X71653Y92126D02*
D03*
X66929Y89764D02*
D03*
X68504Y92126D02*
D03*
X65354D02*
D03*
X63779Y89764D02*
D03*
X60630D02*
D03*
X62205Y92126D02*
D03*
X57480Y89764D02*
D03*
X59055Y92126D02*
D03*
X55905D02*
D03*
X54331Y89764D02*
D03*
X51181D02*
D03*
X52756Y92126D02*
D03*
X48031Y89764D02*
D03*
X49606Y92126D02*
D03*
X-8661Y89764D02*
D03*
X-10236Y92126D02*
D03*
X-11811Y89764D02*
D03*
X-14961D02*
D03*
X-13386Y92126D02*
D03*
X-18110Y89764D02*
D03*
X-16535Y92126D02*
D03*
X-19685D02*
D03*
X-21260Y89764D02*
D03*
X-24409D02*
D03*
X-22835Y92126D02*
D03*
X-27559Y89764D02*
D03*
X-25984Y92126D02*
D03*
X-29134D02*
D03*
X-30709Y89764D02*
D03*
X-33858D02*
D03*
X-32283Y92126D02*
D03*
X-37008Y89764D02*
D03*
X-35433Y92126D02*
D03*
X-38583D02*
D03*
X-144489Y-166170D02*
D03*
X16553Y69788D02*
D03*
X4331Y103543D02*
D03*
X787Y105118D02*
D03*
X2362Y99606D02*
D03*
X9449Y87795D02*
D03*
X12205Y71653D02*
D03*
X10236Y80709D02*
D03*
X28346Y98425D02*
D03*
X2756Y133858D02*
D03*
X21260Y133465D02*
D03*
X22047Y71260D02*
D03*
X4331Y96457D02*
D03*
X21243Y68693D02*
D03*
X20079Y80709D02*
D03*
X183762Y205395D02*
D03*
X18031Y-29468D02*
D03*
X34943Y-57231D02*
D03*
X17226Y-32034D02*
D03*
X18013Y-94239D02*
D03*
X36517Y-94633D02*
D03*
X10927Y-59199D02*
D03*
X37008Y-48425D02*
D03*
X22721Y-30563D02*
D03*
X20276Y-40354D02*
D03*
X40039Y-61955D02*
D03*
X52362Y-62500D02*
D03*
X27069Y-32428D02*
D03*
X32677Y-41043D02*
D03*
X36831Y-60313D02*
D03*
X29626Y-49213D02*
D03*
X-5512Y-71653D02*
D03*
X-98D02*
D03*
X17520Y-71260D02*
D03*
X9252Y-71850D02*
D03*
X-5610Y-68110D02*
D03*
X98D02*
D03*
X4921Y-68209D02*
D03*
X8760Y-65748D02*
D03*
X21063Y-60532D02*
D03*
X14272Y-63287D02*
D03*
X-394Y-83169D02*
D03*
X-5217Y-83268D02*
D03*
X-53150Y-79035D02*
D03*
X109744Y-81890D02*
D03*
X165453Y180709D02*
D03*
X34943Y-64318D02*
D03*
%TF.MD5,8d8d6cafb52a1f4ba26279d1f3f02492*%
M02*
