%TF.GenerationSoftware,Altium Limited,Altium Designer,23.9.2 (47)*%
G04 Layer_Color=65535*
%FSLAX25Y25*%
%MOIN*%
%TF.SameCoordinates,C1B3935E-4126-4279-B8D9-91AEC20F268D*%
%TF.FilePolarity,Positive*%
%TF.FileFunction,Legend,Top*%
%TF.Part,Single*%
G01*
G75*
%TA.AperFunction,NonConductor*%
%ADD46C,0.00394*%
%ADD47C,0.00984*%
%ADD48C,0.00787*%
%ADD49C,0.01000*%
D46*
X40354Y-24409D02*
G03*
X40354Y-24409I-197J0D01*
G01*
X19391Y-84003D02*
G03*
X19391Y-84003I-197J0D01*
G01*
X18801Y-25282D02*
G03*
X18801Y-25282I-197J0D01*
G01*
X-41437Y-55847D02*
G03*
X-41437Y-55847I-197J0D01*
G01*
X20276Y123228D02*
G03*
X20276Y123228I-197J0D01*
G01*
X20866Y64508D02*
G03*
X20866Y64508I-197J0D01*
G01*
X-2362Y63976D02*
G03*
X-2362Y63976I-197J0D01*
G01*
D47*
X14765Y-25538D02*
G03*
X14765Y-25538I-492J0D01*
G01*
X25492Y64764D02*
G03*
X25492Y64764I-492J0D01*
G01*
D48*
X40157Y-27185D02*
Y-25984D01*
Y-34252D02*
Y-33051D01*
X30709Y-27185D02*
Y-25984D01*
Y-34252D02*
Y-33051D01*
X31576Y-97388D02*
X34155D01*
X20769D02*
X23348D01*
X31576Y-84003D02*
X34155D01*
X20769D02*
X23348D01*
X34155Y-97388D02*
Y-96798D01*
Y-84593D02*
Y-84003D01*
X20769Y-97388D02*
Y-96798D01*
Y-84593D02*
Y-84003D01*
X18433Y-30288D02*
Y-28713D01*
Y-30288D02*
X20008D01*
X23894Y-30301D02*
X25469D01*
Y-28727D01*
X25472Y-26674D02*
Y-25099D01*
X23897D02*
X25472D01*
X-2459Y-30755D02*
Y-28097D01*
X198D01*
X-2459Y-45420D02*
Y-42762D01*
Y-45420D02*
X198D01*
X12206D02*
X14864D01*
Y-42762D01*
Y-30755D02*
Y-28097D01*
X12206D02*
X14864D01*
X-41831Y-57421D02*
X-41634D01*
X-54626D02*
X-54429D01*
X-41831Y-70413D02*
X-41634D01*
X-54626D02*
X-54429D01*
X-41634Y-59429D02*
Y-57421D01*
Y-70413D02*
Y-68405D01*
X-54626Y-59429D02*
Y-57421D01*
Y-70413D02*
Y-68405D01*
X5118Y136614D02*
X7697D01*
X15925D02*
X18504D01*
X5118Y123228D02*
X7697D01*
X15925D02*
X18504D01*
X5118Y136024D02*
Y136614D01*
Y123228D02*
Y123819D01*
X18504Y136024D02*
Y136614D01*
Y123228D02*
Y123819D01*
X20840Y67939D02*
Y69513D01*
X19265D02*
X20840D01*
X13804Y69527D02*
X15379D01*
X13804Y67952D02*
Y69527D01*
X13801Y64325D02*
Y65900D01*
Y64325D02*
X15376D01*
X41732Y67323D02*
Y69980D01*
X39075Y67323D02*
X41732D01*
Y81988D02*
Y84646D01*
X39075D02*
X41732D01*
X24409D02*
X27067D01*
X24409Y81988D02*
Y84646D01*
Y67323D02*
Y69980D01*
Y67323D02*
X27067D01*
X-2559Y65551D02*
X-2362D01*
X10236D02*
X10433D01*
X-2559Y78543D02*
X-2362D01*
X10236D02*
X10433D01*
X-2559Y65551D02*
Y67559D01*
Y76535D02*
Y78543D01*
X10433Y65551D02*
Y67559D01*
Y76535D02*
Y78543D01*
D49*
X4331Y93963D02*
X3412Y94881D01*
X1576D01*
X657Y93963D01*
Y90289D01*
X1576Y89371D01*
X3412D01*
X4331Y90289D01*
X6167Y89371D02*
X8004D01*
X7086D01*
Y94881D01*
X6167Y93963D01*
X23754Y104200D02*
X22836Y103281D01*
Y101445D01*
X23754Y100526D01*
X27427D01*
X28346Y101445D01*
Y103281D01*
X27427Y104200D01*
X28346Y109710D02*
Y106036D01*
X24672Y109710D01*
X23754D01*
X22836Y108791D01*
Y106955D01*
X23754Y106036D01*
X31628Y129003D02*
X30710Y128085D01*
Y126248D01*
X31628Y125330D01*
X35301D01*
X36220Y126248D01*
Y128085D01*
X35301Y129003D01*
X36220Y133595D02*
X30710D01*
X33465Y130840D01*
Y134513D01*
X-11679Y129003D02*
X-12597Y128085D01*
Y126248D01*
X-11679Y125330D01*
X-8006D01*
X-7087Y126248D01*
Y128085D01*
X-8006Y129003D01*
X-12597Y134513D02*
Y130840D01*
X-9843D01*
X-10761Y132676D01*
Y133595D01*
X-9843Y134513D01*
X-8006D01*
X-7087Y133595D01*
Y131758D01*
X-8006Y130840D01*
X16274Y99869D02*
X15355Y98951D01*
Y97114D01*
X16274Y96196D01*
X19947D01*
X20865Y97114D01*
Y98951D01*
X19947Y99869D01*
X16274Y101706D02*
X15355Y102624D01*
Y104461D01*
X16274Y105379D01*
X17192D01*
X18110Y104461D01*
Y103542D01*
Y104461D01*
X19029Y105379D01*
X19947D01*
X20865Y104461D01*
Y102624D01*
X19947Y101706D01*
X-140748Y-159450D02*
X-142585D01*
X-141666D01*
Y-164041D01*
X-142585Y-164960D01*
X-143503D01*
X-144421Y-164041D01*
X-138911Y-164960D02*
X-137075D01*
X-137993D01*
Y-159450D01*
X-138911Y-160368D01*
X-15091Y112993D02*
Y118503D01*
X-12336D01*
X-11417Y117585D01*
Y115748D01*
X-12336Y114830D01*
X-15091D01*
X-13254D02*
X-11417Y112993D01*
X-9581D02*
X-7744D01*
X-8662D01*
Y118503D01*
X-9581Y117585D01*
X-4985Y112993D02*
Y118503D01*
X-2230D01*
X-1312Y117585D01*
Y115748D01*
X-2230Y114830D01*
X-4985D01*
X-3149D02*
X-1312Y112993D01*
X4198D02*
X525D01*
X4198Y116666D01*
Y117585D01*
X3280Y118503D01*
X1443D01*
X525Y117585D01*
X35826Y100526D02*
X30316D01*
Y103281D01*
X31234Y104200D01*
X33071D01*
X33989Y103281D01*
Y100526D01*
Y102363D02*
X35826Y104200D01*
X31234Y106036D02*
X30316Y106955D01*
Y108791D01*
X31234Y109710D01*
X32153D01*
X33071Y108791D01*
Y107873D01*
Y108791D01*
X33989Y109710D01*
X34907D01*
X35826Y108791D01*
Y106955D01*
X34907Y106036D01*
X43306Y100526D02*
X37796D01*
Y103281D01*
X38715Y104200D01*
X40551D01*
X41469Y103281D01*
Y100526D01*
Y102363D02*
X43306Y104200D01*
Y108791D02*
X37796D01*
X40551Y106036D01*
Y109710D01*
X11944Y88584D02*
Y94094D01*
X14699D01*
X15617Y93175D01*
Y91339D01*
X14699Y90420D01*
X11944D01*
X13780D02*
X15617Y88584D01*
X21127Y94094D02*
X17454D01*
Y91339D01*
X19290Y92257D01*
X20209D01*
X21127Y91339D01*
Y89502D01*
X20209Y88584D01*
X18372D01*
X17454Y89502D01*
X657Y102755D02*
Y98163D01*
X1576Y97245D01*
X3412D01*
X4331Y98163D01*
Y102755D01*
X6167Y97245D02*
X8004D01*
X7086D01*
Y102755D01*
X6167Y101837D01*
X33991Y118503D02*
Y113911D01*
X34909Y112993D01*
X36746D01*
X37664Y113911D01*
Y118503D01*
X43174Y112993D02*
X39501D01*
X43174Y116666D01*
Y117585D01*
X42256Y118503D01*
X40419D01*
X39501Y117585D01*
X11944Y112991D02*
Y108399D01*
X12862Y107481D01*
X14699D01*
X15617Y108399D01*
Y112991D01*
X17454Y112073D02*
X18372Y112991D01*
X20209D01*
X21127Y112073D01*
Y111155D01*
X20209Y110236D01*
X19290D01*
X20209D01*
X21127Y109318D01*
Y108399D01*
X20209Y107481D01*
X18372D01*
X17454Y108399D01*
X7219Y144487D02*
Y139896D01*
X8138Y138977D01*
X9974D01*
X10893Y139896D01*
Y144487D01*
X15484Y138977D02*
Y144487D01*
X12729Y141732D01*
X16403D01*
X32151Y-105117D02*
Y-100525D01*
X31232Y-99607D01*
X29396D01*
X28477Y-100525D01*
Y-105117D01*
X26641Y-104199D02*
X25722Y-105117D01*
X23886D01*
X22967Y-104199D01*
Y-103280D01*
X23886Y-102362D01*
X22967Y-101444D01*
Y-100525D01*
X23886Y-99607D01*
X25722D01*
X26641Y-100525D01*
Y-101444D01*
X25722Y-102362D01*
X26641Y-103280D01*
Y-104199D01*
X25722Y-102362D02*
X23886D01*
X27033Y-74802D02*
Y-70211D01*
X26114Y-69292D01*
X24278D01*
X23359Y-70211D01*
Y-74802D01*
X21523D02*
X17849D01*
Y-73884D01*
X21523Y-70211D01*
Y-69292D01*
X-4627Y-28282D02*
X-9219D01*
X-10137Y-29201D01*
Y-31037D01*
X-9219Y-31956D01*
X-4627D01*
Y-37466D02*
X-5545Y-35629D01*
X-7382Y-33792D01*
X-9219D01*
X-10137Y-34711D01*
Y-36547D01*
X-9219Y-37466D01*
X-8300D01*
X-7382Y-36547D01*
Y-33792D01*
X-33958Y-58302D02*
X-38549D01*
X-39468Y-59220D01*
Y-61057D01*
X-38549Y-61975D01*
X-33958D01*
Y-67485D02*
Y-63812D01*
X-36713D01*
X-35794Y-65649D01*
Y-66567D01*
X-36713Y-67485D01*
X-38549D01*
X-39468Y-66567D01*
Y-64730D01*
X-38549Y-63812D01*
X31297Y-49312D02*
Y-54822D01*
X28542D01*
X27624Y-53904D01*
Y-52067D01*
X28542Y-51149D01*
X31297D01*
X29460D02*
X27624Y-49312D01*
X25787D02*
X23950D01*
X24869D01*
Y-54822D01*
X25787Y-53904D01*
X21195D02*
X20277Y-54822D01*
X18440D01*
X17522Y-53904D01*
Y-50230D01*
X18440Y-49312D01*
X20277D01*
X21195Y-50230D01*
Y-53904D01*
X-4033Y-61301D02*
X1477D01*
Y-64056D01*
X559Y-64974D01*
X-1278D01*
X-2196Y-64056D01*
Y-61301D01*
Y-63137D02*
X-4033Y-64974D01*
X-3115Y-66811D02*
X-4033Y-67729D01*
Y-69566D01*
X-3115Y-70484D01*
X559D01*
X1477Y-69566D01*
Y-67729D01*
X559Y-66811D01*
X-359D01*
X-1278Y-67729D01*
Y-70484D01*
X3447Y-61301D02*
X8958D01*
Y-64056D01*
X8039Y-64974D01*
X6202D01*
X5284Y-64056D01*
Y-61301D01*
Y-63137D02*
X3447Y-64974D01*
X8039Y-66811D02*
X8958Y-67729D01*
Y-69566D01*
X8039Y-70484D01*
X7121D01*
X6202Y-69566D01*
X5284Y-70484D01*
X4366D01*
X3447Y-69566D01*
Y-67729D01*
X4366Y-66811D01*
X5284D01*
X6202Y-67729D01*
X7121Y-66811D01*
X8039D01*
X6202Y-67729D02*
Y-69566D01*
X44259Y-73767D02*
Y-79277D01*
X41504D01*
X40585Y-78359D01*
Y-76522D01*
X41504Y-75604D01*
X44259D01*
X42422D02*
X40585Y-73767D01*
X38749Y-79277D02*
X35075D01*
Y-78359D01*
X38749Y-74686D01*
Y-73767D01*
X55282D02*
Y-79277D01*
X52527D01*
X51609Y-78359D01*
Y-76522D01*
X52527Y-75604D01*
X55282D01*
X53446D02*
X51609Y-73767D01*
X46099Y-79277D02*
X47936Y-78359D01*
X49772Y-76522D01*
Y-74686D01*
X48854Y-73767D01*
X47017D01*
X46099Y-74686D01*
Y-75604D01*
X47017Y-76522D01*
X49772D01*
X179952Y198964D02*
X181789D01*
X180870D01*
Y203556D01*
X181789Y204474D01*
X182707D01*
X183625Y203556D01*
X174442Y204474D02*
X178115D01*
X174442Y200801D01*
Y199882D01*
X175360Y198964D01*
X177197D01*
X178115Y199882D01*
X22990Y-60734D02*
X23909Y-59816D01*
Y-57979D01*
X22990Y-57060D01*
X19317D01*
X18399Y-57979D01*
Y-59816D01*
X19317Y-60734D01*
X22990Y-62571D02*
X23909Y-63489D01*
Y-65325D01*
X22990Y-66244D01*
X22072D01*
X21154Y-65325D01*
X20235Y-66244D01*
X19317D01*
X18399Y-65325D01*
Y-63489D01*
X19317Y-62571D01*
X20235D01*
X21154Y-63489D01*
X22072Y-62571D01*
X22990D01*
X21154Y-63489D02*
Y-65325D01*
X51049Y-89306D02*
X51968Y-88387D01*
Y-86550D01*
X51049Y-85632D01*
X47376D01*
X46458Y-86550D01*
Y-88387D01*
X47376Y-89306D01*
X46458Y-91142D02*
Y-92979D01*
Y-92061D01*
X51968D01*
X51049Y-91142D01*
Y-95734D02*
X51968Y-96652D01*
Y-98489D01*
X51049Y-99407D01*
X47376D01*
X46458Y-98489D01*
Y-96652D01*
X47376Y-95734D01*
X51049D01*
X7742Y-89633D02*
X8660Y-88714D01*
Y-86878D01*
X7742Y-85960D01*
X4069D01*
X3150Y-86878D01*
Y-88714D01*
X4069Y-89633D01*
Y-91470D02*
X3150Y-92388D01*
Y-94225D01*
X4069Y-95143D01*
X7742D01*
X8660Y-94225D01*
Y-92388D01*
X7742Y-91470D01*
X6824D01*
X5906Y-92388D01*
Y-95143D01*
X15519Y-64974D02*
X16438Y-64056D01*
Y-62219D01*
X15519Y-61301D01*
X11846D01*
X10928Y-62219D01*
Y-64056D01*
X11846Y-64974D01*
X16438Y-66811D02*
Y-70484D01*
X15519D01*
X11846Y-66811D01*
X10928D01*
X-49582Y-84908D02*
X-48663Y-85826D01*
X-46827D01*
X-45908Y-84908D01*
Y-81234D01*
X-46827Y-80316D01*
X-48663D01*
X-49582Y-81234D01*
X-55092Y-85826D02*
X-53255Y-84908D01*
X-51418Y-83071D01*
Y-81234D01*
X-52337Y-80316D01*
X-54173D01*
X-55092Y-81234D01*
Y-82152D01*
X-54173Y-83071D01*
X-51418D01*
X44814Y-42383D02*
X45814Y-41383D01*
Y-39384D01*
X44814Y-38384D01*
X40816D01*
X39816Y-39384D01*
Y-41383D01*
X40816Y-42383D01*
X39816Y-44382D02*
Y-46381D01*
Y-45382D01*
X45814D01*
X44814Y-44382D01*
X39816Y-49380D02*
Y-51380D01*
Y-50380D01*
X45814D01*
X44814Y-49380D01*
X47684Y-25218D02*
X42686D01*
X41686Y-26218D01*
Y-28217D01*
X42686Y-29217D01*
X47684D01*
X42686Y-31216D02*
X41686Y-32216D01*
Y-34215D01*
X42686Y-35215D01*
X46684D01*
X47684Y-34215D01*
Y-32216D01*
X46684Y-31216D01*
X45685D01*
X44685Y-32216D01*
Y-35215D01*
X34403Y-54526D02*
X40401D01*
Y-57525D01*
X39401Y-58525D01*
X37402D01*
X36402Y-57525D01*
Y-54526D01*
Y-56525D02*
X34403Y-58525D01*
Y-60524D02*
Y-62523D01*
Y-61523D01*
X40401D01*
X39401Y-60524D01*
X34403Y-65522D02*
Y-67522D01*
Y-66522D01*
X40401D01*
X39401Y-65522D01*
%TF.MD5,fac519eedf3ceeea0a3cddd357c7a5a0*%
M02*
