%TF.GenerationSoftware,Altium Limited,Altium Designer,24.0.1 (36)*%
G04 Layer_Physical_Order=1*
G04 Layer_Color=255*
%FSLAX25Y25*%
%MOIN*%
%TF.SameCoordinates,674ED1FF-067C-45DD-8C41-4F82C3FA2B26*%
%TF.FilePolarity,Positive*%
%TF.FileFunction,Copper,L1,Top,Signal*%
%TF.Part,Single*%
G01*
G75*
%TA.AperFunction,SMDPad,CuDef*%
%ADD10R,0.03937X0.03937*%
%ADD11R,0.01378X0.02362*%
%ADD12R,0.02362X0.01378*%
%ADD13R,0.00400X0.00400*%
%TA.AperFunction,BGAPad,CuDef*%
%ADD14C,0.00984*%
%TA.AperFunction,SMDPad,CuDef*%
%ADD15R,0.03347X0.01575*%
%ADD16R,0.04134X0.01378*%
%ADD17R,0.01378X0.04134*%
%ADD18R,0.08898X0.08898*%
%ADD19R,0.05866X0.09449*%
%ADD20R,0.03543X0.01378*%
%ADD21R,0.02756X0.03543*%
%ADD22R,0.03543X0.02756*%
%ADD23R,0.13583X0.07284*%
%ADD24R,0.05000X0.12520*%
%ADD25R,0.03937X0.03937*%
%ADD26R,0.02835X0.02677*%
%ADD27R,0.05118X0.05709*%
%ADD28R,0.02677X0.02835*%
%ADD29R,0.05709X0.05118*%
%TA.AperFunction,Conductor*%
%ADD30C,0.00551*%
%ADD31C,0.00400*%
%ADD32C,0.01181*%
%ADD33C,0.01968*%
%ADD34C,0.00787*%
%ADD35C,0.02953*%
%TA.AperFunction,SMDPad,CuDef*%
%AMCUSTOMSHAPE36*
4,1,11,0.00591,0.03937,0.00591,-0.03543,0.00197,-0.03937,0.00197,-0.03937,-0.00197,-0.03937,-0.00591,-0.03543,-0.00591,-0.01476,-0.00197,-0.01083,-0.00197,0.01476,-0.00591,0.01870,-0.00591,0.03937,0.00591,0.03937,0.0*%
%ADD36CUSTOMSHAPE36*%

%AMCUSTOMSHAPE37*
4,1,12,0.00591,0.01280,0.00591,-0.00886,0.00197,-0.01280,0.00197,-0.03937,-0.00197,-0.03937,-0.00197,-0.01280,-0.00591,-0.00886,-0.00591,0.01280,-0.00197,0.01673,-0.00197,0.03937,0.00197,0.03937,0.00197,0.01673,0.00591,0.01280,0.0*%
%ADD37CUSTOMSHAPE37*%

%AMCUSTOMSHAPE38*
4,1,14,0.00591,0.03937,0.00591,0.01870,0.00197,0.01476,0.00197,-0.01083,0.00591,-0.01476,0.00591,-0.03543,0.00197,-0.03937,-0.00197,-0.03937,-0.00591,-0.03543,-0.00591,-0.01476,-0.00197,-0.01083,-0.00197,0.01476,-0.00591,0.01870,-0.00591,0.03937,0.00591,0.03937,0.0*%
%ADD38CUSTOMSHAPE38*%

%AMCUSTOMSHAPE39*
4,1,12,0.00591,0.03937,0.00591,0.01870,0.00197,0.01476,0.00197,0.01476,0.00197,-0.01083,0.00591,-0.01476,0.00591,-0.01476,0.00591,-0.03543,0.00197,-0.03937,-0.00197,-0.03937,-0.00591,-0.03543,-0.00591,0.03937,0.00591,0.03937,0.0*%
%ADD39CUSTOMSHAPE39*%

%TA.AperFunction,ViaPad*%
%ADD40C,0.24410*%
%ADD41C,0.01378*%
%ADD42C,0.02362*%
G36*
X282661Y240429D02*
X283811D01*
Y226378D01*
X283935Y225757D01*
X284286Y225231D01*
X286962Y222556D01*
X286770Y222094D01*
X275590D01*
Y240429D01*
X280331D01*
Y241185D01*
X282661D01*
Y240429D01*
D02*
G37*
G36*
X325471Y213820D02*
Y211827D01*
X325040Y211551D01*
X288205Y248387D01*
Y250470D01*
X288705Y250586D01*
X325471Y213820D01*
D02*
G37*
G36*
X311359Y213070D02*
X311303Y212934D01*
Y212263D01*
X311560Y211642D01*
X312035Y211167D01*
X312656Y210910D01*
X312872D01*
X316550Y207232D01*
Y202599D01*
X316366Y202476D01*
X315694D01*
X315294Y202311D01*
X314807Y202586D01*
X314794Y202604D01*
Y207496D01*
X310038D01*
Y203792D01*
X309634Y203388D01*
X309352Y202966D01*
X309253Y202468D01*
Y188471D01*
X309055Y188308D01*
X294769D01*
X294688Y188462D01*
X294616Y188808D01*
X295156Y189349D01*
X295488Y190150D01*
Y191018D01*
X295156Y191820D01*
X294543Y192433D01*
X293741Y192765D01*
X293419D01*
X287055Y199130D01*
Y205980D01*
X288205D01*
Y208443D01*
X289528Y209767D01*
X290102D01*
X290103Y209765D01*
X290905Y209433D01*
X291772D01*
X292574Y209765D01*
X293188Y210379D01*
X293520Y211180D01*
Y212048D01*
X293188Y212850D01*
X292968Y213070D01*
X293175Y213569D01*
X311025D01*
X311359Y213070D01*
D02*
G37*
G36*
X282661Y205980D02*
X283811D01*
Y198458D01*
X283935Y197838D01*
X284286Y197312D01*
X288930Y192668D01*
X288739Y192206D01*
X275590D01*
Y205980D01*
X280331D01*
Y206737D01*
X282661D01*
Y205980D01*
D02*
G37*
G36*
X291674Y188808D02*
X291442Y188308D01*
X284539D01*
X284042Y188209D01*
X283620Y187927D01*
X278491Y182799D01*
X275590D01*
Y188963D01*
X291545D01*
X291674Y188808D01*
D02*
G37*
G36*
X326098Y206815D02*
X325981Y206225D01*
X325815Y206156D01*
X325340Y205681D01*
X325083Y205060D01*
Y204388D01*
X325340Y203768D01*
X325471Y203636D01*
Y181761D01*
X325242Y181582D01*
X324743Y181820D01*
Y182693D01*
X322976D01*
Y194079D01*
X324660D01*
Y199622D01*
X322806D01*
Y206993D01*
X322707Y207491D01*
X322425Y207913D01*
X314548Y215790D01*
X314126Y216072D01*
X313629Y216171D01*
X309961D01*
X309744Y216671D01*
X309957Y217184D01*
Y217856D01*
X309700Y218476D01*
X309224Y218952D01*
X308604Y219209D01*
X307932D01*
X307311Y218952D01*
X307180Y218820D01*
X293424D01*
X293222Y219320D01*
X293520Y220039D01*
Y220906D01*
X293188Y221708D01*
X292574Y222322D01*
X291772Y222654D01*
X291451D01*
X287055Y227050D01*
Y240429D01*
X288205D01*
Y244055D01*
X288667Y244246D01*
X326098Y206815D01*
D02*
G37*
G36*
X304042Y182693D02*
X304042D01*
Y181763D01*
X303733Y181557D01*
X289160Y166984D01*
X288778Y167269D01*
X289110Y168070D01*
Y168938D01*
X288778Y169739D01*
X288551Y169967D01*
Y172413D01*
X288427Y173034D01*
X288205Y173367D01*
Y173994D01*
X293034Y178823D01*
X293741D01*
X294543Y179155D01*
X295156Y179768D01*
X295488Y180570D01*
Y181438D01*
X295156Y182239D01*
X294747Y182648D01*
X294954Y183148D01*
X303934D01*
X304042Y182693D01*
D02*
G37*
G36*
X253936Y253642D02*
Y166024D01*
X101200D01*
X100894Y165963D01*
X100394Y166260D01*
Y253642D01*
Y253937D01*
X253936D01*
Y253642D01*
D02*
G37*
G36*
X282661Y171531D02*
X285307D01*
Y169967D01*
X285080Y169739D01*
X284748Y168938D01*
Y168332D01*
X283364Y166949D01*
X283056Y166488D01*
X282948Y165944D01*
Y164199D01*
X280454Y161706D01*
X275590D01*
Y171531D01*
X280331D01*
Y172288D01*
X282661D01*
Y171531D01*
D02*
G37*
G36*
X330988Y201123D02*
X330988Y200802D01*
Y200451D01*
X331245Y199831D01*
X331720Y199356D01*
X332341Y199098D01*
X332527D01*
X333990Y197635D01*
Y101781D01*
X333528Y101590D01*
X329682Y105436D01*
X329156Y105787D01*
X328535Y105911D01*
X328148D01*
Y105978D01*
X326998D01*
Y108818D01*
X327972D01*
Y116526D01*
X321232D01*
X320775Y116629D01*
X320396Y116629D01*
X317613D01*
Y115408D01*
X316613D01*
Y116629D01*
X313452D01*
Y113172D01*
X314673D01*
Y112172D01*
X313452D01*
Y108715D01*
X316613D01*
Y109936D01*
X317613D01*
Y108715D01*
X320396D01*
X320775Y108715D01*
X321232Y108818D01*
X323755D01*
Y106175D01*
X315951D01*
Y105978D01*
X311620D01*
Y105911D01*
X310041D01*
Y107659D01*
X307808D01*
Y148633D01*
X309634Y150460D01*
X312620D01*
X314393Y148687D01*
X314815Y148405D01*
X315312Y148306D01*
X323340D01*
X323838Y148405D01*
X324260Y148687D01*
X326423Y150850D01*
X326705Y151272D01*
X326804Y151769D01*
Y154499D01*
X328275D01*
Y159255D01*
X322732D01*
Y154499D01*
X324203D01*
Y152308D01*
X322801Y150907D01*
X321861D01*
Y153814D01*
X320640D01*
Y154814D01*
X321861D01*
Y158271D01*
X318699D01*
Y157050D01*
X317699D01*
Y158271D01*
X314789D01*
Y159984D01*
X315361D01*
Y159882D01*
X317302D01*
Y161103D01*
X318302D01*
Y159882D01*
X320242D01*
Y161902D01*
X319022D01*
Y162902D01*
X320242D01*
Y164921D01*
X318302D01*
Y163700D01*
X317302D01*
Y164921D01*
X315361D01*
Y164819D01*
X314734D01*
Y166713D01*
X315172D01*
Y167933D01*
X316172D01*
Y166713D01*
X317731D01*
Y167933D01*
X318731D01*
Y166713D01*
X320022D01*
Y169382D01*
X318801D01*
Y170382D01*
X320022D01*
Y171638D01*
X322903D01*
X324203Y170338D01*
Y165767D01*
X322732D01*
Y161011D01*
X328275D01*
Y165767D01*
X326804D01*
Y170877D01*
X326705Y171375D01*
X326423Y171797D01*
X324743Y173477D01*
Y174585D01*
X325492D01*
X325990Y174684D01*
X326412Y174966D01*
X329660Y178214D01*
X329942Y178636D01*
X330041Y179134D01*
Y201042D01*
X330373Y201264D01*
X330526D01*
X330988Y201123D01*
D02*
G37*
G36*
X311491Y162457D02*
X311546Y162180D01*
Y158168D01*
X307341D01*
Y152753D01*
X305515Y150927D01*
X304229D01*
X302071Y153085D01*
Y153406D01*
X301739Y154208D01*
X301125Y154822D01*
X300324Y155154D01*
X299920D01*
X299713Y155654D01*
X310874Y166815D01*
X311491D01*
Y162457D01*
D02*
G37*
G36*
X303939Y174478D02*
Y174094D01*
X304042D01*
Y171638D01*
X305688D01*
Y169289D01*
X289046Y152648D01*
X288738Y152187D01*
X288630Y151643D01*
Y143609D01*
X288205Y143429D01*
Y143429D01*
X286734D01*
Y154424D01*
X286865Y154555D01*
X287122Y155176D01*
Y155848D01*
X286865Y156468D01*
X286390Y156944D01*
X286354Y156958D01*
X286257Y157449D01*
X303477Y174670D01*
X303939Y174478D01*
D02*
G37*
G36*
X283947Y160591D02*
X284001Y160461D01*
X284476Y159985D01*
X284512Y159971D01*
X284610Y159480D01*
X278135Y153006D01*
X277853Y152584D01*
X277755Y152087D01*
Y143429D01*
X275590D01*
Y158864D01*
X281043D01*
X281587Y158972D01*
X282048Y159280D01*
X283457Y160689D01*
X283947Y160591D01*
D02*
G37*
G36*
X283986Y154591D02*
X284001Y154555D01*
X284133Y154424D01*
Y143429D01*
X282661D01*
Y142063D01*
X282660Y142063D01*
X282238Y141781D01*
X280793Y140336D01*
X280331Y140527D01*
Y142028D01*
X280356Y142154D01*
Y151548D01*
X283496Y154688D01*
X283986Y154591D01*
D02*
G37*
G36*
X183577Y142400D02*
X183670Y141932D01*
X183891Y141600D01*
X183670Y141268D01*
X183577Y140800D01*
X183670Y140332D01*
X183891Y140000D01*
X183670Y139668D01*
X183647Y139554D01*
X183561Y139480D01*
X183087Y139302D01*
X182646Y139484D01*
X182403D01*
Y139948D01*
X182146Y140569D01*
X181670Y141044D01*
X181050Y141301D01*
X180378D01*
X179757Y141044D01*
X179425Y140712D01*
X179064Y140862D01*
X178470D01*
X177980Y140659D01*
X177489Y140862D01*
X176895D01*
X176531Y140711D01*
X176521Y140722D01*
X175934Y140965D01*
X175300D01*
X174714Y140722D01*
X174266Y140273D01*
X174023Y139687D01*
Y139096D01*
X173138D01*
X172885Y139045D01*
X172421Y139357D01*
X172385Y139417D01*
Y140884D01*
X171164D01*
Y141884D01*
X172385D01*
Y142777D01*
X183267D01*
X183577Y142400D01*
D02*
G37*
G36*
X297709Y152942D02*
Y152539D01*
X298041Y151737D01*
X298654Y151123D01*
X299456Y150791D01*
X299777D01*
X302410Y148158D01*
X302937Y147807D01*
X303557Y147683D01*
X304565D01*
Y108088D01*
X304218Y107690D01*
X301009D01*
X300153Y108546D01*
Y109433D01*
X300909D01*
Y114976D01*
X298447D01*
X298185Y115239D01*
Y117307D01*
X298941D01*
Y122850D01*
X294728D01*
Y150669D01*
X297209Y153149D01*
X297709Y152942D01*
D02*
G37*
G36*
X295416Y113420D02*
X296153Y112683D01*
Y109433D01*
X296910D01*
Y107874D01*
X297033Y107253D01*
X297385Y106727D01*
X299190Y104922D01*
X299716Y104570D01*
X300150Y104484D01*
X300101Y103984D01*
X293716D01*
X293503Y104479D01*
X293761Y105100D01*
Y105772D01*
X293503Y106392D01*
X293493Y106403D01*
Y109433D01*
X294398D01*
Y112661D01*
X294620Y112994D01*
X294728Y113537D01*
Y113550D01*
X295228Y113702D01*
X295416Y113420D01*
D02*
G37*
G36*
X282661Y132161D02*
X283811D01*
Y103984D01*
X275590D01*
Y132161D01*
X280331D01*
Y132918D01*
X282661D01*
Y132161D01*
D02*
G37*
G36*
X101201Y112376D02*
X252777D01*
Y100870D01*
Y98800D01*
X101702D01*
Y100102D01*
X100394D01*
Y112140D01*
X100894Y112437D01*
X101201Y112376D01*
D02*
G37*
G36*
X311518Y102230D02*
X312739D01*
Y101230D01*
X311518D01*
Y99939D01*
Y99671D01*
X312739D01*
Y98671D01*
X311518D01*
Y97379D01*
Y97112D01*
X312739D01*
Y96112D01*
X311518D01*
Y94820D01*
X313892D01*
Y96041D01*
X314892D01*
Y94820D01*
X315951D01*
Y94726D01*
X323817D01*
Y94820D01*
X324876D01*
Y96041D01*
X325876D01*
Y94820D01*
X328250D01*
Y96112D01*
X327029D01*
Y97112D01*
X328250D01*
Y97379D01*
Y98671D01*
X327029D01*
Y99671D01*
X328250D01*
Y100108D01*
X328339D01*
X328959Y100232D01*
X329485Y100583D01*
X329716Y100814D01*
X331964Y98567D01*
Y76932D01*
X332087Y76311D01*
X332439Y75785D01*
X340435Y67789D01*
X340228Y67289D01*
X328002D01*
Y67625D01*
X327745Y68245D01*
X327270Y68721D01*
X326649Y68978D01*
X325977D01*
X325356Y68721D01*
X325119Y68483D01*
X293687Y99914D01*
Y99929D01*
X293559Y100241D01*
X293893Y100741D01*
X301845D01*
X302230Y100462D01*
X302230Y100083D01*
Y97301D01*
X303451D01*
Y96301D01*
X302230D01*
Y93139D01*
X305686D01*
Y94360D01*
X306686D01*
Y93139D01*
X310143D01*
Y96301D01*
X308922D01*
Y97301D01*
X310143D01*
Y100083D01*
X310143Y100462D01*
X310041Y100920D01*
Y102667D01*
X311518D01*
Y102230D01*
D02*
G37*
G36*
X365748Y376238D02*
X366142D01*
X366535Y376316D01*
X366929Y376238D01*
X367323D01*
X367569Y376287D01*
X367995Y376025D01*
X368070Y375934D01*
Y374856D01*
X366838Y373625D01*
X366556Y373203D01*
X366457Y372705D01*
Y76198D01*
X363583Y73324D01*
X347885D01*
X343669Y77539D01*
Y77725D01*
X343412Y78346D01*
X342937Y78821D01*
X342316Y79078D01*
X342130D01*
X337915Y83294D01*
Y200787D01*
X337816Y201285D01*
X337534Y201707D01*
X335368Y203872D01*
X334946Y204154D01*
X334449Y204253D01*
X331797D01*
X331665Y204385D01*
X331045Y204642D01*
X330373D01*
X330041Y204864D01*
Y206012D01*
X329942Y206509D01*
X329660Y206931D01*
X327673Y208918D01*
X327728Y209198D01*
X328204Y209673D01*
X328461Y210294D01*
Y210966D01*
X328204Y211587D01*
X328072Y211718D01*
Y214358D01*
X327973Y214856D01*
X327691Y215278D01*
X290081Y252888D01*
X289659Y253170D01*
X289161Y253269D01*
X280602D01*
X280105Y253170D01*
X279683Y252888D01*
X278491Y251697D01*
X275590D01*
Y253937D01*
Y256989D01*
X276385Y257566D01*
X276772Y257954D01*
X275902Y258824D01*
X276609Y259531D01*
X277480Y258661D01*
X277867Y259048D01*
X279098Y260742D01*
X280049Y262608D01*
X280696Y264600D01*
X281024Y266669D01*
Y268764D01*
X280696Y270833D01*
X280049Y272825D01*
X279098Y274691D01*
X277867Y276385D01*
X277480Y276772D01*
X276609Y275902D01*
X275902Y276609D01*
X276772Y277480D01*
X276385Y277867D01*
X274691Y279098D01*
X272825Y280049D01*
X270833Y280696D01*
X268764Y281024D01*
X266669D01*
X264600Y280696D01*
X262608Y280049D01*
X260742Y279098D01*
X259048Y277867D01*
X258661Y277480D01*
X259531Y276609D01*
X258824Y275902D01*
X257954Y276772D01*
X257566Y276385D01*
X256989Y275590D01*
X97342D01*
X96764Y276385D01*
X96377Y276772D01*
X95507Y275902D01*
X94800Y276609D01*
X95670Y277480D01*
X95283Y277867D01*
X93589Y279098D01*
X91722Y280049D01*
X89730Y280696D01*
X87661Y281024D01*
X85567D01*
X83498Y280696D01*
X81506Y280049D01*
X79640Y279098D01*
X77945Y277867D01*
X77558Y277480D01*
X78429Y276609D01*
X77722Y275902D01*
X76851Y276772D01*
X76464Y276385D01*
X75233Y274691D01*
X74282Y272825D01*
X73635Y270833D01*
X73307Y268764D01*
Y266669D01*
X73635Y264600D01*
X74282Y262608D01*
X75233Y260742D01*
X76464Y259048D01*
X76851Y258661D01*
X77722Y259531D01*
X78429Y258824D01*
X77558Y257954D01*
X77945Y257566D01*
X78740Y256989D01*
Y253937D01*
Y97342D01*
X77945Y96764D01*
X77558Y96377D01*
X78429Y95507D01*
X77722Y94800D01*
X76851Y95670D01*
X76464Y95283D01*
X75233Y93589D01*
X74282Y91722D01*
X73635Y89730D01*
X73307Y87661D01*
Y85567D01*
X73635Y83498D01*
X74282Y81506D01*
X75233Y79640D01*
X76464Y77945D01*
X76851Y77558D01*
X77722Y78429D01*
X78429Y77722D01*
X77558Y76851D01*
X77945Y76464D01*
X79640Y75233D01*
X81506Y74282D01*
X83498Y73635D01*
X85567Y73307D01*
X87661D01*
X89730Y73635D01*
X91722Y74282D01*
X93589Y75233D01*
X95283Y76464D01*
X95965Y77146D01*
X230842D01*
X231033Y76684D01*
X227320Y72971D01*
X227055Y72574D01*
X226961Y72106D01*
Y60729D01*
X220394D01*
Y51446D01*
X226961D01*
Y48836D01*
X227055Y48368D01*
X227320Y47971D01*
X236404Y38887D01*
Y33654D01*
X236527Y33033D01*
X236879Y32507D01*
X241008Y28378D01*
X241534Y28027D01*
X242155Y27903D01*
X242234D01*
Y26268D01*
X246990D01*
Y31811D01*
X242234D01*
X242234Y31811D01*
Y31811D01*
X241871Y32102D01*
X239647Y34326D01*
Y38066D01*
X240664D01*
Y37825D01*
X241884D01*
Y36825D01*
X240664D01*
Y35435D01*
X242939D01*
Y36656D01*
X243939D01*
Y35435D01*
X246215D01*
Y36825D01*
X244994D01*
Y37825D01*
X246215D01*
Y39215D01*
X246112D01*
Y40554D01*
X246215D01*
Y41943D01*
X244994D01*
Y42943D01*
X246215D01*
Y44333D01*
X243939D01*
Y43112D01*
X242939D01*
Y44333D01*
X240664D01*
Y42943D01*
X241884D01*
Y41943D01*
X240664D01*
Y41309D01*
X238717D01*
X238097Y41186D01*
X237778Y40973D01*
X229409Y49343D01*
Y51446D01*
X235976D01*
Y60729D01*
X229409D01*
Y71599D01*
X234956Y77146D01*
X249896D01*
Y62422D01*
X248338D01*
X247880Y62524D01*
X247501Y62524D01*
X244719D01*
Y61303D01*
X243719D01*
Y62524D01*
X240557D01*
Y59067D01*
X241778D01*
Y58067D01*
X240557D01*
Y54611D01*
X243719D01*
Y55832D01*
X244719D01*
Y54611D01*
X247501D01*
X247880Y54611D01*
X248338Y54713D01*
X250676D01*
Y53448D01*
X248077D01*
Y53550D01*
X245506D01*
Y52330D01*
X244506D01*
Y53550D01*
X241935D01*
Y50980D01*
X243156D01*
Y49980D01*
X241935D01*
Y47409D01*
X244506D01*
Y48630D01*
X245506D01*
Y47409D01*
X248077D01*
Y47511D01*
X250676D01*
Y44231D01*
X249624D01*
Y40656D01*
X254971D01*
Y44231D01*
X253919D01*
Y54713D01*
X255077D01*
Y62422D01*
X253139D01*
Y77146D01*
X258366D01*
X259048Y76464D01*
X260742Y75233D01*
X262608Y74282D01*
X264600Y73635D01*
X266669Y73307D01*
X268764D01*
X270833Y73635D01*
X272825Y74282D01*
X274691Y75233D01*
X276385Y76464D01*
X276772Y76851D01*
X275902Y77722D01*
X276609Y78429D01*
X277480Y77558D01*
X277867Y77945D01*
X279098Y79640D01*
X280049Y81506D01*
X280696Y83498D01*
X281024Y85567D01*
Y87661D01*
X280696Y89730D01*
X280049Y91722D01*
X279098Y93589D01*
X277867Y95283D01*
X277480Y95670D01*
X276609Y94800D01*
X275902Y95507D01*
X276772Y96377D01*
X276385Y96764D01*
X275590Y97342D01*
Y98800D01*
X275590D01*
Y100741D01*
X287036D01*
X287243Y100241D01*
X287198Y100196D01*
X286941Y99575D01*
Y98903D01*
X287198Y98282D01*
X287673Y97807D01*
X288294Y97550D01*
X288310D01*
X322649Y63210D01*
Y53430D01*
X322567Y53347D01*
X322309Y52726D01*
Y52054D01*
X322546Y51484D01*
X322363Y50984D01*
X274459D01*
Y52531D01*
X268522D01*
Y51433D01*
X266388D01*
Y52390D01*
X260844D01*
Y47634D01*
X266388D01*
Y48591D01*
X268522D01*
Y46909D01*
X268419D01*
Y44339D01*
X269640D01*
Y43339D01*
X268419D01*
Y40768D01*
X270990D01*
Y41989D01*
X271990D01*
Y40768D01*
X274561D01*
Y43339D01*
X273340D01*
Y44339D01*
X274561D01*
Y46909D01*
X274459D01*
Y48142D01*
X292138D01*
Y46157D01*
X271087Y25106D01*
X231530D01*
X223845Y32791D01*
X224052Y33291D01*
X225587D01*
Y47811D01*
X218587D01*
Y33291D01*
X220666D01*
Y32540D01*
X220774Y31996D01*
X221082Y31535D01*
X229530Y23087D01*
X229323Y22587D01*
X222226D01*
X213508Y31306D01*
Y33291D01*
X215587D01*
Y47811D01*
X208587D01*
Y33291D01*
X210666D01*
Y30717D01*
X210774Y30173D01*
X211082Y29712D01*
X219871Y20923D01*
X219680Y20461D01*
X213541D01*
X203508Y30494D01*
Y33291D01*
X205587D01*
Y47811D01*
X198587D01*
Y33291D01*
X200666D01*
Y29906D01*
X200774Y29362D01*
X201082Y28901D01*
X211105Y18878D01*
X210913Y18416D01*
X205752D01*
X193387Y30781D01*
Y33291D01*
X195587D01*
Y47811D01*
X188587D01*
Y33291D01*
X190786D01*
Y30242D01*
X190885Y29745D01*
X191167Y29323D01*
X204004Y16486D01*
X203797Y15986D01*
X198609D01*
X183387Y31207D01*
Y33291D01*
X185587D01*
Y47811D01*
X178587D01*
Y33291D01*
X180786D01*
Y30669D01*
X180885Y30171D01*
X181167Y29749D01*
X196681Y14235D01*
X196489Y13774D01*
X192599D01*
X173708Y32664D01*
Y33291D01*
X175587D01*
Y47811D01*
X168587D01*
Y33291D01*
X170465D01*
Y31993D01*
X170588Y31372D01*
X170940Y30846D01*
X190781Y11005D01*
X191307Y10654D01*
X191927Y10530D01*
X281324D01*
X281945Y10654D01*
X282471Y11005D01*
X305748Y34282D01*
X331011D01*
X331632Y34406D01*
X332158Y34757D01*
X342973Y45573D01*
X343135Y45640D01*
X343611Y46115D01*
X343868Y46736D01*
Y47408D01*
X343771Y47642D01*
X344105Y48142D01*
X357157D01*
X357700Y48250D01*
X358161Y48558D01*
X377306Y67703D01*
X377614Y68164D01*
X377723Y68708D01*
Y368853D01*
X380776Y371906D01*
X381276Y371699D01*
X381276Y356102D01*
X381276Y356102D01*
X381367Y355642D01*
X381628Y355251D01*
X381628Y355251D01*
X386591Y350289D01*
X386591Y59055D01*
X386591Y59055D01*
X386591Y59055D01*
Y57844D01*
X386275Y55442D01*
X385648Y53102D01*
X384721Y50864D01*
X383509Y48766D01*
X382035Y46844D01*
X380322Y45131D01*
X378400Y43656D01*
X376302Y42445D01*
X374063Y41517D01*
X371723Y40890D01*
X369321Y40574D01*
X368110Y40574D01*
X368091Y40570D01*
X368071Y40574D01*
X367170Y40544D01*
X367111Y40531D01*
X367052Y40534D01*
X365265Y40299D01*
X365190Y40274D01*
X365110Y40268D01*
X363369Y39802D01*
X363298Y39767D01*
X363220Y39751D01*
X361555Y39062D01*
X361489Y39018D01*
X361414Y38992D01*
X359853Y38091D01*
X359793Y38038D01*
X359722Y38003D01*
X358292Y36906D01*
X358239Y36846D01*
X358173Y36802D01*
X356899Y35528D01*
X356855Y35462D01*
X356795Y35409D01*
X355698Y33979D01*
X355662Y33908D01*
X355610Y33848D01*
X354709Y32287D01*
X354683Y32212D01*
X354639Y32146D01*
X353949Y30481D01*
X353934Y30403D01*
X353899Y30332D01*
X353432Y28591D01*
X353427Y28511D01*
X353401Y28436D01*
X353166Y26649D01*
X353170Y26589D01*
X353157Y26531D01*
X353127Y25630D01*
X353130Y25610D01*
X353127Y25591D01*
Y19685D01*
X353127Y19685D01*
Y18474D01*
X352810Y16072D01*
X352183Y13732D01*
X351256Y11494D01*
X350045Y9396D01*
X348570Y7474D01*
X346857Y5761D01*
X344935Y4286D01*
X342837Y3074D01*
X340599Y2148D01*
X338259Y1520D01*
X335857Y1204D01*
X334646Y1204D01*
X19685Y1204D01*
X18474Y1204D01*
X16072Y1520D01*
X13732Y2148D01*
X11494Y3075D01*
X9396Y4286D01*
X7474Y5761D01*
X5761Y7474D01*
X4286Y9396D01*
X3074Y11494D01*
X2148Y13732D01*
X1520Y16072D01*
X1204Y18474D01*
Y19685D01*
X1204Y334646D01*
X1204Y335857D01*
X1520Y338259D01*
X2148Y340599D01*
X3075Y342837D01*
X4286Y344935D01*
X5761Y346857D01*
X7474Y348570D01*
X9396Y350045D01*
X11494Y351256D01*
X13732Y352183D01*
X16072Y352810D01*
X18474Y353127D01*
X19685D01*
X334646Y353127D01*
X334646Y353127D01*
X335857Y353127D01*
X338259Y352810D01*
X340599Y352183D01*
X342837Y351256D01*
X344935Y350045D01*
X346857Y348570D01*
X348570Y346857D01*
X350045Y344935D01*
X351256Y342837D01*
X352183Y340599D01*
X352810Y338259D01*
X353127Y335857D01*
X353127Y334646D01*
X353127Y82677D01*
X353138Y82619D01*
X353132Y82559D01*
X353170Y82175D01*
X353222Y82006D01*
X353256Y81832D01*
X353550Y81123D01*
X353811Y80732D01*
X354354Y80189D01*
X354745Y79928D01*
X355454Y79634D01*
X355628Y79599D01*
X355797Y79548D01*
X356181Y79510D01*
X356299Y79522D01*
X356417Y79510D01*
X356801Y79548D01*
X356971Y79599D01*
X357144Y79634D01*
X357854Y79928D01*
X358244Y80189D01*
X358787Y80732D01*
X359048Y81123D01*
X359342Y81832D01*
X359377Y82006D01*
X359428Y82175D01*
X359466Y82559D01*
X359460Y82619D01*
X359472Y82677D01*
X359472Y350289D01*
X364434Y355251D01*
X364434Y355251D01*
X364695Y355642D01*
X364787Y356102D01*
X364787Y356102D01*
X364787Y376238D01*
X364961D01*
X365354Y376317D01*
X365748Y376238D01*
D02*
G37*
G36*
X335611Y61962D02*
X335526Y61758D01*
Y61086D01*
X335783Y60465D01*
X335914Y60334D01*
Y52806D01*
X335783Y52675D01*
X335526Y52054D01*
Y51382D01*
X335260Y50984D01*
X325634D01*
X325451Y51484D01*
X325687Y52054D01*
Y52582D01*
X325998Y52869D01*
X326142Y52935D01*
X326241Y52894D01*
X326913D01*
X327534Y53151D01*
X328009Y53626D01*
X328266Y54247D01*
Y54919D01*
X328009Y55540D01*
X327998Y55550D01*
Y60335D01*
X328009Y60346D01*
X328266Y60967D01*
Y61639D01*
X328167Y61878D01*
X328501Y62378D01*
X335333D01*
X335611Y61962D01*
D02*
G37*
G36*
X367500Y61916D02*
X356568Y50984D01*
X344111D01*
X343777Y51484D01*
X343874Y51718D01*
Y52390D01*
X343800Y52568D01*
Y60805D01*
X343868Y60967D01*
Y61639D01*
X343769Y61878D01*
X344103Y62378D01*
X367309D01*
X367500Y61916D01*
D02*
G37*
G36*
X335007Y47642D02*
X334925Y47444D01*
Y47258D01*
X329009Y41341D01*
X324913D01*
X324722Y41803D01*
X326781Y43862D01*
X326796D01*
X327417Y44119D01*
X327892Y44594D01*
X328149Y45215D01*
Y45887D01*
X327892Y46508D01*
X327417Y46983D01*
X326796Y47240D01*
X326124D01*
X325929Y47374D01*
X325852Y47702D01*
X326185Y48142D01*
X334673D01*
X335007Y47642D01*
D02*
G37*
G36*
X323113Y45640D02*
X323622Y45429D01*
X323820Y44921D01*
X322654Y43755D01*
X300336D01*
X299792Y43647D01*
X299331Y43339D01*
X276454Y20461D01*
X274638D01*
X274447Y20923D01*
X299174Y45651D01*
X323103D01*
X323113Y45640D01*
D02*
G37*
%LPC*%
G36*
X172205Y252047D02*
X170185D01*
Y250826D01*
X169185D01*
Y252047D01*
X167165D01*
Y250106D01*
X168386D01*
Y249106D01*
X167165D01*
Y247165D01*
X167268D01*
Y243724D01*
X169585D01*
X169828Y243138D01*
X170303Y242663D01*
X170924Y242406D01*
X171596D01*
X172217Y242663D01*
X172506Y242952D01*
X172561D01*
X173058Y243051D01*
X173480Y243333D01*
X174827Y244680D01*
X175031D01*
X175294Y244571D01*
X175887D01*
X176252Y244722D01*
X176262Y244711D01*
X176848Y244468D01*
X177482D01*
X178069Y244711D01*
X178079Y244722D01*
X178443Y244571D01*
X179037D01*
X179585Y244798D01*
X179627Y244840D01*
X181118D01*
X181327Y244631D01*
X181948Y244374D01*
X182619D01*
X183240Y244631D01*
X183715Y245106D01*
X183972Y245727D01*
Y246399D01*
X183715Y247020D01*
X183240Y247495D01*
X182619Y247752D01*
X182376D01*
Y248216D01*
X182119Y248836D01*
X181644Y249312D01*
X181023Y249569D01*
X180351D01*
X179730Y249312D01*
X179399Y248980D01*
X179037Y249130D01*
X178443D01*
X178079Y248979D01*
X178069Y248990D01*
X177482Y249232D01*
X176848D01*
X176378Y249038D01*
X175908Y249232D01*
X175273D01*
X174687Y248990D01*
X174239Y248541D01*
X173996Y247955D01*
Y247321D01*
X173937Y247211D01*
X173790Y247182D01*
X173369Y246900D01*
X172602Y246134D01*
X172102Y246341D01*
Y247165D01*
X172205D01*
Y249106D01*
X170984D01*
Y250106D01*
X172205D01*
Y252047D01*
D02*
G37*
G36*
X172385Y217598D02*
X170365D01*
Y216377D01*
X169365D01*
Y217598D01*
X167345D01*
Y215657D01*
X168566D01*
Y214657D01*
X167345D01*
Y212717D01*
X167448D01*
Y209276D01*
X170444D01*
X170547Y209207D01*
X170599Y209083D01*
X171074Y208608D01*
X171695Y208350D01*
X172366D01*
X172987Y208608D01*
X173462Y209083D01*
X173720Y209703D01*
Y209889D01*
X174144Y210314D01*
X174831D01*
X175294Y210122D01*
X175887D01*
X176378Y210325D01*
X176869Y210122D01*
X177462D01*
X177953Y210325D01*
X178443Y210122D01*
X179037D01*
X179585Y210349D01*
X179627Y210391D01*
X181118D01*
X181327Y210182D01*
X181948Y209925D01*
X182619D01*
X183240Y210182D01*
X183715Y210657D01*
X183972Y211278D01*
Y211950D01*
X183715Y212571D01*
X183240Y213046D01*
X182619Y213303D01*
X182376D01*
Y213767D01*
X182119Y214388D01*
X181644Y214863D01*
X181023Y215120D01*
X180351D01*
X179730Y214863D01*
X179399Y214531D01*
X179037Y214681D01*
X178443D01*
X177953Y214478D01*
X177462Y214681D01*
X176869D01*
X176504Y214530D01*
X176494Y214541D01*
X175908Y214783D01*
X175273D01*
X174687Y214541D01*
X174239Y214092D01*
X173996Y213506D01*
Y212915D01*
X173605D01*
X173108Y212816D01*
X172856Y212648D01*
X172385Y212915D01*
Y214657D01*
X171164D01*
Y215657D01*
X172385D01*
Y217598D01*
D02*
G37*
G36*
Y183150D02*
X170365D01*
Y181929D01*
X169365D01*
Y183150D01*
X167345D01*
Y181209D01*
X168566D01*
Y180209D01*
X167345D01*
Y178268D01*
X167448D01*
Y174827D01*
X170444D01*
X170547Y174758D01*
X170599Y174634D01*
X171074Y174159D01*
X171695Y173902D01*
X172366D01*
X172987Y174159D01*
X173118Y174290D01*
X174042D01*
X174540Y174389D01*
X174962Y174671D01*
X175877Y175586D01*
X176289Y175814D01*
X176875Y175571D01*
X177509D01*
X178095Y175814D01*
X178106Y175824D01*
X178470Y175673D01*
X179064D01*
X179612Y175900D01*
X179654Y175942D01*
X181145D01*
X181353Y175733D01*
X181974Y175476D01*
X182646D01*
X183267Y175733D01*
X183742Y176209D01*
X183999Y176829D01*
Y177501D01*
X183742Y178122D01*
X183267Y178597D01*
X182646Y178854D01*
X182403D01*
Y179318D01*
X182146Y179939D01*
X181670Y180414D01*
X181050Y180671D01*
X180378D01*
X179757Y180414D01*
X179425Y180082D01*
X179064Y180232D01*
X178470D01*
X178106Y180081D01*
D01*
X178095Y180092D01*
X177509Y180335D01*
X176875D01*
X176405Y180140D01*
X175934Y180335D01*
X175300D01*
X174714Y180092D01*
X174266Y179643D01*
X174023Y179057D01*
Y178423D01*
X174266Y177837D01*
X174276Y177826D01*
X174161Y177548D01*
X173504Y176891D01*
X173118D01*
X172987Y177022D01*
X172366Y177279D01*
X172283D01*
Y178268D01*
X172385D01*
Y180209D01*
X171164D01*
Y181209D01*
X172385D01*
Y183150D01*
D02*
G37*
G36*
X335693Y347953D02*
X333598D01*
X331530Y347625D01*
X329538Y346978D01*
X327671Y346027D01*
X325977Y344796D01*
X325590Y344409D01*
X326460Y343538D01*
X325753Y342831D01*
X324883Y343702D01*
X324496Y343315D01*
X323264Y341620D01*
X322313Y339754D01*
X321666Y337762D01*
X321339Y335693D01*
Y333598D01*
X321666Y331530D01*
X322313Y329538D01*
X323264Y327671D01*
X324496Y325977D01*
X324883Y325590D01*
X325753Y326460D01*
X326460Y325753D01*
X325590Y324883D01*
X325977Y324496D01*
X327671Y323264D01*
X329538Y322313D01*
X331530Y321666D01*
X333598Y321339D01*
X335693D01*
X337762Y321666D01*
X339754Y322313D01*
X341620Y323264D01*
X343315Y324496D01*
X343702Y324883D01*
X342831Y325753D01*
X343538Y326460D01*
X344409Y325590D01*
X344796Y325977D01*
X346027Y327671D01*
X346978Y329538D01*
X347625Y331530D01*
X347953Y333598D01*
Y335693D01*
X347625Y337762D01*
X346978Y339754D01*
X346027Y341620D01*
X344796Y343315D01*
X344409Y343702D01*
X343538Y342831D01*
X342831Y343538D01*
X343702Y344409D01*
X343315Y344796D01*
X341620Y346027D01*
X339754Y346978D01*
X337762Y347625D01*
X335693Y347953D01*
D02*
G37*
G36*
X20732Y347953D02*
X18638D01*
X16569Y347625D01*
X14577Y346978D01*
X12711Y346027D01*
X11016Y344796D01*
X10629Y344409D01*
X11500Y343538D01*
X10792Y342831D01*
X9922Y343702D01*
X9535Y343315D01*
X8304Y341620D01*
X7353Y339754D01*
X6706Y337762D01*
X6378Y335693D01*
Y333598D01*
X6706Y331530D01*
X7353Y329538D01*
X8304Y327671D01*
X9535Y325977D01*
X9922Y325590D01*
X10792Y326460D01*
X11500Y325753D01*
X10629Y324883D01*
X11016Y324496D01*
X12711Y323264D01*
X14577Y322313D01*
X16569Y321666D01*
X18638Y321339D01*
X20732D01*
X22801Y321666D01*
X24793Y322313D01*
X26660Y323264D01*
X28354Y324496D01*
X28741Y324883D01*
X27871Y325753D01*
X28578Y326460D01*
X29448Y325590D01*
X29835Y325977D01*
X31066Y327671D01*
X32017Y329538D01*
X32664Y331530D01*
X32992Y333598D01*
Y335693D01*
X32664Y337762D01*
X32017Y339754D01*
X31066Y341620D01*
X29835Y343315D01*
X29448Y343702D01*
X28578Y342831D01*
X27871Y343538D01*
X28741Y344409D01*
X28354Y344796D01*
X26660Y346027D01*
X24793Y346978D01*
X22801Y347625D01*
X20732Y347953D01*
D02*
G37*
G36*
X288449Y300709D02*
X286354D01*
X284285Y300381D01*
X282293Y299734D01*
X280427Y298783D01*
X278733Y297552D01*
X278346Y297165D01*
X279216Y296294D01*
X278509Y295587D01*
X277639Y296458D01*
X277252Y296071D01*
X276020Y294376D01*
X275069Y292510D01*
X274422Y290518D01*
X274095Y288449D01*
Y286354D01*
X274422Y284285D01*
X275069Y282293D01*
X276020Y280427D01*
X277252Y278733D01*
X277639Y278346D01*
X278509Y279216D01*
X279216Y278509D01*
X278346Y277639D01*
X278733Y277252D01*
X280427Y276020D01*
X282293Y275069D01*
X284285Y274422D01*
X286354Y274095D01*
X288449D01*
X290518Y274422D01*
X292510Y275069D01*
X294376Y276020D01*
X296071Y277252D01*
X296458Y277639D01*
X295587Y278509D01*
X296294Y279216D01*
X297165Y278346D01*
X297552Y278733D01*
X298783Y280427D01*
X299734Y282293D01*
X300381Y284285D01*
X300709Y286354D01*
Y288449D01*
X300381Y290518D01*
X299734Y292510D01*
X298783Y294376D01*
X297552Y296071D01*
X297165Y296458D01*
X296294Y295587D01*
X295587Y296294D01*
X296458Y297165D01*
X296071Y297552D01*
X294376Y298783D01*
X292510Y299734D01*
X290518Y300381D01*
X288449Y300709D01*
D02*
G37*
G36*
X67976D02*
X65882D01*
X63813Y300381D01*
X61821Y299734D01*
X59955Y298783D01*
X58260Y297552D01*
X57873Y297165D01*
X58744Y296294D01*
X58037Y295587D01*
X57166Y296458D01*
X56779Y296071D01*
X55548Y294376D01*
X54597Y292510D01*
X53950Y290518D01*
X53622Y288449D01*
Y286354D01*
X53950Y284285D01*
X54597Y282293D01*
X55548Y280427D01*
X56779Y278733D01*
X57166Y278346D01*
X58037Y279216D01*
X58744Y278509D01*
X57873Y277639D01*
X58260Y277252D01*
X59955Y276020D01*
X61821Y275069D01*
X63813Y274422D01*
X65882Y274095D01*
X67976D01*
X70045Y274422D01*
X72037Y275069D01*
X73904Y276020D01*
X75598Y277252D01*
X75985Y277639D01*
X75115Y278509D01*
X75822Y279216D01*
X76692Y278346D01*
X77079Y278733D01*
X78310Y280427D01*
X79261Y282293D01*
X79909Y284285D01*
X80236Y286354D01*
Y288449D01*
X79909Y290518D01*
X79261Y292510D01*
X78310Y294376D01*
X77079Y296071D01*
X76692Y296458D01*
X75822Y295587D01*
X75115Y296294D01*
X75985Y297165D01*
X75598Y297552D01*
X73904Y298783D01*
X72037Y299734D01*
X70045Y300381D01*
X67976Y300709D01*
D02*
G37*
G36*
Y80236D02*
X65882D01*
X63813Y79909D01*
X61821Y79261D01*
X59955Y78310D01*
X58260Y77079D01*
X57873Y76692D01*
X58744Y75822D01*
X58037Y75115D01*
X57166Y75985D01*
X56779Y75598D01*
X55548Y73904D01*
X54597Y72037D01*
X53950Y70045D01*
X53622Y67976D01*
Y65882D01*
X53950Y63813D01*
X54597Y61821D01*
X55548Y59955D01*
X56779Y58260D01*
X57166Y57873D01*
X58037Y58744D01*
X58744Y58037D01*
X57873Y57166D01*
X58260Y56779D01*
X59955Y55548D01*
X61821Y54597D01*
X63813Y53950D01*
X65882Y53622D01*
X67976D01*
X70045Y53950D01*
X72037Y54597D01*
X73904Y55548D01*
X75598Y56779D01*
X75985Y57166D01*
X75115Y58037D01*
X75822Y58744D01*
X76692Y57873D01*
X77079Y58260D01*
X78310Y59955D01*
X79261Y61821D01*
X79909Y63813D01*
X80236Y65882D01*
Y67976D01*
X79909Y70045D01*
X79261Y72037D01*
X78310Y73904D01*
X77079Y75598D01*
X76692Y75985D01*
X75822Y75115D01*
X75115Y75822D01*
X75985Y76692D01*
X75598Y77079D01*
X73904Y78310D01*
X72037Y79261D01*
X70045Y79909D01*
X67976Y80236D01*
D02*
G37*
G36*
X288549Y80222D02*
X286454D01*
X284385Y79894D01*
X282393Y79247D01*
X280527Y78296D01*
X278832Y77065D01*
X278445Y76678D01*
X279316Y75808D01*
X278609Y75100D01*
X277738Y75971D01*
X277351Y75584D01*
X276120Y73889D01*
X275169Y72023D01*
X274522Y70031D01*
X274194Y67962D01*
Y65868D01*
X274522Y63799D01*
X275169Y61807D01*
X276120Y59941D01*
X277351Y58246D01*
X277738Y57859D01*
X278609Y58729D01*
X279316Y58022D01*
X278445Y57152D01*
X278832Y56765D01*
X280527Y55534D01*
X282393Y54583D01*
X284385Y53936D01*
X286454Y53608D01*
X288549D01*
X290617Y53936D01*
X292610Y54583D01*
X294476Y55534D01*
X296170Y56765D01*
X296557Y57152D01*
X295687Y58022D01*
X296394Y58729D01*
X297265Y57859D01*
X297652Y58246D01*
X298883Y59941D01*
X299833Y61807D01*
X300481Y63799D01*
X300809Y65868D01*
Y67962D01*
X300481Y70031D01*
X299833Y72023D01*
X298883Y73889D01*
X297652Y75584D01*
X297265Y75971D01*
X296394Y75100D01*
X295687Y75808D01*
X296557Y76678D01*
X296170Y77065D01*
X294476Y78296D01*
X292610Y79247D01*
X290617Y79894D01*
X288549Y80222D01*
D02*
G37*
G36*
X165689Y47913D02*
X162587D01*
Y46692D01*
X161587D01*
Y47913D01*
X158484D01*
Y41051D01*
X159705D01*
Y40051D01*
X158484D01*
Y33189D01*
X161587D01*
Y34410D01*
X162587D01*
Y33189D01*
X165689D01*
Y40051D01*
X164468D01*
Y41051D01*
X165689D01*
Y47913D01*
D02*
G37*
G36*
X266388Y45878D02*
X260844D01*
Y41122D01*
X262195D01*
Y39587D01*
X259762D01*
Y38746D01*
X254971D01*
Y39112D01*
X249624D01*
Y35538D01*
X250876D01*
Y31811D01*
X248746D01*
Y26268D01*
X253502D01*
Y29901D01*
X253610Y30063D01*
X253718Y30607D01*
Y35538D01*
X254971D01*
Y35904D01*
X259762D01*
Y30303D01*
X275344D01*
Y39587D01*
X265037D01*
Y41122D01*
X266388D01*
Y45878D01*
D02*
G37*
G36*
X37402Y152925D02*
X36435Y152733D01*
X35616Y152185D01*
X35069Y151366D01*
X34877Y150400D01*
Y67748D01*
X35069Y66781D01*
X35616Y65962D01*
X54708Y46871D01*
X55527Y46323D01*
X56493Y46131D01*
X113537D01*
X114504Y46323D01*
X115323Y46871D01*
X124281Y55829D01*
X143435D01*
X149562Y49703D01*
Y47811D01*
X148587D01*
Y33291D01*
X155587D01*
Y47811D01*
X154612D01*
Y50749D01*
X154419Y51715D01*
X153872Y52534D01*
X146266Y60140D01*
X145447Y60687D01*
X144481Y60879D01*
X123235D01*
X122269Y60687D01*
X121450Y60140D01*
X112492Y51181D01*
X57539D01*
X39926Y68793D01*
Y150400D01*
X39734Y151366D01*
X39187Y152185D01*
X38368Y152733D01*
X37402Y152925D01*
D02*
G37*
G36*
X22665Y179690D02*
X21699Y179498D01*
X20880Y178951D01*
X20333Y178132D01*
X20140Y177165D01*
Y71836D01*
X20333Y70869D01*
X20880Y70050D01*
X52164Y38766D01*
X52983Y38219D01*
X53950Y38026D01*
X115354D01*
X116321Y38219D01*
X117140Y38766D01*
X127030Y48656D01*
X139093D01*
X139344Y48406D01*
Y47811D01*
X138587D01*
Y33291D01*
X145587D01*
Y47811D01*
X144394D01*
Y49451D01*
X144202Y50418D01*
X143654Y51237D01*
X141924Y52966D01*
X141105Y53514D01*
X140139Y53706D01*
X125984D01*
X125018Y53514D01*
X124199Y52966D01*
X114309Y43076D01*
X54996D01*
X25190Y72881D01*
Y177165D01*
X24998Y178132D01*
X24451Y178951D01*
X23632Y179498D01*
X22665Y179690D01*
D02*
G37*
G36*
X15748Y193470D02*
X14782Y193278D01*
X13963Y192730D01*
X13415Y191911D01*
X13223Y190945D01*
Y67450D01*
X13415Y66484D01*
X13963Y65665D01*
X49396Y30232D01*
X50215Y29684D01*
X51181Y29492D01*
X118986D01*
X119952Y29684D01*
X120771Y30232D01*
X128087Y37547D01*
X128587Y37340D01*
Y33291D01*
X135587D01*
Y47811D01*
X128587D01*
Y43076D01*
X127520D01*
X126553Y42884D01*
X125734Y42337D01*
X117940Y34542D01*
X52227D01*
X18273Y68496D01*
Y190945D01*
X18081Y191911D01*
X17533Y192730D01*
X16714Y193278D01*
X15748Y193470D01*
D02*
G37*
G36*
X20732Y32992D02*
X18638D01*
X16569Y32664D01*
X14577Y32017D01*
X12711Y31066D01*
X11016Y29835D01*
X10629Y29448D01*
X11500Y28578D01*
X10792Y27871D01*
X9922Y28741D01*
X9535Y28354D01*
X8304Y26660D01*
X7353Y24793D01*
X6706Y22801D01*
X6378Y20732D01*
Y18638D01*
X6706Y16569D01*
X7353Y14577D01*
X8304Y12711D01*
X9535Y11016D01*
X9922Y10629D01*
X10792Y11500D01*
X11500Y10792D01*
X10629Y9922D01*
X11016Y9535D01*
X12711Y8304D01*
X14577Y7353D01*
X16569Y6706D01*
X18638Y6378D01*
X20732D01*
X22801Y6706D01*
X24793Y7353D01*
X26660Y8304D01*
X28354Y9535D01*
X28741Y9922D01*
X27871Y10792D01*
X28578Y11500D01*
X29448Y10629D01*
X29835Y11016D01*
X31066Y12711D01*
X32017Y14577D01*
X32664Y16569D01*
X32992Y18638D01*
Y20732D01*
X32664Y22801D01*
X32017Y24793D01*
X31066Y26660D01*
X29835Y28354D01*
X29448Y28741D01*
X28578Y27871D01*
X27871Y28578D01*
X28741Y29448D01*
X28354Y29835D01*
X26660Y31066D01*
X24793Y32017D01*
X22801Y32664D01*
X20732Y32992D01*
D02*
G37*
G36*
X335693Y32537D02*
X333598D01*
X331530Y32209D01*
X329538Y31562D01*
X327671Y30611D01*
X325977Y29380D01*
X325590Y28993D01*
X326460Y28123D01*
X325753Y27415D01*
X324883Y28286D01*
X324496Y27899D01*
X323264Y26204D01*
X322313Y24338D01*
X321666Y22346D01*
X321339Y20277D01*
Y18183D01*
X321666Y16114D01*
X322313Y14122D01*
X323264Y12256D01*
X324496Y10561D01*
X324883Y10174D01*
X325753Y11044D01*
X326460Y10337D01*
X325590Y9467D01*
X325977Y9080D01*
X327671Y7849D01*
X329538Y6898D01*
X331530Y6250D01*
X333598Y5923D01*
X335693D01*
X337762Y6250D01*
X339754Y6898D01*
X341620Y7849D01*
X343315Y9080D01*
X343702Y9467D01*
X342831Y10337D01*
X343538Y11044D01*
X344409Y10174D01*
X344796Y10561D01*
X346027Y12256D01*
X346978Y14122D01*
X347625Y16114D01*
X347953Y18183D01*
Y20277D01*
X347625Y22346D01*
X346978Y24338D01*
X346027Y26204D01*
X344796Y27899D01*
X344409Y28286D01*
X343538Y27415D01*
X342831Y28123D01*
X343702Y28993D01*
X343315Y29380D01*
X341620Y30611D01*
X339754Y31562D01*
X337762Y32209D01*
X335693Y32537D01*
D02*
G37*
%LPD*%
D10*
X267854Y153772D02*
D03*
X262130D02*
D03*
X266154Y197110D02*
D03*
X260430D02*
D03*
X260430Y223662D02*
D03*
X266154D02*
D03*
X250730Y50480D02*
D03*
X245006D02*
D03*
D11*
X263632Y191386D02*
D03*
X260483D02*
D03*
X263632Y185875D02*
D03*
X260483D02*
D03*
X263632Y234848D02*
D03*
Y229337D02*
D03*
X260483Y234848D02*
D03*
Y229337D02*
D03*
D12*
X269027Y162548D02*
D03*
Y165108D02*
D03*
Y159990D02*
D03*
Y167667D02*
D03*
X260957Y165108D02*
D03*
Y167667D02*
D03*
Y162548D02*
D03*
Y159990D02*
D03*
D13*
X254000Y100870D02*
D03*
X100400Y98800D02*
D03*
D14*
X178767Y137795D02*
D03*
X177192D02*
D03*
X175617D02*
D03*
X178767Y139370D02*
D03*
X177192D02*
D03*
X175617D02*
D03*
X178767Y177165D02*
D03*
X177192D02*
D03*
X175617D02*
D03*
X178767Y178740D02*
D03*
X177192D02*
D03*
X175617D02*
D03*
X178740Y211614D02*
D03*
X177165D02*
D03*
X175591D02*
D03*
X178740Y213189D02*
D03*
X177165D02*
D03*
X175591D02*
D03*
X178740Y246063D02*
D03*
X177165D02*
D03*
X175591D02*
D03*
X178740Y247638D02*
D03*
X177165D02*
D03*
X175591D02*
D03*
D15*
X252297Y42443D02*
D03*
Y37325D02*
D03*
X243439D02*
D03*
Y39884D02*
D03*
Y42443D02*
D03*
D16*
X321675Y173327D02*
D03*
Y175886D02*
D03*
Y178445D02*
D03*
Y181004D02*
D03*
X307109D02*
D03*
Y178445D02*
D03*
Y175886D02*
D03*
Y173327D02*
D03*
D17*
X318231Y184449D02*
D03*
X315672D02*
D03*
X313113D02*
D03*
X310554D02*
D03*
Y169882D02*
D03*
X313113D02*
D03*
X315672D02*
D03*
X318231D02*
D03*
D18*
X314392Y177165D02*
D03*
D19*
X319884Y100450D02*
D03*
D20*
X325376Y96612D02*
D03*
Y99171D02*
D03*
Y101730D02*
D03*
Y104289D02*
D03*
X314392Y96612D02*
D03*
Y99171D02*
D03*
Y101730D02*
D03*
Y104289D02*
D03*
D21*
X312416Y204724D02*
D03*
X318928D02*
D03*
X315770Y196850D02*
D03*
X322282D02*
D03*
X251124Y29040D02*
D03*
X244612D02*
D03*
X298532Y112205D02*
D03*
X292020D02*
D03*
X296563Y120079D02*
D03*
X290051D02*
D03*
D22*
X263616Y50012D02*
D03*
Y43500D02*
D03*
X277559Y141051D02*
D03*
Y134539D02*
D03*
X285433Y141051D02*
D03*
Y134539D02*
D03*
X277559Y180421D02*
D03*
Y173909D02*
D03*
X285433Y180421D02*
D03*
Y173909D02*
D03*
X325503Y156877D02*
D03*
Y163389D02*
D03*
X277559Y214870D02*
D03*
Y208358D02*
D03*
X285433Y214870D02*
D03*
Y208358D02*
D03*
X277559Y249319D02*
D03*
Y242807D02*
D03*
X285433Y249319D02*
D03*
Y242807D02*
D03*
D23*
X267553Y34945D02*
D03*
X228185Y56088D02*
D03*
D24*
X132087Y40551D02*
D03*
X142087D02*
D03*
X162087D02*
D03*
X152087D02*
D03*
X172087D02*
D03*
X192087D02*
D03*
X182087D02*
D03*
X202087D02*
D03*
X222087D02*
D03*
X212087D02*
D03*
D25*
X271490Y49563D02*
D03*
Y43839D02*
D03*
D26*
X169865Y141384D02*
D03*
Y137840D02*
D03*
Y180709D02*
D03*
Y177165D02*
D03*
Y215158D02*
D03*
Y211614D02*
D03*
X169685Y249606D02*
D03*
Y246063D02*
D03*
D27*
X244219Y58567D02*
D03*
X251518D02*
D03*
X318199Y154314D02*
D03*
X310900D02*
D03*
X317113Y112672D02*
D03*
X324413D02*
D03*
D28*
X317801Y162402D02*
D03*
X314258D02*
D03*
D29*
X306186Y96801D02*
D03*
Y104100D02*
D03*
D30*
X257134Y178433D02*
X259122Y180421D01*
X258794Y177165D02*
X271490D01*
X258768D02*
X258794D01*
X259122Y180421D02*
X271490D01*
X258114Y185407D02*
X260069D01*
X260483Y185821D02*
Y185875D01*
X260069Y185407D02*
X260483Y185821D01*
X100400Y165847D02*
X253937D01*
X260663Y235029D02*
Y237919D01*
X260483Y234848D02*
X260663Y235029D01*
Y237919D02*
X260844Y238099D01*
X167591Y240158D02*
X276378D01*
X167268Y240480D02*
Y243362D01*
Y240480D02*
X167591Y240158D01*
X257924Y232950D02*
X258161Y232713D01*
X262080Y233036D02*
Y233477D01*
X258161Y232713D02*
X261757D01*
X262080Y233036D01*
Y233477D02*
X262546Y233943D01*
X263219D01*
X263632Y234356D01*
Y234848D01*
X258768Y246063D02*
X281784D01*
X264181Y228431D02*
X266154Y226458D01*
X263632Y228844D02*
X264046Y228431D01*
X263632Y228844D02*
Y229337D01*
X266154Y223662D02*
Y226458D01*
X264046Y228431D02*
X264181D01*
X280275Y223662D02*
X281496Y222441D01*
X281496Y217520D02*
X308268D01*
X266154Y223662D02*
X280275D01*
X224939Y217598D02*
X276654D01*
X306742Y180637D02*
X307109Y181004D01*
X285433Y161417D02*
X304653Y180637D01*
X306742D01*
X269027Y167667D02*
X277215D01*
X262747Y188631D02*
X267619D01*
X271465Y184785D02*
X277559D01*
X267619Y188631D02*
X271465Y184785D01*
X260483Y190894D02*
X262747Y188631D01*
X260483Y190894D02*
Y191386D01*
X277252Y202756D02*
X281496D01*
X266076D02*
X277252D01*
X260430Y197110D02*
X266076Y202756D01*
X260483Y191386D02*
Y197057D01*
X260430Y197110D02*
X260483Y197057D01*
X271490Y180421D02*
X277559D01*
X271490Y177165D02*
X281784D01*
X263632Y185697D02*
X264046Y185284D01*
X266191D01*
X263632Y185697D02*
Y185875D01*
X277559Y180421D02*
X277953D01*
X261449Y167667D02*
X262767Y168985D01*
X263761D02*
X263919Y169143D01*
X262767Y168985D02*
X263761D01*
X269835Y146066D02*
X275590D01*
X262130Y153772D02*
X269835Y146066D01*
X260957Y154945D02*
X262130Y153772D01*
X260957Y154945D02*
Y159990D01*
Y167667D02*
X261449D01*
X257924Y166379D02*
X259195Y165108D01*
X260957D01*
Y162548D02*
X263919D01*
X266478Y165108D01*
X266065Y162548D02*
X269027D01*
X263506Y159990D02*
X266065Y162548D01*
X258768Y137795D02*
X280091D01*
X283157Y140861D01*
X260957Y159990D02*
X263506D01*
X266478Y165108D02*
X269027D01*
X192087Y30242D02*
X205213Y17116D01*
X279324D01*
X192087Y30242D02*
Y40551D01*
X279500Y14685D02*
X302880Y38066D01*
X279324Y17116D02*
X302249Y40041D01*
X198070Y14685D02*
X279500D01*
X329548Y40041D02*
X336614Y47107D01*
X302880Y38066D02*
X329931D01*
X339345Y47480D01*
X302249Y40041D02*
X329548D01*
X182087Y30669D02*
X198070Y14685D01*
X182087Y30669D02*
Y40551D01*
X341980Y77389D02*
X347346Y72023D01*
X339740Y52675D02*
Y52899D01*
X338987Y53653D02*
Y61263D01*
Y53653D02*
X339740Y52899D01*
X336614Y82755D02*
X341980Y77389D01*
X339009Y77065D02*
X345555Y70519D01*
X337215Y51718D02*
Y61422D01*
X335291Y80784D02*
X339009Y77065D01*
X347346Y72023D02*
X364121D01*
X336614Y82755D02*
Y200787D01*
X345555Y70519D02*
X364953D01*
X335291Y80784D02*
Y198174D01*
X364953Y70519D02*
X369058Y74624D01*
X364121Y72023D02*
X367757Y75659D01*
Y372705D02*
X369370Y374318D01*
X367757Y75659D02*
Y372705D01*
X369058Y74624D02*
Y371840D01*
X369370Y374318D02*
Y377362D01*
X371732Y374514D02*
Y377362D01*
X369058Y371840D02*
X371732Y374514D01*
X249606Y249606D02*
X267717Y267717D01*
X169685Y249606D02*
X249606D01*
X257087Y247352D02*
X259053Y249319D01*
X277559D01*
X277953D01*
X166385Y249606D02*
X169685D01*
X104724D02*
X166385D01*
X164795Y245835D02*
Y246291D01*
X166385Y247881D02*
Y249606D01*
X164795Y245835D02*
X167268Y243362D01*
X164795Y246291D02*
X166385Y247881D01*
X222498Y215158D02*
X224939Y217598D01*
X257139Y212851D02*
X259158Y214870D01*
X277559D01*
X169865Y215158D02*
X222498D01*
X164567D02*
X169865D01*
X77362D02*
X164567D01*
Y206693D02*
Y215158D01*
Y206693D02*
X274850D01*
X277252Y204291D01*
Y202756D02*
Y204291D01*
X171361Y175749D02*
X171872D01*
X172030Y175591D01*
X64961Y202756D02*
X77362Y215158D01*
X163386Y281496D02*
X169685Y275197D01*
Y249606D02*
Y275197D01*
X86614Y267717D02*
X104724Y249606D01*
X281784Y177165D02*
X285039Y180421D01*
X258768Y211614D02*
X281784D01*
X259122Y141051D02*
X277559D01*
X277953D01*
X257134Y139063D02*
X259122Y141051D01*
X289854Y184449D02*
X307109D01*
X285827Y180421D02*
X289854Y184449D01*
X332677Y200787D02*
X335291Y198174D01*
X334449Y202953D02*
X336614Y200787D01*
X328740Y179134D02*
Y206012D01*
X330709Y202953D02*
X334449D01*
X172030Y136687D02*
X173138Y137795D01*
X171797Y136454D02*
X172030Y136687D01*
X283157Y140861D02*
X285243D01*
X285433Y141051D01*
X279055Y152087D02*
X305000Y178032D01*
X279055Y142154D02*
Y152087D01*
X306695Y178032D02*
X307109Y178445D01*
X305000Y178032D02*
X306695D01*
X171260Y244094D02*
X171418Y244253D01*
X174288Y245980D02*
X175508D01*
X175591Y246063D01*
X172561Y244253D02*
X174288Y245980D01*
X171418Y244253D02*
X172561D01*
X172030Y210039D02*
X173605Y211614D01*
X175591D01*
X169865D02*
X169944D01*
X171361Y210198D01*
X171872D01*
X172030Y210039D01*
X171797Y136454D02*
Y136629D01*
X173138Y137795D02*
X175617D01*
X169865Y137840D02*
X170928Y136777D01*
X171649D01*
X171797Y136629D01*
X174042Y175591D02*
X175617Y177165D01*
X169865D02*
X169944D01*
X172030Y175591D02*
X174042D01*
X169944Y177165D02*
X171361Y175749D01*
X284539Y187008D02*
X309055D01*
X309823Y186240D01*
X310140D02*
X310554Y185827D01*
X277953Y180421D02*
X284539Y187008D01*
X309823Y186240D02*
X310140D01*
X285039Y180421D02*
X285433D01*
X285827D01*
X312416Y201603D02*
Y204331D01*
Y201603D02*
X313007Y201011D01*
Y200787D02*
Y201011D01*
X315770Y196850D02*
X316030Y197110D01*
Y200787D01*
X174454Y213189D02*
X175591D01*
X170858Y214164D02*
X173479D01*
X174454Y213189D01*
X174509Y247638D02*
X175591D01*
X170614Y248677D02*
X173470D01*
X174509Y247638D01*
X313007Y212613D02*
X318928Y206693D01*
X285433Y214870D02*
X313629D01*
X169865Y215158D02*
X170858Y214164D01*
X310554Y185827D02*
Y202468D01*
Y184449D02*
Y185827D01*
X281784Y246063D02*
X285039Y249319D01*
X315312Y149606D02*
X323340D01*
X310900Y154019D02*
X315312Y149606D01*
X323340D02*
X325503Y151769D01*
Y156877D01*
X321675Y173327D02*
X323054D01*
X325503Y163389D02*
Y170877D01*
X323054Y173327D02*
X325503Y170877D01*
X321808Y178577D02*
X324246D01*
X321675Y178445D02*
X321808Y178577D01*
X324246D02*
X326772Y181102D01*
Y204724D01*
Y210630D02*
Y214358D01*
X289161Y251969D02*
X326772Y214358D01*
X286929Y247823D02*
X328740Y206012D01*
X280602Y251969D02*
X289161D01*
X277953Y249319D02*
X280602Y251969D01*
X285433Y249319D02*
X285827D01*
X286929Y248217D01*
Y247823D02*
Y248217D01*
X285039Y249319D02*
X285433D01*
X321675Y175886D02*
X325492D01*
X328740Y179134D01*
X321505Y197627D02*
Y206993D01*
X313629Y214870D02*
X321505Y206993D01*
Y197627D02*
X322282Y196850D01*
X285039Y214870D02*
X285433D01*
X310554Y202468D02*
X312416Y204331D01*
Y204724D01*
X285433Y141051D02*
Y155512D01*
Y141051D02*
X285433Y141051D01*
X277953D02*
X279055Y142154D01*
X314234Y191782D02*
Y192755D01*
X314392Y192913D01*
X313113Y190661D02*
X314234Y191782D01*
X313113Y190661D02*
Y193799D01*
Y184449D02*
Y190661D01*
X318231Y184449D02*
Y190584D01*
X318928Y191281D02*
Y204724D01*
X318231Y190584D02*
X318928Y191281D01*
X277559Y214870D02*
X278524Y215835D01*
X318928Y204724D02*
Y206693D01*
X278524Y215835D02*
X279811D01*
X281496Y217520D01*
X281784Y211614D02*
X285039Y214870D01*
X313113Y193799D02*
X315770Y196457D01*
Y196850D01*
X321675Y181004D02*
Y196244D01*
X322282Y196850D01*
X169685Y249606D02*
X170614Y248677D01*
D31*
X178767Y177165D02*
X182310D01*
X277017Y183071D02*
X277559Y183613D01*
X255598Y183071D02*
X277017D01*
X277559Y183613D02*
Y184785D01*
X253236Y180709D02*
X255598Y183071D01*
X167200Y143200D02*
X184000D01*
X250177Y140000D02*
X250977Y140800D01*
X184000Y138400D02*
Y140000D01*
Y141600D02*
Y143200D01*
Y136800D02*
Y138400D01*
Y135200D02*
Y136800D01*
Y140000D02*
X250177D01*
X184000D02*
Y141600D01*
X250977Y140800D02*
X251200D01*
X184800Y142400D02*
X254000D01*
Y100870D02*
Y142400D01*
Y147200D01*
X101201Y144000D02*
X253996D01*
X101201Y147200D02*
X253996D01*
X254000Y145600D02*
Y147200D01*
Y164566D01*
X101201Y163200D02*
X253996D01*
X101201Y150400D02*
X253996D01*
X101201Y148800D02*
X253996D01*
X101201Y155200D02*
X253996D01*
X101201Y152000D02*
X253996D01*
X101201Y153600D02*
X253996D01*
X101201Y158400D02*
X253996D01*
X101201Y156800D02*
X253996D01*
X101201Y161600D02*
X253996D01*
X101201Y160000D02*
X253996D01*
X101201Y145600D02*
X253996D01*
X101201Y124800D02*
X253996D01*
X101201Y120000D02*
X253996D01*
X101201Y118400D02*
X253996D01*
X101201Y126400D02*
X253996D01*
X101201Y121600D02*
X253996D01*
X101201Y123200D02*
X253996D01*
X101201Y116800D02*
X253996D01*
X101201Y113600D02*
X253996D01*
X101201Y115200D02*
X253996D01*
X101201Y129600D02*
X253996D01*
X101201Y128000D02*
X253996D01*
X101201Y132800D02*
X253996D01*
X101201Y131200D02*
X253996D01*
X184800Y136000D02*
X254000D01*
X184800Y137600D02*
X254000D01*
X184800Y139200D02*
X254000D01*
X184000Y135200D02*
X253200D01*
X184000Y136800D02*
X253200D01*
X184000Y138400D02*
X253200D01*
X184000Y141600D02*
X248000D01*
X184000Y143200D02*
X253200D01*
X100400Y112800D02*
X253200D01*
X100400Y114400D02*
X253200D01*
X100400Y116000D02*
X253200D01*
X100400Y117600D02*
X253200D01*
X100400Y119200D02*
X253200D01*
X100400Y120800D02*
X253200D01*
X100400Y122400D02*
X253200D01*
X100400Y124000D02*
X253200D01*
X100400Y125600D02*
X253200D01*
X100400Y127200D02*
X253200D01*
X100400Y128800D02*
X253200D01*
X100400Y130400D02*
X253200D01*
X100400Y132000D02*
X253200D01*
X100400Y133600D02*
X253200D01*
X167200Y134400D02*
X254000D01*
X101200Y139200D02*
X166392D01*
X101200Y142400D02*
X166385D01*
X167200Y135200D02*
X184000D01*
X167200D02*
Y143200D01*
X101200Y140800D02*
X166388Y140800D01*
X100400Y98800D02*
Y165847D01*
X101209Y137600D02*
X166395D01*
X100400Y135200D02*
X167200D01*
X101200Y134400D02*
X167200D01*
X101200Y164800D02*
X253995D01*
X100400Y144800D02*
X253200D01*
X100400Y146400D02*
X253200D01*
X100400Y148000D02*
X253200D01*
X100400Y149600D02*
X253200D01*
X100400Y151200D02*
X253200D01*
X100400Y152800D02*
X253200D01*
X100400Y154400D02*
X253200D01*
X100400Y156000D02*
X253200D01*
X100400Y157600D02*
X253200D01*
X100400Y159200D02*
X253200D01*
X100400Y160800D02*
X253200D01*
X100400Y162400D02*
X253200D01*
X100400Y164000D02*
X253200D01*
X100400Y140000D02*
X165594D01*
X100400Y138400D02*
X165594D01*
X100400Y136800D02*
X165594D01*
X100400Y141600D02*
X165594D01*
X100400Y143200D02*
X165594D01*
X101200Y136000D02*
X166395D01*
Y144000D01*
X184800Y140800D02*
X248800D01*
Y140800D02*
Y142398D01*
X222441Y69412D02*
X252572Y99542D01*
X277215Y167667D02*
X281496Y163386D01*
X273622Y171260D02*
X277215Y167667D01*
X168588Y171260D02*
X273622D01*
X228185Y48836D02*
Y58354D01*
Y72106D01*
X254000Y97921D01*
X380096Y373236D02*
X381099Y374239D01*
Y377260D01*
X166385Y173463D02*
X168588Y171260D01*
X166385Y173463D02*
Y179678D01*
X169865Y180709D02*
X253236D01*
X67323D02*
X166154D01*
X64961Y183071D02*
X67323Y180709D01*
X222441Y64961D02*
Y69412D01*
X254000Y97921D02*
Y100870D01*
X165920Y180143D02*
X166385Y179678D01*
X166154Y180709D02*
X169865D01*
X165920Y180474D02*
X166154Y180709D01*
X165920Y180143D02*
Y180474D01*
X86614Y86614D02*
X88214D01*
X100400Y98800D01*
X228185Y48836D02*
X238025Y38995D01*
X171760Y143200D02*
X172047D01*
X169865Y141384D02*
X169944D01*
X171760Y143200D01*
X178740Y246063D02*
X182283D01*
X180180Y247638D02*
X180422Y247880D01*
X180687D01*
X178740Y247638D02*
X180180D01*
X180207Y139370D02*
X180449Y139612D01*
X178767Y139370D02*
X180207D01*
X180449Y139612D02*
X180714D01*
X180207Y178740D02*
X180449Y178982D01*
X178767Y178740D02*
X180207D01*
X180449Y178982D02*
X180714D01*
X180180Y213189D02*
X180422Y213431D01*
X178740Y213189D02*
X180180D01*
X180422Y213431D02*
X180687D01*
X178740Y211614D02*
X182283D01*
X174481Y139370D02*
X175617D01*
X170993Y140256D02*
X173595D01*
X174481Y139370D01*
X174462Y178759D02*
X175598D01*
X170870Y179704D02*
X173518D01*
X174462Y178759D01*
X169865Y141384D02*
X170993Y140256D01*
X178767Y137795D02*
X182310D01*
X169865Y180709D02*
X170870Y179704D01*
X175598Y178759D02*
X175617Y178740D01*
X177192Y139370D02*
X178767D01*
X177192Y137795D02*
Y139370D01*
X177165Y213189D02*
X178740D01*
X177165Y211614D02*
Y213189D01*
X177192Y177165D02*
Y178740D01*
X175617D02*
X177192D01*
X175591Y247638D02*
X177165D01*
Y246063D02*
Y247638D01*
D32*
X260430Y223662D02*
X261808Y222284D01*
Y221164D02*
Y222284D01*
X262500Y220472D02*
X291339D01*
X261808Y221164D02*
X262500Y220472D01*
X285433Y226378D02*
X291339Y220472D01*
X318199Y161709D02*
X318892Y162402D01*
X315672Y175886D02*
Y184449D01*
X285433Y226378D02*
Y242807D01*
X260483Y223715D02*
Y229337D01*
X260430Y223662D02*
X260483Y223715D01*
X266154Y197110D02*
X272680Y190584D01*
X293307D01*
X325376Y96612D02*
Y99171D01*
Y94056D02*
Y96612D01*
X286929Y168504D02*
Y172413D01*
X244219Y51267D02*
Y54630D01*
X245006Y50173D02*
Y50480D01*
X244219Y51267D02*
X245006Y50480D01*
X244219Y54630D02*
Y58567D01*
X241534Y46701D02*
X245006Y50173D01*
Y43124D02*
Y50173D01*
X281324Y12152D02*
X305076Y35904D01*
X191927Y12152D02*
X281324D01*
X305076Y35904D02*
X331011D01*
X172087Y31993D02*
Y40551D01*
Y31993D02*
X191927Y12152D01*
X285283Y102362D02*
X304449D01*
X263723D02*
X285283D01*
X285433Y102513D02*
Y134539D01*
X285283Y102362D02*
X285433Y102513D01*
X277559Y134539D02*
X285433D01*
X331011Y35904D02*
X342179Y47072D01*
X366931Y68708D02*
X370680Y72456D01*
X344409Y68708D02*
X366931D01*
X333586Y76932D02*
X341759Y68758D01*
X333586Y76932D02*
Y99239D01*
X342179Y68708D02*
X344409D01*
X342129Y68758D02*
X342179Y68708D01*
X341759Y68758D02*
X342129D01*
X342179Y52061D02*
X342185Y52054D01*
X342179Y52061D02*
Y61303D01*
X252297Y42443D02*
Y57788D01*
X298532Y107874D02*
Y112598D01*
X373622Y374038D02*
Y379130D01*
X370680Y72456D02*
Y371096D01*
X373622Y374038D01*
Y379130D02*
X374807Y380315D01*
X271490Y43839D02*
X275199D01*
X275537Y43500D01*
X275590D01*
X318699Y153814D02*
X321861D01*
X318199Y154314D02*
X318699Y153814D01*
X318392Y162902D02*
X318892Y162402D01*
X318392Y162902D02*
Y165472D01*
X312325Y109433D02*
X315564Y112672D01*
X317113D01*
X306482Y96801D02*
X313120D01*
X309881Y93401D02*
X311559D01*
X311597Y93364D01*
X306186Y96801D02*
X306482D01*
X309881Y93401D01*
X304449Y102362D02*
X306186Y104100D01*
X296563Y114567D02*
X298532Y112598D01*
X296563Y114567D02*
Y120079D01*
X300337Y106069D02*
X304218D01*
X298532Y107874D02*
X300337Y106069D01*
X329227Y103597D02*
X333586Y99239D01*
X251518Y58567D02*
Y90157D01*
X263723Y102362D01*
X299890Y152972D02*
X303557Y149305D01*
X306186D01*
X291113Y211388D02*
X291339Y211614D01*
X285827Y208358D02*
X288857Y211388D01*
X291113D01*
X315770Y167092D02*
Y169783D01*
X315672Y169882D02*
X315770Y169783D01*
Y167092D02*
X317514Y165348D01*
X318199Y154314D02*
Y161709D01*
X315672Y169882D02*
Y175886D01*
X318231Y173327D01*
X314392Y177165D02*
X315672Y175886D01*
X318231Y169882D02*
Y173327D01*
X313113Y175886D02*
X314392Y177165D01*
X307109Y175886D02*
X313113D01*
X277559Y242807D02*
X285433D01*
Y208358D02*
X285827D01*
X293269Y180966D02*
X293307Y181004D01*
X292884Y180966D02*
X293269D01*
X285827Y173909D02*
X292884Y180966D01*
X277559Y208358D02*
X285433D01*
X285433Y208358D01*
Y198458D02*
Y208358D01*
Y198458D02*
X293307Y190584D01*
X277559Y173909D02*
X285433D01*
X277559Y173909D02*
X277559Y173909D01*
X286614Y172728D02*
Y173122D01*
X285433Y173909D02*
X285827D01*
X286614Y173122D01*
Y172728D02*
X286929Y172413D01*
X238717Y39687D02*
X243242D01*
X238025Y33654D02*
Y38995D01*
Y33654D02*
X242155Y29525D01*
X238025Y38995D02*
X238717Y39687D01*
X244127Y29525D02*
X244612Y29040D01*
X242155Y29525D02*
X244127D01*
X243242Y39687D02*
X243439Y39884D01*
X244325Y42443D02*
X245006Y43124D01*
X243439Y42443D02*
X244325D01*
X314392Y94056D02*
X315084Y93364D01*
X314392Y94056D02*
Y96612D01*
X315084Y93364D02*
X324685D01*
X325376Y94056D01*
X314392Y96612D02*
Y99171D01*
X313309Y96612D02*
X314392D01*
Y99171D02*
Y101730D01*
X313120Y96801D02*
X313309Y96612D01*
X328339Y101730D02*
X329227Y102619D01*
X325376Y104289D02*
X328535D01*
X325376Y101730D02*
X328339D01*
X329227Y102619D02*
Y103597D01*
X328535Y104289D02*
X329227Y103597D01*
X325376Y104289D02*
Y111708D01*
X324413Y112672D02*
X325376Y111708D01*
X310900Y154314D02*
Y154609D01*
Y154019D02*
Y154314D01*
X251518Y58567D02*
X252297Y57788D01*
X304218Y106069D02*
X306186Y104100D01*
X310900Y154609D02*
X313168Y156877D01*
Y162402D01*
X313113Y162457D02*
X313168Y162402D01*
X313113Y162457D02*
Y169882D01*
X306186Y149305D02*
X310900Y154019D01*
X306186Y104100D02*
Y149305D01*
Y104100D02*
X306375Y104289D01*
X314392D01*
D33*
X365945Y375447D02*
Y381299D01*
Y375447D02*
X366535Y374856D01*
D34*
X284369Y163611D02*
Y165944D01*
X281043Y160285D02*
X284369Y163611D01*
X270694Y160285D02*
X281043D01*
X263632Y191386D02*
Y194588D01*
X266154Y197110D01*
X284369Y165944D02*
X286929Y168504D01*
X257087Y175591D02*
X258768Y173909D01*
X277559D01*
X269323Y164812D02*
X270026D01*
X269027Y165108D02*
X269323Y164812D01*
X270026D02*
X270616Y164222D01*
X270616D01*
X271490Y163348D01*
Y161081D02*
Y163348D01*
X269027Y159990D02*
X269323Y160285D01*
X270694D01*
X271490Y161081D01*
X267854Y159308D02*
X268535Y159990D01*
X267854Y153772D02*
Y159308D01*
X268535Y159990D02*
X269027D01*
X258768Y134539D02*
X277559D01*
X257087Y136221D02*
X258768Y134539D01*
X230941Y23685D02*
X271675D01*
X222087Y32540D02*
Y40551D01*
Y32540D02*
X230941Y23685D01*
X212087Y30717D02*
Y40551D01*
X221638Y21166D02*
X272680D01*
X212087Y30717D02*
X221638Y21166D01*
X293559Y49563D02*
X357157D01*
X277042Y19040D02*
X300336Y42334D01*
X212952Y19040D02*
X277042D01*
X202087Y29906D02*
X212952Y19040D01*
X202087Y29906D02*
Y40551D01*
X323243Y42334D02*
X326460Y45551D01*
X300336Y42334D02*
X323243D01*
X272680Y21166D02*
X298586Y47072D01*
X324070D01*
X293559Y45568D02*
Y49563D01*
X271675Y23685D02*
X293559Y45568D01*
X271490Y49563D02*
X293559D01*
X357157D02*
X376302Y68708D01*
Y369442D01*
X380096Y373236D01*
X324070Y63799D02*
X368397D01*
X325724Y65868D02*
X367637D01*
X368397Y63799D02*
X374063Y69465D01*
X367637Y65868D02*
X372301Y70532D01*
X252297Y37325D02*
X264484D01*
X326577Y54583D02*
Y61303D01*
X325724Y66700D02*
X326313Y67289D01*
X325724Y65868D02*
Y66700D01*
X323998Y52390D02*
X324070Y52462D01*
Y63799D01*
X372301Y369947D02*
X376575Y374220D01*
Y377362D01*
X372301Y369947D02*
X372301Y70532D01*
X374063Y369347D02*
X378937Y374220D01*
X374063Y369347D02*
X374063Y69465D01*
X378937Y374220D02*
Y377362D01*
X291997Y112227D02*
X293307Y113537D01*
X288630Y99239D02*
X324070Y63799D01*
X291998Y99594D02*
X325724Y65868D01*
X292072Y105436D02*
Y112153D01*
X292020Y112205D02*
X292072Y112153D01*
X288630Y105436D02*
Y115113D01*
X290051Y116534D01*
Y120079D01*
X171147Y244208D02*
Y244680D01*
X169764Y246063D02*
X171147Y244680D01*
Y244208D02*
X171260Y244094D01*
X169685Y246063D02*
X169764D01*
X257087Y210039D02*
X258768Y208358D01*
X277559D01*
X258768Y242807D02*
X277559D01*
X257087Y244488D02*
X258768Y242807D01*
X263616Y50012D02*
X271041D01*
X271490Y49563D01*
X264484Y37325D02*
X266864Y34945D01*
X263616Y38193D02*
X264484Y37325D01*
X263616Y38193D02*
Y43500D01*
X266864Y34945D02*
X267553D01*
X251124Y29433D02*
X252297Y30607D01*
Y37325D01*
X251124Y29040D02*
Y29433D01*
X310554Y168504D02*
Y169882D01*
X293307Y151258D02*
X310554Y168504D01*
X293307Y113537D02*
Y151258D01*
X307109Y168701D02*
Y173327D01*
X290051Y120079D02*
Y151643D01*
X307109Y168701D01*
D35*
X113537Y48656D02*
X123235Y58354D01*
X144481D02*
X152087Y50749D01*
X123235Y58354D02*
X144481D01*
X152087Y40551D02*
Y50749D01*
X141869Y40769D02*
X142087Y40551D01*
X140139Y51181D02*
X141869Y49451D01*
X125984Y51181D02*
X140139D01*
X141869Y40769D02*
Y49451D01*
X127520Y40551D02*
X132087D01*
X56493Y48656D02*
X113537D01*
X51181Y32017D02*
X118986D01*
X22665Y71836D02*
X53950Y40551D01*
X115354D02*
X125984Y51181D01*
X53950Y40551D02*
X115354D01*
X118986Y32017D02*
X127520Y40551D01*
X37402Y67748D02*
Y150400D01*
Y67748D02*
X56493Y48656D01*
X22665Y71836D02*
Y177165D01*
X15748Y67450D02*
X51181Y32017D01*
X15748Y67450D02*
Y190945D01*
D36*
X381299Y381299D02*
D03*
D37*
X380118D02*
D03*
X377756D02*
D03*
X375394D02*
D03*
X373031D02*
D03*
X370669D02*
D03*
X368307D02*
D03*
X365945D02*
D03*
D38*
X378937D02*
D03*
X376575D02*
D03*
X374213D02*
D03*
X371850D02*
D03*
X369488D02*
D03*
X367126D02*
D03*
D39*
X364764D02*
D03*
D40*
X334646Y334646D02*
D03*
X19685Y334646D02*
D03*
X334646Y19230D02*
D03*
X19685Y19685D02*
D03*
X66929Y287402D02*
D03*
X287402D02*
D03*
X287501Y66915D02*
D03*
X66929Y66929D02*
D03*
X267717Y267717D02*
D03*
X86614D02*
D03*
X267717Y86614D02*
D03*
X86614D02*
D03*
D41*
X257113Y178848D02*
D03*
X258794Y177165D02*
D03*
X182310D02*
D03*
X251200Y140800D02*
D03*
X202756Y5906D02*
D03*
X320866Y242126D02*
D03*
Y124016D02*
D03*
X281496Y5906D02*
D03*
Y45276D02*
D03*
X340551Y301181D02*
D03*
X64961Y143701D02*
D03*
X5906Y124016D02*
D03*
X340551D02*
D03*
X64961Y45276D02*
D03*
X183071Y281496D02*
D03*
X84646Y45276D02*
D03*
X5906Y261811D02*
D03*
X183071Y64961D02*
D03*
Y25591D02*
D03*
X25591Y183071D02*
D03*
X301181Y45276D02*
D03*
X340551Y143701D02*
D03*
Y104331D02*
D03*
X124016Y25591D02*
D03*
X320866Y84646D02*
D03*
X64961D02*
D03*
X84646Y5906D02*
D03*
X25591Y163386D02*
D03*
X64961Y5906D02*
D03*
X25591Y124016D02*
D03*
X143701Y25591D02*
D03*
X5906Y45276D02*
D03*
Y202756D02*
D03*
X104331Y45276D02*
D03*
X301181Y261811D02*
D03*
X320866Y143701D02*
D03*
X222441Y5906D02*
D03*
X301181Y143701D02*
D03*
X340551Y281496D02*
D03*
X64961Y202756D02*
D03*
X25591D02*
D03*
X340551Y183071D02*
D03*
X45276Y104331D02*
D03*
X25591Y281496D02*
D03*
X340551Y222441D02*
D03*
X124016Y64961D02*
D03*
X340551Y202756D02*
D03*
X261811Y25591D02*
D03*
X124016Y281496D02*
D03*
X5906Y143701D02*
D03*
X64961Y104331D02*
D03*
X340551Y242126D02*
D03*
X64961Y340551D02*
D03*
X5906Y242126D02*
D03*
Y104331D02*
D03*
X301181Y124016D02*
D03*
X25591Y242126D02*
D03*
X84646Y64961D02*
D03*
X64961Y183071D02*
D03*
X163386Y5906D02*
D03*
X242126Y281496D02*
D03*
X301181Y301181D02*
D03*
X25591Y64961D02*
D03*
X143701Y5906D02*
D03*
X261811D02*
D03*
Y64961D02*
D03*
X143701D02*
D03*
X281496Y202756D02*
D03*
X104331Y281496D02*
D03*
X45276Y261811D02*
D03*
Y281496D02*
D03*
X5906Y163386D02*
D03*
X301181Y320866D02*
D03*
X320866Y301181D02*
D03*
X124016Y5906D02*
D03*
X64961Y242126D02*
D03*
X5906Y64961D02*
D03*
X320866Y45276D02*
D03*
X104331Y64961D02*
D03*
X163386Y281496D02*
D03*
X242126Y5906D02*
D03*
X301181Y222441D02*
D03*
X45276D02*
D03*
X301181Y5906D02*
D03*
X45276Y124016D02*
D03*
Y84646D02*
D03*
Y320866D02*
D03*
Y242126D02*
D03*
X281496Y124016D02*
D03*
X202756Y281496D02*
D03*
X25591Y261811D02*
D03*
X64961D02*
D03*
X45276Y64961D02*
D03*
X281496Y340551D02*
D03*
X320866Y261811D02*
D03*
X25591Y45276D02*
D03*
X5906Y183071D02*
D03*
X25591Y104331D02*
D03*
X183071Y5906D02*
D03*
X202756Y25591D02*
D03*
X5906Y320866D02*
D03*
X320866Y281496D02*
D03*
X25591Y143701D02*
D03*
X340551Y163386D02*
D03*
X5906Y281496D02*
D03*
X301181Y202756D02*
D03*
X163386Y25591D02*
D03*
X104331D02*
D03*
X25591Y222441D02*
D03*
X84646Y25591D02*
D03*
X45276Y340551D02*
D03*
X163386Y64961D02*
D03*
X45276Y5906D02*
D03*
X320866D02*
D03*
X301181Y25591D02*
D03*
X45276D02*
D03*
X242126Y64961D02*
D03*
X281496Y25591D02*
D03*
X25591Y301181D02*
D03*
X5906D02*
D03*
X104331Y5906D02*
D03*
X301181Y340551D02*
D03*
X64961Y25591D02*
D03*
X360236Y45276D02*
D03*
X202756Y64961D02*
D03*
X281496Y222441D02*
D03*
X340551Y261811D02*
D03*
X45276Y301181D02*
D03*
X64961Y163386D02*
D03*
X281496D02*
D03*
X5906Y84646D02*
D03*
X25591D02*
D03*
X64961Y320866D02*
D03*
X124016Y45276D02*
D03*
X222441Y281496D02*
D03*
X281496Y320866D02*
D03*
X320866D02*
D03*
X143701Y281496D02*
D03*
X5906Y222441D02*
D03*
X258768Y246063D02*
D03*
X277215Y218160D02*
D03*
X276772Y238583D02*
D03*
X285433Y161417D02*
D03*
X257113Y175591D02*
D03*
X323838Y214358D02*
D03*
Y207232D02*
D03*
X324203Y189349D02*
D03*
X222441Y25591D02*
D03*
X212087D02*
D03*
X192087D02*
D03*
X232087Y26204D02*
D03*
X331011Y45429D02*
D03*
X289717Y247835D02*
D03*
X299456Y180709D02*
D03*
X282238Y147683D02*
D03*
X302071Y168701D02*
D03*
X331632Y56765D02*
D03*
X353934Y57765D02*
D03*
X336614Y47107D02*
D03*
X339345Y47480D02*
D03*
X339740Y52675D02*
D03*
X338987Y61263D02*
D03*
X341980Y77389D02*
D03*
X337215Y51718D02*
D03*
Y61422D02*
D03*
X339009Y77065D02*
D03*
X342179Y47072D02*
D03*
X342185Y52054D02*
D03*
X342179Y61303D02*
D03*
Y68721D02*
D03*
X344409Y68708D02*
D03*
X326460Y45551D02*
D03*
X326577Y54583D02*
D03*
Y61303D02*
D03*
X326313Y67289D02*
D03*
X324070Y47072D02*
D03*
X323998Y52390D02*
D03*
X366535Y374856D02*
D03*
X172030Y175591D02*
D03*
X230842Y77146D02*
D03*
X258768Y211614D02*
D03*
X258794Y137795D02*
D03*
X244219Y54630D02*
D03*
X241534Y46701D02*
D03*
X275590Y43500D02*
D03*
X257113Y139084D02*
D03*
X321861Y153814D02*
D03*
X318392Y165472D02*
D03*
X312325Y109433D02*
D03*
X311597Y93364D02*
D03*
X291998Y99594D02*
D03*
X292072Y105436D02*
D03*
X288630Y99239D02*
D03*
Y105436D02*
D03*
X171260Y244094D02*
D03*
X172030Y210039D02*
D03*
Y136687D02*
D03*
X330709Y202953D02*
D03*
X313007Y200787D02*
D03*
X332677D02*
D03*
X316030D02*
D03*
X182283Y246063D02*
D03*
X180687Y247880D02*
D03*
X257087Y247352D02*
D03*
X180714Y139612D02*
D03*
Y178982D02*
D03*
X180687Y213431D02*
D03*
X182283Y211614D02*
D03*
X308268Y217520D02*
D03*
X257087Y212903D02*
D03*
Y210039D02*
D03*
X182310Y137795D02*
D03*
X257113Y136221D02*
D03*
X257087Y244488D02*
D03*
X326772Y204724D02*
D03*
Y210630D02*
D03*
X285433Y155512D02*
D03*
X307109Y184449D02*
D03*
X314392Y192913D02*
D03*
X312992Y212598D02*
D03*
D42*
X258114Y185407D02*
D03*
X260844Y238099D02*
D03*
X257924Y232950D02*
D03*
X291339Y220472D02*
D03*
X277559Y184785D02*
D03*
X271490Y180421D02*
D03*
Y177165D02*
D03*
X266191Y185284D02*
D03*
X263919Y169143D02*
D03*
X286929Y168504D02*
D03*
X275590Y146066D02*
D03*
X257924Y166379D02*
D03*
X37402Y150400D02*
D03*
X22665Y177165D02*
D03*
X15748Y190945D02*
D03*
X299890Y152972D02*
D03*
X291339Y211614D02*
D03*
X293307Y181004D02*
D03*
Y190584D02*
D03*
%TF.MD5,bfeeb628ede5e4497d77a2b5a66c23fb*%
M02*
