%TF.GenerationSoftware,Altium Limited,Altium Designer,24.0.1 (36)*%
G04 Layer_Color=32896*
%FSLAX25Y25*%
%MOIN*%
%TF.SameCoordinates,674ED1FF-067C-45DD-8C41-4F82C3FA2B26*%
%TF.FilePolarity,Positive*%
%TF.FileFunction,Other,Fab_Notes*%
%TF.Part,Single*%
G01*
G75*
%TA.AperFunction,NonConductor*%
%ADD48C,0.01000*%
D48*
X382283Y384925D02*
G03*
X381283Y385925I-1000J0D01*
G01*
Y356496D02*
G03*
X382283Y357496I0J1000D01*
G01*
X364681Y385925D02*
G03*
X363681Y384925I0J-1000D01*
G01*
Y357496D02*
G03*
X364681Y356496I1000J0D01*
G01*
X381283D01*
X364681Y385925D02*
X381283D01*
X382283Y357496D02*
Y384925D01*
X363681Y357496D02*
Y384925D01*
X245829Y386627D02*
X243830D01*
X242830Y385627D01*
Y381628D01*
X243830Y380628D01*
X245829D01*
X246829Y381628D01*
Y385627D01*
X245829Y386627D01*
X248829Y380628D02*
Y384627D01*
X251828D01*
X252827Y383627D01*
Y380628D01*
X260825Y386627D02*
Y380628D01*
X263824D01*
X264823Y381628D01*
Y382628D01*
X263824Y383627D01*
X260825D01*
X263824D01*
X264823Y384627D01*
Y385627D01*
X263824Y386627D01*
X260825D01*
X267822Y380628D02*
X269822D01*
X270821Y381628D01*
Y383627D01*
X269822Y384627D01*
X267822D01*
X266823Y383627D01*
Y381628D01*
X267822Y380628D01*
X273820Y385627D02*
Y384627D01*
X272821D01*
X274820D01*
X273820D01*
Y381628D01*
X274820Y380628D01*
X278819Y385627D02*
Y384627D01*
X277819D01*
X279818D01*
X278819D01*
Y381628D01*
X279818Y380628D01*
X283817D02*
X285817D01*
X286816Y381628D01*
Y383627D01*
X285817Y384627D01*
X283817D01*
X282818Y383627D01*
Y381628D01*
X283817Y380628D01*
X288815D02*
Y384627D01*
X289815D01*
X290815Y383627D01*
Y380628D01*
Y383627D01*
X291815Y384627D01*
X292814Y383627D01*
Y380628D01*
X294814Y384627D02*
X295813D01*
Y383627D01*
X294814D01*
Y384627D01*
Y381628D02*
X295813D01*
Y380628D01*
X294814D01*
Y381628D01*
X308809Y380628D02*
Y386627D01*
X305810Y383627D01*
X309809D01*
X311808Y380628D02*
Y381628D01*
X312808D01*
Y380628D01*
X311808D01*
X320805Y386627D02*
X316807D01*
Y383627D01*
X318806Y384627D01*
X319806D01*
X320805Y383627D01*
Y381628D01*
X319806Y380628D01*
X317806D01*
X316807Y381628D01*
X322804Y384627D02*
X326803Y380628D01*
X324804Y382628D01*
X326803Y384627D01*
X322804Y380628D01*
X328803Y386627D02*
X332801D01*
Y385627D01*
X328803Y381628D01*
Y380628D01*
X334801D02*
Y381628D01*
X335800D01*
Y380628D01*
X334801D01*
X343798Y386627D02*
X339799D01*
Y383627D01*
X341798Y384627D01*
X342798D01*
X343798Y383627D01*
Y381628D01*
X342798Y380628D01*
X340799D01*
X339799Y381628D01*
X351795Y380628D02*
Y386627D01*
X354794D01*
X355794Y385627D01*
Y383627D01*
X354794Y382628D01*
X351795D01*
X357793Y380628D02*
X359793D01*
X358793D01*
Y384627D01*
X357793D01*
X246829Y376029D02*
X245829Y377029D01*
X243830D01*
X242830Y376029D01*
Y375029D01*
X243830Y374030D01*
X245829D01*
X246829Y373030D01*
Y372030D01*
X245829Y371031D01*
X243830D01*
X242830Y372030D01*
X249828Y376029D02*
Y375029D01*
X248829D01*
X250828D01*
X249828D01*
Y372030D01*
X250828Y371031D01*
X253827D02*
X255826D01*
X254826D01*
Y375029D01*
X253827D01*
X259825Y371031D02*
Y376029D01*
Y374030D01*
X258825D01*
X260825D01*
X259825D01*
Y376029D01*
X260825Y377029D01*
X264823Y371031D02*
Y376029D01*
Y374030D01*
X263824D01*
X265823D01*
X264823D01*
Y376029D01*
X265823Y377029D01*
X271821Y371031D02*
X269822D01*
X268822Y372030D01*
Y374030D01*
X269822Y375029D01*
X271821D01*
X272821Y374030D01*
Y373030D01*
X268822D01*
X274820Y371031D02*
Y375029D01*
X277819D01*
X278819Y374030D01*
Y371031D01*
X283817D02*
X281818D01*
X280818Y372030D01*
Y374030D01*
X281818Y375029D01*
X283817D01*
X284817Y374030D01*
Y373030D01*
X280818D01*
X286816Y375029D02*
Y371031D01*
Y373030D01*
X287816Y374030D01*
X288815Y375029D01*
X289815D01*
X300812Y371031D02*
X298812Y373030D01*
Y375029D01*
X300812Y377029D01*
X303811D02*
X307809D01*
X305810D01*
Y371031D01*
X309809Y373030D02*
X313807D01*
X309809Y375029D02*
X313807D01*
X315807Y376029D02*
X316807Y377029D01*
X318806D01*
X319806Y376029D01*
Y372030D01*
X318806Y371031D01*
X316807D01*
X315807Y372030D01*
Y376029D01*
X321805Y371031D02*
Y372030D01*
X322804D01*
Y371031D01*
X321805D01*
X326803D02*
X328803D01*
X327803D01*
Y377029D01*
X326803Y376029D01*
X331802Y371031D02*
X333801Y373030D01*
Y375029D01*
X331802Y377029D01*
X242830Y367431D02*
X246829D01*
X244830D01*
Y361433D01*
X248829Y363432D02*
X252827D01*
X248829Y365432D02*
X252827D01*
X254826Y366431D02*
X255826Y367431D01*
X257826D01*
X258825Y366431D01*
Y362433D01*
X257826Y361433D01*
X255826D01*
X254826Y362433D01*
Y366431D01*
X260825Y361433D02*
Y362433D01*
X261824D01*
Y361433D01*
X260825D01*
X269822D02*
X265823D01*
X269822Y365432D01*
Y366431D01*
X268822Y367431D01*
X266823D01*
X265823Y366431D01*
X279818Y361433D02*
X277819Y363432D01*
Y365432D01*
X279818Y367431D01*
X283817Y366431D02*
Y365432D01*
X282818D01*
X284817D01*
X283817D01*
Y362433D01*
X284817Y361433D01*
X288815D02*
X290815D01*
X291815Y362433D01*
Y364432D01*
X290815Y365432D01*
X288815D01*
X287816Y364432D01*
Y362433D01*
X288815Y361433D01*
X294814Y366431D02*
Y365432D01*
X293814D01*
X295813D01*
X294814D01*
Y362433D01*
X295813Y361433D01*
X299812Y365432D02*
X301811D01*
X302811Y364432D01*
Y361433D01*
X299812D01*
X298812Y362433D01*
X299812Y363432D01*
X302811D01*
X304810Y361433D02*
X306810D01*
X305810D01*
Y367431D01*
X304810D01*
X309809Y361433D02*
X311808Y363432D01*
Y365432D01*
X309809Y367431D01*
%TF.MD5,709d9b5ec048bf5a3cccb7057e29d845*%
M02*
