%TF.GenerationSoftware,Altium Limited,Altium Designer,24.0.1 (36)*%
G04 Layer_Color=65535*
%FSLAX25Y25*%
%MOIN*%
%TF.SameCoordinates,674ED1FF-067C-45DD-8C41-4F82C3FA2B26*%
%TF.FilePolarity,Positive*%
%TF.FileFunction,Legend,Top*%
%TF.Part,Single*%
G01*
G75*
%TA.AperFunction,NonConductor*%
%ADD45C,0.00394*%
%ADD46C,0.00984*%
%ADD47C,0.01280*%
%ADD48C,0.01000*%
%ADD49C,0.00787*%
D45*
X259105Y183906D02*
G03*
X259105Y183906I-197J0D01*
G01*
X258594Y159005D02*
G03*
X258594Y159005I-197J0D01*
G01*
X265404Y236817D02*
G03*
X265404Y236817I-197J0D01*
G01*
X174023Y141024D02*
G03*
X174023Y141024I-197J0D01*
G01*
Y180394D02*
G03*
X174023Y180394I-197J0D01*
G01*
X173996Y214843D02*
G03*
X173996Y214843I-197J0D01*
G01*
Y249291D02*
G03*
X173996Y249291I-197J0D01*
G01*
X311813Y107143D02*
G03*
X311813Y107143I-197J0D01*
G01*
X264715Y191977D02*
X265404D01*
X261565D02*
X262550D01*
X265404Y185284D02*
Y191977D01*
X264715Y185284D02*
X265404D01*
X261565D02*
X262550D01*
X258711Y191977D02*
X259400D01*
X258711Y185284D02*
X259400D01*
X258711D02*
Y191977D01*
X259677Y169143D02*
X270307D01*
X259677Y158513D02*
X270307D01*
X264715Y235439D02*
X265404D01*
X261565D02*
X262550D01*
X265404Y228746D02*
Y235439D01*
X264715Y228746D02*
X265404D01*
X261565D02*
X262550D01*
X258711Y235439D02*
X259400D01*
X258711Y228746D02*
X259400D01*
X258711D02*
Y235439D01*
X306518Y169291D02*
X308487D01*
X306518D02*
Y171260D01*
X322266Y169291D02*
Y171260D01*
X320298Y169291D02*
X322266D01*
X320298Y185039D02*
X322266D01*
Y183071D02*
Y185039D01*
X306518Y183071D02*
Y185039D01*
X308487D01*
D46*
X243931Y45396D02*
G03*
X243931Y45396I-492J0D01*
G01*
D47*
X324380Y169488D02*
G03*
X324380Y169488I-640J0D01*
G01*
D48*
X227087Y23685D02*
G03*
X226087Y24685I-1000J0D01*
G01*
Y14685D02*
G03*
X227087Y15685I0J1000D01*
G01*
X128087Y24685D02*
G03*
X127087Y23685I0J-1000D01*
G01*
Y15685D02*
G03*
X128087Y14685I1000J0D01*
G01*
X227087Y35551D02*
Y45551D01*
Y15685D02*
Y23685D01*
X127087Y15685D02*
Y23685D01*
X128087Y14685D02*
X226087D01*
X128087Y24685D02*
X226087D01*
X264009Y149028D02*
X263009Y150028D01*
X261010D01*
X260010Y149028D01*
Y145029D01*
X261010Y144029D01*
X263009D01*
X264009Y145029D01*
X266008Y144029D02*
X268007D01*
X267008D01*
Y150028D01*
X266008Y149028D01*
X274005Y144029D02*
Y150028D01*
X271006Y147028D01*
X275005D01*
X267572Y191209D02*
Y186210D01*
X268571Y185210D01*
X270571D01*
X271571Y186210D01*
Y191209D01*
X273570Y185210D02*
X275569D01*
X274570D01*
Y191209D01*
X273570Y190209D01*
X278568D02*
X279568Y191209D01*
X281567D01*
X282567Y190209D01*
Y186210D01*
X281567Y185210D01*
X279568D01*
X278568Y186210D01*
Y190209D01*
X259994Y176909D02*
Y171910D01*
X260993Y170910D01*
X262993D01*
X263992Y171910D01*
Y176909D01*
X265992Y171910D02*
X266991Y170910D01*
X268991D01*
X269990Y171910D01*
Y175909D01*
X268991Y176909D01*
X266991D01*
X265992Y175909D01*
Y174909D01*
X266991Y173909D01*
X269990D01*
X262269Y205791D02*
X261270Y206791D01*
X259270D01*
X258271Y205791D01*
Y201793D01*
X259270Y200793D01*
X261270D01*
X262269Y201793D01*
X264269Y200793D02*
X266268D01*
X265268D01*
Y206791D01*
X264269Y205791D01*
X273266Y206791D02*
X269267D01*
Y203792D01*
X271267Y204792D01*
X272266D01*
X273266Y203792D01*
Y201793D01*
X272266Y200793D01*
X270267D01*
X269267Y201793D01*
X258763Y244184D02*
Y239186D01*
X259762Y238186D01*
X261762D01*
X262761Y239186D01*
Y244184D01*
X264761Y243185D02*
X265760Y244184D01*
X267760D01*
X268759Y243185D01*
Y242185D01*
X267760Y241185D01*
X268759Y240186D01*
Y239186D01*
X267760Y238186D01*
X265760D01*
X264761Y239186D01*
Y240186D01*
X265760Y241185D01*
X264761Y242185D01*
Y243185D01*
X265760Y241185D02*
X267760D01*
X262274Y218995D02*
X261274Y219995D01*
X259275D01*
X258275Y218995D01*
Y214997D01*
X259275Y213997D01*
X261274D01*
X262274Y214997D01*
X264273Y213997D02*
X266273D01*
X265273D01*
Y219995D01*
X264273Y218995D01*
X269272D02*
X270271Y219995D01*
X272271D01*
X273270Y218995D01*
Y217996D01*
X272271Y216996D01*
X271271D01*
X272271D01*
X273270Y215996D01*
Y214997D01*
X272271Y213997D01*
X270271D01*
X269272Y214997D01*
X102541Y22684D02*
Y16686D01*
Y19685D01*
X106540D01*
Y22684D01*
Y16686D01*
X108539Y22684D02*
Y16686D01*
X111538D01*
X112538Y17686D01*
Y21684D01*
X111538Y22684D01*
X108539D01*
X114537Y16686D02*
Y22684D01*
X117536D01*
X118536Y21684D01*
Y19685D01*
X117536Y18685D01*
X114537D01*
X116536D02*
X118536Y16686D01*
X124534D02*
X120535D01*
X124534Y20685D01*
Y21684D01*
X123534Y22684D01*
X121535D01*
X120535Y21684D01*
X293684Y203694D02*
Y209692D01*
X296683D01*
X297682Y208692D01*
Y206693D01*
X296683Y205693D01*
X293684D01*
X295683D02*
X297682Y203694D01*
X299682D02*
X301681D01*
X300681D01*
Y209692D01*
X299682Y208692D01*
X308679Y209692D02*
X304680D01*
Y206693D01*
X306679Y207693D01*
X307679D01*
X308679Y206693D01*
Y204694D01*
X307679Y203694D01*
X305680D01*
X304680Y204694D01*
X295652Y193851D02*
Y199849D01*
X298651D01*
X299651Y198850D01*
Y196850D01*
X298651Y195851D01*
X295652D01*
X297651D02*
X299651Y193851D01*
X301650D02*
X303649D01*
X302650D01*
Y199849D01*
X301650Y198850D01*
X309647Y193851D02*
Y199849D01*
X306648Y196850D01*
X310647D01*
X229254Y41745D02*
Y36747D01*
X230253Y35747D01*
X232253D01*
X233252Y36747D01*
Y41745D01*
X239250D02*
X237251Y40745D01*
X235251Y38746D01*
Y36747D01*
X236251Y35747D01*
X238250D01*
X239250Y36747D01*
Y37746D01*
X238250Y38746D01*
X235251D01*
X322150Y191630D02*
Y186631D01*
X323149Y185632D01*
X325149D01*
X326148Y186631D01*
Y191630D01*
X332147D02*
X328148D01*
Y188631D01*
X330147Y189630D01*
X331147D01*
X332147Y188631D01*
Y186631D01*
X331147Y185632D01*
X329148D01*
X328148Y186631D01*
X312930Y91582D02*
Y86583D01*
X313930Y85584D01*
X315930D01*
X316929Y86583D01*
Y91582D01*
X318929Y85584D02*
X320928D01*
X319928D01*
Y91582D01*
X318929Y90582D01*
X266615Y55007D02*
X260617D01*
Y58006D01*
X261617Y59005D01*
X263616D01*
X264616Y58006D01*
Y55007D01*
Y57006D02*
X266615Y59005D01*
Y61005D02*
Y63004D01*
Y62005D01*
X260617D01*
X261617Y61005D01*
Y66003D02*
X260617Y67003D01*
Y69002D01*
X261617Y70002D01*
X262616D01*
X263616Y69002D01*
Y68002D01*
Y69002D01*
X264616Y70002D01*
X265616D01*
X266615Y69002D01*
Y67003D01*
X265616Y66003D01*
X280558Y115231D02*
X274560D01*
Y118230D01*
X275560Y119230D01*
X277559D01*
X278559Y118230D01*
Y115231D01*
Y117231D02*
X280558Y119230D01*
Y121229D02*
Y123229D01*
Y122229D01*
X274560D01*
X275560Y121229D01*
X280558Y130227D02*
Y126228D01*
X276559Y130227D01*
X275560D01*
X274560Y129227D01*
Y127227D01*
X275560Y126228D01*
X288432Y116231D02*
X282434D01*
Y119230D01*
X283434Y120230D01*
X285433D01*
X286433Y119230D01*
Y116231D01*
Y118230D02*
X288432Y120230D01*
Y122229D02*
Y124229D01*
Y123229D01*
X282434D01*
X283434Y122229D01*
X288432Y127227D02*
Y129227D01*
Y128227D01*
X282434D01*
X283434Y127227D01*
X240371Y18167D02*
Y24165D01*
X243370D01*
X244369Y23165D01*
Y21166D01*
X243370Y20166D01*
X240371D01*
X242370D02*
X244369Y18167D01*
X246369D02*
X248368D01*
X247368D01*
Y24165D01*
X246369Y23165D01*
X251367D02*
X252367Y24165D01*
X254366D01*
X255366Y23165D01*
Y19166D01*
X254366Y18167D01*
X252367D01*
X251367Y19166D01*
Y23165D01*
X280558Y160356D02*
X274560D01*
Y163355D01*
X275560Y164355D01*
X277559D01*
X278559Y163355D01*
Y160356D01*
Y162355D02*
X280558Y164355D01*
X279558Y166354D02*
X280558Y167354D01*
Y169353D01*
X279558Y170353D01*
X275560D01*
X274560Y169353D01*
Y167354D01*
X275560Y166354D01*
X276559D01*
X277559Y167354D01*
Y170353D01*
X288432Y160356D02*
X282434D01*
Y163355D01*
X283434Y164355D01*
X285433D01*
X286433Y163355D01*
Y160356D01*
Y162355D02*
X288432Y164355D01*
X283434Y166354D02*
X282434Y167354D01*
Y169353D01*
X283434Y170353D01*
X284433D01*
X285433Y169353D01*
X286433Y170353D01*
X287432D01*
X288432Y169353D01*
Y167354D01*
X287432Y166354D01*
X286433D01*
X285433Y167354D01*
X284433Y166354D01*
X283434D01*
X285433Y167354D02*
Y169353D01*
X335676Y155388D02*
X329678D01*
Y158387D01*
X330678Y159387D01*
X332677D01*
X333677Y158387D01*
Y155388D01*
Y157388D02*
X335676Y159387D01*
X329678Y161387D02*
Y165385D01*
X330678D01*
X334677Y161387D01*
X335676D01*
X290277Y101332D02*
Y107330D01*
X293276D01*
X294276Y106330D01*
Y104331D01*
X293276Y103331D01*
X290277D01*
X292277D02*
X294276Y101332D01*
X300274Y107330D02*
X298275Y106330D01*
X296275Y104331D01*
Y102331D01*
X297275Y101332D01*
X299274D01*
X300274Y102331D01*
Y103331D01*
X299274Y104331D01*
X296275D01*
X290277Y124954D02*
Y130952D01*
X293276D01*
X294276Y129952D01*
Y127953D01*
X293276Y126953D01*
X290277D01*
X292277D02*
X294276Y124954D01*
X300274Y130952D02*
X296275D01*
Y127953D01*
X298275Y128952D01*
X299274D01*
X300274Y127953D01*
Y125953D01*
X299274Y124954D01*
X297275D01*
X296275Y125953D01*
X280558Y193552D02*
X274560D01*
Y196551D01*
X275560Y197550D01*
X277559D01*
X278559Y196551D01*
Y193552D01*
Y195551D02*
X280558Y197550D01*
Y202549D02*
X274560D01*
X277559Y199550D01*
Y203549D01*
X288432Y193552D02*
X282434D01*
Y196551D01*
X283434Y197550D01*
X285433D01*
X286433Y196551D01*
Y193552D01*
Y195551D02*
X288432Y197550D01*
X283434Y199550D02*
X282434Y200550D01*
Y202549D01*
X283434Y203549D01*
X284433D01*
X285433Y202549D01*
Y201549D01*
Y202549D01*
X286433Y203549D01*
X287432D01*
X288432Y202549D01*
Y200550D01*
X287432Y199550D01*
X280558Y229254D02*
X274560D01*
Y232253D01*
X275560Y233252D01*
X277559D01*
X278559Y232253D01*
Y229254D01*
Y231253D02*
X280558Y233252D01*
Y239250D02*
Y235252D01*
X276559Y239250D01*
X275560D01*
X274560Y238251D01*
Y236251D01*
X275560Y235252D01*
X288432Y230253D02*
X282434D01*
Y233252D01*
X283434Y234252D01*
X285433D01*
X286433Y233252D01*
Y230253D01*
Y232253D02*
X288432Y234252D01*
Y236251D02*
Y238251D01*
Y237251D01*
X282434D01*
X283434Y236251D01*
X364067Y350952D02*
Y344954D01*
Y347953D01*
X368065D01*
Y350952D01*
Y344954D01*
X370065Y350952D02*
Y344954D01*
X373064D01*
X374063Y345953D01*
Y349952D01*
X373064Y350952D01*
X370065D01*
X376063Y344954D02*
Y350952D01*
X379062D01*
X380062Y349952D01*
Y347953D01*
X379062Y346953D01*
X376063D01*
X378062D02*
X380062Y344954D01*
X382061D02*
X384060D01*
X383061D01*
Y350952D01*
X382061Y349952D01*
X269491Y60005D02*
X268491Y59005D01*
Y57006D01*
X269491Y56006D01*
X273490D01*
X274489Y57006D01*
Y59005D01*
X273490Y60005D01*
X274489Y62005D02*
Y64004D01*
Y63004D01*
X268491D01*
X269491Y62005D01*
X274489Y67003D02*
Y69002D01*
Y68002D01*
X268491D01*
X269491Y67003D01*
X233252Y50141D02*
X232253Y51141D01*
X230253D01*
X229254Y50141D01*
Y46143D01*
X230253Y45143D01*
X232253D01*
X233252Y46143D01*
X235251D02*
X236251Y45143D01*
X238250D01*
X239250Y46143D01*
Y50141D01*
X238250Y51141D01*
X236251D01*
X235251Y50141D01*
Y49142D01*
X236251Y48142D01*
X239250D01*
X248050Y68590D02*
X247050Y69590D01*
X245051D01*
X244051Y68590D01*
Y64591D01*
X245051Y63592D01*
X247050D01*
X248050Y64591D01*
X250049Y68590D02*
X251049Y69590D01*
X253048D01*
X254048Y68590D01*
Y67590D01*
X253048Y66591D01*
X254048Y65591D01*
Y64591D01*
X253048Y63592D01*
X251049D01*
X250049Y64591D01*
Y65591D01*
X251049Y66591D01*
X250049Y67590D01*
Y68590D01*
X251049Y66591D02*
X253048D01*
X302150Y165385D02*
X301150Y166385D01*
X299151D01*
X298151Y165385D01*
Y161387D01*
X299151Y160387D01*
X301150D01*
X302150Y161387D01*
X308148Y166385D02*
X306149Y165385D01*
X304149Y163386D01*
Y161387D01*
X305149Y160387D01*
X307148D01*
X308148Y161387D01*
Y162386D01*
X307148Y163386D01*
X304149D01*
X300181Y155543D02*
X299182Y156542D01*
X297182D01*
X296183Y155543D01*
Y151544D01*
X297182Y150544D01*
X299182D01*
X300181Y151544D01*
X306179Y156542D02*
X302181D01*
Y153543D01*
X304180Y154543D01*
X305180D01*
X306179Y153543D01*
Y151544D01*
X305180Y150544D01*
X303181D01*
X302181Y151544D01*
X304187Y112629D02*
X303187Y111630D01*
Y109630D01*
X304187Y108631D01*
X308186D01*
X309185Y109630D01*
Y111630D01*
X308186Y112629D01*
X304187Y114629D02*
X303187Y115628D01*
Y117628D01*
X304187Y118627D01*
X305187D01*
X306186Y117628D01*
Y116628D01*
Y117628D01*
X307186Y118627D01*
X308186D01*
X309185Y117628D01*
Y115628D01*
X308186Y114629D01*
X317592Y123016D02*
X316592Y124016D01*
X314593D01*
X313593Y123016D01*
Y119017D01*
X314593Y118018D01*
X316592D01*
X317592Y119017D01*
X323590Y118018D02*
X319591D01*
X323590Y122016D01*
Y123016D01*
X322590Y124016D01*
X320591D01*
X319591Y123016D01*
D49*
X173675Y135998D02*
Y137573D01*
Y135998D02*
X175250D01*
X179136Y135985D02*
X180711D01*
Y137559D01*
X180714Y139612D02*
Y141187D01*
X179139D02*
X180714D01*
X249049Y35554D02*
Y44215D01*
X246687Y35554D02*
Y44215D01*
Y35554D02*
X249049D01*
X246687Y44215D02*
X249049D01*
X173675Y175368D02*
Y176943D01*
Y175368D02*
X175250D01*
X179136Y175355D02*
X180711D01*
Y176929D01*
X180714Y178982D02*
Y180557D01*
X179139D02*
X180714D01*
X173648Y209817D02*
Y211392D01*
Y209817D02*
X175223D01*
X179109Y209804D02*
X180684D01*
Y211378D01*
X180687Y213431D02*
Y215006D01*
X179112D02*
X180687D01*
X173648Y244266D02*
Y245841D01*
Y244266D02*
X175223D01*
X179109Y244252D02*
X180684D01*
Y245827D01*
X180687Y247880D02*
Y249455D01*
X179112D02*
X180687D01*
X323998Y93757D02*
X326577D01*
X313191D02*
X315770D01*
X323998Y107143D02*
X326577D01*
X313191D02*
X315770D01*
X326577Y93757D02*
Y94348D01*
Y106553D02*
Y107143D01*
X313191Y93757D02*
Y94348D01*
Y106553D02*
Y107143D01*
%TF.MD5,ab4003e8093da1b99d8e4db8c7093197*%
M02*
