%TF.GenerationSoftware,Altium Limited,Altium Designer,24.0.1 (36)*%
G04 Layer_Color=16711935*
%FSLAX25Y25*%
%MOIN*%
%TF.SameCoordinates,674ED1FF-067C-45DD-8C41-4F82C3FA2B26*%
%TF.FilePolarity,Negative*%
%TF.FileFunction,Soldermask,Bot*%
%TF.Part,Single*%
G01*
G75*
%TA.AperFunction,SMDPad,CuDef*%
%ADD62R,0.14370X0.08071*%
%ADD64R,0.04724X0.04724*%
%TA.AperFunction,ViaPad*%
%ADD69C,0.25197*%
%ADD70C,0.02165*%
G36*
X381941Y385627D02*
X381992Y385617D01*
X382041Y385601D01*
X382087Y385578D01*
X382130Y385549D01*
X382169Y385515D01*
X382203Y385476D01*
X382231Y385434D01*
X382254Y385387D01*
X382271Y385338D01*
X382281Y385288D01*
X382284Y385236D01*
Y377756D01*
X382281Y377704D01*
X382271Y377654D01*
X382254Y377605D01*
X382231Y377559D01*
X382203Y377516D01*
X382169Y377477D01*
X381775Y377083D01*
X381775Y377083D01*
X381736Y377049D01*
X381693Y377021D01*
X381647Y376998D01*
X381598Y376981D01*
X381548Y376971D01*
X381496Y376968D01*
X381102D01*
X381051Y376971D01*
X381000Y376981D01*
X380951Y376998D01*
X380905Y377021D01*
X380862Y377049D01*
X380823Y377083D01*
X380683Y377223D01*
X380679Y377211D01*
X380657Y377165D01*
X380628Y377122D01*
X380594Y377083D01*
X380555Y377049D01*
X380512Y377021D01*
X380466Y376998D01*
X380417Y376981D01*
X380366Y376971D01*
X380315Y376968D01*
X379921D01*
X379870Y376971D01*
X379819Y376981D01*
X379770Y376998D01*
X379724Y377021D01*
X379681Y377049D01*
X379642Y377083D01*
X379608Y377122D01*
X379580Y377165D01*
X379557Y377211D01*
X379553Y377223D01*
X379413Y377083D01*
X379374Y377049D01*
X379331Y377021D01*
X379285Y376998D01*
X379236Y376981D01*
X379185Y376971D01*
X379134Y376968D01*
X378740D01*
X378689Y376971D01*
X378638Y376981D01*
X378589Y376998D01*
X378543Y377021D01*
X378500Y377049D01*
X378461Y377083D01*
X378321Y377223D01*
X378317Y377211D01*
X378294Y377165D01*
X378266Y377122D01*
X378232Y377083D01*
X378193Y377049D01*
X378150Y377021D01*
X378104Y376998D01*
X378055Y376981D01*
X378004Y376971D01*
X377953Y376968D01*
X377559D01*
X377507Y376971D01*
X377457Y376981D01*
X377408Y376998D01*
X377362Y377021D01*
X377319Y377049D01*
X377280Y377083D01*
X377246Y377122D01*
X377217Y377165D01*
X377194Y377211D01*
X377190Y377223D01*
X377051Y377083D01*
X377012Y377049D01*
X376969Y377021D01*
X376923Y376998D01*
X376874Y376981D01*
X376823Y376971D01*
X376772Y376968D01*
X376378D01*
X376326Y376971D01*
X376276Y376981D01*
X376227Y376998D01*
X376181Y377021D01*
X376138Y377049D01*
X376099Y377083D01*
X375959Y377223D01*
X375955Y377211D01*
X375932Y377165D01*
X375904Y377122D01*
X375869Y377083D01*
X375831Y377049D01*
X375788Y377021D01*
X375742Y376998D01*
X375693Y376981D01*
X375642Y376971D01*
X375591Y376968D01*
X375197D01*
X375145Y376971D01*
X375095Y376981D01*
X375046Y376998D01*
X375000Y377021D01*
X374957Y377049D01*
X374918Y377083D01*
X374884Y377122D01*
X374855Y377165D01*
X374832Y377211D01*
X374828Y377223D01*
X374688Y377083D01*
X374650Y377049D01*
X374607Y377021D01*
X374560Y376998D01*
X374512Y376981D01*
X374461Y376971D01*
X374410Y376968D01*
X374016D01*
X373964Y376971D01*
X373914Y376981D01*
X373865Y376998D01*
X373818Y377021D01*
X373776Y377049D01*
X373737Y377083D01*
X373597Y377223D01*
X373593Y377211D01*
X373570Y377165D01*
X373541Y377122D01*
X373507Y377083D01*
X373468Y377049D01*
X373426Y377021D01*
X373379Y376998D01*
X373330Y376981D01*
X373280Y376971D01*
X373228Y376968D01*
X372835D01*
X372783Y376971D01*
X372732Y376981D01*
X372684Y376998D01*
X372637Y377021D01*
X372594Y377049D01*
X372556Y377083D01*
X372522Y377122D01*
X372493Y377165D01*
X372470Y377211D01*
X372466Y377223D01*
X372326Y377083D01*
X372287Y377049D01*
X372245Y377021D01*
X372198Y376998D01*
X372149Y376981D01*
X372099Y376971D01*
X372047Y376968D01*
X371654D01*
X371602Y376971D01*
X371551Y376981D01*
X371503Y376998D01*
X371456Y377021D01*
X371413Y377049D01*
X371375Y377083D01*
X371235Y377223D01*
X371231Y377211D01*
X371208Y377165D01*
X371179Y377122D01*
X371145Y377083D01*
X371106Y377049D01*
X371063Y377021D01*
X371017Y376998D01*
X370968Y376981D01*
X370918Y376971D01*
X370866Y376968D01*
X370472D01*
X370421Y376971D01*
X370370Y376981D01*
X370321Y376998D01*
X370275Y377021D01*
X370232Y377049D01*
X370194Y377083D01*
X370159Y377122D01*
X370131Y377165D01*
X370108Y377211D01*
X370104Y377223D01*
X369964Y377083D01*
X369925Y377049D01*
X369882Y377021D01*
X369836Y376998D01*
X369787Y376981D01*
X369737Y376971D01*
X369685Y376968D01*
X369291D01*
X369240Y376971D01*
X369189Y376981D01*
X369140Y376998D01*
X369094Y377021D01*
X369051Y377049D01*
X369012Y377083D01*
X368872Y377223D01*
X368868Y377211D01*
X368846Y377165D01*
X368817Y377122D01*
X368783Y377083D01*
X368744Y377049D01*
X368701Y377021D01*
X368655Y376998D01*
X368606Y376981D01*
X368555Y376971D01*
X368504Y376968D01*
X368110D01*
X368059Y376971D01*
X368008Y376981D01*
X367959Y376998D01*
X367913Y377021D01*
X367870Y377049D01*
X367831Y377083D01*
X367797Y377122D01*
X367769Y377165D01*
X367746Y377211D01*
X367742Y377223D01*
X367602Y377083D01*
X367563Y377049D01*
X367520Y377021D01*
X367474Y376998D01*
X367425Y376981D01*
X367374Y376971D01*
X367323Y376968D01*
X366929D01*
X366878Y376971D01*
X366827Y376981D01*
X366778Y376998D01*
X366732Y377021D01*
X366689Y377049D01*
X366650Y377083D01*
X366510Y377223D01*
X366506Y377211D01*
X366483Y377165D01*
X366455Y377122D01*
X366421Y377083D01*
X366382Y377049D01*
X366339Y377021D01*
X366293Y376998D01*
X366244Y376981D01*
X366193Y376971D01*
X366142Y376968D01*
X365748D01*
X365697Y376971D01*
X365646Y376981D01*
X365597Y376998D01*
X365551Y377021D01*
X365508Y377049D01*
X365469Y377083D01*
X365435Y377122D01*
X365406Y377165D01*
X365384Y377211D01*
X365380Y377223D01*
X365240Y377083D01*
X365201Y377049D01*
X365158Y377021D01*
X365112Y376998D01*
X365063Y376981D01*
X365012Y376971D01*
X364961Y376968D01*
X364567D01*
X364515Y376971D01*
X364465Y376981D01*
X364416Y376998D01*
X364370Y377021D01*
X364327Y377049D01*
X364288Y377083D01*
X363894Y377477D01*
X363860Y377516D01*
X363832Y377559D01*
X363809Y377605D01*
X363792Y377654D01*
X363782Y377704D01*
X363779Y377756D01*
Y385236D01*
X363782Y385288D01*
X363792Y385338D01*
X363809Y385387D01*
X363832Y385434D01*
X363860Y385476D01*
X363894Y385515D01*
X363933Y385549D01*
X363976Y385578D01*
X364022Y385601D01*
X364071Y385617D01*
X364122Y385627D01*
X364173Y385631D01*
X365354D01*
X365406Y385627D01*
X365456Y385617D01*
X365505Y385601D01*
X365551Y385578D01*
X365597Y385601D01*
X365646Y385617D01*
X365697Y385627D01*
X365748Y385631D01*
X366142D01*
X366193Y385627D01*
X366244Y385617D01*
X366293Y385601D01*
X366339Y385578D01*
X366385Y385601D01*
X366433Y385617D01*
X366484Y385627D01*
X366535Y385631D01*
X367717D01*
X367768Y385627D01*
X367819Y385617D01*
X367867Y385601D01*
X367913Y385578D01*
X367959Y385601D01*
X368008Y385617D01*
X368059Y385627D01*
X368110Y385631D01*
X368504D01*
X368555Y385627D01*
X368606Y385617D01*
X368655Y385601D01*
X368701Y385578D01*
X368747Y385601D01*
X368795Y385617D01*
X368846Y385627D01*
X368898Y385631D01*
X370079D01*
X370130Y385627D01*
X370181Y385617D01*
X370230Y385601D01*
X370276Y385578D01*
X370321Y385601D01*
X370370Y385617D01*
X370421Y385627D01*
X370472Y385631D01*
X370866D01*
X370918Y385627D01*
X370968Y385617D01*
X371017Y385601D01*
X371063Y385578D01*
X371109Y385601D01*
X371158Y385617D01*
X371208Y385627D01*
X371260Y385631D01*
X372441D01*
X372492Y385627D01*
X372543Y385617D01*
X372592Y385601D01*
X372638Y385578D01*
X372684Y385601D01*
X372732Y385617D01*
X372783Y385627D01*
X372835Y385631D01*
X373228D01*
X373280Y385627D01*
X373330Y385617D01*
X373379Y385601D01*
X373425Y385578D01*
X373471Y385601D01*
X373520Y385617D01*
X373571Y385627D01*
X373622Y385631D01*
X374803D01*
X374855Y385627D01*
X374905Y385617D01*
X374954Y385601D01*
X375000Y385578D01*
X375046Y385601D01*
X375095Y385617D01*
X375145Y385627D01*
X375197Y385631D01*
X375591D01*
X375642Y385627D01*
X375693Y385617D01*
X375742Y385601D01*
X375787Y385578D01*
X375833Y385601D01*
X375882Y385617D01*
X375933Y385627D01*
X375984Y385631D01*
X377165D01*
X377217Y385627D01*
X377268Y385617D01*
X377316Y385601D01*
X377362Y385578D01*
X377408Y385601D01*
X377457Y385617D01*
X377507Y385627D01*
X377559Y385631D01*
X377953D01*
X378004Y385627D01*
X378055Y385617D01*
X378104Y385601D01*
X378150Y385578D01*
X378196Y385601D01*
X378244Y385617D01*
X378295Y385627D01*
X378346Y385631D01*
X379528D01*
X379579Y385627D01*
X379630Y385617D01*
X379679Y385601D01*
X379724Y385578D01*
X379770Y385601D01*
X379819Y385617D01*
X379870Y385627D01*
X379921Y385631D01*
X380315D01*
X380366Y385627D01*
X380417Y385617D01*
X380466Y385601D01*
X380512Y385578D01*
X380558Y385601D01*
X380607Y385617D01*
X380657Y385627D01*
X380709Y385631D01*
X381890D01*
X381941Y385627D01*
D02*
G37*
D62*
X37402Y190945D02*
D03*
Y163386D02*
D03*
Y177165D02*
D03*
D64*
X68898Y171260D02*
D03*
X68898Y165354D02*
D03*
D69*
X334646Y334646D02*
D03*
X19685Y334646D02*
D03*
X334646Y19230D02*
D03*
X19685Y19685D02*
D03*
X66929Y287402D02*
D03*
X287402D02*
D03*
X287501Y66915D02*
D03*
X66929Y66929D02*
D03*
X267717Y267717D02*
D03*
X86614D02*
D03*
X267717Y86614D02*
D03*
X86614D02*
D03*
D70*
X251200Y140800D02*
D03*
%TF.MD5,1d7bd45af4232e8a61f91ae6126fc3fb*%
M02*
