%TF.GenerationSoftware,Altium Limited,Altium Designer,24.0.1 (36)*%
G04 Layer_Color=8421504*
%FSLAX25Y25*%
%MOIN*%
%TF.SameCoordinates,674ED1FF-067C-45DD-8C41-4F82C3FA2B26*%
%TF.FilePolarity,Positive*%
%TF.FileFunction,Paste,Top*%
%TF.Part,Single*%
G01*
G75*
%TA.AperFunction,SMDPad,CuDef*%
%ADD71R,0.03735X0.03735*%
%ADD72R,0.01289X0.02273*%
%ADD73R,0.02273X0.01289*%
%TA.AperFunction,BGAPad,CuDef*%
%ADD74C,0.00880*%
%TA.AperFunction,SMDPad,CuDef*%
%ADD75R,0.03237X0.01465*%
%ADD76R,0.04028X0.01273*%
%ADD77R,0.01273X0.04028*%
%ADD78R,0.08441X0.08441*%
%ADD79R,0.05495X0.09078*%
%ADD80R,0.03442X0.01277*%
%ADD81R,0.02597X0.03384*%
%ADD82R,0.03384X0.02597*%
%ADD83R,0.13097X0.06798*%
%ADD84R,0.04635X0.12155*%
%ADD85R,0.03735X0.03735*%
%ADD86R,0.02693X0.02536*%
%ADD87R,0.04841X0.05432*%
%ADD88R,0.02536X0.02693*%
%ADD89R,0.05432X0.04841*%
D71*
X267854Y153772D02*
D03*
X262130D02*
D03*
X266154Y197110D02*
D03*
X260430D02*
D03*
X260430Y223662D02*
D03*
X266154D02*
D03*
X250730Y50480D02*
D03*
X245006D02*
D03*
D72*
X263632Y191386D02*
D03*
X260483D02*
D03*
X263632Y185875D02*
D03*
X260483D02*
D03*
X263632Y234848D02*
D03*
Y229337D02*
D03*
X260483Y234848D02*
D03*
Y229337D02*
D03*
D73*
X269027Y162548D02*
D03*
Y165108D02*
D03*
Y159990D02*
D03*
Y167667D02*
D03*
X260957Y165108D02*
D03*
Y167667D02*
D03*
Y162548D02*
D03*
Y159990D02*
D03*
D74*
X178767Y137795D02*
D03*
X177192D02*
D03*
X175617D02*
D03*
X178767Y139370D02*
D03*
X177192D02*
D03*
X175617D02*
D03*
X178767Y177165D02*
D03*
X177192D02*
D03*
X175617D02*
D03*
X178767Y178740D02*
D03*
X177192D02*
D03*
X175617D02*
D03*
X178740Y211614D02*
D03*
X177165D02*
D03*
X175591D02*
D03*
X178740Y213189D02*
D03*
X177165D02*
D03*
X175591D02*
D03*
X178740Y246063D02*
D03*
X177165D02*
D03*
X175591D02*
D03*
X178740Y247638D02*
D03*
X177165D02*
D03*
X175591D02*
D03*
D75*
X252297Y42443D02*
D03*
Y37325D02*
D03*
X243439D02*
D03*
Y39884D02*
D03*
Y42443D02*
D03*
D76*
X321675Y173327D02*
D03*
Y175886D02*
D03*
Y178445D02*
D03*
Y181004D02*
D03*
X307109D02*
D03*
Y178445D02*
D03*
Y175886D02*
D03*
Y173327D02*
D03*
D77*
X318231Y184449D02*
D03*
X315672D02*
D03*
X313113D02*
D03*
X310554D02*
D03*
Y169882D02*
D03*
X313113D02*
D03*
X315672D02*
D03*
X318231D02*
D03*
D78*
X314392Y177165D02*
D03*
D79*
X319884Y100450D02*
D03*
D80*
X325376Y96612D02*
D03*
Y99171D02*
D03*
Y101730D02*
D03*
Y104289D02*
D03*
X314392Y96612D02*
D03*
Y99171D02*
D03*
Y101730D02*
D03*
Y104289D02*
D03*
D81*
X312416Y204724D02*
D03*
X318928D02*
D03*
X315770Y196850D02*
D03*
X322282D02*
D03*
X251124Y29040D02*
D03*
X244612D02*
D03*
X298532Y112205D02*
D03*
X292020D02*
D03*
X296563Y120079D02*
D03*
X290051D02*
D03*
D82*
X263616Y50012D02*
D03*
Y43500D02*
D03*
X277559Y141051D02*
D03*
Y134539D02*
D03*
X285433Y141051D02*
D03*
Y134539D02*
D03*
X277559Y180421D02*
D03*
Y173909D02*
D03*
X285433Y180421D02*
D03*
Y173909D02*
D03*
X325503Y156877D02*
D03*
Y163389D02*
D03*
X277559Y214870D02*
D03*
Y208358D02*
D03*
X285433Y214870D02*
D03*
Y208358D02*
D03*
X277559Y249319D02*
D03*
Y242807D02*
D03*
X285433Y249319D02*
D03*
Y242807D02*
D03*
D83*
X267553Y34945D02*
D03*
X228185Y56088D02*
D03*
D84*
X132087Y40551D02*
D03*
X142087D02*
D03*
X162087D02*
D03*
X152087D02*
D03*
X172087D02*
D03*
X192087D02*
D03*
X182087D02*
D03*
X202087D02*
D03*
X222087D02*
D03*
X212087D02*
D03*
D85*
X271490Y49563D02*
D03*
Y43839D02*
D03*
D86*
X169865Y141384D02*
D03*
Y137840D02*
D03*
Y180709D02*
D03*
Y177165D02*
D03*
Y215158D02*
D03*
Y211614D02*
D03*
X169685Y249606D02*
D03*
Y246063D02*
D03*
D87*
X244219Y58567D02*
D03*
X251518D02*
D03*
X318199Y154314D02*
D03*
X310900D02*
D03*
X317113Y112672D02*
D03*
X324413D02*
D03*
D88*
X317801Y162402D02*
D03*
X314258D02*
D03*
D89*
X306186Y96801D02*
D03*
Y104100D02*
D03*
%TF.MD5,26c658528231b28adfb13af7b204bbc7*%
M02*
