%FSLAX23Y23*%
%MOIN*%
%SFA1B1*%

%IPPOS*%
%AMD11*
4,1,8,-0.003600,-0.006700,0.003600,-0.006700,0.004500,-0.005800,0.004500,0.005800,0.003600,0.006700,-0.003600,0.006700,-0.004500,0.005800,-0.004500,-0.005800,-0.003600,-0.006700,0.0*
1,1,0.001820,-0.003600,-0.005800*
1,1,0.001820,0.003600,-0.005800*
1,1,0.001820,0.003600,0.005800*
1,1,0.001820,-0.003600,0.005800*
%
%AMD12*
4,1,8,-0.003600,-0.008700,0.003600,-0.008700,0.004500,-0.007700,0.004500,0.007700,0.003600,0.008700,-0.003600,0.008700,-0.004500,0.007700,-0.004500,-0.007700,-0.003600,-0.008700,0.0*
1,1,0.001820,-0.003600,-0.007700*
1,1,0.001820,0.003600,-0.007700*
1,1,0.001820,0.003600,0.007700*
1,1,0.001820,-0.003600,0.007700*
%
%ADD10R,0.027560X0.035430*%
G04~CAMADD=11~8~0.0~0.0~90.6~133.9~9.1~0.0~15~0.0~0.0~0.0~0.0~0~0.0~0.0~0.0~0.0~0~0.0~0.0~0.0~180.0~90.0~134.0*
%ADD11D11*%
G04~CAMADD=12~8~0.0~0.0~90.6~173.2~9.1~0.0~15~0.0~0.0~0.0~0.0~0~0.0~0.0~0.0~0.0~0~0.0~0.0~0.0~180.0~92.0~174.0*
%ADD12D12*%
%ADD13R,0.059060X0.059060*%
%ADD14R,0.035430X0.027560*%
%ADD15R,0.039370X0.039370*%
%ADD16R,0.025590X0.060160*%
%ADD17R,0.053150X0.064960*%
%ADD18R,0.011810X0.013780*%
%ADD19R,0.037400X0.059060*%
%ADD20R,0.009250X0.034250*%
%ADD21R,0.051180X0.057090*%
%ADD22R,0.124020X0.070870*%
%ADD23R,0.057090X0.051180*%
%ADD24R,0.028540X0.027560*%
%ADD25R,0.039370X0.039370*%
%ADD26R,0.038980X0.037010*%
%ADD27R,0.070870X0.124020*%
%ADD28R,0.118110X0.062990*%
%ADD29R,0.244100X0.228350*%
%ADD30R,0.041340X0.013780*%
%ADD31R,0.013780X0.041340*%
%ADD32R,0.088980X0.088980*%
%ADD33R,0.070870X0.070870*%
%ADD34R,0.007870X0.031500*%
%ADD35R,0.031500X0.007870*%
%ADD36R,0.056100X0.017720*%
%ADD37R,0.059060X0.059060*%
%ADD38R,0.019680X0.015750*%
%LNhumrigid1_paste_top-1*%
%LPD*%
G54D10*
X296Y-657D03*
X231D03*
X-678Y236D03*
X-613D03*
X-614Y169D03*
X-679D03*
X803Y1346D03*
X868D03*
X-622Y-669D03*
X-556D03*
X908Y-374D03*
X843D03*
Y-462D03*
X908D03*
X843Y-551D03*
X908D03*
Y-639D03*
X843D03*
Y-728D03*
X908D03*
X843Y-816D03*
X908D03*
X-469Y1370D03*
X-404D03*
G54D11*
X1700Y1668D03*
X1724D03*
X1748D03*
X1771D03*
X1795D03*
X1818D03*
X1842D03*
X-1409Y-1274D03*
X-1385D03*
X-1362D03*
X-1338D03*
X-1314D03*
X-1291D03*
X-1267D03*
G54D12*
X1688Y1559D03*
X1712D03*
X1736D03*
X1759D03*
X1783D03*
X1807D03*
X1830D03*
X1854D03*
X-1421Y-1166D03*
X-1397D03*
X-1374D03*
X-1350D03*
X-1326D03*
X-1303D03*
X-1279D03*
X-1255D03*
G54D13*
X-1476Y-1476D03*
G54D14*
X547Y-266D03*
Y-331D03*
X476D03*
Y-266D03*
X-397Y241D03*
Y176D03*
X-472Y241D03*
Y176D03*
X-539Y177D03*
Y242D03*
X286Y-468D03*
Y-403D03*
X324Y-265D03*
Y-330D03*
X-9Y-327D03*
Y-262D03*
X49Y-468D03*
Y-403D03*
X507Y1016D03*
Y951D03*
X169Y884D03*
Y949D03*
X244Y669D03*
Y734D03*
X90Y846D03*
Y781D03*
X657Y1019D03*
Y954D03*
X169Y819D03*
Y754D03*
G54D15*
X-488Y59D03*
X-430D03*
X402Y315D03*
X345D03*
X195Y-532D03*
X138D03*
X236Y-181D03*
X293D03*
X290Y1007D03*
X347D03*
G54D16*
X-432Y-27D03*
X-482D03*
X-532D03*
X-582D03*
Y-240D03*
X-532D03*
X-482D03*
X-432D03*
G54D17*
X-343Y62D03*
X-239D03*
G54D18*
X-234Y225D03*
X-259D03*
X-285D03*
Y152D03*
X-259D03*
X-234D03*
G54D19*
X-247Y188D03*
G54D20*
X-286Y188D03*
G54D21*
X-304Y-47D03*
X-231D03*
X79Y548D03*
X6D03*
G54D22*
X-572Y-866D03*
X-372D03*
X688Y1248D03*
X488D03*
G54D23*
X-315Y1243D03*
Y1316D03*
X488Y449D03*
Y376D03*
X-342Y-191D03*
Y-264D03*
X364Y-627D03*
Y-700D03*
X442Y-548D03*
Y-475D03*
X681Y-607D03*
Y-534D03*
X322Y1328D03*
Y1255D03*
G54D24*
X277Y464D03*
X319D03*
X362D03*
X404D03*
Y409D03*
X362D03*
X319D03*
X277D03*
G54D25*
X445Y-697D03*
Y-640D03*
X600Y-552D03*
Y-609D03*
X528Y-552D03*
Y-609D03*
X82Y468D03*
Y411D03*
X118Y-407D03*
Y-464D03*
X216Y-407D03*
Y-464D03*
X394Y-327D03*
Y-269D03*
X-78Y-327D03*
Y-269D03*
G54D26*
X-259Y1039D03*
X-317D03*
G54D27*
X-551Y1053D03*
Y1253D03*
G54D28*
X168Y1334D03*
Y1154D03*
G54D29*
X-114Y1244D03*
G54D30*
X257Y904D03*
Y878D03*
Y853D03*
Y827D03*
X403D03*
Y853D03*
Y878D03*
Y904D03*
G54D31*
X292Y793D03*
X317D03*
X343D03*
X369D03*
Y938D03*
X343D03*
X317D03*
X292D03*
G54D32*
X330Y866D03*
G54D33*
X570Y-738D03*
G54D34*
X539Y-679D03*
X555D03*
X570D03*
X586D03*
X602D03*
Y-797D03*
X586D03*
X570D03*
X555D03*
X539D03*
G54D35*
X629Y-706D03*
Y-722D03*
Y-738D03*
Y-753D03*
Y-769D03*
X511D03*
Y-753D03*
Y-738D03*
Y-722D03*
Y-706D03*
G54D36*
X70Y-260D03*
Y-285D03*
Y-311D03*
Y-336D03*
X244D03*
Y-311D03*
Y-285D03*
Y-260D03*
G54D37*
X167Y-68D03*
X325D03*
X246D03*
X53D03*
X-72D03*
G54D38*
X-44Y467D03*
X-15D03*
X12D03*
Y439D03*
X-15D03*
X-44D03*
M02*