%FSLAX23Y23*%
%MOIN*%
%SFA1B1*%

%IPPOS*%
%AMD63*
4,1,8,-0.003600,-0.010700,0.003600,-0.010700,0.008500,-0.005800,0.008500,0.005800,0.003600,0.010700,-0.003600,0.010700,-0.008500,0.005800,-0.008500,-0.005800,-0.003600,-0.010700,0.0*
1,1,0.009820,-0.003600,-0.005800*
1,1,0.009820,0.003600,-0.005800*
1,1,0.009820,0.003600,0.005800*
1,1,0.009820,-0.003600,0.005800*
%
%AMD64*
4,1,8,-0.003600,-0.012700,0.003600,-0.012700,0.008500,-0.007700,0.008500,0.007700,0.003600,0.012700,-0.003600,0.012700,-0.008500,0.007700,-0.008500,-0.007700,-0.003600,-0.012700,0.0*
1,1,0.009820,-0.003600,-0.007700*
1,1,0.009820,0.003600,-0.007700*
1,1,0.009820,0.003600,0.007700*
1,1,0.009820,-0.003600,0.007700*
%
%ADD62R,0.035560X0.043430*%
G04~CAMADD=63~8~0.0~0.0~170.6~213.9~49.1~0.0~15~0.0~0.0~0.0~0.0~0~0.0~0.0~0.0~0.0~0~0.0~0.0~0.0~180.0~170.0~214.0*
%ADD63D63*%
G04~CAMADD=64~8~0.0~0.0~170.6~253.2~49.1~0.0~15~0.0~0.0~0.0~0.0~0~0.0~0.0~0.0~0.0~0~0.0~0.0~0.0~180.0~172.0~254.0*
%ADD64D64*%
%ADD65R,0.067060X0.067060*%
%ADD66R,0.043430X0.035560*%
%ADD67R,0.047370X0.047370*%
%ADD68R,0.033590X0.068160*%
%ADD69R,0.061150X0.072960*%
%ADD70R,0.019810X0.021780*%
%ADD71R,0.045400X0.067060*%
%ADD72R,0.017250X0.042250*%
%ADD73R,0.059180X0.065090*%
%ADD74R,0.132020X0.078870*%
%ADD75R,0.065090X0.059180*%
%ADD76R,0.036540X0.035560*%
%ADD77R,0.047370X0.047370*%
%ADD78R,0.046980X0.045010*%
%ADD79R,0.078870X0.132020*%
%ADD80R,0.126110X0.070990*%
%ADD81R,0.252100X0.236350*%
%ADD82R,0.049340X0.021780*%
%ADD83R,0.021780X0.049340*%
%ADD84R,0.096980X0.096980*%
%ADD85R,0.078870X0.078870*%
%ADD86R,0.015870X0.039500*%
%ADD87R,0.039500X0.015870*%
%ADD88R,0.064100X0.025720*%
%ADD89R,0.067060X0.067060*%
%ADD90R,0.027690X0.023750*%
%ADD91C,0.070990*%
%ADD92R,0.070990X0.070990*%
%ADD93C,0.204850*%
%ADD94C,0.067060*%
%ADD95R,0.067060X0.067060*%
%ADD96C,0.315090*%
%ADD97R,0.070990X0.070990*%
%ADD98C,0.054930*%
%ADD99R,0.054930X0.054930*%
%ADD100C,0.039500*%
%ADD101C,0.035560*%
%ADD102C,0.058000*%
%LNhumrigid1_soldermask_top-1*%
%LPD*%
G54D62*
X296Y-657D03*
X231D03*
X-678Y236D03*
X-613D03*
X-614Y169D03*
X-679D03*
X803Y1346D03*
X868D03*
X-622Y-669D03*
X-556D03*
X908Y-374D03*
X843D03*
Y-462D03*
X908D03*
X843Y-551D03*
X908D03*
Y-639D03*
X843D03*
Y-728D03*
X908D03*
X843Y-816D03*
X908D03*
X-469Y1370D03*
X-404D03*
G54D63*
X1700Y1668D03*
X1724D03*
X1748D03*
X1771D03*
X1795D03*
X1818D03*
X1842D03*
X-1409Y-1274D03*
X-1385D03*
X-1362D03*
X-1338D03*
X-1314D03*
X-1291D03*
X-1267D03*
G54D64*
X1688Y1559D03*
X1712D03*
X1736D03*
X1759D03*
X1783D03*
X1807D03*
X1830D03*
X1854D03*
X-1421Y-1166D03*
X-1397D03*
X-1374D03*
X-1350D03*
X-1326D03*
X-1303D03*
X-1279D03*
X-1255D03*
G54D65*
X-1476Y-1476D03*
G54D66*
X547Y-266D03*
Y-331D03*
X476D03*
Y-266D03*
X-397Y241D03*
Y176D03*
X-472Y241D03*
Y176D03*
X-539Y177D03*
Y242D03*
X286Y-468D03*
Y-403D03*
X324Y-265D03*
Y-330D03*
X-9Y-327D03*
Y-262D03*
X49Y-468D03*
Y-403D03*
X507Y1016D03*
Y951D03*
X169Y884D03*
Y949D03*
X244Y669D03*
Y734D03*
X90Y846D03*
Y781D03*
X657Y1019D03*
Y954D03*
X169Y819D03*
Y754D03*
G54D67*
X-488Y59D03*
X-430D03*
X402Y315D03*
X345D03*
X195Y-532D03*
X138D03*
X236Y-181D03*
X293D03*
X290Y1007D03*
X347D03*
G54D68*
X-432Y-27D03*
X-482D03*
X-532D03*
X-582D03*
Y-240D03*
X-532D03*
X-482D03*
X-432D03*
G54D69*
X-343Y62D03*
X-239D03*
G54D70*
X-234Y225D03*
X-259D03*
X-285D03*
Y152D03*
X-259D03*
X-234D03*
G54D71*
X-247Y188D03*
G54D72*
X-286Y188D03*
G54D73*
X-304Y-47D03*
X-231D03*
X79Y548D03*
X6D03*
G54D74*
X-572Y-866D03*
X-372D03*
X688Y1248D03*
X488D03*
G54D75*
X-315Y1243D03*
Y1316D03*
X488Y449D03*
Y376D03*
X-342Y-191D03*
Y-264D03*
X364Y-627D03*
Y-700D03*
X442Y-548D03*
Y-475D03*
X681Y-607D03*
Y-534D03*
X322Y1328D03*
Y1255D03*
G54D76*
X277Y464D03*
X319D03*
X362D03*
X404D03*
Y409D03*
X362D03*
X319D03*
X277D03*
G54D77*
X445Y-697D03*
Y-640D03*
X600Y-552D03*
Y-609D03*
X528Y-552D03*
Y-609D03*
X82Y468D03*
Y411D03*
X118Y-407D03*
Y-464D03*
X216Y-407D03*
Y-464D03*
X394Y-327D03*
Y-269D03*
X-78Y-327D03*
Y-269D03*
G54D78*
X-259Y1039D03*
X-317D03*
G54D79*
X-551Y1053D03*
Y1253D03*
G54D80*
X168Y1334D03*
Y1154D03*
G54D81*
X-114Y1244D03*
G54D82*
X257Y904D03*
Y878D03*
Y853D03*
Y827D03*
X403D03*
Y853D03*
Y878D03*
Y904D03*
G54D83*
X292Y793D03*
X317D03*
X343D03*
X369D03*
Y938D03*
X343D03*
X317D03*
X292D03*
G54D84*
X330Y866D03*
G54D85*
X570Y-738D03*
G54D86*
X539Y-679D03*
X555D03*
X570D03*
X586D03*
X602D03*
Y-797D03*
X586D03*
X570D03*
X555D03*
X539D03*
G54D87*
X629Y-706D03*
Y-722D03*
Y-738D03*
Y-753D03*
Y-769D03*
X511D03*
Y-753D03*
Y-738D03*
Y-722D03*
Y-706D03*
G54D88*
X70Y-260D03*
Y-285D03*
Y-311D03*
Y-336D03*
X244D03*
Y-311D03*
Y-285D03*
Y-260D03*
G54D89*
X167Y-68D03*
X325D03*
X246D03*
X53D03*
X-72D03*
G54D90*
X-44Y467D03*
X-15D03*
X12D03*
Y439D03*
X-15D03*
X-44D03*
G54D91*
X2011Y-1637D03*
X1911D03*
X1811D03*
X2007Y-1272D03*
Y-1172D03*
Y-1072D03*
X1871Y597D03*
X1771Y-302D03*
X1871Y697D03*
X1771Y-402D03*
X1871D03*
Y-302D03*
Y-202D03*
Y-102D03*
Y-2D03*
Y97D03*
Y197D03*
Y297D03*
Y397D03*
Y497D03*
X1771Y-202D03*
Y-102D03*
Y-2D03*
Y97D03*
Y197D03*
Y297D03*
Y397D03*
Y497D03*
Y597D03*
Y697D03*
Y797D03*
X1871D03*
Y897D03*
G54D92*
X1711Y-1637D03*
G54D93*
X1870Y1870D03*
X-1476D03*
Y-1476D03*
X1870D03*
G54D94*
X-9Y187D03*
G54D95*
X-9Y88D03*
G54D96*
X1299Y669D03*
Y354D03*
Y39D03*
Y-275D03*
Y-590D03*
Y-905D03*
Y-1220D03*
X-905Y669D03*
Y984D03*
Y-275D03*
Y39D03*
Y354D03*
Y1299D03*
X1299Y1614D03*
X-275D03*
X-590D03*
X669D03*
X984D03*
X354D03*
X39D03*
X-905D03*
X-275Y-1220D03*
X-590D03*
X669D03*
X984D03*
X354D03*
X39D03*
X-905D03*
Y-590D03*
X1299Y984D03*
G54D97*
X2007Y-972D03*
X1771Y897D03*
G54D98*
X284Y177D03*
X334Y127D03*
G54D99*
X234Y127D03*
G54D100*
X330Y-586D03*
X267Y-618D03*
X259Y-685D03*
X1885Y1559D03*
X492Y-602D03*
X448Y-346D03*
X582Y-330D03*
X-177Y-59D03*
X-343Y-5D03*
X-562Y141D03*
X-724Y177D03*
X-618Y-27D03*
X-393Y-283D03*
X-287Y-263D03*
X362Y370D03*
X303Y314D03*
X480Y311D03*
X244Y637D03*
X535Y456D03*
X240Y417D03*
X43Y411D03*
X125Y543D03*
X-1448Y-1169D03*
X521Y-688D03*
X-293Y-208D03*
G54D101*
X196Y-787D03*
X-1574Y-1181D03*
X-1181Y-1377D03*
X1574Y-295D03*
Y-590D03*
X1968Y196D03*
X1771Y984D03*
Y1181D03*
Y1377D03*
X1574Y1574D03*
X1968Y-787D03*
X1771Y-984D03*
Y-1181D03*
X1968Y-1574D03*
Y-1377D03*
X1771D03*
Y-1574D03*
X1574Y-1673D03*
X1377D03*
X1181D03*
X984D03*
X787D03*
X590D03*
X393D03*
X196D03*
X0D03*
X-196D03*
X-393D03*
X-590D03*
X-787D03*
X-984D03*
X-1181D03*
X-1377Y-1574D03*
X-1585Y-1568D03*
X-1574Y-1377D03*
X1377Y1771D03*
X1574D03*
X1968D03*
Y1968D03*
X1771D03*
X1574D03*
X1377D03*
X1181D03*
X984D03*
X787D03*
X590D03*
X196D03*
X393D03*
X0D03*
X-196D03*
X-393D03*
X-590D03*
X-787D03*
X-984D03*
X-1377D03*
X-1181D03*
X590Y1377D03*
Y1181D03*
X393D03*
Y1377D03*
X-196Y1387D03*
X-590Y1377D03*
X-591Y967D03*
X-393Y984D03*
X-196D03*
X0D03*
X-196Y787D03*
X-393Y590D03*
Y787D03*
X-590D03*
Y590D03*
Y393D03*
X-587Y-177D03*
X-196Y-393D03*
Y-196D03*
Y393D03*
X0D03*
Y0D03*
X196D03*
Y196D03*
X393D03*
X396Y-7D03*
X590Y-196D03*
Y0D03*
Y196D03*
Y393D03*
Y590D03*
X787Y787D03*
Y590D03*
Y393D03*
Y196D03*
Y0D03*
Y-196D03*
X984Y-787D03*
Y-984D03*
X787D03*
X590D03*
X393D03*
X196D03*
X0Y-590D03*
Y-787D03*
Y-984D03*
X-196D03*
Y-787D03*
Y-590D03*
X-393D03*
Y-393D03*
X-590D03*
Y-590D03*
X-787Y-787D03*
X-984D03*
X-590Y-984D03*
X-787D03*
X-984D03*
X-1181D03*
X-1377D03*
X-1574D03*
Y-787D03*
X-1377D03*
X-1181D03*
Y-590D03*
X-1377D03*
X-1574D03*
Y-393D03*
X-1377D03*
X-1181D03*
Y-196D03*
X-1377D03*
X-1574D03*
Y0D03*
X-1377D03*
X-1181D03*
Y196D03*
X-1377D03*
X-1574D03*
Y393D03*
X-1377D03*
X-1181D03*
Y590D03*
X-1377D03*
X-1574D03*
Y787D03*
X-1377D03*
X-1181D03*
Y984D03*
X-1377D03*
X-1574D03*
Y1181D03*
X-1377D03*
X-1181D03*
Y1377D03*
X-1377D03*
X-1574D03*
Y1771D03*
X-1377D03*
X-1181D03*
Y1574D03*
X-1377D03*
X-1574D03*
X317Y752D03*
X204Y944D03*
X133Y755D03*
X125Y787D03*
X543Y1019D03*
X625D03*
X283Y972D03*
X440Y874D03*
G54D102*
X-1326Y-1125D03*
X1761Y1702D03*
X291Y-133D03*
X-62Y-19D03*
X720Y1307D03*
X641D03*
X157Y-405D03*
X259Y1212D03*
Y1346D03*
X-263Y-866D03*
X-673D03*
X-507Y-665D03*
X393Y1003D03*
X625Y-507D03*
X503Y-496D03*
X633Y-629D03*
X35Y492D03*
X389Y1251D03*
X381Y1326D03*
X-383Y1318D03*
X-423Y1043D03*
X-492D03*
X-354D03*
X-221Y1078D03*
X-39Y1181D03*
X-157D03*
Y1299D03*
X-39D03*
X167Y-472D03*
M02*