%FSLAX23Y23*%
%MOIN*%
%SFA1B1*%

%IPPOS*%
%ADD91C,0.070990*%
%ADD92R,0.070990X0.070990*%
%ADD93C,0.204850*%
%ADD94C,0.067060*%
%ADD95R,0.067060X0.067060*%
%ADD96C,0.315090*%
%ADD97R,0.070990X0.070990*%
%ADD98C,0.054930*%
%ADD99R,0.054930X0.054930*%
%ADD100C,0.039500*%
%ADD101C,0.035560*%
%ADD102C,0.058000*%
%LNhumrigid1_soldermask_bot-1*%
%LPD*%
G54D91*
X2011Y-1637D03*
X1911D03*
X1811D03*
X2007Y-1272D03*
Y-1172D03*
Y-1072D03*
X1871Y597D03*
X1771Y-302D03*
X1871Y697D03*
X1771Y-402D03*
X1871D03*
Y-302D03*
Y-202D03*
Y-102D03*
Y-2D03*
Y97D03*
Y197D03*
Y297D03*
Y397D03*
Y497D03*
X1771Y-202D03*
Y-102D03*
Y-2D03*
Y97D03*
Y197D03*
Y297D03*
Y397D03*
Y497D03*
Y597D03*
Y697D03*
Y797D03*
X1871D03*
Y897D03*
G54D92*
X1711Y-1637D03*
G54D93*
X1870Y1870D03*
X-1476D03*
Y-1476D03*
X1870D03*
G54D94*
X-9Y187D03*
G54D95*
X-9Y88D03*
G54D96*
X1299Y669D03*
Y354D03*
Y39D03*
Y-275D03*
Y-590D03*
Y-905D03*
Y-1220D03*
X-905Y669D03*
Y984D03*
Y-275D03*
Y39D03*
Y354D03*
Y1299D03*
X1299Y1614D03*
X-275D03*
X-590D03*
X669D03*
X984D03*
X354D03*
X39D03*
X-905D03*
X-275Y-1220D03*
X-590D03*
X669D03*
X984D03*
X354D03*
X39D03*
X-905D03*
Y-590D03*
X1299Y984D03*
G54D97*
X2007Y-972D03*
X1771Y897D03*
G54D98*
X284Y177D03*
X334Y127D03*
G54D99*
X234Y127D03*
G54D100*
X330Y-586D03*
X267Y-618D03*
X259Y-685D03*
X1885Y1559D03*
X492Y-602D03*
X448Y-346D03*
X582Y-330D03*
X-177Y-59D03*
X-343Y-5D03*
X-562Y141D03*
X-724Y177D03*
X-618Y-27D03*
X-393Y-283D03*
X-287Y-263D03*
X362Y370D03*
X303Y314D03*
X480Y311D03*
X244Y637D03*
X535Y456D03*
X240Y417D03*
X43Y411D03*
X125Y543D03*
X-1448Y-1169D03*
X521Y-688D03*
X-293Y-208D03*
G54D101*
X196Y-787D03*
X-1574Y-1181D03*
X-1181Y-1377D03*
X1574Y-295D03*
Y-590D03*
X1968Y196D03*
X1771Y984D03*
Y1181D03*
Y1377D03*
X1574Y1574D03*
X1968Y-787D03*
X1771Y-984D03*
Y-1181D03*
X1968Y-1574D03*
Y-1377D03*
X1771D03*
Y-1574D03*
X1574Y-1673D03*
X1377D03*
X1181D03*
X984D03*
X787D03*
X590D03*
X393D03*
X196D03*
X0D03*
X-196D03*
X-393D03*
X-590D03*
X-787D03*
X-984D03*
X-1181D03*
X-1377Y-1574D03*
X-1585Y-1568D03*
X-1574Y-1377D03*
X1377Y1771D03*
X1574D03*
X1968D03*
Y1968D03*
X1771D03*
X1574D03*
X1377D03*
X1181D03*
X984D03*
X787D03*
X590D03*
X196D03*
X393D03*
X0D03*
X-196D03*
X-393D03*
X-590D03*
X-787D03*
X-984D03*
X-1377D03*
X-1181D03*
X590Y1377D03*
Y1181D03*
X393D03*
Y1377D03*
X-196Y1387D03*
X-590Y1377D03*
X-591Y967D03*
X-393Y984D03*
X-196D03*
X0D03*
X-196Y787D03*
X-393Y590D03*
Y787D03*
X-590D03*
Y590D03*
Y393D03*
X-587Y-177D03*
X-196Y-393D03*
Y-196D03*
Y393D03*
X0D03*
Y0D03*
X196D03*
Y196D03*
X393D03*
X396Y-7D03*
X590Y-196D03*
Y0D03*
Y196D03*
Y393D03*
Y590D03*
X787Y787D03*
Y590D03*
Y393D03*
Y196D03*
Y0D03*
Y-196D03*
X984Y-787D03*
Y-984D03*
X787D03*
X590D03*
X393D03*
X196D03*
X0Y-590D03*
Y-787D03*
Y-984D03*
X-196D03*
Y-787D03*
Y-590D03*
X-393D03*
Y-393D03*
X-590D03*
Y-590D03*
X-787Y-787D03*
X-984D03*
X-590Y-984D03*
X-787D03*
X-984D03*
X-1181D03*
X-1377D03*
X-1574D03*
Y-787D03*
X-1377D03*
X-1181D03*
Y-590D03*
X-1377D03*
X-1574D03*
Y-393D03*
X-1377D03*
X-1181D03*
Y-196D03*
X-1377D03*
X-1574D03*
Y0D03*
X-1377D03*
X-1181D03*
Y196D03*
X-1377D03*
X-1574D03*
Y393D03*
X-1377D03*
X-1181D03*
Y590D03*
X-1377D03*
X-1574D03*
Y787D03*
X-1377D03*
X-1181D03*
Y984D03*
X-1377D03*
X-1574D03*
Y1181D03*
X-1377D03*
X-1181D03*
Y1377D03*
X-1377D03*
X-1574D03*
Y1771D03*
X-1377D03*
X-1181D03*
Y1574D03*
X-1377D03*
X-1574D03*
X317Y752D03*
X204Y944D03*
X133Y755D03*
X125Y787D03*
X543Y1019D03*
X625D03*
X283Y972D03*
X440Y874D03*
G54D102*
X-1326Y-1125D03*
X1761Y1702D03*
X291Y-133D03*
X-62Y-19D03*
X720Y1307D03*
X641D03*
X157Y-405D03*
X259Y1212D03*
Y1346D03*
X-263Y-866D03*
X-673D03*
X-507Y-665D03*
X393Y1003D03*
X625Y-507D03*
X503Y-496D03*
X633Y-629D03*
X35Y492D03*
X389Y1251D03*
X381Y1326D03*
X-383Y1318D03*
X-423Y1043D03*
X-492D03*
X-354D03*
X-221Y1078D03*
X-39Y1181D03*
X-157D03*
Y1299D03*
X-39D03*
X167Y-472D03*
M02*