%FSLAX23Y23*%
%MOIN*%
%SFA1B1*%

%IPPOS*%
%ADD45C,0.062990*%
%ADD46R,0.062990X0.062990*%
%ADD47C,0.196850*%
%ADD48C,0.059060*%
%ADD49R,0.059060X0.059060*%
%ADD50C,0.307090*%
%ADD51R,0.062990X0.062990*%
%ADD52C,0.046930*%
%ADD53R,0.046930X0.046930*%
%ADD54C,0.031500*%
%ADD55C,0.027560*%
%ADD56C,0.050000*%
%LNhumrigid1_copper_signal_2-1*%
%LPD*%
G36*
X2096Y2149D02*
X2101D01*
X2111Y2147*
X2121Y2143*
X2130Y2137*
X2137Y2130*
X2143Y2121*
X2147Y2111*
X2149Y2101*
Y2096*
Y-1702*
Y-1707*
X2147Y-1718*
X2143Y-1727*
X2137Y-1736*
X2130Y-1743*
X2121Y-1749*
X2111Y-1753*
X2101Y-1755*
X2096*
X-1702Y-1755*
X-1707*
X-1717Y-1753*
X-1727Y-1749*
X-1736Y-1743*
X-1743Y-1736*
X-1749Y-1727*
X-1753Y-1717*
X-1755Y-1707*
X-1755Y-1702*
Y2096*
Y2101*
X-1753Y2111*
X-1749Y2121*
X-1743Y2130*
X-1736Y2137*
X-1727Y2143*
X-1718Y2147*
X-1707Y2149*
X-1702*
X2096*
G37*
%LNhumrigid1_copper_signal_2-2*%
%LPC*%
G36*
X1878Y1978D02*
X1875D01*
Y1875*
X1978*
Y1878*
X1975Y1895*
X1970Y1911*
X1962Y1926*
X1952Y1940*
X1940Y1952*
X1926Y1962*
X1911Y1970*
X1895Y1975*
X1878Y1978*
G37*
G36*
X1865D02*
X1861D01*
X1844Y1975*
X1828Y1970*
X1813Y1962*
X1799Y1952*
X1787Y1940*
X1777Y1926*
X1769Y1911*
X1764Y1895*
X1761Y1878*
Y1875*
X1865*
Y1978*
G37*
G36*
X-1467D02*
X-1471D01*
Y1875*
X-1367*
Y1878*
X-1370Y1895*
X-1375Y1911*
X-1383Y1926*
X-1393Y1940*
X-1405Y1952*
X-1419Y1962*
X-1434Y1970*
X-1450Y1975*
X-1467Y1978*
G37*
G36*
X-1481D02*
X-1484D01*
X-1501Y1975*
X-1518Y1970*
X-1533Y1962*
X-1547Y1952*
X-1559Y1940*
X-1569Y1926*
X-1576Y1911*
X-1582Y1895*
X-1584Y1878*
Y1875*
X-1481*
Y1978*
G37*
G36*
X1978Y1865D02*
X1875D01*
Y1761*
X1878*
X1895Y1764*
X1911Y1769*
X1926Y1777*
X1940Y1787*
X1952Y1799*
X1962Y1813*
X1970Y1828*
X1975Y1844*
X1978Y1861*
Y1865*
G37*
G36*
X1865D02*
X1761D01*
Y1861*
X1764Y1844*
X1769Y1828*
X1777Y1813*
X1787Y1799*
X1799Y1787*
X1813Y1777*
X1828Y1769*
X1844Y1764*
X1861Y1761*
X1865*
Y1865*
G37*
G36*
X-1367D02*
X-1471D01*
Y1761*
X-1467*
X-1450Y1764*
X-1434Y1769*
X-1419Y1777*
X-1405Y1787*
X-1393Y1799*
X-1383Y1813*
X-1375Y1828*
X-1370Y1844*
X-1367Y1861*
Y1865*
G37*
G36*
X-1481D02*
X-1584D01*
Y1861*
X-1582Y1844*
X-1576Y1828*
X-1569Y1813*
X-1559Y1799*
X-1547Y1787*
X-1533Y1777*
X-1518Y1769*
X-1501Y1764*
X-1484Y1761*
X-1481*
Y1865*
G37*
G36*
X1765Y1724D02*
X1756D01*
X1748Y1720*
X1742Y1714*
X1739Y1706*
Y1697*
X1742Y1689*
X1748Y1683*
X1756Y1680*
X1765*
X1773Y1683*
X1779Y1689*
X1782Y1697*
Y1706*
X1779Y1714*
X1773Y1720*
X1765Y1724*
G37*
G36*
X1294Y1777D02*
X1288D01*
X1267Y1774*
X1246Y1769*
X1226Y1761*
X1208Y1750*
X1191Y1737*
X1175Y1722*
X1162Y1705*
X1152Y1686*
X1144Y1667*
X1141Y1667*
X1139Y1667*
X1131Y1686*
X1120Y1705*
X1107Y1722*
X1092Y1737*
X1075Y1750*
X1056Y1761*
X1036Y1769*
X1016Y1774*
X994Y1777*
X989*
Y1614*
Y1450*
X994*
X1016Y1453*
X1036Y1458*
X1056Y1467*
X1075Y1477*
X1092Y1490*
X1107Y1506*
X1120Y1523*
X1131Y1541*
X1139Y1560*
X1141Y1561*
X1144Y1560*
X1152Y1541*
X1162Y1523*
X1175Y1506*
X1191Y1490*
X1208Y1477*
X1226Y1467*
X1246Y1458*
X1267Y1453*
X1288Y1450*
X1294*
Y1614*
Y1777*
G37*
G36*
X664D02*
X658D01*
X637Y1774*
X616Y1769*
X596Y1761*
X578Y1750*
X561Y1737*
X546Y1722*
X533Y1705*
X522Y1686*
X514Y1667*
X511Y1667*
X509Y1667*
X501Y1686*
X490Y1705*
X477Y1722*
X462Y1737*
X445Y1750*
X426Y1761*
X407Y1769*
X386Y1774*
X365Y1777*
X359*
Y1614*
Y1450*
X365*
X386Y1453*
X407Y1458*
X426Y1467*
X445Y1477*
X462Y1490*
X477Y1506*
X490Y1523*
X501Y1541*
X509Y1560*
X511Y1561*
X514Y1560*
X522Y1541*
X533Y1523*
X546Y1506*
X561Y1490*
X578Y1477*
X596Y1467*
X616Y1458*
X637Y1453*
X658Y1450*
X664*
Y1614*
Y1777*
G37*
G36*
X349D02*
X343D01*
X322Y1774*
X301Y1769*
X281Y1761*
X263Y1750*
X246Y1737*
X231Y1722*
X218Y1705*
X207Y1686*
X199Y1667*
X196Y1667*
X194Y1667*
X186Y1686*
X175Y1705*
X162Y1722*
X147Y1737*
X130Y1750*
X111Y1761*
X92Y1769*
X71Y1774*
X50Y1777*
X44*
Y1614*
Y1450*
X50*
X71Y1453*
X92Y1458*
X111Y1467*
X130Y1477*
X147Y1490*
X162Y1506*
X175Y1523*
X186Y1541*
X194Y1560*
X196Y1561*
X199Y1560*
X207Y1541*
X218Y1523*
X231Y1506*
X246Y1490*
X263Y1477*
X281Y1467*
X301Y1458*
X322Y1453*
X343Y1450*
X349*
Y1614*
Y1777*
G37*
G36*
X34D02*
X28D01*
X7Y1774*
X-13Y1769*
X-33Y1761*
X-51Y1750*
X-68Y1737*
X-83Y1722*
X-96Y1705*
X-107Y1686*
X-115Y1667*
X-118Y1667*
X-120Y1667*
X-128Y1686*
X-139Y1705*
X-152Y1722*
X-167Y1737*
X-184Y1750*
X-203Y1761*
X-222Y1769*
X-243Y1774*
X-264Y1777*
X-270*
Y1614*
Y1450*
X-264*
X-243Y1453*
X-222Y1458*
X-203Y1467*
X-184Y1477*
X-167Y1490*
X-152Y1506*
X-139Y1523*
X-128Y1541*
X-120Y1560*
X-118Y1561*
X-115Y1560*
X-107Y1541*
X-96Y1523*
X-83Y1506*
X-68Y1490*
X-51Y1477*
X-33Y1467*
X-13Y1458*
X7Y1453*
X28Y1450*
X34*
Y1614*
Y1777*
G37*
G36*
X-595D02*
X-601D01*
X-622Y1774*
X-643Y1769*
X-663Y1761*
X-681Y1750*
X-698Y1737*
X-713Y1722*
X-726Y1705*
X-737Y1686*
X-745Y1667*
X-748Y1667*
X-750Y1667*
X-758Y1686*
X-769Y1705*
X-782Y1722*
X-797Y1737*
X-814Y1750*
X-833Y1761*
X-852Y1769*
X-873Y1774*
X-894Y1777*
X-900*
Y1614*
X-905*
Y1609*
X-1069*
Y1603*
X-1066Y1582*
X-1060Y1561*
X-1052Y1541*
X-1041Y1523*
X-1028Y1506*
X-1013Y1490*
X-996Y1477*
X-978Y1467*
X-959Y1459*
X-958Y1456*
X-959Y1454*
X-978Y1446*
X-996Y1435*
X-1013Y1422*
X-1028Y1407*
X-1041Y1390*
X-1052Y1371*
X-1060Y1351*
X-1066Y1331*
X-1069Y1309*
Y1304*
X-905*
X-741*
Y1309*
X-744Y1331*
X-750Y1351*
X-758Y1371*
X-769Y1390*
X-782Y1407*
X-797Y1422*
X-814Y1435*
X-833Y1446*
X-851Y1454*
X-852Y1456*
X-851Y1459*
X-833Y1467*
X-814Y1477*
X-797Y1490*
X-782Y1506*
X-769Y1523*
X-758Y1541*
X-750Y1560*
X-748Y1561*
X-745Y1560*
X-737Y1541*
X-726Y1523*
X-713Y1506*
X-698Y1490*
X-681Y1477*
X-663Y1467*
X-643Y1458*
X-622Y1453*
X-601Y1450*
X-595*
Y1614*
Y1777*
G37*
G36*
X979D02*
X973D01*
X952Y1774*
X931Y1769*
X911Y1761*
X893Y1750*
X876Y1737*
X861Y1722*
X847Y1705*
X837Y1686*
X829Y1667*
X826Y1667*
X824Y1667*
X816Y1686*
X805Y1705*
X792Y1722*
X777Y1737*
X760Y1750*
X741Y1761*
X721Y1769*
X701Y1774*
X680Y1777*
X674*
Y1614*
Y1450*
X680*
X701Y1453*
X721Y1458*
X741Y1467*
X760Y1477*
X777Y1490*
X792Y1506*
X805Y1523*
X816Y1541*
X824Y1560*
X826Y1561*
X829Y1560*
X837Y1541*
X847Y1523*
X861Y1506*
X876Y1490*
X893Y1477*
X911Y1467*
X931Y1458*
X952Y1453*
X973Y1450*
X979*
Y1614*
Y1777*
G37*
G36*
X-280D02*
X-286D01*
X-307Y1774*
X-328Y1769*
X-348Y1761*
X-366Y1750*
X-383Y1737*
X-398Y1722*
X-411Y1705*
X-422Y1686*
X-430Y1667*
X-433Y1667*
X-435Y1667*
X-443Y1686*
X-454Y1705*
X-467Y1722*
X-482Y1737*
X-499Y1750*
X-518Y1761*
X-537Y1769*
X-558Y1774*
X-579Y1777*
X-585*
Y1614*
Y1450*
X-579*
X-558Y1453*
X-537Y1458*
X-518Y1467*
X-499Y1477*
X-482Y1490*
X-467Y1506*
X-454Y1523*
X-443Y1541*
X-435Y1560*
X-433Y1561*
X-430Y1560*
X-422Y1541*
X-411Y1523*
X-398Y1506*
X-383Y1490*
X-366Y1477*
X-348Y1467*
X-328Y1458*
X-307Y1453*
X-286Y1450*
X-280*
Y1614*
Y1777*
G37*
G36*
X1309D02*
X1304D01*
Y1619*
X1462*
Y1624*
X1459Y1646*
X1454Y1666*
X1446Y1686*
X1435Y1705*
X1422Y1722*
X1407Y1737*
X1390Y1750*
X1371Y1761*
X1351Y1769*
X1331Y1774*
X1309Y1777*
G37*
G36*
X-910D02*
X-916D01*
X-937Y1774*
X-958Y1769*
X-978Y1761*
X-996Y1750*
X-1013Y1737*
X-1028Y1722*
X-1041Y1705*
X-1052Y1686*
X-1060Y1666*
X-1066Y1646*
X-1069Y1624*
Y1619*
X-910*
Y1777*
G37*
G36*
X1890Y1584D02*
Y1564D01*
X1911*
X1909Y1568*
X1906Y1574*
X1901Y1579*
X1895Y1583*
X1890Y1584*
G37*
G36*
X1880D02*
X1875Y1583D01*
X1870Y1579*
X1865Y1574*
X1861Y1568*
X1860Y1564*
X1880*
Y1584*
G37*
G36*
X1911Y1554D02*
X1890D01*
Y1533*
X1895Y1535*
X1901Y1538*
X1906Y1543*
X1909Y1549*
X1911Y1554*
G37*
G36*
X1880D02*
X1860D01*
X1861Y1549*
X1865Y1543*
X1870Y1538*
X1875Y1535*
X1880Y1533*
Y1554*
G37*
G36*
X1462Y1609D02*
X1304D01*
Y1450*
X1309*
X1331Y1453*
X1351Y1458*
X1371Y1467*
X1390Y1477*
X1407Y1490*
X1422Y1506*
X1435Y1523*
X1446Y1541*
X1454Y1561*
X1459Y1582*
X1462Y1603*
Y1609*
G37*
G36*
X264Y1368D02*
X255D01*
X247Y1365*
X241Y1358*
X237Y1350*
Y1342*
X241Y1334*
X247Y1327*
X255Y1324*
X264*
X272Y1327*
X278Y1334*
X281Y1342*
Y1350*
X278Y1358*
X272Y1365*
X264Y1368*
G37*
G36*
X-378Y1353D02*
Y1323D01*
X-348*
X-351Y1332*
X-355Y1340*
X-362Y1346*
X-370Y1351*
X-378Y1353*
G37*
G36*
X-388D02*
X-397Y1351D01*
X-405Y1346*
X-411Y1340*
X-416Y1332*
X-418Y1323*
X-388*
Y1353*
G37*
G36*
X386Y1348D02*
X377D01*
X369Y1345*
X363Y1339*
X360Y1331*
Y1322*
X363Y1314*
X369Y1308*
X377Y1304*
X386*
X394Y1308*
X400Y1314*
X403Y1322*
Y1331*
X400Y1339*
X394Y1345*
X386Y1348*
G37*
G36*
X724Y1328D02*
X716D01*
X708Y1325*
X701Y1319*
X698Y1311*
Y1302*
X701Y1294*
X708Y1288*
X716Y1285*
X724*
X732Y1288*
X739Y1294*
X742Y1302*
Y1311*
X739Y1319*
X732Y1325*
X724Y1328*
G37*
G36*
X646D02*
X637D01*
X629Y1325*
X623Y1319*
X619Y1311*
Y1302*
X623Y1294*
X629Y1288*
X637Y1285*
X646*
X654Y1288*
X660Y1294*
X663Y1302*
Y1311*
X660Y1319*
X654Y1325*
X646Y1328*
G37*
G36*
X-348Y1313D02*
X-378D01*
Y1284*
X-370Y1286*
X-362Y1290*
X-355Y1297*
X-351Y1305*
X-348Y1313*
G37*
G36*
X-388D02*
X-418D01*
X-416Y1305*
X-411Y1297*
X-405Y1290*
X-397Y1286*
X-388Y1284*
Y1313*
G37*
G36*
X-35Y1321D02*
X-43D01*
X-51Y1317*
X-57Y1311*
X-61Y1303*
Y1294*
X-57Y1286*
X-51Y1280*
X-43Y1277*
X-35*
X-26Y1280*
X-20Y1286*
X-17Y1294*
Y1303*
X-20Y1311*
X-26Y1317*
X-35Y1321*
G37*
G36*
X-153D02*
X-161D01*
X-169Y1317*
X-176Y1311*
X-179Y1303*
Y1294*
X-176Y1286*
X-169Y1280*
X-161Y1277*
X-153*
X-145Y1280*
X-138Y1286*
X-135Y1294*
Y1303*
X-138Y1311*
X-145Y1317*
X-153Y1321*
G37*
G36*
X394Y1286D02*
Y1256D01*
X424*
X422Y1265*
X417Y1273*
X411Y1279*
X403Y1284*
X394Y1286*
G37*
G36*
X384D02*
X376Y1284D01*
X368Y1279*
X361Y1273*
X357Y1265*
X354Y1256*
X384*
Y1286*
G37*
G36*
X264Y1247D02*
Y1217D01*
X294*
X292Y1226*
X287Y1234*
X281Y1240*
X273Y1245*
X264Y1247*
G37*
G36*
X254D02*
X246Y1245D01*
X238Y1240*
X231Y1234*
X227Y1226*
X224Y1217*
X254*
Y1247*
G37*
G36*
X424Y1246D02*
X394D01*
Y1217*
X403Y1219*
X411Y1223*
X417Y1230*
X422Y1238*
X424Y1246*
G37*
G36*
X384D02*
X354D01*
X357Y1238*
X361Y1230*
X368Y1223*
X376Y1219*
X384Y1217*
Y1246*
G37*
G36*
X294Y1207D02*
X264D01*
Y1177*
X273Y1179*
X281Y1184*
X287Y1191*
X292Y1199*
X294Y1207*
G37*
G36*
X254D02*
X224D01*
X227Y1199*
X231Y1191*
X238Y1184*
X246Y1179*
X254Y1177*
Y1207*
G37*
G36*
X-35Y1202D02*
X-43D01*
X-51Y1199*
X-57Y1193*
X-61Y1185*
Y1176*
X-57Y1168*
X-51Y1162*
X-43Y1159*
X-35*
X-26Y1162*
X-20Y1168*
X-17Y1176*
Y1185*
X-20Y1193*
X-26Y1199*
X-35Y1202*
G37*
G36*
X-153D02*
X-161D01*
X-169Y1199*
X-176Y1193*
X-179Y1185*
Y1176*
X-176Y1168*
X-169Y1162*
X-161Y1159*
X-153*
X-145Y1162*
X-138Y1168*
X-135Y1176*
Y1185*
X-138Y1193*
X-145Y1199*
X-153Y1202*
G37*
G36*
X-217Y1099D02*
X-225D01*
X-233Y1096*
X-239Y1090*
X-243Y1082*
Y1073*
X-239Y1065*
X-233Y1059*
X-225Y1056*
X-217*
X-208Y1059*
X-202Y1065*
X-199Y1073*
Y1082*
X-202Y1090*
X-208Y1096*
X-217Y1099*
G37*
G36*
X-349Y1065D02*
X-358D01*
X-366Y1061*
X-372Y1055*
X-376Y1047*
Y1038*
X-372Y1030*
X-366Y1024*
X-358Y1021*
X-349*
X-341Y1024*
X-335Y1030*
X-332Y1038*
Y1047*
X-335Y1055*
X-341Y1061*
X-349Y1065*
G37*
G36*
X-418D02*
X-427D01*
X-435Y1061*
X-441Y1055*
X-445Y1047*
Y1038*
X-441Y1030*
X-435Y1024*
X-427Y1021*
X-418*
X-410Y1024*
X-404Y1030*
X-401Y1038*
Y1047*
X-404Y1055*
X-410Y1061*
X-418Y1065*
G37*
G36*
X-487D02*
X-496D01*
X-504Y1061*
X-510Y1055*
X-514Y1047*
Y1038*
X-510Y1030*
X-504Y1024*
X-496Y1021*
X-487*
X-479Y1024*
X-473Y1030*
X-470Y1038*
Y1047*
X-473Y1055*
X-479Y1061*
X-487Y1065*
G37*
G36*
X628Y1033D02*
X623D01*
X618Y1031*
X614Y1027*
X612Y1022*
Y1016*
X614Y1011*
X618Y1008*
X623Y1005*
X628*
X633Y1008*
X637Y1011*
X639Y1016*
Y1022*
X637Y1027*
X633Y1031*
X628Y1033*
G37*
G36*
X546D02*
X540D01*
X535Y1031*
X531Y1027*
X529Y1022*
Y1016*
X531Y1011*
X535Y1008*
X540Y1005*
X546*
X551Y1008*
X554Y1011*
X557Y1016*
Y1022*
X554Y1027*
X551Y1031*
X546Y1033*
G37*
G36*
X1309Y1147D02*
X1304D01*
Y989*
X1462*
Y994*
X1459Y1016*
X1454Y1036*
X1446Y1056*
X1435Y1075*
X1422Y1092*
X1407Y1107*
X1390Y1120*
X1371Y1131*
X1351Y1139*
X1331Y1145*
X1309Y1147*
G37*
G36*
X1294D02*
X1288D01*
X1267Y1145*
X1246Y1139*
X1226Y1131*
X1208Y1120*
X1191Y1107*
X1175Y1092*
X1162Y1075*
X1152Y1056*
X1144Y1036*
X1138Y1016*
X1135Y994*
Y989*
X1294*
Y1147*
G37*
G36*
X-741Y1294D02*
X-905D01*
X-1069*
Y1288*
X-1066Y1267*
X-1060Y1246*
X-1052Y1226*
X-1041Y1208*
X-1028Y1191*
X-1013Y1175*
X-996Y1162*
X-978Y1152*
X-959Y1144*
X-958Y1141*
X-959Y1139*
X-978Y1131*
X-996Y1120*
X-1013Y1107*
X-1028Y1092*
X-1041Y1075*
X-1052Y1056*
X-1060Y1036*
X-1066Y1016*
X-1069Y994*
Y989*
X-905*
X-741*
Y994*
X-744Y1016*
X-750Y1036*
X-758Y1056*
X-769Y1075*
X-782Y1092*
X-797Y1107*
X-814Y1120*
X-833Y1131*
X-851Y1139*
X-852Y1141*
X-851Y1144*
X-833Y1152*
X-814Y1162*
X-797Y1175*
X-782Y1191*
X-769Y1208*
X-758Y1226*
X-750Y1246*
X-744Y1267*
X-741Y1288*
Y1294*
G37*
G36*
X398Y1025D02*
X389D01*
X381Y1022*
X375Y1016*
X371Y1008*
Y999*
X375Y991*
X381Y985*
X389Y982*
X398*
X406Y985*
X412Y991*
X415Y999*
Y1008*
X412Y1016*
X406Y1022*
X398Y1025*
G37*
G36*
X207Y958D02*
X201D01*
X196Y956*
X193Y952*
X190Y947*
Y942*
X193Y937*
X196Y933*
X201Y931*
X207*
X212Y933*
X216Y937*
X218Y942*
Y947*
X216Y952*
X212Y956*
X207Y958*
G37*
G36*
X1877Y938D02*
X1876D01*
Y902*
X1913*
Y902*
X1910Y913*
X1904Y922*
X1897Y930*
X1887Y935*
X1877Y938*
G37*
G36*
X1866D02*
X1866D01*
X1855Y935*
X1846Y930*
X1838Y922*
X1832Y913*
X1830Y902*
Y902*
X1866*
Y938*
G37*
G36*
X1811Y936D02*
X1732D01*
Y857*
X1811*
Y936*
G37*
G36*
X1913Y892D02*
X1876D01*
Y855*
X1877*
X1887Y858*
X1897Y863*
X1904Y871*
X1910Y880*
X1913Y891*
Y892*
G37*
G36*
X1866D02*
X1830D01*
Y891*
X1832Y880*
X1838Y871*
X1846Y863*
X1855Y858*
X1866Y855*
X1866*
Y892*
G37*
G36*
X1876Y836D02*
X1866D01*
X1856Y833*
X1847Y828*
X1840Y821*
X1834Y812*
X1832Y802*
Y791*
X1834Y781*
X1840Y772*
X1847Y765*
X1856Y760*
X1866Y757*
X1876*
X1886Y760*
X1895Y765*
X1903Y772*
X1908Y781*
X1911Y791*
Y802*
X1908Y812*
X1903Y821*
X1895Y828*
X1886Y833*
X1876Y836*
G37*
G36*
X1776D02*
X1766D01*
X1756Y833*
X1747Y828*
X1740Y821*
X1734Y812*
X1732Y802*
Y791*
X1734Y781*
X1740Y772*
X1747Y765*
X1756Y760*
X1766Y757*
X1776*
X1786Y760*
X1795Y765*
X1803Y772*
X1808Y781*
X1811Y791*
Y802*
X1808Y812*
X1803Y821*
X1795Y828*
X1786Y833*
X1776Y836*
G37*
G36*
X128Y801D02*
X123D01*
X118Y799*
X114Y795*
X112Y790*
Y784*
X114Y779*
X118Y775*
X123Y773*
X126*
X127*
X128Y768*
X127Y768*
X126Y767*
X122Y763*
X120Y758*
Y753*
X122Y748*
X126Y744*
X131Y742*
X136*
X141Y744*
X145Y748*
X147Y753*
Y758*
X145Y763*
X141Y767*
X136Y769*
X133*
X132*
X131Y774*
X132Y775*
X133Y775*
X137Y779*
X139Y784*
Y790*
X137Y795*
X133Y799*
X128Y801*
G37*
G36*
X-741Y979D02*
X-905D01*
X-1069*
Y973*
X-1066Y952*
X-1060Y931*
X-1052Y911*
X-1041Y893*
X-1028Y876*
X-1013Y861*
X-996Y847*
X-978Y837*
X-959Y829*
X-958Y826*
X-959Y824*
X-978Y816*
X-996Y805*
X-1013Y792*
X-1028Y777*
X-1041Y760*
X-1052Y741*
X-1060Y721*
X-1066Y701*
X-1069Y680*
Y674*
X-905*
X-741*
Y680*
X-744Y701*
X-750Y721*
X-758Y741*
X-769Y760*
X-782Y777*
X-797Y792*
X-814Y805*
X-833Y816*
X-851Y824*
X-852Y826*
X-851Y829*
X-833Y837*
X-814Y847*
X-797Y861*
X-782Y876*
X-769Y893*
X-758Y911*
X-750Y931*
X-744Y952*
X-741Y973*
Y979*
G37*
G36*
X1462D02*
X1299D01*
X1135*
Y973*
X1138Y952*
X1144Y931*
X1152Y911*
X1162Y893*
X1175Y876*
X1191Y861*
X1208Y847*
X1226Y837*
X1245Y829*
X1246Y826*
X1245Y824*
X1226Y816*
X1208Y805*
X1191Y792*
X1175Y777*
X1162Y760*
X1152Y741*
X1144Y721*
X1138Y701*
X1135Y680*
Y674*
X1299*
X1462*
Y680*
X1459Y701*
X1454Y721*
X1446Y741*
X1435Y760*
X1422Y777*
X1407Y792*
X1390Y805*
X1371Y816*
X1352Y824*
X1352Y826*
X1352Y829*
X1371Y837*
X1390Y847*
X1407Y861*
X1422Y876*
X1435Y893*
X1446Y911*
X1454Y931*
X1459Y952*
X1462Y973*
Y979*
G37*
G36*
X1876Y736D02*
X1866D01*
X1856Y733*
X1847Y728*
X1840Y721*
X1834Y712*
X1832Y702*
Y691*
X1834Y681*
X1840Y672*
X1847Y665*
X1856Y660*
X1866Y657*
X1876*
X1886Y660*
X1895Y665*
X1903Y672*
X1908Y681*
X1911Y691*
Y702*
X1908Y712*
X1903Y721*
X1895Y728*
X1886Y733*
X1876Y736*
G37*
G36*
X1776D02*
X1766D01*
X1756Y733*
X1747Y728*
X1740Y721*
X1734Y712*
X1732Y702*
Y691*
X1734Y681*
X1740Y672*
X1747Y665*
X1756Y660*
X1766Y657*
X1776*
X1786Y660*
X1795Y665*
X1803Y672*
X1808Y681*
X1811Y691*
Y702*
X1808Y712*
X1803Y721*
X1795Y728*
X1786Y733*
X1776Y736*
G37*
G36*
X247Y653D02*
X240D01*
X235Y651*
X230Y646*
X228Y640*
Y634*
X230Y628*
X235Y624*
X240Y622*
X247*
X253Y624*
X257Y628*
X259Y634*
Y640*
X257Y646*
X253Y651*
X247Y653*
G37*
G36*
X1876Y636D02*
X1866D01*
X1856Y633*
X1847Y628*
X1840Y621*
X1834Y612*
X1832Y602*
Y591*
X1834Y581*
X1840Y572*
X1847Y565*
X1856Y560*
X1866Y557*
X1876*
X1886Y560*
X1895Y565*
X1903Y572*
X1908Y581*
X1911Y591*
Y602*
X1908Y612*
X1903Y621*
X1895Y628*
X1886Y633*
X1876Y636*
G37*
G36*
X1776D02*
X1766D01*
X1756Y633*
X1747Y628*
X1740Y621*
X1734Y612*
X1732Y602*
Y591*
X1734Y581*
X1740Y572*
X1747Y565*
X1756Y560*
X1766Y557*
X1776*
X1786Y560*
X1795Y565*
X1803Y572*
X1808Y581*
X1811Y591*
Y602*
X1808Y612*
X1803Y621*
X1795Y628*
X1786Y633*
X1776Y636*
G37*
G36*
X130Y568D02*
Y548D01*
X151*
X149Y553*
X146Y559*
X141Y563*
X135Y567*
X130Y568*
G37*
G36*
X120D02*
X116Y567D01*
X110Y563*
X105Y559*
X101Y553*
X100Y548*
X120*
Y568*
G37*
G36*
X151Y538D02*
X130D01*
Y517*
X135Y519*
X141Y522*
X146Y527*
X149Y533*
X151Y538*
G37*
G36*
X120D02*
X100D01*
X101Y533*
X105Y527*
X110Y522*
X116Y519*
X120Y517*
Y538*
G37*
G36*
X39Y514D02*
X31D01*
X23Y510*
X16Y504*
X13Y496*
Y487*
X16Y479*
X23Y473*
X31Y470*
X39*
X47Y473*
X53Y479*
X57Y487*
Y496*
X53Y504*
X47Y510*
X39Y514*
G37*
G36*
X540Y482D02*
Y461D01*
X560*
X559Y466*
X556Y472*
X551Y477*
X545Y480*
X540Y482*
G37*
G36*
X530D02*
X525Y480D01*
X519Y477*
X514Y472*
X511Y466*
X510Y461*
X530*
Y482*
G37*
G36*
X1876Y536D02*
X1866D01*
X1856Y533*
X1847Y528*
X1840Y521*
X1834Y512*
X1832Y502*
Y491*
X1834Y481*
X1840Y472*
X1847Y465*
X1856Y460*
X1866Y457*
X1876*
X1886Y460*
X1895Y465*
X1903Y472*
X1908Y481*
X1911Y491*
Y502*
X1908Y512*
X1903Y521*
X1895Y528*
X1886Y533*
X1876Y536*
G37*
G36*
X1776D02*
X1766D01*
X1756Y533*
X1747Y528*
X1740Y521*
X1734Y512*
X1732Y502*
Y491*
X1734Y481*
X1740Y472*
X1747Y465*
X1756Y460*
X1766Y457*
X1776*
X1786Y460*
X1795Y465*
X1803Y472*
X1808Y481*
X1811Y491*
Y502*
X1808Y512*
X1803Y521*
X1795Y528*
X1786Y533*
X1776Y536*
G37*
G36*
X560Y451D02*
X540D01*
Y431*
X545Y432*
X551Y436*
X556Y440*
X559Y446*
X560Y451*
G37*
G36*
X530D02*
X510D01*
X511Y446*
X514Y440*
X519Y436*
X525Y432*
X530Y431*
Y451*
G37*
G36*
X245Y442D02*
Y422D01*
X265*
X264Y427*
X260Y433*
X255Y437*
X250Y441*
X245Y442*
G37*
G36*
X235D02*
X230Y441D01*
X224Y437*
X219Y433*
X216Y427*
X214Y422*
X235*
Y442*
G37*
G36*
X48Y436D02*
Y416D01*
X68*
X67Y421*
X63Y426*
X59Y431*
X53Y435*
X48Y436*
G37*
G36*
X38D02*
X33Y435D01*
X27Y431*
X22Y426*
X19Y421*
X18Y416*
X38*
Y436*
G37*
G36*
X265Y412D02*
X245D01*
Y392*
X250Y393*
X255Y396*
X260Y401*
X264Y407*
X265Y412*
G37*
G36*
X235D02*
X214D01*
X216Y407*
X219Y401*
X224Y396*
X230Y393*
X235Y392*
Y412*
G37*
G36*
X68Y406D02*
X48D01*
Y385*
X53Y387*
X59Y390*
X63Y395*
X67Y401*
X68Y406*
G37*
G36*
X38D02*
X18D01*
X19Y401*
X22Y395*
X27Y390*
X33Y387*
X38Y385*
Y406*
G37*
G36*
X1462Y664D02*
X1299D01*
X1135*
Y658*
X1138Y637*
X1144Y616*
X1152Y596*
X1162Y578*
X1175Y561*
X1191Y546*
X1208Y533*
X1226Y522*
X1245Y514*
X1246Y511*
X1245Y509*
X1226Y501*
X1208Y490*
X1191Y477*
X1175Y462*
X1162Y445*
X1152Y426*
X1144Y407*
X1138Y386*
X1135Y365*
Y359*
X1299*
X1462*
Y365*
X1459Y386*
X1454Y407*
X1446Y426*
X1435Y445*
X1422Y462*
X1407Y477*
X1390Y490*
X1371Y501*
X1352Y509*
X1352Y511*
X1352Y514*
X1371Y522*
X1390Y533*
X1407Y546*
X1422Y561*
X1435Y578*
X1446Y596*
X1454Y616*
X1459Y637*
X1462Y658*
Y664*
G37*
G36*
X-741D02*
X-905D01*
X-1069*
Y658*
X-1066Y637*
X-1060Y616*
X-1052Y596*
X-1041Y578*
X-1028Y561*
X-1013Y546*
X-996Y533*
X-978Y522*
X-959Y514*
X-958Y511*
X-959Y509*
X-978Y501*
X-996Y490*
X-1013Y477*
X-1028Y462*
X-1041Y445*
X-1052Y426*
X-1060Y407*
X-1066Y386*
X-1069Y365*
Y359*
X-905*
X-741*
Y365*
X-744Y386*
X-750Y407*
X-758Y426*
X-769Y445*
X-782Y462*
X-797Y477*
X-814Y490*
X-833Y501*
X-851Y509*
X-852Y511*
X-851Y514*
X-833Y522*
X-814Y533*
X-797Y546*
X-782Y561*
X-769Y578*
X-758Y596*
X-750Y616*
X-744Y637*
X-741Y658*
Y664*
G37*
G36*
X1876Y436D02*
X1866D01*
X1856Y433*
X1847Y428*
X1840Y421*
X1834Y412*
X1832Y402*
Y391*
X1834Y381*
X1840Y372*
X1847Y365*
X1856Y360*
X1866Y357*
X1876*
X1886Y360*
X1895Y365*
X1903Y372*
X1908Y381*
X1911Y391*
Y402*
X1908Y412*
X1903Y421*
X1895Y428*
X1886Y433*
X1876Y436*
G37*
G36*
X1776D02*
X1766D01*
X1756Y433*
X1747Y428*
X1740Y421*
X1734Y412*
X1732Y402*
Y391*
X1734Y381*
X1740Y372*
X1747Y365*
X1756Y360*
X1766Y357*
X1776*
X1786Y360*
X1795Y365*
X1803Y372*
X1808Y381*
X1811Y391*
Y402*
X1808Y412*
X1803Y421*
X1795Y428*
X1786Y433*
X1776Y436*
G37*
G36*
X365Y385D02*
X359D01*
X353Y383*
X348Y379*
X346Y373*
Y366*
X348Y361*
X353Y356*
X359Y354*
X365*
X371Y356*
X375Y361*
X377Y366*
Y373*
X375Y379*
X371Y383*
X365Y385*
G37*
G36*
X308Y340D02*
Y319D01*
X328*
X327Y324*
X323Y330*
X318Y335*
X313Y338*
X308Y340*
G37*
G36*
X298D02*
X293Y338D01*
X287Y335*
X282Y330*
X279Y324*
X277Y319*
X298*
Y340*
G37*
G36*
X483Y326D02*
X477D01*
X471Y324*
X466Y319*
X464Y314*
Y307*
X466Y302*
X471Y297*
X477Y295*
X483*
X489Y297*
X493Y302*
X496Y307*
Y314*
X493Y319*
X489Y324*
X483Y326*
G37*
G36*
X328Y309D02*
X308D01*
Y289*
X313Y290*
X318Y294*
X323Y299*
X327Y305*
X328Y309*
G37*
G36*
X298D02*
X277D01*
X279Y305*
X282Y299*
X287Y294*
X293Y290*
X298Y289*
Y309*
G37*
G36*
X1876Y336D02*
X1866D01*
X1856Y333*
X1847Y328*
X1840Y321*
X1834Y312*
X1832Y302*
Y291*
X1834Y281*
X1840Y272*
X1847Y265*
X1856Y260*
X1866Y257*
X1876*
X1886Y260*
X1895Y265*
X1903Y272*
X1908Y281*
X1911Y291*
Y302*
X1908Y312*
X1903Y321*
X1895Y328*
X1886Y333*
X1876Y336*
G37*
G36*
X1776D02*
X1766D01*
X1756Y333*
X1747Y328*
X1740Y321*
X1734Y312*
X1732Y302*
Y291*
X1734Y281*
X1740Y272*
X1747Y265*
X1756Y260*
X1766Y257*
X1776*
X1786Y260*
X1795Y265*
X1803Y272*
X1808Y281*
X1811Y291*
Y302*
X1808Y312*
X1803Y321*
X1795Y328*
X1786Y333*
X1776Y336*
G37*
G36*
X289Y211D02*
Y182D01*
X317*
X315Y190*
X311Y198*
X305Y204*
X297Y209*
X289Y211*
G37*
G36*
X279D02*
X271Y209D01*
X264Y204*
X257Y198*
X253Y190*
X251Y182*
X279*
Y211*
G37*
G36*
X-719Y202D02*
Y182D01*
X-699*
X-700Y187*
X-703Y192*
X-708Y197*
X-714Y201*
X-719Y202*
G37*
G36*
X-729D02*
X-734Y201D01*
X-740Y197*
X-745Y192*
X-748Y187*
X-749Y182*
X-729*
Y202*
G37*
G36*
X1876Y236D02*
X1866D01*
X1856Y233*
X1847Y228*
X1840Y221*
X1834Y212*
X1832Y202*
Y191*
X1834Y181*
X1840Y172*
X1847Y165*
X1856Y160*
X1866Y157*
X1876*
X1886Y160*
X1895Y165*
X1903Y172*
X1908Y181*
X1911Y191*
Y202*
X1908Y212*
X1903Y221*
X1895Y228*
X1886Y233*
X1876Y236*
G37*
G36*
X1776D02*
X1766D01*
X1756Y233*
X1747Y228*
X1740Y221*
X1734Y212*
X1732Y202*
Y191*
X1734Y181*
X1740Y172*
X1747Y165*
X1756Y160*
X1766Y157*
X1776*
X1786Y160*
X1795Y165*
X1803Y172*
X1808Y181*
X1811Y191*
Y202*
X1808Y212*
X1803Y221*
X1795Y228*
X1786Y233*
X1776Y236*
G37*
G36*
X-699Y172D02*
X-719D01*
Y151*
X-714Y153*
X-708Y156*
X-703Y161*
X-700Y167*
X-699Y172*
G37*
G36*
X-729D02*
X-749D01*
X-748Y167*
X-745Y161*
X-740Y156*
X-734Y153*
X-729Y151*
Y172*
G37*
G36*
X-4Y224D02*
X-14D01*
X-24Y221*
X-32Y216*
X-39Y209*
X-44Y201*
X-47Y191*
Y182*
X-44Y172*
X-39Y164*
X-32Y157*
X-24Y152*
X-14Y149*
X-4*
X4Y152*
X13Y157*
X20Y164*
X25Y172*
X27Y182*
Y191*
X25Y201*
X20Y209*
X13Y216*
X4Y221*
X-4Y224*
G37*
G36*
X317Y172D02*
X289D01*
Y144*
X297Y146*
X305Y151*
X311Y157*
X315Y165*
X317Y172*
G37*
G36*
X279D02*
X251D01*
X253Y166*
X250Y161*
X239*
Y132*
X268*
Y143*
X273Y146*
X279Y144*
Y172*
G37*
G36*
X229Y161D02*
X201D01*
Y132*
X229*
Y161*
G37*
G36*
X-559Y157D02*
X-566D01*
X-571Y155*
X-576Y150*
X-578Y144*
Y138*
X-576Y132*
X-571Y128*
X-566Y125*
X-559*
X-554Y128*
X-549Y132*
X-547Y138*
Y144*
X-549Y150*
X-554Y155*
X-559Y157*
G37*
G36*
X338Y159D02*
X330D01*
X322Y157*
X315Y153*
X309Y147*
X305Y140*
X303Y132*
Y123*
X305Y115*
X309Y108*
X315Y102*
X322Y98*
X330Y96*
X338*
X346Y98*
X353Y102*
X359Y108*
X363Y115*
X365Y123*
Y132*
X363Y140*
X359Y147*
X353Y153*
X346Y157*
X338Y159*
G37*
G36*
X268Y122D02*
X239D01*
Y94*
X268*
Y122*
G37*
G36*
X229D02*
X201D01*
Y94*
X229*
Y122*
G37*
G36*
X1876Y136D02*
X1866D01*
X1856Y133*
X1847Y128*
X1840Y121*
X1834Y112*
X1832Y102*
Y91*
X1834Y81*
X1840Y72*
X1847Y65*
X1856Y60*
X1866Y57*
X1876*
X1886Y60*
X1895Y65*
X1903Y72*
X1908Y81*
X1911Y91*
Y102*
X1908Y112*
X1903Y121*
X1895Y128*
X1886Y133*
X1876Y136*
G37*
G36*
X1776D02*
X1766D01*
X1756Y133*
X1747Y128*
X1740Y121*
X1734Y112*
X1732Y102*
Y91*
X1734Y81*
X1740Y72*
X1747Y65*
X1756Y60*
X1766Y57*
X1776*
X1786Y60*
X1795Y65*
X1803Y72*
X1808Y81*
X1811Y91*
Y102*
X1808Y112*
X1803Y121*
X1795Y128*
X1786Y133*
X1776Y136*
G37*
G36*
X27Y125D02*
X-47D01*
Y51*
X27*
Y125*
G37*
G36*
X-741Y349D02*
X-905D01*
X-1069*
Y343*
X-1066Y322*
X-1060Y301*
X-1052Y281*
X-1041Y263*
X-1028Y246*
X-1013Y231*
X-996Y218*
X-978Y207*
X-959Y199*
X-958Y196*
X-959Y194*
X-978Y186*
X-996Y175*
X-1013Y162*
X-1028Y147*
X-1041Y130*
X-1052Y111*
X-1060Y92*
X-1066Y71*
X-1069Y50*
Y44*
X-905*
X-741*
Y50*
X-744Y71*
X-750Y92*
X-758Y111*
X-769Y130*
X-782Y147*
X-797Y162*
X-814Y175*
X-833Y186*
X-851Y194*
X-852Y196*
X-851Y199*
X-833Y207*
X-814Y218*
X-797Y231*
X-782Y246*
X-769Y263*
X-758Y281*
X-750Y301*
X-744Y322*
X-741Y343*
Y349*
G37*
G36*
X1462D02*
X1299D01*
X1135*
Y343*
X1138Y322*
X1144Y301*
X1152Y281*
X1162Y263*
X1175Y246*
X1191Y231*
X1208Y218*
X1226Y207*
X1245Y199*
X1246Y196*
X1245Y194*
X1226Y186*
X1208Y175*
X1191Y162*
X1175Y147*
X1162Y130*
X1152Y111*
X1144Y92*
X1138Y71*
X1135Y50*
Y44*
X1299*
X1462*
Y50*
X1459Y71*
X1454Y92*
X1446Y111*
X1435Y130*
X1422Y147*
X1407Y162*
X1390Y175*
X1371Y186*
X1352Y194*
X1352Y196*
X1352Y199*
X1371Y207*
X1390Y218*
X1407Y231*
X1422Y246*
X1435Y263*
X1446Y281*
X1454Y301*
X1459Y322*
X1462Y343*
Y349*
G37*
G36*
X-338Y20D02*
Y0D01*
X-318*
X-319Y4*
X-322Y10*
X-327Y15*
X-333Y18*
X-338Y20*
G37*
G36*
X-348D02*
X-353Y18D01*
X-359Y15*
X-364Y10*
X-367Y4*
X-368Y0*
X-348*
Y20*
G37*
G36*
X-57Y15D02*
Y-14D01*
X-28*
X-30Y-6*
X-34Y1*
X-41Y8*
X-49Y12*
X-57Y15*
G37*
G36*
X-67D02*
X-76Y12D01*
X-84Y8*
X-91Y1*
X-95Y-6*
X-97Y-14*
X-67*
Y15*
G37*
G36*
X-613Y-2D02*
Y-22D01*
X-592*
X-594Y-17*
X-597Y-11*
X-602Y-6*
X-608Y-3*
X-613Y-2*
G37*
G36*
X-623D02*
X-628Y-3D01*
X-633Y-6*
X-638Y-11*
X-642Y-17*
X-643Y-22*
X-623*
Y-2*
G37*
G36*
X-318Y-10D02*
X-338D01*
Y-30*
X-333Y-28*
X-327Y-25*
X-322Y-20*
X-319Y-14*
X-318Y-10*
G37*
G36*
X-348D02*
X-368D01*
X-367Y-14*
X-364Y-20*
X-359Y-25*
X-353Y-28*
X-348Y-30*
Y-10*
G37*
G36*
X1876Y36D02*
X1866D01*
X1856Y33*
X1847Y28*
X1840Y21*
X1834Y12*
X1832Y2*
Y-8*
X1834Y-18*
X1840Y-27*
X1847Y-34*
X1856Y-39*
X1866Y-42*
X1876*
X1886Y-39*
X1895Y-34*
X1903Y-27*
X1908Y-18*
X1911Y-8*
Y2*
X1908Y12*
X1903Y21*
X1895Y28*
X1886Y33*
X1876Y36*
G37*
G36*
X1776D02*
X1766D01*
X1756Y33*
X1747Y28*
X1740Y21*
X1734Y12*
X1732Y2*
Y-8*
X1734Y-18*
X1740Y-27*
X1747Y-34*
X1756Y-39*
X1766Y-42*
X1776*
X1786Y-39*
X1795Y-34*
X1803Y-27*
X1808Y-18*
X1811Y-8*
Y2*
X1808Y12*
X1803Y21*
X1795Y28*
X1786Y33*
X1776Y36*
G37*
G36*
X-592Y-32D02*
X-613D01*
Y-52*
X-608Y-51*
X-602Y-48*
X-597Y-43*
X-594Y-37*
X-592Y-32*
G37*
G36*
X-623D02*
X-643D01*
X-642Y-37*
X-638Y-43*
X-633Y-48*
X-628Y-51*
X-623Y-52*
Y-32*
G37*
G36*
X-28Y-24D02*
X-57D01*
Y-54*
X-49Y-52*
X-41Y-47*
X-34Y-41*
X-30Y-33*
X-28Y-24*
G37*
G36*
X-67D02*
X-97D01*
X-95Y-33*
X-91Y-41*
X-84Y-47*
X-76Y-52*
X-67Y-54*
Y-24*
G37*
G36*
X-174Y-43D02*
X-180D01*
X-186Y-45*
X-190Y-50*
X-192Y-55*
Y-62*
X-190Y-67*
X-186Y-72*
X-180Y-74*
X-174*
X-168Y-72*
X-163Y-67*
X-161Y-62*
Y-55*
X-163Y-50*
X-168Y-45*
X-174Y-43*
G37*
G36*
X296Y-98D02*
Y-128D01*
X326*
X323Y-120*
X319Y-112*
X312Y-105*
X304Y-101*
X296Y-98*
G37*
G36*
X286D02*
X277Y-101D01*
X269Y-105*
X263Y-112*
X258Y-120*
X256Y-128*
X286*
Y-98*
G37*
G36*
X1876Y-63D02*
X1866D01*
X1856Y-66*
X1847Y-71*
X1840Y-78*
X1834Y-87*
X1832Y-97*
Y-108*
X1834Y-118*
X1840Y-127*
X1847Y-134*
X1856Y-139*
X1866Y-142*
X1876*
X1886Y-139*
X1895Y-134*
X1903Y-127*
X1908Y-118*
X1911Y-108*
Y-97*
X1908Y-87*
X1903Y-78*
X1895Y-71*
X1886Y-66*
X1876Y-63*
G37*
G36*
X1776D02*
X1766D01*
X1756Y-66*
X1747Y-71*
X1740Y-78*
X1734Y-87*
X1732Y-97*
Y-108*
X1734Y-118*
X1740Y-127*
X1747Y-134*
X1756Y-139*
X1766Y-142*
X1776*
X1786Y-139*
X1795Y-134*
X1803Y-127*
X1808Y-118*
X1811Y-108*
Y-97*
X1808Y-87*
X1803Y-78*
X1795Y-71*
X1786Y-66*
X1776Y-63*
G37*
G36*
X326Y-138D02*
X296D01*
Y-168*
X304Y-166*
X312Y-161*
X319Y-155*
X323Y-147*
X326Y-138*
G37*
G36*
X286D02*
X256D01*
X258Y-147*
X263Y-155*
X269Y-161*
X277Y-166*
X286Y-168*
Y-138*
G37*
G36*
X-288Y-183D02*
Y-203D01*
X-267*
X-269Y-198*
X-272Y-192*
X-277Y-188*
X-283Y-184*
X-288Y-183*
G37*
G36*
X-298D02*
X-303Y-184D01*
X-309Y-188*
X-313Y-192*
X-317Y-198*
X-318Y-203*
X-298*
Y-183*
G37*
G36*
X-267Y-213D02*
X-288D01*
Y-233*
X-283Y-232*
X-277Y-229*
X-272Y-224*
X-269Y-218*
X-267Y-213*
G37*
G36*
X-298D02*
X-318D01*
X-317Y-218*
X-313Y-224*
X-309Y-229*
X-303Y-232*
X-298Y-233*
Y-213*
G37*
G36*
X1876Y-163D02*
X1866D01*
X1856Y-166*
X1847Y-171*
X1840Y-178*
X1834Y-187*
X1832Y-197*
Y-208*
X1834Y-218*
X1840Y-227*
X1847Y-234*
X1856Y-239*
X1866Y-242*
X1876*
X1886Y-239*
X1895Y-234*
X1903Y-227*
X1908Y-218*
X1911Y-208*
Y-197*
X1908Y-187*
X1903Y-178*
X1895Y-171*
X1886Y-166*
X1876Y-163*
G37*
G36*
X1776D02*
X1766D01*
X1756Y-166*
X1747Y-171*
X1740Y-178*
X1734Y-187*
X1732Y-197*
Y-208*
X1734Y-218*
X1740Y-227*
X1747Y-234*
X1756Y-239*
X1766Y-242*
X1776*
X1786Y-239*
X1795Y-234*
X1803Y-227*
X1808Y-218*
X1811Y-208*
Y-197*
X1808Y-187*
X1803Y-178*
X1795Y-171*
X1786Y-166*
X1776Y-163*
G37*
G36*
X1462Y34D02*
X1299D01*
X1135*
Y28*
X1138Y7*
X1144Y-13*
X1152Y-33*
X1162Y-51*
X1175Y-68*
X1191Y-83*
X1208Y-96*
X1226Y-107*
X1245Y-115*
X1246Y-118*
X1245Y-120*
X1226Y-128*
X1208Y-139*
X1191Y-152*
X1175Y-167*
X1162Y-184*
X1152Y-203*
X1144Y-222*
X1138Y-243*
X1135Y-264*
Y-270*
X1299*
X1462*
Y-264*
X1459Y-243*
X1454Y-222*
X1446Y-203*
X1435Y-184*
X1422Y-167*
X1407Y-152*
X1390Y-139*
X1371Y-128*
X1352Y-120*
X1352Y-118*
X1352Y-115*
X1371Y-107*
X1390Y-96*
X1407Y-83*
X1422Y-68*
X1435Y-51*
X1446Y-33*
X1454Y-13*
X1459Y7*
X1462Y28*
Y34*
G37*
G36*
X-741D02*
X-905D01*
X-1069*
Y28*
X-1066Y7*
X-1060Y-13*
X-1052Y-33*
X-1041Y-51*
X-1028Y-68*
X-1013Y-83*
X-996Y-96*
X-978Y-107*
X-959Y-115*
X-958Y-118*
X-959Y-120*
X-978Y-128*
X-996Y-139*
X-1013Y-152*
X-1028Y-167*
X-1041Y-184*
X-1052Y-203*
X-1060Y-222*
X-1066Y-243*
X-1069Y-264*
Y-270*
X-905*
X-741*
Y-264*
X-744Y-243*
X-750Y-222*
X-758Y-203*
X-769Y-184*
X-782Y-167*
X-797Y-152*
X-814Y-139*
X-833Y-128*
X-851Y-120*
X-852Y-118*
X-851Y-115*
X-833Y-107*
X-814Y-96*
X-797Y-83*
X-782Y-68*
X-769Y-51*
X-758Y-33*
X-750Y-13*
X-744Y7*
X-741Y28*
Y34*
G37*
G36*
X-284Y-248D02*
X-290D01*
X-296Y-250*
X-300Y-254*
X-303Y-260*
Y-266*
X-300Y-272*
X-296Y-277*
X-290Y-279*
X-284*
X-278Y-277*
X-274Y-272*
X-271Y-266*
Y-260*
X-274Y-254*
X-278Y-250*
X-284Y-248*
G37*
G36*
X-390Y-267D02*
X-396D01*
X-402Y-270*
X-407Y-274*
X-409Y-280*
Y-286*
X-407Y-292*
X-402Y-296*
X-396Y-299*
X-390*
X-384Y-296*
X-380Y-292*
X-377Y-286*
Y-280*
X-380Y-274*
X-384Y-270*
X-390Y-267*
G37*
G36*
X587Y-305D02*
Y-325D01*
X607*
X606Y-320*
X603Y-314*
X598Y-310*
X592Y-306*
X587Y-305*
G37*
G36*
X577D02*
X572Y-306D01*
X566Y-310*
X562Y-314*
X558Y-320*
X557Y-325*
X577*
Y-305*
G37*
G36*
X1876Y-263D02*
X1866D01*
X1856Y-266*
X1847Y-271*
X1840Y-278*
X1834Y-287*
X1832Y-297*
Y-308*
X1834Y-318*
X1840Y-327*
X1847Y-334*
X1856Y-339*
X1866Y-342*
X1876*
X1886Y-339*
X1895Y-334*
X1903Y-327*
X1908Y-318*
X1911Y-308*
Y-297*
X1908Y-287*
X1903Y-278*
X1895Y-271*
X1886Y-266*
X1876Y-263*
G37*
G36*
X1776D02*
X1766D01*
X1756Y-266*
X1747Y-271*
X1740Y-278*
X1734Y-287*
X1732Y-297*
Y-308*
X1734Y-318*
X1740Y-327*
X1747Y-334*
X1756Y-339*
X1766Y-342*
X1776*
X1786Y-339*
X1795Y-334*
X1803Y-327*
X1808Y-318*
X1811Y-308*
Y-297*
X1808Y-287*
X1803Y-278*
X1795Y-271*
X1786Y-266*
X1776Y-263*
G37*
G36*
X607Y-335D02*
X587D01*
Y-356*
X592Y-354*
X598Y-351*
X603Y-346*
X606Y-340*
X607Y-335*
G37*
G36*
X577D02*
X557D01*
X558Y-340*
X562Y-346*
X566Y-351*
X572Y-354*
X577Y-356*
Y-335*
G37*
G36*
X451Y-330D02*
X445D01*
X439Y-333*
X435Y-337*
X433Y-343*
Y-349*
X435Y-355*
X439Y-359*
X445Y-362*
X451*
X457Y-359*
X462Y-355*
X464Y-349*
Y-343*
X462Y-337*
X457Y-333*
X451Y-330*
G37*
G36*
X161Y-383D02*
X153D01*
X145Y-386*
X138Y-393*
X135Y-401*
Y-409*
X138Y-417*
X145Y-424*
X153Y-427*
X161*
X169Y-424*
X176Y-417*
X179Y-409*
Y-401*
X176Y-393*
X169Y-386*
X161Y-383*
G37*
G36*
X1876Y-363D02*
X1866D01*
X1856Y-366*
X1847Y-371*
X1840Y-378*
X1834Y-387*
X1832Y-397*
Y-408*
X1834Y-418*
X1840Y-427*
X1847Y-434*
X1856Y-439*
X1866Y-442*
X1876*
X1886Y-439*
X1895Y-434*
X1903Y-427*
X1908Y-418*
X1911Y-408*
Y-397*
X1908Y-387*
X1903Y-378*
X1895Y-371*
X1886Y-366*
X1876Y-363*
G37*
G36*
X1776D02*
X1766D01*
X1756Y-366*
X1747Y-371*
X1740Y-378*
X1734Y-387*
X1732Y-397*
Y-408*
X1734Y-418*
X1740Y-427*
X1747Y-434*
X1756Y-439*
X1766Y-442*
X1776*
X1786Y-439*
X1795Y-434*
X1803Y-427*
X1808Y-418*
X1811Y-408*
Y-397*
X1808Y-387*
X1803Y-378*
X1795Y-371*
X1786Y-366*
X1776Y-363*
G37*
G36*
X172Y-437D02*
Y-467D01*
X202*
X199Y-458*
X195Y-450*
X188Y-444*
X180Y-439*
X172Y-437*
G37*
G36*
X162D02*
X153Y-439D01*
X145Y-444*
X139Y-450*
X134Y-458*
X132Y-467*
X162*
Y-437*
G37*
G36*
X508Y-461D02*
Y-491D01*
X538*
X536Y-482*
X531Y-474*
X525Y-468*
X517Y-463*
X508Y-461*
G37*
G36*
X498D02*
X490Y-463D01*
X482Y-468*
X475Y-474*
X471Y-482*
X469Y-491*
X498*
Y-461*
G37*
G36*
X630Y-472D02*
Y-502D01*
X660*
X658Y-494*
X653Y-486*
X647Y-479*
X639Y-475*
X630Y-472*
G37*
G36*
X620D02*
X612Y-475D01*
X604Y-479*
X597Y-486*
X593Y-494*
X591Y-502*
X620*
Y-472*
G37*
G36*
X202Y-477D02*
X172D01*
Y-507*
X180Y-505*
X188Y-500*
X195Y-493*
X199Y-485*
X202Y-477*
G37*
G36*
X162D02*
X132D01*
X134Y-485*
X139Y-493*
X145Y-500*
X153Y-505*
X162Y-507*
Y-477*
G37*
G36*
X538Y-501D02*
X508D01*
Y-530*
X517Y-528*
X525Y-524*
X531Y-517*
X536Y-509*
X538Y-501*
G37*
G36*
X498D02*
X469D01*
X471Y-509*
X475Y-517*
X482Y-524*
X490Y-528*
X498Y-530*
Y-501*
G37*
G36*
X660Y-512D02*
X630D01*
Y-542*
X639Y-540*
X647Y-535*
X653Y-529*
X658Y-521*
X660Y-512*
G37*
G36*
X620D02*
X591D01*
X593Y-521*
X597Y-529*
X604Y-535*
X612Y-540*
X620Y-542*
Y-512*
G37*
G36*
X335Y-561D02*
Y-581D01*
X356*
X354Y-576*
X351Y-570*
X346Y-566*
X340Y-562*
X335Y-561*
G37*
G36*
X325D02*
X320Y-562D01*
X314Y-566*
X310Y-570*
X306Y-576*
X305Y-581*
X325*
Y-561*
G37*
G36*
X1462Y-280D02*
X1299D01*
X1135*
Y-286*
X1138Y-307*
X1144Y-328*
X1152Y-348*
X1162Y-366*
X1175Y-383*
X1191Y-398*
X1208Y-411*
X1226Y-422*
X1245Y-430*
X1246Y-433*
X1245Y-435*
X1226Y-443*
X1208Y-454*
X1191Y-467*
X1175Y-482*
X1162Y-499*
X1152Y-518*
X1144Y-537*
X1138Y-558*
X1135Y-579*
Y-585*
X1299*
X1462*
Y-579*
X1459Y-558*
X1454Y-537*
X1446Y-518*
X1435Y-499*
X1422Y-482*
X1407Y-467*
X1390Y-454*
X1371Y-443*
X1352Y-435*
X1352Y-433*
X1352Y-430*
X1371Y-422*
X1390Y-411*
X1407Y-398*
X1422Y-383*
X1435Y-366*
X1446Y-348*
X1454Y-328*
X1459Y-307*
X1462Y-286*
Y-280*
G37*
G36*
X-741D02*
X-905D01*
X-1069*
Y-286*
X-1066Y-307*
X-1060Y-328*
X-1052Y-348*
X-1041Y-366*
X-1028Y-383*
X-1013Y-398*
X-996Y-411*
X-978Y-422*
X-959Y-430*
X-958Y-433*
X-959Y-435*
X-978Y-443*
X-996Y-454*
X-1013Y-467*
X-1028Y-482*
X-1041Y-499*
X-1052Y-518*
X-1060Y-537*
X-1066Y-558*
X-1069Y-579*
Y-585*
X-905*
X-741*
Y-579*
X-744Y-558*
X-750Y-537*
X-758Y-518*
X-769Y-499*
X-782Y-482*
X-797Y-467*
X-814Y-454*
X-833Y-443*
X-851Y-435*
X-852Y-433*
X-851Y-430*
X-833Y-422*
X-814Y-411*
X-797Y-398*
X-782Y-383*
X-769Y-366*
X-758Y-348*
X-750Y-328*
X-744Y-307*
X-741Y-286*
Y-280*
G37*
G36*
X356Y-591D02*
X335D01*
Y-611*
X340Y-610*
X346Y-607*
X351Y-602*
X354Y-596*
X356Y-591*
G37*
G36*
X325D02*
X305D01*
X306Y-596*
X310Y-602*
X314Y-607*
X320Y-610*
X325Y-611*
Y-591*
G37*
G36*
X495Y-586D02*
X488D01*
X483Y-589*
X478Y-593*
X476Y-599*
Y-605*
X478Y-611*
X483Y-615*
X488Y-618*
X495*
X501Y-615*
X505Y-611*
X507Y-605*
Y-599*
X505Y-593*
X501Y-589*
X495Y-586*
G37*
G36*
X272Y-594D02*
X263D01*
X254Y-598*
X247Y-604*
X244Y-613*
Y-622*
X247Y-631*
X254Y-638*
X263Y-641*
X272*
X281Y-638*
X287Y-631*
X291Y-622*
Y-613*
X287Y-604*
X281Y-598*
X272Y-594*
G37*
G36*
X638Y-608D02*
X629D01*
X621Y-611*
X615Y-617*
X611Y-625*
Y-634*
X615Y-642*
X621Y-648*
X629Y-651*
X638*
X646Y-648*
X652Y-642*
X655Y-634*
Y-625*
X652Y-617*
X646Y-611*
X638Y-608*
G37*
G36*
X-502Y-630D02*
Y-660D01*
X-472*
X-475Y-651*
X-479Y-643*
X-486Y-637*
X-494Y-632*
X-502Y-630*
G37*
G36*
X-512D02*
X-521Y-632D01*
X-529Y-637*
X-535Y-643*
X-540Y-651*
X-542Y-660*
X-512*
Y-630*
G37*
G36*
X526Y-663D02*
Y-683D01*
X546*
X545Y-679*
X542Y-673*
X537Y-668*
X531Y-664*
X526Y-663*
G37*
G36*
X516D02*
X511Y-664D01*
X505Y-668*
X501Y-673*
X497Y-679*
X496Y-683*
X516*
Y-663*
G37*
G36*
X-472Y-670D02*
X-502D01*
Y-700*
X-494Y-697*
X-486Y-693*
X-479Y-686*
X-475Y-678*
X-472Y-670*
G37*
G36*
X-512D02*
X-542D01*
X-540Y-678*
X-535Y-686*
X-529Y-693*
X-521Y-697*
X-512Y-700*
Y-670*
G37*
G36*
X264Y-661D02*
X255D01*
X246Y-665*
X239Y-671*
X236Y-680*
Y-689*
X239Y-698*
X246Y-705*
X255Y-708*
X264*
X273Y-705*
X279Y-698*
X283Y-689*
Y-680*
X279Y-671*
X273Y-665*
X264Y-661*
G37*
G36*
X546Y-693D02*
X526D01*
Y-714*
X531Y-712*
X537Y-709*
X542Y-704*
X545Y-698*
X546Y-693*
G37*
G36*
X516D02*
X496D01*
X497Y-698*
X501Y-704*
X505Y-709*
X511Y-712*
X516Y-714*
Y-693*
G37*
G36*
X-741Y-595D02*
X-900D01*
Y-754*
X-894*
X-873Y-751*
X-852Y-745*
X-833Y-737*
X-814Y-726*
X-797Y-713*
X-782Y-698*
X-769Y-681*
X-758Y-663*
X-750Y-643*
X-744Y-622*
X-741Y-601*
Y-595*
G37*
G36*
X-910D02*
X-1069D01*
Y-601*
X-1066Y-622*
X-1060Y-643*
X-1052Y-663*
X-1041Y-681*
X-1028Y-698*
X-1013Y-713*
X-996Y-726*
X-978Y-737*
X-958Y-745*
X-937Y-751*
X-916Y-754*
X-910*
Y-595*
G37*
G36*
X-258Y-831D02*
Y-861D01*
X-228*
X-231Y-852*
X-235Y-844*
X-242Y-838*
X-250Y-833*
X-258Y-831*
G37*
G36*
X-268D02*
X-277Y-833D01*
X-285Y-838*
X-291Y-844*
X-296Y-852*
X-298Y-861*
X-268*
Y-831*
G37*
G36*
X-668Y-844D02*
X-677D01*
X-685Y-847*
X-691Y-853*
X-695Y-861*
Y-870*
X-691Y-878*
X-685Y-884*
X-677Y-888*
X-668*
X-660Y-884*
X-654Y-878*
X-651Y-870*
Y-861*
X-654Y-853*
X-660Y-847*
X-668Y-844*
G37*
G36*
X1462Y-595D02*
X1299D01*
X1135*
Y-601*
X1138Y-622*
X1144Y-643*
X1152Y-663*
X1162Y-681*
X1175Y-698*
X1191Y-713*
X1208Y-726*
X1226Y-737*
X1245Y-745*
X1246Y-748*
X1245Y-750*
X1226Y-758*
X1208Y-769*
X1191Y-782*
X1175Y-797*
X1162Y-814*
X1152Y-833*
X1144Y-852*
X1138Y-873*
X1135Y-894*
Y-900*
X1299*
X1462*
Y-894*
X1459Y-873*
X1454Y-852*
X1446Y-833*
X1435Y-814*
X1422Y-797*
X1407Y-782*
X1390Y-769*
X1371Y-758*
X1352Y-750*
X1352Y-748*
X1352Y-745*
X1371Y-737*
X1390Y-726*
X1407Y-713*
X1422Y-698*
X1435Y-681*
X1446Y-663*
X1454Y-643*
X1459Y-622*
X1462Y-601*
Y-595*
G37*
G36*
X-228Y-871D02*
X-258D01*
Y-901*
X-250Y-898*
X-242Y-894*
X-235Y-887*
X-231Y-879*
X-228Y-871*
G37*
G36*
X-268D02*
X-298D01*
X-296Y-879*
X-291Y-887*
X-285Y-894*
X-277Y-898*
X-268Y-901*
Y-871*
G37*
G36*
X2047Y-933D02*
X1968D01*
Y-1012*
X2047*
Y-933*
G37*
G36*
X2013Y-1033D02*
X2002D01*
X1992Y-1036*
X1983Y-1041*
X1976Y-1048*
X1971Y-1057*
X1968Y-1067*
Y-1078*
X1971Y-1088*
X1976Y-1097*
X1983Y-1104*
X1992Y-1109*
X2002Y-1112*
X2013*
X2023Y-1109*
X2032Y-1104*
X2039Y-1097*
X2044Y-1088*
X2047Y-1078*
Y-1067*
X2044Y-1057*
X2039Y-1048*
X2032Y-1041*
X2023Y-1036*
X2013Y-1033*
G37*
G36*
X-1322Y-1104D02*
X-1331D01*
X-1339Y-1107*
X-1345Y-1113*
X-1348Y-1121*
Y-1130*
X-1345Y-1138*
X-1339Y-1144*
X-1331Y-1147*
X-1322*
X-1314Y-1144*
X-1308Y-1138*
X-1304Y-1130*
Y-1121*
X-1308Y-1113*
X-1314Y-1107*
X-1322Y-1104*
G37*
G36*
X-1443Y-1143D02*
Y-1164D01*
X-1423*
X-1424Y-1159*
X-1428Y-1153*
X-1433Y-1148*
X-1438Y-1145*
X-1443Y-1143*
G37*
G36*
X-1453D02*
X-1458Y-1145D01*
X-1464Y-1148*
X-1469Y-1153*
X-1472Y-1159*
X-1474Y-1164*
X-1453*
Y-1143*
G37*
G36*
X1462Y-910D02*
X1299D01*
X1135*
Y-916*
X1138Y-937*
X1144Y-958*
X1152Y-978*
X1162Y-996*
X1175Y-1013*
X1191Y-1028*
X1208Y-1041*
X1226Y-1052*
X1245Y-1060*
X1246Y-1062*
X1245Y-1065*
X1226Y-1073*
X1208Y-1084*
X1191Y-1097*
X1175Y-1112*
X1162Y-1129*
X1152Y-1147*
X1144Y-1166*
X1141Y-1167*
X1139Y-1166*
X1131Y-1147*
X1120Y-1129*
X1107Y-1112*
X1092Y-1097*
X1075Y-1084*
X1056Y-1073*
X1036Y-1065*
X1016Y-1059*
X994Y-1056*
X989*
Y-1220*
Y-1384*
X994*
X1016Y-1381*
X1036Y-1375*
X1056Y-1367*
X1075Y-1356*
X1092Y-1343*
X1107Y-1328*
X1120Y-1311*
X1131Y-1292*
X1139Y-1274*
X1141Y-1273*
X1144Y-1274*
X1152Y-1292*
X1162Y-1311*
X1175Y-1328*
X1191Y-1343*
X1208Y-1356*
X1226Y-1367*
X1246Y-1375*
X1267Y-1381*
X1288Y-1384*
X1294*
Y-1220*
X1299*
Y-1215*
X1462*
Y-1209*
X1459Y-1188*
X1454Y-1167*
X1446Y-1147*
X1435Y-1129*
X1422Y-1112*
X1407Y-1097*
X1390Y-1084*
X1371Y-1073*
X1352Y-1065*
X1352Y-1062*
X1352Y-1060*
X1371Y-1052*
X1390Y-1041*
X1407Y-1028*
X1422Y-1013*
X1435Y-996*
X1446Y-978*
X1454Y-958*
X1459Y-937*
X1462Y-916*
Y-910*
G37*
G36*
X664Y-1056D02*
X658D01*
X637Y-1059*
X616Y-1065*
X596Y-1073*
X578Y-1084*
X561Y-1097*
X546Y-1112*
X533Y-1129*
X522Y-1147*
X514Y-1166*
X511Y-1167*
X509Y-1166*
X501Y-1147*
X490Y-1129*
X477Y-1112*
X462Y-1097*
X445Y-1084*
X426Y-1073*
X407Y-1065*
X386Y-1059*
X365Y-1056*
X359*
Y-1220*
Y-1384*
X365*
X386Y-1381*
X407Y-1375*
X426Y-1367*
X445Y-1356*
X462Y-1343*
X477Y-1328*
X490Y-1311*
X501Y-1292*
X509Y-1274*
X511Y-1273*
X514Y-1274*
X522Y-1292*
X533Y-1311*
X546Y-1328*
X561Y-1343*
X578Y-1356*
X596Y-1367*
X616Y-1375*
X637Y-1381*
X658Y-1384*
X664*
Y-1220*
Y-1056*
G37*
G36*
X349D02*
X343D01*
X322Y-1059*
X301Y-1065*
X281Y-1073*
X263Y-1084*
X246Y-1097*
X231Y-1112*
X218Y-1129*
X207Y-1147*
X199Y-1166*
X196Y-1167*
X194Y-1166*
X186Y-1147*
X175Y-1129*
X162Y-1112*
X147Y-1097*
X130Y-1084*
X111Y-1073*
X92Y-1065*
X71Y-1059*
X50Y-1056*
X44*
Y-1220*
Y-1384*
X50*
X71Y-1381*
X92Y-1375*
X111Y-1367*
X130Y-1356*
X147Y-1343*
X162Y-1328*
X175Y-1311*
X186Y-1292*
X194Y-1274*
X196Y-1273*
X199Y-1274*
X207Y-1292*
X218Y-1311*
X231Y-1328*
X246Y-1343*
X263Y-1356*
X281Y-1367*
X301Y-1375*
X322Y-1381*
X343Y-1384*
X349*
Y-1220*
Y-1056*
G37*
G36*
X34D02*
X28D01*
X7Y-1059*
X-13Y-1065*
X-33Y-1073*
X-51Y-1084*
X-68Y-1097*
X-83Y-1112*
X-96Y-1129*
X-107Y-1147*
X-115Y-1166*
X-118Y-1167*
X-120Y-1166*
X-128Y-1147*
X-139Y-1129*
X-152Y-1112*
X-167Y-1097*
X-184Y-1084*
X-203Y-1073*
X-222Y-1065*
X-243Y-1059*
X-264Y-1056*
X-270*
Y-1220*
Y-1384*
X-264*
X-243Y-1381*
X-222Y-1375*
X-203Y-1367*
X-184Y-1356*
X-167Y-1343*
X-152Y-1328*
X-139Y-1311*
X-128Y-1292*
X-120Y-1274*
X-118Y-1273*
X-115Y-1274*
X-107Y-1292*
X-96Y-1311*
X-83Y-1328*
X-68Y-1343*
X-51Y-1356*
X-33Y-1367*
X-13Y-1375*
X7Y-1381*
X28Y-1384*
X34*
Y-1220*
Y-1056*
G37*
G36*
X-595D02*
X-601D01*
X-622Y-1059*
X-643Y-1065*
X-663Y-1073*
X-681Y-1084*
X-698Y-1097*
X-713Y-1112*
X-726Y-1129*
X-737Y-1147*
X-745Y-1166*
X-748Y-1167*
X-750Y-1166*
X-758Y-1147*
X-769Y-1129*
X-782Y-1112*
X-797Y-1097*
X-814Y-1084*
X-833Y-1073*
X-852Y-1065*
X-873Y-1059*
X-894Y-1056*
X-900*
Y-1220*
Y-1384*
X-894*
X-873Y-1381*
X-852Y-1375*
X-833Y-1367*
X-814Y-1356*
X-797Y-1343*
X-782Y-1328*
X-769Y-1311*
X-758Y-1292*
X-750Y-1274*
X-748Y-1273*
X-745Y-1274*
X-737Y-1292*
X-726Y-1311*
X-713Y-1328*
X-698Y-1343*
X-681Y-1356*
X-663Y-1367*
X-643Y-1375*
X-622Y-1381*
X-601Y-1384*
X-595*
Y-1220*
Y-1056*
G37*
G36*
X979D02*
X973D01*
X952Y-1059*
X931Y-1065*
X911Y-1073*
X893Y-1084*
X876Y-1097*
X861Y-1112*
X847Y-1129*
X837Y-1147*
X829Y-1166*
X826Y-1167*
X824Y-1166*
X816Y-1147*
X805Y-1129*
X792Y-1112*
X777Y-1097*
X760Y-1084*
X741Y-1073*
X721Y-1065*
X701Y-1059*
X680Y-1056*
X674*
Y-1220*
Y-1384*
X680*
X701Y-1381*
X721Y-1375*
X741Y-1367*
X760Y-1356*
X777Y-1343*
X792Y-1328*
X805Y-1311*
X816Y-1292*
X824Y-1274*
X826Y-1273*
X829Y-1274*
X837Y-1292*
X847Y-1311*
X861Y-1328*
X876Y-1343*
X893Y-1356*
X911Y-1367*
X931Y-1375*
X952Y-1381*
X973Y-1384*
X979*
Y-1220*
Y-1056*
G37*
G36*
X-280D02*
X-286D01*
X-307Y-1059*
X-328Y-1065*
X-348Y-1073*
X-366Y-1084*
X-383Y-1097*
X-398Y-1112*
X-411Y-1129*
X-422Y-1147*
X-430Y-1166*
X-433Y-1167*
X-435Y-1166*
X-443Y-1147*
X-454Y-1129*
X-467Y-1112*
X-482Y-1097*
X-499Y-1084*
X-518Y-1073*
X-537Y-1065*
X-558Y-1059*
X-579Y-1056*
X-585*
Y-1220*
Y-1384*
X-579*
X-558Y-1381*
X-537Y-1375*
X-518Y-1367*
X-499Y-1356*
X-482Y-1343*
X-467Y-1328*
X-454Y-1311*
X-443Y-1292*
X-435Y-1274*
X-433Y-1273*
X-430Y-1274*
X-422Y-1292*
X-411Y-1311*
X-398Y-1328*
X-383Y-1343*
X-366Y-1356*
X-348Y-1367*
X-328Y-1375*
X-307Y-1381*
X-286Y-1384*
X-280*
Y-1220*
Y-1056*
G37*
G36*
X2013Y-1131D02*
X2012D01*
Y-1167*
X2049*
Y-1167*
X2046Y-1156*
X2041Y-1147*
X2033Y-1139*
X2023Y-1134*
X2013Y-1131*
G37*
G36*
X2002D02*
X2002D01*
X1991Y-1134*
X1982Y-1139*
X1974Y-1147*
X1969Y-1156*
X1966Y-1167*
Y-1167*
X2002*
Y-1131*
G37*
G36*
X-1423Y-1174D02*
X-1443D01*
Y-1194*
X-1438Y-1193*
X-1433Y-1189*
X-1428Y-1185*
X-1424Y-1179*
X-1423Y-1174*
G37*
G36*
X-1453D02*
X-1474D01*
X-1472Y-1179*
X-1469Y-1185*
X-1464Y-1189*
X-1458Y-1193*
X-1453Y-1194*
Y-1174*
G37*
G36*
X2049Y-1177D02*
X2012D01*
Y-1214*
X2013*
X2023Y-1211*
X2033Y-1206*
X2041Y-1198*
X2046Y-1188*
X2049Y-1178*
Y-1177*
G37*
G36*
X2002D02*
X1966D01*
Y-1178*
X1969Y-1188*
X1974Y-1198*
X1982Y-1206*
X1991Y-1211*
X2002Y-1214*
X2002*
Y-1177*
G37*
G36*
X-910Y-1056D02*
X-916D01*
X-937Y-1059*
X-958Y-1065*
X-978Y-1073*
X-996Y-1084*
X-1013Y-1097*
X-1028Y-1112*
X-1041Y-1129*
X-1052Y-1147*
X-1060Y-1167*
X-1066Y-1188*
X-1069Y-1209*
Y-1215*
X-910*
Y-1056*
G37*
G36*
X2013Y-1231D02*
X2012D01*
Y-1267*
X2049*
Y-1267*
X2046Y-1256*
X2041Y-1247*
X2033Y-1239*
X2023Y-1234*
X2013Y-1231*
G37*
G36*
X2002D02*
X2002D01*
X1991Y-1234*
X1982Y-1239*
X1974Y-1247*
X1969Y-1256*
X1966Y-1267*
Y-1267*
X2002*
Y-1231*
G37*
G36*
X2049Y-1277D02*
X2012D01*
Y-1314*
X2013*
X2023Y-1311*
X2033Y-1306*
X2041Y-1298*
X2046Y-1288*
X2049Y-1278*
Y-1277*
G37*
G36*
X2002D02*
X1966D01*
Y-1278*
X1969Y-1288*
X1974Y-1298*
X1982Y-1306*
X1991Y-1311*
X2002Y-1314*
X2002*
Y-1277*
G37*
G36*
X1462Y-1225D02*
X1304D01*
Y-1384*
X1309*
X1331Y-1381*
X1351Y-1375*
X1371Y-1367*
X1390Y-1356*
X1407Y-1343*
X1422Y-1328*
X1435Y-1311*
X1446Y-1292*
X1454Y-1273*
X1459Y-1252*
X1462Y-1231*
Y-1225*
G37*
G36*
X-910D02*
X-1069D01*
Y-1231*
X-1066Y-1252*
X-1060Y-1273*
X-1052Y-1292*
X-1041Y-1311*
X-1028Y-1328*
X-1013Y-1343*
X-996Y-1356*
X-978Y-1367*
X-958Y-1375*
X-937Y-1381*
X-916Y-1384*
X-910*
Y-1225*
G37*
G36*
X1878Y-1367D02*
X1875D01*
Y-1471*
X1978*
Y-1467*
X1975Y-1450*
X1970Y-1434*
X1962Y-1419*
X1952Y-1405*
X1940Y-1393*
X1926Y-1383*
X1911Y-1375*
X1895Y-1370*
X1878Y-1367*
G37*
G36*
X1865D02*
X1861D01*
X1844Y-1370*
X1828Y-1375*
X1813Y-1383*
X1799Y-1393*
X1787Y-1405*
X1777Y-1419*
X1769Y-1434*
X1764Y-1450*
X1761Y-1467*
Y-1471*
X1865*
Y-1367*
G37*
G36*
X-1467D02*
X-1471D01*
Y-1471*
X-1367*
Y-1467*
X-1370Y-1450*
X-1375Y-1434*
X-1383Y-1419*
X-1393Y-1405*
X-1405Y-1393*
X-1419Y-1383*
X-1434Y-1375*
X-1450Y-1370*
X-1467Y-1367*
G37*
G36*
X-1481D02*
X-1484D01*
X-1501Y-1370*
X-1518Y-1375*
X-1533Y-1383*
X-1547Y-1393*
X-1559Y-1405*
X-1569Y-1419*
X-1576Y-1434*
X-1582Y-1450*
X-1584Y-1467*
Y-1471*
X-1481*
Y-1367*
G37*
G36*
X1978Y-1481D02*
X1875D01*
Y-1584*
X1878*
X1895Y-1582*
X1911Y-1576*
X1926Y-1569*
X1940Y-1559*
X1952Y-1547*
X1962Y-1533*
X1970Y-1518*
X1975Y-1501*
X1978Y-1484*
Y-1481*
G37*
G36*
X1865D02*
X1761D01*
Y-1484*
X1764Y-1501*
X1769Y-1518*
X1777Y-1533*
X1787Y-1547*
X1799Y-1559*
X1813Y-1569*
X1828Y-1576*
X1844Y-1582*
X1861Y-1584*
X1865*
Y-1481*
G37*
G36*
X-1367D02*
X-1471D01*
Y-1584*
X-1467*
X-1450Y-1582*
X-1434Y-1576*
X-1419Y-1569*
X-1405Y-1559*
X-1393Y-1547*
X-1383Y-1533*
X-1375Y-1518*
X-1370Y-1501*
X-1367Y-1484*
Y-1481*
G37*
G36*
X-1481D02*
X-1584D01*
Y-1484*
X-1582Y-1501*
X-1576Y-1518*
X-1569Y-1533*
X-1559Y-1547*
X-1547Y-1559*
X-1533Y-1569*
X-1518Y-1576*
X-1501Y-1582*
X-1484Y-1584*
X-1481*
Y-1481*
G37*
G36*
X2017Y-1596D02*
X2016D01*
Y-1632*
X2053*
Y-1632*
X2050Y-1621*
X2045Y-1612*
X2037Y-1604*
X2027Y-1599*
X2017Y-1596*
G37*
G36*
X1917D02*
X1916D01*
Y-1632*
X1953*
Y-1632*
X1950Y-1621*
X1945Y-1612*
X1937Y-1604*
X1927Y-1599*
X1917Y-1596*
G37*
G36*
X2006D02*
X2006D01*
X1995Y-1599*
X1986Y-1604*
X1978Y-1612*
X1973Y-1621*
X1970Y-1632*
Y-1632*
X2006*
Y-1596*
G37*
G36*
X1906D02*
X1906D01*
X1895Y-1599*
X1886Y-1604*
X1878Y-1612*
X1873Y-1621*
X1870Y-1632*
Y-1632*
X1906*
Y-1596*
G37*
G36*
X1816Y-1598D02*
X1806D01*
X1796Y-1601*
X1787Y-1606*
X1780Y-1613*
X1775Y-1622*
X1772Y-1632*
Y-1642*
X1775Y-1652*
X1780Y-1661*
X1787Y-1669*
X1796Y-1674*
X1806Y-1677*
X1816*
X1827Y-1674*
X1835Y-1669*
X1843Y-1661*
X1848Y-1652*
X1851Y-1642*
Y-1632*
X1848Y-1622*
X1843Y-1613*
X1835Y-1606*
X1827Y-1601*
X1816Y-1598*
G37*
G36*
X1751D02*
X1672D01*
Y-1677*
X1751*
Y-1598*
G37*
G36*
X2053Y-1642D02*
X2016D01*
Y-1679*
X2017*
X2027Y-1676*
X2037Y-1671*
X2045Y-1663*
X2050Y-1653*
X2053Y-1643*
Y-1642*
G37*
G36*
X2006D02*
X1970D01*
Y-1643*
X1973Y-1653*
X1978Y-1663*
X1986Y-1671*
X1995Y-1676*
X2006Y-1679*
X2006*
Y-1642*
G37*
G36*
X1953D02*
X1916D01*
Y-1679*
X1917*
X1927Y-1676*
X1937Y-1671*
X1945Y-1663*
X1950Y-1653*
X1953Y-1643*
Y-1642*
G37*
G36*
X1906D02*
X1870D01*
Y-1643*
X1873Y-1653*
X1878Y-1663*
X1886Y-1671*
X1895Y-1676*
X1906Y-1679*
X1906*
Y-1642*
G37*
%LNhumrigid1_copper_signal_2-3*%
%LPD*%
G54D45*
X2011Y-1637D03*
X1911D03*
X1811D03*
X2007Y-1272D03*
Y-1172D03*
Y-1072D03*
X1871Y597D03*
X1771Y-302D03*
X1871Y697D03*
X1771Y-402D03*
X1871D03*
Y-302D03*
Y-202D03*
Y-102D03*
Y-2D03*
Y97D03*
Y197D03*
Y297D03*
Y397D03*
Y497D03*
X1771Y-202D03*
Y-102D03*
Y-2D03*
Y97D03*
Y197D03*
Y297D03*
Y397D03*
Y497D03*
Y597D03*
Y697D03*
Y797D03*
X1871D03*
Y897D03*
G54D46*
X1711Y-1637D03*
G54D47*
X1870Y1870D03*
X-1476D03*
Y-1476D03*
X1870D03*
G54D48*
X-9Y187D03*
G54D49*
X-9Y88D03*
G54D50*
X1299Y669D03*
Y354D03*
Y39D03*
Y-275D03*
Y-590D03*
Y-905D03*
Y-1220D03*
X-905Y669D03*
Y984D03*
Y-275D03*
Y39D03*
Y354D03*
Y1299D03*
X1299Y1614D03*
X-275D03*
X-590D03*
X669D03*
X984D03*
X354D03*
X39D03*
X-905D03*
X-275Y-1220D03*
X-590D03*
X669D03*
X984D03*
X354D03*
X39D03*
X-905D03*
Y-590D03*
X1299Y984D03*
G54D51*
X2007Y-972D03*
X1771Y897D03*
G54D52*
X284Y177D03*
X334Y127D03*
G54D53*
X234Y127D03*
G54D54*
X330Y-586D03*
X267Y-618D03*
X259Y-685D03*
X1885Y1559D03*
X582Y-330D03*
X-343Y-5D03*
X-724Y177D03*
X-618Y-27D03*
X303Y314D03*
X535Y456D03*
X240Y417D03*
X43Y411D03*
X125Y543D03*
X-1448Y-1169D03*
X521Y-688D03*
X-293Y-208D03*
G54D55*
X196Y-787D03*
X-1574Y-1181D03*
X-1181Y-1377D03*
X1574Y-295D03*
Y-590D03*
X1968Y196D03*
X1771Y984D03*
Y1181D03*
Y1377D03*
X1574Y1574D03*
X1968Y-787D03*
X1771Y-984D03*
Y-1181D03*
X1968Y-1574D03*
Y-1377D03*
X1771D03*
Y-1574D03*
X1574Y-1673D03*
X1377D03*
X1181D03*
X984D03*
X787D03*
X590D03*
X393D03*
X196D03*
X0D03*
X-196D03*
X-393D03*
X-590D03*
X-787D03*
X-984D03*
X-1181D03*
X-1377Y-1574D03*
X-1585Y-1568D03*
X-1574Y-1377D03*
X1377Y1771D03*
X1574D03*
X1968D03*
Y1968D03*
X1771D03*
X1574D03*
X1377D03*
X1181D03*
X984D03*
X787D03*
X590D03*
X196D03*
X393D03*
X0D03*
X-196D03*
X-393D03*
X-590D03*
X-787D03*
X-984D03*
X-1377D03*
X-1181D03*
X590Y1377D03*
Y1181D03*
X393D03*
Y1377D03*
X-196Y1387D03*
X-590Y1377D03*
X-591Y967D03*
X-393Y984D03*
X-196D03*
X0D03*
X-196Y787D03*
X-393Y590D03*
Y787D03*
X-590D03*
Y590D03*
Y393D03*
X-587Y-177D03*
X-196Y-393D03*
Y-196D03*
Y393D03*
X0D03*
Y0D03*
X196D03*
Y196D03*
X393D03*
X396Y-7D03*
X590Y-196D03*
Y0D03*
Y196D03*
Y393D03*
Y590D03*
X787Y787D03*
Y590D03*
Y393D03*
Y196D03*
Y0D03*
Y-196D03*
X984Y-787D03*
Y-984D03*
X787D03*
X590D03*
X393D03*
X196D03*
X0Y-590D03*
Y-787D03*
Y-984D03*
X-196D03*
Y-787D03*
Y-590D03*
X-393D03*
Y-393D03*
X-590D03*
Y-590D03*
X-787Y-787D03*
X-984D03*
X-590Y-984D03*
X-787D03*
X-984D03*
X-1181D03*
X-1377D03*
X-1574D03*
Y-787D03*
X-1377D03*
X-1181D03*
Y-590D03*
X-1377D03*
X-1574D03*
Y-393D03*
X-1377D03*
X-1181D03*
Y-196D03*
X-1377D03*
X-1574D03*
Y0D03*
X-1377D03*
X-1181D03*
Y196D03*
X-1377D03*
X-1574D03*
Y393D03*
X-1377D03*
X-1181D03*
Y590D03*
X-1377D03*
X-1574D03*
Y787D03*
X-1377D03*
X-1181D03*
Y984D03*
X-1377D03*
X-1574D03*
Y1181D03*
X-1377D03*
X-1181D03*
Y1377D03*
X-1377D03*
X-1574D03*
Y1771D03*
X-1377D03*
X-1181D03*
Y1574D03*
X-1377D03*
X-1574D03*
X317Y752D03*
X283Y972D03*
X440Y874D03*
G54D56*
X291Y-133D03*
X-62Y-19D03*
X259Y1212D03*
X-263Y-866D03*
X-507Y-665D03*
X625Y-507D03*
X503Y-496D03*
X389Y1251D03*
X-383Y1318D03*
X167Y-472D03*
M02*