%FSLAX23Y23*%
%MOIN*%
%SFA1B1*%

%IPPOS*%
%ADD57C,0.007870*%
%ADD58C,0.012800*%
%ADD59C,0.003940*%
%ADD60C,0.011810*%
%ADD61C,0.010000*%
%LNhumrigid1_legend_top-1*%
%LPD*%
G54D57*
X-59Y236D02*
D01*
X-65Y232*
X-72Y228*
X-78Y223*
X-84Y218*
X-89Y213*
X-94Y207*
X-99Y201*
X-103Y195*
X-107Y188*
X-110Y181*
X-113Y174*
X-115Y167*
X-117Y159*
X-118Y152*
X-119Y144*
X-119Y136*
X-119Y129*
X-118Y121*
X-117Y113*
X-115Y106*
X-112Y99*
X-109Y92*
X-106Y85*
X-102Y78*
X-98Y72*
X-93Y66*
X-88Y60*
X-82Y55*
X-76Y50*
X-70Y45*
X-63Y41*
X-57Y38*
X-50Y35*
X-42Y32*
X-35Y30*
X-27Y29*
X-20Y28*
X-12Y27*
X-4Y27*
X2Y28*
X10Y29*
X17Y31*
X25Y33*
X32Y36*
X39Y39*
X46Y43*
X52Y47*
X58Y51*
X64Y56*
X70Y62*
X75Y67*
X79Y73*
X84Y80*
X87Y87*
X91Y94*
X93Y101*
X96Y108*
X98Y115*
X99Y123*
X99Y131*
X100Y138*
X99Y146*
X98Y154*
X97Y161*
X95Y169*
X93Y176*
X90Y183*
X86Y190*
X82Y197*
X78Y203*
X73Y209*
X68Y215*
X62Y220*
X57Y225*
X50Y229*
X44Y233*
X39Y236*
X-234Y248D02*
D01*
X-233Y248*
X-233Y248*
X-233Y248*
X-233Y248*
X-232Y248*
X-232Y248*
X-232Y248*
X-232Y248*
X-231Y248*
X-231Y248*
X-231Y249*
X-231Y249*
X-231Y249*
X-230Y249*
X-230Y250*
X-230Y250*
X-230Y250*
X-230Y250*
X-230Y251*
X-230Y251*
X-230Y251*
X-230Y251*
Y252*
X-230Y252*
X-230Y252*
X-230Y252*
X-230Y253*
X-230Y253*
X-230Y253*
X-230Y253*
X-230Y254*
X-231Y254*
X-231Y254*
X-231Y254*
X-231Y254*
X-231Y255*
X-232Y255*
X-232Y255*
X-232Y255*
X-232Y255*
X-233Y255*
X-233Y255*
X-233Y255*
X-233Y255*
X-234Y255*
D01*
X-234Y255*
X-234Y255*
X-235Y255*
X-235Y255*
X-235Y255*
X-235Y255*
X-236Y255*
X-236Y255*
X-236Y255*
X-236Y254*
X-236Y254*
X-237Y254*
X-237Y254*
X-237Y254*
X-237Y253*
X-237Y253*
X-237Y253*
X-237Y253*
X-238Y252*
X-238Y252*
X-238Y252*
X-238Y252*
Y251*
X-238Y251*
X-238Y251*
X-238Y251*
X-237Y250*
X-237Y250*
X-237Y250*
X-237Y250*
X-237Y249*
X-237Y249*
X-237Y249*
X-236Y249*
X-236Y248*
X-236Y248*
X-236Y248*
X-236Y248*
X-235Y248*
X-235Y248*
X-235Y248*
X-235Y248*
X-234Y248*
X-234Y248*
X-234Y248*
X274Y375D02*
D01*
X274Y375*
X274Y375*
X274Y375*
X274Y374*
X274Y374*
X274Y374*
X274Y374*
X274Y373*
X274Y373*
X275Y373*
X275Y373*
X275Y373*
X275Y372*
X275Y372*
X276Y372*
X276Y372*
X276Y372*
X276Y372*
X277Y372*
X277Y372*
X277Y372*
X277Y372*
X278*
X278Y372*
X278Y372*
X278Y372*
X279Y372*
X279Y372*
X279Y372*
X280Y372*
X280Y372*
X280Y372*
X280Y373*
X280Y373*
X281Y373*
X281Y373*
X281Y373*
X281Y374*
X281Y374*
X281Y374*
X281Y374*
X281Y375*
X281Y375*
X281Y375*
X281Y375*
D01*
X281Y376*
X281Y376*
X281Y376*
X281Y377*
X281Y377*
X281Y377*
X281Y377*
X281Y378*
X281Y378*
X281Y378*
X280Y378*
X280Y378*
X280Y379*
X280Y379*
X280Y379*
X279Y379*
X279Y379*
X279Y379*
X278Y379*
X278Y379*
X278Y379*
X278Y379*
X277*
X277Y379*
X277Y379*
X277Y379*
X276Y379*
X276Y379*
X276Y379*
X276Y379*
X275Y379*
X275Y379*
X275Y378*
X275Y378*
X275Y378*
X274Y378*
X274Y378*
X274Y377*
X274Y377*
X274Y377*
X274Y377*
X274Y376*
X274Y376*
X274Y376*
X274Y375*
X212Y1096D02*
D01*
X211Y1096*
X211Y1096*
X210Y1096*
X210Y1096*
X209Y1096*
X209Y1096*
X208Y1095*
X208Y1095*
X207Y1095*
X207Y1095*
X207Y1094*
X206Y1094*
X206Y1093*
X206Y1093*
X205Y1092*
X205Y1092*
X205Y1091*
X205Y1091*
X204Y1090*
X204Y1090*
X204Y1089*
X204Y1089*
Y1088*
X204Y1088*
X204Y1087*
X204Y1087*
X205Y1086*
X205Y1086*
X205Y1085*
X205Y1085*
X206Y1084*
X206Y1084*
X206Y1083*
X207Y1083*
X207Y1083*
X207Y1082*
X208Y1082*
X208Y1082*
X209Y1082*
X209Y1081*
X210Y1081*
X210Y1081*
X211Y1081*
X211Y1081*
X212Y1081*
X212Y1081*
X213Y1081*
X214Y1081*
X214Y1081*
X215Y1081*
X215Y1082*
X216Y1082*
X216Y1082*
X216Y1082*
X217Y1083*
X217Y1083*
X218Y1083*
X218Y1084*
X218Y1084*
X219Y1085*
X219Y1085*
X219Y1086*
X219Y1086*
X219Y1087*
X220Y1087*
X220Y1088*
X220Y1088*
Y1089*
X220Y1089*
X220Y1090*
X219Y1090*
X219Y1091*
X219Y1091*
X219Y1092*
X219Y1092*
X218Y1093*
X218Y1093*
X218Y1094*
X217Y1094*
X217Y1095*
X216Y1095*
X216Y1095*
X216Y1095*
X215Y1096*
X215Y1096*
X214Y1096*
X214Y1096*
X215Y1089D02*
D01*
X215Y1089*
X215Y1089*
X215Y1089*
X215Y1089*
X215Y1089*
X215Y1089*
X215Y1090*
X215Y1090*
X215Y1090*
X215Y1090*
X215Y1090*
X215Y1090*
X215Y1090*
X215Y1090*
X214Y1090*
X214Y1090*
X214Y1090*
X214Y1091*
X214Y1091*
X214Y1091*
X214Y1091*
X214Y1091*
X213*
X213Y1091*
X213Y1091*
X213Y1091*
X213Y1091*
X213Y1090*
X213Y1090*
X212Y1090*
X212Y1090*
X212Y1090*
X212Y1090*
X212Y1090*
X212Y1090*
X212Y1090*
X212Y1090*
X212Y1090*
X212Y1089*
X212Y1089*
X212Y1089*
X212Y1089*
X211Y1089*
X211Y1089*
X211Y1089*
D01*
X211Y1088*
X211Y1088*
X212Y1088*
X212Y1088*
X212Y1088*
X212Y1088*
X212Y1088*
X212Y1088*
X212Y1087*
X212Y1087*
X212Y1087*
X212Y1087*
X212Y1087*
X212Y1087*
X212Y1087*
X213Y1087*
X213Y1087*
X213Y1087*
X213Y1087*
X213Y1087*
X213Y1087*
X213Y1087*
X214*
X214Y1087*
X214Y1087*
X214Y1087*
X214Y1087*
X214Y1087*
X214Y1087*
X214Y1087*
X215Y1087*
X215Y1087*
X215Y1087*
X215Y1087*
X215Y1087*
X215Y1087*
X215Y1088*
X215Y1088*
X215Y1088*
X215Y1088*
X215Y1088*
X215Y1088*
X215Y1088*
X215Y1088*
X215Y1089*
X500Y-683D02*
D01*
X499Y-682*
X499Y-682*
X499Y-682*
X499Y-681*
X499Y-681*
X499Y-681*
X499Y-681*
X499Y-680*
X499Y-680*
X499Y-680*
X498Y-680*
X498Y-680*
X498Y-679*
X498Y-679*
X498Y-679*
X497Y-679*
X497Y-679*
X497Y-679*
X497Y-679*
X496Y-679*
X496Y-679*
X496Y-679*
X495*
X495Y-679*
X495Y-679*
X495Y-679*
X494Y-679*
X494Y-679*
X494Y-679*
X494Y-679*
X493Y-679*
X493Y-679*
X493Y-680*
X493Y-680*
X493Y-680*
X492Y-680*
X492Y-680*
X492Y-681*
X492Y-681*
X492Y-681*
X492Y-681*
X492Y-682*
X492Y-682*
X492Y-682*
X492Y-683*
X492Y-683*
X492Y-683*
X492Y-683*
X492Y-684*
X492Y-684*
X492Y-684*
X492Y-684*
X492Y-685*
X492Y-685*
X493Y-685*
X493Y-685*
X493Y-685*
X493Y-686*
X493Y-686*
X494Y-686*
X494Y-686*
X494Y-686*
X494Y-686*
X495Y-686*
X495Y-686*
X495Y-686*
X495Y-687*
X496*
X496Y-686*
X496Y-686*
X497Y-686*
X497Y-686*
X497Y-686*
X497Y-686*
X498Y-686*
X498Y-686*
X498Y-686*
X498Y-685*
X498Y-685*
X499Y-685*
X499Y-685*
X499Y-685*
X499Y-684*
X499Y-684*
X499Y-684*
X499Y-684*
X499Y-683*
X499Y-683*
X499Y-683*
X500Y-683*
X-74Y412D02*
D01*
X-74Y411*
X-74Y411*
X-74Y411*
X-74Y411*
X-74Y410*
X-74Y410*
X-74Y410*
X-74Y410*
X-74Y409*
X-73Y409*
X-73Y409*
X-73Y409*
X-73Y409*
X-73Y408*
X-72Y408*
X-72Y408*
X-72Y408*
X-72Y408*
X-71Y408*
X-71Y408*
X-71Y408*
X-70Y408*
X-70*
X-70Y408*
X-70Y408*
X-69Y408*
X-69Y408*
X-69Y408*
X-69Y408*
X-68Y408*
X-68Y408*
X-68Y409*
X-68Y409*
X-68Y409*
X-67Y409*
X-67Y409*
X-67Y410*
X-67Y410*
X-67Y410*
X-67Y410*
X-67Y411*
X-67Y411*
X-66Y411*
X-66Y411*
X-66Y412*
D01*
X-66Y412*
X-66Y412*
X-67Y413*
X-67Y413*
X-67Y413*
X-67Y413*
X-67Y414*
X-67Y414*
X-67Y414*
X-67Y414*
X-68Y414*
X-68Y415*
X-68Y415*
X-68Y415*
X-68Y415*
X-69Y415*
X-69Y415*
X-69Y415*
X-69Y416*
X-70Y416*
X-70Y416*
X-70Y416*
X-71*
X-71Y416*
X-71Y416*
X-71Y416*
X-72Y415*
X-72Y415*
X-72Y415*
X-72Y415*
X-73Y415*
X-73Y415*
X-73Y415*
X-73Y414*
X-73Y414*
X-74Y414*
X-74Y414*
X-74Y414*
X-74Y413*
X-74Y413*
X-74Y413*
X-74Y413*
X-74Y412*
X-74Y412*
Y412*
X-59Y236D02*
X39D01*
X-411Y-196D02*
Y-70D01*
X-604Y-196D02*
X-411D01*
X-604D02*
Y-70D01*
X-411*
X-406Y-57D02*
Y2D01*
X-301Y91D02*
X-281D01*
X-301Y34D02*
X-281D01*
X-634Y-736D02*
X-342D01*
X-537Y-996D02*
X-342D01*
X-681Y991D02*
Y1283D01*
X-421Y1088D02*
Y1283D01*
X458Y1118D02*
X750D01*
X458Y1377D02*
X653D01*
X-147Y1372D02*
X92D01*
Y1115D02*
Y1372D01*
X-147Y1115D02*
X92D01*
X112Y-239D02*
X202D01*
Y-357D02*
Y-239D01*
X112Y-357D02*
X202D01*
X112D02*
Y-239D01*
X42Y-237D02*
X98D01*
X-33Y-39D02*
X13D01*
X-33Y-98D02*
X13D01*
G54D58*
X243Y942D02*
D01*
X243Y943*
X243Y943*
X243Y944*
X243Y944*
X243Y945*
X243Y945*
X242Y945*
X242Y946*
X242Y946*
X242Y947*
X241Y947*
X241Y947*
X241Y947*
X240Y948*
X240Y948*
X240Y948*
X239Y948*
X239Y948*
X238Y949*
X238Y949*
X237Y949*
X237Y949*
X236*
X236Y949*
X236Y949*
X235Y949*
X235Y948*
X234Y948*
X234Y948*
X234Y948*
X233Y948*
X233Y947*
X232Y947*
X232Y947*
X232Y947*
X232Y946*
X231Y946*
X231Y945*
X231Y945*
X231Y945*
X231Y944*
X230Y944*
X230Y943*
X230Y943*
X230Y942*
X230Y942*
X230Y942*
X230Y941*
X231Y941*
X231Y940*
X231Y940*
X231Y939*
X231Y939*
X232Y939*
X232Y938*
X232Y938*
X232Y938*
X233Y937*
X233Y937*
X234Y937*
X234Y937*
X234Y936*
X235Y936*
X235Y936*
X236Y936*
X236Y936*
X236Y936*
X237*
X237Y936*
X238Y936*
X238Y936*
X239Y936*
X239Y936*
X240Y937*
X240Y937*
X240Y937*
X241Y937*
X241Y938*
X241Y938*
X242Y938*
X242Y939*
X242Y939*
X242Y939*
X243Y940*
X243Y940*
X243Y941*
X243Y941*
X243Y942*
X243Y942*
X243Y942*
G54D59*
X-116Y-68D02*
D01*
X-116Y-68*
X-116Y-68*
X-116Y-68*
X-116Y-68*
X-116Y-68*
X-116Y-68*
X-116Y-67*
X-116Y-67*
X-116Y-67*
X-116Y-67*
X-116Y-67*
X-116Y-67*
X-116Y-67*
X-117Y-67*
X-117Y-67*
X-117Y-67*
X-117Y-67*
X-117Y-67*
X-117Y-66*
X-117Y-66*
X-117Y-66*
X-118Y-66*
X-118*
X-118Y-66*
X-118Y-66*
X-118Y-66*
X-118Y-67*
X-118Y-67*
X-118Y-67*
X-119Y-67*
X-119Y-67*
X-119Y-67*
X-119Y-67*
X-119Y-67*
X-119Y-67*
X-119Y-67*
X-119Y-67*
X-119Y-67*
X-119Y-68*
X-119Y-68*
X-120Y-68*
X-120Y-68*
X-120Y-68*
X-120Y-68*
X-120Y-68*
D01*
X-120Y-69*
X-120Y-69*
X-120Y-69*
X-120Y-69*
X-119Y-69*
X-119Y-69*
X-119Y-69*
X-119Y-69*
X-119Y-70*
X-119Y-70*
X-119Y-70*
X-119Y-70*
X-119Y-70*
X-119Y-70*
X-119Y-70*
X-118Y-70*
X-118Y-70*
X-118Y-70*
X-118Y-70*
X-118Y-70*
X-118Y-70*
X-118Y-70*
X-118*
X-117Y-70*
X-117Y-70*
X-117Y-70*
X-117Y-70*
X-117Y-70*
X-117Y-70*
X-117Y-70*
X-117Y-70*
X-116Y-70*
X-116Y-70*
X-116Y-70*
X-116Y-70*
X-116Y-70*
X-116Y-69*
X-116Y-69*
X-116Y-69*
X-116Y-69*
X-116Y-69*
X-116Y-69*
X-116Y-69*
X-116Y-69*
X-116Y-68*
X284Y21D02*
D01*
X292Y21*
X299Y22*
X306Y23*
X313Y25*
X321Y28*
X327Y30*
X334Y34*
X340Y37*
X347Y41*
X352Y46*
X358Y51*
X363Y56*
X368Y62*
X372Y68*
X376Y74*
X380Y81*
X383Y88*
X385Y95*
X387Y102*
X389Y109*
X390Y116*
X390Y124*
Y131*
X390Y139*
X389Y146*
X387Y153*
X385Y160*
X383Y167*
X380Y174*
X376Y181*
X372Y187*
X368Y193*
X363Y199*
X358Y204*
X352Y209*
X347Y213*
X340Y218*
X334Y221*
X327Y225*
X321Y227*
X313Y230*
X306Y231*
X299Y233*
X292Y233*
X284Y234*
D01*
X277Y233*
X269Y233*
X262Y231*
X255Y230*
X248Y227*
X241Y225*
X234Y221*
X228Y218*
X222Y213*
X216Y209*
X210Y204*
X205Y199*
X200Y193*
X196Y187*
X192Y181*
X189Y174*
X186Y167*
X183Y160*
X181Y153*
X179Y146*
X178Y139*
X178Y131*
Y124*
X178Y116*
X179Y109*
X181Y102*
X183Y95*
X186Y88*
X189Y81*
X192Y74*
X196Y68*
X200Y62*
X205Y56*
X210Y51*
X216Y46*
X222Y41*
X228Y37*
X234Y34*
X241Y30*
X248Y28*
X255Y25*
X262Y23*
X269Y22*
X277Y21*
X284Y21*
X262Y433D02*
Y440D01*
X419Y433D02*
Y440D01*
X344Y41D02*
X372Y14D01*
X372Y14D02*
X400Y41D01*
X344Y41D02*
X372Y67D01*
X400Y41*
G54D60*
X157Y127D02*
D01*
X157Y128*
X157Y128*
X157Y128*
X157Y128*
X156Y128*
X156Y128*
X156Y128*
X156Y128*
X156Y129*
X156Y129*
X156Y129*
X156Y129*
X156Y129*
X156Y129*
X156Y129*
X155Y129*
X155Y129*
X155Y129*
X155Y129*
X155Y129*
X155Y129*
X155Y129*
X155*
X154Y129*
X154Y129*
X154Y129*
X154Y129*
X154Y129*
X154Y129*
X154Y129*
X154Y129*
X153Y129*
X153Y129*
X153Y129*
X153Y129*
X153Y129*
X153Y128*
X153Y128*
X153Y128*
X153Y128*
X153Y128*
X153Y128*
X153Y128*
X153Y128*
X153Y127*
X153Y127*
X153Y127*
X153Y127*
X153Y127*
X153Y127*
X153Y127*
X153Y127*
X153Y126*
X153Y126*
X153Y126*
X153Y126*
X153Y126*
X153Y126*
X154Y126*
X154Y126*
X154Y126*
X154Y126*
X154Y126*
X154Y126*
X154Y126*
X154Y125*
X155Y125*
X155*
X155Y125*
X155Y126*
X155Y126*
X155Y126*
X155Y126*
X155Y126*
X156Y126*
X156Y126*
X156Y126*
X156Y126*
X156Y126*
X156Y126*
X156Y126*
X156Y126*
X156Y127*
X156Y127*
X156Y127*
X157Y127*
X157Y127*
X157Y127*
X157Y127*
X157Y127*
G54D61*
X152Y-762D02*
Y-702D01*
X182*
X192Y-712*
Y-732*
X182Y-742*
X152*
X172D02*
X192Y-762D01*
X252D02*
X212D01*
X252Y-722*
Y-712*
X242Y-702*
X222*
X212Y-712*
X272D02*
X282Y-702D01*
X302*
X312Y-712*
Y-722*
X302Y-732*
X312Y-742*
Y-752*
X302Y-762*
X282*
X272Y-752*
Y-742*
X282Y-732*
X272Y-722*
Y-712*
X282Y-732D02*
X302D01*
X1588Y-1607D02*
X1568D01*
X1578*
Y-1657*
X1568Y-1667*
X1558*
X1548Y-1657*
X1648Y-1607D02*
X1608D01*
Y-1637*
X1628Y-1627*
X1638*
X1648Y-1637*
Y-1657*
X1638Y-1667*
X1618*
X1608Y-1657*
X556Y-69D02*
X616D01*
Y-99*
X606Y-109*
X586*
X576Y-99*
Y-69*
Y-89D02*
X556Y-109D01*
Y-169D02*
Y-129D01*
X596Y-169*
X606*
X616Y-159*
Y-139*
X606Y-129*
X616Y-189D02*
Y-229D01*
X606*
X566Y-189*
X556*
X481Y-69D02*
X541D01*
Y-99*
X531Y-109*
X511*
X501Y-99*
Y-69*
Y-89D02*
X481Y-109D01*
Y-169D02*
Y-129D01*
X521Y-169*
X531*
X541Y-159*
Y-139*
X531Y-129*
X541Y-229D02*
X531Y-209D01*
X511Y-189*
X491*
X481Y-199*
Y-219*
X491Y-229*
X501*
X511Y-219*
Y-189*
X-116Y317D02*
Y257D01*
X-86*
X-76Y267*
Y307*
X-86Y317*
X-116*
X-16Y257D02*
X-56D01*
X-16Y297*
Y307*
X-26Y317*
X-46*
X-56Y307*
X-340Y284D02*
X-400D01*
Y314*
X-390Y324*
X-370*
X-360Y314*
Y284*
Y304D02*
X-340Y324D01*
Y384D02*
Y344D01*
X-380Y384*
X-390*
X-400Y374*
Y354*
X-390Y344*
X-340Y404D02*
Y424D01*
Y414*
X-400*
X-390Y404*
X-422Y282D02*
X-482D01*
Y312*
X-472Y322*
X-452*
X-442Y312*
Y282*
Y302D02*
X-422Y322D01*
Y382D02*
Y342D01*
X-462Y382*
X-472*
X-482Y372*
Y352*
X-472Y342*
X-422Y442D02*
Y402D01*
X-462Y442*
X-472*
X-482Y432*
Y412*
X-472Y402*
X-501Y282D02*
X-561D01*
Y312*
X-551Y322*
X-531*
X-521Y312*
Y282*
Y302D02*
X-501Y322D01*
Y342D02*
Y362D01*
Y352*
X-561*
X-551Y342*
X-737Y281D02*
Y341D01*
X-707*
X-697Y331*
Y311*
X-707Y301*
X-737*
X-717D02*
X-697Y281D01*
X-637D02*
X-677D01*
X-637Y321*
Y331*
X-647Y341*
X-667*
X-677Y331*
X-587Y281D02*
Y341D01*
X-617Y311*
X-577*
X-499Y142D02*
X-509Y152D01*
X-529*
X-539Y142*
Y102*
X-529Y92*
X-509*
X-499Y102*
X-439Y92D02*
X-479D01*
X-439Y132*
Y142*
X-449Y152*
X-469*
X-479Y142*
X-379Y152D02*
X-419D01*
Y122*
X-399Y132*
X-389*
X-379Y122*
Y102*
X-389Y92*
X-409*
X-419Y102*
X-723Y-214D02*
Y-264D01*
X-713Y-274*
X-693*
X-683Y-264*
Y-214*
X-623Y-274D02*
X-663D01*
X-623Y-234*
Y-224*
X-633Y-214*
X-653*
X-663Y-224*
X-741Y68D02*
Y128D01*
X-711*
X-701Y118*
Y98*
X-711Y88*
X-741*
X-721D02*
X-701Y68D01*
X-641D02*
X-681D01*
X-641Y108*
Y118*
X-651Y128*
X-671*
X-681Y118*
X-581Y128D02*
X-621D01*
Y98*
X-601Y108*
X-591*
X-581Y98*
Y78*
X-591Y68*
X-611*
X-621Y78*
X-194Y138D02*
X-134D01*
Y108*
X-144Y98*
X-164*
X-174Y108*
Y138*
Y118D02*
X-194Y98D01*
Y38D02*
Y78D01*
X-154Y38*
X-144*
X-134Y48*
Y68*
X-144Y78*
Y18D02*
X-134Y8D01*
Y-11*
X-144Y-21*
X-154*
X-164Y-11*
Y-1*
Y-11*
X-174Y-21*
X-184*
X-194Y-11*
Y8*
X-184Y18*
X-240Y283D02*
Y323D01*
X-250Y333*
X-270*
X-280Y323*
Y283*
X-270Y273*
X-250*
X-260Y293D02*
X-240Y273D01*
X-250D02*
X-240Y283D01*
X-220Y273D02*
X-200D01*
X-210*
Y333*
X-220Y323*
X-326Y-101D02*
X-336Y-91D01*
X-356*
X-366Y-101*
Y-141*
X-356Y-151*
X-336*
X-326Y-141*
X-266Y-151D02*
X-306D01*
X-266Y-111*
Y-101*
X-276Y-91*
X-296*
X-306Y-101*
X-216Y-151D02*
Y-91D01*
X-246Y-121*
X-206*
X794Y1237D02*
Y1297D01*
X824*
X834Y1287*
Y1267*
X824Y1257*
X794*
X814D02*
X834Y1237D01*
X894D02*
X854D01*
X894Y1277*
Y1287*
X884Y1297*
X864*
X854Y1287*
X914D02*
X924Y1297D01*
X943*
X953Y1287*
Y1247*
X943Y1237*
X924*
X914Y1247*
Y1287*
X-410Y-649D02*
X-420Y-639D01*
X-440*
X-450Y-649*
Y-689*
X-440Y-699*
X-420*
X-410Y-689*
X-350Y-699D02*
X-390D01*
X-350Y-659*
Y-649*
X-360Y-639*
X-380*
X-390Y-649*
X-330D02*
X-320Y-639D01*
X-300*
X-290Y-649*
Y-659*
X-300Y-669*
X-310*
X-300*
X-290Y-679*
Y-689*
X-300Y-699*
X-320*
X-330Y-689*
X-635Y-610D02*
Y-550D01*
X-605*
X-595Y-560*
Y-580*
X-605Y-590*
X-635*
X-615D02*
X-595Y-610D01*
X-575D02*
X-555D01*
X-565*
Y-550*
X-575Y-560*
X-525Y-600D02*
X-515Y-610D01*
X-495*
X-485Y-600*
Y-560*
X-495Y-550*
X-515*
X-525Y-560*
Y-570*
X-515Y-580*
X-485*
X-1427Y-1080D02*
X-1447D01*
X-1437*
Y-1130*
X-1447Y-1140*
X-1457*
X-1467Y-1130*
X-1367Y-1140D02*
X-1407D01*
X-1367Y-1100*
Y-1090*
X-1377Y-1080*
X-1397*
X-1407Y-1090*
X-352Y1177D02*
X-362Y1187D01*
X-382*
X-392Y1177*
Y1137*
X-382Y1127*
X-362*
X-352Y1137*
X-292Y1127D02*
X-332D01*
X-292Y1167*
Y1177*
X-302Y1187*
X-322*
X-332Y1177*
X-272Y1127D02*
X-252D01*
X-262*
Y1187*
X-272Y1177*
X251Y577D02*
Y527D01*
X261Y517*
X281*
X291Y527*
Y577*
X311Y517D02*
X331D01*
X321*
Y577*
X311Y567*
X486Y551D02*
X476Y561D01*
X456*
X446Y551*
Y511*
X456Y501*
X476*
X486Y511*
X546Y501D02*
X506D01*
X546Y541*
Y551*
X536Y561*
X516*
X506Y551*
X468Y256D02*
X458Y266D01*
X438*
X428Y256*
Y216*
X438Y206*
X458*
X468Y216*
X488Y206D02*
X508D01*
X498*
Y266*
X488Y256*
X-360Y-330D02*
X-370Y-320D01*
X-390*
X-400Y-330*
Y-370*
X-390Y-380*
X-370*
X-360Y-370*
X-340Y-330D02*
X-330Y-320D01*
X-310*
X-300Y-330*
Y-340*
X-310Y-350*
X-320*
X-310*
X-300Y-360*
Y-370*
X-310Y-380*
X-330*
X-340Y-370*
X464Y-786D02*
X474Y-776D01*
Y-756*
X464Y-746*
X424*
X414Y-756*
Y-776*
X424Y-786*
X414Y-806D02*
Y-826D01*
Y-816*
X474*
X464Y-806*
X414Y-856D02*
Y-876D01*
Y-866*
X474*
X464Y-856*
X382Y-787D02*
X392Y-777D01*
Y-757*
X382Y-747*
X342*
X332Y-757*
Y-777*
X342Y-787*
X332Y-807D02*
Y-827D01*
Y-817*
X392*
X382Y-807*
X332Y-897D02*
Y-857D01*
X372Y-897*
X382*
X392Y-887*
Y-867*
X382Y-857*
X458Y-381D02*
X448Y-371D01*
X428*
X418Y-381*
Y-421*
X428Y-431*
X448*
X458Y-421*
X478Y-371D02*
X518D01*
Y-381*
X478Y-421*
Y-431*
X661Y-403D02*
X671Y-393D01*
Y-373*
X661Y-363*
X621*
X611Y-373*
Y-393*
X621Y-403*
X661Y-423D02*
X671Y-433D01*
Y-453*
X661Y-463*
X651*
X641Y-453*
X631Y-463*
X621*
X611Y-453*
Y-433*
X621Y-423*
X631*
X641Y-433*
X651Y-423*
X661*
X641Y-433D02*
Y-453D01*
X582Y-399D02*
X592Y-389D01*
Y-369*
X582Y-359*
X543*
X533Y-369*
Y-389*
X543Y-399*
X592Y-459D02*
X582Y-439D01*
X562Y-419*
X543*
X533Y-429*
Y-449*
X543Y-459*
X553*
X562Y-449*
Y-419*
X740Y-407D02*
X750Y-397D01*
Y-377*
X740Y-367*
X700*
X690Y-377*
Y-397*
X700Y-407*
Y-427D02*
X690Y-437D01*
Y-457*
X700Y-467*
X740*
X750Y-457*
Y-437*
X740Y-427*
X730*
X720Y-437*
Y-467*
X2022Y-847D02*
X2002D01*
X2012*
Y-897*
X2002Y-907*
X1992*
X1982Y-897*
X2082Y-847D02*
X2062Y-857D01*
X2042Y-877*
Y-897*
X2052Y-907*
X2072*
X2082Y-897*
Y-887*
X2072Y-877*
X2042*
X702Y1039D02*
X762D01*
Y1009*
X752Y999*
X732*
X722Y1009*
Y1039*
Y1019D02*
X702Y999D01*
Y979D02*
Y959D01*
Y969*
X762*
X752Y979*
Y929D02*
X762Y919D01*
Y899*
X752Y889*
X742*
X732Y899*
Y909*
Y899*
X722Y889*
X712*
X702Y899*
Y919*
X712Y929*
X548Y1031D02*
X608D01*
Y1001*
X598Y991*
X578*
X568Y1001*
Y1031*
Y1011D02*
X548Y991D01*
Y971D02*
Y951D01*
Y961*
X608*
X598Y971*
X548Y881D02*
Y921D01*
X588Y881*
X598*
X608Y891*
Y911*
X598Y921*
X295Y1102D02*
X285Y1112D01*
X265*
X255Y1102*
Y1062*
X265Y1052*
X285*
X295Y1062*
X315Y1052D02*
X335D01*
X325*
Y1112*
X315Y1102*
X365D02*
X375Y1112D01*
X395*
X405Y1102*
Y1092*
X395Y1082*
X405Y1072*
Y1062*
X395Y1052*
X375*
X365Y1062*
Y1072*
X375Y1082*
X365Y1092*
Y1102*
X375Y1082D02*
X395D01*
X426Y797D02*
Y747D01*
X436Y737*
X456*
X466Y747*
Y797*
X526D02*
X506Y787D01*
X486Y767*
Y747*
X496Y737*
X516*
X526Y747*
Y757*
X516Y767*
X486*
X68Y1051D02*
X128D01*
Y1021*
X118Y1011*
X98*
X88Y1021*
Y1051*
Y1031D02*
X68Y1011D01*
Y991D02*
Y971D01*
Y981*
X128*
X118Y991*
X68Y911D02*
X128D01*
X98Y941*
Y901*
X9Y645D02*
X0Y655D01*
X-20*
X-30Y645*
Y605*
X-20Y595*
X0*
X9Y605*
X69Y655D02*
X29D01*
Y625*
X49Y635*
X59*
X69Y625*
Y605*
X59Y595*
X39*
X29Y605*
X-172Y549D02*
Y499D01*
X-162Y489*
X-142*
X-132Y499*
Y549*
X-112Y539D02*
X-102Y549D01*
X-82*
X-72Y539*
Y529*
X-82Y519*
X-92*
X-82*
X-72Y509*
Y499*
X-82Y489*
X-102*
X-112Y499*
X173Y443D02*
X183Y453D01*
Y473*
X173Y483*
X133*
X123Y473*
Y453*
X133Y443*
X123Y393D02*
X183D01*
X153Y423*
Y383*
X143Y716D02*
X203D01*
Y686*
X193Y676*
X173*
X163Y686*
Y716*
Y696D02*
X143Y676D01*
Y656D02*
Y636D01*
Y646*
X203*
X193Y656*
X203Y606D02*
Y566D01*
X193*
X153Y606*
X143*
X295Y658D02*
Y718D01*
X325*
X335Y708*
Y688*
X325Y678*
X295*
X315D02*
X335Y658D01*
X355D02*
X375D01*
X365*
Y718*
X355Y708*
X445Y718D02*
X425Y708D01*
X405Y688*
Y668*
X415Y658*
X435*
X445Y668*
Y678*
X435Y688*
X405*
X-10Y893D02*
X49D01*
Y863*
X39Y853*
X19*
X9Y863*
Y893*
Y873D02*
X-10Y853D01*
Y833D02*
Y813D01*
Y823*
X49*
X39Y833*
X49Y743D02*
Y783D01*
X19*
X29Y763*
Y753*
X19Y743*
X0*
X-10Y753*
Y773*
X0Y783*
X314Y1433D02*
X304Y1443D01*
X284*
X274Y1433*
Y1393*
X284Y1383*
X304*
X314Y1393*
X374Y1383D02*
X334D01*
X374Y1423*
Y1433*
X364Y1443*
X344*
X334Y1433*
X434Y1383D02*
X394D01*
X434Y1423*
Y1433*
X424Y1443*
X404*
X394Y1433*
X711Y1429D02*
X701Y1439D01*
X681*
X671Y1429*
Y1389*
X681Y1379*
X701*
X711Y1389*
X771Y1379D02*
X731D01*
X771Y1419*
Y1429*
X761Y1439*
X741*
X731Y1429*
X791D02*
X801Y1439D01*
X821*
X831Y1429*
Y1389*
X821Y1379*
X801*
X791Y1389*
Y1429*
X-333Y990D02*
Y930D01*
X-293*
X-233D02*
X-273D01*
X-233Y970*
Y980*
X-243Y990*
X-263*
X-273Y980*
X-128Y1085D02*
Y1035D01*
X-118Y1025*
X-98*
X-88Y1035*
Y1085*
X-68D02*
X-28D01*
Y1075*
X-68Y1035*
Y1025*
X-681Y1359D02*
Y1419D01*
X-651*
X-641Y1409*
Y1389*
X-651Y1379*
X-681*
X-661D02*
X-641Y1359D01*
X-621D02*
X-601D01*
X-611*
Y1419*
X-621Y1409*
X-571D02*
X-561Y1419D01*
X-541*
X-531Y1409*
Y1399*
X-541Y1389*
X-531Y1379*
Y1369*
X-541Y1359*
X-561*
X-571Y1369*
Y1379*
X-561Y1389*
X-571Y1399*
Y1409*
X-561Y1389D02*
X-541D01*
X-660Y933D02*
X-670Y943D01*
X-690*
X-700Y933*
Y893*
X-690Y883*
X-670*
X-660Y893*
X-640Y883D02*
X-620D01*
X-630*
Y943*
X-640Y933*
X-591Y893D02*
X-581Y883D01*
X-561*
X-551Y893*
Y933*
X-561Y943*
X-581*
X-591Y933*
Y923*
X-581Y913*
X-551*
X-1053Y1802D02*
Y1862D01*
X-1033Y1842*
X-1013Y1862*
Y1802*
X-993D02*
X-973D01*
X-983*
Y1862*
X-993Y1852*
X157Y326D02*
Y266D01*
X187*
X197Y276*
Y316*
X187Y326*
X157*
X217Y316D02*
X227Y326D01*
X247*
X257Y316*
Y306*
X247Y296*
X237*
X247*
X257Y286*
Y276*
X247Y266*
X227*
X217Y276*
X564Y-832D02*
Y-882D01*
X574Y-892*
X594*
X604Y-882*
Y-832*
X654Y-892D02*
Y-832D01*
X624Y-862*
X664*
X-89Y-367D02*
Y-417D01*
X-79Y-427*
X-59*
X-49Y-417*
Y-367*
X10D02*
X-29D01*
Y-397*
X-9Y-387*
X0*
X10Y-397*
Y-417*
X0Y-427*
X-19*
X-29Y-417*
X457Y-118D02*
X467Y-108D01*
Y-88*
X457Y-78*
X417*
X407Y-88*
Y-108*
X417Y-118*
X407Y-138D02*
Y-158D01*
Y-148*
X467*
X457Y-138*
X407Y-218D02*
X467D01*
X437Y-188*
Y-228*
X103Y-137D02*
X93Y-127D01*
X73*
X63Y-137*
Y-177*
X73Y-187*
X93*
X103Y-177*
X123Y-187D02*
X143D01*
X133*
Y-127*
X123Y-137*
X173Y-127D02*
X213D01*
Y-137*
X173Y-177*
Y-187*
X131Y37D02*
X111D01*
X121*
Y-12*
X111Y-22*
X101*
X91Y-12*
X181Y-22D02*
Y37D01*
X151Y7*
X191*
X-160Y-111D02*
Y-171D01*
X-130*
X-120Y-161*
Y-121*
X-130Y-111*
X-160*
X-70Y-171D02*
Y-111D01*
X-100Y-141*
X-60*
X272Y-503D02*
X262Y-493D01*
X242*
X232Y-503*
Y-543*
X242Y-553*
X262*
X272Y-543*
X292Y-553D02*
X312D01*
X302*
Y-493*
X292Y-503*
X342D02*
X352Y-493D01*
X372*
X382Y-503*
Y-513*
X372Y-523*
X362*
X372*
X382Y-533*
Y-543*
X372Y-553*
X352*
X342Y-543*
X132Y-580D02*
X122Y-570D01*
X102*
X92Y-580*
Y-620*
X102Y-630*
X122*
X132Y-620*
X152Y-630D02*
X172D01*
X162*
Y-570*
X152Y-580*
X242Y-570D02*
X222Y-580D01*
X202Y-600*
Y-620*
X212Y-630*
X232*
X242Y-620*
Y-610*
X232Y-600*
X202*
X324Y-379D02*
X384D01*
Y-409*
X374Y-419*
X354*
X344Y-409*
Y-379*
Y-399D02*
X324Y-419D01*
Y-469D02*
X384D01*
X354Y-439*
Y-479*
X-59Y-456D02*
X0D01*
Y-486*
X-9Y-496*
X-29*
X-39Y-486*
Y-456*
Y-476D02*
X-59Y-496D01*
Y-516D02*
Y-536D01*
Y-526*
X0*
X-9Y-516*
Y-566D02*
X0Y-576D01*
Y-596*
X-9Y-606*
X-49*
X-59Y-596*
Y-576*
X-49Y-566*
X-9*
X69Y-545D02*
X79Y-535D01*
Y-515*
X69Y-505*
X29*
X19Y-515*
Y-535*
X29Y-545*
X19Y-565D02*
Y-585D01*
Y-575*
X79*
X69Y-565*
Y-615D02*
X79Y-625D01*
Y-645*
X69Y-655*
X29*
X19Y-645*
Y-625*
X29Y-615*
X69*
X-127Y-260D02*
X-117Y-250D01*
Y-230*
X-127Y-220*
X-167*
X-177Y-230*
Y-250*
X-167Y-260*
X-177Y-280D02*
Y-300D01*
Y-290*
X-117*
X-127Y-280*
X-117Y-370D02*
Y-330D01*
X-147*
X-137Y-350*
Y-360*
X-147Y-370*
X-167*
X-177Y-360*
Y-340*
X-167Y-330*
X948Y-846D02*
Y-786D01*
X978*
X988Y-796*
Y-816*
X978Y-826*
X948*
X968D02*
X988Y-846D01*
X1008D02*
X1028D01*
X1018*
Y-786*
X1008Y-796*
X1058Y-846D02*
X1078D01*
X1068*
Y-786*
X1058Y-796*
X953Y-758D02*
Y-698D01*
X983*
X993Y-708*
Y-728*
X983Y-738*
X953*
X973D02*
X993Y-758D01*
X1013Y-748D02*
X1023Y-758D01*
X1043*
X1053Y-748*
Y-708*
X1043Y-698*
X1023*
X1013Y-708*
Y-718*
X1023Y-728*
X1053*
X953Y-669D02*
Y-609D01*
X983*
X993Y-619*
Y-639*
X983Y-649*
X953*
X973D02*
X993Y-669D01*
X1053Y-609D02*
X1033Y-619D01*
X1013Y-639*
Y-659*
X1023Y-669*
X1043*
X1053Y-659*
Y-649*
X1043Y-639*
X1013*
X953Y-581D02*
Y-521D01*
X983*
X993Y-531*
Y-551*
X983Y-561*
X953*
X973D02*
X993Y-581D01*
X1053Y-521D02*
X1013D01*
Y-551*
X1033Y-541*
X1043*
X1053Y-551*
Y-571*
X1043Y-581*
X1023*
X1013Y-571*
X953Y-492D02*
Y-432D01*
X983*
X993Y-442*
Y-462*
X983Y-472*
X953*
X973D02*
X993Y-492D01*
X1013Y-442D02*
X1023Y-432D01*
X1043*
X1053Y-442*
Y-452*
X1043Y-462*
X1033*
X1043*
X1053Y-472*
Y-482*
X1043Y-492*
X1023*
X1013Y-482*
X328Y-123D02*
X388D01*
Y-153*
X378Y-163*
X358*
X348Y-153*
Y-123*
Y-143D02*
X328Y-163D01*
X388Y-183D02*
Y-223D01*
X378*
X338Y-183*
X328*
X-49Y-127D02*
X10D01*
Y-157*
X0Y-167*
X-19*
X-29Y-157*
Y-127*
Y-147D02*
X-49Y-167D01*
X0Y-187D02*
X10Y-197D01*
Y-217*
X0Y-227*
X-9*
X-19Y-217*
X-29Y-227*
X-39*
X-49Y-217*
Y-197*
X-39Y-187*
X-29*
X-19Y-197*
X-9Y-187*
X0*
X-19Y-197D02*
Y-217D01*
X953Y-404D02*
Y-344D01*
X983*
X993Y-354*
Y-374*
X983Y-384*
X953*
X973D02*
X993Y-404D01*
X1053D02*
X1013D01*
X1053Y-364*
Y-354*
X1043Y-344*
X1023*
X1013Y-354*
X1786Y1022D02*
X1766D01*
X1776*
Y972*
X1766Y962*
X1756*
X1746Y972*
X1806Y1012D02*
X1816Y1022D01*
X1836*
X1846Y1012*
Y1002*
X1836Y992*
X1826*
X1836*
X1846Y982*
Y972*
X1836Y962*
X1816*
X1806Y972*
X1703Y1771D02*
X1683D01*
X1693*
Y1721*
X1683Y1711*
X1673*
X1663Y1721*
X1723Y1711D02*
X1743D01*
X1733*
Y1771*
X1723Y1761*
M02*