G04*
G04 #@! TF.GenerationSoftware,Altium Limited,Altium Designer,24.0.1 (36)*
G04*
G04 Layer_Physical_Order=1*
G04 Layer_Color=255*
%FSLAX26Y26*%
%MOIN*%
G70*
G04*
G04 #@! TF.SameCoordinates,F42C736F-CBB7-40B1-BF54-99FABD9F894E*
G04*
G04*
G04 #@! TF.FilePolarity,Positive*
G04*
G01*
G75*
%ADD10C,0.010000*%
%ADD14C,0.007874*%
%ADD15C,0.019685*%
%ADD81R,0.009055X0.035433*%
%ADD82O,0.009055X0.035433*%
%ADD83R,0.062992X0.137795*%
%ADD84R,0.038976X0.037008*%
%ADD85R,0.027559X0.035433*%
%ADD86R,0.058661X0.094488*%
%ADD87R,0.035433X0.013780*%
%ADD88R,0.088976X0.088976*%
%ADD89R,0.041339X0.013780*%
%ADD90R,0.013780X0.041339*%
%ADD91R,0.035433X0.027559*%
%ADD92R,0.057087X0.051181*%
%ADD93R,0.028346X0.026772*%
%ADD94R,0.017716X0.017716*%
%ADD95R,0.040787X0.096457*%
%ADD96R,0.022126X0.096457*%
%ADD97R,0.031496X0.025591*%
%ADD98R,0.031496X0.041339*%
%ADD99R,0.039370X0.039370*%
%ADD100C,0.009842*%
%ADD101R,0.026772X0.028346*%
%ADD102R,0.027559X0.028543*%
%ADD103R,0.039370X0.039370*%
%ADD104R,0.015748X0.019685*%
%ADD105R,0.051181X0.057087*%
%ADD106R,0.060039X0.027559*%
%ADD107R,0.137795X0.139764*%
%ADD108R,0.122047X0.212598*%
%ADD109C,0.005512*%
%ADD110C,0.011811*%
%ADD111C,0.039370*%
%ADD112C,0.029528*%
%ADD113C,0.062992*%
%ADD114R,0.062992X0.062992*%
%ADD115R,0.062992X0.062992*%
%ADD116C,0.076772*%
%ADD117R,0.076772X0.076772*%
%ADD118C,0.244095*%
%ADD119C,0.019685*%
%ADD120C,0.050000*%
%ADD121C,0.031496*%
G36*
X3776289Y3921803D02*
X3799689Y3915533D01*
X3822071Y3906262D01*
X3843051Y3894150D01*
X3862271Y3879402D01*
X3879401Y3862271D01*
X3894149Y3843051D01*
X3906262Y3822071D01*
X3915533Y3799689D01*
X3921803Y3776289D01*
X3924966Y3752270D01*
Y3740157D01*
Y196850D01*
Y184737D01*
X3921803Y160718D01*
X3915533Y137317D01*
X3906262Y114936D01*
X3894150Y93956D01*
X3879402Y74736D01*
X3862271Y57606D01*
X3843051Y42857D01*
X3822071Y30745D01*
X3799689Y21474D01*
X3776289Y15204D01*
X3752270Y12041D01*
X184737D01*
X160718Y15204D01*
X137317Y21474D01*
X114936Y30745D01*
X93956Y42857D01*
X74736Y57605D01*
X57606Y74735D01*
X42857Y93956D01*
X30745Y114936D01*
X21474Y137317D01*
X15204Y160718D01*
X12041Y184737D01*
Y196850D01*
Y3740157D01*
Y3752270D01*
X15204Y3776289D01*
X21474Y3799689D01*
X30745Y3822071D01*
X42857Y3843051D01*
X57605Y3862271D01*
X74735Y3879401D01*
X93956Y3894149D01*
X114936Y3906262D01*
X137317Y3915533D01*
X160718Y3921803D01*
X184737Y3924966D01*
X3752270D01*
X3776289Y3921803D01*
D02*
G37*
%LPC*%
G36*
X2130000Y3881260D02*
X2099409D01*
Y3847716D01*
X2130000D01*
Y3881260D01*
D02*
G37*
G36*
X2172401Y3881260D02*
X2170590D01*
X2170590Y3881260D01*
X2140000D01*
Y3842716D01*
X2135000D01*
Y3837716D01*
X2099409D01*
Y3804173D01*
X2099409Y3804173D01*
X2099409D01*
X2096450Y3800569D01*
X2032571Y3736689D01*
X1929858D01*
Y3768858D01*
X1833087D01*
Y3672087D01*
X1929858D01*
Y3704255D01*
X2039288D01*
X2045494Y3705490D01*
X2050755Y3709005D01*
X2120013Y3778263D01*
X2125013Y3776192D01*
Y3729283D01*
X2132575D01*
Y3700945D01*
X2123044D01*
Y3641575D01*
X2222186D01*
X2223753Y3641263D01*
X2241598D01*
X2247562Y3635298D01*
Y3605058D01*
X2248797Y3598852D01*
X2252312Y3593591D01*
X2290727Y3555176D01*
X2295118Y3552242D01*
Y3510305D01*
X2350551D01*
Y3517816D01*
X2356670D01*
X2368114Y3506371D01*
X2366201Y3501751D01*
X2339646D01*
Y3466161D01*
X2334646D01*
Y3461161D01*
X2296102D01*
Y3439013D01*
X2291772Y3436513D01*
X2290682Y3437142D01*
X2281780Y3439528D01*
X2272564D01*
X2263663Y3437142D01*
X2257126Y3433368D01*
X2252126Y3434834D01*
Y3434834D01*
X2242182D01*
X2239380Y3436985D01*
X2232159Y3439976D01*
X2224409Y3440996D01*
X2216660Y3439976D01*
X2209439Y3436985D01*
X2206636Y3434834D01*
X2196693D01*
Y3421712D01*
X2195488Y3418804D01*
X2194468Y3411055D01*
X2195488Y3403305D01*
X2196693Y3400398D01*
Y3387275D01*
X2205846D01*
X2212243Y3380878D01*
X2210172Y3375878D01*
X2162007D01*
X2161398Y3376487D01*
X2155197Y3381245D01*
X2152709Y3382275D01*
X2153704Y3387275D01*
X2169698D01*
Y3406055D01*
X2114265D01*
Y3390256D01*
X2114265Y3387276D01*
X2110101Y3385256D01*
X2083297D01*
Y3392638D01*
X2057549D01*
X2031801D01*
Y3386240D01*
X2026792D01*
X1961788Y3470646D01*
X1961536Y3470865D01*
X1961369Y3471154D01*
X1960046Y3472167D01*
X1958792Y3473264D01*
X1958476Y3473370D01*
X1958211Y3473573D01*
X1956601Y3474003D01*
X1955023Y3474536D01*
X1954690Y3474513D01*
X1954368Y3474599D01*
X1953976Y3474547D01*
X1950756Y3476484D01*
X1949311Y3478036D01*
X1948976Y3478758D01*
Y3517565D01*
X1791181D01*
Y3359179D01*
X1791181Y3357801D01*
X1791181D01*
Y3354179D01*
X1791181D01*
Y3194415D01*
X1825300D01*
X1825433Y3194386D01*
X1826963Y3193338D01*
X1829474Y3189539D01*
X1829498Y3189431D01*
X1829481Y3189322D01*
X1829927Y3187493D01*
X1830333Y3185655D01*
X1830397Y3185564D01*
X1830423Y3185457D01*
X1831533Y3183939D01*
X1832613Y3182395D01*
X1832707Y3182335D01*
X1832772Y3182246D01*
X1984431Y3042971D01*
X1986038Y3041994D01*
X1987627Y3040980D01*
X1987736Y3040961D01*
X1987830Y3040904D01*
X1989690Y3040615D01*
X1991545Y3040287D01*
X1992187Y3039926D01*
X1995392Y3037153D01*
X1995906Y3036131D01*
Y2915197D01*
X2137953D01*
Y3147795D01*
X2131286D01*
X2131050Y3147866D01*
X2129475Y3149125D01*
X2127194Y3152795D01*
X2127212Y3152912D01*
X2127162Y3153120D01*
X2127186Y3153333D01*
X2126695Y3155047D01*
X2126275Y3156778D01*
X2126149Y3156951D01*
X2126090Y3157157D01*
X2124981Y3158552D01*
X2123930Y3159992D01*
X2123747Y3160103D01*
X2123614Y3160271D01*
X1960102Y3298738D01*
X1958542Y3299603D01*
X1957021Y3300531D01*
X1956810Y3300564D01*
X1956622Y3300668D01*
X1954851Y3300870D01*
X1953091Y3301145D01*
X1951781Y3302042D01*
X1949233Y3304688D01*
X1948976Y3305293D01*
Y3333319D01*
X1952044Y3334590D01*
X1953976Y3334916D01*
X1959901Y3330369D01*
X1960629Y3330068D01*
X2043038Y3259951D01*
X2044424Y3259178D01*
X2045743Y3258297D01*
X2046150Y3258216D01*
X2046512Y3258014D01*
X2048089Y3257830D01*
X2049645Y3257521D01*
X2493488Y3257521D01*
X2494544Y3257731D01*
X2495622Y3257746D01*
X2496477Y3258115D01*
X2497390Y3258297D01*
X2498285Y3258895D01*
X2499275Y3259322D01*
X2499923Y3259990D01*
X2500697Y3260507D01*
X2501296Y3261403D01*
X2502047Y3262176D01*
X2502390Y3263041D01*
X2502907Y3263815D01*
X2503118Y3264872D01*
X2503515Y3265873D01*
X2518914Y3349630D01*
X2518907Y3350098D01*
X2519040Y3350547D01*
X2518879Y3352073D01*
X2518857Y3353607D01*
X2518692Y3353989D01*
X2519962Y3357056D01*
X2520619Y3362047D01*
X2522144D01*
Y3363032D01*
X2524230D01*
Y3381890D01*
X2529230D01*
Y3386890D01*
X2548088D01*
Y3388622D01*
Y3402480D01*
X2529230D01*
Y3412480D01*
X2548088D01*
Y3414213D01*
Y3428070D01*
X2529230D01*
Y3438070D01*
X2548088D01*
Y3439803D01*
Y3477520D01*
X2545447D01*
Y3500452D01*
X2544213Y3506658D01*
X2540698Y3511919D01*
X2518472Y3534145D01*
Y3558769D01*
X2463039D01*
X2463038Y3514944D01*
Y3514686D01*
D01*
X2463038Y3514267D01*
X2462221Y3513929D01*
X2458039Y3512196D01*
X2392124Y3578111D01*
X2386863Y3581626D01*
X2380657Y3582860D01*
X2350551D01*
Y3605510D01*
X2350863Y3607077D01*
Y3627141D01*
X2373672Y3649950D01*
X2377187Y3655211D01*
X2378422Y3661417D01*
Y3720472D01*
X2377187Y3726678D01*
X2373672Y3731940D01*
X2359302Y3746310D01*
X2354041Y3749825D01*
X2347835Y3751059D01*
X2347231D01*
Y3766496D01*
X2347231Y3766496D01*
Y3768937D01*
X2347231D01*
X2347231Y3771496D01*
Y3816496D01*
X2347231D01*
Y3818937D01*
X2347231D01*
Y3866496D01*
X2267192D01*
Y3858934D01*
X2243582D01*
Y3881260D01*
X2175445D01*
X2172401Y3881260D01*
D02*
G37*
G36*
X3081886Y3790824D02*
X2972441D01*
X2972050Y3790746D01*
X2971654Y3790793D01*
X2970111Y3790360D01*
X2968539Y3790048D01*
X2968208Y3789826D01*
X2967824Y3789718D01*
X2966564Y3788727D01*
X2965231Y3787837D01*
X2965010Y3787506D01*
X2964696Y3787259D01*
X2430702Y3163663D01*
X2429917Y3162266D01*
X2429027Y3160934D01*
X2428949Y3160542D01*
X2428754Y3160195D01*
X2428564Y3158604D01*
X2428251Y3157032D01*
Y3147795D01*
X2385669D01*
Y2915197D01*
X2527716D01*
Y2947319D01*
X2529485Y2947671D01*
X2531267Y2947957D01*
X2531430Y2948057D01*
X2531618Y2948095D01*
X2533118Y2949097D01*
X2534654Y2950043D01*
X2700964Y3104463D01*
X2705547Y3102464D01*
Y3043140D01*
X2742043D01*
Y3117037D01*
X2721346D01*
X2719519Y3121691D01*
X2737841Y3138704D01*
X3081886D01*
X3085788Y3139480D01*
X3089096Y3141691D01*
X3091306Y3144998D01*
X3092082Y3148900D01*
Y3780628D01*
X3091306Y3784530D01*
X3089096Y3787837D01*
X3085788Y3790048D01*
X3081886Y3790824D01*
D02*
G37*
G36*
X1426024Y3901162D02*
X913094D01*
X907656Y3900080D01*
X903046Y3896999D01*
X811508Y3805461D01*
X356457D01*
Y3832747D01*
X273465D01*
Y3749755D01*
X356457D01*
Y3777041D01*
X644831D01*
X647217Y3774135D01*
Y3618549D01*
X647194D01*
X639901Y3615528D01*
X637290Y3612916D01*
X568147D01*
X528198Y3652865D01*
X530269Y3657865D01*
X537866D01*
X550172Y3661163D01*
X561206Y3667533D01*
X570214Y3676542D01*
X576585Y3687575D01*
X579882Y3699881D01*
Y3701252D01*
X531496D01*
Y3706252D01*
X526496D01*
Y3754637D01*
X525126D01*
X512820Y3751340D01*
X501786Y3744970D01*
X492778Y3735961D01*
X486408Y3724927D01*
X483110Y3712621D01*
Y3704914D01*
X482631Y3704396D01*
X478110Y3702405D01*
X475154Y3704380D01*
X469716Y3705461D01*
X354113D01*
X353629Y3707268D01*
X348166Y3716731D01*
X340440Y3724456D01*
X330978Y3729919D01*
X320424Y3732747D01*
X309498D01*
X298944Y3729919D01*
X289481Y3724456D01*
X281755Y3716731D01*
X276293Y3707268D01*
X273465Y3696714D01*
Y3685788D01*
X276293Y3675234D01*
X281755Y3665772D01*
X289481Y3658046D01*
X298944Y3652583D01*
X309498Y3649755D01*
X320424D01*
X330978Y3652583D01*
X340440Y3658046D01*
X348166Y3665772D01*
X353629Y3675234D01*
X354113Y3677041D01*
X463830D01*
X552213Y3588658D01*
X556823Y3585578D01*
X562261Y3584496D01*
X562262Y3584496D01*
X637290D01*
X639901Y3581885D01*
X647194Y3578864D01*
X647217D01*
Y3142407D01*
X647993Y3138505D01*
X650203Y3135198D01*
X653511Y3132987D01*
X657413Y3132211D01*
X800681D01*
X825153Y3109488D01*
X823190Y3104488D01*
X823038Y3104488D01*
Y3104488D01*
X822767Y3104488D01*
X790000D01*
Y3030591D01*
X826495D01*
X826496Y3100858D01*
Y3101261D01*
D01*
X826496Y3101419D01*
X827012Y3101644D01*
X831495Y3103599D01*
X893204Y3046303D01*
X925245Y3014262D01*
X931446Y3009503D01*
X933957Y3008463D01*
X995440Y2951375D01*
X996976Y2950429D01*
X998476Y2949427D01*
X998664Y2949390D01*
X998828Y2949289D01*
X1000609Y2949003D01*
X1002378Y2948651D01*
Y2919134D01*
X1144425D01*
Y3151732D01*
X1114563D01*
X1109625Y3152561D01*
X1109191Y3154082D01*
X1108883Y3155634D01*
X1108649Y3155983D01*
X1108534Y3156387D01*
X1056396Y3258005D01*
X1060144Y3261654D01*
X1063352D01*
X1233821Y3091184D01*
Y2861249D01*
X1234903Y2855812D01*
X1237983Y2851202D01*
X1472756Y2616429D01*
X1477366Y2613349D01*
X1482804Y2612267D01*
X2450807D01*
X2840121Y2222953D01*
Y1476378D01*
X2841202Y1470940D01*
X2844283Y1466330D01*
X3352944Y957668D01*
X3357554Y954588D01*
X3362992Y953506D01*
X3563210D01*
X3563694Y951700D01*
X3569157Y942237D01*
X3576883Y934511D01*
X3586345Y929048D01*
X3596899Y926221D01*
X3607825D01*
X3618379Y929048D01*
X3627841Y934511D01*
X3632589Y939259D01*
X3637589Y937188D01*
Y923039D01*
X3619999Y905449D01*
X3618379Y906385D01*
X3607825Y909212D01*
X3596899D01*
X3586345Y906385D01*
X3576883Y900922D01*
X3569157Y893196D01*
X3563694Y883733D01*
X3560866Y873180D01*
Y862253D01*
X3563694Y851700D01*
X3569157Y842237D01*
X3576883Y834511D01*
X3586345Y829048D01*
X3596899Y826221D01*
X3607825D01*
X3618379Y829048D01*
X3627841Y834511D01*
X3635567Y842237D01*
X3641030Y851700D01*
X3643858Y862253D01*
Y873180D01*
X3641030Y883733D01*
X3640095Y885353D01*
X3661847Y907105D01*
X3664927Y911715D01*
X3666009Y917153D01*
Y938315D01*
X3671009Y940386D01*
X3676883Y934511D01*
X3686345Y929048D01*
X3696899Y926221D01*
X3707825D01*
X3718379Y929048D01*
X3727841Y934511D01*
X3728927Y935597D01*
X3733547Y933684D01*
Y921835D01*
X3718156Y906444D01*
X3707825Y909212D01*
X3696899D01*
X3686345Y906385D01*
X3676883Y900922D01*
X3669157Y893196D01*
X3663694Y883733D01*
X3660866Y873180D01*
Y862253D01*
X3663694Y851700D01*
X3669157Y842237D01*
X3676883Y834511D01*
X3686345Y829048D01*
X3696899Y826221D01*
X3707825D01*
X3718379Y829048D01*
X3727841Y834511D01*
X3735567Y842237D01*
X3741030Y851700D01*
X3743858Y862253D01*
Y873180D01*
X3741090Y883510D01*
X3761231Y903651D01*
X3764746Y908912D01*
X3765981Y915118D01*
Y3025912D01*
X3770981Y3028403D01*
X3773153Y3026763D01*
X3773153Y861442D01*
X3718156Y806444D01*
X3707825Y809212D01*
X3696899D01*
X3686345Y806385D01*
X3676883Y800922D01*
X3669157Y793196D01*
X3663694Y783733D01*
X3660866Y773180D01*
Y762253D01*
X3663694Y751700D01*
X3669157Y742237D01*
X3676883Y734511D01*
X3686345Y729048D01*
X3696899Y726221D01*
X3707825D01*
X3718379Y729048D01*
X3727841Y734511D01*
X3735567Y742237D01*
X3741030Y751700D01*
X3743858Y762253D01*
Y773180D01*
X3741090Y783510D01*
X3800837Y843257D01*
X3804353Y848518D01*
X3805587Y854724D01*
X3805587Y3035669D01*
X3804806Y3039599D01*
X3809414Y3042061D01*
X3822365Y3029110D01*
X3822365Y810654D01*
X3718156Y706444D01*
X3707825Y709212D01*
X3696899D01*
X3686345Y706385D01*
X3676883Y700922D01*
X3669157Y693196D01*
X3663694Y683733D01*
X3660866Y673180D01*
Y662253D01*
X3663694Y651700D01*
X3669157Y642237D01*
X3676883Y634511D01*
X3686345Y629048D01*
X3696899Y626221D01*
X3707825D01*
X3718379Y629048D01*
X3727841Y634511D01*
X3735567Y642237D01*
X3741030Y651700D01*
X3743858Y662253D01*
Y673180D01*
X3741090Y683510D01*
X3850050Y792470D01*
X3853565Y797731D01*
X3854800Y803937D01*
X3854800Y3025372D01*
X3859800Y3027887D01*
X3861736Y3026449D01*
X3861736Y750024D01*
X3718156Y606444D01*
X3707825Y609212D01*
X3696899D01*
X3686345Y606385D01*
X3676883Y600922D01*
X3669157Y593196D01*
X3663694Y583733D01*
X3660866Y573180D01*
Y562253D01*
X3663694Y551700D01*
X3669157Y542237D01*
X3676883Y534511D01*
X3686345Y529048D01*
X3696899Y526221D01*
X3707825D01*
X3718379Y529048D01*
X3727841Y534511D01*
X3735567Y542237D01*
X3741030Y551700D01*
X3743858Y562253D01*
Y573180D01*
X3741090Y583510D01*
X3889420Y731840D01*
X3892935Y737101D01*
X3894170Y743307D01*
X3894170Y3035827D01*
X3892935Y3042033D01*
X3889420Y3047294D01*
X3781965Y3154749D01*
Y3233520D01*
X3780731Y3239726D01*
X3778754Y3242684D01*
Y3256758D01*
X3783702Y3259465D01*
X3784370Y3259332D01*
Y3286339D01*
X3794370D01*
Y3259332D01*
X3795038Y3259465D01*
X3797535Y3261134D01*
X3801181Y3262262D01*
X3804827Y3261134D01*
X3807324Y3259465D01*
X3807992Y3259332D01*
Y3286338D01*
Y3313345D01*
X3807324Y3313212D01*
X3804827Y3311544D01*
X3804720Y3311511D01*
X3803772Y3312087D01*
X3803014Y3318401D01*
X3861559Y3376945D01*
X3864378Y3381165D01*
X3865368Y3386142D01*
Y3466874D01*
X3864378Y3471851D01*
X3861559Y3476071D01*
X3702721Y3634909D01*
Y3641153D01*
X3705732Y3641960D01*
X3715194Y3647423D01*
X3722920Y3655148D01*
X3728383Y3664611D01*
X3731211Y3675165D01*
Y3686091D01*
X3728383Y3696645D01*
X3722920Y3706107D01*
X3715194Y3713833D01*
X3705732Y3719296D01*
X3695178Y3722124D01*
X3684252D01*
X3673698Y3719296D01*
X3664236Y3713833D01*
X3659738Y3709335D01*
X3654738Y3711406D01*
Y3727258D01*
X3670999Y3743518D01*
X3673698Y3741960D01*
X3684252Y3739132D01*
X3695178D01*
X3705732Y3741960D01*
X3715194Y3747423D01*
X3722920Y3755148D01*
X3728383Y3764611D01*
X3731211Y3775165D01*
Y3786091D01*
X3728383Y3796645D01*
X3722920Y3806107D01*
X3715194Y3813833D01*
X3705732Y3819296D01*
X3695178Y3822124D01*
X3684252D01*
X3673698Y3819296D01*
X3664236Y3813833D01*
X3656510Y3806107D01*
X3651047Y3796645D01*
X3648219Y3786091D01*
Y3775165D01*
X3651047Y3764611D01*
X3652606Y3761911D01*
X3632536Y3741841D01*
X3629716Y3737622D01*
X3628727Y3732645D01*
Y3706050D01*
X3623727Y3704710D01*
X3622920Y3706107D01*
X3615194Y3713833D01*
X3605732Y3719296D01*
X3595178Y3722124D01*
X3584252D01*
X3573698Y3719296D01*
X3564236Y3713833D01*
X3559541Y3709138D01*
X3554541Y3711209D01*
Y3727061D01*
X3570999Y3743518D01*
X3573698Y3741960D01*
X3584252Y3739132D01*
X3595178D01*
X3605732Y3741960D01*
X3615194Y3747423D01*
X3622920Y3755148D01*
X3628383Y3764611D01*
X3631211Y3775165D01*
Y3786091D01*
X3628383Y3796645D01*
X3622920Y3806107D01*
X3615194Y3813833D01*
X3605732Y3819296D01*
X3595178Y3822124D01*
X3584252D01*
X3573698Y3819296D01*
X3564236Y3813833D01*
X3556510Y3806107D01*
X3551047Y3796645D01*
X3548219Y3786091D01*
Y3775165D01*
X3551047Y3764611D01*
X3552606Y3761911D01*
X3532339Y3741645D01*
X3529520Y3737425D01*
X3528530Y3732448D01*
Y3722124D01*
X3456675D01*
X3454604Y3727124D01*
X3470999Y3743518D01*
X3473698Y3741960D01*
X3484252Y3739132D01*
X3495178D01*
X3505732Y3741960D01*
X3515194Y3747423D01*
X3522920Y3755148D01*
X3528383Y3764611D01*
X3531211Y3775165D01*
Y3786091D01*
X3528383Y3796645D01*
X3522920Y3806107D01*
X3515194Y3813833D01*
X3505732Y3819296D01*
X3495178Y3822124D01*
X3484252D01*
X3473698Y3819296D01*
X3464236Y3813833D01*
X3456510Y3806107D01*
X3451047Y3796645D01*
X3448219Y3786091D01*
Y3775165D01*
X3451047Y3764611D01*
X3452606Y3761911D01*
X3430519Y3739824D01*
X3427699Y3735605D01*
X3426709Y3730628D01*
Y3518055D01*
X3427699Y3513078D01*
X3430519Y3508859D01*
X3633111Y3306267D01*
Y3258622D01*
X3634632D01*
Y3242684D01*
X3632655Y3239726D01*
X3631421Y3233520D01*
Y3090551D01*
X3632655Y3084345D01*
X3636171Y3079084D01*
X3686145Y3029110D01*
Y1006269D01*
X3676883Y1000922D01*
X3671009Y995047D01*
X3666009Y997118D01*
Y1052925D01*
X3666009Y1052926D01*
X3664927Y1058364D01*
X3661847Y1062974D01*
X3201061Y1523760D01*
Y3447743D01*
X3238394Y3485077D01*
X3241475Y3489687D01*
X3242557Y3495125D01*
Y3652863D01*
X3244363Y3653347D01*
X3253826Y3658811D01*
X3261552Y3666536D01*
X3267015Y3675999D01*
X3269843Y3686552D01*
Y3697479D01*
X3267015Y3708032D01*
X3261552Y3717495D01*
X3253826Y3725221D01*
X3244363Y3730684D01*
X3233810Y3733512D01*
X3222883D01*
X3212330Y3730684D01*
X3210710Y3729748D01*
X3194558Y3745900D01*
X3196471Y3750520D01*
X3269843D01*
Y3833512D01*
X3206947D01*
X3178314Y3862144D01*
X3173704Y3865225D01*
X3168266Y3866306D01*
X2802682D01*
X2797244Y3865225D01*
X2792634Y3862144D01*
X2687417Y3756927D01*
X2564310D01*
X2560775Y3760462D01*
X2560775Y3766496D01*
X2560775Y3771496D01*
Y3787716D01*
X2520755D01*
Y3797716D01*
X2560775D01*
Y3813937D01*
X2560775Y3816496D01*
X2560775Y3821496D01*
Y3866496D01*
X2480735D01*
Y3851059D01*
X2475945D01*
X2469739Y3849825D01*
X2464477Y3846310D01*
X2449163Y3830995D01*
X2445647Y3825734D01*
X2444413Y3819528D01*
Y3630233D01*
X2445647Y3624027D01*
X2449163Y3618766D01*
X2463039Y3604890D01*
Y3576329D01*
X2518472D01*
Y3623887D01*
X2489910D01*
X2476847Y3636950D01*
Y3666253D01*
X2480735Y3668937D01*
X2481847Y3668937D01*
X2560775D01*
Y3678506D01*
X2688070D01*
X2693508Y3679588D01*
X2698118Y3682669D01*
X2820767Y3805318D01*
X3094948D01*
X3190614Y3709652D01*
X3189678Y3708032D01*
X3186851Y3697479D01*
Y3686552D01*
X3189678Y3675999D01*
X3195141Y3666536D01*
X3202867Y3658811D01*
X3212330Y3653347D01*
X3214137Y3652863D01*
Y3501011D01*
X3176802Y3463677D01*
X3173722Y3459067D01*
X3172640Y3453629D01*
Y1517874D01*
X3173722Y1512436D01*
X3176802Y1507826D01*
X3637589Y1047040D01*
Y998245D01*
X3632589Y996174D01*
X3627841Y1000922D01*
X3618379Y1006385D01*
X3607825Y1009212D01*
X3596899D01*
X3586345Y1006385D01*
X3576883Y1000922D01*
X3569157Y993196D01*
X3563694Y983733D01*
X3563210Y981927D01*
X3368878D01*
X2868541Y1482264D01*
Y2228839D01*
X2867459Y2234277D01*
X2864379Y2238887D01*
X2466741Y2636525D01*
X2462131Y2639605D01*
X2456693Y2640687D01*
X1488690D01*
X1262241Y2867135D01*
Y3097070D01*
X1261160Y3102508D01*
X1258079Y3107118D01*
X1083448Y3281750D01*
Y3285443D01*
X1080427Y3292736D01*
X1074845Y3298318D01*
X1067552Y3301339D01*
X1059658D01*
X1052365Y3298318D01*
X1046784Y3292736D01*
X1045628Y3289945D01*
X1040123Y3289721D01*
X997761Y3372284D01*
X1000368Y3376551D01*
X1022110D01*
Y3410094D01*
X991519D01*
Y3395097D01*
X986658Y3393923D01*
X792276Y3772774D01*
X794883Y3777041D01*
X817394D01*
X822832Y3778123D01*
X827442Y3781203D01*
X918980Y3872742D01*
X938369D01*
Y3843750D01*
X973960D01*
Y3833750D01*
X938369D01*
Y3800207D01*
X971275D01*
X973188Y3795588D01*
X962492Y3784892D01*
X958977Y3779630D01*
X957742Y3773424D01*
Y3544189D01*
X958977Y3537983D01*
X962492Y3532721D01*
X1036957Y3458257D01*
X1035043Y3453638D01*
X1032110D01*
Y3415094D01*
Y3376551D01*
X1062699D01*
X1062699Y3376551D01*
X1064511D01*
Y3376551D01*
X1067700Y3376551D01*
X1086527D01*
X1087601Y3371154D01*
X1087663Y3371062D01*
X1087047Y3368765D01*
Y3359550D01*
X1089432Y3350648D01*
X1094040Y3342667D01*
X1100557Y3336150D01*
X1108538Y3331543D01*
X1117439Y3329157D01*
X1126655D01*
X1135557Y3331543D01*
X1143538Y3336150D01*
X1150054Y3342667D01*
X1154662Y3350648D01*
X1157047Y3359550D01*
Y3368765D01*
X1154662Y3377667D01*
X1150518Y3384845D01*
X1152172Y3389845D01*
X1174606D01*
Y3369740D01*
X1200551D01*
Y3368756D01*
X1236240D01*
Y3368324D01*
X1237260Y3360575D01*
X1237835Y3359186D01*
Y3296781D01*
X1238612Y3292880D01*
X1240822Y3289572D01*
X1244130Y3287362D01*
X1248031Y3286586D01*
X1541860D01*
X1545762Y3287362D01*
X1549070Y3289572D01*
X1586923Y3327425D01*
X1591542Y3325511D01*
Y3314705D01*
X1591513Y3314571D01*
X1590464Y3313041D01*
X1586666Y3310530D01*
X1586559Y3310506D01*
X1586449Y3310523D01*
X1584620Y3310077D01*
X1582782Y3309671D01*
X1582691Y3309608D01*
X1582584Y3309582D01*
X1581065Y3308470D01*
X1579522Y3307391D01*
X1579462Y3307298D01*
X1579373Y3307233D01*
X1447108Y3163206D01*
X1446131Y3161599D01*
X1445117Y3160010D01*
X1445098Y3159902D01*
X1445041Y3159808D01*
X1444753Y3157947D01*
X1444425Y3156093D01*
X1444063Y3155451D01*
X1441290Y3152245D01*
X1440268Y3151732D01*
X1392142D01*
Y2919134D01*
X1534189D01*
Y2995674D01*
X1534260Y2995910D01*
X1535517Y2997484D01*
X1539189Y2999766D01*
X1539305Y2999748D01*
X1539514Y2999798D01*
X1539726Y2999774D01*
X1541440Y3000265D01*
X1543172Y3000685D01*
X1543344Y3000811D01*
X1543551Y3000870D01*
X1544945Y3001979D01*
X1546385Y3003030D01*
X1546497Y3003213D01*
X1546664Y3003346D01*
X1699046Y3183290D01*
X1699911Y3184849D01*
X1700839Y3186370D01*
X1700872Y3186581D01*
X1700976Y3186769D01*
X1701178Y3188540D01*
X1701453Y3190300D01*
X1702350Y3191610D01*
X1704996Y3194158D01*
X1705601Y3194415D01*
X1749337D01*
Y3354179D01*
X1749338Y3354179D01*
Y3357801D01*
X1749338D01*
X1749337Y3359179D01*
Y3517565D01*
X1591542D01*
Y3505017D01*
X1586542Y3502773D01*
X1582068Y3506206D01*
X1574847Y3509197D01*
X1567098Y3510217D01*
X1559348Y3509197D01*
X1552127Y3506206D01*
X1545926Y3501447D01*
X1541168Y3495246D01*
X1538177Y3488025D01*
X1537157Y3480276D01*
Y3467518D01*
X1534771Y3466530D01*
X1528570Y3461772D01*
X1514456Y3447658D01*
X1505303D01*
Y3434535D01*
X1504099Y3431628D01*
X1503078Y3423878D01*
X1504050Y3416497D01*
X1503999Y3415997D01*
X1500605Y3411497D01*
X1482441D01*
Y3418878D01*
X1456693D01*
X1430945D01*
Y3411497D01*
X1405669D01*
Y3420197D01*
X1350236D01*
Y3401417D01*
X1370415D01*
X1372329Y3396798D01*
X1359389Y3383858D01*
X1350236D01*
Y3376398D01*
X1337109D01*
X1321457Y3376535D01*
Y3383597D01*
X1302598D01*
Y3393597D01*
X1321457D01*
Y3409189D01*
X1302598D01*
Y3419189D01*
X1321457D01*
Y3420921D01*
Y3434779D01*
X1302598D01*
Y3444779D01*
X1321457D01*
Y3446512D01*
Y3484228D01*
X1318815D01*
Y3526339D01*
X1326929D01*
Y3573898D01*
X1271496D01*
Y3539369D01*
X1266877Y3537455D01*
X1211875Y3592457D01*
X1209700Y3593910D01*
Y3617857D01*
X1230520Y3638677D01*
X1233601Y3643287D01*
X1234682Y3648725D01*
Y3725543D01*
X1233601Y3730981D01*
X1230520Y3735591D01*
X1213347Y3752765D01*
X1208736Y3755845D01*
X1203299Y3756927D01*
X1201862D01*
Y3766496D01*
X1201862Y3766496D01*
Y3768937D01*
X1201862D01*
X1201862Y3771496D01*
Y3816496D01*
X1201862D01*
Y3818937D01*
X1201862D01*
Y3866496D01*
X1121822D01*
Y3858934D01*
X1082542D01*
Y3872742D01*
X1420139D01*
X1449063Y3843817D01*
Y3789151D01*
X1420405Y3760493D01*
X1415405Y3762564D01*
X1415405Y3766496D01*
X1415405Y3771496D01*
Y3787716D01*
X1375386D01*
Y3797716D01*
X1415405D01*
Y3816496D01*
X1415405Y3816496D01*
Y3818937D01*
X1415405D01*
X1415405Y3821496D01*
Y3866496D01*
X1335366D01*
Y3839033D01*
X1289165Y3792832D01*
X1286084Y3788222D01*
X1285003Y3782784D01*
Y3637953D01*
X1271496D01*
Y3590394D01*
X1326929D01*
Y3628883D01*
X1330718D01*
X1338012Y3631904D01*
X1343593Y3637485D01*
X1346614Y3644778D01*
Y3652672D01*
X1344495Y3657787D01*
Y3657970D01*
X1355462Y3668937D01*
X1415405D01*
Y3713937D01*
X1415405Y3716496D01*
X1415405Y3721496D01*
Y3728506D01*
X1422725D01*
X1428163Y3729588D01*
X1432773Y3732669D01*
X1473321Y3773216D01*
X1476401Y3777827D01*
X1477483Y3783265D01*
Y3849703D01*
X1476401Y3855141D01*
X1473321Y3859751D01*
X1436072Y3896999D01*
X1431462Y3900080D01*
X1426024Y3901162D01*
D02*
G37*
G36*
X3795178Y3822124D02*
X3784252D01*
X3773698Y3819296D01*
X3764236Y3813833D01*
X3756510Y3806107D01*
X3751047Y3796645D01*
X3748219Y3786091D01*
Y3775165D01*
X3751047Y3764611D01*
X3756510Y3755148D01*
X3764236Y3747423D01*
X3773698Y3741960D01*
X3784252Y3739132D01*
X3795178D01*
X3805732Y3741960D01*
X3815194Y3747423D01*
X3822920Y3755148D01*
X3828383Y3764611D01*
X3831211Y3775165D01*
Y3786091D01*
X3828383Y3796645D01*
X3822920Y3806107D01*
X3815194Y3813833D01*
X3805732Y3819296D01*
X3795178Y3822124D01*
D02*
G37*
G36*
X1690992Y3768858D02*
X1689622D01*
Y3725472D01*
X1733008D01*
Y3726843D01*
X1729710Y3739149D01*
X1723340Y3750182D01*
X1714332Y3759191D01*
X1703298Y3765561D01*
X1690992Y3768858D01*
D02*
G37*
G36*
X1679622D02*
X1678252D01*
X1665946Y3765561D01*
X1654912Y3759191D01*
X1645904Y3750182D01*
X1639534Y3739149D01*
X1636236Y3726843D01*
Y3725472D01*
X1679622D01*
Y3768858D01*
D02*
G37*
G36*
X2821331Y3755401D02*
X2819960D01*
Y3712015D01*
X2863346D01*
Y3713386D01*
X2860049Y3725692D01*
X2853679Y3736725D01*
X2844670Y3745734D01*
X2833637Y3752104D01*
X2821331Y3755401D01*
D02*
G37*
G36*
X2809960D02*
X2808590D01*
X2796284Y3752104D01*
X2785251Y3745734D01*
X2776242Y3736725D01*
X2769872Y3725692D01*
X2766575Y3713386D01*
Y3712015D01*
X2809960D01*
Y3755401D01*
D02*
G37*
G36*
X537866Y3754637D02*
X536496D01*
Y3711252D01*
X579882D01*
Y3712621D01*
X576585Y3724927D01*
X570214Y3735961D01*
X561206Y3744970D01*
X550172Y3751340D01*
X537866Y3754637D01*
D02*
G37*
G36*
X3795178Y3722124D02*
X3794715D01*
Y3685628D01*
X3831211D01*
Y3686091D01*
X3828383Y3696645D01*
X3822920Y3706107D01*
X3815194Y3713833D01*
X3805732Y3719296D01*
X3795178Y3722124D01*
D02*
G37*
G36*
X3784715D02*
X3784252D01*
X3773698Y3719296D01*
X3764236Y3713833D01*
X3756510Y3706107D01*
X3751047Y3696645D01*
X3748219Y3686091D01*
Y3685628D01*
X3784715D01*
Y3722124D01*
D02*
G37*
G36*
X1733008Y3715472D02*
X1689622D01*
Y3672087D01*
X1690992D01*
X1703298Y3675384D01*
X1714332Y3681754D01*
X1723340Y3690763D01*
X1729710Y3701796D01*
X1733008Y3714102D01*
Y3715472D01*
D02*
G37*
G36*
X1679622D02*
X1636236D01*
Y3714102D01*
X1639534Y3701796D01*
X1645904Y3690763D01*
X1654912Y3681754D01*
X1665946Y3675384D01*
X1678252Y3672087D01*
X1679622D01*
Y3715472D01*
D02*
G37*
G36*
X2863346Y3702015D02*
X2819960D01*
Y3658630D01*
X2821331D01*
X2833637Y3661927D01*
X2844670Y3668297D01*
X2853679Y3677306D01*
X2860049Y3688339D01*
X2863346Y3700646D01*
Y3702015D01*
D02*
G37*
G36*
X2809960D02*
X2766575D01*
Y3700646D01*
X2769872Y3688339D01*
X2776242Y3677306D01*
X2785251Y3668297D01*
X2796284Y3661927D01*
X2808590Y3658630D01*
X2809960D01*
Y3702015D01*
D02*
G37*
G36*
X3831211Y3675628D02*
X3794715D01*
Y3639132D01*
X3795178D01*
X3805732Y3641960D01*
X3815194Y3647423D01*
X3822920Y3655148D01*
X3828383Y3664611D01*
X3831211Y3675165D01*
Y3675628D01*
D02*
G37*
G36*
X3784715D02*
X3748219D01*
Y3675165D01*
X3751047Y3664611D01*
X3756510Y3655148D01*
X3764236Y3647423D01*
X3773698Y3641960D01*
X3784252Y3639132D01*
X3784715D01*
Y3675628D01*
D02*
G37*
G36*
X2329646Y3501751D02*
X2296102D01*
Y3471161D01*
X2329646D01*
Y3501751D01*
D02*
G37*
G36*
X1405669Y3448976D02*
X1382953D01*
Y3430197D01*
X1405669D01*
Y3448976D01*
D02*
G37*
G36*
X1372953D02*
X1350236D01*
Y3430197D01*
X1372953D01*
Y3448976D01*
D02*
G37*
G36*
X1482441Y3446673D02*
X1461693D01*
Y3428878D01*
X1482441D01*
Y3446673D01*
D02*
G37*
G36*
X1451693D02*
X1430945D01*
Y3428878D01*
X1451693D01*
Y3446673D01*
D02*
G37*
G36*
X1022110Y3453638D02*
X991519D01*
Y3420094D01*
X1022110D01*
Y3453638D01*
D02*
G37*
G36*
X2169698Y3434834D02*
X2146981D01*
Y3416055D01*
X2169698D01*
Y3434834D01*
D02*
G37*
G36*
X2136981D02*
X2114265D01*
Y3416055D01*
X2136981D01*
Y3434834D01*
D02*
G37*
G36*
X2083297Y3420433D02*
X2062549D01*
Y3402638D01*
X2083297D01*
Y3420433D01*
D02*
G37*
G36*
X2052549D02*
X2031801D01*
Y3402638D01*
X2052549D01*
Y3420433D01*
D02*
G37*
G36*
X2548088Y3376890D02*
X2534230D01*
Y3363032D01*
X2548088D01*
Y3376890D01*
D02*
G37*
G36*
X3356849Y3478504D02*
X3351457D01*
Y3351457D01*
X3478504D01*
Y3356849D01*
X3475253Y3377378D01*
X3468830Y3397145D01*
X3459394Y3415665D01*
X3447177Y3432480D01*
X3432480Y3447177D01*
X3415665Y3459394D01*
X3397145Y3468830D01*
X3377378Y3475253D01*
X3356849Y3478504D01*
D02*
G37*
G36*
X3341457D02*
X3336064D01*
X3315536Y3475253D01*
X3295768Y3468830D01*
X3277249Y3459394D01*
X3260434Y3447177D01*
X3245737Y3432480D01*
X3233520Y3415665D01*
X3224084Y3397145D01*
X3217661Y3377378D01*
X3214410Y3356849D01*
Y3351457D01*
X3341457D01*
Y3478504D01*
D02*
G37*
G36*
X207243Y3478504D02*
X201850D01*
Y3351457D01*
X328898D01*
Y3356849D01*
X325646Y3377378D01*
X319223Y3397145D01*
X309787Y3415664D01*
X297570Y3432480D01*
X282873Y3447177D01*
X266058Y3459394D01*
X247539Y3468830D01*
X227772Y3475252D01*
X207243Y3478504D01*
D02*
G37*
G36*
X191850D02*
X186458D01*
X165929Y3475252D01*
X146162Y3468830D01*
X127643Y3459394D01*
X110827Y3447177D01*
X96130Y3432480D01*
X83913Y3415664D01*
X74478Y3397145D01*
X68055Y3377378D01*
X64803Y3356849D01*
Y3351457D01*
X191850D01*
Y3478504D01*
D02*
G37*
G36*
X3817992Y3313345D02*
Y3291338D01*
X3827804D01*
Y3299528D01*
X3826677Y3305196D01*
X3823466Y3310001D01*
X3818660Y3313212D01*
X3817992Y3313345D01*
D02*
G37*
G36*
X3827804Y3281338D02*
X3817992D01*
Y3259332D01*
X3818660Y3259465D01*
X3823466Y3262676D01*
X3826677Y3267481D01*
X3827804Y3273150D01*
Y3281338D01*
D02*
G37*
G36*
X3478504Y3341457D02*
X3351457D01*
Y3214410D01*
X3356849D01*
X3377378Y3217661D01*
X3397145Y3224084D01*
X3415665Y3233520D01*
X3432480Y3245737D01*
X3447177Y3260434D01*
X3459394Y3277249D01*
X3468830Y3295768D01*
X3475253Y3315536D01*
X3478504Y3336064D01*
Y3341457D01*
D02*
G37*
G36*
X3341457D02*
X3214410D01*
Y3336064D01*
X3217661Y3315536D01*
X3224084Y3295768D01*
X3233520Y3277249D01*
X3245737Y3260434D01*
X3260434Y3245737D01*
X3277249Y3233520D01*
X3295768Y3224084D01*
X3315536Y3217661D01*
X3336064Y3214410D01*
X3341457D01*
Y3341457D01*
D02*
G37*
G36*
X328898Y3341457D02*
X201850D01*
Y3214410D01*
X207243D01*
X227772Y3217661D01*
X247539Y3224084D01*
X266058Y3233520D01*
X282873Y3245737D01*
X297570Y3260434D01*
X309787Y3277249D01*
X319223Y3295768D01*
X325646Y3315536D01*
X328898Y3336064D01*
Y3341457D01*
D02*
G37*
G36*
X191850D02*
X64803D01*
Y3336064D01*
X68055Y3315536D01*
X74478Y3295768D01*
X83913Y3277249D01*
X96130Y3260434D01*
X110827Y3245737D01*
X127643Y3233520D01*
X146162Y3224084D01*
X165929Y3217661D01*
X186458Y3214410D01*
X191850D01*
Y3341457D01*
D02*
G37*
G36*
X2788539Y3117037D02*
X2752043D01*
Y3043140D01*
X2788539D01*
Y3117037D01*
D02*
G37*
G36*
X780000Y3104488D02*
X743504D01*
Y3030591D01*
X780000D01*
Y3104488D01*
D02*
G37*
G36*
X1776261Y3184606D02*
X1767046D01*
X1758144Y3182221D01*
X1750163Y3177613D01*
X1743647Y3171097D01*
X1739039Y3163116D01*
X1736653Y3154214D01*
Y3144999D01*
X1739039Y3136097D01*
X1739627Y3135079D01*
X1736740Y3130079D01*
X1730158D01*
Y2972284D01*
X1813149D01*
Y3130079D01*
X1806567D01*
X1803680Y3135079D01*
X1804268Y3136097D01*
X1806653Y3144999D01*
Y3154214D01*
X1804268Y3163116D01*
X1799660Y3171097D01*
X1793144Y3177613D01*
X1785163Y3182221D01*
X1776261Y3184606D01*
D02*
G37*
G36*
X2788539Y3033140D02*
X2752043D01*
Y2959242D01*
X2788539D01*
Y3033140D01*
D02*
G37*
G36*
X2742043D02*
X2705547D01*
Y2959242D01*
X2742043D01*
Y3033140D01*
D02*
G37*
G36*
X826495Y3020591D02*
X790000D01*
Y2946693D01*
X826495D01*
Y3020591D01*
D02*
G37*
G36*
X780000D02*
X743504D01*
Y2946693D01*
X780000D01*
Y3020591D01*
D02*
G37*
G36*
X1813149Y2921417D02*
X1776653D01*
Y2847520D01*
X1813149D01*
Y2921417D01*
D02*
G37*
G36*
X1766653D02*
X1730158D01*
Y2847520D01*
X1766653D01*
Y2921417D01*
D02*
G37*
G36*
X1813149Y2837520D02*
X1776653D01*
Y2763622D01*
X1813149D01*
Y2837520D01*
D02*
G37*
G36*
X1766653D02*
X1730158D01*
Y2763622D01*
X1766653D01*
Y2837520D01*
D02*
G37*
G36*
X2687558Y2809213D02*
X2682165D01*
Y2682165D01*
X2809213D01*
Y2687558D01*
X2805961Y2708086D01*
X2799538Y2727854D01*
X2790102Y2746373D01*
X2777885Y2763188D01*
X2763188Y2777885D01*
X2746373Y2790102D01*
X2727854Y2799538D01*
X2708086Y2805961D01*
X2687558Y2809213D01*
D02*
G37*
G36*
X2672165D02*
X2666773D01*
X2646244Y2805961D01*
X2626477Y2799538D01*
X2607958Y2790102D01*
X2591142Y2777885D01*
X2576445Y2763188D01*
X2564229Y2746373D01*
X2554793Y2727854D01*
X2548370Y2708086D01*
X2545118Y2687558D01*
Y2682165D01*
X2672165D01*
Y2809213D01*
D02*
G37*
G36*
X876534D02*
X871142D01*
Y2682165D01*
X998189D01*
Y2687558D01*
X994937Y2708086D01*
X988515Y2727854D01*
X979079Y2746373D01*
X966862Y2763188D01*
X952165Y2777885D01*
X935350Y2790102D01*
X916830Y2799538D01*
X897063Y2805961D01*
X876534Y2809213D01*
D02*
G37*
G36*
X861142D02*
X855749D01*
X835221Y2805961D01*
X815453Y2799538D01*
X796934Y2790102D01*
X780119Y2777885D01*
X765422Y2763188D01*
X753205Y2746373D01*
X743769Y2727854D01*
X737346Y2708086D01*
X734095Y2687558D01*
Y2682165D01*
X861142D01*
Y2809213D01*
D02*
G37*
G36*
X2373574Y2571107D02*
X2360631Y2571097D01*
X2360630Y2571097D01*
X2360629Y2571097D01*
X2166929Y2571097D01*
X2153985Y2571097D01*
X2153206Y2570943D01*
X2152414Y2570994D01*
X2126747Y2567616D01*
X2125995Y2567360D01*
X2125202Y2567308D01*
X2100196Y2560608D01*
X2099483Y2560257D01*
X2098704Y2560102D01*
X2074787Y2550195D01*
X2074127Y2549754D01*
X2073374Y2549498D01*
X2050955Y2536554D01*
X2050358Y2536031D01*
X2049645Y2535679D01*
X2029107Y2519920D01*
X2028583Y2519323D01*
X2027922Y2518881D01*
X2009617Y2500576D01*
X2009175Y2499915D01*
X2008578Y2499391D01*
X1992819Y2478853D01*
X1992467Y2478140D01*
X1991943Y2477543D01*
X1979000Y2455124D01*
X1978744Y2454371D01*
X1978303Y2453711D01*
X1968396Y2429793D01*
X1968241Y2429014D01*
X1967890Y2428302D01*
X1961190Y2403296D01*
X1961138Y2402503D01*
X1960882Y2401751D01*
X1957504Y2376084D01*
X1957556Y2375292D01*
X1957401Y2374512D01*
X1957401Y2361568D01*
Y1181108D01*
X1957401Y1168164D01*
X1957556Y1167384D01*
X1957504Y1166592D01*
X1960883Y1140925D01*
X1961138Y1140173D01*
X1961190Y1139380D01*
X1967890Y1114375D01*
X1968242Y1113662D01*
X1968397Y1112883D01*
X1978303Y1088966D01*
X1978745Y1088305D01*
X1979000Y1087553D01*
X1991944Y1065133D01*
X1992468Y1064536D01*
X1992819Y1063824D01*
X2008579Y1043286D01*
X2009176Y1042762D01*
X2009617Y1042101D01*
X2027923Y1023796D01*
X2028583Y1023355D01*
X2029107Y1022757D01*
X2049645Y1006998D01*
X2050358Y1006646D01*
X2050955Y1006123D01*
X2073374Y993179D01*
X2074127Y992923D01*
X2074787Y992482D01*
X2098704Y982575D01*
X2099483Y982420D01*
X2100196Y982069D01*
X2125202Y975369D01*
X2125994Y975317D01*
X2126747Y975061D01*
X2152413Y971682D01*
X2153206Y971734D01*
X2153985Y971579D01*
X2166929Y971579D01*
X2188223D01*
X2192831Y972496D01*
X2199303Y975177D01*
X2204298Y972995D01*
X2204293Y970475D01*
X2219570D01*
Y963586D01*
X2215304Y959320D01*
X2212284Y952027D01*
Y944134D01*
X2215304Y936841D01*
X2220886Y931259D01*
X2228179Y928238D01*
X2236073D01*
X2238051Y929057D01*
X2242208Y926279D01*
Y903732D01*
X2243198Y898755D01*
X2246017Y894536D01*
X2658198Y482355D01*
X2656285Y477736D01*
X2606457D01*
Y516085D01*
X2551024D01*
Y508522D01*
X2508032D01*
Y516085D01*
X2475260D01*
X2470821Y519051D01*
X2464615Y520286D01*
X2408003D01*
X2406090Y524905D01*
X2421791Y540606D01*
X2424871Y545216D01*
X2425953Y550654D01*
Y603128D01*
X2428564Y605739D01*
X2431585Y613032D01*
Y620926D01*
X2428564Y628219D01*
X2422983Y633801D01*
X2415690Y636822D01*
X2411996D01*
X2404912Y643906D01*
X2400302Y646986D01*
X2394864Y648068D01*
X2270748D01*
Y675354D01*
X2223189D01*
Y619921D01*
X2255438D01*
X2256811Y619648D01*
X2386692D01*
X2388332Y617651D01*
X2385968Y612651D01*
X2367204D01*
Y577061D01*
X2362204D01*
Y572061D01*
X2323661D01*
Y541470D01*
X2323661Y541470D01*
Y539659D01*
X2323661D01*
X2323661Y536470D01*
Y507359D01*
X2307638D01*
Y521575D01*
X2283464D01*
X2259291D01*
Y508445D01*
X2256654Y506832D01*
X2254291Y506115D01*
X2249033Y509151D01*
X2242484Y510906D01*
X2235705D01*
X2233455Y510303D01*
X2229488Y513347D01*
Y529449D01*
X2198819D01*
Y534449D01*
X2193819D01*
Y551339D01*
X2181260D01*
Y579471D01*
X2191898Y590110D01*
X2194979Y594720D01*
X2196060Y600158D01*
Y619921D01*
X2205630D01*
Y675354D01*
X2158071D01*
Y619921D01*
X2167640D01*
Y606044D01*
X2161164Y599567D01*
X2152990D01*
Y868774D01*
X2151908Y874212D01*
X2148827Y878822D01*
X1882654Y1144995D01*
Y1388092D01*
X1924783D01*
Y1443525D01*
X1922943D01*
X1919602Y1448525D01*
X1920845Y1451526D01*
Y1459420D01*
X1919602Y1462421D01*
X1922943Y1467421D01*
X1924783D01*
Y1522854D01*
X1880117D01*
X1877224Y1522854D01*
X1872635Y1523848D01*
X1872635Y1524392D01*
Y1733081D01*
X1871553Y1738519D01*
X1868473Y1743129D01*
X1807263Y1804339D01*
X1803307Y1806983D01*
Y1820039D01*
X1740000D01*
Y1780354D01*
Y1776654D01*
X1757874D01*
Y1766654D01*
X1740000D01*
Y1751811D01*
Y1748110D01*
X1757874D01*
Y1743110D01*
X1762874D01*
Y1723268D01*
X1780373D01*
X1788307Y1715333D01*
Y1714478D01*
X1791328Y1707185D01*
X1791932Y1706581D01*
Y1698809D01*
X1775748D01*
X1772559Y1698809D01*
X1767559Y1698809D01*
X1740158D01*
Y1660266D01*
Y1621722D01*
X1767559D01*
X1770748Y1621722D01*
X1775748Y1621722D01*
X1827508D01*
X1829579Y1616722D01*
X1800246Y1587390D01*
X1797166Y1582780D01*
X1796084Y1577342D01*
Y1445336D01*
X1797166Y1439899D01*
X1800246Y1435288D01*
X1812105Y1423429D01*
Y1388092D01*
X1821675D01*
Y1146854D01*
X1817055Y1144940D01*
X1807263Y1154733D01*
X1803307Y1157376D01*
Y1170433D01*
X1740000D01*
Y1130748D01*
Y1127047D01*
X1757874D01*
Y1117047D01*
X1740000D01*
Y1102205D01*
Y1098504D01*
X1757874D01*
Y1093504D01*
X1762874D01*
Y1073661D01*
X1783211D01*
X1788307Y1068565D01*
Y1064872D01*
X1791328Y1057579D01*
X1793940Y1054967D01*
Y1049203D01*
X1775748D01*
X1772559Y1049203D01*
X1767559Y1049203D01*
X1740158D01*
Y1010660D01*
Y972116D01*
X1767559D01*
X1770748Y972116D01*
X1775748Y972116D01*
X1843740D01*
Y1042449D01*
X1848740Y1044521D01*
X1942650Y950611D01*
Y768446D01*
X1900522D01*
Y713013D01*
X1902361D01*
X1905701Y708013D01*
X1904458Y705013D01*
Y697119D01*
X1905701Y694118D01*
X1902361Y689118D01*
X1900522D01*
Y647068D01*
X1895902Y645154D01*
X1564511Y976545D01*
X1566425Y981164D01*
X1599163D01*
Y1023487D01*
Y1050687D01*
X1604163Y1053188D01*
X1606722Y1051389D01*
Y1023487D01*
Y1010436D01*
X1630502D01*
X1654281D01*
Y1023487D01*
Y1065810D01*
Y1087230D01*
X1654570Y1087288D01*
X1659180Y1090368D01*
X1663344Y1094532D01*
X1669743D01*
X1677036Y1097553D01*
X1682618Y1103135D01*
X1685639Y1110428D01*
Y1118322D01*
X1682618Y1125614D01*
X1680006Y1128226D01*
Y1179304D01*
X1693651D01*
Y1236548D01*
Y1261233D01*
X1663967D01*
X1634281D01*
Y1236548D01*
Y1179304D01*
X1651586D01*
Y1156676D01*
X1626818D01*
X1620371Y1163123D01*
Y1179304D01*
X1621161D01*
Y1247296D01*
X1621161Y1250485D01*
X1621161Y1255485D01*
Y1282887D01*
X1582618D01*
X1544074D01*
Y1255485D01*
X1544074Y1252296D01*
X1544074Y1247296D01*
Y1234143D01*
X1516259D01*
X1511873Y1238530D01*
X1506001Y1241919D01*
X1499453Y1243674D01*
X1492673D01*
X1486125Y1241919D01*
X1480253Y1238530D01*
X1475459Y1233736D01*
X1472070Y1227864D01*
X1470315Y1221316D01*
Y1214536D01*
X1472070Y1207988D01*
X1475459Y1202116D01*
X1480253Y1197323D01*
X1486125Y1193933D01*
X1492673Y1192178D01*
X1499453D01*
X1506001Y1193933D01*
X1511873Y1197323D01*
X1516259Y1201709D01*
X1544074D01*
Y1179304D01*
X1591951D01*
Y1157237D01*
X1591490Y1156676D01*
X1551604D01*
Y1156676D01*
X1549416Y1155214D01*
X1545708Y1156749D01*
X1537815D01*
X1530522Y1153728D01*
X1527910Y1151117D01*
X1425234D01*
X1419796Y1150035D01*
X1415186Y1146955D01*
X1401718Y1133487D01*
X1398638Y1128877D01*
X1397556Y1123439D01*
Y1117798D01*
X1392163D01*
Y1192526D01*
X1486026Y1286389D01*
X1489107Y1290999D01*
X1490188Y1296438D01*
Y1629596D01*
X1499758D01*
Y1643103D01*
X1551604D01*
Y1633041D01*
X1599163D01*
Y1675364D01*
Y1702564D01*
X1604163Y1705065D01*
X1606722Y1703266D01*
Y1675364D01*
Y1662313D01*
X1630502D01*
X1654281D01*
Y1675364D01*
Y1717687D01*
Y1739548D01*
X1658318Y1742245D01*
X1662883Y1746811D01*
X1668479D01*
X1675772Y1749832D01*
X1681353Y1755414D01*
X1684374Y1762707D01*
Y1770601D01*
X1681353Y1777893D01*
X1678742Y1780505D01*
Y1831181D01*
X1693651D01*
Y1888425D01*
Y1913110D01*
X1663967D01*
X1634281D01*
Y1888425D01*
Y1847528D01*
X1629662Y1845614D01*
X1621161Y1854115D01*
Y1899173D01*
X1621161Y1902362D01*
X1621161Y1907362D01*
Y1934763D01*
X1582618D01*
X1544074D01*
Y1907362D01*
X1544074Y1904173D01*
X1544074Y1899173D01*
Y1886020D01*
X1516259D01*
X1511873Y1890407D01*
X1506001Y1893796D01*
X1499453Y1895551D01*
X1492673D01*
X1486125Y1893796D01*
X1480253Y1890407D01*
X1475459Y1885613D01*
X1472070Y1879742D01*
X1470315Y1873193D01*
Y1866413D01*
X1472070Y1859865D01*
X1475459Y1853993D01*
X1480253Y1849200D01*
X1486125Y1845810D01*
X1492673Y1844055D01*
X1499453D01*
X1506001Y1845810D01*
X1511873Y1849200D01*
X1516259Y1853586D01*
X1544074D01*
Y1831181D01*
X1598227D01*
X1614285Y1815123D01*
Y1808553D01*
X1606722D01*
Y1780174D01*
X1601953Y1778073D01*
X1599163Y1780310D01*
Y1808553D01*
X1551604D01*
Y1806182D01*
X1547447Y1803404D01*
X1545708Y1804124D01*
X1537815D01*
X1530522Y1801103D01*
X1527910Y1798491D01*
X1416146D01*
X1410708Y1797410D01*
X1406098Y1794329D01*
X1400295Y1788527D01*
X1397215Y1783917D01*
X1396133Y1778479D01*
Y1769675D01*
X1386046D01*
Y1714242D01*
X1396133D01*
Y1685029D01*
X1387081D01*
Y1629596D01*
X1429209D01*
Y1305027D01*
X1344283Y1220100D01*
X1341202Y1215490D01*
X1340121Y1210052D01*
Y965883D01*
X1341202Y960445D01*
X1344283Y955835D01*
X1554361Y745756D01*
X1558971Y742676D01*
X1564409Y741594D01*
X1636161D01*
X1793797Y583957D01*
X1791884Y579338D01*
X1730876D01*
Y568700D01*
X1725876Y565813D01*
X1722537Y567741D01*
X1715988Y569495D01*
X1709209D01*
X1702660Y567741D01*
X1696789Y564351D01*
X1695250Y562812D01*
X1655206D01*
Y564781D01*
X1577171D01*
Y609095D01*
X1598925D01*
X1602114Y609094D01*
X1607114Y609095D01*
X1634516D01*
Y647638D01*
Y686181D01*
X1607114D01*
X1603925Y686181D01*
X1595807Y686181D01*
X1593736Y691181D01*
X1595407Y692852D01*
X1598796Y698723D01*
X1600551Y705272D01*
Y712051D01*
X1598796Y718600D01*
X1595407Y724471D01*
X1590613Y729265D01*
X1584742Y732655D01*
X1578193Y734409D01*
X1571413D01*
X1564865Y732655D01*
X1558993Y729265D01*
X1554200Y724471D01*
X1550810Y718600D01*
X1549055Y712051D01*
Y705272D01*
X1550810Y698723D01*
X1550978Y698432D01*
X1550306Y695055D01*
Y686181D01*
X1530933D01*
Y609095D01*
X1544737D01*
Y562812D01*
X1533238D01*
Y562140D01*
X1497403D01*
Y577094D01*
X1380553D01*
Y573839D01*
X1359583D01*
X1357720Y574338D01*
X1350941D01*
X1349079Y573839D01*
X1284780D01*
X1282917Y574338D01*
X1276138D01*
X1274275Y573839D01*
X1242283D01*
Y695039D01*
X1159291D01*
Y537244D01*
X1206576D01*
X1213084Y530736D01*
X1221275Y525263D01*
X1230938Y523341D01*
X1274275D01*
X1276138Y522842D01*
X1282917D01*
X1284780Y523341D01*
X1349079D01*
X1350941Y522842D01*
X1357720D01*
X1359583Y523341D01*
X1380553D01*
Y520086D01*
X1497403D01*
Y529706D01*
X1533238D01*
Y525332D01*
X1560954D01*
Y515332D01*
X1533238D01*
Y503442D01*
Y499742D01*
X1560954D01*
Y489742D01*
X1533238D01*
Y477852D01*
Y474151D01*
X1560954D01*
Y469151D01*
X1565954D01*
Y452261D01*
X1576545D01*
Y450293D01*
X1655206D01*
Y452261D01*
X1665796D01*
Y469151D01*
X1670796D01*
Y474151D01*
X1698513D01*
Y477852D01*
Y489742D01*
X1670796D01*
Y499742D01*
X1698513D01*
Y511278D01*
X1706074Y518839D01*
X1709209Y517999D01*
X1715988D01*
X1722537Y519754D01*
X1725876Y521682D01*
X1730876Y518795D01*
X1730875Y508157D01*
X1730876Y503157D01*
Y475755D01*
X1807962D01*
Y503157D01*
X1807962Y506346D01*
X1807962Y511346D01*
Y563260D01*
X1812582Y565173D01*
X1877988Y499766D01*
X1876553Y494131D01*
X1871713Y492126D01*
X1866131Y486544D01*
X1863110Y479251D01*
Y471358D01*
X1866131Y464065D01*
X1871713Y458483D01*
X1879006Y455462D01*
X1882699D01*
X1974194Y363968D01*
X1978804Y360887D01*
X1984242Y359806D01*
X1984242Y359806D01*
X2098700D01*
X2104138Y360887D01*
X2108748Y363968D01*
X2123237Y378456D01*
X2126317Y383067D01*
X2127399Y388504D01*
Y392559D01*
X2133780D01*
Y423228D01*
X2143780D01*
Y392559D01*
X2181260D01*
Y409019D01*
X2316956D01*
X2343306Y382669D01*
X2347916Y379588D01*
X2353354Y378507D01*
X2527341D01*
X2532778Y379588D01*
X2537389Y382669D01*
X2558128Y403408D01*
X2606457D01*
Y412977D01*
X2674234D01*
X2679672Y414059D01*
X2684282Y417139D01*
X2720825Y453682D01*
X2724518D01*
X2731811Y456703D01*
X2737393Y462284D01*
X2740414Y469577D01*
Y473271D01*
X2761791Y494648D01*
X3443504D01*
X3448942Y495730D01*
X3453552Y498810D01*
X3584725Y629984D01*
X3586345Y629048D01*
X3596899Y626221D01*
X3607825D01*
X3618379Y629048D01*
X3627841Y634511D01*
X3635567Y642237D01*
X3641030Y651700D01*
X3643858Y662253D01*
Y673180D01*
X3641030Y683733D01*
X3635567Y693196D01*
X3627841Y700922D01*
X3618379Y706385D01*
X3607825Y709212D01*
X3596899D01*
X3586345Y706385D01*
X3576883Y700922D01*
X3569157Y693196D01*
X3563694Y683733D01*
X3560866Y673180D01*
Y662253D01*
X3563694Y651700D01*
X3564629Y650080D01*
X3437618Y523068D01*
X3384343D01*
X3382430Y527688D01*
X3584725Y729984D01*
X3586345Y729048D01*
X3596899Y726221D01*
X3607825D01*
X3618379Y729048D01*
X3627841Y734511D01*
X3635567Y742237D01*
X3641030Y751700D01*
X3643858Y762253D01*
Y773180D01*
X3641030Y783733D01*
X3635567Y793196D01*
X3627841Y800922D01*
X3618379Y806385D01*
X3607825Y809212D01*
X3596899D01*
X3586345Y806385D01*
X3576883Y800922D01*
X3569157Y793196D01*
X3563694Y783733D01*
X3560866Y773180D01*
Y762253D01*
X3563694Y751700D01*
X3564629Y750080D01*
X3361206Y546656D01*
X2741731D01*
X2736293Y545575D01*
X2731682Y542494D01*
X2706444Y517256D01*
X2701540Y518231D01*
X2700933Y519697D01*
X2695351Y525278D01*
X2688058Y528299D01*
X2680165D01*
X2673936Y525719D01*
X2283968Y915688D01*
Y970475D01*
X2322465D01*
Y972714D01*
X2322521Y972752D01*
X2327465Y974901D01*
X2333271Y972496D01*
X2337880Y971579D01*
X2341614Y971579D01*
X2373574D01*
X2374353Y971734D01*
X2375146Y971682D01*
X2400812Y975061D01*
X2401564Y975317D01*
X2402357Y975369D01*
X2427363Y982069D01*
X2428075Y982420D01*
X2428854Y982575D01*
X2452771Y992482D01*
X2453432Y992923D01*
X2454184Y993179D01*
X2476604Y1006123D01*
X2477201Y1006646D01*
X2477913Y1006998D01*
X2498452Y1022757D01*
X2498975Y1023355D01*
X2499636Y1023796D01*
X2517941Y1042101D01*
X2518383Y1042762D01*
X2518980Y1043286D01*
X2534739Y1063824D01*
X2535091Y1064536D01*
X2535614Y1065134D01*
X2548558Y1087553D01*
X2548814Y1088305D01*
X2549255Y1088966D01*
X2559162Y1112883D01*
X2559317Y1113662D01*
X2559668Y1114375D01*
X2566368Y1139380D01*
X2566420Y1140173D01*
X2566676Y1140925D01*
X2570055Y1166591D01*
X2570003Y1167384D01*
X2570158Y1168164D01*
X2570158Y1181102D01*
X2570158Y1181104D01*
X2570462Y2361566D01*
X2570461Y2361572D01*
X2570462Y2361578D01*
X2570452Y2374532D01*
X2570296Y2375311D01*
X2570348Y2376104D01*
X2566947Y2401787D01*
X2566691Y2402540D01*
X2566638Y2403332D01*
X2559914Y2428352D01*
X2559562Y2429065D01*
X2559406Y2429843D01*
X2549474Y2453772D01*
X2549032Y2454432D01*
X2548776Y2455184D01*
X2535805Y2477611D01*
X2535281Y2478208D01*
X2534929Y2478920D01*
X2519141Y2499462D01*
X2518544Y2499985D01*
X2518102Y2500646D01*
X2499768Y2518951D01*
X2499107Y2519392D01*
X2498583Y2519989D01*
X2478017Y2535744D01*
X2477304Y2536095D01*
X2476706Y2536619D01*
X2454259Y2549555D01*
X2453506Y2549810D01*
X2452846Y2550251D01*
X2428902Y2560147D01*
X2428123Y2560301D01*
X2427410Y2560652D01*
X2402380Y2567338D01*
X2401587Y2567389D01*
X2400835Y2567644D01*
X2375146Y2571006D01*
X2374353Y2570953D01*
X2373574Y2571107D01*
D02*
G37*
G36*
X2809213Y2672165D02*
X2682165D01*
Y2545118D01*
X2687558D01*
X2708086Y2548370D01*
X2727854Y2554793D01*
X2746373Y2564229D01*
X2763188Y2576445D01*
X2777885Y2591142D01*
X2790102Y2607958D01*
X2799538Y2626477D01*
X2805961Y2646244D01*
X2809213Y2666773D01*
Y2672165D01*
D02*
G37*
G36*
X2672165D02*
X2545118D01*
Y2666773D01*
X2548370Y2646244D01*
X2554793Y2626477D01*
X2564229Y2607958D01*
X2576445Y2591142D01*
X2591142Y2576445D01*
X2607958Y2564229D01*
X2626477Y2554793D01*
X2646244Y2548370D01*
X2666773Y2545118D01*
X2672165D01*
Y2672165D01*
D02*
G37*
G36*
X998189D02*
X871142D01*
Y2545118D01*
X876534D01*
X897063Y2548370D01*
X916830Y2554793D01*
X935350Y2564229D01*
X952165Y2576445D01*
X966862Y2591142D01*
X979079Y2607958D01*
X988515Y2626477D01*
X994937Y2646244D01*
X998189Y2666773D01*
Y2672165D01*
D02*
G37*
G36*
X861142D02*
X734095D01*
Y2666773D01*
X737346Y2646244D01*
X743769Y2626477D01*
X753205Y2607958D01*
X765422Y2591142D01*
X780119Y2576445D01*
X796934Y2564229D01*
X815453Y2554793D01*
X835221Y2548370D01*
X855749Y2545118D01*
X861142D01*
Y2672165D01*
D02*
G37*
G36*
X1621161Y1975354D02*
X1587618D01*
Y1944763D01*
X1621161D01*
Y1975354D01*
D02*
G37*
G36*
X1577618D02*
X1544074D01*
Y1944763D01*
X1577618D01*
Y1975354D01*
D02*
G37*
G36*
X1693651Y1947795D02*
X1668967D01*
Y1923110D01*
X1693651D01*
Y1947795D01*
D02*
G37*
G36*
X1658967D02*
X1634281D01*
Y1923110D01*
X1658967D01*
Y1947795D01*
D02*
G37*
G36*
X1752874Y1738110D02*
X1740000D01*
Y1723268D01*
X1752874D01*
Y1738110D01*
D02*
G37*
G36*
X1730158Y1698809D02*
X1699567D01*
Y1665266D01*
X1730158D01*
Y1698809D01*
D02*
G37*
G36*
X1654281Y1652313D02*
X1635502D01*
Y1633041D01*
X1654281D01*
Y1652313D01*
D02*
G37*
G36*
X1625502D02*
X1606722D01*
Y1633041D01*
X1625502D01*
Y1652313D01*
D02*
G37*
G36*
X1730158Y1655266D02*
X1699567D01*
Y1621722D01*
X1730158D01*
Y1655266D01*
D02*
G37*
G36*
X1621161Y1323477D02*
X1587618D01*
Y1292887D01*
X1621161D01*
Y1323477D01*
D02*
G37*
G36*
X1577618D02*
X1544074D01*
Y1292887D01*
X1577618D01*
Y1323477D01*
D02*
G37*
G36*
X1693651Y1295918D02*
X1668967D01*
Y1271233D01*
X1693651D01*
Y1295918D01*
D02*
G37*
G36*
X1658967D02*
X1634281D01*
Y1271233D01*
X1658967D01*
Y1295918D01*
D02*
G37*
G36*
X1752874Y1088504D02*
X1740000D01*
Y1073661D01*
X1752874D01*
Y1088504D01*
D02*
G37*
G36*
X1730158Y1049203D02*
X1699567D01*
Y1015660D01*
X1730158D01*
Y1049203D01*
D02*
G37*
G36*
X1654281Y1000436D02*
X1635502D01*
Y981164D01*
X1654281D01*
Y1000436D01*
D02*
G37*
G36*
X1625502D02*
X1606722D01*
Y981164D01*
X1625502D01*
Y1000436D01*
D02*
G37*
G36*
X1730158Y1005660D02*
X1699567D01*
Y972116D01*
X1730158D01*
Y1005660D01*
D02*
G37*
G36*
X2687558Y998189D02*
X2682165D01*
Y871142D01*
X2809213D01*
Y876534D01*
X2805961Y897063D01*
X2799538Y916830D01*
X2790102Y935350D01*
X2777885Y952165D01*
X2763188Y966862D01*
X2746373Y979079D01*
X2727854Y988515D01*
X2708086Y994937D01*
X2687558Y998189D01*
D02*
G37*
G36*
X2672165D02*
X2666773D01*
X2646244Y994937D01*
X2626477Y988515D01*
X2607958Y979079D01*
X2591142Y966862D01*
X2576445Y952165D01*
X2564229Y935350D01*
X2554793Y916830D01*
X2548370Y897063D01*
X2545118Y876534D01*
Y871142D01*
X2672165D01*
Y998189D01*
D02*
G37*
G36*
X876534D02*
X871142D01*
Y871142D01*
X998189D01*
Y876534D01*
X994937Y897063D01*
X988515Y916830D01*
X979079Y935350D01*
X966862Y952165D01*
X952165Y966862D01*
X935350Y979079D01*
X916830Y988515D01*
X897063Y994937D01*
X876534Y998189D01*
D02*
G37*
G36*
X861142D02*
X855749D01*
X835221Y994937D01*
X815453Y988515D01*
X796934Y979079D01*
X780119Y966862D01*
X765422Y952165D01*
X753205Y935350D01*
X743769Y916830D01*
X737346Y897063D01*
X734095Y876534D01*
Y871142D01*
X861142D01*
Y998189D01*
D02*
G37*
G36*
X2809213Y861142D02*
X2682165D01*
Y734095D01*
X2687558D01*
X2708086Y737346D01*
X2727854Y743769D01*
X2746373Y753205D01*
X2763188Y765422D01*
X2777885Y780119D01*
X2790102Y796934D01*
X2799538Y815453D01*
X2805961Y835221D01*
X2809213Y855749D01*
Y861142D01*
D02*
G37*
G36*
X2672165D02*
X2545118D01*
Y855749D01*
X2548370Y835221D01*
X2554793Y815453D01*
X2564229Y796934D01*
X2576445Y780119D01*
X2591142Y765422D01*
X2607958Y753205D01*
X2626477Y743769D01*
X2646244Y737346D01*
X2666773Y734095D01*
X2672165D01*
Y861142D01*
D02*
G37*
G36*
X998189D02*
X871142D01*
Y734095D01*
X876534D01*
X897063Y737346D01*
X916830Y743769D01*
X935350Y753205D01*
X952165Y765422D01*
X966862Y780119D01*
X979079Y796934D01*
X988515Y815453D01*
X994937Y835221D01*
X998189Y855749D01*
Y861142D01*
D02*
G37*
G36*
X861142D02*
X734095D01*
Y855749D01*
X737346Y835221D01*
X743769Y815453D01*
X753205Y796934D01*
X765422Y780119D01*
X780119Y765422D01*
X796934Y753205D01*
X815453Y743769D01*
X835221Y737346D01*
X855749Y734095D01*
X861142D01*
Y861142D01*
D02*
G37*
G36*
X1644516Y686181D02*
Y652638D01*
X1675106D01*
Y686181D01*
X1644516D01*
D02*
G37*
G36*
X1675106Y642638D02*
X1644516D01*
Y609095D01*
X1675106D01*
Y642638D01*
D02*
G37*
G36*
X2357204Y612651D02*
X2323661D01*
Y582061D01*
X2357204D01*
Y612651D01*
D02*
G37*
G36*
X2229488Y551339D02*
X2203819D01*
Y539449D01*
X2229488D01*
Y551339D01*
D02*
G37*
G36*
X2307638Y549961D02*
X2288464D01*
Y531575D01*
X2307638D01*
Y549961D01*
D02*
G37*
G36*
X2278464D02*
X2259291D01*
Y531575D01*
X2278464D01*
Y549961D01*
D02*
G37*
G36*
X3607825Y609212D02*
X3596899D01*
X3586345Y606385D01*
X3576883Y600922D01*
X3569157Y593196D01*
X3563694Y583733D01*
X3560866Y573180D01*
Y562253D01*
X3563694Y551700D01*
X3569157Y542237D01*
X3576883Y534511D01*
X3586345Y529048D01*
X3596899Y526221D01*
X3607825D01*
X3618379Y529048D01*
X3627841Y534511D01*
X3635567Y542237D01*
X3641030Y551700D01*
X3643858Y562253D01*
Y573180D01*
X3641030Y583733D01*
X3635567Y593196D01*
X3627841Y600922D01*
X3618379Y606385D01*
X3607825Y609212D01*
D02*
G37*
G36*
Y509212D02*
X3607362D01*
Y472716D01*
X3643858D01*
Y473180D01*
X3641030Y483733D01*
X3635567Y493196D01*
X3627841Y500922D01*
X3618379Y506385D01*
X3607825Y509212D01*
D02*
G37*
G36*
X3597362D02*
X3596899D01*
X3586345Y506385D01*
X3576883Y500922D01*
X3569157Y493196D01*
X3563694Y483733D01*
X3560866Y473180D01*
Y472716D01*
X3597362D01*
Y509212D01*
D02*
G37*
G36*
X1498939Y487463D02*
X1480160D01*
Y464746D01*
X1498939D01*
Y487463D01*
D02*
G37*
G36*
X1470160D02*
X1451380D01*
Y464746D01*
X1470160D01*
Y487463D01*
D02*
G37*
G36*
X1698513Y464151D02*
X1675796D01*
Y452261D01*
X1698513D01*
Y464151D01*
D02*
G37*
G36*
X1555954Y464151D02*
X1533238D01*
Y452261D01*
X1555954D01*
Y464151D01*
D02*
G37*
G36*
X1807962Y465755D02*
X1774419D01*
Y435165D01*
X1807962D01*
Y465755D01*
D02*
G37*
G36*
X1764419D02*
X1730876D01*
Y435165D01*
X1764419D01*
Y465755D01*
D02*
G37*
G36*
X1433821Y487463D02*
X1386262D01*
Y471674D01*
X1347317Y432729D01*
X1242283D01*
Y486378D01*
X1159291D01*
Y328583D01*
X1242283D01*
Y382231D01*
X1357775D01*
X1367438Y384153D01*
X1375629Y389627D01*
X1418032Y432030D01*
X1433821D01*
Y452359D01*
X1435290Y459746D01*
X1433821Y467134D01*
Y487463D01*
D02*
G37*
G36*
X1498939Y454746D02*
X1480160D01*
Y432030D01*
X1498939D01*
Y454746D01*
D02*
G37*
G36*
X1470160D02*
X1451380D01*
Y432030D01*
X1470160D01*
Y454746D01*
D02*
G37*
G36*
X3743858Y509212D02*
X3660866D01*
Y426221D01*
X3743858D01*
Y509212D01*
D02*
G37*
G36*
X3643858Y462716D02*
X3607362D01*
Y426221D01*
X3607825D01*
X3618379Y429048D01*
X3627841Y434511D01*
X3635567Y442237D01*
X3641030Y451700D01*
X3643858Y462253D01*
Y462716D01*
D02*
G37*
G36*
X3597362D02*
X3560866D01*
Y462253D01*
X3563694Y451700D01*
X3569157Y442237D01*
X3576883Y434511D01*
X3586345Y429048D01*
X3596899Y426221D01*
X3597362D01*
Y462716D01*
D02*
G37*
G36*
X207243Y328898D02*
X201850D01*
Y201850D01*
X328898D01*
Y207243D01*
X325646Y227772D01*
X319223Y247539D01*
X309787Y266058D01*
X297570Y282873D01*
X282873Y297570D01*
X266058Y309787D01*
X247539Y319223D01*
X227772Y325646D01*
X207243Y328898D01*
D02*
G37*
G36*
X191850D02*
X186458D01*
X165929Y325646D01*
X146162Y319223D01*
X127643Y309787D01*
X110827Y297570D01*
X96130Y282873D01*
X83913Y266058D01*
X74478Y247539D01*
X68055Y227772D01*
X64803Y207243D01*
Y201850D01*
X191850D01*
Y328898D01*
D02*
G37*
G36*
X3356849Y324346D02*
X3351457D01*
Y197299D01*
X3478504D01*
Y202691D01*
X3475252Y223220D01*
X3468830Y242988D01*
X3459394Y261507D01*
X3447177Y278322D01*
X3432480Y293019D01*
X3415664Y305236D01*
X3397145Y314672D01*
X3377378Y321095D01*
X3356849Y324346D01*
D02*
G37*
G36*
X3341457D02*
X3336064D01*
X3315536Y321095D01*
X3295768Y314672D01*
X3277249Y305236D01*
X3260434Y293019D01*
X3245737Y278322D01*
X3233520Y261507D01*
X3224084Y242988D01*
X3217661Y223220D01*
X3214410Y202691D01*
Y197299D01*
X3341457D01*
Y324346D01*
D02*
G37*
G36*
X328898Y191850D02*
X201850D01*
Y64803D01*
X207243D01*
X227772Y68055D01*
X247539Y74478D01*
X266058Y83913D01*
X282873Y96130D01*
X297570Y110827D01*
X309787Y127643D01*
X319223Y146162D01*
X325646Y165929D01*
X328898Y186458D01*
Y191850D01*
D02*
G37*
G36*
X191850D02*
X64803D01*
Y186458D01*
X68055Y165929D01*
X74478Y146162D01*
X83913Y127643D01*
X96130Y110827D01*
X110827Y96130D01*
X127643Y83913D01*
X146162Y74478D01*
X165929Y68055D01*
X186458Y64803D01*
X191850D01*
Y191850D01*
D02*
G37*
G36*
X3478504Y187299D02*
X3351457D01*
Y60252D01*
X3356849D01*
X3377378Y63504D01*
X3397145Y69926D01*
X3415664Y79362D01*
X3432480Y91579D01*
X3447177Y106276D01*
X3459394Y123091D01*
X3468830Y141611D01*
X3475252Y161378D01*
X3478504Y181907D01*
Y187299D01*
D02*
G37*
G36*
X3341457D02*
X3214410D01*
Y181907D01*
X3217661Y161378D01*
X3224084Y141611D01*
X3233520Y123091D01*
X3245737Y106276D01*
X3260434Y91579D01*
X3277249Y79362D01*
X3295768Y69926D01*
X3315536Y63504D01*
X3336064Y60252D01*
X3341457D01*
Y187299D01*
D02*
G37*
%LPD*%
G36*
X2029990Y3365377D02*
X2031801Y3365334D01*
Y3361300D01*
X2057549D01*
X2084081D01*
X2086875Y3364028D01*
X2114265Y3363378D01*
Y3350937D01*
X2169698D01*
Y3358486D01*
X2173275Y3361979D01*
X2196693Y3361424D01*
Y3350938D01*
X2224409D01*
X2252126D01*
Y3356531D01*
X2255703Y3360024D01*
X2296102Y3359066D01*
Y3357578D01*
X2358836D01*
X2454259Y3355315D01*
X2505686D01*
X2508887Y3351473D01*
X2493488Y3267716D01*
X2049645Y3267716D01*
X1949426Y3352987D01*
X1948976Y3357801D01*
X1948976Y3357801D01*
X1948976Y3357801D01*
Y3432683D01*
X1870079D01*
Y3442683D01*
X1948976D01*
Y3462813D01*
X1953710Y3464425D01*
X2029990Y3365377D01*
D02*
G37*
G36*
X2117025Y3152490D02*
X2115304Y3147795D01*
X2071929D01*
Y3031496D01*
X2061929D01*
Y3147795D01*
X1995906D01*
Y3052492D01*
X1991328Y3050481D01*
X1839668Y3189756D01*
X1841483Y3194415D01*
X1865079D01*
Y3274297D01*
X1870079D01*
Y3279297D01*
X1948976D01*
Y3288855D01*
X1953513Y3290958D01*
X2117025Y3152490D01*
D02*
G37*
%LPC*%
G36*
X2083297Y3351300D02*
X2062549D01*
Y3325630D01*
X2083297D01*
Y3351300D01*
D02*
G37*
G36*
X2052549D02*
X2031801D01*
Y3325630D01*
X2052549D01*
Y3351300D01*
D02*
G37*
G36*
X2169698Y3340937D02*
X2146981D01*
Y3322157D01*
X2169698D01*
Y3340937D01*
D02*
G37*
G36*
X2136981D02*
X2114265D01*
Y3322157D01*
X2136981D01*
Y3340937D01*
D02*
G37*
G36*
X2252126Y3340938D02*
X2229409D01*
Y3322157D01*
X2252126D01*
Y3340938D01*
D02*
G37*
G36*
X2219409D02*
X2196693D01*
Y3322157D01*
X2219409D01*
Y3340938D01*
D02*
G37*
G36*
X1948976Y3269297D02*
X1875079D01*
Y3194415D01*
X1948976D01*
Y3269297D01*
D02*
G37*
%LPD*%
G36*
X3081886Y3148900D02*
X2733838D01*
X2527716Y2957515D01*
Y3026496D01*
X2456693D01*
Y3031496D01*
X2451693D01*
Y3147795D01*
X2438447D01*
Y3157032D01*
X2972441Y3780628D01*
X3081886D01*
Y3148900D01*
D02*
G37*
%LPC*%
G36*
X3060197Y3755401D02*
X3016810D01*
Y3712015D01*
X3060197D01*
Y3755401D01*
D02*
G37*
G36*
X3006810D02*
X2963425D01*
Y3712015D01*
X3006810D01*
Y3755401D01*
D02*
G37*
G36*
X3060197Y3702015D02*
X3016810D01*
Y3658630D01*
X3060197D01*
Y3702015D01*
D02*
G37*
G36*
X3006810D02*
X2963425D01*
Y3658630D01*
X3006810D01*
Y3702015D01*
D02*
G37*
G36*
X2788539Y3325699D02*
X2752043D01*
Y3251801D01*
X2788539D01*
Y3325699D01*
D02*
G37*
G36*
X2742043D02*
X2705547D01*
Y3251801D01*
X2742043D01*
Y3325699D01*
D02*
G37*
G36*
X2788539Y3241801D02*
X2752043D01*
Y3167903D01*
X2788539D01*
Y3241801D01*
D02*
G37*
G36*
X2742043D02*
X2705547D01*
Y3167903D01*
X2742043D01*
Y3241801D01*
D02*
G37*
G36*
X2527716Y3147795D02*
X2461693D01*
Y3036496D01*
X2527716D01*
Y3147795D01*
D02*
G37*
%LPD*%
G36*
X3628727Y3655205D02*
Y3634817D01*
X3629716Y3629840D01*
X3632536Y3625620D01*
X3816709Y3441447D01*
Y3421673D01*
X3811709Y3420157D01*
X3811655Y3420238D01*
X3806850Y3423448D01*
X3806181Y3423581D01*
Y3396575D01*
X3796181D01*
Y3423581D01*
X3795513Y3423448D01*
X3793016Y3421780D01*
X3789370Y3420652D01*
X3785725Y3421780D01*
X3783228Y3423448D01*
X3777559Y3424576D01*
X3771891Y3423448D01*
X3769394Y3421780D01*
X3765748Y3420652D01*
X3762103Y3421780D01*
X3759606Y3423448D01*
X3753937Y3424576D01*
X3748269Y3423448D01*
X3745772Y3421780D01*
X3742349Y3420720D01*
X3741576Y3421157D01*
X3738347Y3424124D01*
Y3432018D01*
X3735326Y3439311D01*
X3729744Y3444893D01*
X3722451Y3447914D01*
X3714557D01*
X3707264Y3444893D01*
X3701682Y3439311D01*
X3698662Y3432018D01*
Y3424124D01*
X3695435Y3421159D01*
X3694659Y3420721D01*
X3691237Y3421780D01*
X3688740Y3423448D01*
X3683071Y3424576D01*
X3677403Y3423448D01*
X3674906Y3421780D01*
X3671260Y3420652D01*
X3667615Y3421780D01*
X3665118Y3423448D01*
X3659449Y3424576D01*
X3653781Y3423448D01*
X3648976Y3420238D01*
X3645765Y3415432D01*
X3644637Y3409764D01*
Y3390178D01*
X3639637Y3388107D01*
X3602721Y3425023D01*
Y3641153D01*
X3605732Y3641960D01*
X3615194Y3647423D01*
X3622920Y3655148D01*
X3623727Y3656545D01*
X3628727Y3655205D01*
D02*
G37*
G36*
X1591542Y3400215D02*
Y3357801D01*
X1591542Y3357801D01*
Y3354179D01*
X1591542D01*
X1591542Y3352801D01*
Y3346463D01*
X1541860Y3296781D01*
X1248031D01*
Y3363433D01*
X1251582Y3366953D01*
X1350236Y3366086D01*
Y3365079D01*
X1408727D01*
X1409220Y3365568D01*
X1430945Y3365377D01*
Y3351870D01*
X1451693D01*
Y3382539D01*
X1461693D01*
Y3351870D01*
X1482441D01*
Y3361374D01*
X1485992Y3364894D01*
X1496063Y3364805D01*
X1501141Y3366928D01*
X1505303Y3364157D01*
Y3363760D01*
X1533020D01*
X1560736D01*
Y3382540D01*
X1551187D01*
X1550203Y3387442D01*
X1587380Y3402986D01*
X1591542Y3400215D01*
D02*
G37*
G36*
Y3298521D02*
Y3279297D01*
X1670439D01*
Y3274297D01*
X1675439D01*
Y3194415D01*
X1689163D01*
X1691266Y3189879D01*
X1538883Y3009935D01*
X1534189Y3011656D01*
Y3030433D01*
X1463165D01*
Y3035433D01*
X1458165D01*
Y3151732D01*
X1456629D01*
X1454618Y3156310D01*
X1586883Y3300336D01*
X1591542Y3298521D01*
D02*
G37*
G36*
X1099463Y3151732D02*
X1078401D01*
Y3035433D01*
X1073401D01*
Y3030433D01*
X1002378D01*
Y2958847D01*
X804685Y3142407D01*
X657413D01*
Y3579827D01*
X662381Y3581885D01*
X667963Y3587466D01*
X670984Y3594760D01*
Y3602653D01*
X667963Y3609946D01*
X662381Y3615528D01*
X657413Y3617586D01*
Y3774135D01*
X780119D01*
X1099463Y3151732D01*
D02*
G37*
%LPC*%
G36*
X1405669Y3355079D02*
X1382953D01*
Y3336299D01*
X1405669D01*
Y3355079D01*
D02*
G37*
G36*
X1372953D02*
X1350236D01*
Y3336299D01*
X1372953D01*
Y3355079D01*
D02*
G37*
G36*
X1560736Y3353760D02*
X1538020D01*
Y3334981D01*
X1560736D01*
Y3353760D01*
D02*
G37*
G36*
X1528020D02*
X1505303D01*
Y3334981D01*
X1528020D01*
Y3353760D01*
D02*
G37*
G36*
X1665439Y3269297D02*
X1591542D01*
Y3194415D01*
X1665439D01*
Y3269297D01*
D02*
G37*
G36*
X1534189Y3151732D02*
X1468165D01*
Y3040433D01*
X1534189D01*
Y3151732D01*
D02*
G37*
G36*
X776732Y3754637D02*
X733347D01*
Y3711252D01*
X776732D01*
Y3754637D01*
D02*
G37*
G36*
X723347D02*
X679961D01*
Y3711252D01*
X723347D01*
Y3754637D01*
D02*
G37*
G36*
X776732Y3701252D02*
X733347D01*
Y3657865D01*
X776732D01*
Y3701252D01*
D02*
G37*
G36*
X723347D02*
X679961D01*
Y3657865D01*
X723347D01*
Y3701252D01*
D02*
G37*
G36*
X826495Y3313150D02*
X790000D01*
Y3239252D01*
X826495D01*
Y3313150D01*
D02*
G37*
G36*
X780000D02*
X743504D01*
Y3239252D01*
X780000D01*
Y3313150D01*
D02*
G37*
G36*
X826495Y3229252D02*
X790000D01*
Y3155354D01*
X826495D01*
Y3229252D01*
D02*
G37*
G36*
X780000D02*
X743504D01*
Y3155354D01*
X780000D01*
Y3229252D01*
D02*
G37*
G36*
X1068401Y3151732D02*
X1002378D01*
Y3040433D01*
X1068401D01*
Y3151732D01*
D02*
G37*
%LPD*%
G36*
X1965640Y669022D02*
Y633685D01*
X1975209D01*
Y584400D01*
X1976291Y578962D01*
X1979371Y574352D01*
X2022480Y531243D01*
Y513858D01*
X2053150D01*
Y503858D01*
X2022480D01*
Y497087D01*
X2019008Y496396D01*
X2014398Y493316D01*
X2014060Y492978D01*
X1970074D01*
X1968796Y495928D01*
X1968541Y497978D01*
X1973682Y503119D01*
X1976703Y510412D01*
Y518306D01*
X1973682Y525599D01*
X1971070Y528210D01*
Y564100D01*
X1969988Y569538D01*
X1966908Y574148D01*
X1911991Y629065D01*
X1913904Y633685D01*
X1948081D01*
Y680048D01*
X1952700Y681962D01*
X1965640Y669022D01*
D02*
G37*
D10*
X1757874Y1699636D02*
Y1743110D01*
Y1685935D02*
Y1699636D01*
Y1743110D02*
Y1771653D01*
X1735158Y1660266D02*
Y1663218D01*
X1757874Y1685935D01*
X2007650Y508453D02*
X2007853Y508656D01*
X2052947D01*
X2053150Y508858D01*
X2239095Y532559D02*
X2277480D01*
X2200709D02*
X2239095D01*
X1622640Y1287887D02*
X1633966Y1299213D01*
X1582618Y1287887D02*
X1622640D01*
X1635820Y1294380D02*
Y1297360D01*
Y1294380D02*
X1663966Y1266233D01*
X1633966Y1299213D02*
X1635820Y1297360D01*
X2284252Y526575D02*
X2314147Y556470D01*
X2283465Y526575D02*
X2284252D01*
X2341614Y556470D02*
X2362205Y577061D01*
X2314147Y556470D02*
X2341614D01*
X2125984Y496063D02*
X2138780Y483268D01*
Y423228D02*
Y483268D01*
X2113189Y508858D02*
X2125984Y496063D01*
X2053150Y508858D02*
X2113189D01*
X2277480Y532559D02*
X2283465Y526575D01*
X2198819Y534449D02*
X2200709Y532559D01*
X2138780Y508858D02*
X2163149Y533228D01*
X2125984Y496063D02*
X2138780Y508858D01*
X2163149Y533228D02*
X2197598D01*
X2198819Y534449D01*
X2138780Y508858D02*
X2198819D01*
D14*
X1649132Y1100416D02*
X1663090Y1114375D01*
X1665796D01*
X1663966Y1208989D02*
X1665796Y1207159D01*
Y1114375D02*
Y1207159D01*
X1630502Y1090574D02*
X1640344Y1100416D01*
X1649132D01*
X1663966Y1860866D02*
X1664532Y1860301D01*
X1630502Y1742451D02*
X1640344Y1752293D01*
X1648270D01*
X1662630Y1766654D01*
X1664532D02*
Y1860301D01*
X1662630Y1766654D02*
X1664532D01*
X3362992Y967716D02*
X3602362D01*
X2854331Y1476378D02*
X3362992Y967716D01*
X3186851Y1517874D02*
X3651799Y1052926D01*
X3602362Y867716D02*
X3651799Y917153D01*
Y1052926D01*
X2684115Y474831D02*
X2741731Y532446D01*
X3367092D01*
X3602362Y767716D01*
X3443504Y508858D02*
X3602362Y667716D01*
X2755905Y508858D02*
X3443504D01*
X3186851Y1517874D02*
Y3453629D01*
X3228347Y3495125D01*
Y3692016D01*
X2854331Y1476378D02*
Y2228839D01*
X2456693Y2626477D02*
X2854331Y2228839D01*
X1482804Y2626477D02*
X2456693D01*
X1248031Y2861249D02*
X1482804Y2626477D01*
X1248031Y2861249D02*
Y3097070D01*
X1063605Y3281496D02*
X1248031Y3097070D01*
X562261Y3598706D02*
X651141D01*
X469716Y3691251D02*
X562261Y3598706D01*
X1328278Y3661849D02*
X1359145Y3692716D01*
X314961Y3691251D02*
X469716D01*
X2802682Y3852096D02*
X3168266D01*
X2693303Y3742716D02*
X2802682Y3852096D01*
X3168266D02*
X3228347Y3792016D01*
X2520755Y3742716D02*
X2693303D01*
X2688070Y3692716D02*
X2814881Y3819528D01*
X2520755Y3692716D02*
X2688070D01*
X2814881Y3819528D02*
X3100834D01*
X3228347Y3692016D01*
X1426024Y3886952D02*
X1463273Y3849703D01*
X913094Y3886952D02*
X1426024D01*
X817394Y3791251D02*
X913094Y3886952D01*
X1463273Y3783265D02*
Y3849703D01*
X1422725Y3742716D02*
X1463273Y3783265D01*
X1375386Y3742716D02*
X1422725D01*
X314961Y3791251D02*
X817394D01*
X1681353Y1657313D02*
X1732205D01*
X1630502D02*
X1681353D01*
X1680218Y1005436D02*
X1729934D01*
X1630502D02*
X1680218D01*
X1203299Y3742716D02*
X1220472Y3725543D01*
X1185920Y3614173D02*
X1220472Y3648725D01*
Y3725543D01*
X1076479Y3759843D02*
X1112728D01*
X1145602Y3792716D01*
X1161842D01*
X1011361Y3759843D02*
X1015298Y3755905D01*
Y3671260D02*
Y3755905D01*
X1161842Y3742716D02*
X1203299D01*
X1181983Y3614173D02*
X1185920D01*
X1299213Y3782784D02*
X1359145Y3842716D01*
X1299213Y3614173D02*
Y3782784D01*
X1359145Y3842716D02*
X1375386D01*
X1868444Y1139109D02*
X2138780Y868774D01*
X1868444Y1139109D02*
Y1432304D01*
X2138780Y568898D02*
Y868774D01*
X1835885Y1136457D02*
X2113189Y859153D01*
X1835885Y1136457D02*
Y1415809D01*
X2113189Y568898D02*
Y859153D01*
X1797215Y1116142D02*
X1956860Y956497D01*
Y697897D02*
X1989419Y665338D01*
X1956860Y697897D02*
Y956497D01*
X1989419Y584400D02*
Y661401D01*
Y584400D02*
X2039370Y534449D01*
X2053150D01*
X1989419Y661401D02*
Y665338D01*
X1789370Y1116142D02*
X1797215D01*
X1785433Y1120079D02*
X1789370Y1116142D01*
X1785433Y1120079D02*
Y1122047D01*
Y1091535D02*
X1808150Y1068819D01*
X2087598Y568898D02*
Y611421D01*
X1989419Y709601D02*
Y740730D01*
Y709601D02*
X2087598Y611421D01*
X1989419Y740730D02*
Y952481D01*
X1797215Y1144685D02*
X1989419Y952481D01*
X1789370Y1144685D02*
X1797215D01*
X1785433Y1148622D02*
X1789370Y1144685D01*
X1785433Y1148622D02*
Y1150591D01*
X1835885Y1464863D02*
X1868444Y1432304D01*
X1835885Y1464863D02*
Y1495137D01*
X1858425Y1521615D02*
Y1733081D01*
X1835885Y1495137D02*
Y1499074D01*
X1797215Y1794291D02*
X1858425Y1733081D01*
X1835885Y1499074D02*
X1858425Y1521615D01*
X1785433Y1798228D02*
X1789370Y1794291D01*
X1785433Y1798228D02*
Y1800197D01*
X1789370Y1794291D02*
X1797215D01*
X1835885Y1415809D02*
Y1419746D01*
X1810294Y1445336D02*
X1835885Y1419746D01*
X1810294Y1445336D02*
Y1577342D01*
X1845551Y1612599D01*
X1789370Y1765748D02*
X1797215D01*
X1845551Y1717412D01*
X1785433Y1769685D02*
X1789370Y1765748D01*
X1845551Y1612599D02*
Y1717412D01*
X1785433Y1769685D02*
Y1771653D01*
X2720572Y473524D02*
X2755905Y508858D01*
X2674234Y427187D02*
X2720572Y473524D01*
X2672810Y463526D02*
X2684115Y474831D01*
X1732205Y1657313D02*
X1735158Y1660266D01*
X1411766Y1123439D02*
X1425234Y1136907D01*
X1541762D01*
X1411766Y1090082D02*
Y1123439D01*
Y1090082D02*
X1412219Y1089629D01*
Y1005889D02*
Y1089629D01*
Y1005889D02*
X1412671Y1005436D01*
X1410343Y1778479D02*
X1416146Y1784281D01*
X1541762D01*
X1410343Y1741441D02*
Y1778479D01*
Y1657830D02*
Y1741441D01*
X1443419Y1299141D02*
Y1706497D01*
X1474944Y1738022D01*
X1377953Y967735D02*
X1569161Y776526D01*
X1656985D02*
X1882953Y550558D01*
X1569161Y776526D02*
X1656985D01*
X1642047Y755804D02*
X1974622Y423228D01*
X1564409Y755804D02*
X1642047D01*
X1354331Y965883D02*
X1564409Y755804D01*
X1354331Y1210052D02*
X1443419Y1299141D01*
X1354331Y965883D02*
Y1210052D01*
X1377953Y1198412D02*
X1475978Y1296438D01*
X1377953Y967735D02*
Y1198412D01*
X2113189Y388504D02*
Y423228D01*
X2098700Y374016D02*
X2113189Y388504D01*
X1984242Y374016D02*
X2098700D01*
X1882953Y475304D02*
X1984242Y374016D01*
X1909449Y522232D02*
Y574803D01*
X1445230Y1039022D02*
X1445230Y1039022D01*
X1475978Y1296438D02*
Y1657313D01*
X1974622Y423228D02*
X2087598D01*
X1445230Y982754D02*
X1463417Y964567D01*
X1445230Y1039022D02*
Y1054491D01*
Y982754D02*
Y1039022D01*
X1463417Y964567D02*
X1519685D01*
X1474944Y1738022D02*
Y1741958D01*
X1445230Y1054491D02*
X1476884Y1086145D01*
X1475978Y1657313D02*
X1575384D01*
X1474944Y1738022D02*
X1484786Y1728179D01*
X1488723D01*
X1517266Y1699636D01*
X1575384D01*
X1956860Y514359D02*
Y564100D01*
X2181850Y600158D02*
Y647638D01*
X2164370Y582677D02*
X2181850Y600158D01*
X2164370Y568898D02*
Y582677D01*
X2256811Y633858D02*
X2394864D01*
X2384399Y523310D02*
X2411743Y550654D01*
X2246968Y643701D02*
X2256811Y633858D01*
X2394864D02*
X2411743Y616979D01*
X2381446Y523310D02*
X2384399D01*
X2411743Y550654D02*
Y616979D01*
X1909449Y522232D02*
X1952913Y478768D01*
X1519685Y964567D02*
X1909449Y574803D01*
X1630502Y1741958D02*
Y1742451D01*
X1515524Y1005436D02*
X1956860Y564100D01*
X1952913Y478768D02*
X2019946D01*
X1476884Y1086145D02*
Y1090082D01*
X1515524Y1005436D02*
X1575384D01*
X1477789D02*
X1515524D01*
X2051805Y456333D02*
X2053150Y457677D01*
X2002328Y456333D02*
X2051805D01*
X2000983Y454988D02*
X2002328Y456333D01*
X2024446Y483268D02*
X2053150D01*
X2019946Y478768D02*
X2024446Y483268D01*
X1509608Y1090082D02*
X1546604Y1053086D01*
X1476884Y1090082D02*
X1509608D01*
X1757874Y1050029D02*
Y1093504D01*
Y1036329D02*
Y1050029D01*
Y1093504D02*
Y1122047D01*
X1735158Y1013612D02*
X1757874Y1036329D01*
X1735158Y1010659D02*
Y1013612D01*
X1729934Y1005436D02*
X1735158Y1010659D01*
X1785433Y1091535D02*
Y1093504D01*
X1808150Y1010659D02*
Y1068819D01*
X1546604Y1053086D02*
X1570057D01*
X1575384Y1047759D01*
X1630502Y1090082D02*
Y1090574D01*
X1585571Y1214895D02*
X1606161Y1194304D01*
Y1157237D02*
Y1194304D01*
Y1157237D02*
X1630502Y1132896D01*
Y1132404D02*
Y1132896D01*
X1582618Y1214895D02*
X1585571D01*
X2246968Y643701D02*
Y647638D01*
X2578740Y427187D02*
X2674234D01*
X2562369Y463526D02*
X2672810D01*
X2526031Y427187D02*
X2562369Y463526D01*
X2480315Y427187D02*
X2526031D01*
X2212598Y457677D02*
X2214488Y455788D01*
X2220346Y446513D02*
X2457052D01*
X2476378Y427187D01*
X2198819Y457677D02*
X2212598D01*
X2214488Y452371D02*
X2220346Y446513D01*
X2214488Y452371D02*
Y455788D01*
X2322842Y423228D02*
X2353354Y392717D01*
X2527341D02*
X2553921Y419297D01*
X2353354Y392717D02*
X2527341D01*
X2570850Y419297D02*
X2578740Y427187D01*
X2553921Y419297D02*
X2570850D01*
X2164370Y423228D02*
X2322842D01*
X2476378Y427187D02*
X2480315D01*
D15*
X1482149Y452756D02*
X1533001D01*
D81*
X3647638Y3286339D02*
D03*
D82*
X3671260D02*
D03*
X3694882D02*
D03*
X3718504D02*
D03*
X3742126D02*
D03*
X3765748D02*
D03*
X3789370D02*
D03*
X3812992D02*
D03*
X3659449Y3396575D02*
D03*
X3683071D02*
D03*
X3706693D02*
D03*
X3730315D02*
D03*
X3753937D02*
D03*
X3777559D02*
D03*
X3801181D02*
D03*
D83*
X1200787Y616142D02*
D03*
Y407480D02*
D03*
X2747043Y3246801D02*
D03*
Y3038140D02*
D03*
X785000Y3234252D02*
D03*
Y3025591D02*
D03*
X1771653Y3051181D02*
D03*
Y2842520D02*
D03*
D84*
X1467915Y548590D02*
D03*
X1410041D02*
D03*
D85*
X1475159Y459746D02*
D03*
X1410041D02*
D03*
X2246968Y647638D02*
D03*
X2181850D02*
D03*
X2213911Y3756999D02*
D03*
X2148793D02*
D03*
X1475978Y1657313D02*
D03*
X1410860D02*
D03*
X1474944Y1741958D02*
D03*
X1409826D02*
D03*
X1835885Y1415809D02*
D03*
X1901003D02*
D03*
X1835885Y1495137D02*
D03*
X1901003D02*
D03*
X1476884Y1090082D02*
D03*
X1411766D02*
D03*
X1477789Y1005436D02*
D03*
X1412671D02*
D03*
X1989419Y740730D02*
D03*
X1924301D02*
D03*
X1989419Y661401D02*
D03*
X1924301D02*
D03*
X1076479Y3759843D02*
D03*
X1011361D02*
D03*
D86*
X1615876Y507537D02*
D03*
D87*
X1670797Y469151D02*
D03*
Y494741D02*
D03*
Y520332D02*
D03*
Y545923D02*
D03*
X1560954Y469151D02*
D03*
Y494741D02*
D03*
Y520332D02*
D03*
Y545923D02*
D03*
D88*
X2125984Y496063D02*
D03*
D89*
X2198819Y534449D02*
D03*
Y508858D02*
D03*
Y483268D02*
D03*
Y457677D02*
D03*
X2053150D02*
D03*
Y483268D02*
D03*
Y508858D02*
D03*
Y534449D02*
D03*
D90*
X2164370Y423228D02*
D03*
X2138780D02*
D03*
X2113189D02*
D03*
X2087598D02*
D03*
Y568898D02*
D03*
X2113189D02*
D03*
X2138780D02*
D03*
X2164370D02*
D03*
D91*
X2578740Y492305D02*
D03*
Y427187D02*
D03*
X2480315Y492305D02*
D03*
Y427187D02*
D03*
X2490755Y3600108D02*
D03*
Y3534990D02*
D03*
X2322835Y3599202D02*
D03*
Y3534084D02*
D03*
X2224409Y3345937D02*
D03*
Y3411055D02*
D03*
X2141981Y3411055D02*
D03*
Y3345937D02*
D03*
X1299213Y3614173D02*
D03*
Y3550118D02*
D03*
X1181983Y3614173D02*
D03*
Y3548431D02*
D03*
X1533020Y3358760D02*
D03*
Y3423878D02*
D03*
X1377953Y3425197D02*
D03*
Y3360079D02*
D03*
D92*
X2362205Y577061D02*
D03*
Y504068D02*
D03*
X2334646Y3466161D02*
D03*
Y3393169D02*
D03*
X1769419Y470755D02*
D03*
Y543747D02*
D03*
X1582618Y1939764D02*
D03*
Y1866772D02*
D03*
Y1287887D02*
D03*
Y1214895D02*
D03*
D93*
X2283465Y526575D02*
D03*
Y491142D02*
D03*
D94*
X2420097Y3458662D02*
D03*
Y3433071D02*
D03*
Y3407480D02*
D03*
Y3381890D02*
D03*
X2529230D02*
D03*
Y3407480D02*
D03*
Y3433071D02*
D03*
Y3458662D02*
D03*
X1193465Y3465370D02*
D03*
Y3439779D02*
D03*
Y3414189D02*
D03*
Y3388598D02*
D03*
X1302598D02*
D03*
Y3414189D02*
D03*
Y3439779D02*
D03*
Y3465370D02*
D03*
D95*
X2491750Y3420276D02*
D03*
X1265118Y3426984D02*
D03*
D96*
X2448246Y3420276D02*
D03*
X1221614Y3426984D02*
D03*
D97*
X2057549Y3397638D02*
D03*
X1456693Y3423878D02*
D03*
D98*
X2057549Y3356299D02*
D03*
X1456693Y3382540D02*
D03*
D99*
X2152729Y3671260D02*
D03*
X2209974D02*
D03*
X1015298D02*
D03*
X1072542D02*
D03*
D100*
X2255214Y1047215D02*
D03*
Y1062963D02*
D03*
Y1078711D02*
D03*
X2270962Y1047215D02*
D03*
Y1062963D02*
D03*
Y1078711D02*
D03*
D101*
X2281500Y1140925D02*
D03*
X2246067D02*
D03*
D102*
X1575384Y1657313D02*
D03*
Y1699636D02*
D03*
Y1741958D02*
D03*
Y1784281D02*
D03*
X1630502D02*
D03*
Y1741958D02*
D03*
Y1699636D02*
D03*
Y1657313D02*
D03*
X1575384Y1005436D02*
D03*
Y1047759D02*
D03*
Y1090082D02*
D03*
Y1132404D02*
D03*
X1630502D02*
D03*
Y1090082D02*
D03*
Y1047759D02*
D03*
Y1005436D02*
D03*
D103*
X1663966Y1860866D02*
D03*
Y1918110D02*
D03*
Y1208989D02*
D03*
Y1266233D02*
D03*
D104*
X1785433Y1800197D02*
D03*
Y1771653D02*
D03*
Y1743110D02*
D03*
X1757874D02*
D03*
Y1771653D02*
D03*
Y1800197D02*
D03*
X1785433Y1150591D02*
D03*
Y1122047D02*
D03*
Y1093504D02*
D03*
X1757874D02*
D03*
Y1122047D02*
D03*
Y1150591D02*
D03*
D105*
X1735158Y1660266D02*
D03*
X1808150D02*
D03*
X1735158Y1010659D02*
D03*
X1808150D02*
D03*
X2134999Y3842716D02*
D03*
X2207992D02*
D03*
X973960Y3838750D02*
D03*
X1046952D02*
D03*
X1027109Y3415094D02*
D03*
X1100101D02*
D03*
X1639515Y647638D02*
D03*
X1566523D02*
D03*
D106*
X2520755Y3842716D02*
D03*
Y3792716D02*
D03*
Y3742716D02*
D03*
Y3692716D02*
D03*
X2307212D02*
D03*
Y3742716D02*
D03*
Y3792716D02*
D03*
Y3842716D02*
D03*
X1375386D02*
D03*
Y3792716D02*
D03*
Y3742716D02*
D03*
Y3692716D02*
D03*
X1161842D02*
D03*
Y3742716D02*
D03*
Y3792716D02*
D03*
Y3842716D02*
D03*
D107*
X1870079Y3437683D02*
D03*
Y3274297D02*
D03*
X1670440Y3437683D02*
D03*
Y3274297D02*
D03*
D108*
X2066929Y3031496D02*
D03*
X2456693D02*
D03*
X1463165Y3035433D02*
D03*
X1073401D02*
D03*
D109*
X3689715Y3629521D02*
X3852362Y3466874D01*
X3689715Y3629521D02*
Y3680628D01*
X3852362Y3386142D02*
Y3466874D01*
X3641732Y3634817D02*
X3829715Y3446834D01*
X3742126Y3299528D02*
X3829715Y3387117D01*
Y3446834D01*
X3765748Y3299528D02*
X3852362Y3386142D01*
X3641732Y3732645D02*
X3689715Y3780628D01*
X3641732Y3634817D02*
Y3732645D01*
X3742126Y3286339D02*
Y3299528D01*
X3765748Y3286339D02*
Y3299528D01*
X3439715Y3518055D02*
X3647638Y3310132D01*
Y3233520D02*
Y3310132D01*
X3439715Y3518055D02*
Y3730628D01*
X3589715Y3419636D02*
Y3680628D01*
Y3419636D02*
X3694882Y3314469D01*
Y3286339D02*
Y3314469D01*
Y3233520D02*
Y3286339D01*
X3541535Y3442885D02*
Y3732448D01*
Y3442885D02*
X3671260Y3313161D01*
X3541535Y3732448D02*
X3589715Y3780628D01*
X3671260Y3286339D02*
Y3313161D01*
X3439715Y3730628D02*
X3489715Y3780628D01*
X3801693Y3423622D02*
X3802205Y3424134D01*
X3801693Y3397087D02*
Y3423622D01*
X3801181Y3396575D02*
X3801693Y3397087D01*
X3789370Y3273150D02*
X3798470Y3264050D01*
X3789370Y3273150D02*
Y3286339D01*
X3801181Y3254843D02*
Y3257554D01*
X3805764Y3263260D02*
Y3264848D01*
X3800058Y3257554D02*
X3805764Y3263260D01*
X3811220Y3270305D02*
Y3270419D01*
X3812992Y3272191D02*
Y3286339D01*
X3798470Y3258709D02*
Y3264050D01*
X3805764Y3264848D02*
X3811220Y3270305D01*
Y3270419D02*
X3812992Y3272191D01*
X3798470Y3257554D02*
Y3258709D01*
Y3257554D02*
X3800058D01*
X3719628Y3425359D02*
X3721216D01*
Y3424205D02*
Y3425359D01*
X3706693Y3410723D02*
X3708465Y3412494D01*
Y3412608D02*
X3713922Y3418065D01*
X3721216Y3418863D02*
Y3424205D01*
X3706693Y3396575D02*
Y3410723D01*
X3708465Y3412494D02*
Y3412608D01*
X3713922Y3419653D02*
X3719628Y3425359D01*
X3713922Y3418065D02*
Y3419653D01*
X3718504Y3425359D02*
Y3428071D01*
X3730315Y3396575D02*
Y3409764D01*
X3721216Y3418863D02*
X3730315Y3409764D01*
X3717992Y3285827D02*
X3718504Y3286339D01*
X3717992Y3259291D02*
Y3285827D01*
X3717481Y3258780D02*
X3717992Y3259291D01*
X3765748Y3233520D02*
Y3286339D01*
X3742126Y3233520D02*
Y3286339D01*
X3671260Y3233520D02*
Y3286339D01*
X2255214Y1085601D02*
Y1131778D01*
Y1078711D02*
Y1085601D01*
X2232576Y1062963D02*
X2255214Y1085601D01*
X2232576Y948530D02*
Y1062963D01*
X2232126Y948081D02*
X2232576Y948530D01*
X2255214Y903732D02*
Y1047215D01*
Y1085601D02*
Y1092491D01*
X2293600Y951812D02*
Y1062963D01*
X2270962Y910301D02*
Y1047215D01*
X2281500Y1075063D02*
X2293600Y1062963D01*
X2281500Y1075063D02*
Y1089249D01*
X2255214Y1062963D02*
X2270962D01*
Y1078711D01*
Y910301D02*
X2672810Y508453D01*
X2684108D01*
X2684111Y508457D01*
X2255214Y903732D02*
X2684115Y474831D01*
X2246067Y1140925D02*
X2255214Y1131778D01*
X2281500Y1089249D02*
Y1140925D01*
X2270962Y1078711D02*
X2281500Y1089249D01*
X1613573Y1717057D02*
X1630502Y1700128D01*
X1612319Y1717057D02*
X1613573D01*
X1602943Y1726433D02*
X1612319Y1717057D01*
X1602943Y1726433D02*
Y1757484D01*
X1586407Y1772765D02*
X1587661D01*
X1602943Y1757484D01*
X1575384Y1783789D02*
X1586407Y1772765D01*
X1630502Y1699636D02*
Y1700128D01*
X1575384Y1783789D02*
Y1784281D01*
Y1131912D02*
Y1132404D01*
Y1131912D02*
X1586407Y1120889D01*
X1587661D01*
X1602943Y1105607D01*
Y1074556D02*
Y1105607D01*
Y1074556D02*
X1612319Y1065180D01*
X1613573D01*
X1630502Y1048251D01*
Y1047759D02*
Y1048251D01*
D110*
X3765748Y3148032D02*
X3877953Y3035827D01*
X3765748Y3148032D02*
Y3233520D01*
X3742126Y3132284D02*
Y3233520D01*
Y3132284D02*
X3838582Y3035827D01*
X3694882Y3130157D02*
Y3233520D01*
Y3130157D02*
X3789370Y3035669D01*
X3749764Y915118D02*
Y3035669D01*
X3671260Y3114173D02*
X3749764Y3035669D01*
X3671260Y3114173D02*
Y3233520D01*
X3838582Y3035827D02*
X3838583Y803937D01*
X3702362Y667716D02*
X3838583Y803937D01*
X3877953Y3035827D02*
X3877953Y743307D01*
X3702362Y567716D02*
X3877953Y743307D01*
X3789370Y3035669D02*
X3789370Y854724D01*
X3702362Y767716D02*
X3789370Y854724D01*
X3702362Y867716D02*
X3749764Y915118D01*
X3647638Y3090551D02*
Y3233520D01*
Y3090551D02*
X3702362Y3035827D01*
Y967716D02*
Y3035827D01*
X1328278Y3650232D02*
Y3661849D01*
X1359145Y3692716D02*
X1375386D01*
X1326772Y3648725D02*
X1328278Y3650232D01*
X1133605Y3590805D02*
X1143420Y3580990D01*
X1133605Y3590805D02*
Y3664479D01*
X1143420Y3580990D02*
X1200408D01*
X1376118Y3791984D02*
X1416590D01*
X1417323Y3791251D01*
X1363008Y3414189D02*
X1374016Y3425197D01*
X1337417Y3388598D02*
X1363008Y3414189D01*
X1374016Y3425197D02*
X1377953D01*
X1302598Y3388598D02*
X1337417D01*
X1302598Y3414189D02*
X1363008D01*
X1302598Y3439779D02*
X1359433D01*
X1374016Y3425197D01*
X1185590Y3548431D02*
X1193465Y3540557D01*
X1181983Y3548431D02*
X1185590D01*
X1193465Y3465370D02*
Y3540557D01*
X935502Y3841251D02*
X971458D01*
X1027267Y3806349D02*
Y3819065D01*
X973960Y3773424D02*
X996963Y3796427D01*
X1017345D02*
X1027267Y3806349D01*
Y3819065D02*
X1050918Y3842716D01*
X996963Y3796427D02*
X1017345D01*
X973960Y3544189D02*
Y3773424D01*
Y3544189D02*
X1100101Y3418047D01*
Y3415094D02*
Y3418047D01*
X2520755Y3792716D02*
X2521117Y3793078D01*
X2562839D02*
X2563201Y3793440D01*
X2521117Y3793078D02*
X2562839D01*
X1375386Y3792716D02*
X1376118Y3791984D01*
X1299213Y3550118D02*
X1302598Y3546733D01*
Y3465370D02*
Y3546733D01*
Y3414189D02*
Y3439779D01*
Y3388598D02*
Y3414189D01*
X2216178Y3759267D02*
X2238488D01*
X2266958Y3787738D02*
X2302233D01*
X2213911Y3756999D02*
X2216178Y3759267D01*
X2302233Y3787738D02*
X2307212Y3792716D01*
X2238488Y3759267D02*
X2266958Y3787738D01*
X2148793Y3675197D02*
X2152729Y3671260D01*
X2148793Y3675197D02*
Y3756999D01*
X2081535Y3844811D02*
X2132905D01*
X2134999Y3842716D01*
X1630502Y1939764D02*
X1642313D01*
X1582618D02*
X1630502D01*
X1881473Y3720472D02*
X2039288D01*
X2118196Y3799380D02*
X2167608D01*
X2039288Y3720472D02*
X2118196Y3799380D01*
X2207992Y3842716D02*
X2307212D01*
X2167608Y3799380D02*
X2207992Y3839764D01*
Y3842716D01*
X2102045Y3411055D02*
X2141981D01*
X2057549Y3397638D02*
X2059935Y3400024D01*
X2091014D01*
X2102045Y3411055D01*
X1265118Y3426984D02*
Y3516279D01*
X1200408Y3580990D02*
X1265118Y3516279D01*
X2417144Y3461614D02*
Y3480276D01*
X2322886Y3534033D02*
X2363387D01*
X2417144Y3480276D01*
Y3461614D02*
X2420097Y3458662D01*
X2322835Y3534084D02*
X2322886Y3534033D01*
X2263780Y3665524D02*
X2290972Y3692716D01*
X2263780Y3642016D02*
Y3665524D01*
X2290972Y3692716D02*
X2307212D01*
X2223753Y3657480D02*
X2248315D01*
X2209974Y3671260D02*
X2223753Y3657480D01*
X2248315D02*
X2263780Y3642016D01*
Y3605058D02*
Y3642016D01*
X2302194Y3566643D02*
X2380657D01*
X2263780Y3605058D02*
X2302194Y3566643D01*
X2380657D02*
X2477262Y3470039D01*
Y3434764D02*
Y3470039D01*
Y3434764D02*
X2491750Y3420276D01*
X2490755Y3534990D02*
X2494692D01*
X2529230Y3500452D01*
Y3458662D02*
Y3500452D01*
X2460630Y3630233D02*
X2478944Y3611919D01*
X2486818Y3600108D02*
X2490755D01*
X2478944Y3607982D02*
X2486818Y3600108D01*
X2478944Y3607982D02*
Y3611919D01*
X2460630Y3630233D02*
Y3819528D01*
X2307212Y3742716D02*
X2315086Y3734842D01*
X2347835D01*
X2362205Y3720472D01*
Y3661417D02*
Y3720472D01*
X2334646Y3607077D02*
Y3633858D01*
X2322835Y3599202D02*
X2326772D01*
X2334646Y3607077D01*
Y3633858D02*
X2362205Y3661417D01*
X2475945Y3834842D02*
X2512881D01*
X2460630Y3819528D02*
X2475945Y3834842D01*
X2512881D02*
X2520755Y3842716D01*
X1050918D02*
X1161842D01*
X1079322Y3664479D02*
X1133605D01*
X1072542Y3671260D02*
X1079322Y3664479D01*
X1133605D02*
X1161842Y3692716D01*
X1409826Y1741958D02*
X1410343Y1741441D01*
X1574803Y703335D02*
Y708661D01*
X1566523Y695055D02*
X1574803Y703335D01*
X1410343Y1657830D02*
X1410860Y1657313D01*
X1642313Y1939764D02*
X1663966Y1918110D01*
X1785433Y1741142D02*
Y1743110D01*
X1808150Y1660266D02*
Y1718425D01*
X1785433Y1741142D02*
X1808150Y1718425D01*
X2239094Y485158D02*
X2277480D01*
X2200709D02*
X2239094D01*
X1636824Y599831D02*
X1639515Y602522D01*
X1636824Y597700D02*
Y599831D01*
X1639515Y602522D02*
Y647638D01*
X1685617Y521316D02*
X1708048Y543747D01*
X1671781Y544938D02*
X1711408D01*
X1712598Y543747D01*
X1924301Y661401D02*
Y740730D01*
X1901003Y1415809D02*
Y1495137D01*
X1630502Y1784281D02*
Y1821840D01*
X1582618Y1866772D02*
X1585571D01*
X1630502Y1821840D01*
X1579586Y1217926D02*
X1582618Y1214895D01*
X1496063Y1217926D02*
X1579586D01*
X1496063Y1869803D02*
X1579586D01*
X1582618Y1866772D01*
X1467915Y548590D02*
X1470582Y545923D01*
X1560954D01*
X1670797Y520332D02*
X1671781Y521316D01*
X1685617D01*
X1712598Y543747D02*
X1769419D01*
X1670797Y545923D02*
X1671781Y544938D01*
X1566523Y647638D02*
Y695055D01*
X1712598Y469577D02*
X1768241D01*
X1769419Y470755D01*
X1670797Y469151D02*
X1671010Y469364D01*
X1712385D01*
X1712598Y469577D01*
X1534309Y493434D02*
X1535261Y494386D01*
X1533001Y492126D02*
X1534309Y493434D01*
X1559647D02*
X1560954Y494741D01*
X1534309Y493434D02*
X1559647D01*
X1535261Y494386D02*
Y505466D01*
X1550127Y520332D02*
X1560954D01*
X1535261Y505466D02*
X1550127Y520332D01*
X1475159Y459746D02*
X1482149Y452756D01*
X1533732D02*
X1550127Y469151D01*
X1560954D01*
X1533001Y452756D02*
X1533732D01*
X1670797Y469151D02*
Y494741D01*
X1560954Y469151D02*
Y494741D01*
Y520332D01*
Y642069D02*
X1566523Y647638D01*
X1560954Y545923D02*
Y642069D01*
X2480315Y492305D02*
X2578740D01*
X2362205Y504068D02*
X2381446Y523310D01*
X2349278Y491142D02*
X2362205Y504068D01*
X2476378Y492305D02*
X2480315D01*
X2362205Y504068D02*
X2464615D01*
X2476378Y492305D01*
X2283465Y491142D02*
X2349278D01*
X2198819Y483268D02*
X2200709Y485158D01*
X2277480D02*
X2283465Y491142D01*
D111*
X2746373Y2933071D02*
X2747043Y2933740D01*
Y3038140D01*
X785000Y2913386D02*
Y3025591D01*
X971458Y3841251D02*
X973960Y3838750D01*
X1033015Y3375082D02*
X1043920Y3364176D01*
Y3361300D02*
Y3364176D01*
X1027109Y3415094D02*
X1033015Y3409189D01*
Y3375082D02*
Y3409189D01*
X1771653Y2750000D02*
Y2842520D01*
Y3051181D02*
Y3149606D01*
X1463165Y3035433D02*
Y3080709D01*
X1670440Y3273313D02*
Y3274297D01*
X1524096Y3126968D02*
X1670440Y3273313D01*
X1509425Y3126968D02*
X1524096D01*
X1463165Y3080709D02*
X1509425Y3126968D01*
X1533020Y3423878D02*
X1549742Y3440600D01*
X1567098D01*
X1538372Y3358760D02*
X1567098Y3387486D01*
X1621227D01*
X1533020Y3358760D02*
X1538372D01*
X1567098Y3440600D02*
Y3480276D01*
X1670440Y3436698D02*
Y3437683D01*
X1621227Y3387486D02*
X1670440Y3436698D01*
X1456693Y3382540D02*
X1457677Y3381555D01*
X1510224D01*
X1533020Y3358760D01*
X1377953Y3360079D02*
X1399429Y3381555D01*
X1455709D01*
X1456693Y3382540D01*
X2283465Y3472972D02*
X2327835D01*
X2334646Y3466161D01*
X2141981Y3345937D02*
X2224409D01*
X2230327Y3340019D01*
X1974872Y3356299D02*
X2057549D01*
X2058534Y3355315D02*
X2140227D01*
X2057549Y3356299D02*
X2058534Y3355315D01*
X2140227D02*
X2149605Y3345937D01*
X2230327Y3340019D02*
X2466255D01*
X2491041Y3364805D02*
Y3419567D01*
X2466255Y3340019D02*
X2491041Y3364805D01*
Y3419567D02*
X2491750Y3420276D01*
X1943686Y3387486D02*
X1974872Y3356299D01*
X1919291Y3387486D02*
X1943686D01*
X1870079Y3436698D02*
X1919291Y3387486D01*
X1870079Y3436698D02*
Y3437683D01*
Y3273313D02*
X2025281Y3118110D01*
X1870079Y3273313D02*
Y3274297D01*
X2025281Y3118110D02*
X2025591D01*
X2066929Y3076772D01*
Y3031496D02*
Y3076772D01*
X2747043Y3442247D02*
X3011811Y3707016D01*
X2747043Y3246801D02*
Y3442247D01*
X2456693Y3076772D02*
X2498031Y3118110D01*
X2655753D02*
X2747043Y3209399D01*
Y3246801D01*
X2456693Y3031496D02*
Y3076772D01*
X2498031Y3118110D02*
X2655753D01*
X1364331Y3346457D02*
X1377953Y3360079D01*
X1266181Y3368324D02*
Y3385138D01*
X1288049Y3346457D02*
X1364331D01*
X1266181Y3368324D02*
X1288049Y3346457D01*
X1265827Y3385492D02*
Y3426276D01*
Y3385492D02*
X1266181Y3385138D01*
X1265118Y3426984D02*
X1265827Y3426276D01*
X2224409Y3411055D02*
X2236390Y3399074D01*
X2328740D01*
X2334646Y3393169D01*
X1463165Y2990157D02*
Y3035433D01*
X785000Y3234252D02*
Y3649598D01*
X728346Y3706251D02*
X785000Y3649598D01*
Y3196850D02*
X946417Y3035433D01*
X785000Y3196850D02*
Y3234252D01*
X946417Y3035433D02*
X1073401D01*
D112*
X1110928Y3415094D02*
X1189857D01*
X1100101D02*
X1110928D01*
Y3380816D02*
Y3404267D01*
Y3380816D02*
X1122047Y3369697D01*
X1100101Y3415094D02*
X1110928Y3404267D01*
X1122047Y3364157D02*
Y3369697D01*
X2409167Y3393169D02*
X2436274Y3420276D01*
X2334646Y3393169D02*
X2409167D01*
X1209542Y3431716D02*
X1213574Y3435748D01*
X1189857Y3415094D02*
X1209542Y3395409D01*
X1193465Y3414189D02*
X1209542Y3430267D01*
Y3431716D01*
X1357775Y407480D02*
X1410041Y459746D01*
X1200787Y407480D02*
X1357775D01*
X1230938Y548590D02*
X1410041D01*
X1200787Y578740D02*
X1230938Y548590D01*
X1200787Y578740D02*
Y616142D01*
D113*
X3602362Y467716D02*
D03*
Y567716D02*
D03*
Y667716D02*
D03*
Y767716D02*
D03*
Y867716D02*
D03*
Y967716D02*
D03*
X3702362D02*
D03*
Y867716D02*
D03*
Y767716D02*
D03*
Y667716D02*
D03*
Y567716D02*
D03*
X3489715Y3780628D02*
D03*
X3589715D02*
D03*
X3689715D02*
D03*
X3789715D02*
D03*
Y3680628D02*
D03*
X3689715D02*
D03*
X3589715D02*
D03*
X3228347Y3692016D02*
D03*
X314961Y3691251D02*
D03*
D114*
X3702362Y467716D02*
D03*
X3228347Y3792016D02*
D03*
X314961Y3791251D02*
D03*
D115*
X3489715Y3680628D02*
D03*
D116*
X2814961Y3707016D02*
D03*
X1684622Y3720472D02*
D03*
X531496Y3706251D02*
D03*
D117*
X3011811Y3707016D02*
D03*
X1881473Y3720472D02*
D03*
X728346Y3706251D02*
D03*
D118*
X3346457Y3346457D02*
D03*
X196850Y3346457D02*
D03*
X3346457Y192299D02*
D03*
X196850Y196850D02*
D03*
X2677165Y2677165D02*
D03*
X866142D02*
D03*
X2677165Y866142D02*
D03*
X866142D02*
D03*
D119*
X1665796Y1114375D02*
D03*
X1664532Y1766654D02*
D03*
X3802205Y3424134D02*
D03*
X3801181Y3254843D02*
D03*
X3718504Y3428071D02*
D03*
X3717481Y3258780D02*
D03*
X1063605Y3281496D02*
D03*
X651141Y3598706D02*
D03*
X1326772Y3648725D02*
D03*
X1417323Y3791251D02*
D03*
X935502Y3841251D02*
D03*
X2563201Y3793440D02*
D03*
X2081535Y3844811D02*
D03*
X1808150Y1068819D02*
D03*
X2232126Y948081D02*
D03*
X2293600Y951812D02*
D03*
X2720572Y473524D02*
D03*
X2684111Y508457D02*
D03*
X1808150Y1718425D02*
D03*
X1680218Y1005436D02*
D03*
X1681353Y1657313D02*
D03*
X1757874Y1699636D02*
D03*
X1541762Y1136907D02*
D03*
Y1784281D02*
D03*
X1882953Y475304D02*
D03*
Y550558D02*
D03*
X1636824Y597700D02*
D03*
X1956860Y514359D02*
D03*
X2411743Y616979D02*
D03*
X1924301Y701066D02*
D03*
X1901003Y1455473D02*
D03*
X2000983Y454988D02*
D03*
X1712598Y469577D02*
D03*
X1533001Y492126D02*
D03*
Y452756D02*
D03*
X1757874Y1050029D02*
D03*
D120*
X2746373Y2933071D02*
D03*
X785000Y2913386D02*
D03*
X1043920Y3361300D02*
D03*
X1122047Y3364157D02*
D03*
X1771653Y2750000D02*
D03*
Y3149606D02*
D03*
X2283465Y3472972D02*
D03*
X2277172Y3404528D02*
D03*
D121*
X1567098Y3440600D02*
D03*
Y3480276D02*
D03*
X2102045Y3411055D02*
D03*
X1630502Y1939764D02*
D03*
X1574803Y708661D02*
D03*
X1712598Y543747D02*
D03*
X2239095Y532559D02*
D03*
X2239094Y485158D02*
D03*
X1496063Y1217926D02*
D03*
Y1869803D02*
D03*
X2007650Y508453D02*
D03*
X1354331Y548590D02*
D03*
X1279528D02*
D03*
X1633966Y1299213D02*
D03*
M02*
