G04*
G04 #@! TF.GenerationSoftware,Altium Limited,Altium Designer,24.0.1 (36)*
G04*
G04 Layer_Color=32768*
%FSLAX26Y26*%
%MOIN*%
G70*
G04*
G04 #@! TF.SameCoordinates,F42C736F-CBB7-40B1-BF54-99FABD9F894E*
G04*
G04*
G04 #@! TF.FilePolarity,Positive*
G04*
G01*
G75*
%ADD10C,0.010000*%
%ADD13C,0.003937*%
%ADD14C,0.007874*%
%ADD123C,0.001968*%
D10*
X3596457Y3215472D02*
X3864173D01*
X3596457Y3428071D02*
X3864173D01*
X3596457Y3215472D02*
Y3428071D01*
X3864173Y3215472D02*
Y3428071D01*
D13*
X2081171Y3325787D02*
X2085108Y3329724D01*
X2029990D02*
X2033927Y3325787D01*
X2085108Y3416339D02*
X2081171Y3420276D01*
X2033927D02*
X2029990Y3416339D01*
X1480315Y3352028D02*
X1484252Y3355965D01*
X1429134D02*
X1433071Y3352028D01*
X1484252Y3442579D02*
X1480315Y3446516D01*
X1433071D02*
X1429134Y3442579D01*
X1200787Y492126D02*
Y531496D01*
X1181102Y511811D02*
X1220473D01*
X1421262Y548590D02*
X1456695D01*
X1438978Y530873D02*
Y566307D01*
X1424884Y459746D02*
X1460317D01*
X1442600Y442030D02*
Y477463D01*
X1615876Y487852D02*
Y527222D01*
X1596190Y507537D02*
X1635561D01*
X2179134Y574803D02*
X2204724Y549213D01*
X2047244Y574803D02*
X2204724D01*
X2047244Y417323D02*
Y574803D01*
Y417323D02*
X2204724D01*
Y574803D01*
X2578740Y442030D02*
Y477463D01*
X2561024Y459746D02*
X2596457D01*
X2480315Y442030D02*
Y477463D01*
X2462598Y459746D02*
X2498032D01*
X2342520Y540565D02*
X2381890D01*
X2362205Y520880D02*
Y560250D01*
X2283465Y495079D02*
Y522638D01*
X2269685Y508858D02*
X2297244D01*
X2196693Y647638D02*
X2232126D01*
X2214409Y629921D02*
Y665354D01*
X2490755Y3549832D02*
Y3585265D01*
X2473038Y3567549D02*
X2508472D01*
X2322835Y3548927D02*
Y3584360D01*
X2305118Y3566643D02*
X2340551D01*
X2747043Y3122785D02*
Y3162155D01*
X2727358Y3142470D02*
X2766728D01*
X2314961Y3429665D02*
X2354331D01*
X2334646Y3409980D02*
Y3449350D01*
X2399663Y3360276D02*
Y3480276D01*
Y3360276D02*
X2549663D01*
Y3480276D01*
X2399663D02*
X2549663D01*
X2224409Y3360779D02*
Y3396212D01*
X2206693Y3378496D02*
X2242126D01*
X2141981Y3360779D02*
Y3396212D01*
X2124265Y3378496D02*
X2159698D01*
X2033927Y3325787D02*
X2081171D01*
X2033927Y3420276D02*
X2081171D01*
X2029990Y3329724D02*
Y3416339D01*
X2085108Y3329724D02*
Y3416339D01*
X2163635Y3756999D02*
X2199068D01*
X2181352Y3739283D02*
Y3774716D01*
X2161666Y3671260D02*
X2201037D01*
X2181352Y3651575D02*
Y3690945D01*
X1749734Y507251D02*
X1789104D01*
X1769419Y487566D02*
Y526936D01*
X2243403Y1062963D02*
X2282773D01*
X2263088Y1043278D02*
Y1082648D01*
X2250004Y1140925D02*
X2277563D01*
X2263783Y1127146D02*
Y1154705D01*
X1425703Y1657313D02*
X1461136D01*
X1443419Y1639596D02*
Y1675029D01*
X1424668Y1741958D02*
X1460101D01*
X1442385Y1724242D02*
Y1759675D01*
X1562933Y1903268D02*
X1602303D01*
X1582618Y1883583D02*
Y1922953D01*
X1663966Y1869803D02*
Y1909173D01*
X1644281Y1889488D02*
X1683651D01*
X1747047Y1732283D02*
Y1811024D01*
Y1732283D02*
X1796260D01*
Y1811024D01*
X1747047D02*
X1796260D01*
X1850727Y1415809D02*
X1886160D01*
X1868444Y1398092D02*
Y1433525D01*
X1850727Y1495137D02*
X1886160D01*
X1868444Y1477421D02*
Y1512854D01*
X1771653Y1640581D02*
Y1679951D01*
X1751968Y1660266D02*
X1791339D01*
X1663966Y1217926D02*
Y1257296D01*
X1644281Y1237611D02*
X1683651D01*
X1562933Y1251391D02*
X1602303D01*
X1582618Y1231706D02*
Y1271076D01*
X1426608Y1090082D02*
X1462041D01*
X1444325Y1072365D02*
Y1107798D01*
X1427514Y1005436D02*
X1462947D01*
X1445230Y987719D02*
Y1023152D01*
X1747047Y1082677D02*
Y1161417D01*
Y1082677D02*
X1796260D01*
Y1161417D01*
X1747047D02*
X1796260D01*
X1939143Y740730D02*
X1974577D01*
X1956860Y723013D02*
Y758447D01*
X1939143Y661401D02*
X1974577D01*
X1956860Y643685D02*
Y679118D01*
X1771653Y990974D02*
Y1030344D01*
X1751968Y1010659D02*
X1791339D01*
X2171495Y3823032D02*
Y3862401D01*
X2151811Y3842716D02*
X2191181D01*
X2337212Y3814173D02*
X2387212Y3864173D01*
X2337212Y3671260D02*
Y3864173D01*
Y3671260D02*
X2490755D01*
Y3864173D01*
X2337212D02*
X2490755D01*
X785000Y3110236D02*
Y3149606D01*
X765314Y3129921D02*
X804685D01*
X1191842Y3814173D02*
X1241842Y3864173D01*
X1191842Y3671260D02*
Y3864173D01*
Y3671260D02*
X1345386D01*
Y3864173D01*
X1191842D02*
X1345386D01*
X1010456Y3819065D02*
Y3858435D01*
X990771Y3838750D02*
X1030141D01*
X1026204Y3759843D02*
X1061637D01*
X1043920Y3742126D02*
Y3777559D01*
X1024235Y3671260D02*
X1063605D01*
X1043920Y3651575D02*
Y3690945D01*
X1299213Y3564961D02*
Y3600394D01*
X1281496Y3582677D02*
X1316929D01*
X1181983Y3563273D02*
Y3598706D01*
X1164267Y3580990D02*
X1199700D01*
X1850394Y3355990D02*
X1889764D01*
X1870079Y3336305D02*
Y3375675D01*
X1650755Y3355990D02*
X1690125D01*
X1670440Y3336305D02*
Y3375675D01*
X1433071Y3352028D02*
X1480315D01*
X1433071Y3446516D02*
X1480315D01*
X1429134Y3355965D02*
Y3442579D01*
X1484252Y3355965D02*
Y3442579D01*
X1533020Y3373603D02*
Y3409036D01*
X1515303Y3391319D02*
X1550736D01*
X1377953Y3374921D02*
Y3410354D01*
X1360236Y3392638D02*
X1395669D01*
X1173031Y3366984D02*
Y3486984D01*
Y3366984D02*
X1323031D01*
Y3486984D01*
X1173031D02*
X1323031D01*
X1063605Y3395409D02*
Y3434779D01*
X1043920Y3415094D02*
X1083290D01*
X1771653Y2927165D02*
Y2966535D01*
X1751968Y2946850D02*
X1791339D01*
X1603020Y627953D02*
Y667323D01*
X1583334Y647638D02*
X1622705D01*
D14*
X1563573Y1642037D02*
Y1799518D01*
Y1642037D02*
X1642313D01*
Y1799518D01*
X1563573D02*
X1642313D01*
X1563573Y990160D02*
Y1147641D01*
Y990160D02*
X1642313D01*
Y1147641D01*
X1563573D02*
X1642313D01*
X1976811Y2756496D02*
X2546811D01*
Y3306496D01*
X1976811D02*
X2546811D01*
X1976811Y2756496D02*
Y3306496D01*
X983283Y3310433D02*
X1553283D01*
X983283Y2760433D02*
Y3310433D01*
Y2760433D02*
X1553283D01*
Y3310433D01*
D123*
X1047244Y704724D02*
X1354331D01*
X1047244Y318898D02*
X1354331D01*
Y704724D01*
X1047244Y318898D02*
Y704724D01*
X1498033Y519062D02*
Y578117D01*
X1379923Y519062D02*
Y578117D01*
Y519062D02*
X1498033D01*
X1379923Y578117D02*
X1498033D01*
X1497600Y432187D02*
Y487305D01*
X1387600Y432187D02*
Y487305D01*
Y432187D02*
X1497600D01*
X1387600Y487305D02*
X1497600D01*
X1533001Y436671D02*
X1698749D01*
X1533001Y578403D02*
X1698749D01*
Y436671D02*
Y578403D01*
X1533001Y436671D02*
Y578403D01*
X2551181Y514746D02*
X2606299D01*
X2551181Y404746D02*
X2606299D01*
Y514746D01*
X2551181Y404746D02*
Y514746D01*
X2452756D02*
X2507874D01*
X2452756Y404746D02*
X2507874D01*
Y514746D01*
X2452756Y404746D02*
Y514746D01*
X2401575Y470565D02*
Y610565D01*
X2322835Y470565D02*
Y610565D01*
X2401575D01*
X2322835Y470565D02*
X2401575D01*
X2261811Y471457D02*
X2305118D01*
X2261811Y546260D02*
X2305118D01*
X2261811Y471457D02*
Y546260D01*
X2305118Y471457D02*
Y546260D01*
X2269409Y620079D02*
Y675197D01*
X2159409Y620079D02*
Y675197D01*
Y620079D02*
X2269409D01*
X2159409Y675197D02*
X2269409D01*
X2463196Y3622549D02*
X2518314D01*
X2463196Y3512549D02*
X2518314D01*
Y3622549D01*
X2463196Y3512549D02*
Y3622549D01*
X2295276Y3621643D02*
X2350394D01*
X2295276Y3511643D02*
X2350394D01*
Y3621643D01*
X2295276Y3511643D02*
Y3621643D01*
X2593499Y3335384D02*
X2900586D01*
X2593499Y2949557D02*
X2900586D01*
Y3335384D01*
X2593499Y2949557D02*
Y3335384D01*
X2374016Y3359665D02*
Y3499665D01*
X2295276Y3359665D02*
Y3499665D01*
X2374016D01*
X2295276Y3359665D02*
X2374016D01*
X2196850Y3323496D02*
X2251968D01*
X2196850Y3433496D02*
X2251968D01*
X2196850Y3323496D02*
Y3433496D01*
X2251968Y3323496D02*
Y3433496D01*
X2114422D02*
X2169540D01*
X2114422Y3323496D02*
X2169540D01*
Y3433496D01*
X2114422Y3323496D02*
Y3433496D01*
X2236352Y3729441D02*
Y3784559D01*
X2126352Y3729441D02*
Y3784559D01*
Y3729441D02*
X2236352D01*
X2126352Y3784559D02*
X2236352D01*
X2126352Y3641732D02*
Y3701260D01*
X2236352Y3641732D02*
Y3701260D01*
X2126352D02*
X2236352D01*
X2126352Y3641732D02*
X2236352D01*
X1730049Y437251D02*
Y577251D01*
X1808789Y437251D02*
Y577251D01*
X1730049Y437251D02*
X1808789D01*
X1730049Y577251D02*
X1808789D01*
X2232576Y1023593D02*
Y1102333D01*
X2293600Y1023593D02*
Y1102333D01*
X2232576Y1023593D02*
X2293600D01*
X2232576Y1102333D02*
X2293600D01*
X2226382Y1119272D02*
Y1162579D01*
X2301185Y1119272D02*
Y1162579D01*
X2226382D02*
X2301185D01*
X2226382Y1119272D02*
X2301185D01*
X1498419Y1629754D02*
Y1684872D01*
X1388419Y1629754D02*
Y1684872D01*
Y1629754D02*
X1498419D01*
X1388419Y1684872D02*
X1498419D01*
X1497385Y1714399D02*
Y1769518D01*
X1387385Y1714399D02*
Y1769518D01*
Y1714399D02*
X1497385D01*
X1387385Y1769518D02*
X1497385D01*
X1621988Y1833268D02*
Y1973268D01*
X1543248Y1833268D02*
Y1973268D01*
X1621988D01*
X1543248Y1833268D02*
X1621988D01*
X1633966Y1834488D02*
X1693494D01*
X1633966Y1944488D02*
X1693494D01*
X1633966Y1834488D02*
Y1944488D01*
X1693494Y1834488D02*
Y1944488D01*
X1813444Y1388250D02*
Y1443368D01*
X1923444Y1388250D02*
Y1443368D01*
X1813444D02*
X1923444D01*
X1813444Y1388250D02*
X1923444D01*
X1813444Y1467578D02*
Y1522696D01*
X1923444Y1467578D02*
Y1522696D01*
X1813444D02*
X1923444D01*
X1813444Y1467578D02*
X1923444D01*
X1701653Y1699636D02*
X1841653D01*
X1701653Y1620896D02*
X1841653D01*
X1701653D02*
Y1699636D01*
X1841653Y1620896D02*
Y1699636D01*
X1633966Y1182611D02*
X1693494D01*
X1633966Y1292611D02*
X1693494D01*
X1633966Y1182611D02*
Y1292611D01*
X1693494Y1182611D02*
Y1292611D01*
X1621988Y1181391D02*
Y1321391D01*
X1543248Y1181391D02*
Y1321391D01*
X1621988D01*
X1543248Y1181391D02*
X1621988D01*
X1499325Y1062523D02*
Y1117641D01*
X1389325Y1062523D02*
Y1117641D01*
Y1062523D02*
X1499325D01*
X1389325Y1117641D02*
X1499325D01*
X1500230Y977877D02*
Y1032995D01*
X1390230Y977877D02*
Y1032995D01*
Y977877D02*
X1500230D01*
X1390230Y1032995D02*
X1500230D01*
X2011860Y713171D02*
Y768289D01*
X1901860Y713171D02*
Y768289D01*
Y713171D02*
X2011860D01*
X1901860Y768289D02*
X2011860D01*
Y633842D02*
Y688960D01*
X1901860Y633842D02*
Y688960D01*
Y633842D02*
X2011860D01*
X1901860Y688960D02*
X2011860D01*
X1701653Y1050029D02*
X1841653D01*
X1701653Y971289D02*
X1841653D01*
X1701653D02*
Y1050029D01*
X1841653Y971289D02*
Y1050029D01*
X2101495Y3882087D02*
X2241495D01*
X2101495Y3803346D02*
X2241495D01*
X2101495D02*
Y3882087D01*
X2241495Y3803346D02*
Y3882087D01*
X631456Y3322835D02*
X938543D01*
X631456Y2937008D02*
X938543D01*
Y3322835D01*
X631456Y2937008D02*
Y3322835D01*
X940456Y3878120D02*
X1080456D01*
X940456Y3799380D02*
X1080456D01*
X940456D02*
Y3878120D01*
X1080456Y3799380D02*
Y3878120D01*
X1098920Y3732284D02*
Y3787402D01*
X988920Y3732284D02*
Y3787402D01*
Y3732284D02*
X1098920D01*
X988920Y3787402D02*
X1098920D01*
X988920Y3641732D02*
Y3701260D01*
X1098920Y3641732D02*
Y3701260D01*
X988920D02*
X1098920D01*
X988920Y3641732D02*
X1098920D01*
X1271653Y3637677D02*
X1326772D01*
X1271653Y3527677D02*
X1326772D01*
Y3637677D01*
X1271653Y3527677D02*
Y3637677D01*
X1154424Y3635990D02*
X1209542D01*
X1154424Y3525990D02*
X1209542D01*
Y3635990D01*
X1154424Y3525990D02*
Y3635990D01*
X1955079Y3185990D02*
Y3525990D01*
X1785079Y3185990D02*
Y3525990D01*
X1955079D01*
X1785079Y3185990D02*
X1955079D01*
X1755440D02*
Y3525990D01*
X1585440Y3185990D02*
Y3525990D01*
X1755440D01*
X1585440Y3185990D02*
X1755440D01*
X1505460Y3336319D02*
X1560579D01*
X1505460Y3446319D02*
X1560579D01*
X1505460Y3336319D02*
Y3446319D01*
X1560579Y3336319D02*
Y3446319D01*
X1350394Y3447638D02*
X1405512D01*
X1350394Y3337638D02*
X1405512D01*
Y3447638D01*
X1350394Y3337638D02*
Y3447638D01*
X993605Y3454464D02*
X1133605D01*
X993605Y3375724D02*
X1133605D01*
X993605D02*
Y3454464D01*
X1133605Y3375724D02*
Y3454464D01*
X1618110Y3139764D02*
X1925197D01*
X1618110Y2753937D02*
X1925197D01*
Y3139764D01*
X1618110Y2753937D02*
Y3139764D01*
X1533020Y608268D02*
X1673020D01*
X1533020Y687008D02*
X1673020D01*
Y608268D02*
Y687008D01*
X1533020Y608268D02*
Y687008D01*
M02*
