%TF.GenerationSoftware,Altium Limited,Altium Designer,24.0.1 (36)*%
G04 Layer_Color=8421504*
%FSLAX25Y25*%
%MOIN*%
%TF.SameCoordinates,D5D63520-F272-4D0B-AB48-B6EDFC209223*%
%TF.FilePolarity,Positive*%
%TF.FileFunction,Paste,Top*%
%TF.Part,Single*%
G01*
G75*
%TA.AperFunction,SMDPad,CuDef*%
%ADD99O,0.00830X0.03468*%
%ADD100R,0.00832X0.03470*%
%ADD101R,0.05811X0.02563*%
%ADD102R,0.02612X0.02710*%
%TA.AperFunction,BGAPad,CuDef*%
%ADD103C,0.00880*%
%TA.AperFunction,SMDPad,CuDef*%
%ADD104R,0.01273X0.04028*%
%ADD105R,0.04028X0.01273*%
%ADD106R,0.08441X0.08441*%
%ADD107R,0.01485X0.01879*%
%ADD108R,0.05495X0.09078*%
%ADD109R,0.03442X0.01277*%
%ADD110R,0.03384X0.02597*%
%ADD111R,0.13067X0.13264*%
%ADD112R,0.02597X0.03384*%
%TA.AperFunction,BGAPad,CuDef*%
%ADD113R,0.01681X0.01681*%
%TA.AperFunction,SMDPad,CuDef*%
%ADD114R,0.03786X0.09353*%
%ADD115R,0.02030X0.09463*%
%ADD116R,0.11410X0.20466*%
%ADD117R,0.03703X0.03506*%
%ADD118R,0.03005X0.02414*%
%ADD119R,0.02966X0.03951*%
%ADD120R,0.05857X0.13338*%
%ADD121R,0.03735X0.03735*%
%ADD122R,0.05432X0.04841*%
%ADD123R,0.04841X0.05432*%
%ADD124R,0.03735X0.03735*%
%ADD125R,0.02536X0.02693*%
%ADD126R,0.02693X0.02536*%
D99*
X380118Y339657D02*
D03*
X377756D02*
D03*
X375394D02*
D03*
X373031D02*
D03*
X370669D02*
D03*
X368307D02*
D03*
X365945D02*
D03*
X364764Y328634D02*
D03*
X367126D02*
D03*
X369488D02*
D03*
X374213D02*
D03*
X371850D02*
D03*
X376575D02*
D03*
X378937D02*
D03*
D100*
X381299D02*
D03*
D101*
X252076Y384272D02*
D03*
Y379272D02*
D03*
Y374272D02*
D03*
Y369272D02*
D03*
X230721D02*
D03*
Y374272D02*
D03*
Y379272D02*
D03*
Y384272D02*
D03*
X137539D02*
D03*
Y379272D02*
D03*
Y374272D02*
D03*
Y369272D02*
D03*
X116184D02*
D03*
Y374272D02*
D03*
Y379272D02*
D03*
Y384272D02*
D03*
D102*
X157538Y100544D02*
D03*
Y104776D02*
D03*
Y109008D02*
D03*
Y113240D02*
D03*
X163050D02*
D03*
Y109008D02*
D03*
Y104776D02*
D03*
Y100544D02*
D03*
X157538Y165731D02*
D03*
Y169964D02*
D03*
Y174196D02*
D03*
Y178428D02*
D03*
X163050D02*
D03*
Y174196D02*
D03*
Y169964D02*
D03*
Y165731D02*
D03*
D103*
X227096Y107871D02*
D03*
Y106296D02*
D03*
Y104721D02*
D03*
X225521Y107871D02*
D03*
Y106296D02*
D03*
Y104721D02*
D03*
D104*
X216437Y56890D02*
D03*
X213878D02*
D03*
X211319D02*
D03*
X208760D02*
D03*
Y42323D02*
D03*
X211319D02*
D03*
X213878D02*
D03*
X216437D02*
D03*
D105*
X205315Y53445D02*
D03*
Y50886D02*
D03*
Y48327D02*
D03*
Y45768D02*
D03*
X219882D02*
D03*
Y48327D02*
D03*
Y50886D02*
D03*
Y53445D02*
D03*
D106*
X212598Y49606D02*
D03*
D107*
X178543Y115059D02*
D03*
Y112205D02*
D03*
Y109350D02*
D03*
X175787D02*
D03*
Y112205D02*
D03*
Y115059D02*
D03*
X178543Y180020D02*
D03*
Y177165D02*
D03*
Y174311D02*
D03*
X175787D02*
D03*
Y177165D02*
D03*
Y180020D02*
D03*
D108*
X161588Y50754D02*
D03*
D109*
X167080Y46915D02*
D03*
Y49474D02*
D03*
Y52033D02*
D03*
Y54592D02*
D03*
X156095Y46915D02*
D03*
Y49474D02*
D03*
Y52033D02*
D03*
Y54592D02*
D03*
D110*
X214198Y341106D02*
D03*
Y334594D02*
D03*
X249076Y360011D02*
D03*
Y353499D02*
D03*
X232283Y359920D02*
D03*
Y353408D02*
D03*
X222441Y334594D02*
D03*
Y341106D02*
D03*
X137795Y342520D02*
D03*
Y336008D02*
D03*
X129921Y361524D02*
D03*
Y355012D02*
D03*
X118198Y361355D02*
D03*
Y354843D02*
D03*
X153302Y335876D02*
D03*
Y342388D02*
D03*
X248031Y49231D02*
D03*
Y42719D02*
D03*
X257874Y49231D02*
D03*
Y42719D02*
D03*
D111*
X187008Y343768D02*
D03*
Y327430D02*
D03*
X167044Y343768D02*
D03*
Y327430D02*
D03*
D112*
X221391Y375700D02*
D03*
X214879D02*
D03*
X107648Y375984D02*
D03*
X101136D02*
D03*
X147779Y100544D02*
D03*
X141267D02*
D03*
X147688Y109008D02*
D03*
X141177D02*
D03*
X147598Y165731D02*
D03*
X141086D02*
D03*
X147494Y174196D02*
D03*
X140983D02*
D03*
X198942Y74073D02*
D03*
X192430D02*
D03*
X198942Y66140D02*
D03*
X192430D02*
D03*
X183589Y149514D02*
D03*
X190100D02*
D03*
X183589Y141581D02*
D03*
X190100D02*
D03*
X224697Y64764D02*
D03*
X218185D02*
D03*
X147516Y45975D02*
D03*
X141004D02*
D03*
D113*
X242010Y345866D02*
D03*
Y343307D02*
D03*
Y340748D02*
D03*
Y338189D02*
D03*
X252923D02*
D03*
Y340748D02*
D03*
Y343307D02*
D03*
Y345866D02*
D03*
X119346Y346537D02*
D03*
Y343978D02*
D03*
Y341419D02*
D03*
Y338860D02*
D03*
X130260D02*
D03*
Y341419D02*
D03*
Y343978D02*
D03*
Y346537D02*
D03*
D114*
X249175Y342028D02*
D03*
X126512Y342698D02*
D03*
D115*
X244825Y342028D02*
D03*
X122161Y342698D02*
D03*
D116*
X206693Y303150D02*
D03*
X245669D02*
D03*
X146317Y303543D02*
D03*
X107340D02*
D03*
D117*
X146792Y54859D02*
D03*
X141004D02*
D03*
D118*
X205755Y339764D02*
D03*
X145669Y342388D02*
D03*
D119*
X205755Y335630D02*
D03*
X145669Y338254D02*
D03*
D120*
X274704Y324680D02*
D03*
Y303814D02*
D03*
X78500Y323425D02*
D03*
Y302559D02*
D03*
X177165Y305118D02*
D03*
Y284252D02*
D03*
X120079Y61614D02*
D03*
Y40748D02*
D03*
D121*
X220997Y367126D02*
D03*
X215273D02*
D03*
X107254D02*
D03*
X101530D02*
D03*
D122*
X233465Y346616D02*
D03*
Y339317D02*
D03*
X158262Y128789D02*
D03*
Y121490D02*
D03*
Y193976D02*
D03*
Y186677D02*
D03*
X236221Y57706D02*
D03*
Y50407D02*
D03*
X176942Y47076D02*
D03*
Y54375D02*
D03*
D123*
X213500Y384272D02*
D03*
X220799D02*
D03*
X102711Y341509D02*
D03*
X110010D02*
D03*
X97396Y383875D02*
D03*
X104695D02*
D03*
X173516Y101066D02*
D03*
X180815D02*
D03*
X173516Y166027D02*
D03*
X180815D02*
D03*
X163952Y64764D02*
D03*
X156652D02*
D03*
D124*
X166397Y126623D02*
D03*
Y120899D02*
D03*
Y191811D02*
D03*
Y186087D02*
D03*
D125*
X228150Y114093D02*
D03*
X224607D02*
D03*
D126*
X228346Y52658D02*
D03*
Y49114D02*
D03*
%TF.MD5,ebbf193df8f7f2f9988ff5a135d39803*%
M02*
