G04*
G04 #@! TF.GenerationSoftware,Altium Limited,Altium Designer,24.0.1 (36)*
G04*
G04 Layer_Color=8421504*
%FSLAX26Y26*%
%MOIN*%
G70*
G04*
G04 #@! TF.SameCoordinates,F42C736F-CBB7-40B1-BF54-99FABD9F894E*
G04*
G04*
G04 #@! TF.FilePolarity,Positive*
G04*
G01*
G75*
%ADD16R,0.009765X0.036143*%
%ADD17O,0.009791X0.036169*%
%ADD18R,0.067226X0.142029*%
%ADD19R,0.040830X0.038861*%
%ADD20R,0.029073X0.036947*%
%ADD21R,0.062199X0.098026*%
%ADD22R,0.036406X0.014752*%
%ADD23R,0.093319X0.093319*%
%ADD24R,0.042353X0.014794*%
%ADD25R,0.014794X0.042353*%
%ADD26R,0.036947X0.029073*%
%ADD27R,0.059721X0.053816*%
%ADD28R,0.029691X0.028116*%
%ADD29R,0.018581X0.018581*%
%ADD30R,0.043596X0.099266*%
%ADD31R,0.023899X0.098230*%
%ADD32R,0.032875X0.026969*%
%ADD33R,0.033242X0.043084*%
%ADD34R,0.041292X0.041292*%
%ADD35C,0.008803*%
%ADD36R,0.028116X0.029691*%
%ADD37R,0.028928X0.029912*%
%ADD38R,0.041292X0.041292*%
%ADD39R,0.016602X0.020539*%
%ADD40R,0.053816X0.059721*%
%ADD41R,0.061889X0.029409*%
%ADD42R,0.144569X0.146537*%
%ADD43R,0.129629X0.220180*%
D16*
X3647638Y3286339D02*
D03*
D17*
X3671260D02*
D03*
X3694882D02*
D03*
X3718504D02*
D03*
X3742126D02*
D03*
X3765748D02*
D03*
X3789370D02*
D03*
X3812992D02*
D03*
X3659449Y3396575D02*
D03*
X3683071D02*
D03*
X3706693D02*
D03*
X3730315D02*
D03*
X3753937D02*
D03*
X3777559D02*
D03*
X3801181D02*
D03*
D18*
X1200787Y616142D02*
D03*
Y407480D02*
D03*
X2747043Y3246801D02*
D03*
Y3038140D02*
D03*
X785000Y3234252D02*
D03*
Y3025591D02*
D03*
X1771653Y3051181D02*
D03*
Y2842520D02*
D03*
D19*
X1467915Y548590D02*
D03*
X1410041D02*
D03*
D20*
X1475159Y459746D02*
D03*
X1410041D02*
D03*
X2246968Y647638D02*
D03*
X2181850D02*
D03*
X2213911Y3756999D02*
D03*
X2148793D02*
D03*
X1475978Y1657313D02*
D03*
X1410860D02*
D03*
X1474944Y1741958D02*
D03*
X1409826D02*
D03*
X1835885Y1415809D02*
D03*
X1901003D02*
D03*
X1835885Y1495137D02*
D03*
X1901003D02*
D03*
X1476884Y1090082D02*
D03*
X1411766D02*
D03*
X1477789Y1005436D02*
D03*
X1412671D02*
D03*
X1989419Y740730D02*
D03*
X1924301D02*
D03*
X1989419Y661401D02*
D03*
X1924301D02*
D03*
X1076479Y3759843D02*
D03*
X1011361D02*
D03*
D21*
X1615876Y507537D02*
D03*
D22*
X1670797Y469151D02*
D03*
Y494741D02*
D03*
Y520332D02*
D03*
Y545923D02*
D03*
X1560954Y469151D02*
D03*
Y494741D02*
D03*
Y520332D02*
D03*
Y545923D02*
D03*
D23*
X2125984Y496063D02*
D03*
D24*
X2198819Y534449D02*
D03*
Y508858D02*
D03*
Y483268D02*
D03*
Y457677D02*
D03*
X2053150D02*
D03*
Y483268D02*
D03*
Y508858D02*
D03*
Y534449D02*
D03*
D25*
X2164370Y423228D02*
D03*
X2138780D02*
D03*
X2113189D02*
D03*
X2087598D02*
D03*
Y568898D02*
D03*
X2113189D02*
D03*
X2138780D02*
D03*
X2164370D02*
D03*
D26*
X2578740Y492305D02*
D03*
Y427187D02*
D03*
X2480315Y492305D02*
D03*
Y427187D02*
D03*
X2490755Y3600108D02*
D03*
Y3534990D02*
D03*
X2322835Y3599202D02*
D03*
Y3534084D02*
D03*
X2224409Y3345937D02*
D03*
Y3411055D02*
D03*
X2141981Y3411055D02*
D03*
Y3345937D02*
D03*
X1299213Y3614173D02*
D03*
Y3550118D02*
D03*
X1181983Y3614173D02*
D03*
Y3548431D02*
D03*
X1533020Y3358760D02*
D03*
Y3423878D02*
D03*
X1377953Y3425197D02*
D03*
Y3360079D02*
D03*
D27*
X2362205Y577061D02*
D03*
Y504068D02*
D03*
X2334646Y3466161D02*
D03*
Y3393169D02*
D03*
X1769419Y470755D02*
D03*
Y543747D02*
D03*
X1582618Y1939764D02*
D03*
Y1866772D02*
D03*
Y1287887D02*
D03*
Y1214895D02*
D03*
D28*
X2283465Y526575D02*
D03*
Y491142D02*
D03*
D29*
X2420097Y3458662D02*
D03*
Y3433071D02*
D03*
Y3407480D02*
D03*
Y3381890D02*
D03*
X2529230D02*
D03*
Y3407480D02*
D03*
Y3433071D02*
D03*
Y3458662D02*
D03*
X1193465Y3465370D02*
D03*
Y3439779D02*
D03*
Y3414189D02*
D03*
Y3388598D02*
D03*
X1302598D02*
D03*
Y3414189D02*
D03*
Y3439779D02*
D03*
Y3465370D02*
D03*
D30*
X2491750Y3420276D02*
D03*
X1265118Y3426984D02*
D03*
D31*
X2448246Y3420276D02*
D03*
X1221614Y3426984D02*
D03*
D32*
X2057549Y3397638D02*
D03*
X1456693Y3423878D02*
D03*
D33*
X2057549Y3356299D02*
D03*
X1456693Y3382540D02*
D03*
D34*
X2152729Y3671260D02*
D03*
X2209974D02*
D03*
X1015298D02*
D03*
X1072542D02*
D03*
D35*
X2255214Y1047215D02*
D03*
Y1062963D02*
D03*
Y1078711D02*
D03*
X2270962Y1047215D02*
D03*
Y1062963D02*
D03*
Y1078711D02*
D03*
D36*
X2281500Y1140925D02*
D03*
X2246067D02*
D03*
D37*
X1575384Y1657313D02*
D03*
Y1699636D02*
D03*
Y1741958D02*
D03*
Y1784281D02*
D03*
X1630502D02*
D03*
Y1741958D02*
D03*
Y1699636D02*
D03*
Y1657313D02*
D03*
X1575384Y1005436D02*
D03*
Y1047759D02*
D03*
Y1090082D02*
D03*
Y1132404D02*
D03*
X1630502D02*
D03*
Y1090082D02*
D03*
Y1047759D02*
D03*
Y1005436D02*
D03*
D38*
X1663966Y1860866D02*
D03*
Y1918110D02*
D03*
Y1208989D02*
D03*
Y1266233D02*
D03*
D39*
X1785433Y1800197D02*
D03*
Y1771653D02*
D03*
Y1743110D02*
D03*
X1757874D02*
D03*
Y1771653D02*
D03*
Y1800197D02*
D03*
X1785433Y1150591D02*
D03*
Y1122047D02*
D03*
Y1093504D02*
D03*
X1757874D02*
D03*
Y1122047D02*
D03*
Y1150591D02*
D03*
D40*
X1735158Y1660266D02*
D03*
X1808150D02*
D03*
X1735158Y1010659D02*
D03*
X1808150D02*
D03*
X2134999Y3842716D02*
D03*
X2207992D02*
D03*
X973960Y3838750D02*
D03*
X1046952D02*
D03*
X1027109Y3415094D02*
D03*
X1100101D02*
D03*
X1639515Y647638D02*
D03*
X1566523D02*
D03*
D41*
X2520755Y3842716D02*
D03*
Y3792716D02*
D03*
Y3742716D02*
D03*
Y3692716D02*
D03*
X2307212D02*
D03*
Y3742716D02*
D03*
Y3792716D02*
D03*
Y3842716D02*
D03*
X1375386D02*
D03*
Y3792716D02*
D03*
Y3742716D02*
D03*
Y3692716D02*
D03*
X1161842D02*
D03*
Y3742716D02*
D03*
Y3792716D02*
D03*
Y3842716D02*
D03*
D42*
X1870079Y3437683D02*
D03*
Y3274297D02*
D03*
X1670440Y3437683D02*
D03*
Y3274297D02*
D03*
D43*
X2066929Y3031496D02*
D03*
X2456693D02*
D03*
X1463165Y3035433D02*
D03*
X1073401D02*
D03*
M02*
