%TF.GenerationSoftware,Altium Limited,Altium Designer,24.0.1 (36)*%
G04 Layer_Physical_Order=4*
G04 Layer_Color=16711680*
%FSLAX25Y25*%
%MOIN*%
%TF.SameCoordinates,D5D63520-F272-4D0B-AB48-B6EDFC209223*%
%TF.FilePolarity,Positive*%
%TF.FileFunction,Copper,L4,Bot,Signal*%
%TF.Part,Single*%
G01*
G75*
%TA.AperFunction,Conductor*%
%ADD40C,0.00787*%
%ADD41C,0.03937*%
%ADD42C,0.02953*%
%ADD43C,0.01000*%
%TA.AperFunction,ComponentPad*%
%ADD46R,0.07677X0.07677*%
%ADD47C,0.07677*%
%ADD48C,0.06299*%
%ADD49R,0.06299X0.06299*%
%ADD50R,0.06299X0.06299*%
%TA.AperFunction,ViaPad*%
%ADD51C,0.24410*%
%ADD52C,0.01968*%
%ADD53C,0.05000*%
%ADD54C,0.03150*%
G36*
X333626Y366215D02*
X333704Y365824D01*
X333925Y365494D01*
X334256Y365273D01*
X334256Y365273D01*
X334717Y365081D01*
X334717Y365081D01*
X335108Y365004D01*
X335498Y365081D01*
X335603Y365151D01*
X336085Y365351D01*
X336469D01*
X336824Y365204D01*
X337095Y364933D01*
X337242Y364579D01*
Y364195D01*
X337095Y363840D01*
X336824Y363569D01*
X336469Y363422D01*
X336085D01*
X335603Y363622D01*
X335498Y363692D01*
X335108Y363770D01*
X334717Y363692D01*
X334256Y363501D01*
X334256Y363501D01*
X333925Y363280D01*
X333704Y362949D01*
X333626Y362559D01*
Y347850D01*
X333606D01*
X331554Y347525D01*
X329577Y346883D01*
X327725Y345939D01*
X326043Y344718D01*
X324574Y343248D01*
X323352Y341566D01*
X322408Y339715D01*
X321766Y337738D01*
X321441Y335685D01*
Y335146D01*
X334646D01*
Y334146D01*
X321441D01*
Y333606D01*
X321766Y331554D01*
X322408Y329577D01*
X323352Y327725D01*
X324574Y326043D01*
X326043Y324574D01*
X327725Y323352D01*
X329577Y322408D01*
X331554Y321766D01*
X333606Y321441D01*
X333626D01*
Y307159D01*
X333704Y306769D01*
X333925Y306438D01*
X334256Y306218D01*
X334256Y306217D01*
X334717Y306026D01*
X334717Y306026D01*
X335108Y305948D01*
X335498Y306026D01*
X335603Y306096D01*
X336085Y306296D01*
X336469D01*
X336824Y306149D01*
X337095Y305878D01*
X337242Y305523D01*
Y305140D01*
X337095Y304785D01*
X336824Y304514D01*
X336469Y304367D01*
X336085D01*
X335603Y304567D01*
X335498Y304637D01*
X335108Y304714D01*
X334717Y304637D01*
X334256Y304446D01*
X334256Y304446D01*
X333925Y304224D01*
X333704Y303894D01*
X333626Y303503D01*
Y287474D01*
X333704Y287084D01*
X333925Y286753D01*
X334256Y286532D01*
X334256Y286532D01*
X334717Y286341D01*
X334717Y286341D01*
X335108Y286263D01*
X335498Y286341D01*
X335603Y286411D01*
X336085Y286611D01*
X336469D01*
X336824Y286464D01*
X337095Y286193D01*
X337242Y285838D01*
Y285455D01*
X337095Y285100D01*
X336824Y284829D01*
X336469Y284682D01*
X336085D01*
X335603Y284882D01*
X335498Y284952D01*
X335108Y285029D01*
X334717Y284952D01*
X334256Y284760D01*
X334256Y284760D01*
X333925Y284539D01*
X333704Y284209D01*
X333626Y283819D01*
Y267789D01*
X333704Y267399D01*
X333925Y267068D01*
X334256Y266847D01*
X334256Y266847D01*
X334717Y266656D01*
X334717Y266656D01*
X335108Y266578D01*
X335498Y266656D01*
X335603Y266726D01*
X336085Y266926D01*
X336469D01*
X336824Y266779D01*
X337095Y266508D01*
X337242Y266153D01*
Y265770D01*
X337095Y265415D01*
X336824Y265144D01*
X336469Y264997D01*
X336085D01*
X335603Y265197D01*
X335498Y265267D01*
X335108Y265344D01*
X334717Y265267D01*
X334256Y265075D01*
X334256Y265075D01*
X333925Y264854D01*
X333704Y264524D01*
X333626Y264133D01*
Y248104D01*
X333704Y247714D01*
X333925Y247383D01*
X334256Y247162D01*
X334256Y247162D01*
X334717Y246971D01*
X334717Y246971D01*
X335108Y246893D01*
X335498Y246971D01*
X335603Y247041D01*
X336085Y247241D01*
X336469D01*
X336824Y247094D01*
X337095Y246823D01*
X337242Y246468D01*
Y246084D01*
X337095Y245730D01*
X336824Y245459D01*
X336469Y245312D01*
X336085D01*
X335603Y245512D01*
X335498Y245582D01*
X335108Y245659D01*
X334717Y245582D01*
X334256Y245390D01*
X334256Y245390D01*
X333925Y245169D01*
X333704Y244839D01*
X333626Y244448D01*
Y228419D01*
X333704Y228029D01*
X333925Y227698D01*
X334256Y227477D01*
X334256Y227477D01*
X334717Y227286D01*
X334717Y227286D01*
X335108Y227208D01*
X335498Y227286D01*
X335603Y227356D01*
X336085Y227556D01*
X336469D01*
X336824Y227409D01*
X337095Y227138D01*
X337242Y226783D01*
Y226399D01*
X337095Y226045D01*
X336824Y225774D01*
X336469Y225627D01*
X336085D01*
X335603Y225827D01*
X335498Y225897D01*
X335108Y225974D01*
X334717Y225897D01*
X334256Y225705D01*
X334256Y225705D01*
X333925Y225484D01*
X333704Y225153D01*
X333626Y224763D01*
Y208734D01*
X333704Y208344D01*
X333925Y208013D01*
X334256Y207792D01*
X334256Y207792D01*
X334717Y207601D01*
X334717Y207601D01*
X335108Y207523D01*
X335498Y207601D01*
X335603Y207671D01*
X336085Y207871D01*
X336469D01*
X336824Y207724D01*
X337095Y207453D01*
X337242Y207098D01*
Y206714D01*
X337095Y206360D01*
X336824Y206088D01*
X336469Y205942D01*
X336085D01*
X335603Y206141D01*
X335498Y206212D01*
X335108Y206289D01*
X334717Y206212D01*
X334256Y206020D01*
X334256Y206020D01*
X333925Y205799D01*
X333704Y205469D01*
X333626Y205078D01*
Y189049D01*
X333704Y188659D01*
X333925Y188328D01*
X334256Y188107D01*
X334256Y188107D01*
X334717Y187916D01*
X334717Y187916D01*
X335108Y187838D01*
X335498Y187916D01*
X335603Y187986D01*
X336085Y188186D01*
X336469D01*
X336824Y188039D01*
X337095Y187768D01*
X337242Y187413D01*
Y187029D01*
X337095Y186675D01*
X336824Y186403D01*
X336469Y186257D01*
X336085D01*
X335603Y186456D01*
X335498Y186527D01*
X335108Y186604D01*
X334717Y186527D01*
X334256Y186335D01*
X334256Y186335D01*
X333925Y186114D01*
X333704Y185783D01*
X333626Y185393D01*
Y169364D01*
X333704Y168974D01*
X333925Y168643D01*
X334256Y168422D01*
X334256Y168422D01*
X334717Y168231D01*
X334717Y168231D01*
X335108Y168153D01*
X335498Y168231D01*
X335603Y168301D01*
X336085Y168501D01*
X336469D01*
X336824Y168354D01*
X337095Y168083D01*
X337242Y167728D01*
Y167344D01*
X337095Y166990D01*
X336824Y166718D01*
X336469Y166571D01*
X336085D01*
X335603Y166771D01*
X335498Y166842D01*
X335108Y166919D01*
X334717Y166842D01*
X334256Y166650D01*
X334256Y166650D01*
X333925Y166429D01*
X333704Y166098D01*
X333626Y165708D01*
Y149679D01*
X333704Y149289D01*
X333925Y148958D01*
X334256Y148737D01*
X334256Y148737D01*
X334717Y148546D01*
X334717Y148546D01*
X335108Y148468D01*
X335498Y148546D01*
X335603Y148616D01*
X336085Y148816D01*
X336469D01*
X336824Y148669D01*
X337095Y148398D01*
X337242Y148043D01*
Y147659D01*
X337095Y147305D01*
X336824Y147033D01*
X336469Y146887D01*
X336085D01*
X335603Y147086D01*
X335498Y147157D01*
X335108Y147234D01*
X334717Y147157D01*
X334256Y146965D01*
X334256Y146965D01*
X333925Y146744D01*
X333704Y146413D01*
X333626Y146023D01*
Y129994D01*
X333704Y129604D01*
X333925Y129273D01*
X334256Y129052D01*
X334256Y129052D01*
X334717Y128861D01*
X334717Y128861D01*
X335108Y128783D01*
X335498Y128861D01*
X335603Y128931D01*
X336085Y129131D01*
X336469D01*
X336824Y128984D01*
X337095Y128713D01*
X337242Y128358D01*
Y127974D01*
X337095Y127620D01*
X336824Y127348D01*
X336469Y127201D01*
X336085D01*
X335603Y127401D01*
X335498Y127471D01*
X335108Y127549D01*
X334717Y127471D01*
X334256Y127280D01*
X334256Y127280D01*
X333925Y127059D01*
X333704Y126728D01*
X333626Y126338D01*
Y110309D01*
X333704Y109919D01*
X333925Y109588D01*
X334256Y109367D01*
X334256Y109367D01*
X334717Y109176D01*
X334717Y109176D01*
X335108Y109098D01*
X335498Y109176D01*
X335603Y109246D01*
X336085Y109446D01*
X336469D01*
X336824Y109299D01*
X337095Y109028D01*
X337242Y108673D01*
Y108289D01*
X337095Y107935D01*
X336824Y107663D01*
X336469Y107516D01*
X336085D01*
X335603Y107716D01*
X335498Y107786D01*
X335108Y107864D01*
X334717Y107786D01*
X334256Y107595D01*
X334256Y107595D01*
X333925Y107374D01*
X333704Y107043D01*
X333626Y106653D01*
Y90624D01*
X333704Y90234D01*
X333925Y89903D01*
X334256Y89682D01*
X334256Y89682D01*
X334717Y89491D01*
X334717Y89491D01*
X335108Y89413D01*
X335498Y89491D01*
X335603Y89561D01*
X336085Y89761D01*
X336469D01*
X336824Y89614D01*
X337095Y89342D01*
X337242Y88988D01*
Y88604D01*
X337095Y88250D01*
X336824Y87978D01*
X336469Y87831D01*
X336085D01*
X335603Y88031D01*
X335498Y88101D01*
X335108Y88179D01*
X334717Y88101D01*
X334256Y87910D01*
X334256Y87910D01*
X333925Y87689D01*
X333704Y87358D01*
X333626Y86968D01*
Y70939D01*
X333704Y70549D01*
X333925Y70218D01*
X334256Y69997D01*
X334256Y69997D01*
X334717Y69806D01*
X334717Y69806D01*
X335108Y69728D01*
X335498Y69806D01*
X335603Y69876D01*
X336085Y70076D01*
X336469D01*
X336824Y69929D01*
X337095Y69657D01*
X337242Y69303D01*
Y68919D01*
X337095Y68564D01*
X336824Y68293D01*
X336469Y68146D01*
X336085D01*
X335603Y68346D01*
X335498Y68416D01*
X335108Y68494D01*
X334717Y68416D01*
X334256Y68225D01*
X334256Y68225D01*
X333925Y68004D01*
X333704Y67673D01*
X333626Y67283D01*
Y59958D01*
X333272Y59605D01*
X256929Y59775D01*
X256791Y60083D01*
X256747Y60276D01*
X256832Y60403D01*
X256942Y60568D01*
X256942Y60569D01*
X256942Y60569D01*
X256981Y60764D01*
X257019Y60958D01*
Y67842D01*
X256942Y68232D01*
X256721Y68563D01*
X256719Y68564D01*
X256572Y68919D01*
Y69303D01*
X256719Y69657D01*
X256721Y69659D01*
X256942Y69990D01*
X257019Y70380D01*
Y78063D01*
X257495Y78218D01*
X257645Y78012D01*
X259114Y76542D01*
X260796Y75321D01*
X262648Y74377D01*
X264624Y73735D01*
X266677Y73409D01*
X267216D01*
Y86614D01*
Y99819D01*
X266677D01*
X264624Y99494D01*
X262648Y98852D01*
X260796Y97908D01*
X259114Y96686D01*
X257645Y95217D01*
X257495Y95011D01*
X257019Y95165D01*
Y107212D01*
X256942Y107602D01*
X256721Y107933D01*
X256719Y107935D01*
X256572Y108289D01*
Y108673D01*
X256730Y109052D01*
X256757Y109076D01*
X256819Y109199D01*
X256895Y109314D01*
X256908Y109375D01*
X256936Y109431D01*
X256946Y109569D01*
X256973Y109704D01*
X256961Y109765D01*
X256965Y109828D01*
X256931Y110112D01*
X256909Y110178D01*
X256905Y110247D01*
X256847Y110365D01*
X256806Y110490D01*
X256761Y110542D01*
X256730Y110605D01*
X256632Y110692D01*
X256546Y110791D01*
X256484Y110822D01*
X256432Y110869D01*
X256308Y110911D01*
X256191Y110970D01*
X256143Y111044D01*
X256023Y111269D01*
X256017Y111288D01*
X255987Y111512D01*
X256637Y113938D01*
X256642Y114017D01*
X256668Y114093D01*
X257006Y116659D01*
X257000Y116738D01*
X257016Y116816D01*
X257016Y118110D01*
X257016Y118110D01*
X257046Y236157D01*
X257046Y236157D01*
X257046Y236158D01*
X257045Y237453D01*
X257030Y237531D01*
X257035Y237610D01*
X256695Y240179D01*
X256669Y240254D01*
X256664Y240333D01*
X255991Y242835D01*
X255956Y242906D01*
X255941Y242984D01*
X254947Y245377D01*
X254903Y245443D01*
X254878Y245518D01*
X253580Y247761D01*
X253528Y247821D01*
X253493Y247892D01*
X251914Y249946D01*
X251854Y249998D01*
X251810Y250065D01*
X249977Y251895D01*
X249911Y251939D01*
X249858Y251999D01*
X247802Y253574D01*
X247730Y253609D01*
X247671Y253662D01*
X245426Y254956D01*
X245351Y254981D01*
X245285Y255025D01*
X242890Y256015D01*
X242812Y256030D01*
X242741Y256065D01*
X240238Y256734D01*
X240159Y256739D01*
X240084Y256764D01*
X237515Y257101D01*
X237435Y257095D01*
X237357Y257111D01*
X236063Y257110D01*
X236063Y257110D01*
X236063Y257110D01*
X216693Y257110D01*
X215399Y257110D01*
X215321Y257094D01*
X215241Y257099D01*
X212675Y256762D01*
X212599Y256736D01*
X212520Y256731D01*
X210020Y256061D01*
X209948Y256026D01*
X209870Y256010D01*
X209719Y255947D01*
X209278Y256296D01*
X209223Y256379D01*
X209184Y256472D01*
X209113Y256543D01*
X209057Y256627D01*
X208974Y256682D01*
X208903Y256753D01*
X208810Y256792D01*
X208727Y256848D01*
X208628Y256867D01*
X208535Y256906D01*
X208435D01*
X208336Y256925D01*
X153302D01*
X152912Y256848D01*
X152799Y256772D01*
X152438Y256668D01*
X152077Y256772D01*
X151965Y256848D01*
X151575Y256925D01*
X98425D01*
X98035Y256848D01*
X97704Y256627D01*
X97483Y256296D01*
X97406Y255906D01*
Y248104D01*
X97483Y247714D01*
X97704Y247383D01*
X98035Y247162D01*
X98035Y247162D01*
X98497Y246971D01*
X98497Y246971D01*
X98887Y246893D01*
X99277Y246971D01*
X99382Y247041D01*
X99865Y247241D01*
X100249D01*
X100603Y247094D01*
X100874Y246823D01*
X101021Y246468D01*
Y246084D01*
X100874Y245730D01*
X100603Y245459D01*
X100249Y245312D01*
X99865D01*
X99382Y245512D01*
X99277Y245582D01*
X98887Y245659D01*
X98497Y245582D01*
X98035Y245390D01*
X98035Y245390D01*
X97704Y245169D01*
X97483Y244839D01*
X97406Y244448D01*
Y228419D01*
X97483Y228029D01*
X97704Y227698D01*
X98035Y227477D01*
X98035Y227477D01*
X98497Y227286D01*
X98497Y227286D01*
X98887Y227208D01*
X99277Y227286D01*
X99382Y227356D01*
X99865Y227556D01*
X100249D01*
X100603Y227409D01*
X100874Y227138D01*
X101021Y226783D01*
Y226399D01*
X100874Y226045D01*
X100603Y225774D01*
X100249Y225627D01*
X99865D01*
X99382Y225827D01*
X99277Y225897D01*
X98887Y225974D01*
X98497Y225897D01*
X98035Y225705D01*
X98035Y225705D01*
X97704Y225484D01*
X97483Y225153D01*
X97406Y224763D01*
Y208734D01*
X97483Y208344D01*
X97704Y208013D01*
X98035Y207792D01*
X98035Y207792D01*
X98497Y207601D01*
X98497Y207601D01*
X98887Y207523D01*
X99277Y207601D01*
X99382Y207671D01*
X99865Y207871D01*
X100249D01*
X100603Y207724D01*
X100874Y207453D01*
X101021Y207098D01*
Y206714D01*
X100874Y206360D01*
X100603Y206088D01*
X100249Y205942D01*
X99865D01*
X99382Y206141D01*
X99277Y206212D01*
X98887Y206289D01*
X98497Y206212D01*
X98035Y206020D01*
X98035Y206020D01*
X97704Y205799D01*
X97483Y205469D01*
X97406Y205078D01*
Y189049D01*
X97483Y188659D01*
X97704Y188328D01*
X98035Y188107D01*
X98035Y188107D01*
X98497Y187916D01*
X98497Y187916D01*
X98887Y187838D01*
X99277Y187916D01*
X99382Y187986D01*
X99865Y188186D01*
X100249D01*
X100603Y188039D01*
X100874Y187768D01*
X101021Y187413D01*
Y187029D01*
X100874Y186675D01*
X100603Y186403D01*
X100249Y186257D01*
X99865D01*
X99382Y186456D01*
X99277Y186527D01*
X98887Y186604D01*
X98497Y186527D01*
X98035Y186335D01*
X98035Y186335D01*
X97704Y186114D01*
X97483Y185783D01*
X97406Y185393D01*
Y169364D01*
X97483Y168974D01*
X97704Y168643D01*
X98035Y168422D01*
X98035Y168422D01*
X98497Y168231D01*
X98497Y168231D01*
X98887Y168153D01*
X99277Y168231D01*
X99382Y168301D01*
X99865Y168501D01*
X100249D01*
X100603Y168354D01*
X100874Y168083D01*
X101021Y167728D01*
Y167344D01*
X100874Y166990D01*
X100603Y166718D01*
X100249Y166571D01*
X99865D01*
X99382Y166771D01*
X99277Y166842D01*
X98887Y166919D01*
X98497Y166842D01*
X98035Y166650D01*
X98035Y166650D01*
X97704Y166429D01*
X97483Y166098D01*
X97406Y165708D01*
Y149679D01*
X97483Y149289D01*
X97704Y148958D01*
X98035Y148737D01*
X98035Y148737D01*
X98497Y148546D01*
X98497Y148546D01*
X98887Y148468D01*
X99277Y148546D01*
X99382Y148616D01*
X99865Y148816D01*
X100249D01*
X100603Y148669D01*
X100874Y148398D01*
X101021Y148043D01*
Y147659D01*
X100874Y147305D01*
X100603Y147033D01*
X100249Y146887D01*
X99865D01*
X99382Y147086D01*
X99277Y147157D01*
X98887Y147234D01*
X98497Y147157D01*
X98035Y146965D01*
X98035Y146965D01*
X97704Y146744D01*
X97483Y146413D01*
X97406Y146023D01*
Y129994D01*
X97483Y129604D01*
X97704Y129273D01*
X98035Y129052D01*
X98035Y129052D01*
X98497Y128861D01*
X98497Y128861D01*
X98887Y128783D01*
X99277Y128861D01*
X99382Y128931D01*
X99865Y129131D01*
X100249D01*
X100603Y128984D01*
X100874Y128713D01*
X101021Y128358D01*
Y127974D01*
X100874Y127620D01*
X100603Y127348D01*
X100249Y127201D01*
X99865D01*
X99382Y127401D01*
X99277Y127471D01*
X98887Y127549D01*
X98497Y127471D01*
X98035Y127280D01*
X98035Y127280D01*
X97704Y127059D01*
X97483Y126728D01*
X97406Y126338D01*
Y110309D01*
X97483Y109919D01*
X97704Y109588D01*
X98035Y109367D01*
X98035Y109367D01*
X98497Y109176D01*
X98497Y109176D01*
X98887Y109098D01*
X99277Y109176D01*
X99382Y109246D01*
X99865Y109446D01*
X100249D01*
X100603Y109299D01*
X100874Y109028D01*
X101021Y108673D01*
Y108289D01*
X100874Y107935D01*
X100603Y107663D01*
X100249Y107516D01*
X99865D01*
X99382Y107716D01*
X99277Y107786D01*
X98887Y107864D01*
X98497Y107786D01*
X98035Y107595D01*
X98035Y107595D01*
X97704Y107374D01*
X97483Y107043D01*
X97406Y106653D01*
Y95035D01*
X96930Y94881D01*
X96686Y95217D01*
X95217Y96686D01*
X93535Y97908D01*
X91683Y98852D01*
X89706Y99494D01*
X87653Y99819D01*
X87114D01*
Y86614D01*
Y73409D01*
X87653D01*
X89706Y73735D01*
X91683Y74377D01*
X93535Y75321D01*
X95217Y76542D01*
X96686Y78012D01*
X96930Y78348D01*
X97406Y78193D01*
Y70939D01*
X97483Y70549D01*
X97704Y70218D01*
X98035Y69997D01*
X98035Y69997D01*
X98497Y69806D01*
X98497Y69806D01*
X98887Y69728D01*
X99277Y69806D01*
X99382Y69876D01*
X99865Y70076D01*
X100249D01*
X100603Y69929D01*
X100874Y69657D01*
X101021Y69303D01*
Y68919D01*
X100874Y68564D01*
X100603Y68293D01*
X100249Y68146D01*
X99865D01*
X99382Y68346D01*
X99277Y68416D01*
X98887Y68494D01*
X98497Y68416D01*
X98035Y68225D01*
X98035Y68225D01*
X97704Y68004D01*
X97483Y67673D01*
X97406Y67283D01*
Y51254D01*
X97483Y50864D01*
X97704Y50533D01*
X98035Y50312D01*
X98035Y50312D01*
X98497Y50121D01*
X98497Y50121D01*
X98887Y50043D01*
X99277Y50121D01*
X99382Y50191D01*
X99865Y50391D01*
X100249D01*
X100603Y50244D01*
X100874Y49972D01*
X101021Y49618D01*
Y49234D01*
X100874Y48880D01*
X100603Y48608D01*
X100249Y48461D01*
X99865D01*
X99382Y48661D01*
X99277Y48731D01*
X98887Y48809D01*
X98497Y48731D01*
X98035Y48540D01*
X98035Y48540D01*
X97704Y48319D01*
X97483Y47988D01*
X97406Y47598D01*
Y31569D01*
X97483Y31179D01*
X97704Y30848D01*
X98035Y30627D01*
X98035Y30627D01*
X98497Y30436D01*
X98497Y30436D01*
X98887Y30358D01*
X99277Y30435D01*
X99382Y30506D01*
X99865Y30706D01*
X100249D01*
X100603Y30559D01*
X100874Y30287D01*
X101021Y29933D01*
Y29549D01*
X100874Y29195D01*
X100603Y28923D01*
X100249Y28776D01*
X99865D01*
X99382Y28976D01*
X99277Y29046D01*
X98887Y29124D01*
X98497Y29046D01*
X98035Y28855D01*
X98035Y28855D01*
X97704Y28634D01*
X97483Y28303D01*
X97406Y27913D01*
Y11884D01*
X97483Y11494D01*
X97704Y11163D01*
X98035Y10942D01*
X98035Y10942D01*
X98497Y10751D01*
X98497Y10751D01*
X98887Y10673D01*
X99277Y10751D01*
X99382Y10821D01*
X99865Y11021D01*
X100249D01*
X100603Y10874D01*
X100874Y10602D01*
X101021Y10248D01*
Y9864D01*
X100874Y9509D01*
X100603Y9238D01*
X100249Y9091D01*
X99865D01*
X99382Y9291D01*
X99277Y9361D01*
X98887Y9439D01*
X98497Y9361D01*
X98035Y9170D01*
X98035Y9170D01*
X97704Y8949D01*
X97483Y8618D01*
X97406Y8228D01*
Y1969D01*
X97458Y1704D01*
X97246Y1325D01*
X97132Y1204D01*
X18474D01*
X16072Y1520D01*
X13732Y2147D01*
X11494Y3074D01*
X9396Y4286D01*
X7474Y5760D01*
X5761Y7474D01*
X4286Y9396D01*
X3074Y11494D01*
X2147Y13732D01*
X1520Y16072D01*
X1204Y18474D01*
Y19685D01*
Y374016D01*
Y375227D01*
X1520Y377629D01*
X2147Y379969D01*
X3074Y382207D01*
X4286Y384305D01*
X5760Y386227D01*
X7474Y387940D01*
X9396Y389415D01*
X11494Y390626D01*
X13732Y391553D01*
X16072Y392180D01*
X18474Y392497D01*
X333626D01*
Y366215D01*
D02*
G37*
G36*
X377629Y392180D02*
X379969Y391553D01*
X382207Y390626D01*
X384305Y389415D01*
X386227Y387940D01*
X387940Y386227D01*
X389415Y384305D01*
X390626Y382207D01*
X391553Y379969D01*
X392180Y377629D01*
X392497Y375227D01*
Y374016D01*
Y19685D01*
Y18474D01*
X392180Y16072D01*
X391553Y13732D01*
X390626Y11494D01*
X389415Y9396D01*
X387940Y7474D01*
X386227Y5761D01*
X384305Y4286D01*
X382207Y3074D01*
X379969Y2147D01*
X377629Y1520D01*
X375227Y1204D01*
X153300D01*
Y43291D01*
X153695D01*
X154424Y43593D01*
X154982Y44152D01*
X155284Y44881D01*
Y45670D01*
X154982Y46400D01*
X154424Y46958D01*
X154336Y46994D01*
Y47494D01*
X154424Y47530D01*
X154982Y48089D01*
X155284Y48818D01*
Y49607D01*
X154982Y50337D01*
X154424Y50895D01*
X153695Y51197D01*
X153300D01*
Y58632D01*
X153654Y58985D01*
X161867Y58967D01*
X162000Y58646D01*
X162558Y58088D01*
X163288Y57786D01*
X164077D01*
X164806Y58088D01*
X165365Y58646D01*
X165494Y58959D01*
X201245Y58879D01*
X207593Y58865D01*
X219691Y46768D01*
X220510Y46221D01*
X221476Y46029D01*
X223244D01*
X223570Y45941D01*
X224248D01*
X224903Y46116D01*
X225490Y46455D01*
X225970Y46935D01*
X226309Y47522D01*
X226484Y48177D01*
Y48855D01*
X226309Y49510D01*
X225970Y50097D01*
X225490Y50576D01*
X225387Y50636D01*
Y51136D01*
X225490Y51196D01*
X225970Y51675D01*
X226309Y52262D01*
X226484Y52917D01*
Y53595D01*
X226309Y54250D01*
X225970Y54837D01*
X225490Y55316D01*
X224903Y55655D01*
X224248Y55831D01*
X223570D01*
X222916Y55655D01*
X222328Y55316D01*
X221849Y54837D01*
X221510Y54250D01*
X221335Y53595D01*
Y52973D01*
X221199Y52864D01*
X220866Y52734D01*
X215214Y58386D01*
X215406Y58848D01*
X334646Y58583D01*
Y67283D01*
X335108Y67474D01*
X335153Y67429D01*
X335882Y67127D01*
X336672D01*
X337401Y67429D01*
X337959Y67987D01*
X338261Y68716D01*
Y69506D01*
X337959Y70235D01*
X337401Y70793D01*
X336672Y71095D01*
X335882D01*
X335153Y70793D01*
X335108Y70748D01*
X334646Y70939D01*
Y86968D01*
X335108Y87159D01*
X335153Y87114D01*
X335882Y86812D01*
X336672D01*
X337401Y87114D01*
X337959Y87672D01*
X338261Y88401D01*
Y89191D01*
X337959Y89920D01*
X337401Y90478D01*
X336672Y90780D01*
X335882D01*
X335153Y90478D01*
X335108Y90433D01*
X334646Y90624D01*
Y106653D01*
X335108Y106844D01*
X335153Y106799D01*
X335882Y106497D01*
X336672D01*
X337401Y106799D01*
X337959Y107357D01*
X338261Y108086D01*
Y108876D01*
X337959Y109605D01*
X337401Y110163D01*
X336672Y110465D01*
X335882D01*
X335153Y110163D01*
X335108Y110118D01*
X334646Y110309D01*
Y126338D01*
X335108Y126530D01*
X335153Y126484D01*
X335882Y126182D01*
X336672D01*
X337401Y126484D01*
X337959Y127042D01*
X338261Y127771D01*
Y128561D01*
X337959Y129290D01*
X337401Y129848D01*
X336672Y130150D01*
X335882D01*
X335153Y129848D01*
X335108Y129803D01*
X334646Y129994D01*
Y146023D01*
X335108Y146214D01*
X335153Y146169D01*
X335882Y145867D01*
X336672D01*
X337401Y146169D01*
X337959Y146727D01*
X338261Y147457D01*
Y148246D01*
X337959Y148975D01*
X337401Y149533D01*
X336672Y149835D01*
X335882D01*
X335153Y149533D01*
X335108Y149488D01*
X334646Y149679D01*
Y165708D01*
X335108Y165900D01*
X335153Y165854D01*
X335882Y165552D01*
X336672D01*
X337401Y165854D01*
X337959Y166412D01*
X338261Y167141D01*
Y167931D01*
X337959Y168660D01*
X337401Y169218D01*
X336672Y169520D01*
X335882D01*
X335153Y169218D01*
X335108Y169173D01*
X334646Y169364D01*
Y185393D01*
X335108Y185585D01*
X335153Y185539D01*
X335882Y185237D01*
X336672D01*
X337401Y185539D01*
X337959Y186097D01*
X338261Y186827D01*
Y187616D01*
X337959Y188345D01*
X337401Y188903D01*
X336672Y189206D01*
X335882D01*
X335153Y188903D01*
X335108Y188858D01*
X334646Y189049D01*
Y205078D01*
X335108Y205270D01*
X335153Y205224D01*
X335882Y204922D01*
X336672D01*
X337401Y205224D01*
X337959Y205782D01*
X338261Y206512D01*
Y207301D01*
X337959Y208030D01*
X337401Y208588D01*
X336672Y208891D01*
X335882D01*
X335153Y208588D01*
X335108Y208543D01*
X334646Y208734D01*
Y224763D01*
X335108Y224955D01*
X335153Y224909D01*
X335882Y224607D01*
X336672D01*
X337401Y224909D01*
X337959Y225467D01*
X338261Y226197D01*
Y226986D01*
X337959Y227715D01*
X337401Y228274D01*
X336672Y228576D01*
X335882D01*
X335153Y228274D01*
X335108Y228228D01*
X334646Y228419D01*
Y244448D01*
X335108Y244640D01*
X335153Y244594D01*
X335882Y244292D01*
X336672D01*
X337401Y244594D01*
X337959Y245152D01*
X338261Y245882D01*
Y246671D01*
X337959Y247400D01*
X337401Y247958D01*
X336672Y248261D01*
X335882D01*
X335153Y247958D01*
X335108Y247913D01*
X334646Y248104D01*
Y264133D01*
X335108Y264325D01*
X335153Y264279D01*
X335882Y263977D01*
X336672D01*
X337401Y264279D01*
X337959Y264837D01*
X338261Y265567D01*
Y266356D01*
X337959Y267085D01*
X337401Y267644D01*
X336672Y267946D01*
X335882D01*
X335153Y267644D01*
X335108Y267598D01*
X334646Y267789D01*
Y283819D01*
X335108Y284010D01*
X335153Y283964D01*
X335882Y283662D01*
X336672D01*
X337401Y283964D01*
X337959Y284522D01*
X338261Y285252D01*
Y286041D01*
X337959Y286770D01*
X337401Y287329D01*
X336672Y287631D01*
X335882D01*
X335153Y287329D01*
X335108Y287283D01*
X334646Y287474D01*
Y303503D01*
X335108Y303695D01*
X335153Y303649D01*
X335882Y303347D01*
X336672D01*
X337401Y303649D01*
X337959Y304207D01*
X338261Y304937D01*
Y305726D01*
X337959Y306455D01*
X337401Y307014D01*
X336672Y307316D01*
X335882D01*
X335153Y307014D01*
X335108Y306968D01*
X334646Y307159D01*
Y321441D01*
X335685D01*
X337738Y321766D01*
X339715Y322408D01*
X341566Y323352D01*
X343248Y324574D01*
X344718Y326043D01*
X345939Y327725D01*
X346883Y329577D01*
X347525Y331554D01*
X347850Y333606D01*
Y335685D01*
X347525Y337738D01*
X346883Y339715D01*
X345939Y341566D01*
X344718Y343248D01*
X343248Y344718D01*
X341566Y345939D01*
X339715Y346883D01*
X337738Y347525D01*
X335685Y347850D01*
X334646D01*
Y362559D01*
X335108Y362750D01*
X335153Y362704D01*
X335882Y362402D01*
X336672D01*
X337401Y362704D01*
X337959Y363263D01*
X338261Y363992D01*
Y364781D01*
X337959Y365511D01*
X337401Y366069D01*
X336672Y366371D01*
X335882D01*
X335153Y366069D01*
X335108Y366023D01*
X334646Y366215D01*
Y392497D01*
X375227D01*
X377629Y392180D01*
D02*
G37*
G36*
X151575Y50232D02*
X151316Y49607D01*
Y48818D01*
X151575Y48193D01*
Y46295D01*
X151316Y45670D01*
Y44881D01*
X151575Y44256D01*
Y1969D01*
X98425D01*
Y8228D01*
X98887Y8419D01*
X98933Y8374D01*
X99662Y8072D01*
X100451D01*
X101181Y8374D01*
X101739Y8932D01*
X102041Y9661D01*
Y10451D01*
X101739Y11180D01*
X101181Y11738D01*
X100451Y12040D01*
X99662D01*
X98933Y11738D01*
X98887Y11693D01*
X98425Y11884D01*
Y27913D01*
X98887Y28104D01*
X98933Y28059D01*
X99662Y27757D01*
X100451D01*
X101181Y28059D01*
X101739Y28617D01*
X102041Y29346D01*
Y30136D01*
X101739Y30865D01*
X101181Y31423D01*
X100451Y31725D01*
X99662D01*
X98933Y31423D01*
X98887Y31378D01*
X98425Y31569D01*
Y47598D01*
X98887Y47789D01*
X98933Y47744D01*
X99662Y47442D01*
X100451D01*
X101181Y47744D01*
X101739Y48302D01*
X102041Y49031D01*
Y49821D01*
X101739Y50550D01*
X101181Y51108D01*
X100451Y51410D01*
X99662D01*
X98933Y51108D01*
X98887Y51063D01*
X98425Y51254D01*
Y67283D01*
X98887Y67474D01*
X98933Y67429D01*
X99662Y67127D01*
X100451D01*
X101181Y67429D01*
X101739Y67987D01*
X102041Y68716D01*
Y69506D01*
X101739Y70235D01*
X101181Y70793D01*
X100451Y71095D01*
X99662D01*
X98933Y70793D01*
X98887Y70748D01*
X98425Y70939D01*
Y80709D01*
X98852Y81545D01*
X99494Y83522D01*
X99819Y85575D01*
Y87653D01*
X99494Y89706D01*
X98852Y91683D01*
X98425Y92520D01*
Y106653D01*
X98887Y106844D01*
X98933Y106799D01*
X99662Y106497D01*
X100451D01*
X101181Y106799D01*
X101739Y107357D01*
X102041Y108086D01*
Y108876D01*
X101739Y109605D01*
X101181Y110163D01*
X100451Y110465D01*
X99662D01*
X98933Y110163D01*
X98887Y110118D01*
X98425Y110309D01*
Y126338D01*
X98887Y126530D01*
X98933Y126484D01*
X99662Y126182D01*
X100451D01*
X101181Y126484D01*
X101739Y127042D01*
X102041Y127771D01*
Y128561D01*
X101739Y129290D01*
X101181Y129848D01*
X100451Y130150D01*
X99662D01*
X98933Y129848D01*
X98887Y129803D01*
X98425Y129994D01*
Y146023D01*
X98887Y146214D01*
X98933Y146169D01*
X99662Y145867D01*
X100451D01*
X101181Y146169D01*
X101739Y146727D01*
X102041Y147457D01*
Y148246D01*
X101739Y148975D01*
X101181Y149533D01*
X100451Y149835D01*
X99662D01*
X98933Y149533D01*
X98887Y149488D01*
X98425Y149679D01*
Y165708D01*
X98887Y165900D01*
X98933Y165854D01*
X99662Y165552D01*
X100451D01*
X101181Y165854D01*
X101739Y166412D01*
X102041Y167141D01*
Y167931D01*
X101739Y168660D01*
X101181Y169218D01*
X100451Y169520D01*
X99662D01*
X98933Y169218D01*
X98887Y169173D01*
X98425Y169364D01*
Y185393D01*
X98887Y185585D01*
X98933Y185539D01*
X99662Y185237D01*
X100451D01*
X101181Y185539D01*
X101739Y186097D01*
X102041Y186827D01*
Y187616D01*
X101739Y188345D01*
X101181Y188903D01*
X100451Y189206D01*
X99662D01*
X98933Y188903D01*
X98887Y188858D01*
X98425Y189049D01*
Y205078D01*
X98887Y205270D01*
X98933Y205224D01*
X99662Y204922D01*
X100451D01*
X101181Y205224D01*
X101739Y205782D01*
X102041Y206512D01*
Y207301D01*
X101739Y208030D01*
X101181Y208588D01*
X100451Y208891D01*
X99662D01*
X98933Y208588D01*
X98887Y208543D01*
X98425Y208734D01*
Y224763D01*
X98887Y224955D01*
X98933Y224909D01*
X99662Y224607D01*
X100451D01*
X101181Y224909D01*
X101739Y225467D01*
X102041Y226197D01*
Y226986D01*
X101739Y227715D01*
X101181Y228274D01*
X100451Y228576D01*
X99662D01*
X98933Y228274D01*
X98887Y228228D01*
X98425Y228419D01*
Y244448D01*
X98887Y244640D01*
X98933Y244594D01*
X99662Y244292D01*
X100451D01*
X101181Y244594D01*
X101739Y245152D01*
X102041Y245882D01*
Y246671D01*
X101739Y247400D01*
X101181Y247958D01*
X100451Y248261D01*
X99662D01*
X98933Y247958D01*
X98887Y247913D01*
X98425Y248104D01*
Y255906D01*
X151575D01*
Y50232D01*
D02*
G37*
G36*
X208434Y255415D02*
X207479Y255019D01*
X207413Y254975D01*
X207337Y254950D01*
X205096Y253655D01*
X205036Y253603D01*
X204964Y253568D01*
X202911Y251992D01*
X202858Y251932D01*
X202792Y251888D01*
X200962Y250058D01*
X200918Y249991D01*
X200858Y249939D01*
X199282Y247885D01*
X199247Y247814D01*
X199194Y247754D01*
X197900Y245512D01*
X197874Y245437D01*
X197830Y245371D01*
X196840Y242979D01*
X196824Y242901D01*
X196789Y242830D01*
X196119Y240330D01*
X196114Y240250D01*
X196088Y240175D01*
X195750Y237608D01*
X195756Y237529D01*
X195740Y237451D01*
X195740Y236157D01*
Y118111D01*
X195740Y116816D01*
X195756Y116738D01*
X195750Y116659D01*
X196088Y114093D01*
X196114Y114017D01*
X196119Y113938D01*
X196789Y111437D01*
X196824Y111366D01*
X196840Y111288D01*
X197830Y108897D01*
X197874Y108830D01*
X197900Y108755D01*
X199194Y106513D01*
X199247Y106454D01*
X199282Y106382D01*
X200858Y104329D01*
X200918Y104276D01*
X200962Y104210D01*
X202792Y102380D01*
X202858Y102336D01*
X202911Y102276D01*
X204964Y100700D01*
X205036Y100665D01*
X205096Y100612D01*
X207337Y99318D01*
X207413Y99292D01*
X207479Y99248D01*
X209870Y98257D01*
X209948Y98242D01*
X210020Y98207D01*
X212520Y97537D01*
X212599Y97532D01*
X212675Y97506D01*
X215241Y97168D01*
X215321Y97173D01*
X215399Y97158D01*
X216693Y97158D01*
X218822D01*
X219283Y97250D01*
X219930Y97518D01*
X220430Y97299D01*
X220429Y97048D01*
X227713D01*
X227920Y96548D01*
X227678Y96305D01*
X227376Y95576D01*
Y94787D01*
X227678Y94057D01*
X228236Y93499D01*
X228965Y93197D01*
X229755D01*
X230484Y93499D01*
X231042Y94057D01*
X231344Y94787D01*
Y95576D01*
X231042Y96305D01*
X230800Y96548D01*
X231007Y97048D01*
X232246D01*
Y97271D01*
X232252Y97275D01*
X232747Y97490D01*
X233327Y97250D01*
X233788Y97158D01*
X234161Y97158D01*
X237357D01*
X237435Y97173D01*
X237515Y97168D01*
X240081Y97506D01*
X240156Y97532D01*
X240236Y97537D01*
X242736Y98207D01*
X242808Y98242D01*
X242885Y98257D01*
X245277Y99248D01*
X245343Y99292D01*
X245418Y99318D01*
X247660Y100612D01*
X247720Y100665D01*
X247791Y100700D01*
X249845Y102276D01*
X249898Y102336D01*
X249964Y102380D01*
X251794Y104210D01*
X251838Y104276D01*
X251898Y104329D01*
X253474Y106382D01*
X253509Y106454D01*
X253561Y106513D01*
X254856Y108755D01*
X254881Y108830D01*
X254925Y108897D01*
X255406Y110057D01*
X255919Y109988D01*
X255954Y109704D01*
X255855Y109605D01*
X255553Y108876D01*
Y108086D01*
X255855Y107357D01*
X256000Y107212D01*
Y92705D01*
X255479Y91683D01*
X254837Y89706D01*
X254512Y87653D01*
Y85575D01*
X254837Y83522D01*
X255479Y81545D01*
X256000Y80523D01*
Y70380D01*
X255855Y70235D01*
X255553Y69506D01*
Y68716D01*
X255855Y67987D01*
X256000Y67842D01*
Y60958D01*
X165386Y60842D01*
X165365Y60894D01*
X164806Y61452D01*
X164077Y61754D01*
X163288D01*
X162558Y61452D01*
X162000Y60894D01*
X161977Y60838D01*
X153656Y60827D01*
X153302Y61181D01*
Y255906D01*
X208336D01*
X208434Y255415D01*
D02*
G37*
%LPC*%
G36*
X201025Y376939D02*
X192986D01*
X192720Y376886D01*
X183574D01*
X183309Y376939D01*
X181496D01*
X181106Y376861D01*
X180775Y376640D01*
X180554Y376309D01*
X180476Y375919D01*
Y346466D01*
X159704D01*
Y348028D01*
X159602Y348802D01*
X159303Y349525D01*
X158827Y350145D01*
X158207Y350621D01*
X157485Y350920D01*
X156710Y351022D01*
X155935Y350920D01*
X155213Y350621D01*
X154593Y350145D01*
X154117Y349525D01*
X153818Y348802D01*
X153716Y348028D01*
Y346466D01*
X106360D01*
X105970Y346388D01*
X105640Y346167D01*
X105419Y345837D01*
X105341Y345446D01*
Y339035D01*
X105367Y338904D01*
X105376Y338771D01*
X105405Y338711D01*
X105419Y338645D01*
X105493Y338534D01*
X105552Y338414D01*
X105602Y338370D01*
X105640Y338314D01*
X105751Y338240D01*
X105851Y338152D01*
X105915Y338115D01*
X106377Y337653D01*
X106703Y337087D01*
X106872Y336456D01*
Y335803D01*
X106703Y335173D01*
X106377Y334607D01*
X105915Y334145D01*
X105851Y334108D01*
X105751Y334020D01*
X105640Y333946D01*
X105602Y333890D01*
X105552Y333846D01*
X105493Y333726D01*
X105419Y333615D01*
X105405Y333549D01*
X105376Y333489D01*
X105367Y333356D01*
X105341Y333225D01*
Y330134D01*
X105388Y329895D01*
X105236Y329832D01*
X104975Y329571D01*
X97424D01*
X69007Y357988D01*
X69198Y358450D01*
X127675D01*
X128219Y358558D01*
X128680Y358866D01*
X132703Y362888D01*
X133072D01*
X133801Y363190D01*
X134359Y363749D01*
X134661Y364478D01*
Y365267D01*
X134359Y365997D01*
X133801Y366555D01*
X133072Y366857D01*
X132282D01*
X131553Y366555D01*
X130995Y365997D01*
X130693Y365267D01*
Y364898D01*
X127087Y361292D01*
X66499D01*
X66238Y361553D01*
X65509Y361855D01*
X64719D01*
X63990Y361553D01*
X63432Y360995D01*
X63130Y360265D01*
Y359476D01*
X63432Y358747D01*
X63990Y358189D01*
X64719Y357886D01*
X65089D01*
X95830Y327145D01*
X96291Y326837D01*
X96835Y326729D01*
X104975D01*
X105236Y326467D01*
X105388Y326405D01*
X105341Y326165D01*
Y306938D01*
X105419Y306548D01*
X105640Y306217D01*
X105970Y305996D01*
X106360Y305918D01*
X118542D01*
X118932Y305996D01*
X119107Y306113D01*
X119550Y306296D01*
X119934D01*
X120377Y306113D01*
X120551Y305996D01*
X120941Y305918D01*
X157912D01*
X158302Y305996D01*
X158477Y306113D01*
X158920Y306296D01*
X159304D01*
X159747Y306113D01*
X159921Y305996D01*
X160311Y305918D01*
X216967D01*
X217357Y305996D01*
X217532Y306113D01*
X217975Y306296D01*
X218359D01*
X218802Y306113D01*
X218976Y305996D01*
X219367Y305918D01*
X230610D01*
X231000Y305996D01*
X231331Y306217D01*
X231552Y306548D01*
X231630Y306938D01*
Y343670D01*
X231552Y344060D01*
X231331Y344391D01*
X231000Y344612D01*
X230610Y344689D01*
X211912D01*
X211846Y344676D01*
X211779Y344681D01*
X211653Y344638D01*
X211522Y344612D01*
X211466Y344574D01*
X211403Y344553D01*
X211302Y344465D01*
X211192Y344391D01*
X211154Y344335D01*
X211104Y344290D01*
X211045Y344171D01*
X210970Y344060D01*
X210957Y343994D01*
X210928Y343934D01*
X210794Y343434D01*
X210789Y343367D01*
X210768Y343303D01*
X210774Y343207D01*
X210766Y343166D01*
X210774Y343127D01*
X210768Y343037D01*
X210789Y342973D01*
X210794Y342906D01*
X210834Y342825D01*
X210843Y342776D01*
X210870Y342737D01*
X210895Y342660D01*
X210940Y342610D01*
X210969Y342549D01*
X211030Y342496D01*
X211065Y342445D01*
X211449Y342060D01*
X211654Y341706D01*
X211760Y341310D01*
Y340901D01*
X211654Y340505D01*
X211449Y340151D01*
X211159Y339861D01*
X210805Y339656D01*
X210409Y339550D01*
X210000D01*
X209604Y339656D01*
X209249Y339861D01*
X208960Y340151D01*
X208755Y340505D01*
X208649Y340901D01*
Y341310D01*
X208755Y341706D01*
X208960Y342060D01*
X209345Y342445D01*
X209379Y342496D01*
X209440Y342549D01*
X209469Y342610D01*
X209513Y342660D01*
X209540Y342737D01*
X209565Y342776D01*
X209575Y342825D01*
X209615Y342906D01*
X209620Y342973D01*
X209641Y343037D01*
X209635Y343127D01*
X209643Y343166D01*
X209635Y343207D01*
X209641Y343303D01*
X209620Y343367D01*
X209615Y343434D01*
X209481Y343934D01*
X209452Y343994D01*
X209438Y344060D01*
X209364Y344171D01*
X209305Y344290D01*
X209255Y344335D01*
X209217Y344391D01*
X209107Y344465D01*
X209006Y344553D01*
X208943Y344574D01*
X208887Y344612D01*
X208756Y344638D01*
X208629Y344681D01*
X208562Y344676D01*
X208496Y344689D01*
X202045D01*
Y375919D01*
X201967Y376309D01*
X201746Y376640D01*
X201415Y376861D01*
X201025Y376939D01*
D02*
G37*
G36*
X326984Y383351D02*
X318685D01*
Y375052D01*
X326984D01*
Y383351D01*
D02*
G37*
G36*
X35646Y383275D02*
X27347D01*
Y374975D01*
X35646D01*
Y383275D01*
D02*
G37*
G36*
X169099Y376886D02*
X168962D01*
Y372547D01*
X173301D01*
Y372684D01*
X172971Y373915D01*
X172334Y375018D01*
X171433Y375919D01*
X170330Y376556D01*
X169099Y376886D01*
D02*
G37*
G36*
X167962D02*
X167825D01*
X166595Y376556D01*
X165491Y375919D01*
X164590Y375018D01*
X163953Y373915D01*
X163624Y372684D01*
Y372547D01*
X167962D01*
Y376886D01*
D02*
G37*
G36*
X282133Y375540D02*
X281996D01*
Y371201D01*
X286335D01*
Y371339D01*
X286005Y372569D01*
X285368Y373673D01*
X284467Y374573D01*
X283364Y375210D01*
X282133Y375540D01*
D02*
G37*
G36*
X280996D02*
X280859D01*
X279628Y375210D01*
X278525Y374573D01*
X277624Y373673D01*
X276987Y372569D01*
X276658Y371339D01*
Y371201D01*
X280996D01*
Y375540D01*
D02*
G37*
G36*
X53787Y375464D02*
X53650D01*
Y371125D01*
X57988D01*
Y371262D01*
X57658Y372493D01*
X57021Y373596D01*
X56121Y374497D01*
X55017Y375134D01*
X53787Y375464D01*
D02*
G37*
G36*
X52650D02*
X52513D01*
X51282Y375134D01*
X50179Y374497D01*
X49278Y373596D01*
X48641Y372493D01*
X48311Y371262D01*
Y371125D01*
X52650D01*
Y375464D01*
D02*
G37*
G36*
X173301Y371547D02*
X168962D01*
Y367209D01*
X169099D01*
X170330Y367538D01*
X171433Y368175D01*
X172334Y369076D01*
X172971Y370180D01*
X173301Y371410D01*
Y371547D01*
D02*
G37*
G36*
X167962D02*
X163624D01*
Y371410D01*
X163953Y370180D01*
X164590Y369076D01*
X165491Y368175D01*
X166595Y367538D01*
X167825Y367209D01*
X167962D01*
Y371547D01*
D02*
G37*
G36*
X306020Y375540D02*
X296342D01*
Y365863D01*
X306020D01*
Y375540D01*
D02*
G37*
G36*
X286335Y370201D02*
X281996D01*
Y365863D01*
X282133D01*
X283364Y366193D01*
X284467Y366830D01*
X285368Y367731D01*
X286005Y368834D01*
X286335Y370065D01*
Y370201D01*
D02*
G37*
G36*
X280996D02*
X276658D01*
Y370065D01*
X276987Y368834D01*
X277624Y367731D01*
X278525Y366830D01*
X279628Y366193D01*
X280859Y365863D01*
X280996D01*
Y370201D01*
D02*
G37*
G36*
X77673Y375464D02*
X67996D01*
Y365787D01*
X77673D01*
Y375464D01*
D02*
G37*
G36*
X57988Y370125D02*
X53650D01*
Y365787D01*
X53787D01*
X55017Y366116D01*
X56121Y366753D01*
X57021Y367654D01*
X57658Y368758D01*
X57988Y369988D01*
Y370125D01*
D02*
G37*
G36*
X52650D02*
X48311D01*
Y369988D01*
X48641Y368758D01*
X49278Y367654D01*
X50179Y366753D01*
X51282Y366116D01*
X52513Y365787D01*
X52650D01*
Y370125D01*
D02*
G37*
G36*
X323381Y373351D02*
X322288D01*
X321233Y373068D01*
X320287Y372522D01*
X319514Y371749D01*
X318968Y370803D01*
X318685Y369748D01*
Y368655D01*
X318968Y367600D01*
X319514Y366654D01*
X320287Y365881D01*
X321233Y365335D01*
X322288Y365052D01*
X323381D01*
X324436Y365335D01*
X325383Y365881D01*
X326155Y366654D01*
X326701Y367600D01*
X326984Y368655D01*
Y369748D01*
X326701Y370803D01*
X326155Y371749D01*
X325383Y372522D01*
X324436Y373068D01*
X323381Y373351D01*
D02*
G37*
G36*
X32042Y373275D02*
X30950D01*
X29894Y372992D01*
X28948Y372446D01*
X28176Y371673D01*
X27629Y370727D01*
X27347Y369671D01*
Y368579D01*
X27629Y367523D01*
X28176Y366577D01*
X28948Y365805D01*
X29894Y365258D01*
X30950Y364976D01*
X32042D01*
X33098Y365258D01*
X34044Y365805D01*
X34817Y366577D01*
X35363Y367523D01*
X35646Y368579D01*
Y369671D01*
X35363Y370727D01*
X34817Y371673D01*
X34044Y372446D01*
X33098Y372992D01*
X32042Y373275D01*
D02*
G37*
G36*
X20724Y347850D02*
X20185D01*
Y335146D01*
X32890D01*
Y335685D01*
X32565Y337738D01*
X31922Y339715D01*
X30979Y341566D01*
X29757Y343248D01*
X28287Y344718D01*
X26606Y345939D01*
X24754Y346883D01*
X22777Y347525D01*
X20724Y347850D01*
D02*
G37*
G36*
X19185D02*
X18646D01*
X16593Y347525D01*
X14616Y346883D01*
X12764Y345939D01*
X11083Y344718D01*
X9613Y343248D01*
X8391Y341566D01*
X7448Y339715D01*
X6805Y337738D01*
X6480Y335685D01*
Y335146D01*
X19185D01*
Y347850D01*
D02*
G37*
G36*
X32890Y334146D02*
X20185D01*
Y321441D01*
X20724D01*
X22777Y321766D01*
X24754Y322408D01*
X26606Y323352D01*
X28287Y324574D01*
X29757Y326043D01*
X30979Y327725D01*
X31922Y329577D01*
X32565Y331554D01*
X32890Y333606D01*
Y334146D01*
D02*
G37*
G36*
X19185D02*
X6480D01*
Y333606D01*
X6805Y331554D01*
X7448Y329577D01*
X8391Y327725D01*
X9613Y326043D01*
X11083Y324574D01*
X12764Y323352D01*
X14616Y322408D01*
X16593Y321766D01*
X18646Y321441D01*
X19185D01*
Y334146D01*
D02*
G37*
G36*
X268756Y280921D02*
X268216D01*
Y268216D01*
X280921D01*
Y268756D01*
X280596Y270809D01*
X279954Y272785D01*
X279010Y274637D01*
X277788Y276319D01*
X276319Y277788D01*
X274637Y279010D01*
X272785Y279954D01*
X270809Y280596D01*
X268756Y280921D01*
D02*
G37*
G36*
X267216D02*
X266677D01*
X264624Y280596D01*
X262648Y279954D01*
X260796Y279010D01*
X259114Y277788D01*
X257645Y276319D01*
X256423Y274637D01*
X255479Y272785D01*
X254837Y270809D01*
X254512Y268756D01*
Y268216D01*
X267216D01*
Y280921D01*
D02*
G37*
G36*
X87653D02*
X87114D01*
Y268216D01*
X99819D01*
Y268756D01*
X99494Y270809D01*
X98852Y272785D01*
X97908Y274637D01*
X96686Y276319D01*
X95217Y277788D01*
X93535Y279010D01*
X91683Y279954D01*
X89706Y280596D01*
X87653Y280921D01*
D02*
G37*
G36*
X86114D02*
X85575D01*
X83522Y280596D01*
X81545Y279954D01*
X79693Y279010D01*
X78012Y277788D01*
X76542Y276319D01*
X75321Y274637D01*
X74377Y272785D01*
X73735Y270809D01*
X73409Y268756D01*
Y268216D01*
X86114D01*
Y280921D01*
D02*
G37*
G36*
X280921Y267216D02*
X268216D01*
Y254512D01*
X268756D01*
X270809Y254837D01*
X272785Y255479D01*
X274637Y256423D01*
X276319Y257645D01*
X277788Y259114D01*
X279010Y260796D01*
X279954Y262648D01*
X280596Y264624D01*
X280921Y266677D01*
Y267216D01*
D02*
G37*
G36*
X267216D02*
X254512D01*
Y266677D01*
X254837Y264624D01*
X255479Y262648D01*
X256423Y260796D01*
X257645Y259114D01*
X259114Y257645D01*
X260796Y256423D01*
X262648Y255479D01*
X264624Y254837D01*
X266677Y254512D01*
X267216D01*
Y267216D01*
D02*
G37*
G36*
X99819D02*
X87114D01*
Y254512D01*
X87653D01*
X89706Y254837D01*
X91683Y255479D01*
X93535Y256423D01*
X95217Y257645D01*
X96686Y259114D01*
X97908Y260796D01*
X98852Y262648D01*
X99494Y264624D01*
X99819Y266677D01*
Y267216D01*
D02*
G37*
G36*
X86114D02*
X73409D01*
Y266677D01*
X73735Y264624D01*
X74377Y262648D01*
X75321Y260796D01*
X76542Y259114D01*
X78012Y257645D01*
X79693Y256423D01*
X81545Y255479D01*
X83522Y254837D01*
X85575Y254512D01*
X86114D01*
Y267216D01*
D02*
G37*
G36*
X268756Y99819D02*
X268216D01*
Y87114D01*
X280921D01*
Y87653D01*
X280596Y89706D01*
X279954Y91683D01*
X279010Y93535D01*
X277788Y95217D01*
X276319Y96686D01*
X274637Y97908D01*
X272785Y98852D01*
X270809Y99494D01*
X268756Y99819D01*
D02*
G37*
G36*
X86114D02*
X85575D01*
X83522Y99494D01*
X81545Y98852D01*
X79693Y97908D01*
X78012Y96686D01*
X76542Y95217D01*
X75321Y93535D01*
X74377Y91683D01*
X73735Y89706D01*
X73409Y87653D01*
Y87114D01*
X86114D01*
Y99819D01*
D02*
G37*
G36*
X280921Y86114D02*
X268216D01*
Y73409D01*
X268756D01*
X270809Y73735D01*
X272785Y74377D01*
X274637Y75321D01*
X276319Y76542D01*
X277788Y78012D01*
X279010Y79693D01*
X279954Y81545D01*
X280596Y83522D01*
X280921Y85575D01*
Y86114D01*
D02*
G37*
G36*
X86114D02*
X73409D01*
Y85575D01*
X73735Y83522D01*
X74377Y81545D01*
X75321Y79693D01*
X76542Y78012D01*
X78012Y76542D01*
X79693Y75321D01*
X81545Y74377D01*
X83522Y73735D01*
X85575Y73409D01*
X86114D01*
Y86114D01*
D02*
G37*
G36*
X20724Y32890D02*
X20185D01*
Y20185D01*
X32890D01*
Y20724D01*
X32565Y22777D01*
X31922Y24754D01*
X30979Y26606D01*
X29757Y28287D01*
X28287Y29757D01*
X26606Y30979D01*
X24754Y31922D01*
X22777Y32565D01*
X20724Y32890D01*
D02*
G37*
G36*
X19185D02*
X18646D01*
X16593Y32565D01*
X14616Y31922D01*
X12764Y30979D01*
X11083Y29757D01*
X9613Y28287D01*
X8391Y26606D01*
X7448Y24754D01*
X6805Y22777D01*
X6480Y20724D01*
Y20185D01*
X19185D01*
Y32890D01*
D02*
G37*
G36*
X32890Y19185D02*
X20185D01*
Y6480D01*
X20724D01*
X22777Y6805D01*
X24754Y7448D01*
X26606Y8391D01*
X28287Y9613D01*
X29757Y11083D01*
X30979Y12764D01*
X31922Y14616D01*
X32565Y16593D01*
X32890Y18646D01*
Y19185D01*
D02*
G37*
G36*
X19185D02*
X6480D01*
Y18646D01*
X6805Y16593D01*
X7448Y14616D01*
X8391Y12764D01*
X9613Y11083D01*
X11083Y9613D01*
X12764Y8391D01*
X14616Y7448D01*
X16593Y6805D01*
X18646Y6480D01*
X19185D01*
Y19185D01*
D02*
G37*
%LPD*%
G36*
X201025Y343670D02*
X208496D01*
X208630Y343170D01*
X208624Y343166D01*
X208144Y342687D01*
X207805Y342099D01*
X207630Y341444D01*
Y340767D01*
X207805Y340112D01*
X208144Y339525D01*
X208624Y339045D01*
X209211Y338706D01*
X209865Y338531D01*
X210543D01*
X211198Y338706D01*
X211785Y339045D01*
X212265Y339525D01*
X212604Y340112D01*
X212779Y340767D01*
Y341444D01*
X212604Y342099D01*
X212265Y342687D01*
X211785Y343166D01*
X211778Y343170D01*
X211912Y343670D01*
X230610D01*
Y306938D01*
X219367D01*
X219291Y307014D01*
X218562Y307316D01*
X217772D01*
X217043Y307014D01*
X216967Y306938D01*
X160311D01*
X160236Y307014D01*
X159506Y307316D01*
X158717D01*
X157988Y307014D01*
X157912Y306938D01*
X120941D01*
X120866Y307014D01*
X120136Y307316D01*
X119347D01*
X118618Y307014D01*
X118542Y306938D01*
X106360D01*
Y326165D01*
X106755D01*
X107484Y326467D01*
X108043Y327026D01*
X108345Y327755D01*
Y328544D01*
X108043Y329274D01*
X107484Y329832D01*
X106755Y330134D01*
X106360D01*
Y333225D01*
X106541Y333329D01*
X107193Y333981D01*
X107653Y334779D01*
X107892Y335669D01*
Y336591D01*
X107653Y337481D01*
X107193Y338279D01*
X106541Y338931D01*
X106360Y339035D01*
Y345446D01*
X181496D01*
Y375919D01*
X183309D01*
Y372547D01*
X188147D01*
X192986D01*
Y375919D01*
X201025D01*
Y343670D01*
D02*
G37*
%LPC*%
G36*
X192986Y371547D02*
X188647D01*
Y367209D01*
X192986D01*
Y371547D01*
D02*
G37*
G36*
X187647D02*
X183309D01*
Y367209D01*
X187647D01*
Y371547D01*
D02*
G37*
G36*
X198877Y366371D02*
X198087D01*
X197358Y366069D01*
X196800Y365511D01*
X196498Y364781D01*
Y363992D01*
X196800Y363263D01*
X197358Y362704D01*
X198087Y362402D01*
X198877D01*
X199606Y362704D01*
X200164Y363263D01*
X200466Y363992D01*
Y364781D01*
X200164Y365511D01*
X199606Y366069D01*
X198877Y366371D01*
D02*
G37*
G36*
Y346686D02*
X198087D01*
X197358Y346384D01*
X196800Y345826D01*
X196498Y345096D01*
Y344307D01*
X196800Y343578D01*
X197358Y343019D01*
X198087Y342717D01*
X198877D01*
X199606Y343019D01*
X200164Y343578D01*
X200466Y344307D01*
Y345096D01*
X200164Y345826D01*
X199606Y346384D01*
X198877Y346686D01*
D02*
G37*
G36*
X218562Y327001D02*
X217772D01*
X217043Y326699D01*
X216485Y326140D01*
X216183Y325411D01*
Y324622D01*
X216485Y323892D01*
X217043Y323334D01*
X217772Y323032D01*
X218562D01*
X219291Y323334D01*
X219849Y323892D01*
X220151Y324622D01*
Y325411D01*
X219849Y326140D01*
X219291Y326699D01*
X218562Y327001D01*
D02*
G37*
G36*
X198877D02*
X198087D01*
X197358Y326699D01*
X196800Y326140D01*
X196498Y325411D01*
Y324622D01*
X196800Y323892D01*
X197358Y323334D01*
X198087Y323032D01*
X198877D01*
X199606Y323334D01*
X200164Y323892D01*
X200466Y324622D01*
Y325411D01*
X200164Y326140D01*
X199606Y326699D01*
X198877Y327001D01*
D02*
G37*
G36*
X139821D02*
X139032D01*
X138303Y326699D01*
X137745Y326140D01*
X137443Y325411D01*
Y324622D01*
X137745Y323892D01*
X138303Y323334D01*
X139032Y323032D01*
X139821D01*
X140551Y323334D01*
X141109Y323892D01*
X141411Y324622D01*
Y325411D01*
X141109Y326140D01*
X140551Y326699D01*
X139821Y327001D01*
D02*
G37*
G36*
X120136D02*
X119347D01*
X118618Y326699D01*
X118060Y326140D01*
X117757Y325411D01*
Y324622D01*
X118060Y323892D01*
X118618Y323334D01*
X119347Y323032D01*
X120136D01*
X120866Y323334D01*
X121424Y323892D01*
X121726Y324622D01*
Y325411D01*
X121424Y326140D01*
X120866Y326699D01*
X120136Y327001D01*
D02*
G37*
G36*
X379518Y382212D02*
X379471D01*
Y378563D01*
X383121D01*
Y378609D01*
X382838Y379664D01*
X382292Y380611D01*
X381519Y381383D01*
X380573Y381930D01*
X379518Y382212D01*
D02*
G37*
G36*
X378471D02*
X378425D01*
X377370Y381930D01*
X376424Y381383D01*
X375651Y380611D01*
X375105Y379664D01*
X374822Y378609D01*
Y378563D01*
X378471D01*
Y382212D01*
D02*
G37*
G36*
X383121Y377563D02*
X379471D01*
Y373913D01*
X379518D01*
X380573Y374196D01*
X381519Y374742D01*
X382292Y375515D01*
X382838Y376461D01*
X383121Y377517D01*
Y377563D01*
D02*
G37*
G36*
X378471D02*
X374822D01*
Y377517D01*
X375105Y376461D01*
X375651Y375515D01*
X376424Y374742D01*
X377370Y374196D01*
X378425Y373913D01*
X378471D01*
Y377563D01*
D02*
G37*
G36*
X369518Y382212D02*
X368425D01*
X367370Y381930D01*
X366424Y381383D01*
X365651Y380611D01*
X365105Y379664D01*
X364822Y378609D01*
Y377517D01*
X365105Y376461D01*
X365651Y375515D01*
X366424Y374742D01*
X367370Y374196D01*
X368425Y373913D01*
X369518D01*
X370573Y374196D01*
X371519Y374742D01*
X372292Y375515D01*
X372838Y376461D01*
X373121Y377517D01*
Y378609D01*
X372838Y379664D01*
X372292Y380611D01*
X371519Y381383D01*
X370573Y381930D01*
X369518Y382212D01*
D02*
G37*
G36*
X359518D02*
X358425D01*
X357370Y381930D01*
X356424Y381383D01*
X355651Y380611D01*
X355105Y379664D01*
X354822Y378609D01*
Y377517D01*
X355105Y376461D01*
X355651Y375515D01*
X356424Y374742D01*
X357370Y374196D01*
X358425Y373913D01*
X359518D01*
X360573Y374196D01*
X361519Y374742D01*
X362292Y375515D01*
X362838Y376461D01*
X363121Y377517D01*
Y378609D01*
X362838Y379664D01*
X362292Y380611D01*
X361519Y381383D01*
X360573Y381930D01*
X359518Y382212D01*
D02*
G37*
G36*
X349518D02*
X348425D01*
X347370Y381930D01*
X346424Y381383D01*
X345651Y380611D01*
X345105Y379664D01*
X344822Y378609D01*
Y377517D01*
X345105Y376461D01*
X345651Y375515D01*
X346424Y374742D01*
X347370Y374196D01*
X348425Y373913D01*
X349518D01*
X350573Y374196D01*
X351519Y374742D01*
X352292Y375515D01*
X352838Y376461D01*
X353121Y377517D01*
Y378609D01*
X352838Y379664D01*
X352292Y380611D01*
X351519Y381383D01*
X350573Y381930D01*
X349518Y382212D01*
D02*
G37*
G36*
X379518Y372212D02*
X378425D01*
X377370Y371930D01*
X376424Y371383D01*
X375651Y370611D01*
X375105Y369665D01*
X374822Y368609D01*
Y367516D01*
X375105Y366461D01*
X375651Y365515D01*
X376424Y364742D01*
X377370Y364196D01*
X378425Y363913D01*
X379518D01*
X380573Y364196D01*
X381519Y364742D01*
X382292Y365515D01*
X382838Y366461D01*
X383121Y367516D01*
Y368609D01*
X382838Y369665D01*
X382292Y370611D01*
X381519Y371383D01*
X380573Y371930D01*
X379518Y372212D01*
D02*
G37*
G36*
X369518D02*
X368425D01*
X367370Y371930D01*
X366424Y371383D01*
X365651Y370611D01*
X365105Y369665D01*
X364822Y368609D01*
Y367516D01*
X365105Y366461D01*
X365651Y365515D01*
X366424Y364742D01*
X367370Y364196D01*
X368425Y363913D01*
X369518D01*
X370573Y364196D01*
X371519Y364742D01*
X372292Y365515D01*
X372838Y366461D01*
X373121Y367516D01*
Y368609D01*
X372838Y369665D01*
X372292Y370611D01*
X371519Y371383D01*
X370573Y371930D01*
X369518Y372212D01*
D02*
G37*
G36*
X359518D02*
X358425D01*
X357370Y371930D01*
X356424Y371383D01*
X355651Y370611D01*
X355105Y369665D01*
X354822Y368609D01*
Y367516D01*
X355105Y366461D01*
X355651Y365515D01*
X356424Y364742D01*
X357370Y364196D01*
X358425Y363913D01*
X359518D01*
X360573Y364196D01*
X361519Y364742D01*
X362292Y365515D01*
X362838Y366461D01*
X363121Y367516D01*
Y368609D01*
X362838Y369665D01*
X362292Y370611D01*
X361519Y371383D01*
X360573Y371930D01*
X359518Y372212D01*
D02*
G37*
G36*
X353121D02*
X344822D01*
Y363913D01*
X353121D01*
Y372212D01*
D02*
G37*
G36*
X366442Y344398D02*
X365653D01*
X364923Y344096D01*
X364365Y343537D01*
X364063Y342808D01*
Y342019D01*
X364365Y341289D01*
X364923Y340731D01*
X365653Y340429D01*
X366442D01*
X367171Y340731D01*
X367729Y341289D01*
X368032Y342019D01*
Y342808D01*
X367729Y343537D01*
X367171Y344096D01*
X366442Y344398D01*
D02*
G37*
G36*
X356357Y327001D02*
X355568D01*
X354838Y326699D01*
X354280Y326140D01*
X353978Y325411D01*
Y324622D01*
X354280Y323892D01*
X354838Y323334D01*
X355568Y323032D01*
X356357D01*
X357086Y323334D01*
X357644Y323892D01*
X357946Y324622D01*
Y325411D01*
X357644Y326140D01*
X357086Y326699D01*
X356357Y327001D01*
D02*
G37*
G36*
X367507Y326953D02*
X366717D01*
X365988Y326651D01*
X365430Y326093D01*
X365128Y325363D01*
Y324574D01*
X365430Y323845D01*
X365988Y323286D01*
X366717Y322984D01*
X367507D01*
X368236Y323286D01*
X368794Y323845D01*
X369096Y324574D01*
Y325363D01*
X368794Y326093D01*
X368236Y326651D01*
X367507Y326953D01*
D02*
G37*
G36*
X356357Y307316D02*
X355568D01*
X354838Y307014D01*
X354280Y306455D01*
X353978Y305726D01*
Y304937D01*
X354280Y304207D01*
X354838Y303649D01*
X355568Y303347D01*
X356357D01*
X357086Y303649D01*
X357644Y304207D01*
X357946Y304937D01*
Y305726D01*
X357644Y306455D01*
X357086Y307014D01*
X356357Y307316D01*
D02*
G37*
G36*
Y287631D02*
X355568D01*
X354838Y287329D01*
X354280Y286770D01*
X353978Y286041D01*
Y285252D01*
X354280Y284522D01*
X354838Y283964D01*
X355568Y283662D01*
X356357D01*
X357086Y283964D01*
X357644Y284522D01*
X357946Y285252D01*
Y286041D01*
X357644Y286770D01*
X357086Y287329D01*
X356357Y287631D01*
D02*
G37*
G36*
Y267946D02*
X355568D01*
X354838Y267644D01*
X354280Y267085D01*
X353978Y266356D01*
Y265567D01*
X354280Y264837D01*
X354838Y264279D01*
X355568Y263977D01*
X356357D01*
X357086Y264279D01*
X357644Y264837D01*
X357946Y265567D01*
Y266356D01*
X357644Y267085D01*
X357086Y267644D01*
X356357Y267946D01*
D02*
G37*
G36*
Y248261D02*
X355568D01*
X354838Y247958D01*
X354280Y247400D01*
X353978Y246671D01*
Y245882D01*
X354280Y245152D01*
X354838Y244594D01*
X355568Y244292D01*
X356357D01*
X357086Y244594D01*
X357644Y245152D01*
X357946Y245882D01*
Y246671D01*
X357644Y247400D01*
X357086Y247958D01*
X356357Y248261D01*
D02*
G37*
G36*
Y228576D02*
X355568D01*
X354838Y228274D01*
X354280Y227715D01*
X353978Y226986D01*
Y226197D01*
X354280Y225467D01*
X354838Y224909D01*
X355568Y224607D01*
X356357D01*
X357086Y224909D01*
X357644Y225467D01*
X357946Y226197D01*
Y226986D01*
X357644Y227715D01*
X357086Y228274D01*
X356357Y228576D01*
D02*
G37*
G36*
Y208891D02*
X355568D01*
X354838Y208588D01*
X354280Y208030D01*
X353978Y207301D01*
Y206512D01*
X354280Y205782D01*
X354838Y205224D01*
X355568Y204922D01*
X356357D01*
X357086Y205224D01*
X357644Y205782D01*
X357946Y206512D01*
Y207301D01*
X357644Y208030D01*
X357086Y208588D01*
X356357Y208891D01*
D02*
G37*
G36*
Y189206D02*
X355568D01*
X354838Y188903D01*
X354280Y188345D01*
X353978Y187616D01*
Y186827D01*
X354280Y186097D01*
X354838Y185539D01*
X355568Y185237D01*
X356357D01*
X357086Y185539D01*
X357644Y186097D01*
X357946Y186827D01*
Y187616D01*
X357644Y188345D01*
X357086Y188903D01*
X356357Y189206D01*
D02*
G37*
G36*
Y169520D02*
X355568D01*
X354838Y169218D01*
X354280Y168660D01*
X353978Y167931D01*
Y167141D01*
X354280Y166412D01*
X354838Y165854D01*
X355568Y165552D01*
X356357D01*
X357086Y165854D01*
X357644Y166412D01*
X357946Y167141D01*
Y167931D01*
X357644Y168660D01*
X357086Y169218D01*
X356357Y169520D01*
D02*
G37*
G36*
Y149835D02*
X355568D01*
X354838Y149533D01*
X354280Y148975D01*
X353978Y148246D01*
Y147457D01*
X354280Y146727D01*
X354838Y146169D01*
X355568Y145867D01*
X356357D01*
X357086Y146169D01*
X357644Y146727D01*
X357946Y147457D01*
Y148246D01*
X357644Y148975D01*
X357086Y149533D01*
X356357Y149835D01*
D02*
G37*
G36*
Y130150D02*
X355568D01*
X354838Y129848D01*
X354280Y129290D01*
X353978Y128561D01*
Y127771D01*
X354280Y127042D01*
X354838Y126484D01*
X355568Y126182D01*
X356357D01*
X357086Y126484D01*
X357644Y127042D01*
X357946Y127771D01*
Y128561D01*
X357644Y129290D01*
X357086Y129848D01*
X356357Y130150D01*
D02*
G37*
G36*
Y110465D02*
X355568D01*
X354838Y110163D01*
X354280Y109605D01*
X353978Y108876D01*
Y108086D01*
X354280Y107357D01*
X354838Y106799D01*
X355568Y106497D01*
X356357D01*
X357086Y106799D01*
X357644Y107357D01*
X357946Y108086D01*
Y108876D01*
X357644Y109605D01*
X357086Y110163D01*
X356357Y110465D01*
D02*
G37*
G36*
X370782Y100921D02*
X369690D01*
X368635Y100638D01*
X367688Y100092D01*
X366916Y99320D01*
X366369Y98373D01*
X366087Y97318D01*
Y96225D01*
X366369Y95170D01*
X366916Y94224D01*
X367688Y93451D01*
X368635Y92905D01*
X369690Y92622D01*
X370782D01*
X371838Y92905D01*
X372784Y93451D01*
X373557Y94224D01*
X374103Y95170D01*
X374386Y96225D01*
Y97318D01*
X374103Y98373D01*
X373557Y99320D01*
X372784Y100092D01*
X371838Y100638D01*
X370782Y100921D01*
D02*
G37*
G36*
X360783D02*
X359690D01*
X358634Y100638D01*
X357688Y100092D01*
X356916Y99320D01*
X356369Y98373D01*
X356087Y97318D01*
Y96225D01*
X356369Y95170D01*
X356916Y94224D01*
X357688Y93451D01*
X358634Y92905D01*
X359690Y92622D01*
X360783D01*
X361838Y92905D01*
X362784Y93451D01*
X363557Y94224D01*
X364103Y95170D01*
X364386Y96225D01*
Y97318D01*
X364103Y98373D01*
X363557Y99320D01*
X362784Y100092D01*
X361838Y100638D01*
X360783Y100921D01*
D02*
G37*
G36*
X370782Y90921D02*
X369690D01*
X368635Y90639D01*
X367688Y90092D01*
X366916Y89320D01*
X366369Y88373D01*
X366087Y87318D01*
Y86225D01*
X366369Y85170D01*
X366916Y84224D01*
X367688Y83451D01*
X368635Y82905D01*
X369690Y82622D01*
X370782D01*
X371838Y82905D01*
X372784Y83451D01*
X373557Y84224D01*
X374103Y85170D01*
X374386Y86225D01*
Y87318D01*
X374103Y88373D01*
X373557Y89320D01*
X372784Y90092D01*
X371838Y90639D01*
X370782Y90921D01*
D02*
G37*
G36*
X360783D02*
X359690D01*
X358634Y90639D01*
X357688Y90092D01*
X356916Y89320D01*
X356369Y88373D01*
X356087Y87318D01*
Y86225D01*
X356369Y85170D01*
X356916Y84224D01*
X357688Y83451D01*
X358634Y82905D01*
X359690Y82622D01*
X360783D01*
X361838Y82905D01*
X362784Y83451D01*
X363557Y84224D01*
X364103Y85170D01*
X364386Y86225D01*
Y87318D01*
X364103Y88373D01*
X363557Y89320D01*
X362784Y90092D01*
X361838Y90639D01*
X360783Y90921D01*
D02*
G37*
G36*
X370782Y80921D02*
X369690D01*
X368635Y80638D01*
X367688Y80092D01*
X366916Y79320D01*
X366369Y78373D01*
X366087Y77318D01*
Y76225D01*
X366369Y75170D01*
X366916Y74224D01*
X367688Y73451D01*
X368635Y72905D01*
X369690Y72622D01*
X370782D01*
X371838Y72905D01*
X372784Y73451D01*
X373557Y74224D01*
X374103Y75170D01*
X374386Y76225D01*
Y77318D01*
X374103Y78373D01*
X373557Y79320D01*
X372784Y80092D01*
X371838Y80638D01*
X370782Y80921D01*
D02*
G37*
G36*
X360783D02*
X359690D01*
X358634Y80638D01*
X357688Y80092D01*
X356916Y79320D01*
X356369Y78373D01*
X356087Y77318D01*
Y76225D01*
X356369Y75170D01*
X356916Y74224D01*
X357688Y73451D01*
X358634Y72905D01*
X359690Y72622D01*
X360783D01*
X361838Y72905D01*
X362784Y73451D01*
X363557Y74224D01*
X364103Y75170D01*
X364386Y76225D01*
Y77318D01*
X364103Y78373D01*
X363557Y79320D01*
X362784Y80092D01*
X361838Y80638D01*
X360783Y80921D01*
D02*
G37*
G36*
X370782Y70921D02*
X369690D01*
X368635Y70639D01*
X367688Y70092D01*
X366916Y69320D01*
X366369Y68373D01*
X366087Y67318D01*
Y66225D01*
X366369Y65170D01*
X366916Y64224D01*
X367688Y63451D01*
X368635Y62905D01*
X369690Y62622D01*
X370782D01*
X371838Y62905D01*
X372784Y63451D01*
X373557Y64224D01*
X374103Y65170D01*
X374386Y66225D01*
Y67318D01*
X374103Y68373D01*
X373557Y69320D01*
X372784Y70092D01*
X371838Y70639D01*
X370782Y70921D01*
D02*
G37*
G36*
X360783D02*
X359690D01*
X358634Y70639D01*
X357688Y70092D01*
X356916Y69320D01*
X356369Y68373D01*
X356087Y67318D01*
Y66225D01*
X356369Y65170D01*
X356916Y64224D01*
X357688Y63451D01*
X358634Y62905D01*
X359690Y62622D01*
X360783D01*
X361838Y62905D01*
X362784Y63451D01*
X363557Y64224D01*
X364103Y65170D01*
X364386Y66225D01*
Y67318D01*
X364103Y68373D01*
X363557Y69320D01*
X362784Y70092D01*
X361838Y70639D01*
X360783Y70921D01*
D02*
G37*
G36*
X370782Y60921D02*
X369690D01*
X368635Y60638D01*
X367688Y60092D01*
X366916Y59320D01*
X366369Y58373D01*
X366087Y57318D01*
Y56225D01*
X366369Y55170D01*
X366916Y54224D01*
X367688Y53451D01*
X368635Y52905D01*
X369690Y52622D01*
X370782D01*
X371838Y52905D01*
X372784Y53451D01*
X373557Y54224D01*
X374103Y55170D01*
X374386Y56225D01*
Y57318D01*
X374103Y58373D01*
X373557Y59320D01*
X372784Y60092D01*
X371838Y60638D01*
X370782Y60921D01*
D02*
G37*
G36*
X360783D02*
X359690D01*
X358634Y60638D01*
X357688Y60092D01*
X356916Y59320D01*
X356369Y58373D01*
X356087Y57318D01*
Y56225D01*
X356369Y55170D01*
X356916Y54224D01*
X357688Y53451D01*
X358634Y52905D01*
X359690Y52622D01*
X360783D01*
X361838Y52905D01*
X362784Y53451D01*
X363557Y54224D01*
X364103Y55170D01*
X364386Y56225D01*
Y57318D01*
X364103Y58373D01*
X363557Y59320D01*
X362784Y60092D01*
X361838Y60638D01*
X360783Y60921D01*
D02*
G37*
G36*
X196081Y53420D02*
X195291D01*
X194562Y53118D01*
X194004Y52560D01*
X193702Y51831D01*
Y51041D01*
X194004Y50312D01*
X194157Y50159D01*
Y49911D01*
X194273Y49326D01*
X194605Y48830D01*
X198114Y45320D01*
Y45104D01*
X198416Y44375D01*
X198974Y43817D01*
X199704Y43515D01*
X200493D01*
X201222Y43817D01*
X201781Y44375D01*
X202083Y45104D01*
Y45893D01*
X201781Y46623D01*
X201222Y47181D01*
X200493Y47483D01*
X200277D01*
X199854Y47906D01*
X200113Y48355D01*
X200426Y48270D01*
X201104D01*
X201759Y48446D01*
X202346Y48785D01*
X202825Y49264D01*
X203164Y49852D01*
X203340Y50506D01*
Y51184D01*
X203164Y51839D01*
X202825Y52426D01*
X202346Y52906D01*
X201759Y53245D01*
X201104Y53420D01*
X200426D01*
X199771Y53245D01*
X199184Y52906D01*
X198705Y52426D01*
X198366Y51839D01*
X198190Y51184D01*
Y50506D01*
X198274Y50193D01*
X197826Y49934D01*
X197392Y50368D01*
X197670Y51041D01*
Y51831D01*
X197368Y52560D01*
X196810Y53118D01*
X196081Y53420D01*
D02*
G37*
G36*
X374386Y50921D02*
X370736D01*
Y47272D01*
X374386D01*
Y50921D01*
D02*
G37*
G36*
X369736D02*
X366087D01*
Y47272D01*
X369736D01*
Y50921D01*
D02*
G37*
G36*
X188690Y57040D02*
X187901D01*
X187171Y56738D01*
X186613Y56180D01*
X186311Y55450D01*
Y54661D01*
X186613Y53932D01*
X186874Y53671D01*
Y48916D01*
X186613Y48654D01*
X186311Y47925D01*
Y47136D01*
X186613Y46406D01*
X187171Y45848D01*
X187901Y45546D01*
X188690D01*
X189419Y45848D01*
X189977Y46406D01*
X190279Y47136D01*
Y47925D01*
X189977Y48654D01*
X189716Y48916D01*
Y53671D01*
X189977Y53932D01*
X190279Y54661D01*
Y55450D01*
X189977Y56180D01*
X189419Y56738D01*
X188690Y57040D01*
D02*
G37*
G36*
X268806Y52830D02*
X268017D01*
X267287Y52528D01*
X266729Y51970D01*
X266427Y51240D01*
Y50451D01*
X266729Y49722D01*
X267287Y49163D01*
X268017Y48861D01*
X268462D01*
X270073Y47251D01*
Y46958D01*
X270375Y46228D01*
X270933Y45670D01*
X271662Y45368D01*
X272452D01*
X273181Y45670D01*
X273739Y46228D01*
X274041Y46958D01*
Y47747D01*
X273739Y48476D01*
X273181Y49035D01*
X272452Y49337D01*
X272006D01*
X270395Y50947D01*
Y51240D01*
X270093Y51970D01*
X269535Y52528D01*
X268806Y52830D01*
D02*
G37*
G36*
X171654Y48942D02*
X170865D01*
X170136Y48640D01*
X169578Y48082D01*
X169276Y47352D01*
Y46563D01*
X169578Y45834D01*
X170136Y45276D01*
X170865Y44973D01*
X171654D01*
X172384Y45276D01*
X172942Y45834D01*
X173244Y46563D01*
Y47352D01*
X172942Y48082D01*
X172384Y48640D01*
X171654Y48942D01*
D02*
G37*
G36*
X374386Y46272D02*
X370736D01*
Y42622D01*
X374386D01*
Y46272D01*
D02*
G37*
G36*
X369736D02*
X366087D01*
Y42622D01*
X369736D01*
Y46272D01*
D02*
G37*
G36*
X360783Y50921D02*
X359690D01*
X358634Y50639D01*
X357688Y50092D01*
X356916Y49320D01*
X356369Y48373D01*
X356087Y47318D01*
Y46225D01*
X356369Y45170D01*
X356916Y44224D01*
X357688Y43451D01*
X358634Y42905D01*
X359690Y42622D01*
X360783D01*
X361838Y42905D01*
X362784Y43451D01*
X363557Y44224D01*
X364103Y45170D01*
X364386Y46225D01*
Y47318D01*
X364103Y48373D01*
X363557Y49320D01*
X362784Y50092D01*
X361838Y50639D01*
X360783Y50921D01*
D02*
G37*
G36*
X376042Y31725D02*
X375253D01*
X374523Y31423D01*
X373965Y30865D01*
X373663Y30136D01*
Y29346D01*
X373965Y28617D01*
X374523Y28059D01*
X375253Y27757D01*
X376042D01*
X376771Y28059D01*
X377329Y28617D01*
X377631Y29346D01*
Y30136D01*
X377329Y30865D01*
X376771Y31423D01*
X376042Y31725D01*
D02*
G37*
G36*
X356357D02*
X355568D01*
X354838Y31423D01*
X354280Y30865D01*
X353978Y30136D01*
Y29346D01*
X354280Y28617D01*
X354838Y28059D01*
X355568Y27757D01*
X356357D01*
X357086Y28059D01*
X357644Y28617D01*
X357946Y29346D01*
Y30136D01*
X357644Y30865D01*
X357086Y31423D01*
X356357Y31725D01*
D02*
G37*
G36*
X316987D02*
X316197D01*
X315468Y31423D01*
X314910Y30865D01*
X314608Y30136D01*
Y29346D01*
X314910Y28617D01*
X315468Y28059D01*
X316197Y27757D01*
X316987D01*
X317716Y28059D01*
X318274Y28617D01*
X318576Y29346D01*
Y30136D01*
X318274Y30865D01*
X317716Y31423D01*
X316987Y31725D01*
D02*
G37*
G36*
X297302D02*
X296512D01*
X295783Y31423D01*
X295225Y30865D01*
X294923Y30136D01*
Y29346D01*
X295225Y28617D01*
X295783Y28059D01*
X296512Y27757D01*
X297302D01*
X298031Y28059D01*
X298589Y28617D01*
X298891Y29346D01*
Y30136D01*
X298589Y30865D01*
X298031Y31423D01*
X297302Y31725D01*
D02*
G37*
G36*
X277617D02*
X276827D01*
X276098Y31423D01*
X275540Y30865D01*
X275238Y30136D01*
Y29346D01*
X275540Y28617D01*
X276098Y28059D01*
X276827Y27757D01*
X277617D01*
X278346Y28059D01*
X278904Y28617D01*
X279206Y29346D01*
Y30136D01*
X278904Y30865D01*
X278346Y31423D01*
X277617Y31725D01*
D02*
G37*
G36*
X257932D02*
X257142D01*
X256413Y31423D01*
X255855Y30865D01*
X255553Y30136D01*
Y29346D01*
X255855Y28617D01*
X256413Y28059D01*
X257142Y27757D01*
X257932D01*
X258661Y28059D01*
X259219Y28617D01*
X259521Y29346D01*
Y30136D01*
X259219Y30865D01*
X258661Y31423D01*
X257932Y31725D01*
D02*
G37*
G36*
X238247D02*
X237457D01*
X236728Y31423D01*
X236170Y30865D01*
X235868Y30136D01*
Y29346D01*
X236170Y28617D01*
X236728Y28059D01*
X237457Y27757D01*
X238247D01*
X238976Y28059D01*
X239534Y28617D01*
X239836Y29346D01*
Y30136D01*
X239534Y30865D01*
X238976Y31423D01*
X238247Y31725D01*
D02*
G37*
G36*
X218562D02*
X217772D01*
X217043Y31423D01*
X216485Y30865D01*
X216183Y30136D01*
Y29346D01*
X216485Y28617D01*
X217043Y28059D01*
X217772Y27757D01*
X218562D01*
X219291Y28059D01*
X219849Y28617D01*
X220151Y29346D01*
Y30136D01*
X219849Y30865D01*
X219291Y31423D01*
X218562Y31725D01*
D02*
G37*
G36*
X198877D02*
X198087D01*
X197358Y31423D01*
X196800Y30865D01*
X196498Y30136D01*
Y29346D01*
X196800Y28617D01*
X197358Y28059D01*
X198087Y27757D01*
X198877D01*
X199606Y28059D01*
X200164Y28617D01*
X200466Y29346D01*
Y30136D01*
X200164Y30865D01*
X199606Y31423D01*
X198877Y31725D01*
D02*
G37*
G36*
X179192D02*
X178402D01*
X177673Y31423D01*
X177115Y30865D01*
X176813Y30136D01*
Y29346D01*
X177115Y28617D01*
X177673Y28059D01*
X178402Y27757D01*
X179192D01*
X179921Y28059D01*
X180479Y28617D01*
X180781Y29346D01*
Y30136D01*
X180479Y30865D01*
X179921Y31423D01*
X179192Y31725D01*
D02*
G37*
G36*
X159506D02*
X158717D01*
X157988Y31423D01*
X157430Y30865D01*
X157127Y30136D01*
Y29346D01*
X157430Y28617D01*
X157988Y28059D01*
X158717Y27757D01*
X159506D01*
X160236Y28059D01*
X160794Y28617D01*
X161096Y29346D01*
Y30136D01*
X160794Y30865D01*
X160236Y31423D01*
X159506Y31725D01*
D02*
G37*
G36*
X376042Y12040D02*
X375253D01*
X374523Y11738D01*
X373965Y11180D01*
X373663Y10451D01*
Y9661D01*
X373965Y8932D01*
X374523Y8374D01*
X375253Y8072D01*
X376042D01*
X376771Y8374D01*
X377329Y8932D01*
X377631Y9661D01*
Y10451D01*
X377329Y11180D01*
X376771Y11738D01*
X376042Y12040D01*
D02*
G37*
G36*
X356357D02*
X355568D01*
X354838Y11738D01*
X354280Y11180D01*
X353978Y10451D01*
Y9661D01*
X354280Y8932D01*
X354838Y8374D01*
X355568Y8072D01*
X356357D01*
X357086Y8374D01*
X357644Y8932D01*
X357946Y9661D01*
Y10451D01*
X357644Y11180D01*
X357086Y11738D01*
X356357Y12040D01*
D02*
G37*
G36*
X316987D02*
X316197D01*
X315468Y11738D01*
X314910Y11180D01*
X314608Y10451D01*
Y9661D01*
X314910Y8932D01*
X315468Y8374D01*
X316197Y8072D01*
X316987D01*
X317716Y8374D01*
X318274Y8932D01*
X318576Y9661D01*
Y10451D01*
X318274Y11180D01*
X317716Y11738D01*
X316987Y12040D01*
D02*
G37*
G36*
X297302D02*
X296512D01*
X295783Y11738D01*
X295225Y11180D01*
X294923Y10451D01*
Y9661D01*
X295225Y8932D01*
X295783Y8374D01*
X296512Y8072D01*
X297302D01*
X298031Y8374D01*
X298589Y8932D01*
X298891Y9661D01*
Y10451D01*
X298589Y11180D01*
X298031Y11738D01*
X297302Y12040D01*
D02*
G37*
G36*
X277617D02*
X276827D01*
X276098Y11738D01*
X275540Y11180D01*
X275238Y10451D01*
Y9661D01*
X275540Y8932D01*
X276098Y8374D01*
X276827Y8072D01*
X277617D01*
X278346Y8374D01*
X278904Y8932D01*
X279206Y9661D01*
Y10451D01*
X278904Y11180D01*
X278346Y11738D01*
X277617Y12040D01*
D02*
G37*
G36*
X257932D02*
X257142D01*
X256413Y11738D01*
X255855Y11180D01*
X255553Y10451D01*
Y9661D01*
X255855Y8932D01*
X256413Y8374D01*
X257142Y8072D01*
X257932D01*
X258661Y8374D01*
X259219Y8932D01*
X259521Y9661D01*
Y10451D01*
X259219Y11180D01*
X258661Y11738D01*
X257932Y12040D01*
D02*
G37*
G36*
X238247D02*
X237457D01*
X236728Y11738D01*
X236170Y11180D01*
X235868Y10451D01*
Y9661D01*
X236170Y8932D01*
X236728Y8374D01*
X237457Y8072D01*
X238247D01*
X238976Y8374D01*
X239534Y8932D01*
X239836Y9661D01*
Y10451D01*
X239534Y11180D01*
X238976Y11738D01*
X238247Y12040D01*
D02*
G37*
G36*
X218562D02*
X217772D01*
X217043Y11738D01*
X216485Y11180D01*
X216183Y10451D01*
Y9661D01*
X216485Y8932D01*
X217043Y8374D01*
X217772Y8072D01*
X218562D01*
X219291Y8374D01*
X219849Y8932D01*
X220151Y9661D01*
Y10451D01*
X219849Y11180D01*
X219291Y11738D01*
X218562Y12040D01*
D02*
G37*
G36*
X198877D02*
X198087D01*
X197358Y11738D01*
X196800Y11180D01*
X196498Y10451D01*
Y9661D01*
X196800Y8932D01*
X197358Y8374D01*
X198087Y8072D01*
X198877D01*
X199606Y8374D01*
X200164Y8932D01*
X200466Y9661D01*
Y10451D01*
X200164Y11180D01*
X199606Y11738D01*
X198877Y12040D01*
D02*
G37*
G36*
X179192D02*
X178402D01*
X177673Y11738D01*
X177115Y11180D01*
X176813Y10451D01*
Y9661D01*
X177115Y8932D01*
X177673Y8374D01*
X178402Y8072D01*
X179192D01*
X179921Y8374D01*
X180479Y8932D01*
X180781Y9661D01*
Y10451D01*
X180479Y11180D01*
X179921Y11738D01*
X179192Y12040D01*
D02*
G37*
G36*
X159506D02*
X158717D01*
X157988Y11738D01*
X157430Y11180D01*
X157127Y10451D01*
Y9661D01*
X157430Y8932D01*
X157988Y8374D01*
X158717Y8072D01*
X159506D01*
X160236Y8374D01*
X160794Y8932D01*
X161096Y9661D01*
Y10451D01*
X160794Y11180D01*
X160236Y11738D01*
X159506Y12040D01*
D02*
G37*
G36*
X335685Y32435D02*
X333606D01*
X331554Y32109D01*
X329577Y31467D01*
X327725Y30524D01*
X326043Y29302D01*
X324574Y27832D01*
X323352Y26151D01*
X322408Y24299D01*
X321766Y22322D01*
X321441Y20269D01*
Y18191D01*
X321766Y16138D01*
X322408Y14161D01*
X323352Y12309D01*
X324574Y10628D01*
X326043Y9158D01*
X327725Y7936D01*
X329577Y6993D01*
X331554Y6350D01*
X333606Y6025D01*
X335685D01*
X337738Y6350D01*
X339715Y6993D01*
X341566Y7936D01*
X343248Y9158D01*
X344718Y10628D01*
X345939Y12309D01*
X346883Y14161D01*
X347525Y16138D01*
X347850Y18191D01*
Y20269D01*
X347525Y22322D01*
X346883Y24299D01*
X345939Y26151D01*
X344718Y27832D01*
X343248Y29302D01*
X341566Y30524D01*
X339715Y31467D01*
X337738Y32109D01*
X335685Y32435D01*
D02*
G37*
G36*
X139821Y248261D02*
X139032D01*
X138303Y247958D01*
X137745Y247400D01*
X137443Y246671D01*
Y245882D01*
X137745Y245152D01*
X138303Y244594D01*
X139032Y244292D01*
X139821D01*
X140551Y244594D01*
X141109Y245152D01*
X141411Y245882D01*
Y246671D01*
X141109Y247400D01*
X140551Y247958D01*
X139821Y248261D01*
D02*
G37*
G36*
X120136D02*
X119347D01*
X118618Y247958D01*
X118060Y247400D01*
X117757Y246671D01*
Y245882D01*
X118060Y245152D01*
X118618Y244594D01*
X119347Y244292D01*
X120136D01*
X120866Y244594D01*
X121424Y245152D01*
X121726Y245882D01*
Y246671D01*
X121424Y247400D01*
X120866Y247958D01*
X120136Y248261D01*
D02*
G37*
G36*
X139821Y228576D02*
X139032D01*
X138303Y228274D01*
X137745Y227715D01*
X137443Y226986D01*
Y226197D01*
X137745Y225467D01*
X138303Y224909D01*
X139032Y224607D01*
X139821D01*
X140551Y224909D01*
X141109Y225467D01*
X141411Y226197D01*
Y226986D01*
X141109Y227715D01*
X140551Y228274D01*
X139821Y228576D01*
D02*
G37*
G36*
X120136D02*
X119347D01*
X118618Y228274D01*
X118060Y227715D01*
X117757Y226986D01*
Y226197D01*
X118060Y225467D01*
X118618Y224909D01*
X119347Y224607D01*
X120136D01*
X120866Y224909D01*
X121424Y225467D01*
X121726Y226197D01*
Y226986D01*
X121424Y227715D01*
X120866Y228274D01*
X120136Y228576D01*
D02*
G37*
G36*
X139821Y208891D02*
X139032D01*
X138303Y208588D01*
X137745Y208030D01*
X137443Y207301D01*
Y206512D01*
X137745Y205782D01*
X138303Y205224D01*
X139032Y204922D01*
X139821D01*
X140551Y205224D01*
X141109Y205782D01*
X141411Y206512D01*
Y207301D01*
X141109Y208030D01*
X140551Y208588D01*
X139821Y208891D01*
D02*
G37*
G36*
X120136D02*
X119347D01*
X118618Y208588D01*
X118060Y208030D01*
X117757Y207301D01*
Y206512D01*
X118060Y205782D01*
X118618Y205224D01*
X119347Y204922D01*
X120136D01*
X120866Y205224D01*
X121424Y205782D01*
X121726Y206512D01*
Y207301D01*
X121424Y208030D01*
X120866Y208588D01*
X120136Y208891D01*
D02*
G37*
G36*
X139821Y189206D02*
X139032D01*
X138303Y188903D01*
X137745Y188345D01*
X137443Y187616D01*
Y186827D01*
X137745Y186097D01*
X138303Y185539D01*
X139032Y185237D01*
X139821D01*
X140551Y185539D01*
X141109Y186097D01*
X141411Y186827D01*
Y187616D01*
X141109Y188345D01*
X140551Y188903D01*
X139821Y189206D01*
D02*
G37*
G36*
X120136D02*
X119347D01*
X118618Y188903D01*
X118060Y188345D01*
X117757Y187616D01*
Y186827D01*
X118060Y186097D01*
X118618Y185539D01*
X119347Y185237D01*
X120136D01*
X120866Y185539D01*
X121424Y186097D01*
X121726Y186827D01*
Y187616D01*
X121424Y188345D01*
X120866Y188903D01*
X120136Y189206D01*
D02*
G37*
G36*
Y169520D02*
X119347D01*
X118618Y169218D01*
X118060Y168660D01*
X117757Y167931D01*
Y167141D01*
X118060Y166412D01*
X118618Y165854D01*
X119347Y165552D01*
X120136D01*
X120866Y165854D01*
X121424Y166412D01*
X121726Y167141D01*
Y167931D01*
X121424Y168660D01*
X120866Y169218D01*
X120136Y169520D01*
D02*
G37*
G36*
X139821Y149835D02*
X139032D01*
X138303Y149533D01*
X137745Y148975D01*
X137443Y148246D01*
Y147457D01*
X137745Y146727D01*
X138303Y146169D01*
X139032Y145867D01*
X139821D01*
X140551Y146169D01*
X141109Y146727D01*
X141411Y147457D01*
Y148246D01*
X141109Y148975D01*
X140551Y149533D01*
X139821Y149835D01*
D02*
G37*
G36*
X120136D02*
X119347D01*
X118618Y149533D01*
X118060Y148975D01*
X117757Y148246D01*
Y147457D01*
X118060Y146727D01*
X118618Y146169D01*
X119347Y145867D01*
X120136D01*
X120866Y146169D01*
X121424Y146727D01*
X121726Y147457D01*
Y148246D01*
X121424Y148975D01*
X120866Y149533D01*
X120136Y149835D01*
D02*
G37*
G36*
Y130150D02*
X119347D01*
X118618Y129848D01*
X118060Y129290D01*
X117757Y128561D01*
Y127771D01*
X118060Y127042D01*
X118618Y126484D01*
X119347Y126182D01*
X120136D01*
X120866Y126484D01*
X121424Y127042D01*
X121726Y127771D01*
Y128561D01*
X121424Y129290D01*
X120866Y129848D01*
X120136Y130150D01*
D02*
G37*
G36*
Y110465D02*
X119347D01*
X118618Y110163D01*
X118060Y109605D01*
X117757Y108876D01*
Y108086D01*
X118060Y107357D01*
X118618Y106799D01*
X119347Y106497D01*
X120136D01*
X120866Y106799D01*
X121424Y107357D01*
X121726Y108086D01*
Y108876D01*
X121424Y109605D01*
X120866Y110163D01*
X120136Y110465D01*
D02*
G37*
G36*
Y90780D02*
X119347D01*
X118618Y90478D01*
X118060Y89920D01*
X117757Y89191D01*
Y88401D01*
X118060Y87672D01*
X118618Y87114D01*
X119347Y86812D01*
X120136D01*
X120866Y87114D01*
X121424Y87672D01*
X121726Y88401D01*
Y89191D01*
X121424Y89920D01*
X120866Y90478D01*
X120136Y90780D01*
D02*
G37*
G36*
X139821Y71095D02*
X139032D01*
X138303Y70793D01*
X137745Y70235D01*
X137443Y69506D01*
Y68716D01*
X137745Y67987D01*
X138303Y67429D01*
X139032Y67127D01*
X139821D01*
X140551Y67429D01*
X141109Y67987D01*
X141411Y68716D01*
Y69506D01*
X141109Y70235D01*
X140551Y70793D01*
X139821Y71095D01*
D02*
G37*
G36*
Y31725D02*
X139032D01*
X138303Y31423D01*
X137745Y30865D01*
X137443Y30136D01*
Y29346D01*
X137745Y28617D01*
X138303Y28059D01*
X139032Y27757D01*
X139821D01*
X140551Y28059D01*
X141109Y28617D01*
X141411Y29346D01*
Y30136D01*
X141109Y30865D01*
X140551Y31423D01*
X139821Y31725D01*
D02*
G37*
G36*
X120136D02*
X119347D01*
X118618Y31423D01*
X118060Y30865D01*
X117757Y30136D01*
Y29346D01*
X118060Y28617D01*
X118618Y28059D01*
X119347Y27757D01*
X120136D01*
X120866Y28059D01*
X121424Y28617D01*
X121726Y29346D01*
Y30136D01*
X121424Y30865D01*
X120866Y31423D01*
X120136Y31725D01*
D02*
G37*
G36*
X139821Y12040D02*
X139032D01*
X138303Y11738D01*
X137745Y11180D01*
X137443Y10451D01*
Y9661D01*
X137745Y8932D01*
X138303Y8374D01*
X139032Y8072D01*
X139821D01*
X140551Y8374D01*
X141109Y8932D01*
X141411Y9661D01*
Y10451D01*
X141109Y11180D01*
X140551Y11738D01*
X139821Y12040D01*
D02*
G37*
G36*
X120136D02*
X119347D01*
X118618Y11738D01*
X118060Y11180D01*
X117757Y10451D01*
Y9661D01*
X118060Y8932D01*
X118618Y8374D01*
X119347Y8072D01*
X120136D01*
X120866Y8374D01*
X121424Y8932D01*
X121726Y9661D01*
Y10451D01*
X121424Y11180D01*
X120866Y11738D01*
X120136Y12040D01*
D02*
G37*
G36*
X179192Y248261D02*
X178402D01*
X177673Y247958D01*
X177115Y247400D01*
X176813Y246671D01*
Y245882D01*
X177115Y245152D01*
X177673Y244594D01*
X178402Y244292D01*
X179192D01*
X179921Y244594D01*
X180479Y245152D01*
X180781Y245882D01*
Y246671D01*
X180479Y247400D01*
X179921Y247958D01*
X179192Y248261D01*
D02*
G37*
G36*
X159506D02*
X158717D01*
X157988Y247958D01*
X157430Y247400D01*
X157127Y246671D01*
Y245882D01*
X157430Y245152D01*
X157988Y244594D01*
X158717Y244292D01*
X159506D01*
X160236Y244594D01*
X160794Y245152D01*
X161096Y245882D01*
Y246671D01*
X160794Y247400D01*
X160236Y247958D01*
X159506Y248261D01*
D02*
G37*
G36*
X179192Y228576D02*
X178402D01*
X177673Y228274D01*
X177115Y227715D01*
X176813Y226986D01*
Y226197D01*
X177115Y225467D01*
X177673Y224909D01*
X178402Y224607D01*
X179192D01*
X179921Y224909D01*
X180479Y225467D01*
X180781Y226197D01*
Y226986D01*
X180479Y227715D01*
X179921Y228274D01*
X179192Y228576D01*
D02*
G37*
G36*
X159506D02*
X158717D01*
X157988Y228274D01*
X157430Y227715D01*
X157127Y226986D01*
Y226197D01*
X157430Y225467D01*
X157988Y224909D01*
X158717Y224607D01*
X159506D01*
X160236Y224909D01*
X160794Y225467D01*
X161096Y226197D01*
Y226986D01*
X160794Y227715D01*
X160236Y228274D01*
X159506Y228576D01*
D02*
G37*
G36*
X179192Y208891D02*
X178402D01*
X177673Y208588D01*
X177115Y208030D01*
X176813Y207301D01*
Y206512D01*
X177115Y205782D01*
X177673Y205224D01*
X178402Y204922D01*
X179192D01*
X179921Y205224D01*
X180479Y205782D01*
X180781Y206512D01*
Y207301D01*
X180479Y208030D01*
X179921Y208588D01*
X179192Y208891D01*
D02*
G37*
G36*
X159506D02*
X158717D01*
X157988Y208588D01*
X157430Y208030D01*
X157127Y207301D01*
Y206512D01*
X157430Y205782D01*
X157988Y205224D01*
X158717Y204922D01*
X159506D01*
X160236Y205224D01*
X160794Y205782D01*
X161096Y206512D01*
Y207301D01*
X160794Y208030D01*
X160236Y208588D01*
X159506Y208891D01*
D02*
G37*
G36*
X163389Y196551D02*
X162711D01*
X162056Y196376D01*
X161469Y196037D01*
X160990Y195557D01*
X160651Y194970D01*
X160475Y194315D01*
Y193637D01*
X160651Y192982D01*
X160990Y192395D01*
X161469Y191916D01*
X162056Y191577D01*
X162711Y191402D01*
X163389D01*
X164044Y191577D01*
X164631Y191916D01*
X165111Y192395D01*
X165450Y192982D01*
X165625Y193637D01*
Y194315D01*
X165450Y194970D01*
X165111Y195557D01*
X164631Y196037D01*
X164044Y196376D01*
X163389Y196551D01*
D02*
G37*
G36*
X179192Y189206D02*
X178402D01*
X177673Y188903D01*
X177115Y188345D01*
X176813Y187616D01*
Y186827D01*
X177115Y186097D01*
X177673Y185539D01*
X178402Y185237D01*
X179192D01*
X179921Y185539D01*
X180479Y186097D01*
X180781Y186827D01*
Y187616D01*
X180479Y188345D01*
X179921Y188903D01*
X179192Y189206D01*
D02*
G37*
G36*
X176182Y171948D02*
X175393D01*
X174663Y171646D01*
X174105Y171088D01*
X173803Y170358D01*
Y169569D01*
X174105Y168840D01*
X174663Y168281D01*
X175393Y167979D01*
X176182D01*
X176911Y168281D01*
X177470Y168840D01*
X177772Y169569D01*
Y170358D01*
X177470Y171088D01*
X176911Y171646D01*
X176182Y171948D01*
D02*
G37*
G36*
X168530Y167716D02*
X167741D01*
X167011Y167413D01*
X166453Y166855D01*
X166151Y166126D01*
Y165337D01*
X166453Y164607D01*
X167011Y164049D01*
X167741Y163747D01*
X168530D01*
X169259Y164049D01*
X169817Y164607D01*
X170120Y165337D01*
Y166126D01*
X169817Y166855D01*
X169259Y167413D01*
X168530Y167716D01*
D02*
G37*
G36*
X159506Y149835D02*
X158717D01*
X157988Y149533D01*
X157430Y148975D01*
X157127Y148246D01*
Y147457D01*
X157430Y146727D01*
X157988Y146169D01*
X158717Y145867D01*
X159506D01*
X160236Y146169D01*
X160794Y146727D01*
X161096Y147457D01*
Y148246D01*
X160794Y148975D01*
X160236Y149533D01*
X159506Y149835D01*
D02*
G37*
G36*
X163736Y132496D02*
X163058D01*
X162403Y132321D01*
X161816Y131982D01*
X161336Y131502D01*
X160997Y130915D01*
X160822Y130260D01*
Y129582D01*
X160997Y128927D01*
X161336Y128340D01*
X161816Y127861D01*
X162403Y127522D01*
X163058Y127347D01*
X163736D01*
X164391Y127522D01*
X164978Y127861D01*
X165457Y128340D01*
X165796Y128927D01*
X165971Y129582D01*
Y130260D01*
X165796Y130915D01*
X165457Y131502D01*
X164978Y131982D01*
X164391Y132321D01*
X163736Y132496D01*
D02*
G37*
G36*
X179192Y130150D02*
X178402D01*
X177673Y129848D01*
X177115Y129290D01*
X176813Y128561D01*
Y127771D01*
X177115Y127042D01*
X177673Y126484D01*
X178402Y126182D01*
X179192D01*
X179921Y126484D01*
X180479Y127042D01*
X180781Y127771D01*
Y128561D01*
X180479Y129290D01*
X179921Y129848D01*
X179192Y130150D01*
D02*
G37*
G36*
X176182Y106987D02*
X175393D01*
X174663Y106685D01*
X174105Y106127D01*
X173803Y105398D01*
Y104608D01*
X174105Y103879D01*
X174663Y103321D01*
X175393Y103019D01*
X176182D01*
X176911Y103321D01*
X177470Y103879D01*
X177772Y104608D01*
Y105398D01*
X177470Y106127D01*
X176911Y106685D01*
X176182Y106987D01*
D02*
G37*
G36*
X168417Y102528D02*
X167627D01*
X166898Y102226D01*
X166340Y101668D01*
X166038Y100938D01*
Y100149D01*
X166340Y99420D01*
X166898Y98861D01*
X167627Y98559D01*
X168417D01*
X169146Y98861D01*
X169704Y99420D01*
X170006Y100149D01*
Y100938D01*
X169704Y101668D01*
X169146Y102226D01*
X168417Y102528D01*
D02*
G37*
G36*
X238247Y90780D02*
X237457D01*
X236728Y90478D01*
X236170Y89920D01*
X235868Y89191D01*
Y88401D01*
X236170Y87672D01*
X236728Y87114D01*
X237457Y86812D01*
X238247D01*
X238976Y87114D01*
X239534Y87672D01*
X239836Y88401D01*
Y89191D01*
X239534Y89920D01*
X238976Y90478D01*
X238247Y90780D01*
D02*
G37*
G36*
X218562D02*
X217772D01*
X217043Y90478D01*
X216485Y89920D01*
X216183Y89191D01*
Y88401D01*
X216485Y87672D01*
X217043Y87114D01*
X217772Y86812D01*
X218562D01*
X219291Y87114D01*
X219849Y87672D01*
X220151Y88401D01*
Y89191D01*
X219849Y89920D01*
X219291Y90478D01*
X218562Y90780D01*
D02*
G37*
G36*
X179192D02*
X178402D01*
X177673Y90478D01*
X177115Y89920D01*
X176813Y89191D01*
Y88401D01*
X177115Y87672D01*
X177673Y87114D01*
X178402Y86812D01*
X179192D01*
X179921Y87114D01*
X180479Y87672D01*
X180781Y88401D01*
Y89191D01*
X180479Y89920D01*
X179921Y90478D01*
X179192Y90780D01*
D02*
G37*
G36*
X238247Y71095D02*
X237457D01*
X236728Y70793D01*
X236170Y70235D01*
X235868Y69506D01*
Y68716D01*
X236170Y67987D01*
X236728Y67429D01*
X237457Y67127D01*
X238247D01*
X238976Y67429D01*
X239534Y67987D01*
X239836Y68716D01*
Y69506D01*
X239534Y70235D01*
X238976Y70793D01*
X238247Y71095D01*
D02*
G37*
%LPD*%
D40*
X65114Y359871D02*
X96835Y328150D01*
X106360D01*
X127675Y359871D02*
X132677Y364873D01*
X65114Y359871D02*
X127675D01*
X268488Y50846D02*
X271981Y47352D01*
X272057D01*
X268411Y50846D02*
X268488D01*
X188295Y47530D02*
Y55056D01*
D41*
X177165Y314961D02*
X188147Y325942D01*
Y372047D01*
X156710Y344060D02*
Y348028D01*
D42*
X157480Y70866D02*
X199163D01*
X223872Y48553D02*
X223909Y48516D01*
X199163Y70866D02*
X221476Y48553D01*
X223872D01*
D43*
X195686Y49911D02*
Y51436D01*
Y49911D02*
X200098Y45499D01*
D46*
X301181Y370702D02*
D03*
X72835Y370625D02*
D03*
X188147Y372047D02*
D03*
D47*
X281496Y370702D02*
D03*
X53150Y370625D02*
D03*
X168462Y372047D02*
D03*
D48*
X322835Y369202D02*
D03*
X31496Y369125D02*
D03*
X348972Y378063D02*
D03*
X358972D02*
D03*
X368971D02*
D03*
X378972D02*
D03*
Y368063D02*
D03*
X368971D02*
D03*
X358972D02*
D03*
X370236Y56772D02*
D03*
Y66772D02*
D03*
Y76772D02*
D03*
Y86772D02*
D03*
Y96772D02*
D03*
X360236D02*
D03*
Y86772D02*
D03*
Y76772D02*
D03*
Y66772D02*
D03*
Y56772D02*
D03*
Y46772D02*
D03*
D49*
X322835Y379202D02*
D03*
X31496Y379125D02*
D03*
X370236Y46772D02*
D03*
D50*
X348972Y368063D02*
D03*
D51*
X334646Y334646D02*
D03*
X19685Y334646D02*
D03*
X334646Y19230D02*
D03*
X19685Y19685D02*
D03*
X267717Y267717D02*
D03*
X86614D02*
D03*
X267717Y86614D02*
D03*
X86614D02*
D03*
D52*
X367112Y324969D02*
D03*
X374164Y343444D02*
D03*
X366047Y342413D02*
D03*
X374264Y325484D02*
D03*
X355962Y325016D02*
D03*
X375647Y29741D02*
D03*
Y10056D02*
D03*
X355962Y305331D02*
D03*
Y285646D02*
D03*
Y265961D02*
D03*
Y246276D02*
D03*
Y226591D02*
D03*
Y206906D02*
D03*
Y187221D02*
D03*
Y167536D02*
D03*
Y147851D02*
D03*
Y128166D02*
D03*
Y108481D02*
D03*
Y29741D02*
D03*
Y10056D02*
D03*
X336277Y364387D02*
D03*
Y305331D02*
D03*
Y285646D02*
D03*
Y265961D02*
D03*
Y246276D02*
D03*
Y226591D02*
D03*
Y206906D02*
D03*
Y187221D02*
D03*
Y167536D02*
D03*
Y147851D02*
D03*
Y128166D02*
D03*
Y108481D02*
D03*
Y88796D02*
D03*
Y69111D02*
D03*
X316592Y364387D02*
D03*
Y147851D02*
D03*
Y128166D02*
D03*
Y108481D02*
D03*
Y88796D02*
D03*
Y69111D02*
D03*
Y29741D02*
D03*
Y10056D02*
D03*
X296907Y344702D02*
D03*
Y325016D02*
D03*
Y305331D02*
D03*
Y285646D02*
D03*
Y265961D02*
D03*
Y246276D02*
D03*
Y226591D02*
D03*
Y206906D02*
D03*
Y187221D02*
D03*
Y167536D02*
D03*
Y147851D02*
D03*
Y128166D02*
D03*
Y108481D02*
D03*
Y88796D02*
D03*
Y69111D02*
D03*
Y29741D02*
D03*
Y10056D02*
D03*
X277222Y364387D02*
D03*
Y285646D02*
D03*
Y246276D02*
D03*
Y206906D02*
D03*
Y187221D02*
D03*
Y167536D02*
D03*
Y147851D02*
D03*
Y128166D02*
D03*
Y108481D02*
D03*
Y69111D02*
D03*
Y29741D02*
D03*
Y10056D02*
D03*
X257537Y364387D02*
D03*
Y344702D02*
D03*
Y325016D02*
D03*
Y305331D02*
D03*
Y285646D02*
D03*
Y108481D02*
D03*
Y69111D02*
D03*
Y29741D02*
D03*
Y10056D02*
D03*
X237852Y325016D02*
D03*
Y285646D02*
D03*
Y88796D02*
D03*
Y69111D02*
D03*
Y29741D02*
D03*
Y10056D02*
D03*
X218167Y325016D02*
D03*
Y305331D02*
D03*
Y285646D02*
D03*
Y88796D02*
D03*
Y29741D02*
D03*
Y10056D02*
D03*
X198482Y364387D02*
D03*
Y344702D02*
D03*
Y325016D02*
D03*
Y285646D02*
D03*
Y29741D02*
D03*
Y10056D02*
D03*
X178797Y364387D02*
D03*
Y246276D02*
D03*
Y226591D02*
D03*
Y206906D02*
D03*
Y187221D02*
D03*
Y128166D02*
D03*
Y88796D02*
D03*
Y29741D02*
D03*
Y10056D02*
D03*
X159112Y364387D02*
D03*
Y305331D02*
D03*
Y285646D02*
D03*
Y246276D02*
D03*
Y226591D02*
D03*
Y206906D02*
D03*
Y147851D02*
D03*
Y29741D02*
D03*
Y10056D02*
D03*
X139427Y364387D02*
D03*
Y325016D02*
D03*
Y285646D02*
D03*
Y265961D02*
D03*
Y246276D02*
D03*
Y226591D02*
D03*
Y206906D02*
D03*
Y187221D02*
D03*
Y147851D02*
D03*
Y69111D02*
D03*
Y29741D02*
D03*
Y10056D02*
D03*
X119742Y325016D02*
D03*
Y305331D02*
D03*
Y285646D02*
D03*
Y265961D02*
D03*
Y246276D02*
D03*
Y226591D02*
D03*
Y206906D02*
D03*
Y187221D02*
D03*
Y167536D02*
D03*
Y147851D02*
D03*
Y128166D02*
D03*
Y108481D02*
D03*
Y88796D02*
D03*
Y29741D02*
D03*
Y10056D02*
D03*
X100057Y285646D02*
D03*
Y246276D02*
D03*
Y226591D02*
D03*
Y206906D02*
D03*
Y187221D02*
D03*
Y167536D02*
D03*
Y147851D02*
D03*
Y128166D02*
D03*
Y108481D02*
D03*
Y69111D02*
D03*
Y49426D02*
D03*
Y29741D02*
D03*
Y10056D02*
D03*
X80372Y285646D02*
D03*
Y246276D02*
D03*
Y226591D02*
D03*
Y206906D02*
D03*
Y187221D02*
D03*
Y167536D02*
D03*
Y147851D02*
D03*
Y128166D02*
D03*
Y108481D02*
D03*
Y69111D02*
D03*
Y49426D02*
D03*
Y29741D02*
D03*
Y10056D02*
D03*
X60687Y364387D02*
D03*
Y344702D02*
D03*
Y325016D02*
D03*
Y305331D02*
D03*
Y285646D02*
D03*
Y69111D02*
D03*
Y49426D02*
D03*
Y29741D02*
D03*
Y10056D02*
D03*
X41001Y364387D02*
D03*
Y344702D02*
D03*
Y325016D02*
D03*
Y305331D02*
D03*
Y285646D02*
D03*
Y69111D02*
D03*
Y49426D02*
D03*
Y29741D02*
D03*
Y10056D02*
D03*
X21317Y364387D02*
D03*
Y305331D02*
D03*
Y285646D02*
D03*
Y69111D02*
D03*
Y49426D02*
D03*
X166580Y111437D02*
D03*
X166453Y176665D02*
D03*
X106360Y328150D02*
D03*
X65114Y359871D02*
D03*
X132677Y364873D02*
D03*
X141732Y379125D02*
D03*
X93550Y384125D02*
D03*
X256320Y379344D02*
D03*
X208154Y384481D02*
D03*
X180815Y106882D02*
D03*
X223213Y94808D02*
D03*
X229360Y95181D02*
D03*
X272057Y47352D02*
D03*
X268411Y50846D02*
D03*
X180815Y171843D02*
D03*
X168022Y100544D02*
D03*
X168135Y165731D02*
D03*
X175787Y169964D02*
D03*
X154176Y113691D02*
D03*
Y178428D02*
D03*
X188295Y47530D02*
D03*
Y55056D02*
D03*
X163682Y59770D02*
D03*
X195686Y51436D02*
D03*
X241174Y61698D02*
D03*
X192430Y70107D02*
D03*
X190100Y145547D02*
D03*
X200098Y45499D02*
D03*
X171260Y46958D02*
D03*
X153300Y49213D02*
D03*
Y45276D02*
D03*
X175787Y105003D02*
D03*
D53*
X274637Y293307D02*
D03*
X78500Y291339D02*
D03*
X104392Y336130D02*
D03*
X112205Y336416D02*
D03*
X177165Y275000D02*
D03*
Y314961D02*
D03*
X228346Y347297D02*
D03*
X227717Y340453D02*
D03*
D54*
X156710Y344060D02*
D03*
Y348028D02*
D03*
X210205Y341106D02*
D03*
X163050Y193976D02*
D03*
X157480Y70866D02*
D03*
X171260Y54375D02*
D03*
X223909Y53256D02*
D03*
X223909Y48516D02*
D03*
X149606Y121793D02*
D03*
Y186980D02*
D03*
X200765Y50845D02*
D03*
X135433Y54859D02*
D03*
X127953D02*
D03*
X163397Y129921D02*
D03*
%TF.MD5,16cee885ad71c94eded7db33e28d8795*%
M02*
