%TF.GenerationSoftware,Altium Limited,Altium Designer,24.0.1 (36)*%
G04 Layer_Color=16711935*
%FSLAX25Y25*%
%MOIN*%
%TF.SameCoordinates,D5D63520-F272-4D0B-AB48-B6EDFC209223*%
%TF.FilePolarity,Negative*%
%TF.FileFunction,Soldermask,Bot*%
%TF.Part,Single*%
G01*
G75*
%TA.AperFunction,ComponentPad*%
%ADD90R,0.08071X0.08071*%
%ADD91C,0.08071*%
%ADD92C,0.06693*%
%ADD93R,0.06693X0.06693*%
%ADD94R,0.06693X0.06693*%
%TA.AperFunction,ViaPad*%
%ADD95C,0.24803*%
%ADD96C,0.02362*%
%ADD97C,0.05394*%
%ADD98C,0.03543*%
D90*
X301181Y370702D02*
D03*
X72835Y370625D02*
D03*
X188147Y372047D02*
D03*
D91*
X281496Y370702D02*
D03*
X53150Y370625D02*
D03*
X168462Y372047D02*
D03*
D92*
X322835Y369202D02*
D03*
X31496Y369125D02*
D03*
X348972Y378063D02*
D03*
X358972D02*
D03*
X368971D02*
D03*
X378972D02*
D03*
Y368063D02*
D03*
X368971D02*
D03*
X358972D02*
D03*
X370236Y56772D02*
D03*
Y66772D02*
D03*
Y76772D02*
D03*
Y86772D02*
D03*
Y96772D02*
D03*
X360236D02*
D03*
Y86772D02*
D03*
Y76772D02*
D03*
Y66772D02*
D03*
Y56772D02*
D03*
Y46772D02*
D03*
D93*
X322835Y379202D02*
D03*
X31496Y379125D02*
D03*
X370236Y46772D02*
D03*
D94*
X348972Y368063D02*
D03*
D95*
X334646Y334646D02*
D03*
X19685Y334646D02*
D03*
X334646Y19230D02*
D03*
X19685Y19685D02*
D03*
X267717Y267717D02*
D03*
X86614D02*
D03*
X267717Y86614D02*
D03*
X86614D02*
D03*
D96*
X367112Y324969D02*
D03*
X374164Y343444D02*
D03*
X366047Y342413D02*
D03*
X374264Y325484D02*
D03*
X355962Y325016D02*
D03*
X375647Y29741D02*
D03*
Y10056D02*
D03*
X355962Y305331D02*
D03*
Y285646D02*
D03*
Y265961D02*
D03*
Y246276D02*
D03*
Y226591D02*
D03*
Y206906D02*
D03*
Y187221D02*
D03*
Y167536D02*
D03*
Y147851D02*
D03*
Y128166D02*
D03*
Y108481D02*
D03*
Y29741D02*
D03*
Y10056D02*
D03*
X336277Y364387D02*
D03*
Y305331D02*
D03*
Y285646D02*
D03*
Y265961D02*
D03*
Y246276D02*
D03*
Y226591D02*
D03*
Y206906D02*
D03*
Y187221D02*
D03*
Y167536D02*
D03*
Y147851D02*
D03*
Y128166D02*
D03*
Y108481D02*
D03*
Y88796D02*
D03*
Y69111D02*
D03*
X316592Y364387D02*
D03*
Y147851D02*
D03*
Y128166D02*
D03*
Y108481D02*
D03*
Y88796D02*
D03*
Y69111D02*
D03*
Y29741D02*
D03*
Y10056D02*
D03*
X296907Y344702D02*
D03*
Y325016D02*
D03*
Y305331D02*
D03*
Y285646D02*
D03*
Y265961D02*
D03*
Y246276D02*
D03*
Y226591D02*
D03*
Y206906D02*
D03*
Y187221D02*
D03*
Y167536D02*
D03*
Y147851D02*
D03*
Y128166D02*
D03*
Y108481D02*
D03*
Y88796D02*
D03*
Y69111D02*
D03*
Y29741D02*
D03*
Y10056D02*
D03*
X277222Y364387D02*
D03*
Y285646D02*
D03*
Y246276D02*
D03*
Y206906D02*
D03*
Y187221D02*
D03*
Y167536D02*
D03*
Y147851D02*
D03*
Y128166D02*
D03*
Y108481D02*
D03*
Y69111D02*
D03*
Y29741D02*
D03*
Y10056D02*
D03*
X257537Y364387D02*
D03*
Y344702D02*
D03*
Y325016D02*
D03*
Y305331D02*
D03*
Y285646D02*
D03*
Y108481D02*
D03*
Y69111D02*
D03*
Y29741D02*
D03*
Y10056D02*
D03*
X237852Y325016D02*
D03*
Y285646D02*
D03*
Y88796D02*
D03*
Y69111D02*
D03*
Y29741D02*
D03*
Y10056D02*
D03*
X218167Y325016D02*
D03*
Y305331D02*
D03*
Y285646D02*
D03*
Y88796D02*
D03*
Y29741D02*
D03*
Y10056D02*
D03*
X198482Y364387D02*
D03*
Y344702D02*
D03*
Y325016D02*
D03*
Y285646D02*
D03*
Y29741D02*
D03*
Y10056D02*
D03*
X178797Y364387D02*
D03*
Y246276D02*
D03*
Y226591D02*
D03*
Y206906D02*
D03*
Y187221D02*
D03*
Y128166D02*
D03*
Y88796D02*
D03*
Y29741D02*
D03*
Y10056D02*
D03*
X159112Y364387D02*
D03*
Y305331D02*
D03*
Y285646D02*
D03*
Y246276D02*
D03*
Y226591D02*
D03*
Y206906D02*
D03*
Y147851D02*
D03*
Y29741D02*
D03*
Y10056D02*
D03*
X139427Y364387D02*
D03*
Y325016D02*
D03*
Y285646D02*
D03*
Y265961D02*
D03*
Y246276D02*
D03*
Y226591D02*
D03*
Y206906D02*
D03*
Y187221D02*
D03*
Y147851D02*
D03*
Y69111D02*
D03*
Y29741D02*
D03*
Y10056D02*
D03*
X119742Y325016D02*
D03*
Y305331D02*
D03*
Y285646D02*
D03*
Y265961D02*
D03*
Y246276D02*
D03*
Y226591D02*
D03*
Y206906D02*
D03*
Y187221D02*
D03*
Y167536D02*
D03*
Y147851D02*
D03*
Y128166D02*
D03*
Y108481D02*
D03*
Y88796D02*
D03*
Y29741D02*
D03*
Y10056D02*
D03*
X100057Y285646D02*
D03*
Y246276D02*
D03*
Y226591D02*
D03*
Y206906D02*
D03*
Y187221D02*
D03*
Y167536D02*
D03*
Y147851D02*
D03*
Y128166D02*
D03*
Y108481D02*
D03*
Y69111D02*
D03*
Y49426D02*
D03*
Y29741D02*
D03*
Y10056D02*
D03*
X80372Y285646D02*
D03*
Y246276D02*
D03*
Y226591D02*
D03*
Y206906D02*
D03*
Y187221D02*
D03*
Y167536D02*
D03*
Y147851D02*
D03*
Y128166D02*
D03*
Y108481D02*
D03*
Y69111D02*
D03*
Y49426D02*
D03*
Y29741D02*
D03*
Y10056D02*
D03*
X60687Y364387D02*
D03*
Y344702D02*
D03*
Y325016D02*
D03*
Y305331D02*
D03*
Y285646D02*
D03*
Y69111D02*
D03*
Y49426D02*
D03*
Y29741D02*
D03*
Y10056D02*
D03*
X41001Y364387D02*
D03*
Y344702D02*
D03*
Y325016D02*
D03*
Y305331D02*
D03*
Y285646D02*
D03*
Y69111D02*
D03*
Y49426D02*
D03*
Y29741D02*
D03*
Y10056D02*
D03*
X21317Y364387D02*
D03*
Y305331D02*
D03*
Y285646D02*
D03*
Y69111D02*
D03*
Y49426D02*
D03*
X166580Y111437D02*
D03*
X166453Y176665D02*
D03*
X106360Y328150D02*
D03*
X65114Y359871D02*
D03*
X132677Y364873D02*
D03*
X141732Y379125D02*
D03*
X93550Y384125D02*
D03*
X256320Y379344D02*
D03*
X208154Y384481D02*
D03*
X180815Y106882D02*
D03*
X223213Y94808D02*
D03*
X229360Y95181D02*
D03*
X272057Y47352D02*
D03*
X268411Y50846D02*
D03*
X180815Y171843D02*
D03*
X168022Y100544D02*
D03*
X168135Y165731D02*
D03*
X175787Y169964D02*
D03*
X154176Y113691D02*
D03*
Y178428D02*
D03*
X188295Y47530D02*
D03*
Y55056D02*
D03*
X163682Y59770D02*
D03*
X195686Y51436D02*
D03*
X241174Y61698D02*
D03*
X192430Y70107D02*
D03*
X190100Y145547D02*
D03*
X200098Y45499D02*
D03*
X171260Y46958D02*
D03*
X153300Y49213D02*
D03*
Y45276D02*
D03*
X175787Y105003D02*
D03*
D97*
X274637Y293307D02*
D03*
X78500Y291339D02*
D03*
X104392Y336130D02*
D03*
X112205Y336416D02*
D03*
X177165Y275000D02*
D03*
Y314961D02*
D03*
X228346Y347297D02*
D03*
X227717Y340453D02*
D03*
D98*
X156710Y344060D02*
D03*
Y348028D02*
D03*
X210205Y341106D02*
D03*
X163050Y193976D02*
D03*
X157480Y70866D02*
D03*
X171260Y54375D02*
D03*
X223909Y53256D02*
D03*
X223909Y48516D02*
D03*
X149606Y121793D02*
D03*
Y186980D02*
D03*
X200765Y50845D02*
D03*
X135433Y54859D02*
D03*
X127953D02*
D03*
X163397Y129921D02*
D03*
%TF.MD5,7448dbace8118c97f9d39b9b3265be04*%
M02*
