%TF.GenerationSoftware,Altium Limited,Altium Designer,24.0.1 (36)*%
G04 Layer_Color=0*
%FSLAX25Y25*%
%MOIN*%
%TF.SameCoordinates,D5D63520-F272-4D0B-AB48-B6EDFC209223*%
%TF.FilePolarity,Positive*%
%TF.FileFunction,NonPlated,1,4,NPTH,Drill*%
%TF.Part,Single*%
G01*
G75*
G36*
X216693Y255906D02*
X215399Y255906D01*
X212832Y255568D01*
X210331Y254898D01*
X207940Y253907D01*
X205698Y252612D01*
X203644Y251037D01*
X201813Y249206D01*
X200237Y247152D01*
X198943Y244910D01*
X197952Y242518D01*
X197282Y240018D01*
X196944Y237451D01*
X196944Y236157D01*
Y236157D01*
Y118111D01*
X196944Y116816D01*
X197282Y114250D01*
X197952Y111749D01*
X198943Y109357D01*
X200237Y107115D01*
X201813Y105062D01*
X203644Y103231D01*
X205698Y101655D01*
X207940Y100361D01*
X210331Y99370D01*
X212832Y98700D01*
X215399Y98362D01*
X216693Y98362D01*
X216693D01*
X218412D01*
X218822D01*
X219579Y98676D01*
X220159Y99255D01*
X220472Y100012D01*
Y100422D01*
D01*
Y116142D01*
X220510Y116526D01*
X220804Y117236D01*
X221347Y117779D01*
X222057Y118073D01*
X222441Y118111D01*
X222442Y118111D01*
X230315Y118111D01*
X230699Y118073D01*
X231409Y117779D01*
X231952Y117236D01*
X232246Y116526D01*
X232284Y116142D01*
X232284Y116142D01*
Y100239D01*
X232284Y99866D01*
X232570Y99176D01*
X233098Y98648D01*
X233788Y98362D01*
X234161Y98362D01*
X234161D01*
X236063D01*
X237357D01*
X239924Y98700D01*
X242425Y99370D01*
X244816Y100361D01*
X247058Y101655D01*
X249112Y103231D01*
X250943Y105062D01*
X252519Y107115D01*
X253813Y109357D01*
X254804Y111749D01*
X255474Y114250D01*
X255812Y116816D01*
X255812Y118111D01*
X255812Y118111D01*
X255842Y236157D01*
X255841Y237452D01*
X255501Y240021D01*
X254828Y242523D01*
X253835Y244916D01*
X252538Y247158D01*
X250959Y249212D01*
X249126Y251043D01*
X247069Y252619D01*
X244825Y253912D01*
X242430Y254902D01*
X239927Y255570D01*
X237358Y255907D01*
X236063Y255906D01*
X236063Y255906D01*
X216693Y255906D01*
D02*
G37*
%TF.MD5,beedec900631a60a0f0e07fa135dabed*%
M02*
