M48
;Layer_Color=9474304
;FILE_FORMAT=2:4
INCH,TZ
;TYPE=PLATED
T01F00S00C0.0079
T02F00S00C0.0157
T03F00S00C0.0280
T04F00S00C0.0402
T05F00S00C0.0512
T06F00S00C0.1181
%
T01
X20010Y4550
X19569Y5144
X19243Y7011
X22321Y9481
X22936Y9518
X24117Y6170
X26841Y5085
X27206Y4735
X18830Y4753
Y5506
X17126Y4696
X15330Y4528
Y4921
X16368Y5977
X16802Y10054
X17579Y10500
X18082Y10688
X16658Y11144
X15418Y11369
Y17843
X16645Y17667
X16814Y16573
X17579Y16996
X18082Y17184
X19010Y14555
X10636Y32815
X37175Y32588
X38012Y32548
X38022Y34241
X37185Y34281
X25632Y37934
X20815Y38448
X14173Y37913
X13268Y36487
X9355Y38413
X6511Y35987
T02
X20076Y5085
X22391Y4852
X22391Y5326
X17126Y5437
X15748Y7087
X13543Y5486
X12795
X14961Y12179
X16340Y12992
X16305Y19398
X14961Y18698
X21020Y34111
X15671Y34406
Y34803
T03
X7850Y29134
X10439Y33613
X11220Y33642
X17717Y31496
Y27500
X27464Y29331
X22772Y34045
X22835Y34730
T04
X36024Y4677
Y5677
Y6677
Y7677
Y8677
Y9677
X37024
Y8677
Y7677
Y6677
Y5677
Y4677
X36897Y36806
Y37806
X35897
X34897
Y36806
X35897
X37897
Y37806
X32283Y37920
Y36920
X3150Y36913
Y37913
T05
X28150Y37070
X30118
X18815Y37205
X16846
X7283Y37063
X5315
T06
X1969Y1969
X33465Y1923
X26772Y8661
X8661
X1969Y33465
X8661Y26772
X26772
X33465Y33465
M30
