%TF.GenerationSoftware,Altium Limited,Altium Designer,24.0.1 (36)*%
G04 Layer_Physical_Order=2*
G04 Layer_Color=36540*
%FSLAX25Y25*%
%MOIN*%
%TF.SameCoordinates,D5D63520-F272-4D0B-AB48-B6EDFC209223*%
%TF.FilePolarity,Positive*%
%TF.FileFunction,Copper,L2,Inr,Signal*%
%TF.Part,Single*%
G01*
G75*
%TA.AperFunction,ComponentPad*%
%ADD46R,0.07677X0.07677*%
%ADD47C,0.07677*%
%ADD48C,0.06299*%
%ADD49R,0.06299X0.06299*%
%ADD50R,0.06299X0.06299*%
%TA.AperFunction,ViaPad*%
%ADD51C,0.24410*%
%ADD52C,0.01968*%
%ADD53C,0.05000*%
%ADD54C,0.03150*%
G36*
X377629Y392180D02*
X379969Y391553D01*
X382207Y390626D01*
X384305Y389415D01*
X386227Y387940D01*
X387940Y386227D01*
X389415Y384305D01*
X390626Y382207D01*
X391553Y379969D01*
X392180Y377629D01*
X392497Y375227D01*
Y374016D01*
Y19685D01*
Y18474D01*
X392180Y16072D01*
X391553Y13732D01*
X390626Y11494D01*
X389415Y9396D01*
X387940Y7474D01*
X386227Y5761D01*
X384305Y4286D01*
X382207Y3074D01*
X379969Y2147D01*
X377629Y1520D01*
X375227Y1204D01*
X18474D01*
X16072Y1520D01*
X13732Y2147D01*
X11494Y3074D01*
X9396Y4286D01*
X7474Y5760D01*
X5761Y7474D01*
X4286Y9396D01*
X3074Y11494D01*
X2147Y13732D01*
X1520Y16072D01*
X1204Y18474D01*
Y19685D01*
Y374016D01*
Y375227D01*
X1520Y377629D01*
X2147Y379969D01*
X3074Y382207D01*
X4286Y384305D01*
X5760Y386227D01*
X7474Y387940D01*
X9396Y389415D01*
X11494Y390626D01*
X13732Y391553D01*
X16072Y392180D01*
X18474Y392497D01*
X375227D01*
X377629Y392180D01*
D02*
G37*
%LPC*%
G36*
X326984Y383351D02*
X318685D01*
Y375052D01*
X326984D01*
Y383351D01*
D02*
G37*
G36*
X35646Y383275D02*
X27347D01*
Y374975D01*
X35646D01*
Y383275D01*
D02*
G37*
G36*
X379518Y382212D02*
X378425D01*
X377370Y381930D01*
X376424Y381383D01*
X375651Y380611D01*
X375105Y379664D01*
X374822Y378609D01*
Y377517D01*
X375105Y376461D01*
X375651Y375515D01*
X376424Y374742D01*
X377370Y374196D01*
X378425Y373913D01*
X379518D01*
X380573Y374196D01*
X381519Y374742D01*
X382292Y375515D01*
X382838Y376461D01*
X383121Y377517D01*
Y378609D01*
X382838Y379664D01*
X382292Y380611D01*
X381519Y381383D01*
X380573Y381930D01*
X379518Y382212D01*
D02*
G37*
G36*
X369518D02*
X368425D01*
X367370Y381930D01*
X366424Y381383D01*
X365651Y380611D01*
X365105Y379664D01*
X364822Y378609D01*
Y377517D01*
X365105Y376461D01*
X365651Y375515D01*
X366424Y374742D01*
X367370Y374196D01*
X368425Y373913D01*
X369518D01*
X370573Y374196D01*
X371519Y374742D01*
X372292Y375515D01*
X372838Y376461D01*
X373121Y377517D01*
Y378609D01*
X372838Y379664D01*
X372292Y380611D01*
X371519Y381383D01*
X370573Y381930D01*
X369518Y382212D01*
D02*
G37*
G36*
X359518D02*
X358425D01*
X357370Y381930D01*
X356424Y381383D01*
X355651Y380611D01*
X355105Y379664D01*
X354822Y378609D01*
Y377517D01*
X355105Y376461D01*
X355651Y375515D01*
X356424Y374742D01*
X357370Y374196D01*
X358425Y373913D01*
X359518D01*
X360573Y374196D01*
X361519Y374742D01*
X362292Y375515D01*
X362838Y376461D01*
X363121Y377517D01*
Y378609D01*
X362838Y379664D01*
X362292Y380611D01*
X361519Y381383D01*
X360573Y381930D01*
X359518Y382212D01*
D02*
G37*
G36*
X349518D02*
X348425D01*
X347370Y381930D01*
X346424Y381383D01*
X345651Y380611D01*
X345105Y379664D01*
X344822Y378609D01*
Y377517D01*
X345105Y376461D01*
X345651Y375515D01*
X346424Y374742D01*
X347370Y374196D01*
X348425Y373913D01*
X349518D01*
X350573Y374196D01*
X351519Y374742D01*
X352292Y375515D01*
X352838Y376461D01*
X353121Y377517D01*
Y378609D01*
X352838Y379664D01*
X352292Y380611D01*
X351519Y381383D01*
X350573Y381930D01*
X349518Y382212D01*
D02*
G37*
G36*
X169099Y376886D02*
X168962D01*
Y372547D01*
X173301D01*
Y372684D01*
X172971Y373915D01*
X172334Y375018D01*
X171433Y375919D01*
X170330Y376556D01*
X169099Y376886D01*
D02*
G37*
G36*
X167962D02*
X167825D01*
X166595Y376556D01*
X165491Y375919D01*
X164590Y375018D01*
X163953Y373915D01*
X163624Y372684D01*
Y372547D01*
X167962D01*
Y376886D01*
D02*
G37*
G36*
X282133Y375540D02*
X281996D01*
Y371201D01*
X286335D01*
Y371339D01*
X286005Y372569D01*
X285368Y373673D01*
X284467Y374573D01*
X283364Y375210D01*
X282133Y375540D01*
D02*
G37*
G36*
X280996D02*
X280859D01*
X279628Y375210D01*
X278525Y374573D01*
X277624Y373673D01*
X276987Y372569D01*
X276658Y371339D01*
Y371201D01*
X280996D01*
Y375540D01*
D02*
G37*
G36*
X53787Y375464D02*
X53650D01*
Y371125D01*
X57988D01*
Y371262D01*
X57658Y372493D01*
X57021Y373596D01*
X56121Y374497D01*
X55017Y375134D01*
X53787Y375464D01*
D02*
G37*
G36*
X52650D02*
X52513D01*
X51282Y375134D01*
X50179Y374497D01*
X49278Y373596D01*
X48641Y372493D01*
X48311Y371262D01*
Y371125D01*
X52650D01*
Y375464D01*
D02*
G37*
G36*
X379518Y372212D02*
X379471D01*
Y368563D01*
X383121D01*
Y368609D01*
X382838Y369665D01*
X382292Y370611D01*
X381519Y371383D01*
X380573Y371930D01*
X379518Y372212D01*
D02*
G37*
G36*
X378471D02*
X378425D01*
X377370Y371930D01*
X376424Y371383D01*
X375651Y370611D01*
X375105Y369665D01*
X374822Y368609D01*
Y368563D01*
X378471D01*
Y372212D01*
D02*
G37*
G36*
X192986Y376886D02*
X183309D01*
Y367209D01*
X192986D01*
Y376886D01*
D02*
G37*
G36*
X173301Y371547D02*
X168962D01*
Y367209D01*
X169099D01*
X170330Y367538D01*
X171433Y368175D01*
X172334Y369076D01*
X172971Y370180D01*
X173301Y371410D01*
Y371547D01*
D02*
G37*
G36*
X167962D02*
X163624D01*
Y371410D01*
X163953Y370180D01*
X164590Y369076D01*
X165491Y368175D01*
X166595Y367538D01*
X167825Y367209D01*
X167962D01*
Y371547D01*
D02*
G37*
G36*
X306020Y375540D02*
X296342D01*
Y365863D01*
X306020D01*
Y375540D01*
D02*
G37*
G36*
X286335Y370201D02*
X281996D01*
Y365863D01*
X282133D01*
X283364Y366193D01*
X284467Y366830D01*
X285368Y367731D01*
X286005Y368834D01*
X286335Y370065D01*
Y370201D01*
D02*
G37*
G36*
X280996D02*
X276658D01*
Y370065D01*
X276987Y368834D01*
X277624Y367731D01*
X278525Y366830D01*
X279628Y366193D01*
X280859Y365863D01*
X280996D01*
Y370201D01*
D02*
G37*
G36*
X77673Y375464D02*
X67996D01*
Y365787D01*
X77673D01*
Y375464D01*
D02*
G37*
G36*
X57988Y370125D02*
X53650D01*
Y365787D01*
X53787D01*
X55017Y366116D01*
X56121Y366753D01*
X57021Y367654D01*
X57658Y368758D01*
X57988Y369988D01*
Y370125D01*
D02*
G37*
G36*
X52650D02*
X48311D01*
Y369988D01*
X48641Y368758D01*
X49278Y367654D01*
X50179Y366753D01*
X51282Y366116D01*
X52513Y365787D01*
X52650D01*
Y370125D01*
D02*
G37*
G36*
X323381Y373351D02*
X322288D01*
X321233Y373068D01*
X320287Y372522D01*
X319514Y371749D01*
X318968Y370803D01*
X318685Y369748D01*
Y368655D01*
X318968Y367600D01*
X319514Y366654D01*
X320287Y365881D01*
X321233Y365335D01*
X322288Y365052D01*
X323381D01*
X324436Y365335D01*
X325383Y365881D01*
X326155Y366654D01*
X326701Y367600D01*
X326984Y368655D01*
Y369748D01*
X326701Y370803D01*
X326155Y371749D01*
X325383Y372522D01*
X324436Y373068D01*
X323381Y373351D01*
D02*
G37*
G36*
X32042Y373275D02*
X30950D01*
X29894Y372992D01*
X28948Y372446D01*
X28176Y371673D01*
X27629Y370727D01*
X27347Y369671D01*
Y368579D01*
X27629Y367523D01*
X28176Y366577D01*
X28948Y365805D01*
X29894Y365258D01*
X30950Y364976D01*
X32042D01*
X33098Y365258D01*
X34044Y365805D01*
X34817Y366577D01*
X35363Y367523D01*
X35646Y368579D01*
Y369671D01*
X35363Y370727D01*
X34817Y371673D01*
X34044Y372446D01*
X33098Y372992D01*
X32042Y373275D01*
D02*
G37*
G36*
X383121Y367563D02*
X379471D01*
Y363913D01*
X379518D01*
X380573Y364196D01*
X381519Y364742D01*
X382292Y365515D01*
X382838Y366461D01*
X383121Y367516D01*
Y367563D01*
D02*
G37*
G36*
X378471D02*
X374822D01*
Y367516D01*
X375105Y366461D01*
X375651Y365515D01*
X376424Y364742D01*
X377370Y364196D01*
X378425Y363913D01*
X378471D01*
Y367563D01*
D02*
G37*
G36*
X369518Y372212D02*
X368425D01*
X367370Y371930D01*
X366424Y371383D01*
X365651Y370611D01*
X365105Y369665D01*
X364822Y368609D01*
Y367516D01*
X365105Y366461D01*
X365651Y365515D01*
X366424Y364742D01*
X367370Y364196D01*
X368425Y363913D01*
X369518D01*
X370573Y364196D01*
X371519Y364742D01*
X372292Y365515D01*
X372838Y366461D01*
X373121Y367516D01*
Y368609D01*
X372838Y369665D01*
X372292Y370611D01*
X371519Y371383D01*
X370573Y371930D01*
X369518Y372212D01*
D02*
G37*
G36*
X359518D02*
X358425D01*
X357370Y371930D01*
X356424Y371383D01*
X355651Y370611D01*
X355105Y369665D01*
X354822Y368609D01*
Y367516D01*
X355105Y366461D01*
X355651Y365515D01*
X356424Y364742D01*
X357370Y364196D01*
X358425Y363913D01*
X359518D01*
X360573Y364196D01*
X361519Y364742D01*
X362292Y365515D01*
X362838Y366461D01*
X363121Y367516D01*
Y368609D01*
X362838Y369665D01*
X362292Y370611D01*
X361519Y371383D01*
X360573Y371930D01*
X359518Y372212D01*
D02*
G37*
G36*
X353121D02*
X344822D01*
Y363913D01*
X353121D01*
Y372212D01*
D02*
G37*
G36*
X133072Y366857D02*
X132282D01*
X131553Y366555D01*
X130995Y365997D01*
X130693Y365267D01*
Y364478D01*
X130995Y363749D01*
X131553Y363190D01*
X132282Y362888D01*
X133072D01*
X133801Y363190D01*
X134359Y363749D01*
X134661Y364478D01*
Y365267D01*
X134359Y365997D01*
X133801Y366555D01*
X133072Y366857D01*
D02*
G37*
G36*
X65509Y361855D02*
X64719D01*
X63990Y361553D01*
X63432Y360995D01*
X63130Y360265D01*
Y359476D01*
X63432Y358747D01*
X63990Y358189D01*
X64719Y357886D01*
X65509D01*
X66238Y358189D01*
X66796Y358747D01*
X67098Y359476D01*
Y360265D01*
X66796Y360995D01*
X66238Y361553D01*
X65509Y361855D01*
D02*
G37*
G36*
X157049Y350602D02*
X156371D01*
X155716Y350427D01*
X155129Y350088D01*
X154649Y349608D01*
X154310Y349021D01*
X154135Y348367D01*
Y347689D01*
X154310Y347034D01*
X154649Y346447D01*
X155052Y346044D01*
X154649Y345641D01*
X154310Y345054D01*
X154135Y344399D01*
Y343721D01*
X154310Y343066D01*
X154649Y342479D01*
X155129Y342000D01*
X155716Y341661D01*
X156371Y341485D01*
X157049D01*
X157704Y341661D01*
X158291Y342000D01*
X158770Y342479D01*
X159109Y343066D01*
X159285Y343721D01*
Y344399D01*
X159109Y345054D01*
X158770Y345641D01*
X158367Y346044D01*
X158770Y346447D01*
X159109Y347034D01*
X159285Y347689D01*
Y348367D01*
X159109Y349021D01*
X158770Y349608D01*
X158291Y350088D01*
X157704Y350427D01*
X157049Y350602D01*
D02*
G37*
G36*
X374558Y345428D02*
X373769D01*
X373040Y345126D01*
X372481Y344568D01*
X372179Y343839D01*
Y343050D01*
X372481Y342320D01*
X373040Y341762D01*
X373769Y341460D01*
X374558D01*
X375288Y341762D01*
X375846Y342320D01*
X376148Y343050D01*
Y343839D01*
X375846Y344568D01*
X375288Y345126D01*
X374558Y345428D01*
D02*
G37*
G36*
X228178Y343953D02*
X227256D01*
X226366Y343714D01*
X225568Y343253D01*
X224917Y342602D01*
X224456Y341804D01*
X224217Y340914D01*
Y339992D01*
X224456Y339102D01*
X224917Y338304D01*
X225568Y337652D01*
X226366Y337191D01*
X227256Y336953D01*
X228178D01*
X229068Y337191D01*
X229866Y337652D01*
X230518Y338304D01*
X230979Y339102D01*
X231217Y339992D01*
Y340914D01*
X230979Y341804D01*
X230518Y342602D01*
X229866Y343253D01*
X229068Y343714D01*
X228178Y343953D01*
D02*
G37*
G36*
X335685Y347850D02*
X335146D01*
Y335146D01*
X347850D01*
Y335685D01*
X347525Y337738D01*
X346883Y339715D01*
X345939Y341566D01*
X344718Y343248D01*
X343248Y344718D01*
X341566Y345939D01*
X339715Y346883D01*
X337738Y347525D01*
X335685Y347850D01*
D02*
G37*
G36*
X334146D02*
X333606D01*
X331554Y347525D01*
X329577Y346883D01*
X327725Y345939D01*
X326043Y344718D01*
X324574Y343248D01*
X323352Y341566D01*
X322408Y339715D01*
X321766Y337738D01*
X321441Y335685D01*
Y335146D01*
X334146D01*
Y347850D01*
D02*
G37*
G36*
X20724Y347850D02*
X20185D01*
Y335146D01*
X32890D01*
Y335685D01*
X32565Y337738D01*
X31922Y339715D01*
X30979Y341566D01*
X29757Y343248D01*
X28287Y344718D01*
X26606Y345939D01*
X24754Y346883D01*
X22777Y347525D01*
X20724Y347850D01*
D02*
G37*
G36*
X19185D02*
X18646D01*
X16593Y347525D01*
X14616Y346883D01*
X12764Y345939D01*
X11083Y344718D01*
X9613Y343248D01*
X8391Y341566D01*
X7448Y339715D01*
X6805Y337738D01*
X6480Y335685D01*
Y335146D01*
X19185D01*
Y347850D01*
D02*
G37*
G36*
X112665Y339916D02*
X111744D01*
X110854Y339677D01*
X110056Y339216D01*
X109404Y338565D01*
X108943Y337767D01*
X108705Y336877D01*
Y335955D01*
X108943Y335065D01*
X109404Y334267D01*
X110056Y333615D01*
X110854Y333154D01*
X111744Y332916D01*
X112665D01*
X113556Y333154D01*
X114354Y333615D01*
X115005Y334267D01*
X115466Y335065D01*
X115705Y335955D01*
Y336877D01*
X115466Y337767D01*
X115005Y338565D01*
X114354Y339216D01*
X113556Y339677D01*
X112665Y339916D01*
D02*
G37*
G36*
X106755Y330134D02*
X105966D01*
X105236Y329832D01*
X104678Y329274D01*
X104376Y328544D01*
Y327755D01*
X104678Y327026D01*
X105236Y326467D01*
X105966Y326165D01*
X106755D01*
X107484Y326467D01*
X108043Y327026D01*
X108345Y327755D01*
Y328544D01*
X108043Y329274D01*
X107484Y329832D01*
X106755Y330134D01*
D02*
G37*
G36*
X374658Y327468D02*
X373869D01*
X373140Y327166D01*
X372582Y326608D01*
X372280Y325879D01*
Y325090D01*
X372582Y324360D01*
X373140Y323802D01*
X373869Y323500D01*
X374658D01*
X375388Y323802D01*
X375946Y324360D01*
X376248Y325090D01*
Y325879D01*
X375946Y326608D01*
X375388Y327166D01*
X374658Y327468D01*
D02*
G37*
G36*
X347850Y334146D02*
X335146D01*
Y321441D01*
X335685D01*
X337738Y321766D01*
X339715Y322408D01*
X341566Y323352D01*
X343248Y324574D01*
X344718Y326043D01*
X345939Y327725D01*
X346883Y329577D01*
X347525Y331554D01*
X347850Y333606D01*
Y334146D01*
D02*
G37*
G36*
X334146D02*
X321441D01*
Y333606D01*
X321766Y331554D01*
X322408Y329577D01*
X323352Y327725D01*
X324574Y326043D01*
X326043Y324574D01*
X327725Y323352D01*
X329577Y322408D01*
X331554Y321766D01*
X333606Y321441D01*
X334146D01*
Y334146D01*
D02*
G37*
G36*
X32890Y334146D02*
X20185D01*
Y321441D01*
X20724D01*
X22777Y321766D01*
X24754Y322408D01*
X26606Y323352D01*
X28287Y324574D01*
X29757Y326043D01*
X30979Y327725D01*
X31922Y329577D01*
X32565Y331554D01*
X32890Y333606D01*
Y334146D01*
D02*
G37*
G36*
X19185D02*
X6480D01*
Y333606D01*
X6805Y331554D01*
X7448Y329577D01*
X8391Y327725D01*
X9613Y326043D01*
X11083Y324574D01*
X12764Y323352D01*
X14616Y322408D01*
X16593Y321766D01*
X18646Y321441D01*
X19185D01*
Y334146D01*
D02*
G37*
G36*
X177626Y318461D02*
X176705D01*
X175814Y318222D01*
X175016Y317761D01*
X174365Y317110D01*
X173904Y316312D01*
X173665Y315421D01*
Y314500D01*
X173904Y313610D01*
X174365Y312812D01*
X175016Y312160D01*
X175814Y311699D01*
X176705Y311461D01*
X177626D01*
X178516Y311699D01*
X179314Y312160D01*
X179966Y312812D01*
X180427Y313610D01*
X180665Y314500D01*
Y315421D01*
X180427Y316312D01*
X179966Y317110D01*
X179314Y317761D01*
X178516Y318222D01*
X177626Y318461D01*
D02*
G37*
G36*
X268756Y280921D02*
X268216D01*
Y268216D01*
X280921D01*
Y268756D01*
X280596Y270809D01*
X279954Y272785D01*
X279010Y274637D01*
X277788Y276319D01*
X276319Y277788D01*
X274637Y279010D01*
X272785Y279954D01*
X270809Y280596D01*
X268756Y280921D01*
D02*
G37*
G36*
X267216D02*
X266677D01*
X264624Y280596D01*
X262648Y279954D01*
X260796Y279010D01*
X259114Y277788D01*
X257645Y276319D01*
X256423Y274637D01*
X255479Y272785D01*
X254837Y270809D01*
X254512Y268756D01*
Y268216D01*
X267216D01*
Y280921D01*
D02*
G37*
G36*
X87653D02*
X87114D01*
Y268216D01*
X99819D01*
Y268756D01*
X99494Y270809D01*
X98852Y272785D01*
X97908Y274637D01*
X96686Y276319D01*
X95217Y277788D01*
X93535Y279010D01*
X91683Y279954D01*
X89706Y280596D01*
X87653Y280921D01*
D02*
G37*
G36*
X86114D02*
X85575D01*
X83522Y280596D01*
X81545Y279954D01*
X79693Y279010D01*
X78012Y277788D01*
X76542Y276319D01*
X75321Y274637D01*
X74377Y272785D01*
X73735Y270809D01*
X73409Y268756D01*
Y268216D01*
X86114D01*
Y280921D01*
D02*
G37*
G36*
X237357Y257111D02*
X236063Y257110D01*
X236063Y257110D01*
X236063Y257110D01*
X216693Y257110D01*
X215399Y257110D01*
X215321Y257094D01*
X215241Y257099D01*
X212675Y256762D01*
X212599Y256736D01*
X212520Y256731D01*
X210020Y256061D01*
X209948Y256026D01*
X209870Y256010D01*
X207479Y255019D01*
X207413Y254975D01*
X207337Y254950D01*
X205096Y253655D01*
X205036Y253603D01*
X204964Y253568D01*
X202911Y251992D01*
X202858Y251932D01*
X202792Y251888D01*
X200962Y250058D01*
X200918Y249991D01*
X200858Y249939D01*
X199282Y247885D01*
X199247Y247814D01*
X199194Y247754D01*
X197900Y245512D01*
X197874Y245437D01*
X197830Y245371D01*
X196840Y242979D01*
X196824Y242901D01*
X196789Y242830D01*
X196119Y240330D01*
X196114Y240250D01*
X196088Y240175D01*
X195750Y237608D01*
X195756Y237529D01*
X195740Y237451D01*
X195740Y236157D01*
Y118111D01*
X195740Y116816D01*
X195756Y116738D01*
X195750Y116659D01*
X196088Y114093D01*
X196114Y114017D01*
X196119Y113938D01*
X196789Y111437D01*
X196824Y111366D01*
X196840Y111288D01*
X197830Y108897D01*
X197874Y108830D01*
X197900Y108755D01*
X199194Y106513D01*
X199247Y106454D01*
X199282Y106382D01*
X200858Y104329D01*
X200918Y104276D01*
X200962Y104210D01*
X202792Y102380D01*
X202858Y102336D01*
X202911Y102276D01*
X204964Y100700D01*
X205036Y100665D01*
X205096Y100612D01*
X207337Y99318D01*
X207413Y99292D01*
X207479Y99248D01*
X209870Y98257D01*
X209948Y98242D01*
X210020Y98207D01*
X212520Y97537D01*
X212599Y97532D01*
X212675Y97506D01*
X215241Y97168D01*
X215321Y97173D01*
X215399Y97158D01*
X216693Y97158D01*
X218822D01*
X219283Y97250D01*
X219930Y97518D01*
X220430Y97299D01*
X220429Y97048D01*
X222128D01*
X222227Y96548D01*
X222089Y96490D01*
X221530Y95932D01*
X221228Y95203D01*
Y94413D01*
X221530Y93684D01*
X222089Y93126D01*
X222818Y92824D01*
X223607D01*
X224337Y93126D01*
X224895Y93684D01*
X225197Y94413D01*
Y95203D01*
X224895Y95932D01*
X224337Y96490D01*
X224198Y96548D01*
X224298Y97048D01*
X232246D01*
Y97271D01*
X232252Y97275D01*
X232747Y97490D01*
X233327Y97250D01*
X233788Y97158D01*
X234161Y97158D01*
X237357D01*
X237435Y97173D01*
X237515Y97168D01*
X240081Y97506D01*
X240156Y97532D01*
X240236Y97537D01*
X242736Y98207D01*
X242808Y98242D01*
X242885Y98257D01*
X245277Y99248D01*
X245343Y99292D01*
X245418Y99318D01*
X247660Y100612D01*
X247720Y100665D01*
X247791Y100700D01*
X249845Y102276D01*
X249898Y102336D01*
X249964Y102380D01*
X251794Y104210D01*
X251838Y104276D01*
X251898Y104329D01*
X253474Y106382D01*
X253509Y106454D01*
X253561Y106513D01*
X254856Y108755D01*
X254881Y108830D01*
X254925Y108897D01*
X255916Y111288D01*
X255932Y111366D01*
X255967Y111437D01*
X256637Y113938D01*
X256642Y114017D01*
X256668Y114093D01*
X257006Y116659D01*
X257000Y116738D01*
X257016Y116816D01*
X257016Y118110D01*
X257016Y118110D01*
X257046Y236157D01*
X257046Y236157D01*
X257046Y236158D01*
X257045Y237453D01*
X257030Y237531D01*
X257035Y237610D01*
X256695Y240179D01*
X256669Y240254D01*
X256664Y240333D01*
X255991Y242835D01*
X255956Y242906D01*
X255941Y242984D01*
X254947Y245377D01*
X254903Y245443D01*
X254878Y245518D01*
X253580Y247761D01*
X253528Y247821D01*
X253493Y247892D01*
X251914Y249946D01*
X251854Y249998D01*
X251810Y250065D01*
X249977Y251895D01*
X249911Y251939D01*
X249858Y251999D01*
X247802Y253574D01*
X247730Y253609D01*
X247671Y253662D01*
X245426Y254956D01*
X245351Y254981D01*
X245285Y255025D01*
X242890Y256015D01*
X242812Y256030D01*
X242741Y256065D01*
X240238Y256734D01*
X240159Y256739D01*
X240084Y256764D01*
X237515Y257101D01*
X237435Y257095D01*
X237357Y257111D01*
D02*
G37*
G36*
X280921Y267216D02*
X268216D01*
Y254512D01*
X268756D01*
X270809Y254837D01*
X272785Y255479D01*
X274637Y256423D01*
X276319Y257645D01*
X277788Y259114D01*
X279010Y260796D01*
X279954Y262648D01*
X280596Y264624D01*
X280921Y266677D01*
Y267216D01*
D02*
G37*
G36*
X267216D02*
X254512D01*
Y266677D01*
X254837Y264624D01*
X255479Y262648D01*
X256423Y260796D01*
X257645Y259114D01*
X259114Y257645D01*
X260796Y256423D01*
X262648Y255479D01*
X264624Y254837D01*
X266677Y254512D01*
X267216D01*
Y267216D01*
D02*
G37*
G36*
X99819D02*
X87114D01*
Y254512D01*
X87653D01*
X89706Y254837D01*
X91683Y255479D01*
X93535Y256423D01*
X95217Y257645D01*
X96686Y259114D01*
X97908Y260796D01*
X98852Y262648D01*
X99494Y264624D01*
X99819Y266677D01*
Y267216D01*
D02*
G37*
G36*
X86114D02*
X73409D01*
Y266677D01*
X73735Y264624D01*
X74377Y262648D01*
X75321Y260796D01*
X76542Y259114D01*
X78012Y257645D01*
X79693Y256423D01*
X81545Y255479D01*
X83522Y254837D01*
X85575Y254512D01*
X86114D01*
Y267216D01*
D02*
G37*
G36*
X149945Y189555D02*
X149267D01*
X148612Y189380D01*
X148025Y189041D01*
X147546Y188561D01*
X147207Y187974D01*
X147031Y187319D01*
Y186641D01*
X147207Y185986D01*
X147546Y185399D01*
X148025Y184920D01*
X148612Y184581D01*
X149267Y184406D01*
X149945D01*
X150600Y184581D01*
X151187Y184920D01*
X151667Y185399D01*
X152006Y185986D01*
X152181Y186641D01*
Y187319D01*
X152006Y187974D01*
X151667Y188561D01*
X151187Y189041D01*
X150600Y189380D01*
X149945Y189555D01*
D02*
G37*
G36*
X154571Y180412D02*
X153781D01*
X153052Y180110D01*
X152494Y179552D01*
X152192Y178823D01*
Y178033D01*
X152494Y177304D01*
X153052Y176746D01*
X153781Y176444D01*
X154571D01*
X155300Y176746D01*
X155858Y177304D01*
X156160Y178033D01*
Y178823D01*
X155858Y179552D01*
X155300Y180110D01*
X154571Y180412D01*
D02*
G37*
G36*
X166848Y178650D02*
X166059D01*
X165329Y178348D01*
X164771Y177789D01*
X164469Y177060D01*
Y176271D01*
X164771Y175541D01*
X165329Y174983D01*
X166059Y174681D01*
X166848D01*
X167577Y174983D01*
X168135Y175541D01*
X168437Y176271D01*
Y177060D01*
X168135Y177789D01*
X167577Y178348D01*
X166848Y178650D01*
D02*
G37*
G36*
X181210Y173827D02*
X180420D01*
X179691Y173525D01*
X179133Y172967D01*
X178831Y172237D01*
Y171448D01*
X179133Y170719D01*
X179691Y170160D01*
X180420Y169858D01*
X181210D01*
X181939Y170160D01*
X182497Y170719D01*
X182799Y171448D01*
Y172237D01*
X182497Y172967D01*
X181939Y173525D01*
X181210Y173827D01*
D02*
G37*
G36*
X190495Y147532D02*
X189706D01*
X188976Y147230D01*
X188418Y146671D01*
X188116Y145942D01*
Y145153D01*
X188418Y144423D01*
X188976Y143865D01*
X189706Y143563D01*
X190495D01*
X191224Y143865D01*
X191782Y144423D01*
X192085Y145153D01*
Y145942D01*
X191782Y146671D01*
X191224Y147230D01*
X190495Y147532D01*
D02*
G37*
G36*
X149945Y124367D02*
X149267D01*
X148612Y124192D01*
X148025Y123853D01*
X147546Y123374D01*
X147207Y122786D01*
X147031Y122132D01*
Y121454D01*
X147207Y120799D01*
X147546Y120212D01*
X148025Y119732D01*
X148612Y119393D01*
X149267Y119218D01*
X149945D01*
X150600Y119393D01*
X151187Y119732D01*
X151667Y120212D01*
X152006Y120799D01*
X152181Y121454D01*
Y122132D01*
X152006Y122786D01*
X151667Y123374D01*
X151187Y123853D01*
X150600Y124192D01*
X149945Y124367D01*
D02*
G37*
G36*
X154571Y115675D02*
X153781D01*
X153052Y115373D01*
X152494Y114815D01*
X152192Y114085D01*
Y113296D01*
X152494Y112567D01*
X153052Y112009D01*
X153781Y111706D01*
X154571D01*
X155300Y112009D01*
X155858Y112567D01*
X156160Y113296D01*
Y114085D01*
X155858Y114815D01*
X155300Y115373D01*
X154571Y115675D01*
D02*
G37*
G36*
X166974Y113422D02*
X166185D01*
X165456Y113120D01*
X164898Y112561D01*
X164595Y111832D01*
Y111043D01*
X164898Y110313D01*
X165456Y109755D01*
X166185Y109453D01*
X166974D01*
X167704Y109755D01*
X168262Y110313D01*
X168564Y111043D01*
Y111832D01*
X168262Y112561D01*
X167704Y113120D01*
X166974Y113422D01*
D02*
G37*
G36*
X181210Y108866D02*
X180420D01*
X179691Y108564D01*
X179133Y108006D01*
X178831Y107277D01*
Y106487D01*
X179133Y105758D01*
X179691Y105200D01*
X180420Y104898D01*
X181210D01*
X181939Y105200D01*
X182497Y105758D01*
X182799Y106487D01*
Y107277D01*
X182497Y108006D01*
X181939Y108564D01*
X181210Y108866D01*
D02*
G37*
G36*
X370782Y100921D02*
X369690D01*
X368635Y100638D01*
X367688Y100092D01*
X366916Y99320D01*
X366369Y98373D01*
X366087Y97318D01*
Y96225D01*
X366369Y95170D01*
X366916Y94224D01*
X367688Y93451D01*
X368635Y92905D01*
X369690Y92622D01*
X370782D01*
X371838Y92905D01*
X372784Y93451D01*
X373557Y94224D01*
X374103Y95170D01*
X374386Y96225D01*
Y97318D01*
X374103Y98373D01*
X373557Y99320D01*
X372784Y100092D01*
X371838Y100638D01*
X370782Y100921D01*
D02*
G37*
G36*
X360783D02*
X359690D01*
X358634Y100638D01*
X357688Y100092D01*
X356916Y99320D01*
X356369Y98373D01*
X356087Y97318D01*
Y96225D01*
X356369Y95170D01*
X356916Y94224D01*
X357688Y93451D01*
X358634Y92905D01*
X359690Y92622D01*
X360783D01*
X361838Y92905D01*
X362784Y93451D01*
X363557Y94224D01*
X364103Y95170D01*
X364386Y96225D01*
Y97318D01*
X364103Y98373D01*
X363557Y99320D01*
X362784Y100092D01*
X361838Y100638D01*
X360783Y100921D01*
D02*
G37*
G36*
X268756Y99819D02*
X268216D01*
Y87114D01*
X280921D01*
Y87653D01*
X280596Y89706D01*
X279954Y91683D01*
X279010Y93535D01*
X277788Y95217D01*
X276319Y96686D01*
X274637Y97908D01*
X272785Y98852D01*
X270809Y99494D01*
X268756Y99819D01*
D02*
G37*
G36*
X267216D02*
X266677D01*
X264624Y99494D01*
X262648Y98852D01*
X260796Y97908D01*
X259114Y96686D01*
X257645Y95217D01*
X256423Y93535D01*
X255479Y91683D01*
X254837Y89706D01*
X254512Y87653D01*
Y87114D01*
X267216D01*
Y99819D01*
D02*
G37*
G36*
X87653D02*
X87114D01*
Y87114D01*
X99819D01*
Y87653D01*
X99494Y89706D01*
X98852Y91683D01*
X97908Y93535D01*
X96686Y95217D01*
X95217Y96686D01*
X93535Y97908D01*
X91683Y98852D01*
X89706Y99494D01*
X87653Y99819D01*
D02*
G37*
G36*
X86114D02*
X85575D01*
X83522Y99494D01*
X81545Y98852D01*
X79693Y97908D01*
X78012Y96686D01*
X76542Y95217D01*
X75321Y93535D01*
X74377Y91683D01*
X73735Y89706D01*
X73409Y87653D01*
Y87114D01*
X86114D01*
Y99819D01*
D02*
G37*
G36*
X370782Y90921D02*
X369690D01*
X368635Y90639D01*
X367688Y90092D01*
X366916Y89320D01*
X366369Y88373D01*
X366087Y87318D01*
Y86225D01*
X366369Y85170D01*
X366916Y84224D01*
X367688Y83451D01*
X368635Y82905D01*
X369690Y82622D01*
X370782D01*
X371838Y82905D01*
X372784Y83451D01*
X373557Y84224D01*
X374103Y85170D01*
X374386Y86225D01*
Y87318D01*
X374103Y88373D01*
X373557Y89320D01*
X372784Y90092D01*
X371838Y90639D01*
X370782Y90921D01*
D02*
G37*
G36*
X360783D02*
X359690D01*
X358634Y90639D01*
X357688Y90092D01*
X356916Y89320D01*
X356369Y88373D01*
X356087Y87318D01*
Y86225D01*
X356369Y85170D01*
X356916Y84224D01*
X357688Y83451D01*
X358634Y82905D01*
X359690Y82622D01*
X360783D01*
X361838Y82905D01*
X362784Y83451D01*
X363557Y84224D01*
X364103Y85170D01*
X364386Y86225D01*
Y87318D01*
X364103Y88373D01*
X363557Y89320D01*
X362784Y90092D01*
X361838Y90639D01*
X360783Y90921D01*
D02*
G37*
G36*
X280921Y86114D02*
X268216D01*
Y73409D01*
X268756D01*
X270809Y73735D01*
X272785Y74377D01*
X274637Y75321D01*
X276319Y76542D01*
X277788Y78012D01*
X279010Y79693D01*
X279954Y81545D01*
X280596Y83522D01*
X280921Y85575D01*
Y86114D01*
D02*
G37*
G36*
X267216D02*
X254512D01*
Y85575D01*
X254837Y83522D01*
X255479Y81545D01*
X256423Y79693D01*
X257645Y78012D01*
X259114Y76542D01*
X260796Y75321D01*
X262648Y74377D01*
X264624Y73735D01*
X266677Y73409D01*
X267216D01*
Y86114D01*
D02*
G37*
G36*
X99819D02*
X87114D01*
Y73409D01*
X87653D01*
X89706Y73735D01*
X91683Y74377D01*
X93535Y75321D01*
X95217Y76542D01*
X96686Y78012D01*
X97908Y79693D01*
X98852Y81545D01*
X99494Y83522D01*
X99819Y85575D01*
Y86114D01*
D02*
G37*
G36*
X86114D02*
X73409D01*
Y85575D01*
X73735Y83522D01*
X74377Y81545D01*
X75321Y79693D01*
X76542Y78012D01*
X78012Y76542D01*
X79693Y75321D01*
X81545Y74377D01*
X83522Y73735D01*
X85575Y73409D01*
X86114D01*
Y86114D01*
D02*
G37*
G36*
X370782Y80921D02*
X369690D01*
X368635Y80638D01*
X367688Y80092D01*
X366916Y79320D01*
X366369Y78373D01*
X366087Y77318D01*
Y76225D01*
X366369Y75170D01*
X366916Y74224D01*
X367688Y73451D01*
X368635Y72905D01*
X369690Y72622D01*
X370782D01*
X371838Y72905D01*
X372784Y73451D01*
X373557Y74224D01*
X374103Y75170D01*
X374386Y76225D01*
Y77318D01*
X374103Y78373D01*
X373557Y79320D01*
X372784Y80092D01*
X371838Y80638D01*
X370782Y80921D01*
D02*
G37*
G36*
X360783D02*
X359690D01*
X358634Y80638D01*
X357688Y80092D01*
X356916Y79320D01*
X356369Y78373D01*
X356087Y77318D01*
Y76225D01*
X356369Y75170D01*
X356916Y74224D01*
X357688Y73451D01*
X358634Y72905D01*
X359690Y72622D01*
X360783D01*
X361838Y72905D01*
X362784Y73451D01*
X363557Y74224D01*
X364103Y75170D01*
X364386Y76225D01*
Y77318D01*
X364103Y78373D01*
X363557Y79320D01*
X362784Y80092D01*
X361838Y80638D01*
X360783Y80921D01*
D02*
G37*
G36*
X157819Y73441D02*
X157141D01*
X156486Y73265D01*
X155899Y72926D01*
X155420Y72447D01*
X155081Y71860D01*
X154905Y71205D01*
Y70527D01*
X155081Y69872D01*
X155420Y69285D01*
X155899Y68806D01*
X156486Y68467D01*
X157141Y68291D01*
X157819D01*
X158474Y68467D01*
X159061Y68806D01*
X159541Y69285D01*
X159880Y69872D01*
X160055Y70527D01*
Y71205D01*
X159880Y71860D01*
X159541Y72447D01*
X159061Y72926D01*
X158474Y73265D01*
X157819Y73441D01*
D02*
G37*
G36*
X192825Y72091D02*
X192035D01*
X191306Y71789D01*
X190748Y71231D01*
X190446Y70501D01*
Y69712D01*
X190748Y68983D01*
X191306Y68424D01*
X192035Y68122D01*
X192825D01*
X193554Y68424D01*
X194112Y68983D01*
X194414Y69712D01*
Y70501D01*
X194112Y71231D01*
X193554Y71789D01*
X192825Y72091D01*
D02*
G37*
G36*
X370782Y70921D02*
X369690D01*
X368635Y70639D01*
X367688Y70092D01*
X366916Y69320D01*
X366369Y68373D01*
X366087Y67318D01*
Y66225D01*
X366369Y65170D01*
X366916Y64224D01*
X367688Y63451D01*
X368635Y62905D01*
X369690Y62622D01*
X370782D01*
X371838Y62905D01*
X372784Y63451D01*
X373557Y64224D01*
X374103Y65170D01*
X374386Y66225D01*
Y67318D01*
X374103Y68373D01*
X373557Y69320D01*
X372784Y70092D01*
X371838Y70639D01*
X370782Y70921D01*
D02*
G37*
G36*
X360783D02*
X359690D01*
X358634Y70639D01*
X357688Y70092D01*
X356916Y69320D01*
X356369Y68373D01*
X356087Y67318D01*
Y66225D01*
X356369Y65170D01*
X356916Y64224D01*
X357688Y63451D01*
X358634Y62905D01*
X359690Y62622D01*
X360783D01*
X361838Y62905D01*
X362784Y63451D01*
X363557Y64224D01*
X364103Y65170D01*
X364386Y66225D01*
Y67318D01*
X364103Y68373D01*
X363557Y69320D01*
X362784Y70092D01*
X361838Y70639D01*
X360783Y70921D01*
D02*
G37*
G36*
X241569Y63682D02*
X240780D01*
X240050Y63380D01*
X239492Y62822D01*
X239190Y62093D01*
Y61303D01*
X239492Y60574D01*
X240050Y60016D01*
X240780Y59714D01*
X241569D01*
X242298Y60016D01*
X242856Y60574D01*
X243159Y61303D01*
Y62093D01*
X242856Y62822D01*
X242298Y63380D01*
X241569Y63682D01*
D02*
G37*
G36*
X188690Y57040D02*
X187901D01*
X187171Y56738D01*
X186613Y56180D01*
X186311Y55450D01*
Y54661D01*
X186613Y53932D01*
X187171Y53374D01*
X187901Y53072D01*
X188690D01*
X189419Y53374D01*
X189977Y53932D01*
X190279Y54661D01*
Y55450D01*
X189977Y56180D01*
X189419Y56738D01*
X188690Y57040D01*
D02*
G37*
G36*
X370782Y60921D02*
X369690D01*
X368635Y60638D01*
X367688Y60092D01*
X366916Y59320D01*
X366369Y58373D01*
X366087Y57318D01*
Y56225D01*
X366369Y55170D01*
X366916Y54224D01*
X367688Y53451D01*
X368635Y52905D01*
X369690Y52622D01*
X370782D01*
X371838Y52905D01*
X372784Y53451D01*
X373557Y54224D01*
X374103Y55170D01*
X374386Y56225D01*
Y57318D01*
X374103Y58373D01*
X373557Y59320D01*
X372784Y60092D01*
X371838Y60638D01*
X370782Y60921D01*
D02*
G37*
G36*
X360783D02*
X359690D01*
X358634Y60638D01*
X357688Y60092D01*
X356916Y59320D01*
X356369Y58373D01*
X356087Y57318D01*
Y56225D01*
X356369Y55170D01*
X356916Y54224D01*
X357688Y53451D01*
X358634Y52905D01*
X359690Y52622D01*
X360783D01*
X361838Y52905D01*
X362784Y53451D01*
X363557Y54224D01*
X364103Y55170D01*
X364386Y56225D01*
Y57318D01*
X364103Y58373D01*
X363557Y59320D01*
X362784Y60092D01*
X361838Y60638D01*
X360783Y60921D01*
D02*
G37*
G36*
X135772Y57434D02*
X135094D01*
X134439Y57258D01*
X133852Y56919D01*
X133373Y56440D01*
X133034Y55853D01*
X132858Y55198D01*
Y54520D01*
X133034Y53865D01*
X133373Y53278D01*
X133852Y52799D01*
X134439Y52460D01*
X135094Y52284D01*
X135772D01*
X136427Y52460D01*
X137014Y52799D01*
X137493Y53278D01*
X137832Y53865D01*
X138008Y54520D01*
Y55198D01*
X137832Y55853D01*
X137493Y56440D01*
X137014Y56919D01*
X136427Y57258D01*
X135772Y57434D01*
D02*
G37*
G36*
X128292D02*
X127614D01*
X126959Y57258D01*
X126372Y56919D01*
X125892Y56440D01*
X125553Y55853D01*
X125378Y55198D01*
Y54520D01*
X125553Y53865D01*
X125892Y53278D01*
X126372Y52799D01*
X126959Y52460D01*
X127614Y52284D01*
X128292D01*
X128947Y52460D01*
X129534Y52799D01*
X130013Y53278D01*
X130352Y53865D01*
X130528Y54520D01*
Y55198D01*
X130352Y55853D01*
X130013Y56440D01*
X129534Y56919D01*
X128947Y57258D01*
X128292Y57434D01*
D02*
G37*
G36*
X171599Y56950D02*
X170921D01*
X170266Y56774D01*
X169679Y56435D01*
X169200Y55956D01*
X168860Y55369D01*
X168685Y54714D01*
Y54036D01*
X168860Y53381D01*
X169200Y52794D01*
X169679Y52314D01*
X170266Y51975D01*
X170921Y51800D01*
X171599D01*
X172254Y51975D01*
X172841Y52314D01*
X173320Y52794D01*
X173659Y53381D01*
X173835Y54036D01*
Y54714D01*
X173659Y55369D01*
X173320Y55956D01*
X172841Y56435D01*
X172254Y56774D01*
X171599Y56950D01*
D02*
G37*
G36*
X196081Y53420D02*
X195291D01*
X194562Y53118D01*
X194004Y52560D01*
X193702Y51831D01*
Y51041D01*
X194004Y50312D01*
X194562Y49754D01*
X195291Y49452D01*
X196081D01*
X196810Y49754D01*
X197368Y50312D01*
X197670Y51041D01*
Y51831D01*
X197368Y52560D01*
X196810Y53118D01*
X196081Y53420D01*
D02*
G37*
G36*
X268806Y52830D02*
X268017D01*
X267287Y52528D01*
X266729Y51970D01*
X266427Y51240D01*
Y50451D01*
X266729Y49722D01*
X267287Y49163D01*
X268017Y48861D01*
X268806D01*
X269535Y49163D01*
X270093Y49722D01*
X270395Y50451D01*
Y51240D01*
X270093Y51970D01*
X269535Y52528D01*
X268806Y52830D01*
D02*
G37*
G36*
X360783Y50921D02*
X360736D01*
Y47272D01*
X364386D01*
Y47318D01*
X364103Y48373D01*
X363557Y49320D01*
X362784Y50092D01*
X361838Y50639D01*
X360783Y50921D01*
D02*
G37*
G36*
X359736D02*
X359690D01*
X358634Y50639D01*
X357688Y50092D01*
X356916Y49320D01*
X356369Y48373D01*
X356087Y47318D01*
Y47272D01*
X359736D01*
Y50921D01*
D02*
G37*
G36*
X224248Y51091D02*
X223570D01*
X222916Y50915D01*
X222328Y50576D01*
X221849Y50097D01*
X221510Y49510D01*
X221335Y48855D01*
Y48177D01*
X221510Y47522D01*
X221849Y46935D01*
X222328Y46455D01*
X222916Y46116D01*
X223570Y45941D01*
X224248D01*
X224903Y46116D01*
X225490Y46455D01*
X225970Y46935D01*
X226309Y47522D01*
X226484Y48177D01*
Y48855D01*
X226309Y49510D01*
X225970Y50097D01*
X225490Y50576D01*
X224903Y50915D01*
X224248Y51091D01*
D02*
G37*
G36*
X188690Y49515D02*
X187901D01*
X187171Y49213D01*
X186613Y48654D01*
X186311Y47925D01*
Y47136D01*
X186613Y46406D01*
X187171Y45848D01*
X187901Y45546D01*
X188690D01*
X189419Y45848D01*
X189977Y46406D01*
X190279Y47136D01*
Y47925D01*
X189977Y48654D01*
X189419Y49213D01*
X188690Y49515D01*
D02*
G37*
G36*
X272452Y49337D02*
X271662D01*
X270933Y49035D01*
X270375Y48476D01*
X270073Y47747D01*
Y46958D01*
X270375Y46228D01*
X270933Y45670D01*
X271662Y45368D01*
X272452D01*
X273181Y45670D01*
X273739Y46228D01*
X274041Y46958D01*
Y47747D01*
X273739Y48476D01*
X273181Y49035D01*
X272452Y49337D01*
D02*
G37*
G36*
X200493Y47483D02*
X199704D01*
X198974Y47181D01*
X198416Y46623D01*
X198114Y45893D01*
Y45104D01*
X198416Y44375D01*
X198974Y43817D01*
X199704Y43515D01*
X200493D01*
X201222Y43817D01*
X201781Y44375D01*
X202083Y45104D01*
Y45893D01*
X201781Y46623D01*
X201222Y47181D01*
X200493Y47483D01*
D02*
G37*
G36*
X374386Y50921D02*
X366087D01*
Y42622D01*
X374386D01*
Y50921D01*
D02*
G37*
G36*
X364386Y46272D02*
X360736D01*
Y42622D01*
X360783D01*
X361838Y42905D01*
X362784Y43451D01*
X363557Y44224D01*
X364103Y45170D01*
X364386Y46225D01*
Y46272D01*
D02*
G37*
G36*
X359736D02*
X356087D01*
Y46225D01*
X356369Y45170D01*
X356916Y44224D01*
X357688Y43451D01*
X358634Y42905D01*
X359690Y42622D01*
X359736D01*
Y46272D01*
D02*
G37*
G36*
X20724Y32890D02*
X20185D01*
Y20185D01*
X32890D01*
Y20724D01*
X32565Y22777D01*
X31922Y24754D01*
X30979Y26606D01*
X29757Y28287D01*
X28287Y29757D01*
X26606Y30979D01*
X24754Y31922D01*
X22777Y32565D01*
X20724Y32890D01*
D02*
G37*
G36*
X19185D02*
X18646D01*
X16593Y32565D01*
X14616Y31922D01*
X12764Y30979D01*
X11083Y29757D01*
X9613Y28287D01*
X8391Y26606D01*
X7448Y24754D01*
X6805Y22777D01*
X6480Y20724D01*
Y20185D01*
X19185D01*
Y32890D01*
D02*
G37*
G36*
X335685Y32435D02*
X335146D01*
Y19730D01*
X347850D01*
Y20269D01*
X347525Y22322D01*
X346883Y24299D01*
X345939Y26151D01*
X344718Y27832D01*
X343248Y29302D01*
X341566Y30524D01*
X339715Y31467D01*
X337738Y32109D01*
X335685Y32435D01*
D02*
G37*
G36*
X334146D02*
X333606D01*
X331554Y32109D01*
X329577Y31467D01*
X327725Y30524D01*
X326043Y29302D01*
X324574Y27832D01*
X323352Y26151D01*
X322408Y24299D01*
X321766Y22322D01*
X321441Y20269D01*
Y19730D01*
X334146D01*
Y32435D01*
D02*
G37*
G36*
X32890Y19185D02*
X20185D01*
Y6480D01*
X20724D01*
X22777Y6805D01*
X24754Y7448D01*
X26606Y8391D01*
X28287Y9613D01*
X29757Y11083D01*
X30979Y12764D01*
X31922Y14616D01*
X32565Y16593D01*
X32890Y18646D01*
Y19185D01*
D02*
G37*
G36*
X19185D02*
X6480D01*
Y18646D01*
X6805Y16593D01*
X7448Y14616D01*
X8391Y12764D01*
X9613Y11083D01*
X11083Y9613D01*
X12764Y8391D01*
X14616Y7448D01*
X16593Y6805D01*
X18646Y6480D01*
X19185D01*
Y19185D01*
D02*
G37*
G36*
X347850Y18730D02*
X335146D01*
Y6025D01*
X335685D01*
X337738Y6350D01*
X339715Y6993D01*
X341566Y7936D01*
X343248Y9158D01*
X344718Y10628D01*
X345939Y12309D01*
X346883Y14161D01*
X347525Y16138D01*
X347850Y18191D01*
Y18730D01*
D02*
G37*
G36*
X334146D02*
X321441D01*
Y18191D01*
X321766Y16138D01*
X322408Y14161D01*
X323352Y12309D01*
X324574Y10628D01*
X326043Y9158D01*
X327725Y7936D01*
X329577Y6993D01*
X331554Y6350D01*
X333606Y6025D01*
X334146D01*
Y18730D01*
D02*
G37*
%LPD*%
D46*
X301181Y370702D02*
D03*
X72835Y370625D02*
D03*
X188147Y372047D02*
D03*
D47*
X281496Y370702D02*
D03*
X53150Y370625D02*
D03*
X168462Y372047D02*
D03*
D48*
X322835Y369202D02*
D03*
X31496Y369125D02*
D03*
X348972Y378063D02*
D03*
X358972D02*
D03*
X368971D02*
D03*
X378972D02*
D03*
Y368063D02*
D03*
X368971D02*
D03*
X358972D02*
D03*
X370236Y56772D02*
D03*
Y66772D02*
D03*
Y76772D02*
D03*
Y86772D02*
D03*
Y96772D02*
D03*
X360236D02*
D03*
Y86772D02*
D03*
Y76772D02*
D03*
Y66772D02*
D03*
Y56772D02*
D03*
Y46772D02*
D03*
D49*
X322835Y379202D02*
D03*
X31496Y379125D02*
D03*
X370236Y46772D02*
D03*
D50*
X348972Y368063D02*
D03*
D51*
X334646Y334646D02*
D03*
X19685Y334646D02*
D03*
X334646Y19230D02*
D03*
X19685Y19685D02*
D03*
X267717Y267717D02*
D03*
X86614D02*
D03*
X267717Y86614D02*
D03*
X86614D02*
D03*
D52*
X367112Y324969D02*
D03*
X374164Y343444D02*
D03*
X366047Y342413D02*
D03*
X374264Y325484D02*
D03*
X355962Y325016D02*
D03*
X375647Y29741D02*
D03*
Y10056D02*
D03*
X355962Y305331D02*
D03*
Y285646D02*
D03*
Y265961D02*
D03*
Y246276D02*
D03*
Y226591D02*
D03*
Y206906D02*
D03*
Y187221D02*
D03*
Y167536D02*
D03*
Y147851D02*
D03*
Y128166D02*
D03*
Y108481D02*
D03*
Y29741D02*
D03*
Y10056D02*
D03*
X336277Y364387D02*
D03*
Y305331D02*
D03*
Y285646D02*
D03*
Y265961D02*
D03*
Y246276D02*
D03*
Y226591D02*
D03*
Y206906D02*
D03*
Y187221D02*
D03*
Y167536D02*
D03*
Y147851D02*
D03*
Y128166D02*
D03*
Y108481D02*
D03*
Y88796D02*
D03*
Y69111D02*
D03*
X316592Y364387D02*
D03*
Y147851D02*
D03*
Y128166D02*
D03*
Y108481D02*
D03*
Y88796D02*
D03*
Y69111D02*
D03*
Y29741D02*
D03*
Y10056D02*
D03*
X296907Y344702D02*
D03*
Y325016D02*
D03*
Y305331D02*
D03*
Y285646D02*
D03*
Y265961D02*
D03*
Y246276D02*
D03*
Y226591D02*
D03*
Y206906D02*
D03*
Y187221D02*
D03*
Y167536D02*
D03*
Y147851D02*
D03*
Y128166D02*
D03*
Y108481D02*
D03*
Y88796D02*
D03*
Y69111D02*
D03*
Y29741D02*
D03*
Y10056D02*
D03*
X277222Y364387D02*
D03*
Y285646D02*
D03*
Y246276D02*
D03*
Y206906D02*
D03*
Y187221D02*
D03*
Y167536D02*
D03*
Y147851D02*
D03*
Y128166D02*
D03*
Y108481D02*
D03*
Y69111D02*
D03*
Y29741D02*
D03*
Y10056D02*
D03*
X257537Y364387D02*
D03*
Y344702D02*
D03*
Y325016D02*
D03*
Y305331D02*
D03*
Y285646D02*
D03*
Y108481D02*
D03*
Y69111D02*
D03*
Y29741D02*
D03*
Y10056D02*
D03*
X237852Y325016D02*
D03*
Y285646D02*
D03*
Y88796D02*
D03*
Y69111D02*
D03*
Y29741D02*
D03*
Y10056D02*
D03*
X218167Y325016D02*
D03*
Y305331D02*
D03*
Y285646D02*
D03*
Y88796D02*
D03*
Y29741D02*
D03*
Y10056D02*
D03*
X198482Y364387D02*
D03*
Y344702D02*
D03*
Y325016D02*
D03*
Y285646D02*
D03*
Y29741D02*
D03*
Y10056D02*
D03*
X178797Y364387D02*
D03*
Y246276D02*
D03*
Y226591D02*
D03*
Y206906D02*
D03*
Y187221D02*
D03*
Y128166D02*
D03*
Y88796D02*
D03*
Y29741D02*
D03*
Y10056D02*
D03*
X159112Y364387D02*
D03*
Y305331D02*
D03*
Y285646D02*
D03*
Y246276D02*
D03*
Y226591D02*
D03*
Y206906D02*
D03*
Y147851D02*
D03*
Y29741D02*
D03*
Y10056D02*
D03*
X139427Y364387D02*
D03*
Y325016D02*
D03*
Y285646D02*
D03*
Y265961D02*
D03*
Y246276D02*
D03*
Y226591D02*
D03*
Y206906D02*
D03*
Y187221D02*
D03*
Y147851D02*
D03*
Y69111D02*
D03*
Y29741D02*
D03*
Y10056D02*
D03*
X119742Y325016D02*
D03*
Y305331D02*
D03*
Y285646D02*
D03*
Y265961D02*
D03*
Y246276D02*
D03*
Y226591D02*
D03*
Y206906D02*
D03*
Y187221D02*
D03*
Y167536D02*
D03*
Y147851D02*
D03*
Y128166D02*
D03*
Y108481D02*
D03*
Y88796D02*
D03*
Y29741D02*
D03*
Y10056D02*
D03*
X100057Y285646D02*
D03*
Y246276D02*
D03*
Y226591D02*
D03*
Y206906D02*
D03*
Y187221D02*
D03*
Y167536D02*
D03*
Y147851D02*
D03*
Y128166D02*
D03*
Y108481D02*
D03*
Y69111D02*
D03*
Y49426D02*
D03*
Y29741D02*
D03*
Y10056D02*
D03*
X80372Y285646D02*
D03*
Y246276D02*
D03*
Y226591D02*
D03*
Y206906D02*
D03*
Y187221D02*
D03*
Y167536D02*
D03*
Y147851D02*
D03*
Y128166D02*
D03*
Y108481D02*
D03*
Y69111D02*
D03*
Y49426D02*
D03*
Y29741D02*
D03*
Y10056D02*
D03*
X60687Y364387D02*
D03*
Y344702D02*
D03*
Y325016D02*
D03*
Y305331D02*
D03*
Y285646D02*
D03*
Y69111D02*
D03*
Y49426D02*
D03*
Y29741D02*
D03*
Y10056D02*
D03*
X41001Y364387D02*
D03*
Y344702D02*
D03*
Y325016D02*
D03*
Y305331D02*
D03*
Y285646D02*
D03*
Y69111D02*
D03*
Y49426D02*
D03*
Y29741D02*
D03*
Y10056D02*
D03*
X21317Y364387D02*
D03*
Y305331D02*
D03*
Y285646D02*
D03*
Y69111D02*
D03*
Y49426D02*
D03*
X166580Y111437D02*
D03*
X166453Y176665D02*
D03*
X106360Y328150D02*
D03*
X65114Y359871D02*
D03*
X132677Y364873D02*
D03*
X141732Y379125D02*
D03*
X93550Y384125D02*
D03*
X256320Y379344D02*
D03*
X208154Y384481D02*
D03*
X180815Y106882D02*
D03*
X223213Y94808D02*
D03*
X229360Y95181D02*
D03*
X272057Y47352D02*
D03*
X268411Y50846D02*
D03*
X180815Y171843D02*
D03*
X168022Y100544D02*
D03*
X168135Y165731D02*
D03*
X175787Y169964D02*
D03*
X154176Y113691D02*
D03*
Y178428D02*
D03*
X188295Y47530D02*
D03*
Y55056D02*
D03*
X163682Y59770D02*
D03*
X195686Y51436D02*
D03*
X241174Y61698D02*
D03*
X192430Y70107D02*
D03*
X190100Y145547D02*
D03*
X200098Y45499D02*
D03*
X171260Y46958D02*
D03*
X153300Y49213D02*
D03*
Y45276D02*
D03*
X175787Y105003D02*
D03*
D53*
X274637Y293307D02*
D03*
X78500Y291339D02*
D03*
X104392Y336130D02*
D03*
X112205Y336416D02*
D03*
X177165Y275000D02*
D03*
Y314961D02*
D03*
X228346Y347297D02*
D03*
X227717Y340453D02*
D03*
D54*
X156710Y344060D02*
D03*
Y348028D02*
D03*
X210205Y341106D02*
D03*
X163050Y193976D02*
D03*
X157480Y70866D02*
D03*
X171260Y54375D02*
D03*
X223909Y53256D02*
D03*
X223909Y48516D02*
D03*
X149606Y121793D02*
D03*
Y186980D02*
D03*
X200765Y50845D02*
D03*
X135433Y54859D02*
D03*
X127953D02*
D03*
X163397Y129921D02*
D03*
%TF.MD5,44a3ffbe0acc4555be1c0dfa869a9d83*%
M02*
