G04*
G04 #@! TF.GenerationSoftware,Altium Limited,Altium Designer,24.0.1 (36)*
G04*
G04 Layer_Physical_Order=4*
G04 Layer_Color=16711680*
%FSLAX26Y26*%
%MOIN*%
G70*
G04*
G04 #@! TF.SameCoordinates,F42C736F-CBB7-40B1-BF54-99FABD9F894E*
G04*
G04*
G04 #@! TF.FilePolarity,Positive*
G04*
G01*
G75*
%ADD10C,0.010000*%
%ADD14C,0.007874*%
%ADD111C,0.039370*%
%ADD112C,0.029528*%
%ADD113C,0.062992*%
%ADD114R,0.062992X0.062992*%
%ADD115R,0.062992X0.062992*%
%ADD116C,0.076772*%
%ADD117R,0.076772X0.076772*%
%ADD118C,0.244095*%
%ADD119C,0.019685*%
%ADD120C,0.050000*%
%ADD121C,0.031496*%
G36*
X3336261Y3478504D02*
X3336064D01*
X3315536Y3475253D01*
X3295768Y3468830D01*
X3277249Y3459394D01*
X3260434Y3447177D01*
X3245737Y3432480D01*
X3233520Y3415665D01*
X3224084Y3397145D01*
X3217661Y3377378D01*
X3214410Y3356849D01*
Y3351457D01*
X3346457D01*
Y3341457D01*
X3214410D01*
Y3336064D01*
X3217661Y3315536D01*
X3224084Y3295768D01*
X3233520Y3277249D01*
X3245737Y3260434D01*
X3260434Y3245737D01*
X3277249Y3233520D01*
X3295768Y3224084D01*
X3315536Y3217661D01*
X3336064Y3214410D01*
X3336261D01*
Y599585D01*
X3332721Y596053D01*
X2569291Y597751D01*
X2567906Y600825D01*
X2567466Y602755D01*
X2568316Y604029D01*
X2569419Y605681D01*
X2569421Y605688D01*
X2569424Y605693D01*
X2569809Y607640D01*
X2570195Y609583D01*
Y780631D01*
X2574951Y782176D01*
X2576445Y780119D01*
X2591142Y765422D01*
X2607958Y753205D01*
X2626477Y743769D01*
X2646244Y737346D01*
X2666773Y734095D01*
X2672165D01*
Y866142D01*
Y998189D01*
X2666773D01*
X2646244Y994937D01*
X2626477Y988515D01*
X2607958Y979079D01*
X2591142Y966862D01*
X2576445Y952165D01*
X2574951Y950107D01*
X2570195Y951653D01*
Y1101840D01*
X2569999Y1102825D01*
Y1103829D01*
X2569615Y1104756D01*
X2569419Y1105742D01*
X2568861Y1106577D01*
X2568477Y1107504D01*
X2567767Y1108214D01*
X2567209Y1109049D01*
X2566374Y1109607D01*
X2565664Y1110317D01*
X2564736Y1110702D01*
X2563901Y1111259D01*
X2563781Y1111283D01*
X2563594Y1111348D01*
X2562586Y1112125D01*
X2561562Y1113326D01*
X2560438Y1117246D01*
X2566368Y1139380D01*
X2566420Y1140173D01*
X2566676Y1140925D01*
X2570055Y1166591D01*
X2570003Y1167384D01*
X2570158Y1168164D01*
X2570158Y1181102D01*
X2570158Y1181104D01*
X2570462Y2361566D01*
X2570461Y2361572D01*
X2570462Y2361578D01*
X2570452Y2374532D01*
X2570296Y2375311D01*
X2570348Y2376104D01*
X2566947Y2401787D01*
X2566691Y2402540D01*
X2566638Y2403332D01*
X2559914Y2428352D01*
X2559562Y2429065D01*
X2559406Y2429843D01*
X2549474Y2453772D01*
X2549032Y2454432D01*
X2548776Y2455184D01*
X2535805Y2477611D01*
X2535281Y2478208D01*
X2534929Y2478920D01*
X2519141Y2499462D01*
X2518544Y2499985D01*
X2518102Y2500646D01*
X2499768Y2518951D01*
X2499107Y2519392D01*
X2498583Y2519989D01*
X2478017Y2535744D01*
X2477304Y2536095D01*
X2476706Y2536619D01*
X2454259Y2549555D01*
X2453506Y2549810D01*
X2452846Y2550251D01*
X2428902Y2560147D01*
X2428123Y2560301D01*
X2427410Y2560652D01*
X2402380Y2567338D01*
X2401587Y2567389D01*
X2400835Y2567644D01*
X2375146Y2571006D01*
X2374353Y2570953D01*
X2373574Y2571107D01*
X2360631Y2571097D01*
X2360630Y2571097D01*
X2360629Y2571097D01*
X2166929Y2571097D01*
X2153985Y2571097D01*
X2153206Y2570943D01*
X2152414Y2570994D01*
X2126747Y2567616D01*
X2125995Y2567360D01*
X2125202Y2567308D01*
X2100196Y2560608D01*
X2099483Y2560257D01*
X2098704Y2560102D01*
X2097192Y2559475D01*
X2092782Y2562957D01*
X2092225Y2563792D01*
X2091840Y2564720D01*
X2091130Y2565430D01*
X2090572Y2566265D01*
X2089737Y2566823D01*
X2089027Y2567533D01*
X2088100Y2567917D01*
X2087265Y2568475D01*
X2086279Y2568671D01*
X2085352Y2569055D01*
X2084348D01*
X2083363Y2569251D01*
X1533020D01*
X1529118Y2568475D01*
X1527995Y2567725D01*
X1524384Y2566678D01*
X1520772Y2567725D01*
X1519650Y2568475D01*
X1515748Y2569251D01*
X984252D01*
X980350Y2568475D01*
X977042Y2566265D01*
X974832Y2562957D01*
X974056Y2559055D01*
Y950353D01*
X969301Y948808D01*
X966862Y952165D01*
X952165Y966862D01*
X935350Y979079D01*
X916830Y988515D01*
X897063Y994937D01*
X876534Y998189D01*
X871142D01*
Y866142D01*
Y734095D01*
X876534D01*
X897063Y737346D01*
X916830Y743769D01*
X935350Y753205D01*
X952165Y765422D01*
X966862Y780119D01*
X969301Y783476D01*
X974056Y781931D01*
Y19685D01*
X974582Y17041D01*
X972456Y13253D01*
X971319Y12041D01*
X184737D01*
X160718Y15204D01*
X137317Y21474D01*
X114936Y30745D01*
X93956Y42857D01*
X74736Y57605D01*
X57606Y74735D01*
X42857Y93956D01*
X30745Y114936D01*
X21474Y137317D01*
X15204Y160718D01*
X12041Y184737D01*
Y196850D01*
Y3740157D01*
Y3752270D01*
X15204Y3776289D01*
X21474Y3799689D01*
X30745Y3822071D01*
X42857Y3843051D01*
X57605Y3862271D01*
X74735Y3879401D01*
X93956Y3894149D01*
X114936Y3906262D01*
X137317Y3915533D01*
X160718Y3921803D01*
X184737Y3924966D01*
X3336261D01*
Y3478504D01*
D02*
G37*
G36*
X2084338Y2554151D02*
X2074787Y2550195D01*
X2074127Y2549754D01*
X2073374Y2549498D01*
X2050955Y2536554D01*
X2050358Y2536031D01*
X2049645Y2535679D01*
X2029107Y2519920D01*
X2028583Y2519323D01*
X2027922Y2518881D01*
X2009617Y2500576D01*
X2009175Y2499915D01*
X2008578Y2499391D01*
X1992819Y2478853D01*
X1992467Y2478140D01*
X1991943Y2477543D01*
X1979000Y2455124D01*
X1978744Y2454371D01*
X1978303Y2453711D01*
X1968396Y2429793D01*
X1968241Y2429014D01*
X1967890Y2428302D01*
X1961190Y2403296D01*
X1961138Y2402503D01*
X1960882Y2401751D01*
X1957504Y2376084D01*
X1957556Y2375292D01*
X1957401Y2374512D01*
X1957401Y2361568D01*
Y1181108D01*
X1957401Y1168164D01*
X1957556Y1167384D01*
X1957504Y1166592D01*
X1960883Y1140925D01*
X1961138Y1140173D01*
X1961190Y1139380D01*
X1967890Y1114375D01*
X1968242Y1113662D01*
X1968397Y1112883D01*
X1978303Y1088966D01*
X1978745Y1088305D01*
X1979000Y1087553D01*
X1991944Y1065133D01*
X1992468Y1064536D01*
X1992819Y1063824D01*
X2008579Y1043286D01*
X2009176Y1042762D01*
X2009617Y1042101D01*
X2027923Y1023796D01*
X2028583Y1023355D01*
X2029107Y1022757D01*
X2049645Y1006998D01*
X2050358Y1006646D01*
X2050955Y1006123D01*
X2073374Y993179D01*
X2074127Y992923D01*
X2074787Y992482D01*
X2098704Y982575D01*
X2099483Y982420D01*
X2100196Y982069D01*
X2125202Y975369D01*
X2125994Y975317D01*
X2126747Y975061D01*
X2152413Y971682D01*
X2153206Y971734D01*
X2153985Y971579D01*
X2166929Y971579D01*
X2188223D01*
X2192831Y972496D01*
X2199303Y975177D01*
X2204298Y972995D01*
X2204293Y970475D01*
X2277130D01*
X2279201Y965475D01*
X2276778Y963052D01*
X2273757Y955759D01*
Y947865D01*
X2276778Y940572D01*
X2282360Y934990D01*
X2289653Y931969D01*
X2297546D01*
X2304840Y934990D01*
X2310421Y940572D01*
X2313442Y947865D01*
Y955759D01*
X2310421Y963052D01*
X2307998Y965475D01*
X2310069Y970475D01*
X2322465D01*
Y972714D01*
X2322521Y972752D01*
X2327465Y974901D01*
X2333271Y972496D01*
X2337880Y971579D01*
X2341614Y971579D01*
X2373574D01*
X2374353Y971734D01*
X2375146Y971682D01*
X2400812Y975061D01*
X2401564Y975317D01*
X2402357Y975369D01*
X2427363Y982069D01*
X2428075Y982420D01*
X2428854Y982575D01*
X2452771Y992482D01*
X2453432Y992923D01*
X2454184Y993179D01*
X2476604Y1006123D01*
X2477201Y1006646D01*
X2477913Y1006998D01*
X2498452Y1022757D01*
X2498975Y1023355D01*
X2499636Y1023796D01*
X2517941Y1042101D01*
X2518383Y1042762D01*
X2518980Y1043286D01*
X2534739Y1063824D01*
X2535091Y1064536D01*
X2535614Y1065134D01*
X2548558Y1087553D01*
X2548814Y1088305D01*
X2549255Y1088966D01*
X2554999Y1102834D01*
X2559999Y1101840D01*
Y927050D01*
X2554793Y916830D01*
X2548370Y897063D01*
X2545118Y876534D01*
Y855749D01*
X2548370Y835221D01*
X2554793Y815453D01*
X2559999Y805234D01*
Y609583D01*
X1653860Y608422D01*
X1653646Y608940D01*
X1648064Y614522D01*
X1640771Y617543D01*
X1632877D01*
X1625584Y614522D01*
X1620002Y608940D01*
X1619770Y608379D01*
X1536557Y608272D01*
X1533020Y611806D01*
Y2559055D01*
X2083363D01*
X2084338Y2554151D01*
D02*
G37*
G36*
X3776289Y3921803D02*
X3799689Y3915533D01*
X3822071Y3906262D01*
X3843051Y3894150D01*
X3862271Y3879402D01*
X3879401Y3862271D01*
X3894149Y3843051D01*
X3906262Y3822071D01*
X3915533Y3799689D01*
X3921803Y3776289D01*
X3924966Y3752270D01*
Y3740157D01*
Y196850D01*
Y184737D01*
X3921803Y160718D01*
X3915533Y137317D01*
X3906262Y114936D01*
X3894150Y93956D01*
X3879402Y74736D01*
X3862271Y57606D01*
X3843051Y42857D01*
X3822071Y30745D01*
X3799689Y21474D01*
X3776289Y15204D01*
X3752270Y12041D01*
X1533001D01*
Y432913D01*
X1536948D01*
X1544241Y435934D01*
X1549823Y441516D01*
X1552844Y448809D01*
Y456703D01*
X1549823Y463996D01*
X1544241Y469577D01*
X1543364Y469941D01*
Y474941D01*
X1544241Y475304D01*
X1549823Y480886D01*
X1552844Y488179D01*
Y496073D01*
X1549823Y503366D01*
X1544241Y508948D01*
X1536948Y511969D01*
X1533001D01*
Y586319D01*
X1536541Y589851D01*
X1618673Y589668D01*
X1620002Y586460D01*
X1625584Y580878D01*
X1632877Y577857D01*
X1640771D01*
X1648064Y580878D01*
X1653646Y586460D01*
X1654941Y589588D01*
X2012452Y588793D01*
X2075935Y588652D01*
X2196906Y467680D01*
X2205097Y462207D01*
X2214760Y460285D01*
X2232437D01*
X2235705Y459410D01*
X2242484D01*
X2249033Y461164D01*
X2254904Y464554D01*
X2259698Y469348D01*
X2263088Y475219D01*
X2264842Y481768D01*
Y488547D01*
X2263088Y495096D01*
X2259698Y500967D01*
X2254904Y505761D01*
X2253870Y506358D01*
Y511358D01*
X2254904Y511956D01*
X2259698Y516749D01*
X2263088Y522621D01*
X2264843Y529169D01*
Y535949D01*
X2263088Y542497D01*
X2259698Y548369D01*
X2254904Y553163D01*
X2249033Y556552D01*
X2242484Y558307D01*
X2235705D01*
X2229156Y556552D01*
X2223285Y553163D01*
X2218491Y548369D01*
X2215101Y542497D01*
X2213347Y535949D01*
Y529726D01*
X2211988Y528639D01*
X2208660Y527342D01*
X2152141Y583861D01*
X2154059Y588478D01*
X3346457Y585827D01*
Y3214410D01*
X3356849D01*
X3377378Y3217661D01*
X3397145Y3224084D01*
X3415665Y3233520D01*
X3432480Y3245737D01*
X3447177Y3260434D01*
X3459394Y3277249D01*
X3468830Y3295768D01*
X3475253Y3315536D01*
X3478504Y3336064D01*
Y3356849D01*
X3475253Y3377378D01*
X3468830Y3397145D01*
X3459394Y3415665D01*
X3447177Y3432480D01*
X3432480Y3447177D01*
X3415665Y3459394D01*
X3397145Y3468830D01*
X3377378Y3475253D01*
X3356849Y3478504D01*
X3346457D01*
Y3924966D01*
X3752270D01*
X3776289Y3921803D01*
D02*
G37*
G36*
X1515748Y502324D02*
X1513159Y496073D01*
Y488179D01*
X1515748Y481928D01*
Y462953D01*
X1513159Y456703D01*
Y448809D01*
X1515748Y442558D01*
Y19685D01*
X984252D01*
Y807087D01*
X988515Y815453D01*
X994937Y835221D01*
X998189Y855749D01*
Y876534D01*
X994937Y897063D01*
X988515Y916830D01*
X984252Y925196D01*
Y2559055D01*
X1515748D01*
Y502324D01*
D02*
G37*
%LPC*%
G36*
X2010252Y3769387D02*
X1929858D01*
X1927202Y3768858D01*
X1835743D01*
X1833087Y3769387D01*
X1814961D01*
X1811059Y3768610D01*
X1807751Y3766400D01*
X1805541Y3763093D01*
X1804765Y3759191D01*
Y3464660D01*
X1597039D01*
Y3480276D01*
X1596019Y3488025D01*
X1593028Y3495246D01*
X1588269Y3501447D01*
X1582068Y3506206D01*
X1574847Y3509197D01*
X1567098Y3510217D01*
X1559348Y3509197D01*
X1552127Y3506206D01*
X1545926Y3501447D01*
X1541168Y3495246D01*
X1538177Y3488025D01*
X1537157Y3480276D01*
Y3464660D01*
X1063605D01*
X1059703Y3463884D01*
X1056396Y3461674D01*
X1054185Y3458366D01*
X1053409Y3454464D01*
Y3390349D01*
X1053669Y3389041D01*
X1053757Y3387710D01*
X1054054Y3387107D01*
X1054185Y3386447D01*
X1054926Y3385338D01*
X1055516Y3384142D01*
X1056022Y3383699D01*
X1056396Y3383140D01*
X1057505Y3382398D01*
X1058507Y3381519D01*
X1059150Y3381148D01*
X1063768Y3376530D01*
X1067034Y3370874D01*
X1068724Y3364565D01*
Y3358034D01*
X1067034Y3351726D01*
X1063768Y3346070D01*
X1059150Y3341451D01*
X1058507Y3341080D01*
X1057505Y3340201D01*
X1056396Y3339460D01*
X1056022Y3338901D01*
X1055516Y3338457D01*
X1054926Y3337261D01*
X1054185Y3336152D01*
X1054054Y3335492D01*
X1053757Y3334889D01*
X1053669Y3333558D01*
X1053409Y3332250D01*
Y3301339D01*
X1053885Y3298947D01*
X1052365Y3298318D01*
X1049754Y3295706D01*
X974238D01*
X690067Y3579877D01*
X691980Y3584496D01*
X1276753D01*
X1282191Y3585578D01*
X1286801Y3588658D01*
X1327025Y3628883D01*
X1330718D01*
X1338012Y3631904D01*
X1343593Y3637485D01*
X1346614Y3644778D01*
Y3652672D01*
X1343593Y3659965D01*
X1338012Y3665547D01*
X1330718Y3668568D01*
X1322825D01*
X1315532Y3665547D01*
X1309950Y3659965D01*
X1306929Y3652672D01*
Y3648979D01*
X1270867Y3612916D01*
X664993D01*
X662381Y3615528D01*
X655088Y3618549D01*
X647194D01*
X639901Y3615528D01*
X634320Y3609946D01*
X631299Y3602653D01*
Y3594760D01*
X634320Y3587466D01*
X639901Y3581885D01*
X647194Y3578864D01*
X650888D01*
X958304Y3271448D01*
X962914Y3268368D01*
X968352Y3267286D01*
X1049754D01*
X1052365Y3264675D01*
X1053885Y3264045D01*
X1053409Y3261654D01*
Y3069380D01*
X1054185Y3065478D01*
X1056396Y3062170D01*
X1059703Y3059960D01*
X1063605Y3059184D01*
X2306102D01*
X2310004Y3059960D01*
X2313312Y3062170D01*
X2315522Y3065478D01*
X2316298Y3069380D01*
Y3436698D01*
X2315522Y3440600D01*
X2313312Y3443908D01*
X2310004Y3446118D01*
X2306102Y3446894D01*
X2119125D01*
X2118465Y3446763D01*
X2117794Y3446807D01*
X2116531Y3446378D01*
X2115223Y3446118D01*
X2114664Y3445745D01*
X2114027Y3445528D01*
X2113024Y3444649D01*
X2111915Y3443908D01*
X2111542Y3443349D01*
X2111036Y3442905D01*
X2110446Y3441709D01*
X2109705Y3440600D01*
X2109574Y3439941D01*
X2109276Y3439338D01*
X2107937Y3434338D01*
X2107893Y3433668D01*
X2107677Y3433033D01*
X2107740Y3432067D01*
X2107659Y3431658D01*
X2107736Y3431271D01*
X2107676Y3430368D01*
X2107892Y3429733D01*
X2107936Y3429063D01*
X2108337Y3428249D01*
X2108435Y3427757D01*
X2108695Y3427367D01*
X2108955Y3426601D01*
X2109398Y3426096D01*
X2109694Y3425494D01*
X2110304Y3424959D01*
X2110645Y3424449D01*
X2114490Y3420604D01*
X2116537Y3417058D01*
X2117597Y3413102D01*
Y3409008D01*
X2116537Y3405052D01*
X2114490Y3401506D01*
X2111594Y3398610D01*
X2108048Y3396563D01*
X2104092Y3395503D01*
X2099997D01*
X2096042Y3396563D01*
X2092495Y3398610D01*
X2089600Y3401506D01*
X2087553Y3405052D01*
X2086493Y3409008D01*
Y3413102D01*
X2087553Y3417058D01*
X2089600Y3420604D01*
X2093445Y3424449D01*
X2093786Y3424959D01*
X2094396Y3425494D01*
X2094692Y3426096D01*
X2095135Y3426601D01*
X2095395Y3427367D01*
X2095655Y3427757D01*
X2095753Y3428249D01*
X2096154Y3429063D01*
X2096198Y3429732D01*
X2096413Y3430368D01*
X2096354Y3431271D01*
X2096431Y3431658D01*
X2096350Y3432067D01*
X2096413Y3433033D01*
X2096197Y3433668D01*
X2096153Y3434338D01*
X2094813Y3439338D01*
X2094516Y3439941D01*
X2094385Y3440600D01*
X2093644Y3441709D01*
X2093054Y3442905D01*
X2092548Y3443349D01*
X2092174Y3443908D01*
X2091066Y3444649D01*
X2090063Y3445528D01*
X2089426Y3445745D01*
X2088867Y3446118D01*
X2087559Y3446378D01*
X2086295Y3446807D01*
X2085624Y3446763D01*
X2084965Y3446894D01*
X2020448D01*
Y3759191D01*
X2019672Y3763093D01*
X2017462Y3766400D01*
X2014154Y3768610D01*
X2010252Y3769387D01*
D02*
G37*
G36*
X3269843Y3833512D02*
X3186851D01*
Y3750520D01*
X3269843D01*
Y3833512D01*
D02*
G37*
G36*
X356457Y3832747D02*
X273465D01*
Y3749755D01*
X356457D01*
Y3832747D01*
D02*
G37*
G36*
X1690992Y3768858D02*
X1689622D01*
Y3725472D01*
X1733008D01*
Y3726843D01*
X1729710Y3739149D01*
X1723340Y3750182D01*
X1714332Y3759191D01*
X1703298Y3765561D01*
X1690992Y3768858D01*
D02*
G37*
G36*
X1679622D02*
X1678252D01*
X1665946Y3765561D01*
X1654912Y3759191D01*
X1645904Y3750182D01*
X1639534Y3739149D01*
X1636236Y3726843D01*
Y3725472D01*
X1679622D01*
Y3768858D01*
D02*
G37*
G36*
X2821331Y3755401D02*
X2819960D01*
Y3712015D01*
X2863346D01*
Y3713386D01*
X2860049Y3725692D01*
X2853679Y3736725D01*
X2844670Y3745734D01*
X2833637Y3752104D01*
X2821331Y3755401D01*
D02*
G37*
G36*
X2809960D02*
X2808590D01*
X2796284Y3752104D01*
X2785251Y3745734D01*
X2776242Y3736725D01*
X2769872Y3725692D01*
X2766575Y3713386D01*
Y3712015D01*
X2809960D01*
Y3755401D01*
D02*
G37*
G36*
X537866Y3754637D02*
X536496D01*
Y3711252D01*
X579882D01*
Y3712621D01*
X576585Y3724927D01*
X570214Y3735961D01*
X561206Y3744970D01*
X550172Y3751340D01*
X537866Y3754637D01*
D02*
G37*
G36*
X526496D02*
X525126D01*
X512820Y3751340D01*
X501786Y3744970D01*
X492778Y3735961D01*
X486408Y3724927D01*
X483110Y3712621D01*
Y3711252D01*
X526496D01*
Y3754637D01*
D02*
G37*
G36*
X1733008Y3715472D02*
X1689622D01*
Y3672087D01*
X1690992D01*
X1703298Y3675384D01*
X1714332Y3681754D01*
X1723340Y3690763D01*
X1729710Y3701796D01*
X1733008Y3714102D01*
Y3715472D01*
D02*
G37*
G36*
X1679622D02*
X1636236D01*
Y3714102D01*
X1639534Y3701796D01*
X1645904Y3690763D01*
X1654912Y3681754D01*
X1665946Y3675384D01*
X1678252Y3672087D01*
X1679622D01*
Y3715472D01*
D02*
G37*
G36*
X3060197Y3755401D02*
X2963425D01*
Y3658630D01*
X3060197D01*
Y3755401D01*
D02*
G37*
G36*
X2863346Y3702015D02*
X2819960D01*
Y3658630D01*
X2821331D01*
X2833637Y3661927D01*
X2844670Y3668297D01*
X2853679Y3677306D01*
X2860049Y3688339D01*
X2863346Y3700646D01*
Y3702015D01*
D02*
G37*
G36*
X2809960D02*
X2766575D01*
Y3700646D01*
X2769872Y3688339D01*
X2776242Y3677306D01*
X2785251Y3668297D01*
X2796284Y3661927D01*
X2808590Y3658630D01*
X2809960D01*
Y3702015D01*
D02*
G37*
G36*
X776732Y3754637D02*
X679961D01*
Y3657865D01*
X776732D01*
Y3754637D01*
D02*
G37*
G36*
X579882Y3701252D02*
X536496D01*
Y3657865D01*
X537866D01*
X550172Y3661163D01*
X561206Y3667533D01*
X570214Y3676542D01*
X576585Y3687575D01*
X579882Y3699881D01*
Y3701252D01*
D02*
G37*
G36*
X526496D02*
X483110D01*
Y3699881D01*
X486408Y3687575D01*
X492778Y3676542D01*
X501786Y3667533D01*
X512820Y3661163D01*
X525126Y3657865D01*
X526496D01*
Y3701252D01*
D02*
G37*
G36*
X3233810Y3733512D02*
X3222883D01*
X3212330Y3730684D01*
X3202867Y3725221D01*
X3195141Y3717495D01*
X3189678Y3708032D01*
X3186851Y3697479D01*
Y3686552D01*
X3189678Y3675999D01*
X3195141Y3666536D01*
X3202867Y3658811D01*
X3212330Y3653347D01*
X3222883Y3650520D01*
X3233810D01*
X3244363Y3653347D01*
X3253826Y3658811D01*
X3261552Y3666536D01*
X3267015Y3675999D01*
X3269843Y3686552D01*
Y3697479D01*
X3267015Y3708032D01*
X3261552Y3717495D01*
X3253826Y3725221D01*
X3244363Y3730684D01*
X3233810Y3733512D01*
D02*
G37*
G36*
X320424Y3732747D02*
X309498D01*
X298944Y3729919D01*
X289481Y3724456D01*
X281755Y3716731D01*
X276293Y3707268D01*
X273465Y3696714D01*
Y3685788D01*
X276293Y3675234D01*
X281755Y3665772D01*
X289481Y3658046D01*
X298944Y3652583D01*
X309498Y3649755D01*
X320424D01*
X330978Y3652583D01*
X340440Y3658046D01*
X348166Y3665772D01*
X353629Y3675234D01*
X356457Y3685788D01*
Y3696714D01*
X353629Y3707268D01*
X348166Y3716731D01*
X340440Y3724456D01*
X330978Y3729919D01*
X320424Y3732747D01*
D02*
G37*
G36*
X207243Y3478504D02*
X201850D01*
Y3351457D01*
X328898D01*
Y3356849D01*
X325646Y3377378D01*
X319223Y3397145D01*
X309787Y3415664D01*
X297570Y3432480D01*
X282873Y3447177D01*
X266058Y3459394D01*
X247539Y3468830D01*
X227772Y3475252D01*
X207243Y3478504D01*
D02*
G37*
G36*
X191850D02*
X186458D01*
X165929Y3475252D01*
X146162Y3468830D01*
X127643Y3459394D01*
X110827Y3447177D01*
X96130Y3432480D01*
X83913Y3415664D01*
X74478Y3397145D01*
X68055Y3377378D01*
X64803Y3356849D01*
Y3351457D01*
X191850D01*
Y3478504D01*
D02*
G37*
G36*
X328898Y3341457D02*
X201850D01*
Y3214410D01*
X207243D01*
X227772Y3217661D01*
X247539Y3224084D01*
X266058Y3233520D01*
X282873Y3245737D01*
X297570Y3260434D01*
X309787Y3277249D01*
X319223Y3295768D01*
X325646Y3315536D01*
X328898Y3336064D01*
Y3341457D01*
D02*
G37*
G36*
X191850D02*
X64803D01*
Y3336064D01*
X68055Y3315536D01*
X74478Y3295768D01*
X83913Y3277249D01*
X96130Y3260434D01*
X110827Y3245737D01*
X127643Y3233520D01*
X146162Y3224084D01*
X165929Y3217661D01*
X186458Y3214410D01*
X191850D01*
Y3341457D01*
D02*
G37*
G36*
X2687558Y2809213D02*
X2682165D01*
Y2682165D01*
X2809213D01*
Y2687558D01*
X2805961Y2708086D01*
X2799538Y2727854D01*
X2790102Y2746373D01*
X2777885Y2763188D01*
X2763188Y2777885D01*
X2746373Y2790102D01*
X2727854Y2799538D01*
X2708086Y2805961D01*
X2687558Y2809213D01*
D02*
G37*
G36*
X2672165D02*
X2666773D01*
X2646244Y2805961D01*
X2626477Y2799538D01*
X2607958Y2790102D01*
X2591142Y2777885D01*
X2576445Y2763188D01*
X2564229Y2746373D01*
X2554793Y2727854D01*
X2548370Y2708086D01*
X2545118Y2687558D01*
Y2682165D01*
X2672165D01*
Y2809213D01*
D02*
G37*
G36*
X876534D02*
X871142D01*
Y2682165D01*
X998189D01*
Y2687558D01*
X994937Y2708086D01*
X988515Y2727854D01*
X979079Y2746373D01*
X966862Y2763188D01*
X952165Y2777885D01*
X935350Y2790102D01*
X916830Y2799538D01*
X897063Y2805961D01*
X876534Y2809213D01*
D02*
G37*
G36*
X861142D02*
X855749D01*
X835221Y2805961D01*
X815453Y2799538D01*
X796934Y2790102D01*
X780119Y2777885D01*
X765422Y2763188D01*
X753205Y2746373D01*
X743769Y2727854D01*
X737346Y2708086D01*
X734095Y2687558D01*
Y2682165D01*
X861142D01*
Y2809213D01*
D02*
G37*
G36*
X2809213Y2672165D02*
X2682165D01*
Y2545118D01*
X2687558D01*
X2708086Y2548370D01*
X2727854Y2554793D01*
X2746373Y2564229D01*
X2763188Y2576445D01*
X2777885Y2591142D01*
X2790102Y2607958D01*
X2799538Y2626477D01*
X2805961Y2646244D01*
X2809213Y2666773D01*
Y2672165D01*
D02*
G37*
G36*
X2672165D02*
X2545118D01*
Y2666773D01*
X2548370Y2646244D01*
X2554793Y2626477D01*
X2564229Y2607958D01*
X2576445Y2591142D01*
X2591142Y2576445D01*
X2607958Y2564229D01*
X2626477Y2554793D01*
X2646244Y2548370D01*
X2666773Y2545118D01*
X2672165D01*
Y2672165D01*
D02*
G37*
G36*
X998189D02*
X871142D01*
Y2545118D01*
X876534D01*
X897063Y2548370D01*
X916830Y2554793D01*
X935350Y2564229D01*
X952165Y2576445D01*
X966862Y2591142D01*
X979079Y2607958D01*
X988515Y2626477D01*
X994937Y2646244D01*
X998189Y2666773D01*
Y2672165D01*
D02*
G37*
G36*
X861142D02*
X734095D01*
Y2666773D01*
X737346Y2646244D01*
X743769Y2626477D01*
X753205Y2607958D01*
X765422Y2591142D01*
X780119Y2576445D01*
X796934Y2564229D01*
X815453Y2554793D01*
X835221Y2548370D01*
X855749Y2545118D01*
X861142D01*
Y2672165D01*
D02*
G37*
G36*
X2687558Y998189D02*
X2682165D01*
Y871142D01*
X2809213D01*
Y876534D01*
X2805961Y897063D01*
X2799538Y916830D01*
X2790102Y935350D01*
X2777885Y952165D01*
X2763188Y966862D01*
X2746373Y979079D01*
X2727854Y988515D01*
X2708086Y994937D01*
X2687558Y998189D01*
D02*
G37*
G36*
X861142D02*
X855749D01*
X835221Y994937D01*
X815453Y988515D01*
X796934Y979079D01*
X780119Y966862D01*
X765422Y952165D01*
X753205Y935350D01*
X743769Y916830D01*
X737346Y897063D01*
X734095Y876534D01*
Y871142D01*
X861142D01*
Y998189D01*
D02*
G37*
G36*
X2809213Y861142D02*
X2682165D01*
Y734095D01*
X2687558D01*
X2708086Y737346D01*
X2727854Y743769D01*
X2746373Y753205D01*
X2763188Y765422D01*
X2777885Y780119D01*
X2790102Y796934D01*
X2799538Y815453D01*
X2805961Y835221D01*
X2809213Y855749D01*
Y861142D01*
D02*
G37*
G36*
X861142D02*
X734095D01*
Y855749D01*
X737346Y835221D01*
X743769Y815453D01*
X753205Y796934D01*
X765422Y780119D01*
X780119Y765422D01*
X796934Y753205D01*
X815453Y743769D01*
X835221Y737346D01*
X855749Y734095D01*
X861142D01*
Y861142D01*
D02*
G37*
G36*
X207243Y328898D02*
X201850D01*
Y201850D01*
X328898D01*
Y207243D01*
X325646Y227772D01*
X319223Y247539D01*
X309787Y266058D01*
X297570Y282873D01*
X282873Y297570D01*
X266058Y309787D01*
X247539Y319223D01*
X227772Y325646D01*
X207243Y328898D01*
D02*
G37*
G36*
X191850D02*
X186458D01*
X165929Y325646D01*
X146162Y319223D01*
X127643Y309787D01*
X110827Y297570D01*
X96130Y282873D01*
X83913Y266058D01*
X74478Y247539D01*
X68055Y227772D01*
X64803Y207243D01*
Y201850D01*
X191850D01*
Y328898D01*
D02*
G37*
G36*
X328898Y191850D02*
X201850D01*
Y64803D01*
X207243D01*
X227772Y68055D01*
X247539Y74478D01*
X266058Y83913D01*
X282873Y96130D01*
X297570Y110827D01*
X309787Y127643D01*
X319223Y146162D01*
X325646Y165929D01*
X328898Y186458D01*
Y191850D01*
D02*
G37*
G36*
X191850D02*
X64803D01*
Y186458D01*
X68055Y165929D01*
X74478Y146162D01*
X83913Y127643D01*
X96130Y110827D01*
X110827Y96130D01*
X127643Y83913D01*
X146162Y74478D01*
X165929Y68055D01*
X186458Y64803D01*
X191850D01*
Y191850D01*
D02*
G37*
%LPD*%
G36*
X2010252Y3436698D02*
X2084965D01*
X2086305Y3431698D01*
X2086235Y3431658D01*
X2081441Y3426865D01*
X2078052Y3420993D01*
X2076297Y3414445D01*
Y3407665D01*
X2078052Y3401117D01*
X2081441Y3395245D01*
X2086235Y3390451D01*
X2092106Y3387062D01*
X2098655Y3385307D01*
X2105435D01*
X2111983Y3387062D01*
X2117854Y3390451D01*
X2122648Y3395245D01*
X2126038Y3401117D01*
X2127793Y3407665D01*
Y3414445D01*
X2126038Y3420993D01*
X2122648Y3426865D01*
X2117854Y3431658D01*
X2117785Y3431698D01*
X2119125Y3436698D01*
X2306102D01*
Y3069380D01*
X1063605D01*
Y3261654D01*
X1067552D01*
X1074845Y3264675D01*
X1080427Y3270256D01*
X1083448Y3277549D01*
Y3285443D01*
X1080427Y3292736D01*
X1074845Y3298318D01*
X1067552Y3301339D01*
X1063605D01*
Y3332250D01*
X1065411Y3333293D01*
X1071927Y3339809D01*
X1076535Y3347790D01*
X1078920Y3356692D01*
Y3365907D01*
X1076535Y3374809D01*
X1071927Y3382790D01*
X1065411Y3389307D01*
X1063605Y3390349D01*
Y3454464D01*
X1814961D01*
Y3759191D01*
X1833087D01*
Y3725472D01*
X1881472D01*
X1929858D01*
Y3759191D01*
X2010252D01*
Y3436698D01*
D02*
G37*
%LPC*%
G36*
X1929858Y3715472D02*
X1886472D01*
Y3672087D01*
X1929858D01*
Y3715472D01*
D02*
G37*
G36*
X1876472D02*
X1833087D01*
Y3672087D01*
X1876472D01*
Y3715472D01*
D02*
G37*
G36*
X1633892Y1965512D02*
X1627112D01*
X1620563Y1963757D01*
X1614692Y1960367D01*
X1609898Y1955573D01*
X1606509Y1949702D01*
X1604754Y1943153D01*
Y1936374D01*
X1606509Y1929825D01*
X1609898Y1923954D01*
X1614692Y1919160D01*
X1620563Y1915770D01*
X1627112Y1914016D01*
X1633892D01*
X1640440Y1915770D01*
X1646312Y1919160D01*
X1651105Y1923954D01*
X1654495Y1929825D01*
X1656250Y1936374D01*
Y1943153D01*
X1654495Y1949702D01*
X1651105Y1955573D01*
X1646312Y1960367D01*
X1640440Y1963757D01*
X1633892Y1965512D01*
D02*
G37*
G36*
X1761821Y1719478D02*
X1753927D01*
X1746634Y1716457D01*
X1741052Y1710876D01*
X1738032Y1703583D01*
Y1695689D01*
X1741052Y1688396D01*
X1746634Y1682814D01*
X1753927Y1679793D01*
X1761821D01*
X1769114Y1682814D01*
X1774696Y1688396D01*
X1777716Y1695689D01*
Y1703583D01*
X1774696Y1710876D01*
X1769114Y1716457D01*
X1761821Y1719478D01*
D02*
G37*
G36*
X1685300Y1677155D02*
X1677406D01*
X1670113Y1674134D01*
X1664532Y1668553D01*
X1661511Y1661260D01*
Y1653366D01*
X1664532Y1646073D01*
X1670113Y1640491D01*
X1677406Y1637470D01*
X1685300D01*
X1692593Y1640491D01*
X1698175Y1646073D01*
X1701196Y1653366D01*
Y1661260D01*
X1698175Y1668553D01*
X1692593Y1674134D01*
X1685300Y1677155D01*
D02*
G37*
G36*
X1637356Y1324961D02*
X1630577D01*
X1624028Y1323206D01*
X1618157Y1319816D01*
X1613363Y1315022D01*
X1609973Y1309151D01*
X1608218Y1302602D01*
Y1295823D01*
X1609973Y1289274D01*
X1613363Y1283403D01*
X1618157Y1278609D01*
X1624028Y1275219D01*
X1630577Y1273465D01*
X1637356D01*
X1643905Y1275219D01*
X1649776Y1278609D01*
X1654570Y1283403D01*
X1657960Y1289274D01*
X1659714Y1295823D01*
Y1302602D01*
X1657960Y1309151D01*
X1654570Y1315022D01*
X1649776Y1319816D01*
X1643905Y1323206D01*
X1637356Y1324961D01*
D02*
G37*
G36*
X1761821Y1069872D02*
X1753927D01*
X1746634Y1066851D01*
X1741053Y1061269D01*
X1738032Y1053976D01*
Y1046082D01*
X1741053Y1038790D01*
X1746634Y1033208D01*
X1753927Y1030187D01*
X1761821D01*
X1769114Y1033208D01*
X1774696Y1038790D01*
X1777717Y1046082D01*
Y1053976D01*
X1774696Y1061269D01*
X1769114Y1066851D01*
X1761821Y1069872D01*
D02*
G37*
G36*
X1684165Y1025278D02*
X1676271D01*
X1668978Y1022257D01*
X1663396Y1016676D01*
X1660376Y1009383D01*
Y1001489D01*
X1663396Y994196D01*
X1668978Y988614D01*
X1676271Y985593D01*
X1684165D01*
X1691458Y988614D01*
X1697040Y994196D01*
X1700061Y1001489D01*
Y1009383D01*
X1697040Y1016676D01*
X1691458Y1022257D01*
X1684165Y1025278D01*
D02*
G37*
G36*
X3795178Y3822124D02*
X3794715D01*
Y3785628D01*
X3831211D01*
Y3786091D01*
X3828383Y3796645D01*
X3822920Y3806107D01*
X3815194Y3813833D01*
X3805732Y3819296D01*
X3795178Y3822124D01*
D02*
G37*
G36*
X3784715D02*
X3784252D01*
X3773698Y3819296D01*
X3764236Y3813833D01*
X3756510Y3806107D01*
X3751047Y3796645D01*
X3748219Y3786091D01*
Y3785628D01*
X3784715D01*
Y3822124D01*
D02*
G37*
G36*
X3831211Y3775628D02*
X3794715D01*
Y3739132D01*
X3795178D01*
X3805732Y3741960D01*
X3815194Y3747423D01*
X3822920Y3755148D01*
X3828383Y3764611D01*
X3831211Y3775165D01*
Y3775628D01*
D02*
G37*
G36*
X3784715D02*
X3748219D01*
Y3775165D01*
X3751047Y3764611D01*
X3756510Y3755148D01*
X3764236Y3747423D01*
X3773698Y3741960D01*
X3784252Y3739132D01*
X3784715D01*
Y3775628D01*
D02*
G37*
G36*
X3695178Y3822124D02*
X3684252D01*
X3673698Y3819296D01*
X3664236Y3813833D01*
X3656510Y3806107D01*
X3651047Y3796645D01*
X3648219Y3786091D01*
Y3775165D01*
X3651047Y3764611D01*
X3656510Y3755148D01*
X3664236Y3747423D01*
X3673698Y3741960D01*
X3684252Y3739132D01*
X3695178D01*
X3705732Y3741960D01*
X3715194Y3747423D01*
X3722920Y3755148D01*
X3728383Y3764611D01*
X3731211Y3775165D01*
Y3786091D01*
X3728383Y3796645D01*
X3722920Y3806107D01*
X3715194Y3813833D01*
X3705732Y3819296D01*
X3695178Y3822124D01*
D02*
G37*
G36*
X3595178D02*
X3584252D01*
X3573698Y3819296D01*
X3564236Y3813833D01*
X3556510Y3806107D01*
X3551047Y3796645D01*
X3548219Y3786091D01*
Y3775165D01*
X3551047Y3764611D01*
X3556510Y3755148D01*
X3564236Y3747423D01*
X3573698Y3741960D01*
X3584252Y3739132D01*
X3595178D01*
X3605732Y3741960D01*
X3615194Y3747423D01*
X3622920Y3755148D01*
X3628383Y3764611D01*
X3631211Y3775165D01*
Y3786091D01*
X3628383Y3796645D01*
X3622920Y3806107D01*
X3615194Y3813833D01*
X3605732Y3819296D01*
X3595178Y3822124D01*
D02*
G37*
G36*
X3495178D02*
X3484252D01*
X3473698Y3819296D01*
X3464236Y3813833D01*
X3456510Y3806107D01*
X3451047Y3796645D01*
X3448219Y3786091D01*
Y3775165D01*
X3451047Y3764611D01*
X3456510Y3755148D01*
X3464236Y3747423D01*
X3473698Y3741960D01*
X3484252Y3739132D01*
X3495178D01*
X3505732Y3741960D01*
X3515194Y3747423D01*
X3522920Y3755148D01*
X3528383Y3764611D01*
X3531211Y3775165D01*
Y3786091D01*
X3528383Y3796645D01*
X3522920Y3806107D01*
X3515194Y3813833D01*
X3505732Y3819296D01*
X3495178Y3822124D01*
D02*
G37*
G36*
X3795178Y3722124D02*
X3784252D01*
X3773698Y3719296D01*
X3764236Y3713833D01*
X3756510Y3706107D01*
X3751047Y3696645D01*
X3748219Y3686091D01*
Y3675165D01*
X3751047Y3664611D01*
X3756510Y3655148D01*
X3764236Y3647423D01*
X3773698Y3641960D01*
X3784252Y3639132D01*
X3795178D01*
X3805732Y3641960D01*
X3815194Y3647423D01*
X3822920Y3655148D01*
X3828383Y3664611D01*
X3831211Y3675165D01*
Y3686091D01*
X3828383Y3696645D01*
X3822920Y3706107D01*
X3815194Y3713833D01*
X3805732Y3719296D01*
X3795178Y3722124D01*
D02*
G37*
G36*
X3695178D02*
X3684252D01*
X3673698Y3719296D01*
X3664236Y3713833D01*
X3656510Y3706107D01*
X3651047Y3696645D01*
X3648219Y3686091D01*
Y3675165D01*
X3651047Y3664611D01*
X3656510Y3655148D01*
X3664236Y3647423D01*
X3673698Y3641960D01*
X3684252Y3639132D01*
X3695178D01*
X3705732Y3641960D01*
X3715194Y3647423D01*
X3722920Y3655148D01*
X3728383Y3664611D01*
X3731211Y3675165D01*
Y3686091D01*
X3728383Y3696645D01*
X3722920Y3706107D01*
X3715194Y3713833D01*
X3705732Y3719296D01*
X3695178Y3722124D01*
D02*
G37*
G36*
X3595178D02*
X3584252D01*
X3573698Y3719296D01*
X3564236Y3713833D01*
X3556510Y3706107D01*
X3551047Y3696645D01*
X3548219Y3686091D01*
Y3675165D01*
X3551047Y3664611D01*
X3556510Y3655148D01*
X3564236Y3647423D01*
X3573698Y3641960D01*
X3584252Y3639132D01*
X3595178D01*
X3605732Y3641960D01*
X3615194Y3647423D01*
X3622920Y3655148D01*
X3628383Y3664611D01*
X3631211Y3675165D01*
Y3686091D01*
X3628383Y3696645D01*
X3622920Y3706107D01*
X3615194Y3713833D01*
X3605732Y3719296D01*
X3595178Y3722124D01*
D02*
G37*
G36*
X3531211D02*
X3448219D01*
Y3639132D01*
X3531211D01*
Y3722124D01*
D02*
G37*
G36*
X3806152Y3443977D02*
X3798258D01*
X3790965Y3440956D01*
X3785383Y3435374D01*
X3782363Y3428081D01*
Y3420187D01*
X3785383Y3412894D01*
X3790965Y3407312D01*
X3798258Y3404291D01*
X3806152D01*
X3813445Y3407312D01*
X3819027Y3412894D01*
X3822048Y3420187D01*
Y3428081D01*
X3819027Y3435374D01*
X3813445Y3440956D01*
X3806152Y3443977D01*
D02*
G37*
G36*
X3805128Y3274685D02*
X3797235D01*
X3789941Y3271664D01*
X3784360Y3266082D01*
X3781339Y3258789D01*
Y3250896D01*
X3784360Y3243603D01*
X3789941Y3238021D01*
X3797235Y3235000D01*
X3805128D01*
X3812421Y3238021D01*
X3818003Y3243603D01*
X3821024Y3250896D01*
Y3258789D01*
X3818003Y3266082D01*
X3812421Y3271664D01*
X3805128Y3274685D01*
D02*
G37*
G36*
X3707825Y1009212D02*
X3696899D01*
X3686345Y1006385D01*
X3676883Y1000922D01*
X3669157Y993196D01*
X3663694Y983733D01*
X3660866Y973180D01*
Y962253D01*
X3663694Y951700D01*
X3669157Y942237D01*
X3676883Y934511D01*
X3686345Y929048D01*
X3696899Y926221D01*
X3707825D01*
X3718379Y929048D01*
X3727841Y934511D01*
X3735567Y942237D01*
X3741030Y951700D01*
X3743858Y962253D01*
Y973180D01*
X3741030Y983733D01*
X3735567Y993196D01*
X3727841Y1000922D01*
X3718379Y1006385D01*
X3707825Y1009212D01*
D02*
G37*
G36*
X3607825D02*
X3596899D01*
X3586345Y1006385D01*
X3576883Y1000922D01*
X3569157Y993196D01*
X3563694Y983733D01*
X3560866Y973180D01*
Y962253D01*
X3563694Y951700D01*
X3569157Y942237D01*
X3576883Y934511D01*
X3586345Y929048D01*
X3596899Y926221D01*
X3607825D01*
X3618379Y929048D01*
X3627841Y934511D01*
X3635567Y942237D01*
X3641030Y951700D01*
X3643858Y962253D01*
Y973180D01*
X3641030Y983733D01*
X3635567Y993196D01*
X3627841Y1000922D01*
X3618379Y1006385D01*
X3607825Y1009212D01*
D02*
G37*
G36*
X3707825Y909212D02*
X3696899D01*
X3686345Y906385D01*
X3676883Y900922D01*
X3669157Y893196D01*
X3663694Y883733D01*
X3660866Y873180D01*
Y862253D01*
X3663694Y851700D01*
X3669157Y842237D01*
X3676883Y834511D01*
X3686345Y829048D01*
X3696899Y826221D01*
X3707825D01*
X3718379Y829048D01*
X3727841Y834511D01*
X3735567Y842237D01*
X3741030Y851700D01*
X3743858Y862253D01*
Y873180D01*
X3741030Y883733D01*
X3735567Y893196D01*
X3727841Y900922D01*
X3718379Y906385D01*
X3707825Y909212D01*
D02*
G37*
G36*
X3607825D02*
X3596899D01*
X3586345Y906385D01*
X3576883Y900922D01*
X3569157Y893196D01*
X3563694Y883733D01*
X3560866Y873180D01*
Y862253D01*
X3563694Y851700D01*
X3569157Y842237D01*
X3576883Y834511D01*
X3586345Y829048D01*
X3596899Y826221D01*
X3607825D01*
X3618379Y829048D01*
X3627841Y834511D01*
X3635567Y842237D01*
X3641030Y851700D01*
X3643858Y862253D01*
Y873180D01*
X3641030Y883733D01*
X3635567Y893196D01*
X3627841Y900922D01*
X3618379Y906385D01*
X3607825Y909212D01*
D02*
G37*
G36*
X3707825Y809212D02*
X3696899D01*
X3686345Y806385D01*
X3676883Y800922D01*
X3669157Y793196D01*
X3663694Y783733D01*
X3660866Y773180D01*
Y762253D01*
X3663694Y751700D01*
X3669157Y742237D01*
X3676883Y734511D01*
X3686345Y729048D01*
X3696899Y726221D01*
X3707825D01*
X3718379Y729048D01*
X3727841Y734511D01*
X3735567Y742237D01*
X3741030Y751700D01*
X3743858Y762253D01*
Y773180D01*
X3741030Y783733D01*
X3735567Y793196D01*
X3727841Y800922D01*
X3718379Y806385D01*
X3707825Y809212D01*
D02*
G37*
G36*
X3607825D02*
X3596899D01*
X3586345Y806385D01*
X3576883Y800922D01*
X3569157Y793196D01*
X3563694Y783733D01*
X3560866Y773180D01*
Y762253D01*
X3563694Y751700D01*
X3569157Y742237D01*
X3576883Y734511D01*
X3586345Y729048D01*
X3596899Y726221D01*
X3607825D01*
X3618379Y729048D01*
X3627841Y734511D01*
X3635567Y742237D01*
X3641030Y751700D01*
X3643858Y762253D01*
Y773180D01*
X3641030Y783733D01*
X3635567Y793196D01*
X3627841Y800922D01*
X3618379Y806385D01*
X3607825Y809212D01*
D02*
G37*
G36*
X3707825Y709212D02*
X3696899D01*
X3686345Y706385D01*
X3676883Y700922D01*
X3669157Y693196D01*
X3663694Y683733D01*
X3660866Y673180D01*
Y662253D01*
X3663694Y651700D01*
X3669157Y642237D01*
X3676883Y634511D01*
X3686345Y629048D01*
X3696899Y626221D01*
X3707825D01*
X3718379Y629048D01*
X3727841Y634511D01*
X3735567Y642237D01*
X3741030Y651700D01*
X3743858Y662253D01*
Y673180D01*
X3741030Y683733D01*
X3735567Y693196D01*
X3727841Y700922D01*
X3718379Y706385D01*
X3707825Y709212D01*
D02*
G37*
G36*
X3607825D02*
X3596899D01*
X3586345Y706385D01*
X3576883Y700922D01*
X3569157Y693196D01*
X3563694Y683733D01*
X3560866Y673180D01*
Y662253D01*
X3563694Y651700D01*
X3569157Y642237D01*
X3576883Y634511D01*
X3586345Y629048D01*
X3596899Y626221D01*
X3607825D01*
X3618379Y629048D01*
X3627841Y634511D01*
X3635567Y642237D01*
X3641030Y651700D01*
X3643858Y662253D01*
Y673180D01*
X3641030Y683733D01*
X3635567Y693196D01*
X3627841Y700922D01*
X3618379Y706385D01*
X3607825Y709212D01*
D02*
G37*
G36*
X3707825Y609212D02*
X3696899D01*
X3686345Y606385D01*
X3676883Y600922D01*
X3669157Y593196D01*
X3663694Y583733D01*
X3660866Y573180D01*
Y562253D01*
X3663694Y551700D01*
X3669157Y542237D01*
X3676883Y534511D01*
X3686345Y529048D01*
X3696899Y526221D01*
X3707825D01*
X3718379Y529048D01*
X3727841Y534511D01*
X3735567Y542237D01*
X3741030Y551700D01*
X3743858Y562253D01*
Y573180D01*
X3741030Y583733D01*
X3735567Y593196D01*
X3727841Y600922D01*
X3718379Y606385D01*
X3707825Y609212D01*
D02*
G37*
G36*
X3607825D02*
X3596899D01*
X3586345Y606385D01*
X3576883Y600922D01*
X3569157Y593196D01*
X3563694Y583733D01*
X3560866Y573180D01*
Y562253D01*
X3563694Y551700D01*
X3569157Y542237D01*
X3576883Y534511D01*
X3586345Y529048D01*
X3596899Y526221D01*
X3607825D01*
X3618379Y529048D01*
X3627841Y534511D01*
X3635567Y542237D01*
X3641030Y551700D01*
X3643858Y562253D01*
Y573180D01*
X3641030Y583733D01*
X3635567Y593196D01*
X3627841Y600922D01*
X3618379Y606385D01*
X3607825Y609212D01*
D02*
G37*
G36*
X1960807Y534201D02*
X1952913D01*
X1945620Y531180D01*
X1940038Y525599D01*
X1937017Y518306D01*
Y510412D01*
X1940038Y503119D01*
X1941566Y501591D01*
Y499112D01*
X1942730Y493259D01*
X1946046Y488297D01*
X1981141Y453202D01*
Y451042D01*
X1984162Y443749D01*
X1989743Y438167D01*
X1997036Y435146D01*
X2004930D01*
X2012223Y438167D01*
X2017805Y443749D01*
X2020826Y451042D01*
Y458935D01*
X2017805Y466228D01*
X2012223Y471810D01*
X2004930Y474831D01*
X2002770D01*
X1998539Y479062D01*
X2001127Y483545D01*
X2004261Y482705D01*
X2011040D01*
X2017589Y484460D01*
X2023460Y487850D01*
X2028254Y492643D01*
X2031644Y498515D01*
X2033399Y505063D01*
Y511843D01*
X2031644Y518391D01*
X2028254Y524263D01*
X2023460Y529057D01*
X2017589Y532446D01*
X2011040Y534201D01*
X2004261D01*
X1997712Y532446D01*
X1991841Y529057D01*
X1987047Y524263D01*
X1983657Y518391D01*
X1981902Y511843D01*
Y505063D01*
X1982742Y501929D01*
X1978259Y499341D01*
X1973916Y503685D01*
X1976703Y510412D01*
Y518306D01*
X1973682Y525599D01*
X1968100Y531180D01*
X1960807Y534201D01*
D02*
G37*
G36*
X3743858Y509212D02*
X3707362D01*
Y472716D01*
X3743858D01*
Y509212D01*
D02*
G37*
G36*
X3697362D02*
X3660866D01*
Y472716D01*
X3697362D01*
Y509212D01*
D02*
G37*
G36*
X1886900Y570401D02*
X1879006D01*
X1871713Y567380D01*
X1866131Y561798D01*
X1863110Y554505D01*
Y546611D01*
X1866131Y539318D01*
X1868743Y536707D01*
Y489156D01*
X1866131Y486544D01*
X1863110Y479251D01*
Y471358D01*
X1866131Y464065D01*
X1871713Y458483D01*
X1879006Y455462D01*
X1886900D01*
X1894193Y458483D01*
X1899774Y464065D01*
X1902795Y471358D01*
Y479251D01*
X1899774Y486544D01*
X1897163Y489156D01*
Y536707D01*
X1899774Y539318D01*
X1902795Y546611D01*
Y554505D01*
X1899774Y561798D01*
X1894193Y567380D01*
X1886900Y570401D01*
D02*
G37*
G36*
X2688058Y528299D02*
X2680165D01*
X2672872Y525278D01*
X2667290Y519697D01*
X2664269Y512404D01*
Y504510D01*
X2667290Y497217D01*
X2672872Y491635D01*
X2680165Y488614D01*
X2684622D01*
X2700729Y472507D01*
Y469577D01*
X2703750Y462284D01*
X2709332Y456703D01*
X2716625Y453682D01*
X2724518D01*
X2731811Y456703D01*
X2737393Y462284D01*
X2740414Y469577D01*
Y477471D01*
X2737393Y484764D01*
X2731811Y490346D01*
X2724518Y493367D01*
X2720061D01*
X2703954Y509474D01*
Y512404D01*
X2700933Y519697D01*
X2695351Y525278D01*
X2688058Y528299D01*
D02*
G37*
G36*
X1716545Y489420D02*
X1708651D01*
X1701359Y486399D01*
X1695777Y480817D01*
X1692756Y473524D01*
Y465631D01*
X1695777Y458338D01*
X1701359Y452756D01*
X1708651Y449735D01*
X1716545D01*
X1723838Y452756D01*
X1729420Y458338D01*
X1732441Y465631D01*
Y473524D01*
X1729420Y480817D01*
X1723838Y486399D01*
X1716545Y489420D01*
D02*
G37*
G36*
X3743858Y462716D02*
X3707362D01*
Y426221D01*
X3743858D01*
Y462716D01*
D02*
G37*
G36*
X3697362D02*
X3660866D01*
Y426221D01*
X3697362D01*
Y462716D01*
D02*
G37*
G36*
X3607825Y509212D02*
X3596899D01*
X3586345Y506385D01*
X3576883Y500922D01*
X3569157Y493196D01*
X3563694Y483733D01*
X3560866Y473180D01*
Y462253D01*
X3563694Y451700D01*
X3569157Y442237D01*
X3576883Y434511D01*
X3586345Y429048D01*
X3596899Y426221D01*
X3607825D01*
X3618379Y429048D01*
X3627841Y434511D01*
X3635567Y442237D01*
X3641030Y451700D01*
X3643858Y462253D01*
Y473180D01*
X3641030Y483733D01*
X3635567Y493196D01*
X3627841Y500922D01*
X3618379Y506385D01*
X3607825Y509212D01*
D02*
G37*
G36*
X3356849Y324346D02*
X3336064D01*
X3315536Y321095D01*
X3295768Y314672D01*
X3277249Y305236D01*
X3260434Y293019D01*
X3245737Y278322D01*
X3233520Y261507D01*
X3224084Y242988D01*
X3217661Y223220D01*
X3214410Y202691D01*
Y181907D01*
X3217661Y161378D01*
X3224084Y141611D01*
X3233520Y123091D01*
X3245737Y106276D01*
X3260434Y91579D01*
X3277249Y79362D01*
X3295768Y69926D01*
X3315536Y63504D01*
X3336064Y60252D01*
X3356849D01*
X3377378Y63504D01*
X3397145Y69926D01*
X3415664Y79362D01*
X3432480Y91579D01*
X3447177Y106276D01*
X3459394Y123091D01*
X3468830Y141611D01*
X3475252Y161378D01*
X3478504Y181907D01*
Y202691D01*
X3475252Y223220D01*
X3468830Y242988D01*
X3459394Y261507D01*
X3447177Y278322D01*
X3432480Y293019D01*
X3415664Y305236D01*
X3397145Y314672D01*
X3377378Y321095D01*
X3356849Y324346D01*
D02*
G37*
%LPD*%
D10*
X1956860Y499112D02*
Y514359D01*
Y499112D02*
X2000983Y454988D01*
D14*
X651141Y3598706D02*
X968352Y3281496D01*
X1063605D01*
X1276753Y3598706D02*
X1326772Y3648725D01*
X651141Y3598706D02*
X1276753D01*
X2684875Y508457D02*
X2719807Y473524D01*
X2720572D01*
X2684111Y508457D02*
X2684875D01*
X1882953Y475304D02*
Y550558D01*
D111*
X1771653Y3149606D02*
X1881473Y3259425D01*
Y3720472D01*
X1567098Y3440600D02*
Y3480276D01*
D112*
X1574803Y708661D02*
X1991633D01*
X2238718Y485534D02*
X2239094Y485158D01*
X1991633Y708661D02*
X2214760Y485534D01*
X2238718D01*
D113*
X3602362Y467716D02*
D03*
Y567716D02*
D03*
Y667716D02*
D03*
Y767716D02*
D03*
Y867716D02*
D03*
Y967716D02*
D03*
X3702362D02*
D03*
Y867716D02*
D03*
Y767716D02*
D03*
Y667716D02*
D03*
Y567716D02*
D03*
X3489715Y3780628D02*
D03*
X3589715D02*
D03*
X3689715D02*
D03*
X3789715D02*
D03*
Y3680628D02*
D03*
X3689715D02*
D03*
X3589715D02*
D03*
X3228347Y3692016D02*
D03*
X314961Y3691251D02*
D03*
D114*
X3702362Y467716D02*
D03*
X3228347Y3792016D02*
D03*
X314961Y3791251D02*
D03*
D115*
X3489715Y3680628D02*
D03*
D116*
X2814961Y3707016D02*
D03*
X1684622Y3720472D02*
D03*
X531496Y3706251D02*
D03*
D117*
X3011811Y3707016D02*
D03*
X1881473Y3720472D02*
D03*
X728346Y3706251D02*
D03*
D118*
X3346457Y3346457D02*
D03*
X196850Y3346457D02*
D03*
X3346457Y192299D02*
D03*
X196850Y196850D02*
D03*
X2677165Y2677165D02*
D03*
X866142D02*
D03*
X2677165Y866142D02*
D03*
X866142D02*
D03*
D119*
X1665796Y1114375D02*
D03*
X1664532Y1766654D02*
D03*
X3802205Y3424134D02*
D03*
X3801181Y3254843D02*
D03*
X3718504Y3428071D02*
D03*
X3717481Y3258780D02*
D03*
X1063605Y3281496D02*
D03*
X651141Y3598706D02*
D03*
X1326772Y3648725D02*
D03*
X1417323Y3791251D02*
D03*
X935502Y3841251D02*
D03*
X2563201Y3793440D02*
D03*
X2081535Y3844811D02*
D03*
X1808150Y1068819D02*
D03*
X2232126Y948081D02*
D03*
X2293600Y951812D02*
D03*
X2720572Y473524D02*
D03*
X2684111Y508457D02*
D03*
X1808150Y1718425D02*
D03*
X1680218Y1005436D02*
D03*
X1681353Y1657313D02*
D03*
X1757874Y1699636D02*
D03*
X1541762Y1136907D02*
D03*
Y1784281D02*
D03*
X1882953Y475304D02*
D03*
Y550558D02*
D03*
X1636824Y597700D02*
D03*
X1956860Y514359D02*
D03*
X2411743Y616979D02*
D03*
X1924301Y701066D02*
D03*
X1901003Y1455473D02*
D03*
X2000983Y454988D02*
D03*
X1712598Y469577D02*
D03*
X1533001Y492126D02*
D03*
Y452756D02*
D03*
X1757874Y1050029D02*
D03*
D120*
X2746373Y2933071D02*
D03*
X785000Y2913386D02*
D03*
X1043920Y3361300D02*
D03*
X1122047Y3364157D02*
D03*
X1771653Y2750000D02*
D03*
Y3149606D02*
D03*
X2283465Y3472972D02*
D03*
X2277172Y3404528D02*
D03*
D121*
X1567098Y3440600D02*
D03*
Y3480276D02*
D03*
X2102045Y3411055D02*
D03*
X1630502Y1939764D02*
D03*
X1574803Y708661D02*
D03*
X1712598Y543747D02*
D03*
X2239095Y532559D02*
D03*
X2239094Y485158D02*
D03*
X1496063Y1217926D02*
D03*
Y1869803D02*
D03*
X2007650Y508453D02*
D03*
X1354331Y548590D02*
D03*
X1279528D02*
D03*
X1633966Y1299213D02*
D03*
M02*
