G04*
G04 #@! TF.GenerationSoftware,Altium Limited,Altium Designer,24.0.1 (36)*
G04*
G04 Layer_Physical_Order=2*
G04 Layer_Color=36540*
%FSLAX26Y26*%
%MOIN*%
G70*
G04*
G04 #@! TF.SameCoordinates,F42C736F-CBB7-40B1-BF54-99FABD9F894E*
G04*
G04*
G04 #@! TF.FilePolarity,Positive*
G04*
G01*
G75*
%ADD113C,0.062992*%
%ADD116C,0.076772*%
%ADD118C,0.244095*%
%ADD119C,0.019685*%
%ADD120C,0.050000*%
%ADD121C,0.031496*%
G36*
X3776289Y3921803D02*
X3799689Y3915533D01*
X3822071Y3906262D01*
X3843051Y3894150D01*
X3862271Y3879402D01*
X3879401Y3862271D01*
X3894149Y3843051D01*
X3906262Y3822071D01*
X3915533Y3799689D01*
X3921803Y3776289D01*
X3924966Y3752270D01*
Y3740157D01*
Y196850D01*
Y184737D01*
X3921803Y160718D01*
X3915533Y137317D01*
X3906262Y114936D01*
X3894150Y93956D01*
X3879402Y74736D01*
X3862271Y57606D01*
X3843051Y42857D01*
X3822071Y30745D01*
X3799689Y21474D01*
X3776289Y15204D01*
X3752270Y12041D01*
X184737D01*
X160718Y15204D01*
X137317Y21474D01*
X114936Y30745D01*
X93956Y42857D01*
X74736Y57605D01*
X57606Y74735D01*
X42857Y93956D01*
X30745Y114936D01*
X21474Y137317D01*
X15204Y160718D01*
X12041Y184737D01*
Y196850D01*
Y3740157D01*
Y3752270D01*
X15204Y3776289D01*
X21474Y3799689D01*
X30745Y3822071D01*
X42857Y3843051D01*
X57605Y3862271D01*
X74735Y3879401D01*
X93956Y3894149D01*
X114936Y3906262D01*
X137317Y3915533D01*
X160718Y3921803D01*
X184737Y3924966D01*
X3752270D01*
X3776289Y3921803D01*
D02*
G37*
%LPC*%
G36*
X3269843Y3833512D02*
X3186851D01*
Y3750520D01*
X3269843D01*
Y3833512D01*
D02*
G37*
G36*
X356457Y3832747D02*
X273465D01*
Y3749755D01*
X356457D01*
Y3832747D01*
D02*
G37*
G36*
X3795178Y3822124D02*
X3784252D01*
X3773698Y3819296D01*
X3764236Y3813833D01*
X3756510Y3806107D01*
X3751047Y3796645D01*
X3748219Y3786091D01*
Y3775165D01*
X3751047Y3764611D01*
X3756510Y3755148D01*
X3764236Y3747423D01*
X3773698Y3741960D01*
X3784252Y3739132D01*
X3795178D01*
X3805732Y3741960D01*
X3815194Y3747423D01*
X3822920Y3755148D01*
X3828383Y3764611D01*
X3831211Y3775165D01*
Y3786091D01*
X3828383Y3796645D01*
X3822920Y3806107D01*
X3815194Y3813833D01*
X3805732Y3819296D01*
X3795178Y3822124D01*
D02*
G37*
G36*
X3695178D02*
X3684252D01*
X3673698Y3819296D01*
X3664236Y3813833D01*
X3656510Y3806107D01*
X3651047Y3796645D01*
X3648219Y3786091D01*
Y3775165D01*
X3651047Y3764611D01*
X3656510Y3755148D01*
X3664236Y3747423D01*
X3673698Y3741960D01*
X3684252Y3739132D01*
X3695178D01*
X3705732Y3741960D01*
X3715194Y3747423D01*
X3722920Y3755148D01*
X3728383Y3764611D01*
X3731211Y3775165D01*
Y3786091D01*
X3728383Y3796645D01*
X3722920Y3806107D01*
X3715194Y3813833D01*
X3705732Y3819296D01*
X3695178Y3822124D01*
D02*
G37*
G36*
X3595178D02*
X3584252D01*
X3573698Y3819296D01*
X3564236Y3813833D01*
X3556510Y3806107D01*
X3551047Y3796645D01*
X3548219Y3786091D01*
Y3775165D01*
X3551047Y3764611D01*
X3556510Y3755148D01*
X3564236Y3747423D01*
X3573698Y3741960D01*
X3584252Y3739132D01*
X3595178D01*
X3605732Y3741960D01*
X3615194Y3747423D01*
X3622920Y3755148D01*
X3628383Y3764611D01*
X3631211Y3775165D01*
Y3786091D01*
X3628383Y3796645D01*
X3622920Y3806107D01*
X3615194Y3813833D01*
X3605732Y3819296D01*
X3595178Y3822124D01*
D02*
G37*
G36*
X3495178D02*
X3484252D01*
X3473698Y3819296D01*
X3464236Y3813833D01*
X3456510Y3806107D01*
X3451047Y3796645D01*
X3448219Y3786091D01*
Y3775165D01*
X3451047Y3764611D01*
X3456510Y3755148D01*
X3464236Y3747423D01*
X3473698Y3741960D01*
X3484252Y3739132D01*
X3495178D01*
X3505732Y3741960D01*
X3515194Y3747423D01*
X3522920Y3755148D01*
X3528383Y3764611D01*
X3531211Y3775165D01*
Y3786091D01*
X3528383Y3796645D01*
X3522920Y3806107D01*
X3515194Y3813833D01*
X3505732Y3819296D01*
X3495178Y3822124D01*
D02*
G37*
G36*
X1690992Y3768858D02*
X1689622D01*
Y3725472D01*
X1733008D01*
Y3726843D01*
X1729710Y3739149D01*
X1723340Y3750182D01*
X1714332Y3759191D01*
X1703298Y3765561D01*
X1690992Y3768858D01*
D02*
G37*
G36*
X1679622D02*
X1678252D01*
X1665946Y3765561D01*
X1654912Y3759191D01*
X1645904Y3750182D01*
X1639534Y3739149D01*
X1636236Y3726843D01*
Y3725472D01*
X1679622D01*
Y3768858D01*
D02*
G37*
G36*
X2821331Y3755401D02*
X2819960D01*
Y3712015D01*
X2863346D01*
Y3713386D01*
X2860049Y3725692D01*
X2853679Y3736725D01*
X2844670Y3745734D01*
X2833637Y3752104D01*
X2821331Y3755401D01*
D02*
G37*
G36*
X2809960D02*
X2808590D01*
X2796284Y3752104D01*
X2785251Y3745734D01*
X2776242Y3736725D01*
X2769872Y3725692D01*
X2766575Y3713386D01*
Y3712015D01*
X2809960D01*
Y3755401D01*
D02*
G37*
G36*
X537866Y3754637D02*
X536496D01*
Y3711252D01*
X579882D01*
Y3712621D01*
X576585Y3724927D01*
X570214Y3735961D01*
X561206Y3744970D01*
X550172Y3751340D01*
X537866Y3754637D01*
D02*
G37*
G36*
X526496D02*
X525126D01*
X512820Y3751340D01*
X501786Y3744970D01*
X492778Y3735961D01*
X486408Y3724927D01*
X483110Y3712621D01*
Y3711252D01*
X526496D01*
Y3754637D01*
D02*
G37*
G36*
X3795178Y3722124D02*
X3794715D01*
Y3685628D01*
X3831211D01*
Y3686091D01*
X3828383Y3696645D01*
X3822920Y3706107D01*
X3815194Y3713833D01*
X3805732Y3719296D01*
X3795178Y3722124D01*
D02*
G37*
G36*
X3784715D02*
X3784252D01*
X3773698Y3719296D01*
X3764236Y3713833D01*
X3756510Y3706107D01*
X3751047Y3696645D01*
X3748219Y3686091D01*
Y3685628D01*
X3784715D01*
Y3722124D01*
D02*
G37*
G36*
X1929858Y3768858D02*
X1833087D01*
Y3672087D01*
X1929858D01*
Y3768858D01*
D02*
G37*
G36*
X1733008Y3715472D02*
X1689622D01*
Y3672087D01*
X1690992D01*
X1703298Y3675384D01*
X1714332Y3681754D01*
X1723340Y3690763D01*
X1729710Y3701796D01*
X1733008Y3714102D01*
Y3715472D01*
D02*
G37*
G36*
X1679622D02*
X1636236D01*
Y3714102D01*
X1639534Y3701796D01*
X1645904Y3690763D01*
X1654912Y3681754D01*
X1665946Y3675384D01*
X1678252Y3672087D01*
X1679622D01*
Y3715472D01*
D02*
G37*
G36*
X3060197Y3755401D02*
X2963425D01*
Y3658630D01*
X3060197D01*
Y3755401D01*
D02*
G37*
G36*
X2863346Y3702015D02*
X2819960D01*
Y3658630D01*
X2821331D01*
X2833637Y3661927D01*
X2844670Y3668297D01*
X2853679Y3677306D01*
X2860049Y3688339D01*
X2863346Y3700646D01*
Y3702015D01*
D02*
G37*
G36*
X2809960D02*
X2766575D01*
Y3700646D01*
X2769872Y3688339D01*
X2776242Y3677306D01*
X2785251Y3668297D01*
X2796284Y3661927D01*
X2808590Y3658630D01*
X2809960D01*
Y3702015D01*
D02*
G37*
G36*
X776732Y3754637D02*
X679961D01*
Y3657865D01*
X776732D01*
Y3754637D01*
D02*
G37*
G36*
X579882Y3701252D02*
X536496D01*
Y3657865D01*
X537866D01*
X550172Y3661163D01*
X561206Y3667533D01*
X570214Y3676542D01*
X576585Y3687575D01*
X579882Y3699881D01*
Y3701252D01*
D02*
G37*
G36*
X526496D02*
X483110D01*
Y3699881D01*
X486408Y3687575D01*
X492778Y3676542D01*
X501786Y3667533D01*
X512820Y3661163D01*
X525126Y3657865D01*
X526496D01*
Y3701252D01*
D02*
G37*
G36*
X3233810Y3733512D02*
X3222883D01*
X3212330Y3730684D01*
X3202867Y3725221D01*
X3195141Y3717495D01*
X3189678Y3708032D01*
X3186851Y3697479D01*
Y3686552D01*
X3189678Y3675999D01*
X3195141Y3666536D01*
X3202867Y3658811D01*
X3212330Y3653347D01*
X3222883Y3650520D01*
X3233810D01*
X3244363Y3653347D01*
X3253826Y3658811D01*
X3261552Y3666536D01*
X3267015Y3675999D01*
X3269843Y3686552D01*
Y3697479D01*
X3267015Y3708032D01*
X3261552Y3717495D01*
X3253826Y3725221D01*
X3244363Y3730684D01*
X3233810Y3733512D01*
D02*
G37*
G36*
X320424Y3732747D02*
X309498D01*
X298944Y3729919D01*
X289481Y3724456D01*
X281755Y3716731D01*
X276293Y3707268D01*
X273465Y3696714D01*
Y3685788D01*
X276293Y3675234D01*
X281755Y3665772D01*
X289481Y3658046D01*
X298944Y3652583D01*
X309498Y3649755D01*
X320424D01*
X330978Y3652583D01*
X340440Y3658046D01*
X348166Y3665772D01*
X353629Y3675234D01*
X356457Y3685788D01*
Y3696714D01*
X353629Y3707268D01*
X348166Y3716731D01*
X340440Y3724456D01*
X330978Y3729919D01*
X320424Y3732747D01*
D02*
G37*
G36*
X3831211Y3675628D02*
X3794715D01*
Y3639132D01*
X3795178D01*
X3805732Y3641960D01*
X3815194Y3647423D01*
X3822920Y3655148D01*
X3828383Y3664611D01*
X3831211Y3675165D01*
Y3675628D01*
D02*
G37*
G36*
X3784715D02*
X3748219D01*
Y3675165D01*
X3751047Y3664611D01*
X3756510Y3655148D01*
X3764236Y3647423D01*
X3773698Y3641960D01*
X3784252Y3639132D01*
X3784715D01*
Y3675628D01*
D02*
G37*
G36*
X3695178Y3722124D02*
X3684252D01*
X3673698Y3719296D01*
X3664236Y3713833D01*
X3656510Y3706107D01*
X3651047Y3696645D01*
X3648219Y3686091D01*
Y3675165D01*
X3651047Y3664611D01*
X3656510Y3655148D01*
X3664236Y3647423D01*
X3673698Y3641960D01*
X3684252Y3639132D01*
X3695178D01*
X3705732Y3641960D01*
X3715194Y3647423D01*
X3722920Y3655148D01*
X3728383Y3664611D01*
X3731211Y3675165D01*
Y3686091D01*
X3728383Y3696645D01*
X3722920Y3706107D01*
X3715194Y3713833D01*
X3705732Y3719296D01*
X3695178Y3722124D01*
D02*
G37*
G36*
X3595178D02*
X3584252D01*
X3573698Y3719296D01*
X3564236Y3713833D01*
X3556510Y3706107D01*
X3551047Y3696645D01*
X3548219Y3686091D01*
Y3675165D01*
X3551047Y3664611D01*
X3556510Y3655148D01*
X3564236Y3647423D01*
X3573698Y3641960D01*
X3584252Y3639132D01*
X3595178D01*
X3605732Y3641960D01*
X3615194Y3647423D01*
X3622920Y3655148D01*
X3628383Y3664611D01*
X3631211Y3675165D01*
Y3686091D01*
X3628383Y3696645D01*
X3622920Y3706107D01*
X3615194Y3713833D01*
X3605732Y3719296D01*
X3595178Y3722124D01*
D02*
G37*
G36*
X3531211D02*
X3448219D01*
Y3639132D01*
X3531211D01*
Y3722124D01*
D02*
G37*
G36*
X1330718Y3668568D02*
X1322825D01*
X1315532Y3665547D01*
X1309950Y3659965D01*
X1306929Y3652672D01*
Y3644778D01*
X1309950Y3637485D01*
X1315532Y3631904D01*
X1322825Y3628883D01*
X1330718D01*
X1338012Y3631904D01*
X1343593Y3637485D01*
X1346614Y3644778D01*
Y3652672D01*
X1343593Y3659965D01*
X1338012Y3665547D01*
X1330718Y3668568D01*
D02*
G37*
G36*
X655088Y3618549D02*
X647194D01*
X639901Y3615528D01*
X634320Y3609946D01*
X631299Y3602653D01*
Y3594760D01*
X634320Y3587466D01*
X639901Y3581885D01*
X647194Y3578864D01*
X655088D01*
X662381Y3581885D01*
X667963Y3587466D01*
X670984Y3594760D01*
Y3602653D01*
X667963Y3609946D01*
X662381Y3615528D01*
X655088Y3618549D01*
D02*
G37*
G36*
X1570488Y3506024D02*
X1563708D01*
X1557159Y3504269D01*
X1551288Y3500879D01*
X1546494Y3496085D01*
X1543104Y3490214D01*
X1541350Y3483666D01*
Y3476886D01*
X1543104Y3470337D01*
X1546494Y3464466D01*
X1550522Y3460438D01*
X1546494Y3456410D01*
X1543104Y3450539D01*
X1541350Y3443990D01*
Y3437211D01*
X1543104Y3430662D01*
X1546494Y3424791D01*
X1551288Y3419997D01*
X1557159Y3416607D01*
X1563708Y3414852D01*
X1570488D01*
X1577036Y3416607D01*
X1582908Y3419997D01*
X1587701Y3424791D01*
X1591091Y3430662D01*
X1592846Y3437211D01*
Y3443990D01*
X1591091Y3450539D01*
X1587701Y3456410D01*
X1583673Y3460438D01*
X1587701Y3464466D01*
X1591091Y3470337D01*
X1592846Y3476886D01*
Y3483666D01*
X1591091Y3490214D01*
X1587701Y3496085D01*
X1582908Y3500879D01*
X1577036Y3504269D01*
X1570488Y3506024D01*
D02*
G37*
G36*
X3722451Y3447914D02*
X3714557D01*
X3707264Y3444893D01*
X3701682Y3439311D01*
X3698662Y3432018D01*
Y3424124D01*
X3701682Y3416831D01*
X3707264Y3411249D01*
X3714557Y3408229D01*
X3722451D01*
X3729744Y3411249D01*
X3735326Y3416831D01*
X3738347Y3424124D01*
Y3432018D01*
X3735326Y3439311D01*
X3729744Y3444893D01*
X3722451Y3447914D01*
D02*
G37*
G36*
X2281780Y3439528D02*
X2272564D01*
X2263663Y3437142D01*
X2255682Y3432535D01*
X2249165Y3426018D01*
X2244557Y3418037D01*
X2242172Y3409135D01*
Y3399920D01*
X2244557Y3391018D01*
X2249165Y3383037D01*
X2255682Y3376521D01*
X2263663Y3371913D01*
X2272564Y3369528D01*
X2281780D01*
X2290682Y3371913D01*
X2298663Y3376521D01*
X2305179Y3383037D01*
X2309787Y3391018D01*
X2312172Y3399920D01*
Y3409135D01*
X2309787Y3418037D01*
X2305179Y3426018D01*
X2298663Y3432535D01*
X2290682Y3437142D01*
X2281780Y3439528D01*
D02*
G37*
G36*
X3356849Y3478504D02*
X3351457D01*
Y3351457D01*
X3478504D01*
Y3356849D01*
X3475253Y3377378D01*
X3468830Y3397145D01*
X3459394Y3415665D01*
X3447177Y3432480D01*
X3432480Y3447177D01*
X3415665Y3459394D01*
X3397145Y3468830D01*
X3377378Y3475253D01*
X3356849Y3478504D01*
D02*
G37*
G36*
X3341457D02*
X3336064D01*
X3315536Y3475253D01*
X3295768Y3468830D01*
X3277249Y3459394D01*
X3260434Y3447177D01*
X3245737Y3432480D01*
X3233520Y3415665D01*
X3224084Y3397145D01*
X3217661Y3377378D01*
X3214410Y3356849D01*
Y3351457D01*
X3341457D01*
Y3478504D01*
D02*
G37*
G36*
X207243Y3478504D02*
X201850D01*
Y3351457D01*
X328898D01*
Y3356849D01*
X325646Y3377378D01*
X319223Y3397145D01*
X309787Y3415664D01*
X297570Y3432480D01*
X282873Y3447177D01*
X266058Y3459394D01*
X247539Y3468830D01*
X227772Y3475252D01*
X207243Y3478504D01*
D02*
G37*
G36*
X191850D02*
X186458D01*
X165929Y3475252D01*
X146162Y3468830D01*
X127643Y3459394D01*
X110827Y3447177D01*
X96130Y3432480D01*
X83913Y3415664D01*
X74478Y3397145D01*
X68055Y3377378D01*
X64803Y3356849D01*
Y3351457D01*
X191850D01*
Y3478504D01*
D02*
G37*
G36*
X1126655Y3399157D02*
X1117439D01*
X1108538Y3396772D01*
X1100557Y3392164D01*
X1094040Y3385648D01*
X1089432Y3377667D01*
X1087047Y3368765D01*
Y3359550D01*
X1089432Y3350648D01*
X1094040Y3342667D01*
X1100557Y3336150D01*
X1108538Y3331543D01*
X1117439Y3329157D01*
X1126655D01*
X1135557Y3331543D01*
X1143538Y3336150D01*
X1150054Y3342667D01*
X1154662Y3350648D01*
X1157047Y3359550D01*
Y3368765D01*
X1154662Y3377667D01*
X1150054Y3385648D01*
X1143538Y3392164D01*
X1135557Y3396772D01*
X1126655Y3399157D01*
D02*
G37*
G36*
X1067552Y3301339D02*
X1059658D01*
X1052365Y3298318D01*
X1046784Y3292736D01*
X1043763Y3285443D01*
Y3277549D01*
X1046784Y3270256D01*
X1052365Y3264675D01*
X1059658Y3261654D01*
X1067552D01*
X1074845Y3264675D01*
X1080427Y3270256D01*
X1083448Y3277549D01*
Y3285443D01*
X1080427Y3292736D01*
X1074845Y3298318D01*
X1067552Y3301339D01*
D02*
G37*
G36*
X3721427Y3278622D02*
X3713534D01*
X3706241Y3275601D01*
X3700659Y3270019D01*
X3697638Y3262727D01*
Y3254833D01*
X3700659Y3247540D01*
X3706241Y3241958D01*
X3713534Y3238937D01*
X3721427D01*
X3728720Y3241958D01*
X3734302Y3247540D01*
X3737323Y3254833D01*
Y3262727D01*
X3734302Y3270019D01*
X3728720Y3275601D01*
X3721427Y3278622D01*
D02*
G37*
G36*
X3478504Y3341457D02*
X3351457D01*
Y3214410D01*
X3356849D01*
X3377378Y3217661D01*
X3397145Y3224084D01*
X3415665Y3233520D01*
X3432480Y3245737D01*
X3447177Y3260434D01*
X3459394Y3277249D01*
X3468830Y3295768D01*
X3475253Y3315536D01*
X3478504Y3336064D01*
Y3341457D01*
D02*
G37*
G36*
X3341457D02*
X3214410D01*
Y3336064D01*
X3217661Y3315536D01*
X3224084Y3295768D01*
X3233520Y3277249D01*
X3245737Y3260434D01*
X3260434Y3245737D01*
X3277249Y3233520D01*
X3295768Y3224084D01*
X3315536Y3217661D01*
X3336064Y3214410D01*
X3341457D01*
Y3341457D01*
D02*
G37*
G36*
X328898Y3341457D02*
X201850D01*
Y3214410D01*
X207243D01*
X227772Y3217661D01*
X247539Y3224084D01*
X266058Y3233520D01*
X282873Y3245737D01*
X297570Y3260434D01*
X309787Y3277249D01*
X319223Y3295768D01*
X325646Y3315536D01*
X328898Y3336064D01*
Y3341457D01*
D02*
G37*
G36*
X191850D02*
X64803D01*
Y3336064D01*
X68055Y3315536D01*
X74478Y3295768D01*
X83913Y3277249D01*
X96130Y3260434D01*
X110827Y3245737D01*
X127643Y3233520D01*
X146162Y3224084D01*
X165929Y3217661D01*
X186458Y3214410D01*
X191850D01*
Y3341457D01*
D02*
G37*
G36*
X1776261Y3184606D02*
X1767046D01*
X1758144Y3182221D01*
X1750163Y3177613D01*
X1743647Y3171097D01*
X1739039Y3163116D01*
X1736653Y3154214D01*
Y3144999D01*
X1739039Y3136097D01*
X1743647Y3128116D01*
X1750163Y3121599D01*
X1758144Y3116992D01*
X1767046Y3114606D01*
X1776261D01*
X1785163Y3116992D01*
X1793144Y3121599D01*
X1799660Y3128116D01*
X1804268Y3136097D01*
X1806653Y3144999D01*
Y3154214D01*
X1804268Y3163116D01*
X1799660Y3171097D01*
X1793144Y3177613D01*
X1785163Y3182221D01*
X1776261Y3184606D01*
D02*
G37*
G36*
X2687558Y2809213D02*
X2682165D01*
Y2682165D01*
X2809213D01*
Y2687558D01*
X2805961Y2708086D01*
X2799538Y2727854D01*
X2790102Y2746373D01*
X2777885Y2763188D01*
X2763188Y2777885D01*
X2746373Y2790102D01*
X2727854Y2799538D01*
X2708086Y2805961D01*
X2687558Y2809213D01*
D02*
G37*
G36*
X2672165D02*
X2666773D01*
X2646244Y2805961D01*
X2626477Y2799538D01*
X2607958Y2790102D01*
X2591142Y2777885D01*
X2576445Y2763188D01*
X2564229Y2746373D01*
X2554793Y2727854D01*
X2548370Y2708086D01*
X2545118Y2687558D01*
Y2682165D01*
X2672165D01*
Y2809213D01*
D02*
G37*
G36*
X876534D02*
X871142D01*
Y2682165D01*
X998189D01*
Y2687558D01*
X994937Y2708086D01*
X988515Y2727854D01*
X979079Y2746373D01*
X966862Y2763188D01*
X952165Y2777885D01*
X935350Y2790102D01*
X916830Y2799538D01*
X897063Y2805961D01*
X876534Y2809213D01*
D02*
G37*
G36*
X861142D02*
X855749D01*
X835221Y2805961D01*
X815453Y2799538D01*
X796934Y2790102D01*
X780119Y2777885D01*
X765422Y2763188D01*
X753205Y2746373D01*
X743769Y2727854D01*
X737346Y2708086D01*
X734095Y2687558D01*
Y2682165D01*
X861142D01*
Y2809213D01*
D02*
G37*
G36*
X2373574Y2571107D02*
X2360631Y2571097D01*
X2360630Y2571097D01*
X2360629Y2571097D01*
X2166929Y2571097D01*
X2153985Y2571097D01*
X2153206Y2570943D01*
X2152414Y2570994D01*
X2126747Y2567616D01*
X2125995Y2567360D01*
X2125202Y2567308D01*
X2100196Y2560608D01*
X2099483Y2560257D01*
X2098704Y2560102D01*
X2074787Y2550195D01*
X2074127Y2549754D01*
X2073374Y2549498D01*
X2050955Y2536554D01*
X2050358Y2536031D01*
X2049645Y2535679D01*
X2029107Y2519920D01*
X2028583Y2519323D01*
X2027922Y2518881D01*
X2009617Y2500576D01*
X2009175Y2499915D01*
X2008578Y2499391D01*
X1992819Y2478853D01*
X1992467Y2478140D01*
X1991943Y2477543D01*
X1979000Y2455124D01*
X1978744Y2454371D01*
X1978303Y2453711D01*
X1968396Y2429793D01*
X1968241Y2429014D01*
X1967890Y2428302D01*
X1961190Y2403296D01*
X1961138Y2402503D01*
X1960882Y2401751D01*
X1957504Y2376084D01*
X1957556Y2375292D01*
X1957401Y2374512D01*
X1957401Y2361568D01*
Y1181108D01*
X1957401Y1168164D01*
X1957556Y1167384D01*
X1957504Y1166592D01*
X1960883Y1140925D01*
X1961138Y1140173D01*
X1961190Y1139380D01*
X1967890Y1114375D01*
X1968242Y1113662D01*
X1968397Y1112883D01*
X1978303Y1088966D01*
X1978745Y1088305D01*
X1979000Y1087553D01*
X1991944Y1065133D01*
X1992468Y1064536D01*
X1992819Y1063824D01*
X2008579Y1043286D01*
X2009176Y1042762D01*
X2009617Y1042101D01*
X2027923Y1023796D01*
X2028583Y1023355D01*
X2029107Y1022757D01*
X2049645Y1006998D01*
X2050358Y1006646D01*
X2050955Y1006123D01*
X2073374Y993179D01*
X2074127Y992923D01*
X2074787Y992482D01*
X2098704Y982575D01*
X2099483Y982420D01*
X2100196Y982069D01*
X2125202Y975369D01*
X2125994Y975317D01*
X2126747Y975061D01*
X2152413Y971682D01*
X2153206Y971734D01*
X2153985Y971579D01*
X2166929Y971579D01*
X2188223D01*
X2192831Y972496D01*
X2199303Y975177D01*
X2204298Y972995D01*
X2204293Y970475D01*
X2221275D01*
X2222270Y965475D01*
X2220886Y964902D01*
X2215304Y959320D01*
X2212284Y952027D01*
Y944134D01*
X2215304Y936841D01*
X2220886Y931259D01*
X2228179Y928238D01*
X2236073D01*
X2243366Y931259D01*
X2248948Y936841D01*
X2251968Y944134D01*
Y952027D01*
X2248948Y959320D01*
X2243366Y964902D01*
X2241982Y965475D01*
X2242977Y970475D01*
X2322465D01*
Y972714D01*
X2322521Y972752D01*
X2327465Y974901D01*
X2333271Y972496D01*
X2337880Y971579D01*
X2341614Y971579D01*
X2373574D01*
X2374353Y971734D01*
X2375146Y971682D01*
X2400812Y975061D01*
X2401564Y975317D01*
X2402357Y975369D01*
X2427363Y982069D01*
X2428075Y982420D01*
X2428854Y982575D01*
X2452771Y992482D01*
X2453432Y992923D01*
X2454184Y993179D01*
X2476604Y1006123D01*
X2477201Y1006646D01*
X2477913Y1006998D01*
X2498452Y1022757D01*
X2498975Y1023355D01*
X2499636Y1023796D01*
X2517941Y1042101D01*
X2518383Y1042762D01*
X2518980Y1043286D01*
X2534739Y1063824D01*
X2535091Y1064536D01*
X2535614Y1065134D01*
X2548558Y1087553D01*
X2548814Y1088305D01*
X2549255Y1088966D01*
X2559162Y1112883D01*
X2559317Y1113662D01*
X2559668Y1114375D01*
X2566368Y1139380D01*
X2566420Y1140173D01*
X2566676Y1140925D01*
X2570055Y1166591D01*
X2570003Y1167384D01*
X2570158Y1168164D01*
X2570158Y1181102D01*
X2570158Y1181104D01*
X2570462Y2361566D01*
X2570461Y2361572D01*
X2570462Y2361578D01*
X2570452Y2374532D01*
X2570296Y2375311D01*
X2570348Y2376104D01*
X2566947Y2401787D01*
X2566691Y2402540D01*
X2566638Y2403332D01*
X2559914Y2428352D01*
X2559562Y2429065D01*
X2559406Y2429843D01*
X2549474Y2453772D01*
X2549032Y2454432D01*
X2548776Y2455184D01*
X2535805Y2477611D01*
X2535281Y2478208D01*
X2534929Y2478920D01*
X2519141Y2499462D01*
X2518544Y2499985D01*
X2518102Y2500646D01*
X2499768Y2518951D01*
X2499107Y2519392D01*
X2498583Y2519989D01*
X2478017Y2535744D01*
X2477304Y2536095D01*
X2476706Y2536619D01*
X2454259Y2549555D01*
X2453506Y2549810D01*
X2452846Y2550251D01*
X2428902Y2560147D01*
X2428123Y2560301D01*
X2427410Y2560652D01*
X2402380Y2567338D01*
X2401587Y2567389D01*
X2400835Y2567644D01*
X2375146Y2571006D01*
X2374353Y2570953D01*
X2373574Y2571107D01*
D02*
G37*
G36*
X2809213Y2672165D02*
X2682165D01*
Y2545118D01*
X2687558D01*
X2708086Y2548370D01*
X2727854Y2554793D01*
X2746373Y2564229D01*
X2763188Y2576445D01*
X2777885Y2591142D01*
X2790102Y2607958D01*
X2799538Y2626477D01*
X2805961Y2646244D01*
X2809213Y2666773D01*
Y2672165D01*
D02*
G37*
G36*
X2672165D02*
X2545118D01*
Y2666773D01*
X2548370Y2646244D01*
X2554793Y2626477D01*
X2564229Y2607958D01*
X2576445Y2591142D01*
X2591142Y2576445D01*
X2607958Y2564229D01*
X2626477Y2554793D01*
X2646244Y2548370D01*
X2666773Y2545118D01*
X2672165D01*
Y2672165D01*
D02*
G37*
G36*
X998189D02*
X871142D01*
Y2545118D01*
X876534D01*
X897063Y2548370D01*
X916830Y2554793D01*
X935350Y2564229D01*
X952165Y2576445D01*
X966862Y2591142D01*
X979079Y2607958D01*
X988515Y2626477D01*
X994937Y2646244D01*
X998189Y2666773D01*
Y2672165D01*
D02*
G37*
G36*
X861142D02*
X734095D01*
Y2666773D01*
X737346Y2646244D01*
X743769Y2626477D01*
X753205Y2607958D01*
X765422Y2591142D01*
X780119Y2576445D01*
X796934Y2564229D01*
X815453Y2554793D01*
X835221Y2548370D01*
X855749Y2545118D01*
X861142D01*
Y2672165D01*
D02*
G37*
G36*
X1499453Y1895551D02*
X1492673D01*
X1486125Y1893796D01*
X1480253Y1890407D01*
X1475459Y1885613D01*
X1472070Y1879742D01*
X1470315Y1873193D01*
Y1866413D01*
X1472070Y1859865D01*
X1475459Y1853993D01*
X1480253Y1849200D01*
X1486125Y1845810D01*
X1492673Y1844055D01*
X1499453D01*
X1506001Y1845810D01*
X1511873Y1849200D01*
X1516667Y1853993D01*
X1520056Y1859865D01*
X1521811Y1866413D01*
Y1873193D01*
X1520056Y1879742D01*
X1516667Y1885613D01*
X1511873Y1890407D01*
X1506001Y1893796D01*
X1499453Y1895551D01*
D02*
G37*
G36*
X1545708Y1804124D02*
X1537815D01*
X1530522Y1801103D01*
X1524940Y1795521D01*
X1521919Y1788228D01*
Y1780334D01*
X1524940Y1773041D01*
X1530522Y1767460D01*
X1537815Y1764439D01*
X1545708D01*
X1553002Y1767460D01*
X1558583Y1773041D01*
X1561604Y1780334D01*
Y1788228D01*
X1558583Y1795521D01*
X1553002Y1801103D01*
X1545708Y1804124D01*
D02*
G37*
G36*
X1668479Y1786496D02*
X1660585D01*
X1653292Y1783475D01*
X1647710Y1777893D01*
X1644689Y1770601D01*
Y1762707D01*
X1647710Y1755414D01*
X1653292Y1749832D01*
X1660585Y1746811D01*
X1668479D01*
X1675772Y1749832D01*
X1681353Y1755414D01*
X1684374Y1762707D01*
Y1770601D01*
X1681353Y1777893D01*
X1675772Y1783475D01*
X1668479Y1786496D01*
D02*
G37*
G36*
X1812097Y1738268D02*
X1804203D01*
X1796910Y1735247D01*
X1791328Y1729665D01*
X1788307Y1722372D01*
Y1714478D01*
X1791328Y1707185D01*
X1796910Y1701603D01*
X1804203Y1698583D01*
X1812097D01*
X1819389Y1701603D01*
X1824971Y1707185D01*
X1827992Y1714478D01*
Y1722372D01*
X1824971Y1729665D01*
X1819389Y1735247D01*
X1812097Y1738268D01*
D02*
G37*
G36*
X1904950Y1475316D02*
X1897056D01*
X1889763Y1472295D01*
X1884181Y1466713D01*
X1881160Y1459420D01*
Y1451526D01*
X1884181Y1444233D01*
X1889763Y1438651D01*
X1897056Y1435631D01*
X1904950D01*
X1912243Y1438651D01*
X1917825Y1444233D01*
X1920845Y1451526D01*
Y1459420D01*
X1917825Y1466713D01*
X1912243Y1472295D01*
X1904950Y1475316D01*
D02*
G37*
G36*
X1499453Y1243674D02*
X1492673D01*
X1486125Y1241919D01*
X1480253Y1238530D01*
X1475459Y1233736D01*
X1472070Y1227864D01*
X1470315Y1221316D01*
Y1214536D01*
X1472070Y1207988D01*
X1475459Y1202116D01*
X1480253Y1197323D01*
X1486125Y1193933D01*
X1492673Y1192178D01*
X1499453D01*
X1506001Y1193933D01*
X1511873Y1197323D01*
X1516667Y1202116D01*
X1520056Y1207988D01*
X1521811Y1214536D01*
Y1221316D01*
X1520056Y1227864D01*
X1516667Y1233736D01*
X1511873Y1238530D01*
X1506001Y1241919D01*
X1499453Y1243674D01*
D02*
G37*
G36*
X1545708Y1156749D02*
X1537815D01*
X1530522Y1153728D01*
X1524940Y1148147D01*
X1521919Y1140854D01*
Y1132960D01*
X1524940Y1125667D01*
X1530522Y1120085D01*
X1537815Y1117064D01*
X1545708D01*
X1553002Y1120085D01*
X1558583Y1125667D01*
X1561604Y1132960D01*
Y1140854D01*
X1558583Y1148147D01*
X1553002Y1153728D01*
X1545708Y1156749D01*
D02*
G37*
G36*
X1669743Y1134217D02*
X1661849D01*
X1654556Y1131196D01*
X1648975Y1125614D01*
X1645954Y1118322D01*
Y1110428D01*
X1648975Y1103135D01*
X1654556Y1097553D01*
X1661849Y1094532D01*
X1669743D01*
X1677036Y1097553D01*
X1682618Y1103135D01*
X1685639Y1110428D01*
Y1118322D01*
X1682618Y1125614D01*
X1677036Y1131196D01*
X1669743Y1134217D01*
D02*
G37*
G36*
X1812097Y1088661D02*
X1804203D01*
X1796910Y1085640D01*
X1791328Y1080059D01*
X1788307Y1072766D01*
Y1064872D01*
X1791328Y1057579D01*
X1796910Y1051997D01*
X1804203Y1048976D01*
X1812097D01*
X1819389Y1051997D01*
X1824971Y1057579D01*
X1827992Y1064872D01*
Y1072766D01*
X1824971Y1080059D01*
X1819389Y1085640D01*
X1812097Y1088661D01*
D02*
G37*
G36*
X3707825Y1009212D02*
X3696899D01*
X3686345Y1006385D01*
X3676883Y1000922D01*
X3669157Y993196D01*
X3663694Y983733D01*
X3660866Y973180D01*
Y962253D01*
X3663694Y951700D01*
X3669157Y942237D01*
X3676883Y934511D01*
X3686345Y929048D01*
X3696899Y926221D01*
X3707825D01*
X3718379Y929048D01*
X3727841Y934511D01*
X3735567Y942237D01*
X3741030Y951700D01*
X3743858Y962253D01*
Y973180D01*
X3741030Y983733D01*
X3735567Y993196D01*
X3727841Y1000922D01*
X3718379Y1006385D01*
X3707825Y1009212D01*
D02*
G37*
G36*
X3607825D02*
X3596899D01*
X3586345Y1006385D01*
X3576883Y1000922D01*
X3569157Y993196D01*
X3563694Y983733D01*
X3560866Y973180D01*
Y962253D01*
X3563694Y951700D01*
X3569157Y942237D01*
X3576883Y934511D01*
X3586345Y929048D01*
X3596899Y926221D01*
X3607825D01*
X3618379Y929048D01*
X3627841Y934511D01*
X3635567Y942237D01*
X3641030Y951700D01*
X3643858Y962253D01*
Y973180D01*
X3641030Y983733D01*
X3635567Y993196D01*
X3627841Y1000922D01*
X3618379Y1006385D01*
X3607825Y1009212D01*
D02*
G37*
G36*
X2687558Y998189D02*
X2682165D01*
Y871142D01*
X2809213D01*
Y876534D01*
X2805961Y897063D01*
X2799538Y916830D01*
X2790102Y935350D01*
X2777885Y952165D01*
X2763188Y966862D01*
X2746373Y979079D01*
X2727854Y988515D01*
X2708086Y994937D01*
X2687558Y998189D01*
D02*
G37*
G36*
X2672165D02*
X2666773D01*
X2646244Y994937D01*
X2626477Y988515D01*
X2607958Y979079D01*
X2591142Y966862D01*
X2576445Y952165D01*
X2564229Y935350D01*
X2554793Y916830D01*
X2548370Y897063D01*
X2545118Y876534D01*
Y871142D01*
X2672165D01*
Y998189D01*
D02*
G37*
G36*
X876534D02*
X871142D01*
Y871142D01*
X998189D01*
Y876534D01*
X994937Y897063D01*
X988515Y916830D01*
X979079Y935350D01*
X966862Y952165D01*
X952165Y966862D01*
X935350Y979079D01*
X916830Y988515D01*
X897063Y994937D01*
X876534Y998189D01*
D02*
G37*
G36*
X861142D02*
X855749D01*
X835221Y994937D01*
X815453Y988515D01*
X796934Y979079D01*
X780119Y966862D01*
X765422Y952165D01*
X753205Y935350D01*
X743769Y916830D01*
X737346Y897063D01*
X734095Y876534D01*
Y871142D01*
X861142D01*
Y998189D01*
D02*
G37*
G36*
X3707825Y909212D02*
X3696899D01*
X3686345Y906385D01*
X3676883Y900922D01*
X3669157Y893196D01*
X3663694Y883733D01*
X3660866Y873180D01*
Y862253D01*
X3663694Y851700D01*
X3669157Y842237D01*
X3676883Y834511D01*
X3686345Y829048D01*
X3696899Y826221D01*
X3707825D01*
X3718379Y829048D01*
X3727841Y834511D01*
X3735567Y842237D01*
X3741030Y851700D01*
X3743858Y862253D01*
Y873180D01*
X3741030Y883733D01*
X3735567Y893196D01*
X3727841Y900922D01*
X3718379Y906385D01*
X3707825Y909212D01*
D02*
G37*
G36*
X3607825D02*
X3596899D01*
X3586345Y906385D01*
X3576883Y900922D01*
X3569157Y893196D01*
X3563694Y883733D01*
X3560866Y873180D01*
Y862253D01*
X3563694Y851700D01*
X3569157Y842237D01*
X3576883Y834511D01*
X3586345Y829048D01*
X3596899Y826221D01*
X3607825D01*
X3618379Y829048D01*
X3627841Y834511D01*
X3635567Y842237D01*
X3641030Y851700D01*
X3643858Y862253D01*
Y873180D01*
X3641030Y883733D01*
X3635567Y893196D01*
X3627841Y900922D01*
X3618379Y906385D01*
X3607825Y909212D01*
D02*
G37*
G36*
X2809213Y861142D02*
X2682165D01*
Y734095D01*
X2687558D01*
X2708086Y737346D01*
X2727854Y743769D01*
X2746373Y753205D01*
X2763188Y765422D01*
X2777885Y780119D01*
X2790102Y796934D01*
X2799538Y815453D01*
X2805961Y835221D01*
X2809213Y855749D01*
Y861142D01*
D02*
G37*
G36*
X2672165D02*
X2545118D01*
Y855749D01*
X2548370Y835221D01*
X2554793Y815453D01*
X2564229Y796934D01*
X2576445Y780119D01*
X2591142Y765422D01*
X2607958Y753205D01*
X2626477Y743769D01*
X2646244Y737346D01*
X2666773Y734095D01*
X2672165D01*
Y861142D01*
D02*
G37*
G36*
X998189D02*
X871142D01*
Y734095D01*
X876534D01*
X897063Y737346D01*
X916830Y743769D01*
X935350Y753205D01*
X952165Y765422D01*
X966862Y780119D01*
X979079Y796934D01*
X988515Y815453D01*
X994937Y835221D01*
X998189Y855749D01*
Y861142D01*
D02*
G37*
G36*
X861142D02*
X734095D01*
Y855749D01*
X737346Y835221D01*
X743769Y815453D01*
X753205Y796934D01*
X765422Y780119D01*
X780119Y765422D01*
X796934Y753205D01*
X815453Y743769D01*
X835221Y737346D01*
X855749Y734095D01*
X861142D01*
Y861142D01*
D02*
G37*
G36*
X3707825Y809212D02*
X3696899D01*
X3686345Y806385D01*
X3676883Y800922D01*
X3669157Y793196D01*
X3663694Y783733D01*
X3660866Y773180D01*
Y762253D01*
X3663694Y751700D01*
X3669157Y742237D01*
X3676883Y734511D01*
X3686345Y729048D01*
X3696899Y726221D01*
X3707825D01*
X3718379Y729048D01*
X3727841Y734511D01*
X3735567Y742237D01*
X3741030Y751700D01*
X3743858Y762253D01*
Y773180D01*
X3741030Y783733D01*
X3735567Y793196D01*
X3727841Y800922D01*
X3718379Y806385D01*
X3707825Y809212D01*
D02*
G37*
G36*
X3607825D02*
X3596899D01*
X3586345Y806385D01*
X3576883Y800922D01*
X3569157Y793196D01*
X3563694Y783733D01*
X3560866Y773180D01*
Y762253D01*
X3563694Y751700D01*
X3569157Y742237D01*
X3576883Y734511D01*
X3586345Y729048D01*
X3596899Y726221D01*
X3607825D01*
X3618379Y729048D01*
X3627841Y734511D01*
X3635567Y742237D01*
X3641030Y751700D01*
X3643858Y762253D01*
Y773180D01*
X3641030Y783733D01*
X3635567Y793196D01*
X3627841Y800922D01*
X3618379Y806385D01*
X3607825Y809212D01*
D02*
G37*
G36*
X1578193Y734409D02*
X1571413D01*
X1564865Y732655D01*
X1558993Y729265D01*
X1554200Y724471D01*
X1550810Y718600D01*
X1549055Y712051D01*
Y705272D01*
X1550810Y698723D01*
X1554200Y692852D01*
X1558993Y688058D01*
X1564865Y684668D01*
X1571413Y682913D01*
X1578193D01*
X1584742Y684668D01*
X1590613Y688058D01*
X1595407Y692852D01*
X1598796Y698723D01*
X1600551Y705272D01*
Y712051D01*
X1598796Y718600D01*
X1595407Y724471D01*
X1590613Y729265D01*
X1584742Y732655D01*
X1578193Y734409D01*
D02*
G37*
G36*
X1928248Y720908D02*
X1920354D01*
X1913061Y717887D01*
X1907479Y712306D01*
X1904458Y705013D01*
Y697119D01*
X1907479Y689826D01*
X1913061Y684244D01*
X1920354Y681223D01*
X1928248D01*
X1935541Y684244D01*
X1941123Y689826D01*
X1944143Y697119D01*
Y705013D01*
X1941123Y712306D01*
X1935541Y717887D01*
X1928248Y720908D01*
D02*
G37*
G36*
X3707825Y709212D02*
X3696899D01*
X3686345Y706385D01*
X3676883Y700922D01*
X3669157Y693196D01*
X3663694Y683733D01*
X3660866Y673180D01*
Y662253D01*
X3663694Y651700D01*
X3669157Y642237D01*
X3676883Y634511D01*
X3686345Y629048D01*
X3696899Y626221D01*
X3707825D01*
X3718379Y629048D01*
X3727841Y634511D01*
X3735567Y642237D01*
X3741030Y651700D01*
X3743858Y662253D01*
Y673180D01*
X3741030Y683733D01*
X3735567Y693196D01*
X3727841Y700922D01*
X3718379Y706385D01*
X3707825Y709212D01*
D02*
G37*
G36*
X3607825D02*
X3596899D01*
X3586345Y706385D01*
X3576883Y700922D01*
X3569157Y693196D01*
X3563694Y683733D01*
X3560866Y673180D01*
Y662253D01*
X3563694Y651700D01*
X3569157Y642237D01*
X3576883Y634511D01*
X3586345Y629048D01*
X3596899Y626221D01*
X3607825D01*
X3618379Y629048D01*
X3627841Y634511D01*
X3635567Y642237D01*
X3641030Y651700D01*
X3643858Y662253D01*
Y673180D01*
X3641030Y683733D01*
X3635567Y693196D01*
X3627841Y700922D01*
X3618379Y706385D01*
X3607825Y709212D01*
D02*
G37*
G36*
X2415690Y636822D02*
X2407796D01*
X2400503Y633801D01*
X2394921Y628219D01*
X2391900Y620926D01*
Y613032D01*
X2394921Y605739D01*
X2400503Y600158D01*
X2407796Y597137D01*
X2415690D01*
X2422983Y600158D01*
X2428564Y605739D01*
X2431585Y613032D01*
Y620926D01*
X2428564Y628219D01*
X2422983Y633801D01*
X2415690Y636822D01*
D02*
G37*
G36*
X1886900Y570401D02*
X1879006D01*
X1871713Y567380D01*
X1866131Y561798D01*
X1863110Y554505D01*
Y546611D01*
X1866131Y539318D01*
X1871713Y533737D01*
X1879006Y530716D01*
X1886900D01*
X1894193Y533737D01*
X1899774Y539318D01*
X1902795Y546611D01*
Y554505D01*
X1899774Y561798D01*
X1894193Y567380D01*
X1886900Y570401D01*
D02*
G37*
G36*
X3707825Y609212D02*
X3696899D01*
X3686345Y606385D01*
X3676883Y600922D01*
X3669157Y593196D01*
X3663694Y583733D01*
X3660866Y573180D01*
Y562253D01*
X3663694Y551700D01*
X3669157Y542237D01*
X3676883Y534511D01*
X3686345Y529048D01*
X3696899Y526221D01*
X3707825D01*
X3718379Y529048D01*
X3727841Y534511D01*
X3735567Y542237D01*
X3741030Y551700D01*
X3743858Y562253D01*
Y573180D01*
X3741030Y583733D01*
X3735567Y593196D01*
X3727841Y600922D01*
X3718379Y606385D01*
X3707825Y609212D01*
D02*
G37*
G36*
X3607825D02*
X3596899D01*
X3586345Y606385D01*
X3576883Y600922D01*
X3569157Y593196D01*
X3563694Y583733D01*
X3560866Y573180D01*
Y562253D01*
X3563694Y551700D01*
X3569157Y542237D01*
X3576883Y534511D01*
X3586345Y529048D01*
X3596899Y526221D01*
X3607825D01*
X3618379Y529048D01*
X3627841Y534511D01*
X3635567Y542237D01*
X3641030Y551700D01*
X3643858Y562253D01*
Y573180D01*
X3641030Y583733D01*
X3635567Y593196D01*
X3627841Y600922D01*
X3618379Y606385D01*
X3607825Y609212D01*
D02*
G37*
G36*
X1357720Y574338D02*
X1350941D01*
X1344392Y572583D01*
X1338521Y569193D01*
X1333727Y564400D01*
X1330337Y558528D01*
X1328583Y551980D01*
Y545200D01*
X1330337Y538652D01*
X1333727Y532780D01*
X1338521Y527986D01*
X1344392Y524597D01*
X1350941Y522842D01*
X1357720D01*
X1364269Y524597D01*
X1370140Y527986D01*
X1374934Y532780D01*
X1378324Y538652D01*
X1380079Y545200D01*
Y551980D01*
X1378324Y558528D01*
X1374934Y564400D01*
X1370140Y569193D01*
X1364269Y572583D01*
X1357720Y574338D01*
D02*
G37*
G36*
X1282917D02*
X1276138D01*
X1269589Y572583D01*
X1263718Y569193D01*
X1258924Y564400D01*
X1255534Y558528D01*
X1253780Y551980D01*
Y545200D01*
X1255534Y538652D01*
X1258924Y532780D01*
X1263718Y527986D01*
X1269589Y524597D01*
X1276138Y522842D01*
X1282917D01*
X1289466Y524597D01*
X1295337Y527986D01*
X1300131Y532780D01*
X1303521Y538652D01*
X1305276Y545200D01*
Y551980D01*
X1303521Y558528D01*
X1300131Y564400D01*
X1295337Y569193D01*
X1289466Y572583D01*
X1282917Y574338D01*
D02*
G37*
G36*
X1715988Y569495D02*
X1709209D01*
X1702660Y567741D01*
X1696789Y564351D01*
X1691995Y559557D01*
X1688605Y553686D01*
X1686850Y547137D01*
Y540358D01*
X1688605Y533809D01*
X1691995Y527938D01*
X1696789Y523144D01*
X1702660Y519754D01*
X1709209Y517999D01*
X1715988D01*
X1722537Y519754D01*
X1728408Y523144D01*
X1733202Y527938D01*
X1736592Y533809D01*
X1738346Y540358D01*
Y547137D01*
X1736592Y553686D01*
X1733202Y559557D01*
X1728408Y564351D01*
X1722537Y567741D01*
X1715988Y569495D01*
D02*
G37*
G36*
X1960807Y534201D02*
X1952913D01*
X1945620Y531180D01*
X1940038Y525599D01*
X1937017Y518306D01*
Y510412D01*
X1940038Y503119D01*
X1945620Y497537D01*
X1952913Y494516D01*
X1960807D01*
X1968100Y497537D01*
X1973682Y503119D01*
X1976703Y510412D01*
Y518306D01*
X1973682Y525599D01*
X1968100Y531180D01*
X1960807Y534201D01*
D02*
G37*
G36*
X2688058Y528299D02*
X2680165D01*
X2672872Y525278D01*
X2667290Y519697D01*
X2664269Y512404D01*
Y504510D01*
X2667290Y497217D01*
X2672872Y491635D01*
X2680165Y488614D01*
X2688058D01*
X2695351Y491635D01*
X2700933Y497217D01*
X2703954Y504510D01*
Y512404D01*
X2700933Y519697D01*
X2695351Y525278D01*
X2688058Y528299D01*
D02*
G37*
G36*
X3607825Y509212D02*
X3607362D01*
Y472716D01*
X3643858D01*
Y473180D01*
X3641030Y483733D01*
X3635567Y493196D01*
X3627841Y500922D01*
X3618379Y506385D01*
X3607825Y509212D01*
D02*
G37*
G36*
X3597362D02*
X3596899D01*
X3586345Y506385D01*
X3576883Y500922D01*
X3569157Y493196D01*
X3563694Y483733D01*
X3560866Y473180D01*
Y472716D01*
X3597362D01*
Y509212D01*
D02*
G37*
G36*
X2242484Y510906D02*
X2235705D01*
X2229156Y509151D01*
X2223285Y505761D01*
X2218491Y500967D01*
X2215101Y495096D01*
X2213346Y488547D01*
Y481768D01*
X2215101Y475219D01*
X2218491Y469348D01*
X2223285Y464554D01*
X2229156Y461164D01*
X2235705Y459410D01*
X2242484D01*
X2249033Y461164D01*
X2254904Y464554D01*
X2259698Y469348D01*
X2263088Y475219D01*
X2264842Y481768D01*
Y488547D01*
X2263088Y495096D01*
X2259698Y500967D01*
X2254904Y505761D01*
X2249033Y509151D01*
X2242484Y510906D01*
D02*
G37*
G36*
X1886900Y495147D02*
X1879006D01*
X1871713Y492126D01*
X1866131Y486544D01*
X1863110Y479251D01*
Y471358D01*
X1866131Y464065D01*
X1871713Y458483D01*
X1879006Y455462D01*
X1886900D01*
X1894193Y458483D01*
X1899774Y464065D01*
X1902795Y471358D01*
Y479251D01*
X1899774Y486544D01*
X1894193Y492126D01*
X1886900Y495147D01*
D02*
G37*
G36*
X2724518Y493367D02*
X2716625D01*
X2709332Y490346D01*
X2703750Y484764D01*
X2700729Y477471D01*
Y469577D01*
X2703750Y462284D01*
X2709332Y456703D01*
X2716625Y453682D01*
X2724518D01*
X2731811Y456703D01*
X2737393Y462284D01*
X2740414Y469577D01*
Y477471D01*
X2737393Y484764D01*
X2731811Y490346D01*
X2724518Y493367D01*
D02*
G37*
G36*
X2004930Y474831D02*
X1997036D01*
X1989743Y471810D01*
X1984162Y466228D01*
X1981141Y458935D01*
Y451042D01*
X1984162Y443749D01*
X1989743Y438167D01*
X1997036Y435146D01*
X2004930D01*
X2012223Y438167D01*
X2017805Y443749D01*
X2020826Y451042D01*
Y458935D01*
X2017805Y466228D01*
X2012223Y471810D01*
X2004930Y474831D01*
D02*
G37*
G36*
X3743858Y509212D02*
X3660866D01*
Y426221D01*
X3743858D01*
Y509212D01*
D02*
G37*
G36*
X3643858Y462716D02*
X3607362D01*
Y426221D01*
X3607825D01*
X3618379Y429048D01*
X3627841Y434511D01*
X3635567Y442237D01*
X3641030Y451700D01*
X3643858Y462253D01*
Y462716D01*
D02*
G37*
G36*
X3597362D02*
X3560866D01*
Y462253D01*
X3563694Y451700D01*
X3569157Y442237D01*
X3576883Y434511D01*
X3586345Y429048D01*
X3596899Y426221D01*
X3597362D01*
Y462716D01*
D02*
G37*
G36*
X207243Y328898D02*
X201850D01*
Y201850D01*
X328898D01*
Y207243D01*
X325646Y227772D01*
X319223Y247539D01*
X309787Y266058D01*
X297570Y282873D01*
X282873Y297570D01*
X266058Y309787D01*
X247539Y319223D01*
X227772Y325646D01*
X207243Y328898D01*
D02*
G37*
G36*
X191850D02*
X186458D01*
X165929Y325646D01*
X146162Y319223D01*
X127643Y309787D01*
X110827Y297570D01*
X96130Y282873D01*
X83913Y266058D01*
X74478Y247539D01*
X68055Y227772D01*
X64803Y207243D01*
Y201850D01*
X191850D01*
Y328898D01*
D02*
G37*
G36*
X3356849Y324346D02*
X3351457D01*
Y197299D01*
X3478504D01*
Y202691D01*
X3475252Y223220D01*
X3468830Y242988D01*
X3459394Y261507D01*
X3447177Y278322D01*
X3432480Y293019D01*
X3415664Y305236D01*
X3397145Y314672D01*
X3377378Y321095D01*
X3356849Y324346D01*
D02*
G37*
G36*
X3341457D02*
X3336064D01*
X3315536Y321095D01*
X3295768Y314672D01*
X3277249Y305236D01*
X3260434Y293019D01*
X3245737Y278322D01*
X3233520Y261507D01*
X3224084Y242988D01*
X3217661Y223220D01*
X3214410Y202691D01*
Y197299D01*
X3341457D01*
Y324346D01*
D02*
G37*
G36*
X328898Y191850D02*
X201850D01*
Y64803D01*
X207243D01*
X227772Y68055D01*
X247539Y74478D01*
X266058Y83913D01*
X282873Y96130D01*
X297570Y110827D01*
X309787Y127643D01*
X319223Y146162D01*
X325646Y165929D01*
X328898Y186458D01*
Y191850D01*
D02*
G37*
G36*
X191850D02*
X64803D01*
Y186458D01*
X68055Y165929D01*
X74478Y146162D01*
X83913Y127643D01*
X96130Y110827D01*
X110827Y96130D01*
X127643Y83913D01*
X146162Y74478D01*
X165929Y68055D01*
X186458Y64803D01*
X191850D01*
Y191850D01*
D02*
G37*
G36*
X3478504Y187299D02*
X3351457D01*
Y60252D01*
X3356849D01*
X3377378Y63504D01*
X3397145Y69926D01*
X3415664Y79362D01*
X3432480Y91579D01*
X3447177Y106276D01*
X3459394Y123091D01*
X3468830Y141611D01*
X3475252Y161378D01*
X3478504Y181907D01*
Y187299D01*
D02*
G37*
G36*
X3341457D02*
X3214410D01*
Y181907D01*
X3217661Y161378D01*
X3224084Y141611D01*
X3233520Y123091D01*
X3245737Y106276D01*
X3260434Y91579D01*
X3277249Y79362D01*
X3295768Y69926D01*
X3315536Y63504D01*
X3336064Y60252D01*
X3341457D01*
Y187299D01*
D02*
G37*
%LPD*%
D113*
X3602362Y467716D02*
D03*
X3789715Y3680628D02*
D03*
D116*
X2814961Y3707016D02*
D03*
X1684622Y3720472D02*
D03*
X531496Y3706251D02*
D03*
D118*
X3346457Y3346457D02*
D03*
X196850Y3346457D02*
D03*
X3346457Y192299D02*
D03*
X196850Y196850D02*
D03*
X2677165Y2677165D02*
D03*
X866142D02*
D03*
X2677165Y866142D02*
D03*
X866142D02*
D03*
D119*
X3802205Y3424134D02*
D03*
X3801181Y3254843D02*
D03*
X1417323Y3791251D02*
D03*
X935502Y3841251D02*
D03*
X2563201Y3793440D02*
D03*
X2081535Y3844811D02*
D03*
X2293600Y951812D02*
D03*
X1680218Y1005436D02*
D03*
X1681353Y1657313D02*
D03*
X1757874Y1699636D02*
D03*
X1636824Y597700D02*
D03*
X1712598Y469577D02*
D03*
X1533001Y492126D02*
D03*
Y452756D02*
D03*
X1757874Y1050029D02*
D03*
D120*
X2746373Y2933071D02*
D03*
X785000Y2913386D02*
D03*
X1043920Y3361300D02*
D03*
X1771653Y2750000D02*
D03*
X2283465Y3472972D02*
D03*
D121*
X2102045Y3411055D02*
D03*
X1630502Y1939764D02*
D03*
X2239095Y532559D02*
D03*
X2007650Y508453D02*
D03*
X1633966Y1299213D02*
D03*
M02*
