%FSLAX23Y23*%
%MOIN*%
%SFA1B1*%

%IPPOS*%
%ADD10R,0.057090X0.051180*%
%ADD11R,0.039370X0.039370*%
%ADD12R,0.039370X0.039370*%
%ADD13R,0.028350X0.026770*%
%ADD14R,0.027560X0.035430*%
%ADD15R,0.035430X0.027560*%
%ADD16R,0.011810X0.027560*%
%ADD17R,0.062990X0.035040*%
%ADD18R,0.058660X0.094490*%
%ADD19R,0.035430X0.013780*%
%ADD20C,0.007870*%
%ADD21R,0.102360X0.102360*%
%ADD22O,0.033470X0.011810*%
%ADD23O,0.011810X0.033470*%
%ADD24R,0.015750X0.031500*%
%ADD25R,0.098430X0.059060*%
%LNhumflex2_1_paste_top-1*%
%LPD*%
G54D10*
X132Y-870D03*
Y-943D03*
X416Y-870D03*
Y-943D03*
X-23Y1262D03*
Y1335D03*
X259Y1262D03*
Y1335D03*
G54D11*
X355Y-451D03*
Y-394D03*
X136Y-562D03*
Y-505D03*
X255Y954D03*
Y897D03*
G54D12*
X-537Y-755D03*
X-480D03*
X75Y846D03*
X18D03*
G54D13*
X203Y-369D03*
Y-334D03*
X188Y761D03*
Y726D03*
G54D14*
X314Y-665D03*
X249D03*
X190Y-454D03*
X256D03*
X136Y846D03*
X201D03*
G54D15*
X495Y-711D03*
Y-646D03*
X428D03*
Y-711D03*
X69Y-565D03*
Y-500D03*
X6Y-499D03*
Y-564D03*
X385Y956D03*
Y891D03*
X322Y892D03*
Y957D03*
X-35Y1103D03*
Y1038D03*
X-102D03*
Y1103D03*
G54D16*
X379Y-262D03*
X354D03*
X328D03*
X379Y-340D03*
X354D03*
X328D03*
G54D17*
X354Y-301D03*
G54D18*
X274Y-906D03*
X118Y1299D03*
G54D19*
X329Y-945D03*
Y-919D03*
Y-894D03*
Y-868D03*
X219Y-945D03*
Y-919D03*
Y-894D03*
Y-868D03*
X63Y1337D03*
Y1312D03*
Y1286D03*
Y1260D03*
X173Y1337D03*
Y1312D03*
Y1286D03*
Y1260D03*
G54D20*
X235Y-284D03*
X219D03*
X203D03*
X235Y-269D03*
X219D03*
X203D03*
X157Y677D03*
X173D03*
X188D03*
X157Y661D03*
X173D03*
X188D03*
G54D21*
X62Y-367D03*
X330Y759D03*
G54D22*
X137Y-329D03*
Y-354D03*
Y-380D03*
Y-405D03*
X-13D03*
Y-380D03*
Y-354D03*
Y-329D03*
X254Y721D03*
Y747D03*
Y772D03*
Y798D03*
X406D03*
Y772D03*
Y747D03*
Y721D03*
G54D23*
X100Y-443D03*
X74D03*
X49D03*
X23D03*
Y-291D03*
X49D03*
X74D03*
X100D03*
X292Y835D03*
X317D03*
X343D03*
X369D03*
Y684D03*
X343D03*
X317D03*
X292D03*
G54D24*
X-441Y-582D03*
X-481D03*
X-520D03*
X-441Y-695D03*
X-481D03*
X-520D03*
X0Y663D03*
X39D03*
X78D03*
X0Y777D03*
X39D03*
X78D03*
G54D25*
X-481Y-639D03*
X39Y720D03*
M02*