%FSLAX23Y23*%
%MOIN*%
%SFA1B1*%

%IPPOS*%
%ADD27R,0.039370X0.031496*%
%ADD28R,0.043307X0.043307*%
%ADD29R,0.031496X0.039370*%
%ADD30R,0.143701X0.141732*%
%ADD31R,0.141732X0.143701*%
%ADD32R,0.055118X0.061024*%
%ADD33R,0.021654X0.021654*%
%ADD34R,0.100393X0.044724*%
%ADD35R,0.100393X0.026063*%
%ADD36R,0.061024X0.055118*%
%ADD37R,0.031496X0.063976*%
%ADD38R,0.141732X0.066929*%
%ADD39R,0.125984X0.216535*%
%ADD40C,0.066929*%
%ADD41R,0.066929X0.066929*%
%ADD42C,0.080709*%
%ADD43R,0.080709X0.080709*%
%ADD44C,0.027559*%
%ADD45C,0.035433*%
%ADD46C,0.173228*%
%LNpcb1_soldermask_top-1*%
%LPD*%
G54D27*
X3312Y3457D03*
Y3392D03*
X3740Y3622D03*
Y3556D03*
Y3772D03*
Y3707D03*
G54D28*
X3381Y3405D03*
X3439D03*
G54D29*
X3485Y3751D03*
X3550D03*
X3495Y3484D03*
X3560D03*
G54D30*
X3765Y3917D03*
X3602D03*
G54D31*
X3937Y3500D03*
Y3664D03*
G54D32*
X3737Y3444D03*
X3664D03*
G54D33*
X3563Y3567D03*
X3589D03*
X3615D03*
X3640D03*
Y3676D03*
X3615D03*
X3589D03*
X3563D03*
G54D34*
X3602Y3639D03*
G54D35*
X3602Y3595D03*
G54D36*
X3194Y3432D03*
Y3505D03*
G54D37*
X3276Y3748D03*
X3326D03*
X3376D03*
X3426D03*
Y3534D03*
X3376D03*
X3326D03*
X3276D03*
G54D38*
X4305Y3976D03*
X4513D03*
X3883Y3228D03*
X3675D03*
G54D39*
X4135Y3503D03*
X4525D03*
G54D40*
X3082Y3733D03*
Y3633D03*
Y3533D03*
G54D41*
X3082Y3433D03*
G54D42*
X4803Y3464D03*
Y3976D03*
G54D43*
X4803Y3267D03*
Y3779D03*
G54D44*
X3300Y3798D03*
X3736Y3495D03*
X3764Y4008D03*
X3861Y3916D03*
X3765Y3826D03*
X3192Y3393D03*
X3736Y3401D03*
X3826Y3275D03*
X3881D03*
X3940Y3274D03*
X4220Y3976D03*
X4251Y4023D03*
Y3929D03*
X3342Y3791D03*
X3379Y3484D03*
X3458D03*
G54D45*
X4597Y4004D03*
X3508Y3682D03*
X3215Y3692D03*
X4921Y3149D03*
Y3346D03*
Y3543D03*
Y3740D03*
X3543Y3346D03*
X3346D03*
Y3149D03*
X3543D03*
X3740Y3346D03*
X3937D03*
X4133D03*
X4330D03*
Y3543D03*
Y3740D03*
X4133D03*
Y3937D03*
X3937D03*
X3346D03*
X3514Y3205D03*
X3630Y3182D03*
X3748Y3156D03*
X4595Y3938D03*
X4599Y3600D03*
X4601Y3482D03*
X4061Y3444D03*
X4020Y3536D03*
X3853Y3705D03*
X3853Y3623D03*
X3676Y3656D03*
G54D46*
X3129Y3188D03*
Y4015D03*
M02*