%FSLAX23Y23*%
%MOIN*%
%SFA1B1*%

%IPPOS*%
%ADD50C,0.062992*%
%ADD51R,0.062992X0.062992*%
%ADD52C,0.076771*%
%ADD53R,0.076771X0.076771*%
%ADD54C,0.023622*%
%ADD55C,0.031496*%
%ADD56C,0.169291*%
%LNpcb1_copper_signal_2-1*%
%LPD*%
G36*
X4958Y3063D02*
X3014D01*
Y4141*
X4958*
Y3063*
G37*
%LNpcb1_copper_signal_2-2*%
%LPC*%
G36*
X3139Y4110D02*
X3120D01*
X3102Y4106*
X3085Y4099*
X3069Y4089*
X3066Y4086*
X3074Y4078*
X3067Y4071*
X3059Y4079*
X3056Y4076*
X3046Y4060*
X3038Y4043*
X3035Y4025*
Y4006*
X3038Y3988*
X3046Y3970*
X3056Y3955*
X3059Y3952*
X3067Y3960*
X3074Y3953*
X3066Y3945*
X3069Y3942*
X3085Y3931*
X3102Y3924*
X3120Y3921*
X3139*
X3157Y3924*
X3174Y3931*
X3190Y3942*
X3193Y3945*
X3185Y3953*
X3192Y3960*
X3200Y3952*
X3203Y3955*
X3213Y3970*
X3220Y3988*
X3224Y4006*
Y4025*
X3220Y4043*
X3213Y4060*
X3203Y4076*
X3200Y4079*
X3192Y4071*
X3185Y4078*
X3193Y4086*
X3190Y4089*
X3174Y4099*
X3157Y4106*
X3139Y4110*
G37*
G36*
X4256Y4045D02*
X4247D01*
X4239Y4042*
X4233Y4035*
X4230Y4027*
Y4019*
X4233Y4011*
X4241Y4020*
X4248Y4013*
X4240Y4004*
X4247Y4001*
X4256*
X4264Y4005*
X4270Y4011*
X4273Y4019*
Y4027*
X4270Y4035*
X4262Y4026*
X4255Y4033*
X4263Y4042*
X4256Y4045*
G37*
G36*
X4809Y4024D02*
X4796D01*
X4784Y4021*
X4773Y4015*
X4772Y4014*
X4780Y4006*
X4773Y3998*
X4765Y4007*
X4764Y4006*
X4758Y3995*
X4754Y3982*
Y3970*
X4758Y3957*
X4764Y3946*
X4765Y3945*
X4773Y3953*
X4780Y3946*
X4772Y3938*
X4773Y3937*
X4784Y3931*
X4796Y3927*
X4809*
X4821Y3931*
X4832Y3937*
X4833Y3938*
X4825Y3946*
X4832Y3953*
X4840Y3945*
X4841Y3946*
X4848Y3957*
X4851Y3970*
Y3982*
X4848Y3995*
X4841Y4006*
X4840Y4007*
X4832Y3998*
X4825Y4006*
X4833Y4014*
X4832Y4015*
X4821Y4021*
X4809Y4024*
G37*
G36*
X3768Y4030D02*
X3760D01*
X3752Y4027*
X3745Y4021*
X3742Y4013*
Y4004*
X3745Y3997*
X3754Y4005*
X3761Y3998*
X3752Y3990*
X3760Y3986*
X3768*
X3776Y3990*
X3782Y3996*
X3786Y4004*
Y4013*
X3783Y4020*
X3774Y4012*
X3767Y4019*
X3776Y4027*
X3768Y4030*
G37*
G36*
X4601Y4025D02*
X4593D01*
X4585Y4021*
X4579Y4016*
X4576Y4008*
Y4000*
X4579Y3992*
X4585Y3986*
X4593Y3983*
X4601*
X4609Y3986*
X4615Y3992*
X4618Y4000*
Y4008*
X4615Y4016*
X4609Y4021*
X4601Y4025*
G37*
G36*
X4224Y3998D02*
X4216D01*
X4208Y3994*
X4201Y3988*
X4198Y3980*
Y3972*
X4201Y3964*
X4210Y3973*
X4217Y3966*
X4208Y3957*
X4216Y3954*
X4224*
X4232Y3957*
X4238Y3964*
X4242Y3972*
Y3980*
X4239Y3988*
X4230Y3979*
X4223Y3986*
X4232Y3995*
X4224Y3998*
G37*
G36*
X4137Y3962D02*
X4130D01*
X4123Y3961*
X4119Y3958*
X4127Y3950*
X4120Y3943*
X4112Y3951*
X4109Y3946*
X4108Y3940*
Y3933*
X4109Y3927*
X4112Y3922*
X4120Y3930*
X4127Y3923*
X4119Y3915*
X4123Y3913*
X4130Y3911*
X4137*
X4143Y3913*
X4148Y3915*
X4140Y3923*
X4147Y3930*
X4155Y3922*
X4157Y3927*
X4159Y3933*
Y3940*
X4157Y3946*
X4155Y3951*
X4147Y3943*
X4140Y3950*
X4148Y3958*
X4143Y3961*
X4137Y3962*
G37*
G36*
X3940D02*
X3933D01*
X3927Y3961*
X3922Y3958*
X3930Y3950*
X3923Y3943*
X3915Y3951*
X3913Y3946*
X3911Y3940*
Y3933*
X3913Y3927*
X3915Y3922*
X3923Y3930*
X3930Y3923*
X3922Y3915*
X3927Y3913*
X3933Y3911*
X3940*
X3946Y3913*
X3951Y3915*
X3943Y3923*
X3950Y3930*
X3958Y3922*
X3961Y3927*
X3962Y3933*
Y3940*
X3961Y3946*
X3958Y3951*
X3950Y3943*
X3943Y3950*
X3951Y3958*
X3946Y3961*
X3940Y3962*
G37*
G36*
X3349D02*
X3343D01*
X3336Y3961*
X3332Y3958*
X3340Y3950*
X3333Y3943*
X3325Y3951*
X3322Y3946*
X3320Y3940*
Y3933*
X3322Y3927*
X3325Y3922*
X3333Y3930*
X3340Y3923*
X3332Y3915*
X3336Y3913*
X3343Y3911*
X3349*
X3356Y3913*
X3360Y3915*
X3352Y3923*
X3359Y3930*
X3367Y3922*
X3370Y3927*
X3372Y3933*
Y3940*
X3370Y3946*
X3367Y3951*
X3359Y3943*
X3352Y3950*
X3360Y3958*
X3356Y3961*
X3349Y3962*
G37*
G36*
X4599Y3959D02*
X4591D01*
X4583Y3956*
X4577Y3950*
X4574Y3942*
Y3934*
X4577Y3927*
X4583Y3921*
X4591Y3918*
X4599*
X4607Y3921*
X4612Y3927*
X4615Y3934*
Y3942*
X4612Y3950*
X4607Y3956*
X4599Y3959*
G37*
G36*
X4256Y3950D02*
X4247D01*
X4239Y3947*
X4233Y3941*
X4230Y3933*
Y3924*
X4233Y3917*
X4241Y3925*
X4248Y3918*
X4240Y3910*
X4247Y3907*
X4256*
X4264Y3910*
X4270Y3916*
X4273Y3924*
Y3933*
X4270Y3940*
X4262Y3932*
X4255Y3939*
X4263Y3947*
X4256Y3950*
G37*
G36*
X3866Y3937D02*
X3857D01*
X3849Y3934*
X3843Y3928*
X3840Y3920*
Y3911*
X3843Y3904*
X3851Y3912*
X3858Y3905*
X3850Y3897*
X3857Y3894*
X3866*
X3874Y3897*
X3880Y3903*
X3883Y3911*
Y3920*
X3880Y3927*
X3872Y3919*
X3865Y3926*
X3873Y3934*
X3866Y3937*
G37*
G36*
X3770Y3848D02*
X3761D01*
X3753Y3845*
X3747Y3838*
X3743Y3830*
Y3822*
X3747Y3814*
X3755Y3823*
X3762Y3816*
X3754Y3807*
X3761Y3804*
X3770*
X3778Y3808*
X3784Y3814*
X3787Y3822*
Y3830*
X3784Y3838*
X3776Y3829*
X3769Y3836*
X3777Y3845*
X3770Y3848*
G37*
G36*
X3305Y3820D02*
X3296D01*
X3288Y3816*
X3282Y3810*
X3279Y3802*
Y3794*
X3282Y3786*
X3290Y3795*
X3297Y3788*
X3289Y3779*
X3296Y3776*
X3305*
X3313Y3779*
X3316Y3783*
X3322Y3782*
X3323Y3779*
X3332Y3788*
X3339Y3780*
X3330Y3772*
X3338Y3769*
X3346*
X3354Y3772*
X3361Y3778*
X3364Y3787*
Y3795*
X3361Y3803*
X3352Y3794*
X3345Y3801*
X3354Y3810*
X3346Y3813*
X3338*
X3330Y3809*
X3326Y3806*
X3320Y3807*
X3319Y3810*
X3311Y3801*
X3304Y3808*
X3312Y3817*
X3305Y3820*
G37*
G36*
X4924Y3765D02*
X4917D01*
X4911Y3764*
X4906Y3761*
X4914Y3753*
X4907Y3746*
X4899Y3754*
X4897Y3750*
X4895Y3743*
Y3736*
X4897Y3730*
X4899Y3725*
X4907Y3733*
X4914Y3726*
X4906Y3718*
X4911Y3716*
X4917Y3714*
X4924*
X4931Y3716*
X4935Y3718*
X4927Y3726*
X4934Y3733*
X4942Y3725*
X4945Y3730*
X4947Y3736*
Y3743*
X4945Y3750*
X4942Y3754*
X4934Y3746*
X4927Y3753*
X4935Y3761*
X4931Y3764*
X4924Y3765*
G37*
G36*
X4334D02*
X4327D01*
X4320Y3764*
X4316Y3761*
X4324Y3753*
X4317Y3746*
X4309Y3754*
X4306Y3750*
X4304Y3743*
Y3736*
X4306Y3730*
X4309Y3725*
X4317Y3733*
X4324Y3726*
X4316Y3718*
X4320Y3716*
X4327Y3714*
X4334*
X4340Y3716*
X4345Y3718*
X4336Y3726*
X4344Y3733*
X4352Y3725*
X4354Y3730*
X4356Y3736*
Y3743*
X4354Y3750*
X4352Y3754*
X4344Y3746*
X4336Y3753*
X4345Y3761*
X4340Y3764*
X4334Y3765*
G37*
G36*
X4137D02*
X4130D01*
X4123Y3764*
X4119Y3761*
X4127Y3753*
X4120Y3746*
X4112Y3754*
X4109Y3750*
X4108Y3743*
Y3736*
X4109Y3730*
X4112Y3725*
X4120Y3733*
X4127Y3726*
X4119Y3718*
X4123Y3716*
X4130Y3714*
X4137*
X4143Y3716*
X4148Y3718*
X4140Y3726*
X4147Y3733*
X4155Y3725*
X4157Y3730*
X4159Y3736*
Y3743*
X4157Y3750*
X4155Y3754*
X4147Y3746*
X4140Y3753*
X4148Y3761*
X4143Y3764*
X4137Y3765*
G37*
G36*
X4846Y3822D02*
X4759D01*
Y3736*
X4846*
Y3822*
G37*
G36*
X3218Y3717D02*
X3212D01*
X3205Y3716*
X3201Y3713*
X3209Y3705*
X3202Y3698*
X3193Y3706*
X3191Y3701*
X3189Y3695*
Y3688*
X3191Y3682*
X3193Y3677*
X3202Y3685*
X3209Y3678*
X3201Y3670*
X3205Y3668*
X3212Y3666*
X3218*
X3225Y3668*
X3229Y3670*
X3221Y3678*
X3228Y3685*
X3236Y3677*
X3239Y3682*
X3241Y3688*
Y3695*
X3239Y3701*
X3236Y3706*
X3228Y3698*
X3221Y3705*
X3229Y3713*
X3225Y3716*
X3218Y3717*
G37*
G36*
X3087Y3770D02*
X3077D01*
X3068Y3767*
X3060Y3763*
X3053Y3756*
X3048Y3747*
X3046Y3738*
Y3729*
X3048Y3719*
X3053Y3711*
X3060Y3704*
X3068Y3699*
X3077Y3697*
X3087*
X3096Y3699*
X3105Y3704*
X3111Y3711*
X3116Y3719*
X3119Y3729*
Y3738*
X3116Y3747*
X3111Y3756*
X3105Y3763*
X3096Y3767*
X3087Y3770*
G37*
G36*
X3512Y3707D02*
X3505D01*
X3498Y3706*
X3494Y3703*
X3502Y3695*
X3495Y3688*
X3487Y3696*
X3484Y3691*
X3483Y3685*
Y3678*
X3484Y3672*
X3487Y3667*
X3495Y3675*
X3502Y3668*
X3494Y3660*
X3498Y3658*
X3505Y3656*
X3512*
X3518Y3658*
X3523Y3660*
X3515Y3668*
X3522Y3675*
X3530Y3667*
X3532Y3672*
X3534Y3678*
Y3685*
X3532Y3691*
X3530Y3696*
X3522Y3688*
X3515Y3695*
X3523Y3703*
X3518Y3706*
X3512Y3707*
G37*
G36*
X3858Y3726D02*
X3849D01*
X3842Y3723*
X3836Y3717*
X3833Y3709*
Y3701*
X3836Y3693*
X3842Y3688*
X3849Y3684*
X3858*
X3865Y3688*
X3871Y3693*
X3874Y3701*
Y3709*
X3871Y3717*
X3865Y3723*
X3858Y3726*
G37*
G36*
X3680Y3677D02*
X3671D01*
X3664Y3673*
X3658Y3668*
X3655Y3660*
Y3652*
X3658Y3644*
X3664Y3638*
X3671Y3635*
X3680*
X3687Y3638*
X3693Y3644*
X3696Y3652*
Y3660*
X3693Y3668*
X3687Y3673*
X3680Y3677*
G37*
G36*
X3857Y3644D02*
X3849D01*
X3841Y3640*
X3836Y3635*
X3832Y3627*
Y3619*
X3836Y3611*
X3841Y3605*
X3849Y3602*
X3857*
X3865Y3605*
X3871Y3611*
X3874Y3619*
Y3627*
X3871Y3635*
X3865Y3640*
X3857Y3644*
G37*
G36*
X3087Y3670D02*
X3077D01*
X3068Y3667*
X3060Y3663*
X3053Y3656*
X3048Y3647*
X3046Y3638*
Y3629*
X3048Y3619*
X3053Y3611*
X3060Y3604*
X3068Y3599*
X3077Y3597*
X3087*
X3096Y3599*
X3105Y3604*
X3111Y3611*
X3116Y3619*
X3119Y3629*
Y3638*
X3116Y3647*
X3111Y3656*
X3105Y3663*
X3096Y3667*
X3087Y3670*
G37*
G36*
X4603Y3621D02*
X4595D01*
X4587Y3618*
X4582Y3612*
X4578Y3604*
Y3596*
X4582Y3588*
X4587Y3582*
X4595Y3579*
X4603*
X4611Y3582*
X4617Y3588*
X4620Y3596*
Y3604*
X4617Y3612*
X4611Y3618*
X4603Y3621*
G37*
G36*
X3088Y3575D02*
X3077D01*
X3066Y3572*
X3057Y3567*
X3056Y3566*
X3064Y3558*
X3057Y3551*
X3049Y3559*
X3049Y3559*
X3044Y3549*
X3041Y3539*
Y3528*
X3044Y3517*
X3049Y3508*
X3049Y3508*
X3057Y3516*
X3064Y3509*
X3056Y3500*
X3057Y3500*
X3066Y3495*
X3077Y3492*
X3088*
X3098Y3495*
X3108Y3500*
X3108Y3500*
X3100Y3509*
X3107Y3516*
X3115Y3508*
X3115Y3508*
X3121Y3517*
X3124Y3528*
Y3539*
X3121Y3549*
X3115Y3559*
X3115Y3559*
X3107Y3551*
X3100Y3558*
X3108Y3566*
X3108Y3567*
X3098Y3572*
X3088Y3575*
G37*
G36*
X4924Y3569D02*
X4917D01*
X4911Y3567*
X4906Y3564*
X4914Y3556*
X4907Y3549*
X4899Y3557*
X4897Y3553*
X4895Y3546*
Y3539*
X4897Y3533*
X4899Y3528*
X4907Y3537*
X4914Y3529*
X4906Y3521*
X4911Y3519*
X4917Y3517*
X4924*
X4931Y3519*
X4935Y3521*
X4927Y3529*
X4934Y3537*
X4942Y3528*
X4945Y3533*
X4947Y3539*
Y3546*
X4945Y3553*
X4942Y3557*
X4934Y3549*
X4927Y3556*
X4935Y3564*
X4931Y3567*
X4924Y3569*
G37*
G36*
X4334D02*
X4327D01*
X4320Y3567*
X4316Y3564*
X4324Y3556*
X4317Y3549*
X4309Y3557*
X4306Y3553*
X4304Y3546*
Y3539*
X4306Y3533*
X4309Y3528*
X4317Y3537*
X4324Y3529*
X4316Y3521*
X4320Y3519*
X4327Y3517*
X4334*
X4340Y3519*
X4345Y3521*
X4336Y3529*
X4344Y3537*
X4352Y3528*
X4354Y3533*
X4356Y3539*
Y3546*
X4354Y3553*
X4352Y3557*
X4344Y3549*
X4336Y3556*
X4345Y3564*
X4340Y3567*
X4334Y3569*
G37*
G36*
X4024Y3556D02*
X4016D01*
X4008Y3553*
X4002Y3547*
X3999Y3540*
Y3532*
X4002Y3524*
X4008Y3518*
X4016Y3515*
X4024*
X4032Y3518*
X4037Y3524*
X4041Y3532*
Y3540*
X4037Y3547*
X4032Y3553*
X4024Y3556*
G37*
G36*
X4809Y3512D02*
X4796D01*
X4784Y3509*
X4773Y3503*
X4772Y3502*
X4780Y3494*
X4773Y3487*
X4765Y3495*
X4764Y3494*
X4758Y3483*
X4754Y3470*
Y3458*
X4758Y3445*
X4764Y3434*
X4765Y3433*
X4773Y3441*
X4780Y3434*
X4772Y3426*
X4773Y3425*
X4784Y3419*
X4796Y3416*
X4809*
X4821Y3419*
X4832Y3425*
X4833Y3426*
X4825Y3434*
X4832Y3441*
X4840Y3433*
X4841Y3434*
X4848Y3445*
X4851Y3458*
Y3470*
X4848Y3483*
X4841Y3494*
X4840Y3495*
X4832Y3487*
X4825Y3494*
X4833Y3502*
X4832Y3503*
X4821Y3509*
X4809Y3512*
G37*
G36*
X3740Y3517D02*
X3731D01*
X3723Y3514*
X3717Y3508*
X3714Y3500*
Y3491*
X3717Y3484*
X3725Y3492*
X3732Y3485*
X3724Y3477*
X3731Y3474*
X3740*
X3748Y3477*
X3754Y3483*
X3757Y3491*
Y3500*
X3754Y3507*
X3746Y3499*
X3739Y3506*
X3747Y3514*
X3740Y3517*
G37*
G36*
X3462Y3501D02*
X3455D01*
X3449Y3498*
X3444Y3493*
X3441Y3487*
Y3480*
X3444Y3474*
X3449Y3470*
X3455Y3467*
X3462*
X3468Y3470*
X3472Y3474*
X3475Y3480*
Y3487*
X3472Y3493*
X3468Y3498*
X3462Y3501*
G37*
G36*
X3383D02*
X3376D01*
X3370Y3498*
X3365Y3493*
X3363Y3487*
Y3480*
X3365Y3474*
X3370Y3470*
X3376Y3467*
X3383*
X3389Y3470*
X3394Y3474*
X3396Y3480*
Y3487*
X3394Y3493*
X3389Y3498*
X3383Y3501*
G37*
G36*
X3124Y3475D02*
X3087D01*
Y3464*
X3077*
Y3475*
X3041*
Y3438*
X3052*
Y3428*
X3041*
Y3392*
X3077*
Y3403*
X3087*
Y3392*
X3124*
Y3428*
X3113*
Y3438*
X3124*
Y3475*
G37*
G36*
X4605Y3503D02*
X4596D01*
X4589Y3500*
X4583Y3494*
X4580Y3486*
Y3478*
X4583Y3471*
X4589Y3465*
X4596Y3462*
X4605*
X4612Y3465*
X4618Y3471*
X4621Y3478*
Y3486*
X4618Y3494*
X4612Y3500*
X4605Y3503*
G37*
G36*
X4065Y3464D02*
X4056D01*
X4049Y3461*
X4043Y3455*
X4040Y3448*
Y3440*
X4043Y3432*
X4049Y3426*
X4056Y3423*
X4065*
X4072Y3426*
X4078Y3432*
X4081Y3440*
Y3448*
X4078Y3455*
X4072Y3461*
X4065Y3464*
G37*
G36*
X3740Y3423D02*
X3731D01*
X3723Y3420*
X3717Y3413*
X3714Y3405*
Y3397*
X3717Y3389*
X3725Y3398*
X3732Y3391*
X3724Y3382*
X3731Y3379*
X3740*
X3748Y3383*
X3754Y3389*
X3758Y3397*
Y3405*
X3754Y3413*
X3746Y3404*
X3739Y3411*
X3747Y3420*
X3740Y3423*
G37*
G36*
X3197Y3415D02*
X3188D01*
X3180Y3412*
X3174Y3406*
X3171Y3398*
Y3389*
X3174Y3382*
X3182Y3390*
X3189Y3383*
X3181Y3374*
X3188Y3371*
X3197*
X3205Y3375*
X3211Y3381*
X3214Y3389*
Y3398*
X3211Y3405*
X3203Y3396*
X3196Y3404*
X3204Y3412*
X3197Y3415*
G37*
G36*
X4924Y3372D02*
X4917D01*
X4911Y3370*
X4906Y3367*
X4914Y3359*
X4907Y3352*
X4899Y3360*
X4897Y3356*
X4895Y3349*
Y3343*
X4897Y3336*
X4899Y3332*
X4907Y3340*
X4914Y3333*
X4906Y3325*
X4911Y3322*
X4917Y3320*
X4924*
X4931Y3322*
X4935Y3325*
X4927Y3333*
X4934Y3340*
X4942Y3332*
X4945Y3336*
X4947Y3343*
Y3349*
X4945Y3356*
X4942Y3360*
X4934Y3352*
X4927Y3359*
X4935Y3367*
X4931Y3370*
X4924Y3372*
G37*
G36*
X4334D02*
X4327D01*
X4320Y3370*
X4316Y3367*
X4324Y3359*
X4317Y3352*
X4309Y3360*
X4306Y3356*
X4304Y3349*
Y3343*
X4306Y3336*
X4309Y3332*
X4317Y3340*
X4324Y3333*
X4316Y3325*
X4320Y3322*
X4327Y3320*
X4334*
X4340Y3322*
X4345Y3325*
X4336Y3333*
X4344Y3340*
X4352Y3332*
X4354Y3336*
X4356Y3343*
Y3349*
X4354Y3356*
X4352Y3360*
X4344Y3352*
X4336Y3359*
X4345Y3367*
X4340Y3370*
X4334Y3372*
G37*
G36*
X4137D02*
X4130D01*
X4123Y3370*
X4119Y3367*
X4127Y3359*
X4120Y3352*
X4112Y3360*
X4109Y3356*
X4108Y3349*
Y3343*
X4109Y3336*
X4112Y3332*
X4120Y3340*
X4127Y3333*
X4119Y3325*
X4123Y3322*
X4130Y3320*
X4137*
X4143Y3322*
X4148Y3325*
X4140Y3333*
X4147Y3340*
X4155Y3332*
X4157Y3336*
X4159Y3343*
Y3349*
X4157Y3356*
X4155Y3360*
X4147Y3352*
X4140Y3359*
X4148Y3367*
X4143Y3370*
X4137Y3372*
G37*
G36*
X3940D02*
X3933D01*
X3927Y3370*
X3922Y3367*
X3930Y3359*
X3923Y3352*
X3915Y3360*
X3913Y3356*
X3911Y3349*
Y3343*
X3913Y3336*
X3915Y3332*
X3923Y3340*
X3930Y3333*
X3922Y3325*
X3927Y3322*
X3933Y3320*
X3940*
X3946Y3322*
X3951Y3325*
X3943Y3333*
X3950Y3340*
X3958Y3332*
X3961Y3336*
X3962Y3343*
Y3349*
X3961Y3356*
X3958Y3360*
X3950Y3352*
X3943Y3359*
X3951Y3367*
X3946Y3370*
X3940Y3372*
G37*
G36*
X3743D02*
X3736D01*
X3730Y3370*
X3725Y3367*
X3733Y3359*
X3726Y3352*
X3718Y3360*
X3716Y3356*
X3714Y3349*
Y3343*
X3716Y3336*
X3718Y3332*
X3726Y3340*
X3733Y3333*
X3725Y3325*
X3730Y3322*
X3736Y3320*
X3743*
X3750Y3322*
X3754Y3325*
X3746Y3333*
X3753Y3340*
X3761Y3332*
X3764Y3336*
X3765Y3343*
Y3349*
X3764Y3356*
X3761Y3360*
X3753Y3352*
X3746Y3359*
X3754Y3367*
X3750Y3370*
X3743Y3372*
G37*
G36*
X3546D02*
X3539D01*
X3533Y3370*
X3528Y3367*
X3537Y3359*
X3529Y3352*
X3521Y3360*
X3519Y3356*
X3517Y3349*
Y3343*
X3519Y3336*
X3521Y3332*
X3529Y3340*
X3537Y3333*
X3528Y3325*
X3533Y3322*
X3539Y3320*
X3546*
X3553Y3322*
X3557Y3325*
X3549Y3333*
X3556Y3340*
X3564Y3332*
X3567Y3336*
X3569Y3343*
Y3349*
X3567Y3356*
X3564Y3360*
X3556Y3352*
X3549Y3359*
X3557Y3367*
X3553Y3370*
X3546Y3372*
G37*
G36*
X3349D02*
X3343D01*
X3336Y3370*
X3332Y3367*
X3340Y3359*
X3333Y3352*
X3325Y3360*
X3322Y3356*
X3320Y3349*
Y3343*
X3322Y3336*
X3325Y3332*
X3333Y3340*
X3340Y3333*
X3332Y3325*
X3336Y3322*
X3343Y3320*
X3349*
X3356Y3322*
X3360Y3325*
X3352Y3333*
X3359Y3340*
X3367Y3332*
X3370Y3336*
X3372Y3343*
Y3349*
X3370Y3356*
X3367Y3360*
X3359Y3352*
X3352Y3359*
X3360Y3367*
X3356Y3370*
X3349Y3372*
G37*
G36*
X3886Y3297D02*
X3877D01*
X3869Y3294*
X3863Y3287*
X3860Y3279*
Y3271*
X3863Y3263*
X3871Y3272*
X3878Y3265*
X3870Y3256*
X3877Y3253*
X3886*
X3894Y3257*
X3900Y3263*
X3903Y3271*
Y3279*
X3900Y3287*
X3892Y3278*
X3885Y3285*
X3893Y3294*
X3886Y3297*
G37*
G36*
X3831D02*
X3822D01*
X3814Y3294*
X3808Y3287*
X3804Y3279*
Y3271*
X3808Y3263*
X3816Y3272*
X3823Y3265*
X3815Y3256*
X3822Y3253*
X3831*
X3839Y3257*
X3845Y3263*
X3848Y3271*
Y3279*
X3845Y3287*
X3837Y3278*
X3830Y3285*
X3838Y3294*
X3831Y3297*
G37*
G36*
X3945Y3296D02*
X3936D01*
X3928Y3292*
X3922Y3286*
X3919Y3278*
Y3270*
X3922Y3262*
X3930Y3271*
X3937Y3263*
X3929Y3255*
X3936Y3252*
X3945*
X3953Y3255*
X3959Y3261*
X3962Y3270*
Y3278*
X3959Y3286*
X3951Y3277*
X3944Y3284*
X3952Y3293*
X3945Y3296*
G37*
G36*
X3139Y3283D02*
X3120D01*
X3102Y3279*
X3085Y3272*
X3069Y3262*
X3066Y3259*
X3074Y3251*
X3067Y3244*
X3059Y3252*
X3056Y3249*
X3046Y3233*
X3038Y3216*
X3035Y3198*
Y3179*
X3038Y3161*
X3046Y3144*
X3056Y3128*
X3059Y3125*
X3067Y3133*
X3074Y3126*
X3066Y3118*
X3069Y3115*
X3085Y3105*
X3102Y3097*
X3120Y3094*
X3139*
X3157Y3097*
X3174Y3105*
X3190Y3115*
X3193Y3118*
X3185Y3126*
X3192Y3133*
X3200Y3125*
X3203Y3128*
X3213Y3144*
X3220Y3161*
X3224Y3179*
Y3198*
X3220Y3216*
X3213Y3233*
X3203Y3249*
X3200Y3252*
X3192Y3244*
X3185Y3251*
X3193Y3259*
X3190Y3262*
X3174Y3272*
X3157Y3279*
X3139Y3283*
G37*
G36*
X4846Y3311D02*
X4759D01*
Y3224*
X4846*
Y3311*
G37*
G36*
X3519Y3226D02*
X3510D01*
X3503Y3222*
X3497Y3217*
X3494Y3209*
Y3201*
X3497Y3193*
X3503Y3187*
X3510Y3184*
X3519*
X3526Y3187*
X3532Y3193*
X3535Y3201*
Y3209*
X3532Y3217*
X3526Y3222*
X3519Y3226*
G37*
G36*
X3634Y3203D02*
X3626D01*
X3618Y3200*
X3612Y3194*
X3609Y3186*
Y3178*
X3612Y3170*
X3618Y3165*
X3626Y3161*
X3634*
X3641Y3165*
X3647Y3170*
X3650Y3178*
Y3186*
X3647Y3194*
X3641Y3200*
X3634Y3203*
G37*
G36*
X4924Y3175D02*
X4917D01*
X4911Y3173*
X4906Y3171*
X4914Y3162*
X4907Y3155*
X4899Y3163*
X4897Y3159*
X4895Y3152*
Y3146*
X4897Y3139*
X4899Y3135*
X4907Y3143*
X4914Y3136*
X4906Y3128*
X4911Y3125*
X4917Y3123*
X4924*
X4931Y3125*
X4935Y3128*
X4927Y3136*
X4934Y3143*
X4942Y3135*
X4945Y3139*
X4947Y3146*
Y3152*
X4945Y3159*
X4942Y3163*
X4934Y3155*
X4927Y3162*
X4935Y3171*
X4931Y3173*
X4924Y3175*
G37*
G36*
X3546D02*
X3539D01*
X3533Y3173*
X3528Y3171*
X3537Y3162*
X3529Y3155*
X3521Y3163*
X3519Y3159*
X3517Y3152*
Y3146*
X3519Y3139*
X3521Y3135*
X3529Y3143*
X3537Y3136*
X3528Y3128*
X3533Y3125*
X3539Y3123*
X3546*
X3553Y3125*
X3557Y3128*
X3549Y3136*
X3556Y3143*
X3564Y3135*
X3567Y3139*
X3569Y3146*
Y3152*
X3567Y3159*
X3564Y3163*
X3556Y3155*
X3549Y3162*
X3557Y3171*
X3553Y3173*
X3546Y3175*
G37*
G36*
X3349D02*
X3343D01*
X3336Y3173*
X3332Y3171*
X3340Y3162*
X3333Y3155*
X3325Y3163*
X3322Y3159*
X3320Y3152*
Y3146*
X3322Y3139*
X3325Y3135*
X3333Y3143*
X3340Y3136*
X3332Y3128*
X3336Y3125*
X3343Y3123*
X3349*
X3356Y3125*
X3360Y3128*
X3352Y3136*
X3359Y3143*
X3367Y3135*
X3370Y3139*
X3372Y3146*
Y3152*
X3370Y3159*
X3367Y3163*
X3359Y3155*
X3352Y3162*
X3360Y3171*
X3356Y3173*
X3349Y3175*
G37*
G36*
X3752Y3177D02*
X3744D01*
X3736Y3173*
X3730Y3168*
X3727Y3160*
Y3152*
X3730Y3144*
X3736Y3138*
X3744Y3135*
X3752*
X3760Y3138*
X3766Y3144*
X3769Y3152*
Y3160*
X3766Y3168*
X3760Y3173*
X3752Y3177*
G37*
%LNpcb1_copper_signal_2-3*%
%LPD*%
G54D50*
X3082Y3733D03*
Y3633D03*
Y3533D03*
G54D51*
X3082Y3433D03*
G54D52*
X4803Y3464D03*
Y3976D03*
G54D53*
X4803Y3267D03*
Y3779D03*
G54D54*
X3300Y3798D03*
X3736Y3495D03*
X3764Y4008D03*
X3861Y3916D03*
X3765Y3826D03*
X3192Y3393D03*
X3736Y3401D03*
X3826Y3275D03*
X3881D03*
X3940Y3274D03*
X4220Y3976D03*
X4251Y4023D03*
Y3929D03*
X3342Y3791D03*
X3379Y3484D03*
X3458D03*
G54D55*
X4597Y4004D03*
X3508Y3682D03*
X3215Y3692D03*
X4921Y3149D03*
Y3346D03*
Y3543D03*
Y3740D03*
X3543Y3346D03*
X3346D03*
Y3149D03*
X3543D03*
X3740Y3346D03*
X3937D03*
X4133D03*
X4330D03*
Y3543D03*
Y3740D03*
X4133D03*
Y3937D03*
X3937D03*
X3346D03*
X3514Y3205D03*
X3630Y3182D03*
X3748Y3156D03*
X4595Y3938D03*
X4599Y3600D03*
X4601Y3482D03*
X4061Y3444D03*
X4020Y3536D03*
X3853Y3705D03*
X3853Y3623D03*
X3676Y3656D03*
G54D56*
X3129Y3188D03*
Y4015D03*
M02*