%FSLAX23Y23*%
%MOIN*%
%SFA1B1*%

%IPPOS*%
%ADD13C,0.019685*%
%ADD50C,0.062992*%
%ADD51R,0.062992X0.062992*%
%ADD52C,0.076771*%
%ADD53R,0.076771X0.076771*%
%ADD54C,0.023622*%
%ADD55C,0.031496*%
%ADD56C,0.169291*%
%LNpcb1_copper_signal_bot-1*%
%LPD*%
G36*
X4645Y3858D02*
X4958D01*
Y3700*
X4645*
Y3464*
X4626*
X4623Y3469*
X4625Y3472*
X4626Y3479*
Y3486*
X4625Y3492*
X4622Y3497*
X4614Y3489*
X4607Y3496*
X4615Y3504*
X4610Y3506*
X4604Y3508*
X4597*
X4591Y3506*
X4586Y3504*
X4594Y3496*
X4587Y3489*
X4579Y3497*
X4577Y3492*
X4575Y3486*
Y3479*
X4577Y3472*
X4578Y3469*
X4576Y3464*
X4448*
Y4015*
X4568*
X4572Y4010*
X4571Y4007*
Y4000*
X4573Y3994*
X4576Y3989*
X4584Y3997*
X4591Y3990*
X4583Y3982*
X4587Y3980*
X4594Y3978*
X4600*
X4607Y3980*
X4611Y3982*
X4603Y3990*
X4610Y3997*
X4618Y3989*
X4621Y3994*
X4623Y4000*
Y4007*
X4622Y4010*
X4626Y4015*
X4645*
Y3858*
G37*
G36*
X4958Y3863D02*
X4651D01*
Y4015*
X4649Y4019*
X4645Y4021*
X4626*
X4625Y4021*
X4625Y4021*
X4623Y4020*
X4622Y4019*
X4622Y4019*
X4621Y4018*
X4620Y4016*
X4618Y4016*
X4614Y4017*
X4609Y4021*
X4601Y4025*
X4593*
X4585Y4021*
X4580Y4017*
X4576Y4016*
X4574Y4016*
X4573Y4018*
X4572Y4019*
X4572Y4019*
X4571Y4020*
X4569Y4021*
X4569Y4021*
X4568Y4021*
X4448*
X4444Y4019*
X4443Y4015*
Y3464*
X4444Y3460*
X4448Y3459*
X4576*
X4576Y3459*
X4577Y3459*
X4578Y3460*
X4579Y3460*
X4580Y3461*
X4580Y3461*
X4582Y3464*
X4587Y3466*
X4588Y3466*
X4589Y3465*
X4596Y3462*
X4605*
X4612Y3465*
X4613Y3466*
X4614Y3466*
X4619Y3464*
X4621Y3461*
X4621Y3461*
X4622Y3460*
X4623Y3460*
X4624Y3459*
X4625Y3459*
X4626Y3459*
X4645*
X4649Y3460*
X4651Y3464*
Y3695*
X4958*
Y3312*
X4851*
X4851Y3312*
X4846Y3311*
X4759*
X4755Y3312*
X4754Y3312*
X4645*
X4641Y3310*
X4640Y3307*
Y3263*
X3964*
X3961Y3267*
X3962Y3270*
Y3278*
X3959Y3286*
X3951Y3277*
X3944Y3284*
X3952Y3293*
X3945Y3296*
X3936*
X3928Y3292*
X3922Y3286*
X3919Y3278*
Y3270*
X3920Y3267*
X3917Y3263*
X3904*
X3902Y3267*
X3903Y3271*
Y3279*
X3900Y3287*
X3892Y3278*
X3885Y3285*
X3893Y3294*
X3886Y3297*
X3877*
X3869Y3294*
X3863Y3287*
X3860Y3279*
Y3271*
X3861Y3267*
X3858Y3263*
X3849*
X3847Y3267*
X3848Y3271*
Y3279*
X3845Y3287*
X3837Y3278*
X3830Y3285*
X3838Y3294*
X3831Y3297*
X3822*
X3814Y3294*
X3808Y3287*
X3804Y3279*
Y3271*
X3806Y3267*
X3803Y3263*
X3267*
X3263Y3261*
X3262Y3257*
Y3070*
X3263Y3068*
X3261Y3063*
X3014*
Y4141*
X4958*
Y3863*
G37*
G36*
Y3070D02*
X3267D01*
Y3257*
X3936*
X3937Y3257*
X3944*
X3945Y3257*
X4645*
Y3307*
X4754*
Y3272*
X4765*
Y3262*
X4754*
Y3219*
X4798*
Y3230*
X4808*
Y3219*
X4851*
Y3262*
X4840*
Y3272*
X4851*
Y3307*
X4958*
Y3070*
G37*
%LNpcb1_copper_signal_bot-2*%
%LPC*%
G36*
X4598Y3964D02*
X4591D01*
X4585Y3962*
X4580Y3960*
X4588Y3952*
X4581Y3945*
X4573Y3953*
X4571Y3948*
X4569Y3942*
Y3935*
X4571Y3928*
X4573Y3924*
X4581Y3932*
X4588Y3925*
X4580Y3917*
X4585Y3914*
X4591Y3913*
X4598*
X4605Y3914*
X4609Y3917*
X4601Y3925*
X4608Y3932*
X4616Y3924*
X4619Y3928*
X4620Y3935*
Y3942*
X4619Y3948*
X4616Y3953*
X4608Y3945*
X4601Y3952*
X4609Y3960*
X4605Y3962*
X4598Y3964*
G37*
G36*
X4851Y3827D02*
X4808D01*
Y3816*
X4798*
Y3827*
X4754*
Y3784*
X4765*
Y3774*
X4754*
Y3731*
X4798*
Y3742*
X4808*
Y3731*
X4851*
Y3774*
X4840*
Y3784*
X4851*
Y3827*
G37*
G36*
X4925Y3760D02*
X4917D01*
X4909Y3757*
X4903Y3751*
X4900Y3744*
Y3736*
X4903Y3728*
X4909Y3722*
X4917Y3719*
X4925*
X4933Y3722*
X4938Y3728*
X4942Y3736*
Y3744*
X4938Y3751*
X4933Y3757*
X4925Y3760*
G37*
G36*
X4603Y3626D02*
X4596D01*
X4589Y3624*
X4585Y3621*
X4593Y3613*
X4586Y3606*
X4578Y3614*
X4575Y3610*
X4573Y3603*
Y3597*
X4575Y3590*
X4578Y3586*
X4586Y3594*
X4593Y3587*
X4585Y3578*
X4589Y3576*
X4596Y3574*
X4603*
X4609Y3576*
X4614Y3578*
X4605Y3587*
X4612Y3594*
X4621Y3586*
X4623Y3590*
X4625Y3597*
Y3603*
X4623Y3610*
X4621Y3614*
X4612Y3606*
X4605Y3613*
X4614Y3621*
X4609Y3624*
X4603Y3626*
G37*
G36*
X3139Y4110D02*
X3120D01*
X3102Y4106*
X3085Y4099*
X3069Y4089*
X3066Y4086*
X3074Y4078*
X3067Y4071*
X3059Y4079*
X3056Y4076*
X3046Y4060*
X3038Y4043*
X3035Y4025*
Y4006*
X3038Y3988*
X3046Y3970*
X3056Y3955*
X3059Y3952*
X3067Y3960*
X3074Y3953*
X3066Y3945*
X3069Y3942*
X3085Y3931*
X3102Y3924*
X3120Y3921*
X3139*
X3157Y3924*
X3174Y3931*
X3190Y3942*
X3193Y3945*
X3185Y3953*
X3192Y3960*
X3200Y3952*
X3203Y3955*
X3213Y3970*
X3220Y3988*
X3224Y4006*
Y4025*
X3220Y4043*
X3213Y4060*
X3203Y4076*
X3200Y4079*
X3192Y4071*
X3185Y4078*
X3193Y4086*
X3190Y4089*
X3174Y4099*
X3157Y4106*
X3139Y4110*
G37*
G36*
X4256Y4045D02*
X4247D01*
X4239Y4042*
X4233Y4035*
X4230Y4027*
Y4019*
X4233Y4011*
X4241Y4020*
X4248Y4013*
X4240Y4004*
X4247Y4001*
X4256*
X4264Y4005*
X4270Y4011*
X4273Y4019*
Y4027*
X4270Y4035*
X4262Y4026*
X4255Y4033*
X4263Y4042*
X4256Y4045*
G37*
G36*
X4809Y4024D02*
X4796D01*
X4784Y4021*
X4773Y4015*
X4772Y4014*
X4780Y4006*
X4773Y3998*
X4765Y4007*
X4764Y4006*
X4758Y3995*
X4754Y3982*
Y3970*
X4758Y3957*
X4764Y3946*
X4765Y3945*
X4773Y3953*
X4780Y3946*
X4772Y3938*
X4773Y3937*
X4784Y3931*
X4796Y3927*
X4809*
X4821Y3931*
X4832Y3937*
X4833Y3938*
X4825Y3946*
X4832Y3953*
X4840Y3945*
X4841Y3946*
X4848Y3957*
X4851Y3970*
Y3982*
X4848Y3995*
X4841Y4006*
X4840Y4007*
X4832Y3998*
X4825Y4006*
X4833Y4014*
X4832Y4015*
X4821Y4021*
X4809Y4024*
G37*
G36*
X3768Y4030D02*
X3760D01*
X3752Y4027*
X3745Y4021*
X3742Y4013*
Y4004*
X3745Y3997*
X3754Y4005*
X3761Y3998*
X3752Y3990*
X3760Y3986*
X3768*
X3776Y3990*
X3782Y3996*
X3786Y4004*
Y4013*
X3783Y4020*
X3774Y4012*
X3767Y4019*
X3776Y4027*
X3768Y4030*
G37*
G36*
X4224Y3998D02*
X4216D01*
X4208Y3994*
X4201Y3988*
X4198Y3980*
Y3972*
X4201Y3964*
X4210Y3973*
X4217Y3966*
X4208Y3957*
X4216Y3954*
X4224*
X4232Y3957*
X4238Y3964*
X4242Y3972*
Y3980*
X4239Y3988*
X4230Y3979*
X4223Y3986*
X4232Y3995*
X4224Y3998*
G37*
G36*
X4137Y3962D02*
X4130D01*
X4123Y3961*
X4119Y3958*
X4127Y3950*
X4120Y3943*
X4112Y3951*
X4109Y3946*
X4108Y3940*
Y3933*
X4109Y3927*
X4112Y3922*
X4120Y3930*
X4127Y3923*
X4119Y3915*
X4123Y3913*
X4130Y3911*
X4137*
X4143Y3913*
X4148Y3915*
X4140Y3923*
X4147Y3930*
X4155Y3922*
X4157Y3927*
X4159Y3933*
Y3940*
X4157Y3946*
X4155Y3951*
X4147Y3943*
X4140Y3950*
X4148Y3958*
X4143Y3961*
X4137Y3962*
G37*
G36*
X3940D02*
X3933D01*
X3927Y3961*
X3922Y3958*
X3930Y3950*
X3923Y3943*
X3915Y3951*
X3913Y3946*
X3911Y3940*
Y3933*
X3913Y3927*
X3915Y3922*
X3923Y3930*
X3930Y3923*
X3922Y3915*
X3927Y3913*
X3933Y3911*
X3940*
X3946Y3913*
X3951Y3915*
X3943Y3923*
X3950Y3930*
X3958Y3922*
X3961Y3927*
X3962Y3933*
Y3940*
X3961Y3946*
X3958Y3951*
X3950Y3943*
X3943Y3950*
X3951Y3958*
X3946Y3961*
X3940Y3962*
G37*
G36*
X3349D02*
X3343D01*
X3336Y3961*
X3332Y3958*
X3340Y3950*
X3333Y3943*
X3325Y3951*
X3322Y3946*
X3320Y3940*
Y3933*
X3322Y3927*
X3325Y3922*
X3333Y3930*
X3340Y3923*
X3332Y3915*
X3336Y3913*
X3343Y3911*
X3349*
X3356Y3913*
X3360Y3915*
X3352Y3923*
X3359Y3930*
X3367Y3922*
X3370Y3927*
X3372Y3933*
Y3940*
X3370Y3946*
X3367Y3951*
X3359Y3943*
X3352Y3950*
X3360Y3958*
X3356Y3961*
X3349Y3962*
G37*
G36*
X4256Y3950D02*
X4247D01*
X4239Y3947*
X4233Y3941*
X4230Y3933*
Y3924*
X4233Y3917*
X4241Y3925*
X4248Y3918*
X4240Y3910*
X4247Y3907*
X4256*
X4264Y3910*
X4270Y3916*
X4273Y3924*
Y3933*
X4270Y3940*
X4262Y3932*
X4255Y3939*
X4263Y3947*
X4256Y3950*
G37*
G36*
X3866Y3937D02*
X3857D01*
X3849Y3934*
X3843Y3928*
X3840Y3920*
Y3911*
X3843Y3904*
X3851Y3912*
X3858Y3905*
X3850Y3897*
X3857Y3894*
X3866*
X3874Y3897*
X3880Y3903*
X3883Y3911*
Y3920*
X3880Y3927*
X3872Y3919*
X3865Y3926*
X3873Y3934*
X3866Y3937*
G37*
G36*
X3770Y3848D02*
X3761D01*
X3753Y3845*
X3747Y3838*
X3743Y3830*
Y3822*
X3747Y3814*
X3755Y3823*
X3762Y3816*
X3754Y3807*
X3761Y3804*
X3770*
X3778Y3808*
X3784Y3814*
X3787Y3822*
Y3830*
X3784Y3838*
X3776Y3829*
X3769Y3836*
X3777Y3845*
X3770Y3848*
G37*
G36*
X3305Y3820D02*
X3296D01*
X3288Y3816*
X3282Y3810*
X3279Y3802*
Y3794*
X3282Y3786*
X3290Y3795*
X3297Y3788*
X3289Y3779*
X3296Y3776*
X3305*
X3313Y3779*
X3316Y3783*
X3322Y3782*
X3323Y3779*
X3332Y3788*
X3339Y3780*
X3330Y3772*
X3338Y3769*
X3346*
X3354Y3772*
X3361Y3778*
X3364Y3787*
Y3795*
X3361Y3803*
X3352Y3794*
X3345Y3801*
X3354Y3810*
X3346Y3813*
X3338*
X3330Y3809*
X3326Y3806*
X3320Y3807*
X3319Y3810*
X3311Y3801*
X3304Y3808*
X3312Y3817*
X3305Y3820*
G37*
G36*
X4334Y3765D02*
X4327D01*
X4320Y3764*
X4316Y3761*
X4324Y3753*
X4317Y3746*
X4309Y3754*
X4306Y3750*
X4304Y3743*
Y3736*
X4306Y3730*
X4309Y3725*
X4317Y3733*
X4324Y3726*
X4316Y3718*
X4320Y3716*
X4327Y3714*
X4334*
X4340Y3716*
X4345Y3718*
X4336Y3726*
X4344Y3733*
X4352Y3725*
X4354Y3730*
X4356Y3736*
Y3743*
X4354Y3750*
X4352Y3754*
X4344Y3746*
X4336Y3753*
X4345Y3761*
X4340Y3764*
X4334Y3765*
G37*
G36*
X4137D02*
X4130D01*
X4123Y3764*
X4119Y3761*
X4127Y3753*
X4120Y3746*
X4112Y3754*
X4109Y3750*
X4108Y3743*
Y3736*
X4109Y3730*
X4112Y3725*
X4120Y3733*
X4127Y3726*
X4119Y3718*
X4123Y3716*
X4130Y3714*
X4137*
X4143Y3716*
X4148Y3718*
X4140Y3726*
X4147Y3733*
X4155Y3725*
X4157Y3730*
X4159Y3736*
Y3743*
X4157Y3750*
X4155Y3754*
X4147Y3746*
X4140Y3753*
X4148Y3761*
X4143Y3764*
X4137Y3765*
G37*
G36*
X3218Y3717D02*
X3212D01*
X3205Y3716*
X3201Y3713*
X3209Y3705*
X3202Y3698*
X3193Y3706*
X3191Y3701*
X3189Y3695*
Y3688*
X3191Y3682*
X3193Y3677*
X3202Y3685*
X3209Y3678*
X3201Y3670*
X3205Y3668*
X3212Y3666*
X3218*
X3225Y3668*
X3229Y3670*
X3221Y3678*
X3228Y3685*
X3236Y3677*
X3239Y3682*
X3241Y3688*
Y3695*
X3239Y3701*
X3236Y3706*
X3228Y3698*
X3221Y3705*
X3229Y3713*
X3225Y3716*
X3218Y3717*
G37*
G36*
X3087Y3770D02*
X3077D01*
X3068Y3767*
X3060Y3763*
X3053Y3756*
X3048Y3747*
X3046Y3738*
Y3729*
X3048Y3719*
X3053Y3711*
X3060Y3704*
X3068Y3699*
X3077Y3697*
X3087*
X3096Y3699*
X3105Y3704*
X3111Y3711*
X3116Y3719*
X3119Y3729*
Y3738*
X3116Y3747*
X3111Y3756*
X3105Y3763*
X3096Y3767*
X3087Y3770*
G37*
G36*
X3858Y3726D02*
X3849D01*
X3842Y3723*
X3836Y3717*
X3833Y3709*
Y3709*
X3831Y3708*
X3828Y3706*
X3543*
X3539Y3704*
X3537Y3700*
Y3692*
X3532Y3691*
X3532Y3691*
X3530Y3696*
X3522Y3688*
X3515Y3695*
X3523Y3703*
X3518Y3706*
X3512Y3707*
X3505*
X3498Y3706*
X3494Y3703*
X3502Y3695*
X3495Y3688*
X3487Y3696*
X3484Y3691*
X3483Y3685*
Y3678*
X3484Y3672*
X3487Y3667*
X3495Y3675*
X3502Y3668*
X3494Y3660*
X3498Y3658*
X3505Y3656*
X3512*
X3518Y3658*
X3523Y3660*
X3515Y3668*
X3522Y3675*
X3530Y3667*
X3532Y3672*
X3532Y3672*
X3537Y3671*
Y3622*
X3539Y3618*
X3543Y3616*
X3827*
X3831Y3618*
X3834Y3614*
X3836Y3611*
X3841Y3605*
X3849Y3602*
X3857*
X3865Y3605*
X3871Y3611*
X3872Y3614*
X3875Y3618*
X3879Y3616*
X4015*
X4019Y3618*
X4021Y3622*
Y3700*
X4019Y3704*
X4015Y3706*
X3879*
X3876Y3708*
X3874Y3709*
Y3709*
X3871Y3717*
X3865Y3723*
X3858Y3726*
G37*
G36*
X3087Y3670D02*
X3077D01*
X3068Y3667*
X3060Y3663*
X3053Y3656*
X3048Y3647*
X3046Y3638*
Y3629*
X3048Y3619*
X3053Y3611*
X3060Y3604*
X3068Y3599*
X3077Y3597*
X3087*
X3096Y3599*
X3105Y3604*
X3111Y3611*
X3116Y3619*
X3119Y3629*
Y3638*
X3116Y3647*
X3111Y3656*
X3105Y3663*
X3096Y3667*
X3087Y3670*
G37*
G36*
X3088Y3575D02*
X3077D01*
X3066Y3572*
X3057Y3567*
X3056Y3566*
X3064Y3558*
X3057Y3551*
X3049Y3559*
X3049Y3559*
X3044Y3549*
X3041Y3539*
Y3528*
X3044Y3517*
X3049Y3508*
X3049Y3508*
X3057Y3516*
X3064Y3509*
X3056Y3500*
X3057Y3500*
X3066Y3495*
X3077Y3492*
X3088*
X3098Y3495*
X3108Y3500*
X3108Y3500*
X3100Y3509*
X3107Y3516*
X3115Y3508*
X3115Y3508*
X3121Y3517*
X3124Y3528*
Y3539*
X3121Y3549*
X3115Y3559*
X3115Y3559*
X3107Y3551*
X3100Y3558*
X3108Y3566*
X3108Y3567*
X3098Y3572*
X3088Y3575*
G37*
G36*
X4924Y3569D02*
X4917D01*
X4911Y3567*
X4906Y3564*
X4914Y3556*
X4907Y3549*
X4899Y3557*
X4897Y3553*
X4895Y3546*
Y3539*
X4897Y3533*
X4899Y3528*
X4907Y3537*
X4914Y3529*
X4906Y3521*
X4911Y3519*
X4917Y3517*
X4924*
X4931Y3519*
X4935Y3521*
X4927Y3529*
X4934Y3537*
X4942Y3528*
X4945Y3533*
X4947Y3539*
Y3546*
X4945Y3553*
X4942Y3557*
X4934Y3549*
X4927Y3556*
X4935Y3564*
X4931Y3567*
X4924Y3569*
G37*
G36*
X4334D02*
X4327D01*
X4320Y3567*
X4316Y3564*
X4324Y3556*
X4317Y3549*
X4309Y3557*
X4306Y3553*
X4304Y3546*
Y3539*
X4306Y3533*
X4309Y3528*
X4317Y3537*
X4324Y3529*
X4316Y3521*
X4320Y3519*
X4327Y3517*
X4334*
X4340Y3519*
X4345Y3521*
X4336Y3529*
X4344Y3537*
X4352Y3528*
X4354Y3533*
X4356Y3539*
Y3546*
X4354Y3553*
X4352Y3557*
X4344Y3549*
X4336Y3556*
X4345Y3564*
X4340Y3567*
X4334Y3569*
G37*
G36*
X4024Y3556D02*
X4016D01*
X4008Y3553*
X4002Y3547*
X4002Y3546*
X3996Y3545*
X3996Y3546*
X3995Y3546*
X3995Y3547*
X3993Y3547*
X3992Y3548*
X3992Y3548*
X3991Y3548*
X3858*
X3854Y3547*
X3852Y3543*
Y3425*
X3854Y3421*
X3858Y3419*
X4037*
X4037Y3420*
X4038Y3420*
X4039Y3420*
X4040Y3421*
X4041Y3422*
X4041Y3422*
X4043Y3425*
X4048Y3427*
X4048Y3426*
X4049Y3426*
X4056Y3423*
X4065*
X4072Y3426*
X4073Y3426*
X4073Y3427*
X4078Y3425*
X4080Y3422*
X4080Y3422*
X4081Y3421*
X4082Y3420*
X4083Y3420*
X4084Y3420*
X4084Y3419*
X4173*
X4177Y3421*
X4178Y3425*
Y3543*
X4177Y3547*
X4173Y3548*
X4048*
X4048Y3548*
X4048Y3548*
X4046Y3547*
X4045Y3547*
X4044Y3546*
X4044Y3546*
X4044Y3545*
X4038Y3546*
X4037Y3547*
X4032Y3553*
X4024Y3556*
G37*
G36*
X3462Y3501D02*
X3455D01*
X3451Y3499*
X3387*
X3383Y3501*
X3376*
X3370Y3498*
X3365Y3493*
X3363Y3487*
Y3480*
X3365Y3474*
X3370Y3470*
X3376Y3467*
X3383*
X3387Y3469*
X3451*
X3455Y3467*
X3462*
X3468Y3470*
X3472Y3474*
X3475Y3480*
Y3487*
X3472Y3493*
X3468Y3498*
X3462Y3501*
G37*
G36*
X4809Y3512D02*
X4796D01*
X4784Y3509*
X4773Y3503*
X4772Y3502*
X4780Y3494*
X4773Y3487*
X4765Y3495*
X4764Y3494*
X4758Y3483*
X4754Y3470*
Y3458*
X4758Y3445*
X4764Y3434*
X4765Y3433*
X4773Y3441*
X4780Y3434*
X4772Y3426*
X4773Y3425*
X4784Y3419*
X4796Y3416*
X4809*
X4821Y3419*
X4832Y3425*
X4833Y3426*
X4825Y3434*
X4832Y3441*
X4840Y3433*
X4841Y3434*
X4848Y3445*
X4851Y3458*
Y3470*
X4848Y3483*
X4841Y3494*
X4840Y3495*
X4832Y3487*
X4825Y3494*
X4833Y3502*
X4832Y3503*
X4821Y3509*
X4809Y3512*
G37*
G36*
X3740Y3517D02*
X3731D01*
X3723Y3514*
X3717Y3508*
X3714Y3500*
Y3491*
X3717Y3484*
X3725Y3492*
X3732Y3485*
X3724Y3477*
X3731Y3474*
X3740*
X3748Y3477*
X3754Y3483*
X3757Y3491*
Y3500*
X3754Y3507*
X3746Y3499*
X3739Y3506*
X3747Y3514*
X3740Y3517*
G37*
G36*
X3124Y3475D02*
X3087D01*
Y3464*
X3077*
Y3475*
X3041*
Y3438*
X3052*
Y3428*
X3041*
Y3392*
X3077*
Y3403*
X3087*
Y3392*
X3124*
Y3428*
X3113*
Y3438*
X3124*
Y3475*
G37*
G36*
X3740Y3423D02*
X3731D01*
X3723Y3420*
X3717Y3413*
X3714Y3405*
Y3397*
X3717Y3389*
X3725Y3398*
X3732Y3391*
X3724Y3382*
X3731Y3379*
X3740*
X3748Y3383*
X3754Y3389*
X3758Y3397*
Y3405*
X3754Y3413*
X3746Y3404*
X3739Y3411*
X3747Y3420*
X3740Y3423*
G37*
G36*
X3197Y3415D02*
X3188D01*
X3180Y3412*
X3174Y3406*
X3171Y3398*
Y3389*
X3174Y3382*
X3182Y3390*
X3189Y3383*
X3181Y3374*
X3188Y3371*
X3197*
X3205Y3375*
X3211Y3381*
X3214Y3389*
Y3398*
X3211Y3405*
X3203Y3396*
X3196Y3404*
X3204Y3412*
X3197Y3415*
G37*
G36*
X4924Y3372D02*
X4917D01*
X4911Y3370*
X4906Y3367*
X4914Y3359*
X4907Y3352*
X4899Y3360*
X4897Y3356*
X4895Y3349*
Y3343*
X4897Y3336*
X4899Y3332*
X4907Y3340*
X4914Y3333*
X4906Y3325*
X4911Y3322*
X4917Y3320*
X4924*
X4931Y3322*
X4935Y3325*
X4927Y3333*
X4934Y3340*
X4942Y3332*
X4945Y3336*
X4947Y3343*
Y3349*
X4945Y3356*
X4942Y3360*
X4934Y3352*
X4927Y3359*
X4935Y3367*
X4931Y3370*
X4924Y3372*
G37*
G36*
X4334D02*
X4327D01*
X4320Y3370*
X4316Y3367*
X4324Y3359*
X4317Y3352*
X4309Y3360*
X4306Y3356*
X4304Y3349*
Y3343*
X4306Y3336*
X4309Y3332*
X4317Y3340*
X4324Y3333*
X4316Y3325*
X4320Y3322*
X4327Y3320*
X4334*
X4340Y3322*
X4345Y3325*
X4336Y3333*
X4344Y3340*
X4352Y3332*
X4354Y3336*
X4356Y3343*
Y3349*
X4354Y3356*
X4352Y3360*
X4344Y3352*
X4336Y3359*
X4345Y3367*
X4340Y3370*
X4334Y3372*
G37*
G36*
X4137D02*
X4130D01*
X4123Y3370*
X4119Y3367*
X4127Y3359*
X4120Y3352*
X4112Y3360*
X4109Y3356*
X4108Y3349*
Y3343*
X4109Y3336*
X4112Y3332*
X4120Y3340*
X4127Y3333*
X4119Y3325*
X4123Y3322*
X4130Y3320*
X4137*
X4143Y3322*
X4148Y3325*
X4140Y3333*
X4147Y3340*
X4155Y3332*
X4157Y3336*
X4159Y3343*
Y3349*
X4157Y3356*
X4155Y3360*
X4147Y3352*
X4140Y3359*
X4148Y3367*
X4143Y3370*
X4137Y3372*
G37*
G36*
X3940D02*
X3933D01*
X3927Y3370*
X3922Y3367*
X3930Y3359*
X3923Y3352*
X3915Y3360*
X3913Y3356*
X3911Y3349*
Y3343*
X3913Y3336*
X3915Y3332*
X3923Y3340*
X3930Y3333*
X3922Y3325*
X3927Y3322*
X3933Y3320*
X3940*
X3946Y3322*
X3951Y3325*
X3943Y3333*
X3950Y3340*
X3958Y3332*
X3961Y3336*
X3962Y3343*
Y3349*
X3961Y3356*
X3958Y3360*
X3950Y3352*
X3943Y3359*
X3951Y3367*
X3946Y3370*
X3940Y3372*
G37*
G36*
X3743D02*
X3736D01*
X3730Y3370*
X3725Y3367*
X3733Y3359*
X3726Y3352*
X3718Y3360*
X3716Y3356*
X3714Y3349*
Y3343*
X3716Y3336*
X3718Y3332*
X3726Y3340*
X3733Y3333*
X3725Y3325*
X3730Y3322*
X3736Y3320*
X3743*
X3750Y3322*
X3754Y3325*
X3746Y3333*
X3753Y3340*
X3761Y3332*
X3764Y3336*
X3765Y3343*
Y3349*
X3764Y3356*
X3761Y3360*
X3753Y3352*
X3746Y3359*
X3754Y3367*
X3750Y3370*
X3743Y3372*
G37*
G36*
X3546D02*
X3539D01*
X3533Y3370*
X3528Y3367*
X3537Y3359*
X3529Y3352*
X3521Y3360*
X3519Y3356*
X3517Y3349*
Y3343*
X3519Y3336*
X3521Y3332*
X3529Y3340*
X3537Y3333*
X3528Y3325*
X3533Y3322*
X3539Y3320*
X3546*
X3553Y3322*
X3557Y3325*
X3549Y3333*
X3556Y3340*
X3564Y3332*
X3567Y3336*
X3569Y3343*
Y3349*
X3567Y3356*
X3564Y3360*
X3556Y3352*
X3549Y3359*
X3557Y3367*
X3553Y3370*
X3546Y3372*
G37*
G36*
X3349D02*
X3343D01*
X3336Y3370*
X3332Y3367*
X3340Y3359*
X3333Y3352*
X3325Y3360*
X3322Y3356*
X3320Y3349*
Y3343*
X3322Y3336*
X3325Y3332*
X3333Y3340*
X3340Y3333*
X3332Y3325*
X3336Y3322*
X3343Y3320*
X3349*
X3356Y3322*
X3360Y3325*
X3352Y3333*
X3359Y3340*
X3367Y3332*
X3370Y3336*
X3372Y3343*
Y3349*
X3370Y3356*
X3367Y3360*
X3359Y3352*
X3352Y3359*
X3360Y3367*
X3356Y3370*
X3349Y3372*
G37*
G36*
X3139Y3283D02*
X3120D01*
X3102Y3279*
X3085Y3272*
X3069Y3262*
X3066Y3259*
X3074Y3251*
X3067Y3244*
X3059Y3252*
X3056Y3249*
X3046Y3233*
X3038Y3216*
X3035Y3198*
Y3179*
X3038Y3161*
X3046Y3144*
X3056Y3128*
X3059Y3125*
X3067Y3133*
X3074Y3126*
X3066Y3118*
X3069Y3115*
X3085Y3105*
X3102Y3097*
X3120Y3094*
X3139*
X3157Y3097*
X3174Y3105*
X3190Y3115*
X3193Y3118*
X3185Y3126*
X3192Y3133*
X3200Y3125*
X3203Y3128*
X3213Y3144*
X3220Y3161*
X3224Y3179*
Y3198*
X3220Y3216*
X3213Y3233*
X3203Y3249*
X3200Y3252*
X3192Y3244*
X3185Y3251*
X3193Y3259*
X3190Y3262*
X3174Y3272*
X3157Y3279*
X3139Y3283*
G37*
%LNpcb1_copper_signal_bot-3*%
%LPD*%
G36*
X4015Y3622D02*
X3879D01*
Y3626*
X3877Y3633*
X3875Y3637*
X3866Y3629*
X3859Y3636*
X3867Y3644*
X3863Y3647*
X3857Y3649*
X3850*
X3843Y3647*
X3839Y3644*
X3847Y3636*
X3840Y3629*
X3832Y3637*
X3829Y3633*
X3827Y3626*
Y3622*
X3543*
Y3700*
X3828*
X3829Y3695*
X3832Y3691*
X3840Y3699*
X3847Y3692*
X3839Y3684*
X3844Y3681*
X3850Y3679*
X3857*
X3863Y3681*
X3868Y3684*
X3860Y3692*
X3867Y3699*
X3875Y3691*
X3877Y3695*
X3879Y3700*
X4015*
Y3622*
G37*
%LNpcb1_copper_signal_bot-4*%
%LPC*%
G36*
X3679Y3682D02*
X3672D01*
X3666Y3680*
X3661Y3677*
X3669Y3669*
X3662Y3662*
X3654Y3670*
X3652Y3666*
X3650Y3659*
Y3653*
X3652Y3646*
X3654Y3642*
X3662Y3650*
X3669Y3643*
X3661Y3634*
X3666Y3632*
X3672Y3630*
X3679*
X3686Y3632*
X3690Y3634*
X3682Y3643*
X3689Y3650*
X3697Y3642*
X3700Y3646*
X3701Y3653*
Y3659*
X3700Y3666*
X3697Y3670*
X3689Y3662*
X3682Y3669*
X3690Y3677*
X3686Y3680*
X3679Y3682*
G37*
%LNpcb1_copper_signal_bot-5*%
%LPD*%
G36*
X4173Y3425D02*
X4084D01*
X4082Y3430*
X4085Y3434*
X4086Y3440*
Y3447*
X4085Y3454*
X4082Y3458*
X4074Y3450*
X4067Y3457*
X4075Y3465*
X4070Y3468*
X4064Y3469*
X4057*
X4051Y3468*
X4046Y3465*
X4054Y3457*
X4047Y3450*
X4039Y3458*
X4037Y3454*
X4035Y3447*
Y3440*
X4037Y3434*
X4039Y3430*
X4037Y3425*
X3858*
Y3543*
X3991*
X3994Y3539*
Y3532*
X3996Y3526*
X3998Y3521*
X4006Y3529*
X4014Y3522*
X4005Y3514*
X4010Y3512*
X4016Y3510*
X4023*
X4030Y3512*
X4034Y3514*
X4026Y3522*
X4033Y3529*
X4041Y3521*
X4044Y3526*
X4046Y3532*
Y3539*
X4048Y3543*
X4173*
Y3425*
G37*
%LNpcb1_copper_signal_bot-6*%
%LPC*%
G36*
X3518Y3231D02*
X3511D01*
X3505Y3229*
X3500Y3226*
X3508Y3218*
X3501Y3211*
X3493Y3219*
X3490Y3215*
X3489Y3208*
Y3201*
X3490Y3195*
X3493Y3190*
X3501Y3199*
X3508Y3192*
X3500Y3183*
X3505Y3181*
X3511Y3179*
X3518*
X3524Y3181*
X3529Y3183*
X3521Y3192*
X3528Y3199*
X3536Y3190*
X3538Y3195*
X3540Y3201*
Y3208*
X3538Y3215*
X3536Y3219*
X3528Y3211*
X3521Y3218*
X3529Y3226*
X3524Y3229*
X3518Y3231*
G37*
G36*
X3633Y3208D02*
X3626D01*
X3620Y3206*
X3615Y3204*
X3623Y3195*
X3616Y3188*
X3608Y3196*
X3606Y3192*
X3604Y3185*
Y3179*
X3606Y3172*
X3608Y3168*
X3616Y3176*
X3623Y3169*
X3615Y3161*
X3620Y3158*
X3626Y3156*
X3633*
X3640Y3158*
X3644Y3161*
X3636Y3169*
X3643Y3176*
X3651Y3168*
X3654Y3172*
X3655Y3179*
Y3185*
X3654Y3192*
X3651Y3196*
X3643Y3188*
X3636Y3195*
X3644Y3204*
X3640Y3206*
X3633Y3208*
G37*
G36*
X3751Y3182D02*
X3745D01*
X3738Y3180*
X3734Y3177*
X3742Y3169*
X3735Y3162*
X3727Y3170*
X3724Y3166*
X3722Y3159*
Y3152*
X3724Y3146*
X3727Y3141*
X3735Y3149*
X3742Y3142*
X3734Y3134*
X3738Y3132*
X3745Y3130*
X3751*
X3758Y3132*
X3762Y3134*
X3754Y3142*
X3761Y3149*
X3769Y3141*
X3772Y3146*
X3774Y3152*
Y3159*
X3772Y3166*
X3769Y3170*
X3761Y3162*
X3754Y3169*
X3762Y3177*
X3758Y3180*
X3751Y3182*
G37*
G36*
X4925Y3170D02*
X4917D01*
X4909Y3167*
X4903Y3161*
X4900Y3153*
Y3145*
X4903Y3137*
X4909Y3132*
X4917Y3128*
X4925*
X4933Y3132*
X4938Y3137*
X4942Y3145*
Y3153*
X4938Y3161*
X4933Y3167*
X4925Y3170*
G37*
G36*
X3547D02*
X3539D01*
X3531Y3167*
X3525Y3161*
X3522Y3153*
Y3145*
X3525Y3137*
X3531Y3132*
X3539Y3128*
X3547*
X3555Y3132*
X3560Y3137*
X3564Y3145*
Y3153*
X3560Y3161*
X3555Y3167*
X3547Y3170*
G37*
G36*
X3350D02*
X3342D01*
X3334Y3167*
X3328Y3161*
X3325Y3153*
Y3145*
X3328Y3137*
X3334Y3132*
X3342Y3128*
X3350*
X3358Y3132*
X3364Y3137*
X3367Y3145*
Y3153*
X3364Y3161*
X3358Y3167*
X3350Y3170*
G37*
%LNpcb1_copper_signal_bot-7*%
%LPD*%
G54D13*
X3379Y3484D02*
X3458D01*
G54D50*
X3082Y3733D03*
Y3633D03*
Y3533D03*
G54D51*
X3082Y3433D03*
G54D52*
X4803Y3464D03*
Y3976D03*
G54D53*
X4803Y3267D03*
Y3779D03*
G54D54*
X3300Y3798D03*
X3736Y3495D03*
X3764Y4008D03*
X3861Y3916D03*
X3765Y3826D03*
X3192Y3393D03*
X3736Y3401D03*
X3826Y3275D03*
X3881D03*
X3940Y3274D03*
X4220Y3976D03*
X4251Y4023D03*
Y3929D03*
X3342Y3791D03*
X3379Y3484D03*
X3458D03*
G54D55*
X4597Y4004D03*
X3508Y3682D03*
X3215Y3692D03*
X4921Y3149D03*
Y3346D03*
Y3543D03*
Y3740D03*
X3543Y3346D03*
X3346D03*
Y3149D03*
X3543D03*
X3740Y3346D03*
X3937D03*
X4133D03*
X4330D03*
Y3543D03*
Y3740D03*
X4133D03*
Y3937D03*
X3937D03*
X3346D03*
X3514Y3205D03*
X3630Y3182D03*
X3748Y3156D03*
X4595Y3938D03*
X4599Y3600D03*
X4601Y3482D03*
X4061Y3444D03*
X4020Y3536D03*
X3853Y3705D03*
X3853Y3623D03*
X3676Y3656D03*
G54D56*
X3129Y3188D03*
Y4015D03*
M02*