%FSLAX23Y23*%
%MOIN*%
%SFA1B1*%

%IPPOS*%
%ADD14R,0.035433X0.027559*%
%ADD15R,0.039370X0.039370*%
%ADD16R,0.027559X0.035433*%
%ADD17R,0.139764X0.137795*%
%ADD18R,0.137795X0.139764*%
%ADD19R,0.051181X0.057087*%
%ADD20R,0.017716X0.017716*%
%ADD21R,0.096457X0.040787*%
%ADD22R,0.096457X0.022126*%
%ADD23R,0.057087X0.051181*%
%ADD24R,0.027559X0.060039*%
%ADD25R,0.137795X0.062992*%
%ADD26R,0.122047X0.212598*%
%LNpcb1_paste_top-1*%
%LPD*%
G54D14*
X3312Y3457D03*
Y3392D03*
X3740Y3622D03*
Y3556D03*
Y3772D03*
Y3707D03*
G54D15*
X3381Y3405D03*
X3439D03*
G54D16*
X3485Y3751D03*
X3550D03*
X3495Y3484D03*
X3560D03*
G54D17*
X3765Y3917D03*
X3602D03*
G54D18*
X3937Y3500D03*
Y3664D03*
G54D19*
X3737Y3444D03*
X3664D03*
G54D20*
X3563Y3567D03*
X3589D03*
X3615D03*
X3640D03*
Y3676D03*
X3615D03*
X3589D03*
X3563D03*
G54D21*
X3602Y3639D03*
G54D22*
X3602Y3595D03*
G54D23*
X3194Y3432D03*
Y3505D03*
G54D24*
X3276Y3748D03*
X3326D03*
X3376D03*
X3426D03*
Y3534D03*
X3376D03*
X3326D03*
X3276D03*
G54D25*
X4305Y3976D03*
X4513D03*
X3883Y3228D03*
X3675D03*
G54D26*
X4135Y3503D03*
X4525D03*
M02*