%FSLAX23Y23*%
%MOIN*%
%SFA1B1*%

%IPPOS*%
%ADD10C,0.010000*%
%ADD11C,0.003937*%
%ADD12C,0.007874*%
%ADD13C,0.019685*%
%LNpcb1_legend_top-1*%
%LPD*%
G54D10*
X3218Y3907D02*
D01*
X3218Y3908*
X3218Y3908*
X3218Y3909*
X3218Y3910*
X3217Y3910*
X3217Y3911*
X3217Y3912*
X3216Y3912*
X3216Y3913*
X3216Y3913*
X3215Y3914*
X3215Y3914*
X3214Y3915*
X3214Y3915*
X3213Y3915*
X3212Y3916*
X3212Y3916*
X3211Y3916*
X3210Y3917*
X3210Y3917*
X3209Y3917*
X3208Y3917*
X3208Y3917*
Y3818D02*
D01*
X3209Y3818*
X3209Y3818*
X3210Y3819*
X3211Y3819*
X3211Y3819*
X3212Y3819*
X3213Y3820*
X3213Y3820*
X3214Y3820*
X3214Y3821*
X3215Y3821*
X3215Y3822*
X3216Y3822*
X3216Y3823*
X3217Y3823*
X3217Y3824*
X3217Y3825*
X3218Y3825*
X3218Y3826*
X3218Y3827*
X3218Y3827*
X3218Y3828*
X3218Y3828*
X3031Y3917D02*
D01*
X3030Y3917*
X3030Y3917*
X3029Y3917*
X3028Y3916*
X3028Y3916*
X3027Y3916*
X3026Y3916*
X3026Y3915*
X3025Y3915*
X3025Y3914*
X3024Y3914*
X3024Y3914*
X3023Y3913*
X3023Y3912*
X3022Y3912*
X3022Y3911*
X3022Y3911*
X3022Y3910*
X3021Y3909*
X3021Y3909*
X3021Y3908*
X3021Y3907*
X3021Y3907*
Y3828D02*
D01*
X3021Y3828*
X3021Y3827*
X3021Y3826*
X3022Y3826*
X3022Y3825*
X3022Y3824*
X3022Y3824*
X3023Y3823*
X3023Y3823*
X3023Y3822*
X3024Y3821*
X3024Y3821*
X3025Y3821*
X3026Y3820*
X3026Y3820*
X3027Y3819*
X3027Y3819*
X3028Y3819*
X3029Y3819*
X3029Y3819*
X3030Y3818*
X3031Y3818*
X3031Y3818*
X3208*
X3031Y3917D02*
X3208D01*
X3218Y3828D02*
Y3907D01*
X3021Y3828D02*
Y3907D01*
X3070Y3297D02*
X3090D01*
X3061Y3316D02*
X3100D01*
X3041Y3336D02*
X3120D01*
X3041D02*
X3080D01*
Y3385*
X3129Y3631D02*
X3177D01*
X3080Y3779D02*
Y3818D01*
X3159Y3662D02*
X3199Y3602D01*
Y3662D02*
X3159Y3602D01*
X3041Y3838D02*
Y3898D01*
X3071*
X3081Y3888*
Y3868*
X3071Y3858*
X3041*
X3101Y3898D02*
Y3838D01*
X3121Y3858*
X3141Y3838*
Y3898*
X3161Y3838D02*
Y3898D01*
X3181Y3878*
X3201Y3898*
Y3838*
X3257Y3878D02*
Y3828D01*
X3267Y3818*
X3287*
X3297Y3828*
Y3878*
X3317Y3818D02*
X3337D01*
X3327*
Y3878*
X3317Y3868*
X3867Y3769D02*
Y3829D01*
X3897*
X3907Y3819*
Y3799*
X3897Y3789*
X3867*
X3887D02*
X3907Y3769D01*
X3927Y3829D02*
X3967D01*
Y3819*
X3927Y3779*
Y3769*
X3769Y3790D02*
X3829D01*
Y3760*
X3819Y3750*
X3799*
X3789Y3760*
Y3790*
Y3770D02*
X3769Y3750D01*
X3829Y3690D02*
X3819Y3710D01*
X3799Y3730*
X3779*
X3769Y3720*
Y3700*
X3779Y3690*
X3789*
X3799Y3700*
Y3730*
X3769Y3632D02*
X3829D01*
Y3602*
X3819Y3592*
X3799*
X3789Y3602*
Y3632*
Y3612D02*
X3769Y3592D01*
X3829Y3532D02*
Y3572D01*
X3799*
X3809Y3552*
Y3542*
X3799Y3532*
X3779*
X3769Y3542*
Y3562*
X3779Y3572*
X3749Y4025D02*
Y4085D01*
X3779*
X3789Y4075*
Y4055*
X3779Y4045*
X3749*
X3769D02*
X3789Y4025D01*
X3839D02*
Y4085D01*
X3809Y4055*
X3849*
X3463Y3779D02*
Y3839D01*
X3493*
X3503Y3829*
Y3809*
X3493Y3799*
X3463*
X3483D02*
X3503Y3779D01*
X3523Y3829D02*
X3533Y3839D01*
X3553*
X3563Y3829*
Y3819*
X3553Y3809*
X3543*
X3553*
X3563Y3799*
Y3789*
X3553Y3779*
X3533*
X3523Y3789*
X3477Y3375D02*
Y3435D01*
X3507*
X3517Y3425*
Y3405*
X3507Y3395*
X3477*
X3497D02*
X3517Y3375D01*
X3577D02*
X3537D01*
X3577Y3415*
Y3425*
X3567Y3435*
X3547*
X3537Y3425*
X3267Y3296D02*
Y3356D01*
X3297*
X3307Y3346*
Y3326*
X3297Y3316*
X3267*
X3287D02*
X3307Y3296D01*
X3327D02*
X3347D01*
X3337*
Y3356*
X3327Y3346*
X3631Y3720D02*
Y3760D01*
X3621Y3770*
X3601*
X3591Y3760*
Y3720*
X3601Y3710*
X3621*
X3611Y3730D02*
X3631Y3710D01*
X3621D02*
X3631Y3720D01*
X3651Y3710D02*
X3671D01*
X3661*
Y3770*
X3651Y3760*
X4054Y3868D02*
Y3808D01*
X4094*
X4114D02*
X4134D01*
X4124*
Y3868*
X4114Y3858*
X4931Y4006D02*
Y4026D01*
Y4016*
X4881*
X4871Y4026*
Y4036*
X4881Y4046*
X4921Y3986D02*
X4931Y3976D01*
Y3956*
X4921Y3946*
X4911*
X4901Y3956*
Y3966*
Y3956*
X4891Y3946*
X4881*
X4871Y3956*
Y3976*
X4881Y3986*
X4931Y3494D02*
Y3514D01*
Y3504*
X4881*
X4871Y3514*
Y3524*
X4881Y3534*
X4871Y3434D02*
Y3474D01*
X4911Y3434*
X4921*
X4931Y3444*
Y3464*
X4921Y3474*
X4035Y3139D02*
X4045Y3149D01*
Y3169*
X4035Y3179*
X3995*
X3985Y3169*
Y3149*
X3995Y3139*
X4045Y3079D02*
Y3119D01*
X4015*
X4025Y3099*
Y3089*
X4015Y3079*
X3995*
X3985Y3089*
Y3109*
X3995Y3119*
X4193Y4074D02*
X4203Y4084D01*
Y4104*
X4193Y4114*
X4153*
X4143Y4104*
Y4084*
X4153Y4074*
X4143Y4024D02*
X4203D01*
X4173Y4054*
Y4014*
X3828Y3456D02*
X3838Y3466D01*
Y3486*
X3828Y3496*
X3788*
X3778Y3486*
Y3466*
X3788Y3456*
X3828Y3436D02*
X3838Y3426D01*
Y3406*
X3828Y3396*
X3818*
X3808Y3406*
Y3416*
Y3406*
X3798Y3396*
X3788*
X3778Y3406*
Y3426*
X3788Y3436*
X3415Y3346D02*
X3405Y3356D01*
X3385*
X3375Y3346*
Y3306*
X3385Y3296*
X3405*
X3415Y3306*
X3475Y3296D02*
X3435D01*
X3475Y3336*
Y3346*
X3465Y3356*
X3445*
X3435Y3346*
X3198D02*
X3188Y3356D01*
X3168*
X3158Y3346*
Y3306*
X3168Y3296*
X3188*
X3198Y3306*
X3218Y3296D02*
X3238D01*
X3228*
Y3356*
X3218Y3346*
G54D11*
X3563Y3539D02*
D01*
X3564Y3539*
X3564Y3539*
X3564Y3539*
X3564Y3539*
X3564Y3539*
X3564Y3539*
X3564Y3539*
X3565Y3539*
X3565Y3539*
X3565Y3539*
X3565Y3539*
X3565Y3540*
X3565Y3540*
X3565Y3540*
X3565Y3540*
X3565Y3540*
X3565Y3540*
X3565Y3540*
X3565Y3540*
X3565Y3540*
X3565Y3541*
X3565Y3541*
Y3541*
X3565Y3541*
X3565Y3541*
X3565Y3541*
X3565Y3541*
X3565Y3542*
X3565Y3542*
X3565Y3542*
X3565Y3542*
X3565Y3542*
X3565Y3542*
X3565Y3542*
X3565Y3542*
X3565Y3542*
X3565Y3543*
X3564Y3543*
X3564Y3543*
X3564Y3543*
X3564Y3543*
X3564Y3543*
X3564Y3543*
X3564Y3543*
X3563Y3543*
X4084Y3622D02*
Y3750D01*
X4576*
Y3622D02*
Y3750D01*
X4084Y3257D02*
Y3385D01*
Y3257D02*
X4576D01*
Y3385*
X4641Y3149D02*
X4940D01*
Y3562*
X4641D02*
X4940D01*
X4641Y3149D02*
Y3562D01*
Y3661D02*
X4940D01*
Y4074*
X4641D02*
X4940D01*
X4641Y3661D02*
Y4074D01*
G54D12*
X3567Y3541D02*
D01*
X3567Y3541*
X3567Y3541*
X3567Y3542*
X3567Y3542*
X3567Y3542*
X3567Y3542*
X3567Y3543*
X3567Y3543*
X3567Y3543*
X3566Y3543*
X3566Y3544*
X3566Y3544*
X3566Y3544*
X3566Y3544*
X3565Y3544*
X3565Y3544*
X3565Y3544*
X3565Y3545*
X3564Y3545*
X3564Y3545*
X3564Y3545*
X3564Y3545*
X3563*
X3563Y3545*
X3563Y3545*
X3563Y3545*
X3562Y3545*
X3562Y3544*
X3562Y3544*
X3562Y3544*
X3561Y3544*
X3561Y3544*
X3561Y3544*
X3561Y3544*
X3560Y3543*
X3560Y3543*
X3560Y3543*
X3560Y3543*
X3560Y3542*
X3560Y3542*
X3560Y3542*
X3560Y3542*
X3560Y3541*
X3560Y3541*
X3560Y3541*
X3560Y3541*
X3560Y3540*
X3560Y3540*
X3560Y3540*
X3560Y3539*
X3560Y3539*
X3560Y3539*
X3560Y3539*
X3560Y3539*
X3560Y3538*
X3561Y3538*
X3561Y3538*
X3561Y3538*
X3561Y3538*
X3562Y3537*
X3562Y3537*
X3562Y3537*
X3562Y3537*
X3563Y3537*
X3563Y3537*
X3563Y3537*
X3563Y3537*
X3564*
X3564Y3537*
X3564Y3537*
X3564Y3537*
X3565Y3537*
X3565Y3537*
X3565Y3537*
X3565Y3537*
X3566Y3538*
X3566Y3538*
X3566Y3538*
X3566Y3538*
X3566Y3538*
X3567Y3539*
X3567Y3539*
X3567Y3539*
X3567Y3539*
X3567Y3539*
X3567Y3540*
X3567Y3540*
X3567Y3540*
X3567Y3541*
X3567Y3541*
X3248Y3504D02*
Y3564D01*
X3254Y3578D02*
X3447D01*
Y3704*
X3254D02*
X3447D01*
X3254Y3578D02*
Y3704D01*
X4275Y4110D02*
X4492D01*
X4275Y4019D02*
Y4110D01*
Y3842D02*
Y3933D01*
Y3842D02*
X4492D01*
X4543Y4019D02*
Y4059D01*
X4492Y4110D02*
X4543Y4059D01*
X4492Y3842D02*
X4543Y3893D01*
Y3933*
X3696Y3094D02*
X3913D01*
Y3185*
Y3271D02*
Y3362D01*
X3696D02*
X3913D01*
X3645Y3145D02*
Y3185D01*
Y3145D02*
X3696Y3094D01*
X3645Y3311D02*
X3696Y3362D01*
X3645Y3271D02*
Y3311D01*
G54D13*
X4896Y3267D02*
D01*
X4896Y3268*
X4895Y3268*
X4895Y3269*
X4895Y3269*
X4895Y3270*
X4895Y3270*
X4895Y3271*
X4894Y3271*
X4894Y3272*
X4894Y3272*
X4893Y3273*
X4893Y3273*
X4892Y3273*
X4892Y3274*
X4892Y3274*
X4891Y3274*
X4891Y3275*
X4890Y3275*
X4890Y3275*
X4889Y3275*
X4888Y3275*
X4888Y3275*
X4887*
X4887Y3275*
X4886Y3275*
X4886Y3275*
X4885Y3275*
X4885Y3275*
X4884Y3274*
X4884Y3274*
X4883Y3274*
X4883Y3273*
X4882Y3273*
X4882Y3273*
X4882Y3272*
X4881Y3272*
X4881Y3271*
X4881Y3271*
X4880Y3270*
X4880Y3270*
X4880Y3269*
X4880Y3269*
X4880Y3268*
X4880Y3268*
X4880Y3267*
X4880Y3267*
X4880Y3266*
X4880Y3266*
X4880Y3265*
X4880Y3265*
X4880Y3264*
X4881Y3264*
X4881Y3263*
X4881Y3263*
X4882Y3262*
X4882Y3262*
X4882Y3261*
X4883Y3261*
X4883Y3261*
X4884Y3260*
X4884Y3260*
X4885Y3260*
X4885Y3260*
X4886Y3260*
X4886Y3259*
X4887Y3259*
X4887Y3259*
X4888*
X4888Y3259*
X4889Y3259*
X4890Y3260*
X4890Y3260*
X4891Y3260*
X4891Y3260*
X4892Y3260*
X4892Y3261*
X4892Y3261*
X4893Y3261*
X4893Y3262*
X4894Y3262*
X4894Y3263*
X4894Y3263*
X4895Y3264*
X4895Y3264*
X4895Y3265*
X4895Y3265*
X4895Y3266*
X4895Y3266*
X4896Y3267*
X4896Y3267*
Y3779D02*
D01*
X4896Y3780*
X4895Y3780*
X4895Y3781*
X4895Y3781*
X4895Y3782*
X4895Y3782*
X4895Y3783*
X4894Y3783*
X4894Y3784*
X4894Y3784*
X4893Y3784*
X4893Y3785*
X4892Y3785*
X4892Y3786*
X4892Y3786*
X4891Y3786*
X4891Y3786*
X4890Y3787*
X4890Y3787*
X4889Y3787*
X4888Y3787*
X4888Y3787*
X4887*
X4887Y3787*
X4886Y3787*
X4886Y3787*
X4885Y3787*
X4885Y3786*
X4884Y3786*
X4884Y3786*
X4883Y3786*
X4883Y3785*
X4882Y3785*
X4882Y3784*
X4882Y3784*
X4881Y3784*
X4881Y3783*
X4881Y3783*
X4880Y3782*
X4880Y3782*
X4880Y3781*
X4880Y3781*
X4880Y3780*
X4880Y3780*
X4880Y3779*
X4880Y3778*
X4880Y3778*
X4880Y3777*
X4880Y3777*
X4880Y3776*
X4880Y3776*
X4881Y3775*
X4881Y3775*
X4881Y3774*
X4882Y3774*
X4882Y3774*
X4882Y3773*
X4883Y3773*
X4883Y3772*
X4884Y3772*
X4884Y3772*
X4885Y3772*
X4885Y3772*
X4886Y3771*
X4886Y3771*
X4887Y3771*
X4887Y3771*
X4888*
X4888Y3771*
X4889Y3771*
X4890Y3771*
X4890Y3772*
X4891Y3772*
X4891Y3772*
X4892Y3772*
X4892Y3772*
X4892Y3773*
X4893Y3773*
X4893Y3774*
X4894Y3774*
X4894Y3774*
X4894Y3775*
X4895Y3775*
X4895Y3776*
X4895Y3776*
X4895Y3777*
X4895Y3777*
X4895Y3778*
X4896Y3778*
X4896Y3779*
M02*