G04*
G04 #@! TF.GenerationSoftware,Altium Limited,Altium Designer,24.0.1 (36)*
G04*
G04 Layer_Color=65535*
%FSLAX44Y44*%
%MOMM*%
G71*
G04*
G04 #@! TF.SameCoordinates,47EEF6A6-A9A8-4354-BB7B-09A3034422A5*
G04*
G04*
G04 #@! TF.FilePolarity,Positive*
G04*
G01*
G75*
%ADD10C,0.2540*%
%ADD11C,0.1000*%
%ADD12C,0.2000*%
%ADD13C,0.5000*%
D10*
X817500Y992460D02*
G03*
X814960Y995000I-2540J0D01*
G01*
Y970000D02*
G03*
X817500Y972540I0J2540D01*
G01*
X770040Y995000D02*
G03*
X767500Y992460I0J-2540D01*
G01*
Y972540D02*
G03*
X770040Y970000I2540J0D01*
G01*
X814960D01*
X770040Y995000D02*
X814960D01*
X817500Y972540D02*
Y992460D01*
X767500Y972540D02*
Y992460D01*
X780000Y837500D02*
X785000D01*
X777500Y842500D02*
X787500D01*
X772500Y847500D02*
X792500D01*
X772500D02*
X782500D01*
Y860000D01*
X795000Y922500D02*
X807000D01*
X782500Y960000D02*
Y970000D01*
X802540Y930275D02*
X812697Y915040D01*
Y930275D02*
X802540Y915040D01*
X772540Y975040D02*
Y990275D01*
X780157D01*
X782697Y987736D01*
Y982657D01*
X780157Y980118D01*
X772540D01*
X787775Y990275D02*
Y975040D01*
X792853Y980118D01*
X797932Y975040D01*
Y990275D01*
X803010Y975040D02*
Y990275D01*
X808089Y985197D01*
X813167Y990275D01*
Y975040D01*
X827343Y985117D02*
Y972422D01*
X829883Y969883D01*
X834961D01*
X837500Y972422D01*
Y985117D01*
X842578Y969883D02*
X847657D01*
X845118D01*
Y985117D01*
X842578Y982578D01*
X982304Y957383D02*
Y972617D01*
X989922D01*
X992461Y970078D01*
Y965000D01*
X989922Y962461D01*
X982304D01*
X987383D02*
X992461Y957383D01*
X997539Y972617D02*
X1007696D01*
Y970078D01*
X997539Y959922D01*
Y957383D01*
X957383Y962696D02*
X972618D01*
Y955078D01*
X970078Y952539D01*
X965000D01*
X962461Y955078D01*
Y962696D01*
Y957617D02*
X957383Y952539D01*
X972618Y937304D02*
X970078Y942382D01*
X965000Y947461D01*
X959922D01*
X957383Y944922D01*
Y939843D01*
X959922Y937304D01*
X962461D01*
X965000Y939843D01*
Y947461D01*
X957383Y922696D02*
X972618D01*
Y915078D01*
X970078Y912539D01*
X965000D01*
X962461Y915078D01*
Y922696D01*
Y917617D02*
X957383Y912539D01*
X972618Y897304D02*
Y907461D01*
X965000D01*
X967539Y902382D01*
Y899843D01*
X965000Y897304D01*
X959922D01*
X957383Y899843D01*
Y904922D01*
X959922Y907461D01*
X952304Y1022383D02*
Y1037617D01*
X959922D01*
X962461Y1035078D01*
Y1030000D01*
X959922Y1027461D01*
X952304D01*
X957383D02*
X962461Y1022383D01*
X975157D02*
Y1037617D01*
X967539Y1030000D01*
X977696D01*
X879804Y959883D02*
Y975117D01*
X887422D01*
X889961Y972578D01*
Y967500D01*
X887422Y964961D01*
X879804D01*
X884883D02*
X889961Y959883D01*
X895039Y972578D02*
X897578Y975117D01*
X902657D01*
X905196Y972578D01*
Y970039D01*
X902657Y967500D01*
X900117D01*
X902657D01*
X905196Y964961D01*
Y962422D01*
X902657Y959883D01*
X897578D01*
X895039Y962422D01*
X883304Y857383D02*
Y872617D01*
X890922D01*
X893461Y870078D01*
Y865000D01*
X890922Y862461D01*
X883304D01*
X888382D02*
X893461Y857383D01*
X908696D02*
X898539D01*
X908696Y867539D01*
Y870078D01*
X906157Y872617D01*
X901078D01*
X898539Y870078D01*
X829843Y837383D02*
Y852617D01*
X837461D01*
X840000Y850078D01*
Y845000D01*
X837461Y842461D01*
X829843D01*
X834922D02*
X840000Y837383D01*
X845078D02*
X850157D01*
X847618D01*
Y852617D01*
X845078Y850078D01*
X922500Y944922D02*
Y955078D01*
X919961Y957617D01*
X914883D01*
X912343Y955078D01*
Y944922D01*
X914883Y942383D01*
X919961D01*
X917422Y947461D02*
X922500Y942383D01*
X919961D02*
X922500Y944922D01*
X927578Y942383D02*
X932657D01*
X930118D01*
Y957617D01*
X927578Y955078D01*
X1029843Y982617D02*
Y967383D01*
X1040000D01*
X1045078D02*
X1050157D01*
X1047618D01*
Y982617D01*
X1045078Y980078D01*
X1252618Y1017539D02*
Y1022617D01*
Y1020078D01*
X1239922D01*
X1237383Y1022617D01*
Y1025157D01*
X1239922Y1027696D01*
X1250078Y1012461D02*
X1252618Y1009922D01*
Y1004843D01*
X1250078Y1002304D01*
X1247539D01*
X1245000Y1004843D01*
Y1007382D01*
Y1004843D01*
X1242461Y1002304D01*
X1239922D01*
X1237383Y1004843D01*
Y1009922D01*
X1239922Y1012461D01*
X1252618Y887539D02*
Y892617D01*
Y890078D01*
X1239922D01*
X1237383Y892617D01*
Y895157D01*
X1239922Y897696D01*
X1237383Y872304D02*
Y882461D01*
X1247539Y872304D01*
X1250078D01*
X1252618Y874843D01*
Y879922D01*
X1250078Y882461D01*
X1025078Y797539D02*
X1027618Y800078D01*
Y805157D01*
X1025078Y807696D01*
X1014922D01*
X1012383Y805157D01*
Y800078D01*
X1014922Y797539D01*
X1027618Y782304D02*
Y792461D01*
X1020000D01*
X1022539Y787382D01*
Y784843D01*
X1020000Y782304D01*
X1014922D01*
X1012383Y784843D01*
Y789922D01*
X1014922Y792461D01*
X1065078Y1035039D02*
X1067617Y1037578D01*
Y1042657D01*
X1065078Y1045196D01*
X1054922D01*
X1052383Y1042657D01*
Y1037578D01*
X1054922Y1035039D01*
X1052383Y1022343D02*
X1067617D01*
X1060000Y1029961D01*
Y1019804D01*
X972396Y877908D02*
X974935Y880447D01*
Y885526D01*
X972396Y888065D01*
X962239D01*
X959700Y885526D01*
Y880447D01*
X962239Y877908D01*
X972396Y872830D02*
X974935Y870291D01*
Y865212D01*
X972396Y862673D01*
X969857D01*
X967318Y865212D01*
Y867751D01*
Y865212D01*
X964778Y862673D01*
X962239D01*
X959700Y865212D01*
Y870291D01*
X962239Y872830D01*
X867461Y850078D02*
X864922Y852617D01*
X859843D01*
X857304Y850078D01*
Y839922D01*
X859843Y837383D01*
X864922D01*
X867461Y839922D01*
X882696Y837383D02*
X872539D01*
X882696Y847539D01*
Y850078D01*
X880157Y852617D01*
X875078D01*
X872539Y850078D01*
X812500D02*
X809961Y852617D01*
X804883D01*
X802343Y850078D01*
Y839922D01*
X804883Y837383D01*
X809961D01*
X812500Y839922D01*
X817578Y837383D02*
X822657D01*
X820118D01*
Y852617D01*
X817578Y850078D01*
D11*
X905250Y899000D02*
G03*
X905250Y900000I0J500D01*
G01*
X1037500Y920000D02*
Y952500D01*
X1162500D01*
Y920000D02*
Y952500D01*
X1037500Y827500D02*
Y860000D01*
Y827500D02*
X1162500D01*
Y860000D01*
X1179000Y799960D02*
X1255000D01*
Y904960D01*
X1179000D02*
X1255000D01*
X1179000Y799960D02*
Y904960D01*
Y929960D02*
X1255000D01*
Y1034960D01*
X1179000D02*
X1255000D01*
X1179000Y929960D02*
Y1034960D01*
D12*
X906250Y899500D02*
G03*
X906250Y899500I-1000J0D01*
G01*
X825212Y890250D02*
Y905500D01*
X826762Y909000D02*
X875762D01*
Y941000D01*
X826762D02*
X875762D01*
X826762Y909000D02*
Y941000D01*
X1086000Y1044000D02*
X1141000D01*
X1086000Y1021000D02*
Y1044000D01*
Y976000D02*
Y999000D01*
Y976000D02*
X1141000D01*
X1154000Y1021000D02*
Y1031000D01*
X1141000Y1044000D02*
X1154000Y1031000D01*
X1141000Y976000D02*
X1154000Y989000D01*
Y999000D01*
X939000Y786000D02*
X994000D01*
Y809000D01*
Y831000D02*
Y854000D01*
X939000D02*
X994000D01*
X926000Y799000D02*
Y809000D01*
Y799000D02*
X939000Y786000D01*
X926000Y841000D02*
X939000Y854000D01*
X926000Y831000D02*
Y841000D01*
D13*
X1243590Y830000D02*
G03*
X1243590Y830000I-2000J0D01*
G01*
Y960000D02*
G03*
X1243590Y960000I-2000J0D01*
G01*
M02*
