G04*
G04 #@! TF.GenerationSoftware,Altium Limited,Altium Designer,24.0.1 (36)*
G04*
G04 Layer_Physical_Order=1*
G04 Layer_Color=255*
%FSLAX44Y44*%
%MOMM*%
G71*
G04*
G04 #@! TF.SameCoordinates,47EEF6A6-A9A8-4354-BB7B-09A3034422A5*
G04*
G04*
G04 #@! TF.FilePolarity,Positive*
G04*
G01*
G75*
%ADD13C,0.5000*%
%ADD14R,0.9000X0.7000*%
%ADD15R,1.0000X1.0000*%
%ADD16R,0.7000X0.9000*%
%ADD17R,3.5500X3.5000*%
%ADD18R,3.5000X3.5500*%
%ADD19R,1.3000X1.4500*%
%ADD20R,0.4500X0.4500*%
%ADD21R,2.4500X1.0360*%
%ADD22R,2.4500X0.5620*%
%ADD23R,1.4500X1.3000*%
%ADD24R,0.7000X1.5250*%
%ADD25R,3.5000X1.6000*%
%ADD26R,3.1000X5.4000*%
%ADD47C,0.3000*%
%ADD48C,0.7500*%
%ADD49C,1.0000*%
%ADD50C,1.6000*%
%ADD51R,1.6000X1.6000*%
%ADD52C,1.9500*%
%ADD53R,1.9500X1.9500*%
%ADD54C,0.6000*%
%ADD55C,0.8000*%
%ADD56C,4.3000*%
G36*
X1259481Y778059D02*
X765599D01*
Y1051941D01*
X1259481D01*
Y778059D01*
D02*
G37*
%LPC*%
G36*
X797368Y1044040D02*
X792632D01*
X787988Y1043116D01*
X783613Y1041304D01*
X779675Y1038673D01*
X778899Y1037897D01*
X780915Y1035881D01*
X779119Y1034085D01*
X777103Y1036101D01*
X776327Y1035325D01*
X773696Y1031387D01*
X771884Y1027012D01*
X770960Y1022368D01*
Y1017632D01*
X771884Y1012988D01*
X773696Y1008613D01*
X776327Y1004675D01*
X777103Y1003899D01*
X779119Y1005915D01*
X780915Y1004119D01*
X778899Y1002103D01*
X779675Y1001327D01*
X783613Y998696D01*
X787988Y996884D01*
X792632Y995960D01*
X797368D01*
X802012Y996884D01*
X806387Y998696D01*
X810325Y1001327D01*
X811101Y1002103D01*
X809085Y1004119D01*
X810881Y1005915D01*
X812897Y1003899D01*
X813673Y1004675D01*
X816304Y1008613D01*
X818116Y1012988D01*
X819040Y1017632D01*
Y1022368D01*
X818116Y1027012D01*
X816304Y1031387D01*
X813673Y1035325D01*
X812897Y1036101D01*
X810881Y1034085D01*
X809085Y1035881D01*
X811101Y1037897D01*
X810325Y1038673D01*
X806387Y1041304D01*
X802012Y1043116D01*
X797368Y1044040D01*
D02*
G37*
G36*
X1221618Y1022290D02*
X1218382D01*
X1215256Y1021452D01*
X1212454Y1019835D01*
X1212208Y1019588D01*
X1214255Y1017541D01*
X1212459Y1015745D01*
X1210412Y1017792D01*
X1210166Y1017546D01*
X1208548Y1014744D01*
X1207710Y1011618D01*
Y1008382D01*
X1208548Y1005256D01*
X1210166Y1002454D01*
X1210412Y1002208D01*
X1212459Y1004255D01*
X1214255Y1002459D01*
X1212208Y1000412D01*
X1212454Y1000166D01*
X1215256Y998548D01*
X1218382Y997710D01*
X1221618D01*
X1224744Y998548D01*
X1227546Y1000166D01*
X1227792Y1000412D01*
X1225745Y1002459D01*
X1227541Y1004255D01*
X1229588Y1002208D01*
X1229834Y1002454D01*
X1231452Y1005256D01*
X1232290Y1008382D01*
Y1011618D01*
X1231452Y1014744D01*
X1229834Y1017546D01*
X1229588Y1017792D01*
X1227541Y1015745D01*
X1225745Y1017541D01*
X1227792Y1019588D01*
X1227546Y1019835D01*
X1224744Y1021452D01*
X1221618Y1022290D01*
D02*
G37*
G36*
X1168814Y1022350D02*
X1166717D01*
X1164780Y1021547D01*
X1163298Y1020065D01*
X1162969Y1019270D01*
X1127730D01*
Y1000730D01*
X1143107D01*
Y960000D01*
Y918270D01*
X1132730D01*
Y861730D01*
X1166270D01*
Y878770D01*
X1167326Y879476D01*
X1167613Y879357D01*
X1169710D01*
X1171647Y880159D01*
X1173129Y881642D01*
X1173931Y883579D01*
Y885675D01*
X1173129Y887612D01*
X1171647Y889094D01*
X1169710Y889897D01*
X1167613D01*
X1167326Y889778D01*
X1166270Y890483D01*
Y908579D01*
X1167259Y909240D01*
X1169355D01*
X1171292Y910042D01*
X1172775Y911524D01*
X1173577Y913461D01*
Y915558D01*
X1172775Y917495D01*
X1171292Y918977D01*
X1169355Y919780D01*
X1167259D01*
X1165322Y918977D01*
X1164614Y918270D01*
X1155893D01*
Y953607D01*
X1208980D01*
Y948980D01*
X1231020D01*
Y971020D01*
X1208980D01*
Y966393D01*
X1155893D01*
Y1000730D01*
X1161923D01*
Y999415D01*
X1162725Y997478D01*
X1164208Y995996D01*
X1166144Y995193D01*
X1168241D01*
X1170178Y995996D01*
X1171660Y997478D01*
X1172463Y999415D01*
Y1001512D01*
X1171660Y1003448D01*
X1170178Y1004931D01*
X1168241Y1005733D01*
X1166144D01*
X1165270Y1006318D01*
Y1011266D01*
X1166326Y1011972D01*
X1166717Y1011810D01*
X1168814D01*
X1170751Y1012612D01*
X1172233Y1014095D01*
X1173036Y1016031D01*
Y1018128D01*
X1172233Y1020065D01*
X1170751Y1021547D01*
X1168814Y1022350D01*
D02*
G37*
G36*
X1050861Y1006540D02*
X1049139D01*
X1047476Y1006094D01*
X1046351Y1005445D01*
X1048409Y1003387D01*
X1046613Y1001591D01*
X1044555Y1003649D01*
X1043906Y1002524D01*
X1043460Y1000861D01*
Y999139D01*
X1043906Y997476D01*
X1044555Y996351D01*
X1046613Y998409D01*
X1048409Y996613D01*
X1046351Y994555D01*
X1047476Y993906D01*
X1049139Y993460D01*
X1050861D01*
X1052524Y993906D01*
X1053649Y994555D01*
X1051591Y996613D01*
X1053387Y998409D01*
X1055445Y996351D01*
X1056094Y997476D01*
X1056540Y999139D01*
Y1000861D01*
X1056094Y1002524D01*
X1055445Y1003649D01*
X1053387Y1001591D01*
X1051591Y1003387D01*
X1053649Y1005445D01*
X1052524Y1006094D01*
X1050861Y1006540D01*
D02*
G37*
G36*
X1000861D02*
X999139D01*
X997476Y1006094D01*
X996351Y1005445D01*
X998409Y1003387D01*
X996613Y1001591D01*
X994555Y1003649D01*
X993906Y1002524D01*
X993460Y1000861D01*
Y999139D01*
X993906Y997476D01*
X994555Y996351D01*
X996613Y998409D01*
X998409Y996613D01*
X996351Y994555D01*
X997476Y993906D01*
X999139Y993460D01*
X1000861D01*
X1002524Y993906D01*
X1003649Y994555D01*
X1001591Y996613D01*
X1003387Y998409D01*
X1005445Y996351D01*
X1006094Y997476D01*
X1006540Y999139D01*
Y1000861D01*
X1006094Y1002524D01*
X1005445Y1003649D01*
X1003387Y1001591D01*
X1001591Y1003387D01*
X1003649Y1005445D01*
X1002524Y1006094D01*
X1000861Y1006540D01*
D02*
G37*
G36*
X850861D02*
X849139D01*
X847476Y1006094D01*
X846351Y1005445D01*
X848409Y1003387D01*
X846613Y1001591D01*
X844555Y1003649D01*
X843906Y1002524D01*
X843460Y1000861D01*
Y999139D01*
X843906Y997476D01*
X844555Y996351D01*
X846613Y998409D01*
X848409Y996613D01*
X846351Y994555D01*
X847476Y993906D01*
X849139Y993460D01*
X850861D01*
X852524Y993906D01*
X853649Y994555D01*
X851591Y996613D01*
X853387Y998409D01*
X855445Y996351D01*
X856094Y997476D01*
X856540Y999139D01*
Y1000861D01*
X856094Y1002524D01*
X855445Y1003649D01*
X853387Y1001591D01*
X851591Y1003387D01*
X853649Y1005445D01*
X852524Y1006094D01*
X850861Y1006540D01*
D02*
G37*
G36*
X1081102Y1027540D02*
X1078898D01*
X1076862Y1026697D01*
X1075303Y1025138D01*
X1074460Y1023102D01*
Y1020898D01*
X1074221Y1020540D01*
X1073460D01*
Y1015779D01*
X1073102Y1015540D01*
X1070898D01*
X1068862Y1014697D01*
X1067303Y1013138D01*
X1066460Y1011102D01*
Y1008898D01*
X1067234Y1007030D01*
X1069373Y1009169D01*
X1071169Y1007373D01*
X1069030Y1005234D01*
X1070898Y1004460D01*
X1073102D01*
X1073460Y1004221D01*
Y999460D01*
X1074221D01*
X1074460Y999102D01*
Y996898D01*
X1075303Y994862D01*
X1076862Y993303D01*
X1078898Y992460D01*
X1081102D01*
X1082970Y993234D01*
X1080831Y995373D01*
X1082627Y997169D01*
X1084766Y995030D01*
X1085540Y996898D01*
Y999102D01*
X1085779Y999460D01*
X1092230D01*
Y1002273D01*
X1094770D01*
Y999460D01*
X1113540D01*
Y1008730D01*
X1110727D01*
Y1011270D01*
X1113540D01*
Y1020540D01*
X1094770D01*
Y1017727D01*
X1092230D01*
Y1020540D01*
X1085779D01*
X1085540Y1020898D01*
Y1023102D01*
X1084766Y1024970D01*
X1082627Y1022831D01*
X1080831Y1024627D01*
X1082970Y1026766D01*
X1081102Y1027540D01*
D02*
G37*
G36*
X957256Y1023776D02*
X955052D01*
X953016Y1022933D01*
X951457Y1021374D01*
X950614Y1019338D01*
Y1017134D01*
X950955Y1016310D01*
X950106Y1015040D01*
X936210D01*
Y996270D01*
X939023D01*
Y993730D01*
X936210D01*
Y974960D01*
X946156D01*
Y964310D01*
X942960D01*
Y959540D01*
X945773D01*
Y957000D01*
X942960D01*
Y952230D01*
X948730D01*
Y955043D01*
X951270D01*
Y952230D01*
X957040D01*
Y957000D01*
X954227D01*
Y959540D01*
X957040D01*
Y964310D01*
X953844D01*
Y965901D01*
X954900Y966607D01*
X955404Y966398D01*
X957608D01*
X959476Y967172D01*
X957337Y969311D01*
X959133Y971107D01*
X961272Y968968D01*
X962046Y970836D01*
Y973040D01*
X961688Y973904D01*
X962393Y974960D01*
X976790D01*
Y989200D01*
X977159Y989496D01*
X978060Y989886D01*
X979822Y989156D01*
X982026D01*
X984062Y990000D01*
X985620Y991558D01*
X986464Y993594D01*
Y995798D01*
X985690Y997666D01*
X983551Y995527D01*
X981755Y997323D01*
X983894Y999463D01*
X982026Y1000236D01*
X979822D01*
X978060Y999507D01*
X977159Y999897D01*
X976790Y1000193D01*
Y1015040D01*
X962201D01*
X961352Y1016310D01*
X961694Y1017134D01*
Y1019338D01*
X960920Y1021206D01*
X958781Y1019067D01*
X956985Y1020863D01*
X959124Y1023002D01*
X957256Y1023776D01*
D02*
G37*
G36*
X1250861Y956540D02*
X1249139D01*
X1247476Y956094D01*
X1246351Y955445D01*
X1248409Y953387D01*
X1246613Y951591D01*
X1244555Y953649D01*
X1243906Y952524D01*
X1243460Y950861D01*
Y949139D01*
X1243906Y947476D01*
X1244555Y946351D01*
X1246613Y948409D01*
X1248409Y946613D01*
X1246351Y944555D01*
X1247476Y943906D01*
X1249139Y943460D01*
X1250861D01*
X1252524Y943906D01*
X1253649Y944555D01*
X1251591Y946613D01*
X1253387Y948409D01*
X1255445Y946351D01*
X1256094Y947476D01*
X1256540Y949139D01*
Y950861D01*
X1256094Y952524D01*
X1255445Y953649D01*
X1253387Y951591D01*
X1251591Y953387D01*
X1253649Y955445D01*
X1252524Y956094D01*
X1250861Y956540D01*
D02*
G37*
G36*
X1100861D02*
X1099139D01*
X1097476Y956094D01*
X1096351Y955445D01*
X1098409Y953387D01*
X1096613Y951591D01*
X1094555Y953649D01*
X1093906Y952524D01*
X1093460Y950861D01*
Y949139D01*
X1093906Y947476D01*
X1094555Y946351D01*
X1096613Y948409D01*
X1098409Y946613D01*
X1096351Y944555D01*
X1097476Y943906D01*
X1099139Y943460D01*
X1100861D01*
X1102524Y943906D01*
X1103649Y944555D01*
X1101591Y946613D01*
X1103387Y948409D01*
X1105445Y946351D01*
X1106094Y947476D01*
X1106540Y949139D01*
Y950861D01*
X1106094Y952524D01*
X1105445Y953649D01*
X1103387Y951591D01*
X1101591Y953387D01*
X1103649Y955445D01*
X1102524Y956094D01*
X1100861Y956540D01*
D02*
G37*
G36*
X1050861D02*
X1049139D01*
X1047476Y956094D01*
X1046351Y955445D01*
X1048409Y953387D01*
X1046613Y951591D01*
X1044555Y953649D01*
X1043906Y952524D01*
X1043460Y950861D01*
Y949139D01*
X1043906Y947476D01*
X1044555Y946351D01*
X1046613Y948409D01*
X1048409Y946613D01*
X1046351Y944555D01*
X1047476Y943906D01*
X1049139Y943460D01*
X1050861D01*
X1052524Y943906D01*
X1053649Y944555D01*
X1051591Y946613D01*
X1053387Y948409D01*
X1055445Y946351D01*
X1056094Y947476D01*
X1056540Y949139D01*
Y950861D01*
X1056094Y952524D01*
X1055445Y953649D01*
X1053387Y951591D01*
X1051591Y953387D01*
X1053649Y955445D01*
X1052524Y956094D01*
X1050861Y956540D01*
D02*
G37*
G36*
X855000Y980824D02*
X855000Y980824D01*
X812600D01*
X811519Y980609D01*
X810603Y979997D01*
X810603Y979997D01*
X787254Y956648D01*
X786578Y957038D01*
X784220Y957670D01*
X781780D01*
X779422Y957038D01*
X777308Y955818D01*
X775582Y954092D01*
X774362Y951978D01*
X773730Y949620D01*
Y947180D01*
X774362Y944822D01*
X775582Y942708D01*
X777308Y940982D01*
X779422Y939762D01*
X781780Y939130D01*
X784220D01*
X786578Y939762D01*
X788692Y940982D01*
X790418Y942708D01*
X791638Y944822D01*
X792270Y947180D01*
Y949620D01*
X791638Y951978D01*
X791248Y952654D01*
X813770Y975176D01*
X853830D01*
X866721Y962285D01*
X866195Y961015D01*
X865543D01*
Y943225D01*
X872586D01*
X873264Y941955D01*
X873190Y941844D01*
X852177D01*
X850953Y941955D01*
Y950850D01*
X848139D01*
Y953390D01*
X850953D01*
Y956961D01*
X851572Y957322D01*
X852842Y956592D01*
Y943225D01*
X862383D01*
Y961015D01*
X860437D01*
Y965387D01*
X860437Y965387D01*
X860222Y966468D01*
X859610Y967385D01*
X859610Y967385D01*
X853997Y972997D01*
X853081Y973609D01*
X852000Y973824D01*
X852000Y973824D01*
X831000D01*
X829919Y973609D01*
X829003Y972997D01*
X829003Y972997D01*
X787254Y931248D01*
X786578Y931638D01*
X784220Y932270D01*
X781780D01*
X779422Y931638D01*
X777308Y930418D01*
X775582Y928692D01*
X774362Y926578D01*
X773730Y924220D01*
Y921780D01*
X774362Y919422D01*
X775582Y917308D01*
X777308Y915582D01*
X779422Y914362D01*
X781780Y913730D01*
X784220D01*
X786578Y914362D01*
X788692Y915582D01*
X790418Y917308D01*
X791638Y919422D01*
X792270Y921780D01*
Y924220D01*
X791638Y926578D01*
X791248Y927254D01*
X831437Y967443D01*
X832143Y967374D01*
X832958Y966023D01*
X832912Y965912D01*
Y963708D01*
X833501Y962285D01*
X832752Y961015D01*
X827442D01*
Y943225D01*
X829722D01*
X830495Y942069D01*
X837282Y935282D01*
X837282Y935282D01*
X838529Y934449D01*
X840000Y934156D01*
X876000D01*
X876000Y934156D01*
X877471Y934449D01*
X878718Y935282D01*
X886973Y943537D01*
X886973Y943537D01*
X887806Y944784D01*
X888099Y946255D01*
X888859Y947230D01*
X890025D01*
Y958770D01*
X880485D01*
Y952372D01*
X880411Y952000D01*
X880411Y952000D01*
Y947847D01*
X876352Y943789D01*
X875082Y944315D01*
Y961015D01*
X873137D01*
Y962687D01*
X873137Y962688D01*
X872922Y963768D01*
X872310Y964685D01*
X872309Y964685D01*
X856997Y979997D01*
X856081Y980609D01*
X855000Y980824D01*
D02*
G37*
G36*
X934020Y1013770D02*
X895980D01*
Y976230D01*
X908926D01*
Y943239D01*
X908888Y943209D01*
X907656Y942780D01*
X905639Y944797D01*
Y947230D01*
X906565D01*
Y958770D01*
X897025D01*
Y947230D01*
X897951D01*
Y943205D01*
X897951Y943205D01*
X898244Y941734D01*
X899077Y940487D01*
X901155Y938409D01*
X901730Y937380D01*
X901730D01*
X901730Y937380D01*
Y930790D01*
X901480D01*
Y926786D01*
X895250D01*
X895250Y926786D01*
X893779Y926494D01*
X892532Y925660D01*
X873646Y906775D01*
X865543D01*
Y888985D01*
X866469D01*
Y871424D01*
X865263Y871270D01*
X865199Y871270D01*
X852723D01*
Y865574D01*
X847032D01*
Y866500D01*
X835492D01*
Y856960D01*
X845878D01*
X846435Y856960D01*
X846461Y856864D01*
D01*
X846775Y855690D01*
X846351Y855445D01*
X848409Y853387D01*
X846613Y851591D01*
X844555Y853649D01*
X843906Y852524D01*
X843460Y850861D01*
Y849139D01*
X843906Y847476D01*
X844555Y846351D01*
X846613Y848409D01*
X848409Y846613D01*
X846351Y844555D01*
X847476Y843906D01*
X849139Y843460D01*
X850861D01*
X852524Y843906D01*
X853649Y844555D01*
X851591Y846613D01*
X853387Y848409D01*
X855445Y846351D01*
X856094Y847476D01*
X856540Y849139D01*
Y850861D01*
X856094Y852524D01*
X855445Y853649D01*
X853387Y851591D01*
X851591Y853387D01*
X853649Y855445D01*
X852524Y856094D01*
X850861Y856540D01*
X849139D01*
X849080Y856524D01*
X848950Y856501D01*
X848030Y857558D01*
X848169Y857886D01*
X855722D01*
X855723Y857886D01*
X857194Y858179D01*
X858019Y858730D01*
X865263D01*
Y867774D01*
X866533Y867899D01*
X866761Y866749D01*
X867263Y865999D01*
Y858730D01*
X879802D01*
Y871270D01*
X874156D01*
Y881509D01*
X875426Y882035D01*
X876081Y881380D01*
X877651Y880730D01*
X879349D01*
X880378Y881156D01*
X882960D01*
Y879230D01*
X892500D01*
Y890770D01*
X882960D01*
Y888844D01*
X880378D01*
X879349Y889270D01*
X877651D01*
X876226Y888680D01*
X875583Y889018D01*
X875082Y889417D01*
Y898314D01*
X875783Y898454D01*
X877031Y899287D01*
X896842Y919099D01*
X900582D01*
X901480Y918201D01*
X901480Y916620D01*
Y909210D01*
X901730D01*
Y902620D01*
X901872D01*
X902273Y901350D01*
X901699Y900491D01*
X901406Y899020D01*
Y890770D01*
X899500D01*
Y879230D01*
X907066D01*
X908029Y877960D01*
X907906Y877343D01*
X908199Y875872D01*
X909032Y874625D01*
X910279Y873792D01*
X911750Y873499D01*
X913132D01*
Y824570D01*
X912150Y823764D01*
X911750Y823844D01*
X860592D01*
X831844Y852592D01*
Y884408D01*
X833931Y886494D01*
X833931Y886495D01*
X834764Y887741D01*
X835011Y888985D01*
X836982D01*
Y906775D01*
X827442D01*
Y897252D01*
X827369Y896880D01*
X827369Y896880D01*
Y890805D01*
X826678Y890114D01*
X819940D01*
Y898040D01*
X802900D01*
Y882500D01*
X815048D01*
X815420Y882426D01*
X815420Y882426D01*
X824156D01*
Y851000D01*
X824156Y851000D01*
X824449Y849529D01*
X825282Y848282D01*
X856282Y817282D01*
X857529Y816449D01*
X859000Y816156D01*
X859000Y816156D01*
X886899D01*
X887534Y815204D01*
Y813108D01*
X888337Y811171D01*
X889819Y809689D01*
X891756Y808886D01*
X893853D01*
X895790Y809689D01*
X897272Y811171D01*
X898074Y813108D01*
Y815204D01*
X898710Y816156D01*
X911750D01*
X913221Y816449D01*
X913628Y816721D01*
X914730Y815930D01*
Y810730D01*
X916194D01*
X916900Y809674D01*
X916799Y809430D01*
Y807334D01*
X917601Y805397D01*
X919084Y803914D01*
X921021Y803112D01*
X923117D01*
X925054Y803914D01*
X926536Y805397D01*
X927339Y807334D01*
Y809430D01*
X927238Y809674D01*
X927943Y810730D01*
X943229D01*
X948469Y805491D01*
X947653Y804675D01*
X946850Y802738D01*
Y800641D01*
X947653Y798704D01*
X949135Y797222D01*
X951072Y796420D01*
X953169D01*
X955106Y797222D01*
X955921Y798038D01*
X963480Y790480D01*
X965554Y789094D01*
X968000Y788607D01*
X968000Y788607D01*
X1185000D01*
X1187446Y789094D01*
X1189520Y790480D01*
X1218021Y818980D01*
X1231020D01*
Y841020D01*
X1208980D01*
Y828021D01*
X1182352Y801393D01*
X970648D01*
X952270Y819771D01*
Y829270D01*
X935848D01*
Y866480D01*
X938500D01*
Y879727D01*
X938554Y880000D01*
Y889020D01*
X948224Y898690D01*
X955770D01*
Y908230D01*
X944230D01*
Y902684D01*
X933733Y892187D01*
X933121Y891271D01*
X932906Y890190D01*
X932906Y890190D01*
Y883520D01*
X927574D01*
Y902620D01*
X928270D01*
Y909210D01*
X928520D01*
Y916620D01*
X928520Y917370D01*
X928520Y918640D01*
Y923176D01*
X932020D01*
X932020Y923176D01*
X933415Y923454D01*
X934772D01*
X936174Y924034D01*
X944230D01*
Y915230D01*
X955770D01*
Y924034D01*
X973425D01*
X974127Y922764D01*
X973547Y921362D01*
Y919266D01*
X974349Y917329D01*
X975831Y915846D01*
X977768Y915044D01*
X979865D01*
X980174Y915172D01*
X981230Y914466D01*
Y911730D01*
X1018770D01*
Y949770D01*
X981230D01*
Y947131D01*
X980174Y946426D01*
X979961Y946514D01*
X977865D01*
X975928Y945712D01*
X974445Y944229D01*
X973643Y942292D01*
Y940196D01*
X974445Y938259D01*
X974711Y937993D01*
X974225Y936820D01*
X956982D01*
X955770Y936960D01*
Y946500D01*
X944230D01*
Y936960D01*
X943018Y936820D01*
X935427D01*
X932981Y936333D01*
X930907Y934948D01*
X929521Y932874D01*
X928270Y933095D01*
Y937380D01*
X927574D01*
Y976230D01*
X934020D01*
Y1013770D01*
D02*
G37*
G36*
X817572Y944323D02*
X815850D01*
X814186Y943877D01*
X813062Y943228D01*
X815120Y941170D01*
X813324Y939374D01*
X811266Y941432D01*
X810617Y940307D01*
X810171Y938644D01*
Y936922D01*
X810617Y935259D01*
X811266Y934134D01*
X813324Y936192D01*
X815120Y934396D01*
X813062Y932338D01*
X814186Y931689D01*
X815850Y931243D01*
X817572D01*
X819235Y931689D01*
X820360Y932338D01*
X818302Y934396D01*
X820098Y936192D01*
X822156Y934134D01*
X822805Y935259D01*
X823251Y936922D01*
Y938644D01*
X822805Y940307D01*
X822156Y941432D01*
X820098Y939374D01*
X818302Y941170D01*
X820360Y943228D01*
X819235Y943877D01*
X817572Y944323D01*
D02*
G37*
G36*
X892105Y941778D02*
X890383D01*
X888720Y941332D01*
X887595Y940683D01*
X889653Y938625D01*
X887857Y936829D01*
X885799Y938887D01*
X885150Y937762D01*
X884704Y936099D01*
Y934377D01*
X885150Y932714D01*
X885799Y931589D01*
X887857Y933647D01*
X889653Y931851D01*
X887595Y929793D01*
X888720Y929144D01*
X890383Y928698D01*
X892105D01*
X893769Y929144D01*
X894893Y929793D01*
X892835Y931851D01*
X894632Y933647D01*
X896689Y931589D01*
X897338Y932714D01*
X897784Y934377D01*
Y936099D01*
X897338Y937762D01*
X896689Y938887D01*
X894632Y936829D01*
X892835Y938625D01*
X894893Y940683D01*
X893769Y941332D01*
X892105Y941778D01*
D02*
G37*
G36*
X784388Y908140D02*
X781612D01*
X778932Y907422D01*
X776528Y906034D01*
X776445Y905951D01*
X778506Y903890D01*
X776710Y902094D01*
X774649Y904155D01*
X774566Y904072D01*
X773178Y901668D01*
X772460Y898988D01*
Y896212D01*
X773178Y893532D01*
X774566Y891128D01*
X774649Y891045D01*
X776710Y893106D01*
X778506Y891310D01*
X776445Y889249D01*
X776528Y889166D01*
X778932Y887778D01*
X781612Y887060D01*
X784388D01*
X787068Y887778D01*
X789472Y889166D01*
X789555Y889249D01*
X787494Y891310D01*
X789290Y893106D01*
X791351Y891045D01*
X791434Y891128D01*
X792822Y893532D01*
X793540Y896212D01*
Y898988D01*
X792822Y901668D01*
X791434Y904072D01*
X791351Y904155D01*
X789290Y902094D01*
X787494Y903890D01*
X789555Y905951D01*
X789472Y906034D01*
X787068Y907422D01*
X784388Y908140D01*
D02*
G37*
G36*
X1250861Y906540D02*
X1249139D01*
X1247476Y906094D01*
X1246351Y905445D01*
X1248409Y903387D01*
X1246613Y901591D01*
X1244555Y903649D01*
X1243906Y902524D01*
X1243460Y900861D01*
Y899139D01*
X1243906Y897476D01*
X1244555Y896351D01*
X1246613Y898409D01*
X1248409Y896613D01*
X1246351Y894555D01*
X1247476Y893906D01*
X1249139Y893460D01*
X1250861D01*
X1252524Y893906D01*
X1253649Y894555D01*
X1251591Y896613D01*
X1253387Y898409D01*
X1255445Y896351D01*
X1256094Y897476D01*
X1256540Y899139D01*
Y900861D01*
X1256094Y902524D01*
X1255445Y903649D01*
X1253387Y901591D01*
X1251591Y903387D01*
X1253649Y905445D01*
X1252524Y906094D01*
X1250861Y906540D01*
D02*
G37*
G36*
X1100861D02*
X1099139D01*
X1097476Y906094D01*
X1096351Y905445D01*
X1098409Y903387D01*
X1096613Y901591D01*
X1094555Y903649D01*
X1093906Y902524D01*
X1093460Y900861D01*
Y899139D01*
X1093906Y897476D01*
X1094555Y896351D01*
X1096613Y898409D01*
X1098409Y896613D01*
X1096351Y894555D01*
X1097476Y893906D01*
X1099139Y893460D01*
X1100861D01*
X1102524Y893906D01*
X1103649Y894555D01*
X1101591Y896613D01*
X1103387Y898409D01*
X1105445Y896351D01*
X1106094Y897476D01*
X1106540Y899139D01*
Y900861D01*
X1106094Y902524D01*
X1105445Y903649D01*
X1103387Y901591D01*
X1101591Y903387D01*
X1103649Y905445D01*
X1102524Y906094D01*
X1100861Y906540D01*
D02*
G37*
G36*
X1067270Y918270D02*
X1033730D01*
Y895643D01*
X1026946D01*
X1026241Y896699D01*
X1026428Y897151D01*
Y899247D01*
X1025626Y901184D01*
X1024143Y902666D01*
X1022206Y903469D01*
X1020110D01*
X1019826Y903351D01*
X1018770Y904057D01*
Y908270D01*
X981230D01*
Y870230D01*
X1018770D01*
Y882857D01*
X1033730D01*
Y880758D01*
X1032674Y880052D01*
X1032544Y880106D01*
X1030447D01*
X1028510Y879304D01*
X1027028Y877821D01*
X1026226Y875884D01*
Y873788D01*
X1027028Y871851D01*
X1028510Y870368D01*
X1030447Y869566D01*
X1032544D01*
X1032674Y869620D01*
X1033730Y868914D01*
Y861730D01*
X1067270D01*
Y918270D01*
D02*
G37*
G36*
X1221618Y892290D02*
X1218382D01*
X1215256Y891452D01*
X1212454Y889834D01*
X1212208Y889588D01*
X1214255Y887541D01*
X1212459Y885745D01*
X1210412Y887792D01*
X1210166Y887546D01*
X1208548Y884744D01*
X1207710Y881618D01*
Y878382D01*
X1208548Y875256D01*
X1210166Y872454D01*
X1210412Y872208D01*
X1212459Y874255D01*
X1214255Y872459D01*
X1212208Y870412D01*
X1212454Y870165D01*
X1215256Y868548D01*
X1218382Y867710D01*
X1221618D01*
X1224744Y868548D01*
X1227546Y870165D01*
X1227792Y870412D01*
X1225745Y872459D01*
X1227541Y874255D01*
X1229588Y872208D01*
X1229834Y872454D01*
X1231452Y875256D01*
X1232290Y878382D01*
Y881618D01*
X1231452Y884744D01*
X1229834Y887546D01*
X1229588Y887792D01*
X1227541Y885745D01*
X1225745Y887541D01*
X1227792Y889588D01*
X1227546Y889834D01*
X1224744Y891452D01*
X1221618Y892290D01*
D02*
G37*
G36*
X862383Y906775D02*
X852842D01*
Y888985D01*
X854465D01*
Y886416D01*
X854230Y885849D01*
Y884151D01*
X854880Y882581D01*
X856081Y881380D01*
X857651Y880730D01*
X859349D01*
X860919Y881380D01*
X862120Y882581D01*
X862770Y884151D01*
Y885849D01*
X862152Y887340D01*
Y888985D01*
X862383D01*
Y906775D01*
D02*
G37*
G36*
X793540Y882740D02*
X784270D01*
Y879927D01*
X781730D01*
Y882740D01*
X772460D01*
Y873470D01*
X775273D01*
Y870930D01*
X772460D01*
Y861660D01*
X781730D01*
Y864473D01*
X784270D01*
Y861660D01*
X793540D01*
Y867886D01*
X801630D01*
Y862690D01*
X805460D01*
Y860898D01*
X806303Y858862D01*
X807862Y857303D01*
X809898Y856460D01*
X812102D01*
X813970Y857234D01*
X811831Y859373D01*
X813627Y861169D01*
X815766Y859030D01*
X816540Y860898D01*
Y862690D01*
X821210D01*
Y870460D01*
X818397D01*
Y873000D01*
X821210D01*
Y880770D01*
X812690D01*
Y877957D01*
X810150D01*
Y880770D01*
X801630D01*
Y875574D01*
X793540D01*
Y882740D01*
D02*
G37*
G36*
X849682Y906775D02*
X840143D01*
Y888985D01*
X841069D01*
Y883040D01*
X835492D01*
Y873500D01*
X847032D01*
Y877604D01*
X847630Y878202D01*
X847631Y878202D01*
X848464Y879449D01*
X848756Y880920D01*
Y888985D01*
X849682D01*
Y906775D01*
D02*
G37*
G36*
X950072Y893523D02*
X947868D01*
X945832Y892679D01*
X944273Y891121D01*
X943430Y889085D01*
Y886881D01*
X943770Y886060D01*
X942921Y884790D01*
X940230D01*
Y876270D01*
X943043D01*
Y873730D01*
X940230D01*
Y865210D01*
X943388D01*
X943460Y865102D01*
Y862898D01*
X944303Y860862D01*
X945862Y859303D01*
X947898Y858460D01*
X950102D01*
X951970Y859234D01*
X949831Y861373D01*
X951627Y863169D01*
X953766Y861030D01*
X954540Y862898D01*
Y865102D01*
X954612Y865210D01*
X958310D01*
Y873730D01*
X955497D01*
Y876270D01*
X958310D01*
Y884790D01*
X955018D01*
X954170Y886060D01*
X954510Y886881D01*
Y889085D01*
X953736Y890953D01*
X951597Y888814D01*
X949800Y890610D01*
X951940Y892749D01*
X950072Y893523D01*
D02*
G37*
G36*
X1250861Y856540D02*
X1249139D01*
X1247476Y856094D01*
X1246351Y855445D01*
X1248409Y853387D01*
X1246613Y851591D01*
X1244555Y853649D01*
X1243906Y852524D01*
X1243460Y850861D01*
Y849139D01*
X1243906Y847476D01*
X1244555Y846351D01*
X1246613Y848409D01*
X1248409Y846613D01*
X1246351Y844555D01*
X1247476Y843906D01*
X1249139Y843460D01*
X1250861D01*
X1252524Y843906D01*
X1253649Y844555D01*
X1251591Y846613D01*
X1253387Y848409D01*
X1255445Y846351D01*
X1256094Y847476D01*
X1256540Y849139D01*
Y850861D01*
X1256094Y852524D01*
X1255445Y853649D01*
X1253387Y851591D01*
X1251591Y853387D01*
X1253649Y855445D01*
X1252524Y856094D01*
X1250861Y856540D01*
D02*
G37*
G36*
X1100861D02*
X1099139D01*
X1097476Y856094D01*
X1096351Y855445D01*
X1098409Y853387D01*
X1096613Y851591D01*
X1094555Y853649D01*
X1093906Y852524D01*
X1093460Y850861D01*
Y849139D01*
X1093906Y847476D01*
X1094555Y846351D01*
X1096613Y848409D01*
X1098409Y846613D01*
X1096351Y844555D01*
X1097476Y843906D01*
X1099139Y843460D01*
X1100861D01*
X1102524Y843906D01*
X1103649Y844555D01*
X1101591Y846613D01*
X1103387Y848409D01*
X1105445Y846351D01*
X1106094Y847476D01*
X1106540Y849139D01*
Y850861D01*
X1106094Y852524D01*
X1105445Y853649D01*
X1103387Y851591D01*
X1101591Y853387D01*
X1103649Y855445D01*
X1102524Y856094D01*
X1100861Y856540D01*
D02*
G37*
G36*
X1050861D02*
X1049139D01*
X1047476Y856094D01*
X1046351Y855445D01*
X1048409Y853387D01*
X1046613Y851591D01*
X1044555Y853649D01*
X1043906Y852524D01*
X1043460Y850861D01*
Y849139D01*
X1043906Y847476D01*
X1044555Y846351D01*
X1046613Y848409D01*
X1048409Y846613D01*
X1046351Y844555D01*
X1047476Y843906D01*
X1049139Y843460D01*
X1050861D01*
X1052524Y843906D01*
X1053649Y844555D01*
X1051591Y846613D01*
X1053387Y848409D01*
X1055445Y846351D01*
X1056094Y847476D01*
X1056540Y849139D01*
Y850861D01*
X1056094Y852524D01*
X1055445Y853649D01*
X1053387Y851591D01*
X1051591Y853387D01*
X1053649Y855445D01*
X1052524Y856094D01*
X1050861Y856540D01*
D02*
G37*
G36*
X1000861D02*
X999139D01*
X997476Y856094D01*
X996351Y855445D01*
X998409Y853387D01*
X996613Y851591D01*
X994555Y853649D01*
X993906Y852524D01*
X993460Y850861D01*
Y849139D01*
X993906Y847476D01*
X994555Y846351D01*
X996613Y848409D01*
X998409Y846613D01*
X996351Y844555D01*
X997476Y843906D01*
X999139Y843460D01*
X1000861D01*
X1002524Y843906D01*
X1003649Y844555D01*
X1001591Y846613D01*
X1003387Y848409D01*
X1005445Y846351D01*
X1006094Y847476D01*
X1006540Y849139D01*
Y850861D01*
X1006094Y852524D01*
X1005445Y853649D01*
X1003387Y851591D01*
X1001591Y853387D01*
X1003649Y855445D01*
X1002524Y856094D01*
X1000861Y856540D01*
D02*
G37*
G36*
X950861D02*
X949139D01*
X947476Y856094D01*
X946351Y855445D01*
X948409Y853387D01*
X946613Y851591D01*
X944555Y853649D01*
X943906Y852524D01*
X943460Y850861D01*
Y849139D01*
X943906Y847476D01*
X944555Y846351D01*
X946613Y848409D01*
X948409Y846613D01*
X946351Y844555D01*
X947476Y843906D01*
X949139Y843460D01*
X950861D01*
X952524Y843906D01*
X953649Y844555D01*
X951591Y846613D01*
X953387Y848409D01*
X955445Y846351D01*
X956094Y847476D01*
X956540Y849139D01*
Y850861D01*
X956094Y852524D01*
X955445Y853649D01*
X953387Y851591D01*
X951591Y853387D01*
X953649Y855445D01*
X952524Y856094D01*
X950861Y856540D01*
D02*
G37*
G36*
X900861D02*
X899139D01*
X897476Y856094D01*
X896351Y855445D01*
X898409Y853387D01*
X896613Y851591D01*
X894555Y853649D01*
X893906Y852524D01*
X893460Y850861D01*
Y849139D01*
X893906Y847476D01*
X894555Y846351D01*
X896613Y848409D01*
X898409Y846613D01*
X896351Y844555D01*
X897476Y843906D01*
X899139Y843460D01*
X900861D01*
X902524Y843906D01*
X903649Y844555D01*
X901591Y846613D01*
X903387Y848409D01*
X905445Y846351D01*
X906094Y847476D01*
X906540Y849139D01*
Y850861D01*
X906094Y852524D01*
X905445Y853649D01*
X903387Y851591D01*
X901591Y853387D01*
X903649Y855445D01*
X902524Y856094D01*
X900861Y856540D01*
D02*
G37*
G36*
X987102Y837540D02*
X984898D01*
X982862Y836697D01*
X981303Y835138D01*
X980460Y833102D01*
Y830898D01*
X980221Y830540D01*
X977779D01*
X977540Y830898D01*
Y833102D01*
X976766Y834970D01*
X974627Y832831D01*
X972831Y834627D01*
X974970Y836766D01*
X973102Y837540D01*
X970898D01*
X968862Y836697D01*
X967303Y835138D01*
X966460Y833102D01*
Y830898D01*
X966552Y830677D01*
X966460Y830540D01*
X966460D01*
Y821270D01*
X969273D01*
Y818730D01*
X966460D01*
Y809460D01*
X985230D01*
Y812273D01*
X987770D01*
Y809460D01*
X1006540D01*
Y818730D01*
X1003727D01*
Y821270D01*
X1006540D01*
Y830540D01*
X1006540D01*
X1006516Y830576D01*
X1006517Y830580D01*
Y832784D01*
X1005743Y834652D01*
X1003604Y832513D01*
X1001808Y834309D01*
X1003947Y836448D01*
X1002079Y837222D01*
X999875D01*
X997839Y836378D01*
X996281Y834820D01*
X995437Y832784D01*
Y830580D01*
X995411Y830540D01*
X991779D01*
X991540Y830898D01*
Y833102D01*
X990766Y834970D01*
X988627Y832831D01*
X986831Y834627D01*
X988970Y836766D01*
X987102Y837540D01*
D02*
G37*
G36*
X797368Y834040D02*
X792632D01*
X787988Y833116D01*
X783613Y831304D01*
X779675Y828673D01*
X778899Y827897D01*
X780915Y825881D01*
X779119Y824085D01*
X777103Y826101D01*
X776327Y825325D01*
X773696Y821387D01*
X771884Y817012D01*
X770960Y812368D01*
Y807632D01*
X771884Y802988D01*
X773696Y798613D01*
X776327Y794675D01*
X777103Y793899D01*
X779119Y795915D01*
X780915Y794119D01*
X778899Y792103D01*
X779675Y791327D01*
X783613Y788696D01*
X787988Y786884D01*
X792632Y785960D01*
X797368D01*
X802012Y786884D01*
X806387Y788696D01*
X810325Y791327D01*
X811101Y792103D01*
X809085Y794119D01*
X810881Y795915D01*
X812897Y793899D01*
X813673Y794675D01*
X816304Y798613D01*
X818116Y802988D01*
X819040Y807632D01*
Y812368D01*
X818116Y817012D01*
X816304Y821387D01*
X813673Y825325D01*
X812897Y826101D01*
X810881Y824085D01*
X809085Y825881D01*
X811101Y827897D01*
X810325Y828673D01*
X806387Y831304D01*
X802012Y833116D01*
X797368Y834040D01*
D02*
G37*
G36*
X1250861Y806540D02*
X1249139D01*
X1247476Y806094D01*
X1246351Y805445D01*
X1248409Y803387D01*
X1246613Y801591D01*
X1244555Y803649D01*
X1243906Y802524D01*
X1243460Y800861D01*
Y799139D01*
X1243906Y797476D01*
X1244555Y796351D01*
X1246613Y798409D01*
X1248409Y796613D01*
X1246351Y794555D01*
X1247476Y793906D01*
X1249139Y793460D01*
X1250861D01*
X1252524Y793906D01*
X1253649Y794555D01*
X1251591Y796613D01*
X1253387Y798409D01*
X1255445Y796351D01*
X1256094Y797476D01*
X1256540Y799139D01*
Y800861D01*
X1256094Y802524D01*
X1255445Y803649D01*
X1253387Y801591D01*
X1251591Y803387D01*
X1253649Y805445D01*
X1252524Y806094D01*
X1250861Y806540D01*
D02*
G37*
G36*
X900861D02*
X899139D01*
X897476Y806094D01*
X896351Y805445D01*
X898409Y803387D01*
X896613Y801591D01*
X894555Y803649D01*
X893906Y802524D01*
X893460Y800861D01*
Y799139D01*
X893906Y797476D01*
X894555Y796351D01*
X896613Y798409D01*
X898409Y796613D01*
X896351Y794555D01*
X897476Y793906D01*
X899139Y793460D01*
X900861D01*
X902524Y793906D01*
X903649Y794555D01*
X901591Y796613D01*
X903387Y798409D01*
X905445Y796351D01*
X906094Y797476D01*
X906540Y799139D01*
Y800861D01*
X906094Y802524D01*
X905445Y803649D01*
X903387Y801591D01*
X901591Y803387D01*
X903649Y805445D01*
X902524Y806094D01*
X900861Y806540D01*
D02*
G37*
G36*
X850861D02*
X849139D01*
X847476Y806094D01*
X846351Y805445D01*
X848409Y803387D01*
X846613Y801591D01*
X844555Y803649D01*
X843906Y802524D01*
X843460Y800861D01*
Y799139D01*
X843906Y797476D01*
X844555Y796351D01*
X846613Y798409D01*
X848409Y796613D01*
X846351Y794555D01*
X847476Y793906D01*
X849139Y793460D01*
X850861D01*
X852524Y793906D01*
X853649Y794555D01*
X851591Y796613D01*
X853387Y798409D01*
X855445Y796351D01*
X856094Y797476D01*
X856540Y799139D01*
Y800861D01*
X856094Y802524D01*
X855445Y803649D01*
X853387Y801591D01*
X851591Y803387D01*
X853649Y805445D01*
X852524Y806094D01*
X850861Y806540D01*
D02*
G37*
%LPD*%
D13*
X949120Y875150D02*
Y887832D01*
Y875150D02*
X949270Y875000D01*
X948970Y887983D02*
X949120Y887832D01*
X956154Y995346D02*
Y1018236D01*
Y995346D02*
X956500Y995000D01*
X956804Y994696D02*
X980924D01*
X956500Y995000D02*
X956804Y994696D01*
X956500Y995000D02*
X956506Y994994D01*
Y971938D02*
Y994994D01*
X811420Y862000D02*
Y871730D01*
X811000Y862000D02*
X811420D01*
X949270Y864000D02*
Y875000D01*
X949000Y864000D02*
X949270D01*
X972000Y820000D02*
Y832000D01*
X986000Y820000D02*
Y832000D01*
Y820000D02*
X986500D01*
X972000D02*
X986000D01*
X1000977D02*
Y831682D01*
X986500Y820000D02*
X1000977D01*
X1080000Y1010000D02*
Y1022000D01*
Y998000D02*
Y1010000D01*
X1093500D01*
X1072000D02*
X1080000D01*
X911750Y877343D02*
X918250D01*
X859000Y820000D02*
X911750D01*
X905250Y885000D02*
Y899020D01*
X783000Y872200D02*
X783470Y871730D01*
X811420D01*
X828000Y851000D02*
Y886000D01*
Y851000D02*
X859000Y820000D01*
X815420Y886270D02*
X828000D01*
Y886000D02*
X831212Y889212D01*
Y896880D01*
X811420Y890270D02*
X815420Y886270D01*
X831212Y896880D02*
X832213Y897880D01*
X840000Y938000D02*
X876000D01*
X833213Y944788D02*
Y951120D01*
Y944788D02*
X840000Y938000D01*
X832213Y952120D02*
X833213Y951120D01*
X884255Y946255D02*
Y952000D01*
X876000Y938000D02*
X884255Y946255D01*
Y952000D02*
X885255Y953000D01*
X895250Y922942D02*
X913602D01*
X874313Y902005D02*
X895250Y922942D01*
X913602D02*
X917680Y927020D01*
X901795Y943205D02*
X905250Y939750D01*
X901795Y943205D02*
Y953000D01*
X917680Y927020D02*
X932020D01*
X935427Y930427D01*
X930730Y822770D02*
X933500Y820000D01*
X950000Y958270D02*
Y988500D01*
X956500Y995000D01*
X950000Y920000D02*
Y929136D01*
X948709Y930427D02*
X950000Y929136D01*
X948709Y930427D02*
Y940730D01*
X949709Y941730D02*
X950000D01*
X948709Y940730D02*
X949709Y941730D01*
X870312Y868220D02*
Y897880D01*
Y902005D01*
X858309Y885191D02*
Y897184D01*
Y885191D02*
X858500Y885000D01*
X857613Y897880D02*
X858309Y897184D01*
X878500Y885000D02*
X887730D01*
X855723Y861730D02*
X858992Y865000D01*
X841263Y861730D02*
X855723D01*
X841263Y878270D02*
X842262D01*
X844912Y880920D02*
Y897880D01*
X842262Y878270D02*
X844912Y880920D01*
D14*
X841263Y878270D02*
D03*
Y861730D02*
D03*
X950000Y920000D02*
D03*
Y903460D02*
D03*
Y958270D02*
D03*
Y941730D02*
D03*
D15*
X858992Y865000D02*
D03*
X873532D02*
D03*
D16*
X885255Y953000D02*
D03*
X901795D02*
D03*
X887730Y885000D02*
D03*
X904270D02*
D03*
D17*
X956500Y995000D02*
D03*
X915000D02*
D03*
D18*
X1000000Y889250D02*
D03*
Y930750D02*
D03*
D19*
X949270Y875000D02*
D03*
X930730D02*
D03*
D20*
X905250Y906140D02*
D03*
X911750D02*
D03*
X918250D02*
D03*
X924750D02*
D03*
Y933860D02*
D03*
X918250D02*
D03*
X911750D02*
D03*
X905250D02*
D03*
D21*
X915000Y924340D02*
D03*
D22*
Y913290D02*
D03*
D23*
X811420Y871730D02*
D03*
Y890270D02*
D03*
D24*
X832213Y952120D02*
D03*
X844912D02*
D03*
X857613D02*
D03*
X870312D02*
D03*
Y897880D02*
D03*
X857613D02*
D03*
X844912D02*
D03*
X832213D02*
D03*
D25*
X1093500Y1010000D02*
D03*
X1146500D02*
D03*
X986500Y820000D02*
D03*
X933500D02*
D03*
D26*
X1050500Y890000D02*
D03*
X1149500D02*
D03*
D47*
X839026Y962132D02*
X844912Y956245D01*
X838452Y964810D02*
X839026Y964236D01*
Y962132D02*
Y964236D01*
X844912Y956245D02*
X845456D01*
Y952664D02*
Y956245D01*
X831000Y971000D02*
X852000D01*
X857613Y965387D01*
X783000Y923000D02*
X831000Y971000D01*
X911750Y877343D02*
Y906140D01*
X918250Y875000D02*
Y906140D01*
Y875000D02*
X930730D01*
X918250Y820000D02*
X933500D01*
X911750D02*
X918250D01*
X848371Y961559D02*
X849000Y962188D01*
X848371Y959704D02*
Y961559D01*
X849000Y962188D02*
Y963000D01*
X844912Y956245D02*
X848371Y959704D01*
X812600Y978000D02*
X855000D01*
X783000Y948400D02*
X812600Y978000D01*
X855000D02*
X870312Y962688D01*
Y952120D02*
Y962688D01*
X857613Y952120D02*
Y965387D01*
X844912Y952120D02*
X845456Y952664D01*
X915000Y913290D02*
X923440D01*
X924750Y906140D02*
Y911980D01*
X923440Y913290D02*
X924750Y911980D01*
X935730Y890190D02*
X949000Y903460D01*
X930730Y875000D02*
X935730Y880000D01*
Y890190D01*
X949000Y903460D02*
X950000D01*
X924750Y881730D02*
Y906140D01*
Y881730D02*
X930730Y875750D01*
Y875000D02*
Y875750D01*
X918250Y991750D02*
X924750Y985250D01*
X918250Y933860D02*
Y991750D01*
X915000Y995000D02*
X918250Y991750D01*
X911750D02*
X915000Y995000D01*
X911750Y933860D02*
Y991750D01*
X924750Y933860D02*
Y985250D01*
X905250Y899020D02*
Y906140D01*
Y933860D02*
Y939750D01*
D48*
X918250Y820000D02*
Y875000D01*
X930730Y822770D02*
Y875000D01*
D49*
X943000Y820000D02*
X968000Y795000D01*
X1185000D01*
X1220000Y830000D01*
X933500Y820000D02*
X943000D01*
X935427Y930427D02*
X948709D01*
X1149500Y960000D02*
Y1007000D01*
Y890000D02*
Y960000D01*
X1220000D01*
X1146500Y1010000D02*
X1149500Y1007000D01*
X1146500Y1010000D02*
X1146500D01*
X1049750Y889250D02*
X1050500Y890000D01*
X1000000Y889250D02*
X1049750D01*
X948709Y930427D02*
X999677D01*
D50*
X783000Y948400D02*
D03*
Y923000D02*
D03*
Y897600D02*
D03*
D51*
Y872200D02*
D03*
D52*
X1220000Y880000D02*
D03*
Y1010000D02*
D03*
D53*
Y830000D02*
D03*
Y960000D02*
D03*
D54*
X838452Y964810D02*
D03*
X948970Y887983D02*
D03*
X956154Y1018236D02*
D03*
X980924Y994696D02*
D03*
X956506Y971938D02*
D03*
X811000Y862000D02*
D03*
X949000Y864000D02*
D03*
X972000Y832000D02*
D03*
X986000D02*
D03*
X1000977Y831682D02*
D03*
X1072000Y1010000D02*
D03*
X1080000Y1022000D02*
D03*
Y998000D02*
D03*
X849000Y963000D02*
D03*
X858500Y885000D02*
D03*
X878500D02*
D03*
D55*
X1167766Y1017080D02*
D03*
X891244Y935238D02*
D03*
X816711Y937783D02*
D03*
X1250000Y800000D02*
D03*
Y850000D02*
D03*
Y900000D02*
D03*
Y950000D02*
D03*
X900000Y850000D02*
D03*
X850000D02*
D03*
Y800000D02*
D03*
X900000D02*
D03*
X950000Y850000D02*
D03*
X1000000D02*
D03*
X1050000D02*
D03*
X1100000D02*
D03*
Y900000D02*
D03*
Y950000D02*
D03*
X1050000D02*
D03*
Y1000000D02*
D03*
X1000000D02*
D03*
X850000D02*
D03*
X892804Y814156D02*
D03*
X922069Y808382D02*
D03*
X952120Y801690D02*
D03*
X1167193Y1000463D02*
D03*
X1168307Y914510D02*
D03*
X1168661Y884627D02*
D03*
X1031496Y874836D02*
D03*
X1021158Y898199D02*
D03*
X978913Y941244D02*
D03*
X978817Y920314D02*
D03*
X933724Y928724D02*
D03*
D56*
X795000Y810000D02*
D03*
Y1020000D02*
D03*
M02*
