<?xml version="1.0" encoding="UTF-8" standalone="no"?>
<!-- Created with Inkscape (http://www.inkscape.org/) -->

<svg
   version="1.1"
   width="151.99254"
   height="57.564304"
   id="svg2"
   xml:space="preserve"
   sodipodi:docname="tud_logo_largerfont.svg"
   inkscape:export-filename="D:\Malte\job_ies\firefly_pcb\PCB_support_material\tud_logo.png"
   inkscape:export-xdpi="300.64893"
   inkscape:export-ydpi="300.64893"
   inkscape:version="1.1.2 (b8e25be833, 2022-02-05)"
   xmlns:inkscape="http://www.inkscape.org/namespaces/inkscape"
   xmlns:sodipodi="http://sodipodi.sourceforge.net/DTD/sodipodi-0.dtd"
   xmlns="http://www.w3.org/2000/svg"
   xmlns:svg="http://www.w3.org/2000/svg"
   xmlns:rdf="http://www.w3.org/1999/02/22-rdf-syntax-ns#"
   xmlns:cc="http://creativecommons.org/ns#"
   xmlns:dc="http://purl.org/dc/elements/1.1/"><sodipodi:namedview
     id="namedview191"
     pagecolor="#ffffff"
     bordercolor="#666666"
     borderopacity="1.0"
     inkscape:pageshadow="2"
     inkscape:pageopacity="0.0"
     inkscape:pagecheckerboard="0"
     showgrid="false"
     inkscape:zoom="2.8800756"
     inkscape:cx="59.199835"
     inkscape:cy="-7.2914753"
     inkscape:window-width="1920"
     inkscape:window-height="1137"
     inkscape:window-x="-8"
     inkscape:window-y="-8"
     inkscape:window-maximized="1"
     inkscape:current-layer="g10" /><metadata
     id="metadata8"><rdf:RDF><cc:Work
         rdf:about=""><dc:format>image/svg+xml</dc:format><dc:type
           rdf:resource="http://purl.org/dc/dcmitype/StillImage" /></cc:Work></rdf:RDF></metadata><defs
     id="defs6" /><g
     transform="matrix(1.25,0,0,-1.25,-17.744963,68.387983)"
     id="g10"
     inkscape:export-filename="D:\Malte\job_ies\firefly_pcb\PCB_support_material\g10.png"
     inkscape:export-xdpi="190.8022"
     inkscape:export-ydpi="190.8022"><path
       d="m 45.8254,10.6129 c -0.5117,0.2117 -1.4047,0.4762 -2.334,0.7226 0.0305,-0.5144 0.0945,-0.9855 0.1844,-1.40269 0.718,0.18989 1.4359,0.41559 2.1496,0.68009 z m -2.3524,1.1629 c 1.1512,-0.3024 2.402,-0.6668 2.886,-0.9574 0.4098,0.1636 0.8183,0.3402 1.2242,0.5308 -0.7312,0.393 -2.4586,0.9391 -4.0937,1.3977 -0.018,-0.336 -0.0231,-0.6602 -0.0165,-0.9711 z m 2.9598,-1.3813 C 46.4148,10.3844 46.3961,10.377 46.3762,10.3727 45.0879,9.86758 43.7836,9.48828 42.4852,9.2207 42.4656,9.21289 42.4445,9.20859 42.4219,9.20742 41.225,8.96406 40.0332,8.81484 38.8645,8.74922 38.8449,8.74453 38.8242,8.74297 38.8027,8.7457 34.8836,8.53359 31.223,9.25586 28.4773,10.4887 l -0.0941,0.0429 c -0.0266,0.0059 -0.0508,0.0176 -0.0715,0.0329 -4.6719,2.1652 -6.7793,6.0023 -2.2101,9.0964 -0.4688,0.7836 -1.0879,1.5102 -1.6938,2.2993 -0.1941,0.2523 -0.3906,0.5144 -0.5855,0.789 -0.3618,-0.9601 -0.4039,-1.5781 0.2054,-2.4449 0.07,-0.0996 0.045,-0.2012 -0.0195,-0.266 L 20.75,16.1348 c -0.0855,-0.1028 -0.2273,-0.1055 -0.3168,-0.0075 -16.29726,17.8602 2.275,44.9532 24.709,37.1575 0.1371,-0.0473 0.1859,-0.1832 0.1113,-0.3078 l -3.518,-5.8293 c -0.0359,-0.0782 -0.1152,-0.1356 -0.2285,-0.1141 -1.0925,0.2043 -1.7617,0.1414 -2.2324,-0.3113 1.0125,-0.1758 2.0578,-0.4426 3.1328,-0.8082 0.9598,1.0601 1.9785,2.0429 3.0785,2.9218 0.0145,0.0141 0.0309,0.0266 0.0489,0.0368 0.057,0.0355 0.1156,0.0394 0.1668,0.0226 0.0519,-0.0133 0.0988,-0.0484 0.1277,-0.1094 0.0098,-0.0179 0.0168,-0.0367 0.0211,-0.057 l 2.023,-5.9379 c 0.0207,-0.0469 0.0254,-0.1 0.0079,-0.15 -0.0168,-0.0496 -0.0532,-0.0887 -0.0981,-0.1133 -0.066,-0.0433 -0.1312,-0.0867 -0.1965,-0.1312 0.4156,-1.2524 3.3156,-9.9723 4.2094,-12.3199 0.2805,-0.7352 0.8973,-2.0731 0.9082,-2.8524 0.0109,-0.7949 -0.5398,-1.1621 -1.6723,-1.2437 -0.5629,-0.5414 -0.648,-0.7379 -0.3441,-1.1407 0.6035,-0.7988 0.2699,-1.1597 -0.4024,-1.6972 0.6524,-0.527 0.5047,-1.477 0.1825,-1.4922 -0.4715,-0.0219 -0.6508,-0.1691 -0.9188,-0.5449 2.0676,-2.0328 0.3586,-3.7672 -2.3937,-4.3481 -0.8707,-0.184 -1.875,-0.2687 -2.9578,-0.2308 -0.002,-0.011 -0.0047,-0.0223 -0.0082,-0.034 -0.3715,-1.1649 -0.5821,-2.2887 -0.67,-3.3168 1.8457,-0.5153 4.0266,-1.1953 4.6,-1.6766 0.0196,-0.0133 0.0371,-0.0304 0.0516,-0.0496 0.0437,-0.0512 0.0555,-0.109 0.0461,-0.1621 -0.0063,-0.0535 -0.0344,-0.1055 -0.0902,-0.1426 -0.0176,-0.0125 -0.0372,-0.023 -0.0579,-0.0301 -0.5414,-0.2636 -1.0875,-0.5035 -1.6363,-0.7203 z m -19.3023,7.9801 c 0.0105,-0.0234 0.0179,-0.0484 0.0199,-0.0742 0.132,-0.5016 0.1914,-1.0426 0.1523,-1.6434 1.2817,0.8782 0.9645,2.3461 0.5864,3.0399 -0.3286,-0.2199 -0.6641,-0.4297 -1.0063,-0.6297 0.0973,-0.2234 0.1809,-0.4539 0.2477,-0.6926 z M 26.7953,17.957 c -0.9301,-0.5898 -1.3644,-1.2652 -1.4387,-1.9406 0.6168,0.0758 1.1102,0.2121 1.5012,0.3914 0.0645,0.5645 0.036,1.075 -0.0625,1.5492 z m -1.4387,-2.364 c 0.0286,-0.2711 0.1114,-0.5387 0.2387,-0.7977 2.9391,0.0508 5.1422,2.9785 3.5551,5.8176 -0.2988,-0.234 -0.6031,-0.4606 -0.9137,-0.6777 0.5906,-1.0688 1.0844,-3.8852 -2.8801,-4.3422 z m 0.4832,-1.2086 c 0.2352,-0.336 0.5442,-0.6504 0.9047,-0.9293 4.2907,1.216 5.1836,4.8109 3.491,8.0629 -0.2464,-0.2188 -0.4972,-0.4317 -0.7519,-0.6391 1.7977,-3.1101 -0.5492,-6.2855 -3.6438,-6.4945 z m 1.345,-1.236 c 0.407,-0.2554 0.8593,-0.4679 1.3324,-0.6211 5.2836,2.6723 4.0113,8.127 2.8043,10.0079 -0.2504,-0.2477 -0.5047,-0.4899 -0.7629,-0.7266 1.816,-3.3875 0.9785,-7.2559 -3.3738,-8.6602 z m 16.5101,21.4914 c 1.8453,0.7161 4.1141,1.0559 5.8836,0.5012 -0.7933,2.334 -1.6164,4.7957 -2.075,6.1723 C 47.4863,38.9371 46.407,36.6957 44.0793,35.7516 43.9926,35.3707 43.866,35 43.6949,34.6398 z m -0.6734,-0.3511 c 0.0086,0.0234 0.0219,0.0453 0.0406,0.0652 0.3051,0.5 0.5074,1.0215 0.6238,1.566 8e-4,0.0235 0.0055,0.0465 0.0141,0.0684 0.098,0.4914 0.127,1.0008 0.0988,1.5308 -0.0054,0.0231 -0.0074,0.0473 -0.0039,0.0711 -0.0242,0.3832 -0.0777,0.7774 -0.1554,1.1817 -0.2661,-0.3051 -0.5278,-0.6164 -0.7852,-0.9336 0.1168,-1.3563 -0.2008,-2.8348 -1.634,-4.1551 0.0442,-0.4215 0.0469,-0.8336 0.0121,-1.2344 0.7961,0.5801 1.3805,1.1918 1.7891,1.8399 z M 32.1859,21.743 c 0.1227,0.448 0.361,0.8476 0.6809,1.1656 -0.148,0.3098 -0.2414,0.6258 -0.3055,0.9273 -0.3062,-0.3394 -0.6183,-0.6718 -0.9367,-0.9961 0.191,-0.2855 0.3863,-0.6585 0.5613,-1.0968 z m 1.0153,1.4468 c 0.2539,0.1793 0.5406,0.3145 0.8496,0.3954 -0.1649,0.4418 -0.3031,0.966 -0.368,1.5515 -0.2519,-0.3051 -0.5078,-0.6058 -0.7668,-0.9023 0.0547,-0.3442 0.136,-0.7012 0.2852,-1.0446 z M 23.1371,21.5867 c 0,0.4938 0.159,0.9934 0.3965,1.5793 -1.0457,1.5582 -2.0059,3.5406 -2.3215,6.5145 -0.0051,0.0207 -0.0078,0.0422 -0.0066,0.0633 -0.0289,0.282 -0.052,0.5734 -0.0688,0.8742 -0.0054,0.0222 -0.0074,0.0457 -0.0039,0.0703 -0.0055,0.1 -0.0098,0.2008 -0.0137,0.3031 -0.0367,0.9621 0.0247,1.9344 0.1786,2.8992 -0.0016,0.0282 0.0031,0.0551 0.0128,0.0797 0.0473,0.2875 0.1032,0.5746 0.1668,0.8602 -3e-4,0.0289 0.0055,0.0582 0.0192,0.0859 0.6234,2.7211 1.9805,5.3305 3.9512,7.4227 0.0136,0.0203 0.0308,0.0382 0.0507,0.0531 0.5817,0.6113 1.2161,1.1781 1.9004,1.6894 l 0.0129,0.0098 c 1.0711,0.7988 2.2645,1.4629 3.568,1.952 0.0137,0.0074 0.0281,0.0129 0.0422,0.016 1.5969,0.5945 3.3582,0.9269 5.2629,0.9269 0.1113,0.0114 0.223,0.0106 0.332,-0.0035 0.7027,-0.0144 1.4246,-0.0734 2.1648,-0.182 0.3286,0.4226 0.7348,0.6449 1.2286,0.7265 -0.043,0.0122 -0.086,0.0235 -0.1289,0.0352 -0.0083,0.0016 -0.0161,0.0035 -0.0235,0.0059 -0.9176,0.2418 -1.8371,0.3894 -2.7512,0.4507 l -0.0144,4e-4 c -4.8531,0.318 -9.5367,-1.8164 -12.7715,-5.3726 l -0.0094,-0.0102 c -0.6535,-0.7195 -1.2476,-1.4976 -1.7722,-2.3246 -0.0055,-0.0109 -0.0118,-0.0207 -0.0192,-0.0305 -0.4844,-0.7675 -0.9086,-1.5777 -1.264,-2.4238 -0.002,-0.0055 -0.0043,-0.0101 -0.0067,-0.0156 -0.3488,-0.8313 -0.6312,-1.6977 -0.8394,-2.5918 -0.8035,-3.4531 -0.5016,-7.3168 1.3617,-11.2274 l 0.0031,-0.0054 c 0.3859,-0.8098 0.8387,-1.6207 1.3625,-2.4309 z m 0.7887,1.75 c 0.0183,-0.0183 0.0332,-0.0394 0.0433,-0.0633 0.152,-0.2222 0.3055,-0.4355 0.4586,-0.6421 0.8266,0.6378 1.6055,1.3156 2.3446,2.0273 -0.3645,0.1875 -0.6961,0.3555 -1.0016,0.5269 -0.5687,-0.5746 -0.9578,-0.8347 -1.9309,-0.823 -0.1589,0.0016 -0.2457,0.1219 -0.1984,0.2734 0.1746,0.5575 0.0106,1.8895 -4e-4,2.5809 -0.0793,0.1348 -0.1574,0.2785 -0.2351,0.4316 -0.2594,-0.0539 -0.5758,-0.0722 -1.0071,-0.0722 -0.2402,0 -0.3195,0.2035 -0.1418,0.3656 0.6516,0.5937 0.5539,1.4445 0.691,2.5391 -0.3726,-0.1965 -1.0468,-0.6661 -1.307,-0.852 0.3215,-2.8758 1.2621,-4.7828 2.2848,-6.2922 z m 2.0484,-2.7265 c 8.6102,5.7617 12.0477,16.2527 19.7508,22.8628 l -1.1387,0.2293 c -0.2242,0.0497 -0.2242,0.0446 -0.2004,0.2981 l 0.1864,1.6004 c -7.116,-7.268 -11.0879,-19.193 -19.1524,-24.2547 0.1918,-0.2465 0.3781,-0.4902 0.5543,-0.7359 z m 20.034,26.3507 C 45.6828,46.6762 45.3645,46.382 45.052,46.0781 l -0.2348,-1.9851 1.3207,-0.2727 c 0.2422,0.1996 0.4891,0.3953 0.7402,0.5875 l -0.1754,0.516 c -0.3781,-0.1289 -0.7886,0.0727 -0.9175,0.4512 -0.1289,0.3781 0.0726,0.7887 0.4511,0.9176 l -0.2281,0.6683 z m -18.757,-22.416 c -0.8094,-0.7957 -1.6629,-1.5496 -2.5699,-2.2496 l 0.0605,-0.0789 c 0.1395,-0.182 0.2793,-0.3605 0.4176,-0.5367 4.2383,2.6449 7.3355,7.2484 10.4133,12.1207 2.6675,4.2226 5.4691,8.9449 9.1058,12.5027 0.0149,0.0215 0.0328,0.0387 0.0531,0.052 0.368,0.3578 0.7442,0.7039 1.1301,1.0359 l -0.3222,0.9465 c -1.4055,-1.1508 -2.6829,-2.4836 -3.868,-3.916 -0.0117,-0.0207 -0.027,-0.0391 -0.0453,-0.0547 -2.2805,-2.7672 -4.2211,-5.902 -6.0821,-8.818 C 34.5645,34.0137 33.5703,32.4695 32.5234,30.9641 32.5133,30.941 32.4992,30.9215 32.4824,30.9047 32.0586,30.2969 31.6262,29.6953 31.182,29.1035 31.1711,29.082 31.1574,29.0641 31.141,29.0492 30.8203,28.6227 30.4934,28.2008 30.1598,27.7852 30.1496,27.766 30.1352,27.7484 30.1172,27.7324 29.6293,27.127 29.1266,26.5348 28.6059,25.9594 28.593,25.9391 28.577,25.9215 28.5578,25.9066 28.1441,25.4512 27.7191,25.007 27.2813,24.5746 l -0.0301,-0.0297 z m -0.1614,0.4235 c 0.3149,0.3125 0.6235,0.6312 0.925,0.955 -1.9628,0.3207 -3.0437,1.2461 -3.4757,2.4063 -0.2703,-0.259 -0.484,-0.4336 -0.7282,-0.5488 0.0621,-0.1204 0.1246,-0.2336 0.1879,-0.3411 0.0246,-0.0226 0.0442,-0.0531 0.0543,-0.0906 0.7926,-1.3004 1.6758,-1.6793 3.0367,-2.3808 z m 1.2696,1.3304 c 0.3226,0.3571 0.6386,0.7207 0.9476,1.0895 -3.6015,-1.0235 -5.8781,4.6566 0.2762,6.9883 -0.4434,0.15 -0.8894,0.3129 -1.325,0.5023 -3.9996,-1.791 -5.3344,-7.8766 0.1012,-8.5801 z m 1.5039,1.7676 c 0.3156,0.393 0.6246,0.7922 0.9281,1.1953 0.1449,1.0625 -0.1293,2.2465 -1.4551,2.8399 -0.3769,-0.1938 -0.7179,-0.4262 -0.9953,-0.7039 1.9524,-0.3137 1.9121,-2.7704 0.1445,-2.7704 -1.4648,0 -1.3886,1.8149 -0.7539,2.7 0.009,0.0161 0.02,0.0313 0.0329,0.0442 l 0.0054,0.007 c 0.3137,0.4047 0.7813,0.7934 1.4348,1.1254 0.0207,0.0164 0.0449,0.0293 0.0719,0.0359 0.4761,0.2344 1.0476,0.4399 1.7257,0.6008 0.0243,0.011 0.0508,0.0176 0.0786,0.018 0.4074,0.0937 0.8523,0.1715 1.3375,0.2305 -0.3774,0.1703 -0.8016,0.3234 -1.2598,0.475 -0.2981,0.0988 -0.6055,0.1961 -0.9184,0.2964 -6.6367,-2.1441 -3.9711,-7.996 -0.3769,-6.0941 z m 1.3812,1.8063 c 0.2938,0.4011 0.5821,0.8066 0.8668,1.2156 -0.082,0.4121 -0.5312,1.1609 -1.0722,1.6226 -0.409,-0.0996 -0.8231,-0.2261 -1.2149,-0.3859 1.0262,-0.5898 1.3922,-1.5379 1.4203,-2.4523 z m 1.1676,1.6511 c 0.3055,0.4453 0.6067,0.8942 0.9047,1.3453 -0.0738,0.0571 -0.1516,0.1118 -0.2336,0.1645 -0.4285,-0.0356 -0.9707,-0.1 -1.5461,-0.2133 0.3774,-0.3851 0.7024,-0.8769 0.875,-1.2965 z m 1.1367,1.6981 c 0.3078,0.4699 0.6133,0.9422 0.9168,1.4156 -1.1605,0.2695 -3.2683,0.1234 -4.5816,0.0949 0.457,-0.1574 0.9281,-0.3097 1.407,-0.4683 0.7055,-0.2336 1.3774,-0.4832 1.9266,-0.818 0.0234,-0.009 0.0441,-0.0219 0.0609,-0.0379 0.0942,-0.059 0.1844,-0.1211 0.2703,-0.1863 z m 1.1555,1.789 c 0.2168,0.3391 0.4328,0.6789 0.6492,1.0188 -1.2879,0.4023 -3.3711,0.307 -4.6383,0.2883 -1.5476,-0.0235 -3.1582,-0.036 -4.4172,0.2804 0.6536,-0.6023 1.4586,-1.0367 2.3528,-1.4066 0.6328,-0.1055 2.2133,-0.0098 2.7539,0.0051 1.1824,0.0316 2.4789,0.0394 3.2996,-0.186 z m 0.882,1.3856 c 0.1832,0.2887 0.3668,0.5765 0.5504,0.8644 -1.6515,0.6332 -4.3047,0.4149 -6.0039,0.4106 -1.9726,-0.0055 -3.9609,0.1273 -5.2426,1.209 0.1957,-0.6485 0.4774,-1.1891 0.8286,-1.6485 1.8902,-0.8105 5.5292,-0.3918 7.757,-0.5011 0.7871,-0.0387 1.5168,-0.1297 2.1105,-0.3344 z m 0.7809,1.2254 c 0.1906,0.2976 0.3812,0.5945 0.5726,0.8902 -0.6578,0.2152 -1.2988,0.3613 -1.9339,0.459 -0.0219,0 -0.0434,0.0035 -0.0641,0.0098 -1.6668,0.2492 -3.2961,0.173 -5.0879,0.1605 -1.1125,-0.0082 -2.1523,0.0328 -3.0656,0.3227 -0.0246,0.0027 -0.0488,0.0105 -0.0715,0.0226 -0.7527,0.2512 -1.4168,0.6774 -1.9617,1.3926 -0.0547,-0.0711 -0.1086,-0.1426 -0.1621,-0.2148 0.0199,-0.3485 0.0566,-0.6747 0.1093,-0.9809 1.0676,-1.3965 3.125,-1.5973 5.4297,-1.5914 1.82,0.0047 4.4989,0.2363 6.2352,-0.4703 z m 5.1207,7.234 c 0.2019,0.2421 0.407,0.4808 0.6141,0.7164 -1.1094,0.3675 -2.1856,0.6269 -3.2258,0.7875 -0.0176,4e-4 -0.0344,0.0031 -0.0516,0.0078 -0.4848,0.0738 -0.9621,0.1254 -1.4312,0.1574 0.182,-0.257 0.2894,-0.6285 0.2671,-1.1383 0.2481,-0.2109 0.3907,-0.5148 0.4223,-0.8297 0.3059,0.1887 0.7141,0.2473 1.175,0.0957 0.3805,0.8473 1.5168,0.9782 2.2301,0.2032 z m -23.3297,-25.0926 3.8527,2.8793 c -0.1836,0.3297 -0.3562,0.659 -0.5179,0.9887 l -3.2203,-1.9637 c -0.2395,-0.1461 -0.4586,0.2133 -0.2192,0.3594 l 3.257,1.9863 c -0.1296,0.2789 -0.2519,0.5574 -0.3664,0.8359 l -4.4238,-2.0578 c 0.4559,-1.0234 1.0004,-2.0351 1.6379,-3.0281 z m 4.0625,2.5109 -3.8316,-2.864 c 0.6414,-0.9602 1.3707,-1.9024 2.1929,-2.82 l 3.0059,3.6012 c -0.1988,0.2715 -0.3895,0.5434 -0.5723,0.8156 l -2.8672,-2.8359 c -0.1996,-0.1977 -0.4957,0.1019 -0.2961,0.2992 l 2.927,2.8949 c -0.1961,0.3028 -0.382,0.6059 -0.5586,0.909 z m -5.868,0.9035 4.4348,2.0629 c -0.1117,0.2903 -0.216,0.5797 -0.3117,0.8688 l -3.6227,-1.0641 c -0.2691,-0.0785 -0.3879,0.3254 -0.1183,0.4043 l 3.6129,1.0613 c -0.1207,0.3922 -0.2266,0.784 -0.3184,1.1743 l -4.8086,-1.0266 c 0.2711,-1.168 0.6465,-2.3309 1.132,-3.4809 z m -1.2234,3.8918 4.8082,1.0266 c -0.0719,0.3418 -0.1328,0.6832 -0.1836,1.0219 L 15.925,28.7594 c -0.2793,-0.0266 -0.3187,0.3926 -0.0395,0.4187 l 3.8118,0.3574 c -0.0477,0.3829 -0.0817,0.7633 -0.1024,1.1407 l -4.9121,0.0988 c 0.0391,-1.2312 0.1852,-2.4703 0.4465,-3.7055 z m -0.4555,4.1266 4.9028,-0.0984 c -0.0102,0.3351 -0.0102,0.6675 -4e-4,0.9976 l -3.7942,0.4188 c -0.2789,0.0308 -0.2328,0.4492 0.0461,0.4187 l 3.766,-0.4164 c 0.0235,0.4215 0.0625,0.8391 0.1172,1.2516 l -4.7836,0.9851 c -0.1812,-1.1707 -0.2679,-2.3593 -0.2539,-3.557 z m 0.3223,3.9723 4.7758,-0.9832 c 0.0515,0.3257 0.1129,0.6472 0.1832,0.9664 l -3.6586,1.1523 c -0.2676,0.0836 -0.141,0.4856 0.1265,0.4012 l 3.6282,-1.1426 c 0.0785,0.3168 0.166,0.6305 0.2625,0.9406 L 15.9125,38.7 c -0.3992,-1.1484 -0.7074,-2.3289 -0.9164,-3.5316 z m 1.0594,3.9312 4.3898,-2.1918 c 0.107,0.3156 0.2235,0.6274 0.3485,0.9352 l -3.3551,2.0562 c -0.2391,0.1469 -0.0188,0.5055 0.2199,0.3586 l 3.3008,-2.023 c 0.1465,0.3355 0.3035,0.6652 0.4707,0.9882 l -3.9485,3.0098 c -0.5515,-1.007 -1.0289,-2.0551 -1.4261,-3.1332 z m 1.6336,3.5051 3.9414,-3.0047 c 0.1433,0.2613 0.2933,0.5188 0.4496,0.7715 l -2.8934,2.775 c -0.2023,0.1941 0.0891,0.498 0.2918,0.3035 l 2.832,-2.7156 c 0.2122,0.3246 0.4352,0.6422 0.668,0.9515 l -3.323,3.8375 c -0.7266,-0.9234 -1.3848,-1.9 -1.9664,-2.9187 z m 2.2343,3.2527 3.3172,-3.832 c 0.2082,0.2629 0.4239,0.5191 0.6461,0.7684 l -2.4594,3.3812 c -0.1652,0.2266 0.1754,0.4742 0.3403,0.2473 l 2.4086,-3.311 c 0.2449,0.2621 0.498,0.5168 0.7582,0.7629 l -2.6176,4.5094 C 21.457,47.6012 20.657,46.7559 19.9234,45.8574 z m 2.7137,2.8129 2.6145,-4.5039 c 0.2265,0.2043 0.4582,0.402 0.6949,0.5938 l -1.7227,3.9664 c -0.1121,0.2578 0.2742,0.4254 0.386,0.1679 l 1.6785,-3.8648 c 0.3004,0.2316 0.6082,0.4527 0.9226,0.6633 l -1.7214,5.1152 c -1.0067,-0.6394 -1.9602,-1.3551 -2.8524,-2.1379 z m 3.2199,2.3656 1.7184,-5.1058 c 0.2711,0.1719 0.5469,0.3359 0.8269,0.4918 l -1.0171,4.2636 c -0.0653,0.2731 0.3441,0.3708 0.4093,0.0977 l 0.991,-4.1539 c 0.3,0.1566 0.6043,0.3047 0.9129,0.4434 l -0.7425,5.5328 C 27.8781,52.1621 26.843,51.6359 25.857,51.0359 z m 3.502,1.7305 0.741,-5.5199 c 0.3219,0.1344 0.648,0.2582 0.9781,0.3723 l -0.1511,4.6054 c -0.009,0.2801 0.4113,0.2946 0.4207,0.0137 l 0.1468,-4.4824 c 0.3231,0.1015 0.6496,0.1929 0.9789,0.2734 l 0.3922,5.7703 c -1.209,-0.2476 -2.3801,-0.5953 -3.5066,-1.0328 z m 3.9344,1.116 -0.3914,-5.7551 c 0.3769,0.0817 0.7574,0.1493 1.1402,0.2024 l 0.6953,4.5484 c 0.0422,0.2774 0.4586,0.2133 0.416,-0.064 l -0.6769,-4.4309 c 0.2961,0.0328 0.5937,0.0566 0.8925,0.0719 l 1.4887,5.7808 c -1.2172,-0.0203 -2.4074,-0.1414 -3.5644,-0.3535 z m 4,0.3563 -1.4856,-5.768 c 0.3817,0.0082 0.7645,0.002 1.1488,-0.0195 l 1.4223,4.5504 c 0.0836,0.2675 0.4856,0.1422 0.4016,-0.1258 l -1.3922,-4.4543 c 0.3484,-0.0293 0.698,-0.0707 1.048,-0.1254 l 2.4242,5.6461 c -1.2093,0.1969 -2.4003,0.293 -3.5671,0.2965 z m 3.9937,-0.3696 -2.4238,-5.6461 c 0.3152,-0.0585 0.6305,-0.1273 0.9453,-0.2066 l 2.3789,4.5922 c 0.1289,0.2488 0.5027,0.0555 0.3738,-0.1938 L 40.225,47.9047 c 0.4113,-0.116 0.8223,-0.2508 1.2316,-0.4047 l 3.3016,5.4711 c -1.1699,0.3937 -2.3281,0.6906 -3.4711,0.898 z M 33.6523,41.184 c -0.0039,-0.0356 -0.016,-0.0703 -0.0375,-0.0996 -0.023,-0.0317 -0.0562,-0.0571 -0.1007,-0.0711 -0.011,-0.0039 -0.0227,-0.0063 -0.0352,-0.009 -0.3535,-0.0613 -0.7121,-0.052 -1.0586,0.0168 -0.0375,-0.0348 -0.0789,-0.068 -0.1242,-0.0996 0.0598,-0.3996 0.2644,-0.9121 0.7375,-1.3555 0.3164,-0.0105 0.6312,-0.0273 0.9461,-0.0527 l 0.9519,3.8637 c -1.0347,0.3046 -1.3207,2.141 0.0735,2.3777 -0.011,0.3008 0.1164,0.5691 0.3215,0.7785 -0.7348,-0.0453 -1.4457,-0.1426 -2.1313,-0.2867 l 0.1961,-2.1567 c 0.0074,-0.0242 0.009,-0.0492 0.007,-0.0738 l 0.0207,-0.2289 C 33.4445,43.5078 33.0254,43.4695 33,43.7492 l -0.0152,0.1653 -0.8672,0.6152 c -0.2258,-0.1914 -0.3692,-0.4766 -0.3692,-0.7957 0,-0.5746 0.4668,-1.0422 1.0426,-1.0422 0.1047,0 0.2059,0.0156 0.3012,0.0445 l -0.007,0.0758 c -0.0254,0.2793 0.3937,0.3172 0.4191,0.0379 l 0.0199,-0.2152 c 0.0035,-0.0168 0.0051,-0.0332 0.0043,-0.0496 l 0.1231,-1.3504 c 0.0019,-0.0203 0.0019,-0.036 7e-4,-0.0508 z m -1.5652,3.8832 0.1238,-0.0875 c 0.0149,-0.0078 0.0286,-0.018 0.0414,-0.0297 l 0.6821,-0.4836 -0.1531,1.6867 c -0.5489,-0.132 -1.0805,-0.2945 -1.5946,-0.4851 -1.0922,-1.1914 -0.9679,-2.4512 -0.2879,-3.2938 0.0231,-0.0187 0.0418,-0.0418 0.0559,-0.0672 0.5391,-0.6234 1.3891,-0.9988 2.2601,-0.914 l -0.0839,0.9179 c -0.1094,-0.0257 -0.2231,-0.0398 -0.3399,-0.0398 -0.8082,0 -1.4633,0.6555 -1.4633,1.4629 0,0.4164 0.1735,0.7914 0.4516,1.0574 -0.1039,0.1727 0.1074,0.418 0.3078,0.2758 z m -0.1859,-3.8957 c -0.4516,0.173 -0.8641,0.4476 -1.1938,0.7937 -1.4801,-0.3789 -2.7633,0.7262 -3.2511,1.6309 -0.5079,-0.3926 -0.9868,-0.8168 -1.4348,-1.268 l 0.9008,-0.239 c 0.0109,-0.0024 0.0218,-0.0051 0.0324,-0.0086 l 0.2285,-0.0606 c 0.0332,-0.0023 0.0668,-0.0125 0.0981,-0.034 0.032,-0.0191 0.0558,-0.0441 0.0722,-0.0722 1.0692,-1.2102 3.5942,-1.2305 4.5477,-0.7422 z m -1.4926,1.1625 c -0.5625,0.8187 -0.6957,1.9129 0.007,3.0223 -0.9386,-0.4125 -1.8133,-0.9196 -2.6183,-1.5047 0.3789,-0.7672 1.4332,-1.695 2.6113,-1.5176 z m -3.3566,-0.7149 -0.045,0.0118 c -0.1457,-0.4313 -0.1281,-1.3344 -0.0148,-1.7895 0.8211,-0.2445 1.7773,-0.2867 2.8586,-0.2789 0.9004,0.0059 1.7578,0.0273 2.5988,0.0164 -0.3027,0.3801 -0.4687,0.7824 -0.5437,1.1363 -1.2543,-0.5011 -3.734,-0.3382 -4.8539,0.9039 z m 0.716,-6.5132 c -0.2707,0.1343 -0.5356,0.2812 -0.791,0.4441 -0.3133,-0.2254 -0.5989,-0.4461 -0.8594,-0.6617 -0.0098,-0.0098 -0.0199,-0.0188 -0.0313,-0.0266 -0.5547,-0.4617 -0.9941,-0.9023 -1.3437,-1.3211 -0.009,-0.014 -0.0196,-0.0265 -0.0313,-0.0383 -0.1582,-0.1914 -0.2968,-0.3781 -0.4199,-0.5609 -0.009,-0.0219 -0.0223,-0.0426 -0.0398,-0.0601 -0.4953,-0.7547 -0.7133,-1.4325 -0.825,-2.0372 -0.1657,-0.8945 -0.0411,-2.0476 -0.561,-2.8355 0.8153,0.0484 1.0422,0.2769 1.5391,0.7769 -0.4977,2.2387 1.1098,5.1168 3.3633,6.3204 z m 0.25,-4.0989 c -0.0555,-0.082 -0.1059,-0.1675 -0.1508,-0.257 -0.4844,-0.9617 0.0367,-1.7012 0.6183,-1.7012 1.3137,0 1.236,1.8844 -0.4675,1.9582 z m -2.3801,4.0258 c -0.7324,0.5719 -1.5184,1.2078 -1.9266,2.0449 -0.0691,-0.4738 -0.0308,-0.9195 0.0676,-1.3297 l 0.0035,-0.0152 c 0.1707,-0.6957 0.5145,-1.2875 0.802,-1.7332 0.2941,0.3328 0.6422,0.6777 1.0535,1.0332 z m -1.5461,-8.4805 c 0.0395,-0.5882 0.0941,-1.1812 0.0117,-1.7617 0.6738,0.0469 0.9285,0.243 1.2949,0.6149 -0.4921,0.307 -0.9156,0.6511 -1.3066,1.1468 z m -0.2086,7.8118 -0.8195,-0.4141 0.4277,-0.9141 c 0.1582,0.077 0.3191,0.1379 0.4801,0.1797 0.1,0.1469 0.2098,0.2957 0.3305,0.4469 -0.1504,0.232 -0.2915,0.4656 -0.4188,0.7016 z m -2.3258,-3.7356 c 0.0102,-0.1734 0.0219,-0.3437 0.0364,-0.5113 0.3957,0.2851 1.039,0.7223 1.4289,0.8418 0.0976,0.5098 0.2668,1.0664 0.5906,1.6683 -0.0332,-0.0171 -0.0664,-0.0351 -0.0996,-0.0531 -0.0094,-0.0062 -0.0192,-0.0117 -0.0293,-0.0164 -0.9063,-0.5195 -1.7387,-1.566 -1.927,-1.9293 z m 0.0805,2.6692 c -0.0801,-0.6539 -0.1164,-1.3102 -0.107,-1.9633 0.2054,0.2656 0.4781,0.5754 0.7925,0.8683 l -0.6855,1.095 z m 0.2406,1.4054 C 21.823,34.45 21.7738,34.1961 21.7313,33.9418 l 0.9132,-1.4582 c 0.1532,0.1242 0.3129,0.2414 0.477,0.3461 -0.7328,1.5183 -0.8793,1.1996 0.573,1.9121 -0.1074,0.2316 -0.1992,0.4668 -0.2715,0.7059 -0.3902,-0.0918 -1.0179,-0.3735 -1.5445,-0.7446 z m 2.3375,5.4293 c -1.0066,-1.4855 -1.7488,-3.1332 -2.1949,-4.8375 0.4527,0.2672 0.9363,0.4742 1.3008,0.561 -0.1266,0.6441 -0.0973,1.3214 0.1676,2.0523 0.091,0.252 0.3652,0.225 0.4054,-0.0394 0.1656,-1.0719 1.2379,-1.9102 2.0731,-2.5598 0.1992,0.1621 0.4125,0.3269 0.6394,0.4926 -1.2125,0.8867 -2.1523,2.2015 -2.3914,4.3308 z m 1.4715,1.8485 c -0.2293,-0.2461 -0.45,-0.4996 -0.6621,-0.7598 0.4211,-0.5836 0.925,-0.9664 1.5082,-1.2152 -0.0762,0.5175 -0.0809,1.2597 0.0676,1.7328 l -0.9137,0.2422 z m 11.8285,1.3925 c -0.1902,-0.1136 -0.4285,-0.1843 -0.7168,-0.1918 -0.082,-0.5957 -0.1558,-1.2332 -0.0691,-1.823 l 1.1148,1.2008 c -0.1996,0.2668 -0.3039,0.5469 -0.3289,0.814 z m -1.2437,-1.2793 c -0.3149,0.0778 -0.6239,0.1762 -0.7547,0.5016 -0.0582,0.1449 0.4066,0.0727 0.4637,0.0715 0.1136,-0.0031 0.2257,0.025 0.3371,0.059 0.0254,0.2324 0.057,0.4636 0.0886,0.6918 8e-4,0.0058 0.0016,0.0121 0.0028,0.0187 0.0105,0.075 0.0211,0.1496 0.0308,0.2242 0.0379,0.2774 0.4524,0.2219 0.4176,-0.0539 1.241,0.1032 0.9973,1.877 -0.3156,1.6164 -0.275,-0.055 -0.3571,0.3582 -0.0817,0.4129 0.2977,0.059 0.5563,0.0457 0.7746,-0.0195 -0.1371,1.7801 -2.8664,0.6934 -1.3117,-0.6418 0.2133,-0.1824 -0.0609,-0.502 -0.2738,-0.3191 -0.2727,0.2339 -0.448,0.466 -0.5465,0.6879 -0.9683,-0.1485 -0.6871,-1.3403 -0.0703,-1.5551 l 0.0082,0.0347 c 0.0672,0.2723 0.4762,0.1719 0.409,-0.1011 l -0.0539,-0.2176 c -0.0016,-0.009 -0.0039,-0.0184 -0.0067,-0.0277 l -0.9863,-4.0036 c 0.1723,-0.0179 0.3445,-0.0394 0.5172,-0.064 l 1.4555,1.5679 c -0.0907,0.3633 -0.1145,0.7391 -0.1039,1.1168 z m 2.0785,-1.45 c -0.232,0.3223 -0.3156,0.7965 -0.2375,1.17 0.0398,0.1922 0.2285,-0.1145 0.2656,-0.1504 0.1297,-0.127 0.307,-0.2059 0.4816,-0.2793 0.3543,0.5078 0.7145,1.0101 1.0829,1.5054 0.4152,0.559 0.8386,1.1059 1.2734,1.6379 -0.7211,0.8629 -1.9438,0.3723 -1.6043,-0.991 0.0676,-0.2726 -0.341,-0.3742 -0.4086,-0.1015 -0.0758,0.3035 -0.091,0.5746 -0.0594,0.8105 -0.9218,0.3047 -1.58,-0.5348 -1.0074,-1.3723 0.1914,0.1809 0.4832,-0.0976 0.2961,-0.2992 l -1.6394,-1.766 C 36.7801,40.7867 36.7625,40.768 36.7422,40.7531 l -1.3219,-1.4246 c 0.5758,-0.1043 1.1582,-0.25 1.7567,-0.4515 0.3859,0.5937 0.7765,1.1832 1.1738,1.7671 z M 36.4918,28.85 c 2.3395,0.9309 3.0797,2.8254 2.9676,4.334 -0.5324,-0.7824 -1.0453,-1.5488 -1.5418,-2.2758 -0.4692,-0.6863 -0.943,-1.375 -1.4258,-2.0582 z m 4.6543,5.3473 c 0.9934,1.0113 1.3109,2.0992 1.3094,3.1425 -0.5446,-0.6914 -1.0703,-1.4015 -1.5785,-2.114 0.1179,-0.3465 0.207,-0.6899 0.2691,-1.0285 z m 3.0391,3.7683 c 1.066,0.8758 1.4867,1.7758 1.4597,2.8801 -0.5707,-0.523 -1.1222,-1.0875 -1.657,-1.6801 0.0898,-0.4082 0.157,-0.8082 0.1973,-1.2 z M 44.1699,36.25 c 2.1664,1.0176 3.0899,3.3418 2.8856,5.768 -0.3434,-0.2559 -0.6801,-0.5282 -1.011,-0.8153 0.1422,-1.4918 -0.3879,-2.6554 -1.8222,-3.7433 0.0175,-0.4129 0.0019,-0.8164 -0.0524,-1.2094 z m -8.523,-9.0617 c 0.0082,0.0015 0.0168,0.0023 0.0254,0.0027 2.4711,0.2403 4.6351,2.2059 5.0789,4.8207 0,0.0219 0.0031,0.0438 0.0109,0.0649 0.0828,0.5234 0.0965,1.0718 0.0309,1.6367 -0.0063,0.0215 -0.0094,0.0437 -0.0078,0.066 -0.043,0.3336 -0.1129,0.673 -0.2137,1.016 -0.2567,-0.3652 -0.509,-0.7293 -0.7574,-1.0918 0.3609,-1.859 -0.4938,-4.4613 -3.7446,-5.4457 -0.2625,-0.3664 -0.5285,-0.7301 -0.7976,-1.0902 0.1258,0.0023 0.2508,0.0097 0.375,0.0207 z m -9.0895,-7.475 c 0.0067,-0.0098 0.0129,-0.0203 0.018,-0.0313 0.0434,-0.0769 0.0855,-0.1547 0.1262,-0.2332 0.8261,0.484 1.6101,1.0301 2.3589,1.6278 0.0094,0.0093 0.0196,0.0175 0.0309,0.025 0.3524,0.282 0.6969,0.5761 1.034,0.8797 0.0144,0.0179 0.0312,0.0328 0.0504,0.0453 0.3418,0.3097 0.6762,0.6297 1.0039,0.9586 0.0121,0.0156 0.0266,0.0304 0.0422,0.0425 0.4386,0.4418 0.8652,0.9 1.2816,1.3715 0.0149,0.0289 0.036,0.0524 0.0613,0.0699 0.3743,0.4258 0.7399,0.8622 1.0993,1.3063 0.0136,0.0309 0.0343,0.0551 0.0589,0.0738 0.32,0.3977 0.6344,0.8024 0.9446,1.2117 0.0277,0.0375 0.025,0.027 0.0512,0.0676 0.3472,0.4606 0.6894,0.9266 1.0269,1.3973 0.0106,0.0254 0.0266,0.0484 0.0484,0.068 1.2375,1.7285 2.418,3.5097 3.6047,5.2328 0.0094,0.0207 0.0219,0.0386 0.0371,0.0543 0.3379,0.4902 0.6762,0.975 1.0164,1.4535 0.0102,0.0215 0.0243,0.0406 0.0411,0.0566 0.5855,0.8215 1.1777,1.6211 1.7839,2.386 0.0571,0.0722 0.1145,0.1441 0.1719,0.2156 0.0121,0.0238 0.0285,0.0441 0.0481,0.0601 0.3547,0.4395 0.714,0.8672 1.08,1.2793 0.0118,0.0192 0.0266,0.0352 0.0438,0.0489 0.6543,0.7343 1.3297,1.4199 2.0344,2.0414 0.014,0.0175 0.0312,0.0328 0.0504,0.0445 0.4429,0.3883 0.8972,0.7504 1.3652,1.084 0.0164,0.016 0.0355,0.0297 0.0562,0.0398 l 0.0672,0.0469 c 0.0106,0.009 0.0223,0.0172 0.0352,0.0246 0.0652,0.0453 0.1312,0.0902 0.1973,0.1348 l -0.4055,1.1898 C 46.7926,43.8102 46.5676,43.6297 46.3457,43.4469 46.3348,43.4352 46.3227,43.425 46.309,43.416 38.3789,36.8301 34.9883,26.1406 26.2145,20.2648 26.3359,20.0828 26.4508,19.9 26.5574,19.7133 z m 7.5715,-0.7774 c 0.0141,-0.0023 0.0281,-0.0062 0.0414,-0.0109 0.1735,-0.0441 0.3543,-0.0672 0.541,-0.0672 0.5285,0 1.0133,0.1867 1.3922,0.4977 0.0074,0.0074 0.0156,0.0136 0.0238,0.0199 0.4766,0.4023 0.7793,1.0043 0.7793,1.6777 0,0.3254 -0.0707,0.6344 -0.1976,0.9117 -0.0098,0.0157 -0.0176,0.0317 -0.0235,0.0493 -0.3562,0.7304 -1.1062,1.2339 -1.9742,1.2339 -0.1097,0 -0.2172,-0.0082 -0.3226,-0.0234 L 34.3438,23.2172 C 33.9434,23.15 33.5793,22.9742 33.2836,22.7207 l -0.0305,-0.0262 c -0.4527,-0.4019 -0.7379,-0.9882 -0.7379,-1.6414 0,-1.0109 0.6836,-1.8621 1.6137,-2.1172 z m -5.6832,-7.9695 c 0.6422,0.2258 1.2137,0.5039 1.7207,0.8195 0.0184,0.0172 0.0395,0.0309 0.0637,0.0403 0.4816,0.3058 0.9051,0.6461 1.2758,1.0082 0.0121,0.0164 0.0265,0.0308 0.0429,0.0426 1.8809,1.8675 2.391,4.3082 2.3383,5.6925 -0.4328,0.143 -0.8156,0.3969 -1.1152,0.727 0.2261,-2.4442 -0.5555,-5.3922 -4.1102,-7.1676 -0.0558,-0.0305 -0.0699,-0.0355 -0.0984,-0.0383 -0.0219,-0.0015 -0.0676,-8e-4 -0.1262,0.0203 -0.6039,0.1914 -1.2223,0.5082 -1.7703,0.9102 -0.0691,0.0473 -0.0691,0.0492 -0.1301,0.0984 -0.4887,0.3785 -0.9133,0.825 -1.2094,1.3086 -0.0351,0.0563 -0.0332,0.052 -0.0546,0.093 -0.7024,1.2258 -0.5696,2.6758 1.4125,3.8633 -0.0977,0.3164 -0.2258,0.6172 -0.3774,0.9082 -4.0457,-2.7649 -2.4426,-6.1914 2.1379,-8.3262 z m 1.907,0.4391 c -0.4121,-0.2535 -0.864,-0.4832 -1.3586,-0.6825 2.4223,-1.02066 5.5391,-1.64839 8.877,-1.59331 -1.9668,0.76445 -5.6258,1.91681 -7.5184,2.27581 z m 1.3828,1.064 c -0.2695,-0.2582 -0.5652,-0.5047 -0.8878,-0.7355 2.3558,-0.5137 6.5382,-1.88673 8.0109,-2.56408 0.9,0.05196 1.8137,0.15352 2.7332,0.31055 -2.5191,0.85703 -7.602,2.44373 -9.8563,2.98903 z m 2.5754,5.9977 c 0.0215,-1.4274 -0.4933,-3.7723 -2.2316,-5.6488 2.6211,-0.6606 8.2687,-2.443 10.3437,-3.1809 0.2813,0.0582 0.5629,0.12227 0.8446,0.19102 -0.3602,1.65978 -0.3262,4.09178 0.4976,6.71918 -2.3523,0.1511 -5.0308,0.8734 -7.5066,2.3957 -0.4332,-0.3184 -0.9684,-0.5063 -1.5473,-0.5063 -0.1359,0 -0.2699,0.0102 -0.4004,0.0301 z m -0.0148,5.7199 c 0.0535,-0.1887 0.1133,-0.3652 0.1769,-0.5289 0.0786,0.0066 0.1579,0.0106 0.2383,0.0106 0.4153,0 0.8082,-0.0965 1.1571,-0.2688 0.2644,1.1277 -0.8477,1.6191 -1.5723,0.7871 z m 1.5082,2.1059 c 1.8738,-0.4532 2.5145,-2.8598 1.3328,-4.2586 0.1227,-0.3035 0.1902,-0.6344 0.1902,-0.9813 0,-0.7074 -0.2804,-1.3492 -0.7359,-1.8195 3.6691,-2.2145 7.7676,-2.6363 10.4774,-2.0648 2.832,0.5984 3.8492,2.1117 2.0621,3.7535 -0.3102,0.2851 0.5351,1.0629 1.157,1.1359 0.0699,0.4059 -0.0973,0.6922 -0.4254,0.8598 -0.882,0.0828 -2.2922,-0.3809 -3.2246,-0.5907 -0.0547,-0.1828 -0.325,-0.23 -0.3965,-0.0066 -0.0969,0.3035 0.1551,0.7688 0.2211,0.9098 0.1281,0.2734 0.4754,0.0933 0.3543,-0.1489 -0.043,-0.0863 -0.0898,-0.1996 -0.125,-0.3101 0.9676,0.2281 2.2516,0.6394 3.1691,0.5687 0.227,0.1672 0.8313,0.6176 0.7028,0.9196 -0.036,0.0836 -0.1032,0.1824 -0.2117,0.3265 -0.452,0.5981 -0.2602,1.0172 0.157,1.4645 -0.7195,0.0918 -1.6328,-0.0016 -2.1172,-0.5399 -0.2793,-0.3109 -0.7785,0.5164 -0.8316,0.6379 -0.2,0.4575 -0.1676,1.0657 0.53,1.711 0.2059,0.191 0.4918,-0.118 0.286,-0.3086 -0.5567,-0.5153 -0.6992,-1.0727 -0.1742,-1.5985 l 0.0238,-0.0234 c 0.7523,0.6191 1.8055,0.6855 2.7265,0.4699 l 0.0079,-0.0015 0.007,3e-4 c 1.5945,0.1043 1.4676,0.7473 1.0539,1.9168 -0.1633,0.461 -0.3844,0.9977 -0.6184,1.6118 -0.3414,0.8972 -0.975,2.7226 -1.6519,4.7078 -1.8164,0.7133 -4.3988,0.2949 -6.3836,-0.5871 -0.4891,-0.7692 -1.2078,-1.4907 -2.2102,-2.1645 -0.4871,-2.7129 -2.7086,-4.7703 -5.2859,-5.0933 L 35.8043,26.293 z m -0.4156,0.066 0.0527,0.393 c -0.1601,-0.0079 -0.3219,-0.009 -0.4844,-0.0028 -0.2918,-0.384 -0.5875,-0.7644 -0.8886,-1.139 0.0136,-0.327 0.0523,-0.6372 0.1093,-0.927 0.8922,0.7422 2.5911,0.2473 2.0645,-1.5082 0.2719,-0.1965 0.5039,-0.4441 0.6832,-0.7277 0.9309,1.3144 0.1348,3.441 -1.6859,3.4984 -0.2805,0.009 -0.2676,0.4297 0.0128,0.4211 0.0461,-0.0016 0.0915,-0.0039 0.1364,-0.0078 z m 7.3078,15.0941 c 0,-0.2168 -0.1762,-0.3926 -0.393,-0.3926 -0.2172,0 -0.393,0.1758 -0.393,0.3926 0,0.2168 0.1758,0.393 0.393,0.393 0.2168,0 0.393,-0.1762 0.393,-0.393 z m 1.132,1.3012 c 0,-0.2418 -0.1965,-0.4379 -0.4383,-0.4379 -0.2418,0 -0.4382,0.1961 -0.4382,0.4379 0,0.2422 0.1964,0.4387 0.4382,0.4387 0.2418,0 0.4383,-0.1965 0.4383,-0.4387 z M 41.6,40.0512 c 0,-0.1914 -0.1551,-0.3465 -0.3469,-0.3465 -0.1914,0 -0.3468,0.1551 -0.3468,0.3465 0,0.1918 0.1554,0.3472 0.3468,0.3472 0.1918,0 0.3469,-0.1554 0.3469,-0.3472 z m -12.025,3.7847 c 0,-0.2347 -0.1898,-0.425 -0.4242,-0.425 -0.234,0 -0.4242,0.1903 -0.4242,0.425 0,0.2344 0.1902,0.4239 0.4242,0.4239 0.2344,0 0.4242,-0.1895 0.4242,-0.4239 z m 5.1363,-23.5398 c 0.4176,0 0.7567,0.3387 0.7567,0.757 0,0.418 -0.3391,0.7571 -0.7567,0.7571 -0.4179,0 -0.757,-0.3391 -0.757,-0.7571 0,-0.4183 0.3391,-0.757 0.757,-0.757 z m 0,-0.4211 c -0.6504,0 -1.1781,0.5273 -1.1781,1.1781 0,0.6508 0.5277,1.1778 1.1781,1.1778 0.65,0 1.1778,-0.527 1.1778,-1.1778 0,-0.6508 -0.5278,-1.1781 -1.1778,-1.1781 z m 16.241,6.5242 c 0.0047,-4e-4 0.0098,-8e-4 0.0149,-0.0012 l -0.007,-3e-4 -0.0079,0.0015 z m -6.2175,4.7356 c -0.1114,0.3566 -0.1555,0.7535 -0.125,1.2441 -0.6403,-0.1934 -1.2446,-0.482 -1.7618,-0.8883 0.1946,-0.0648 0.4727,-0.1453 0.8192,-0.2152 0.3066,-0.0613 0.6656,-0.1145 1.0676,-0.1406 z m 0.3062,1.3593 c -0.0535,-0.5921 0.0051,-1.0117 0.1449,-1.3761 0.2684,-0.0024 0.5524,0.0078 0.8485,0.0363 -0.1371,0.1918 -0.2332,0.4504 -0.2578,0.7371 -0.0239,0.2785 0.0218,0.5418 0.1164,0.7508 -0.286,-0.0336 -0.5715,-0.0832 -0.852,-0.1481 z m 1.7621,0.6317 c 0.2836,0.0164 0.5864,0.0347 0.7789,-0.0188 0.1391,-0.009 0.2032,-0.1129 0.2004,-0.2156 -0.0039,-0.2523 -0.3293,-0.3859 -0.582,-0.4687 0.041,-0.1204 0.0691,-0.2524 0.0809,-0.3911 0.0503,-0.5933 -0.1993,-1.1253 -0.5778,-1.2105 -0.0125,-0.0043 -0.0265,-0.0078 -0.041,-0.0102 -0.4656,-0.0765 -1.0078,-0.1148 -1.5668,-0.1054 -0.0402,-0.011 -0.0836,-0.011 -0.1234,0.0031 -0.8696,0.025 -1.7703,0.1664 -2.4832,0.4594 -0.0133,-0.0141 -0.02,-0.0219 -0.02,-0.0219 -0.1796,-0.216 -0.5027,0.0535 -0.3234,0.2695 0.0047,0.0055 0.0488,0.0574 0.1344,0.1399 0.0121,0.0152 0.0262,0.0285 0.0418,0.0398 0.4644,0.4324 1.8687,1.4949 4.4812,1.5305"
       id="path16"
       style="fill:#231f20;fill-opacity:1;fill-rule:nonzero;stroke:none" /><path
       d="m 45.8254,10.6129 c -0.5117,0.2117 -1.4047,0.4762 -2.334,0.7226 0.0305,-0.5144 0.0945,-0.9855 0.1844,-1.40269 0.718,0.18989 1.4359,0.41559 2.1496,0.68009 z"
       id="path18"
       style="fill:none;stroke:#231f20;stroke-width:0.0292;stroke-linecap:butt;stroke-linejoin:miter;stroke-miterlimit:3.86370993;stroke-opacity:1;stroke-dasharray:none" /><path
       d="m 43.473,11.7758 c 1.1512,-0.3024 2.402,-0.6668 2.886,-0.9574 0.4098,0.1636 0.8183,0.3402 1.2242,0.5308 -0.7312,0.393 -2.4586,0.9391 -4.0937,1.3977 -0.018,-0.336 -0.0231,-0.6602 -0.0165,-0.9711 z"
       id="path20"
       style="fill:none;stroke:#231f20;stroke-width:0.0292;stroke-linecap:butt;stroke-linejoin:miter;stroke-miterlimit:3.86370993;stroke-opacity:1;stroke-dasharray:none" /><path
       d="M 46.4328,10.3945 C 46.4148,10.3844 46.3961,10.377 46.3762,10.3727 45.0879,9.86758 43.7836,9.48828 42.4852,9.2207 42.4656,9.21289 42.4445,9.20859 42.4219,9.20742 41.225,8.96406 40.0332,8.81484 38.8645,8.74922 38.8449,8.74453 38.8242,8.74297 38.8027,8.7457 34.8836,8.53359 31.223,9.25586 28.4773,10.4887 l -0.0941,0.0429 c -0.0266,0.0059 -0.0508,0.0176 -0.0715,0.0329 -4.6719,2.1652 -6.7793,6.0023 -2.2101,9.0964 -0.4688,0.7836 -1.0879,1.5102 -1.6938,2.2993 -0.1941,0.2523 -0.3906,0.5144 -0.5855,0.789 -0.3618,-0.9601 -0.4039,-1.5781 0.2054,-2.4449 0.07,-0.0996 0.045,-0.2012 -0.0195,-0.266 L 20.75,16.1348 c -0.0855,-0.1028 -0.2273,-0.1055 -0.3168,-0.0075 -16.29726,17.8602 2.275,44.9532 24.709,37.1575 0.1371,-0.0473 0.1859,-0.1832 0.1113,-0.3078 l -3.518,-5.8293 c -0.0359,-0.0782 -0.1152,-0.1356 -0.2285,-0.1141 -1.0925,0.2043 -1.7617,0.1414 -2.2324,-0.3113 1.0125,-0.1758 2.0578,-0.4426 3.1328,-0.8082 0.9598,1.0601 1.9785,2.0429 3.0785,2.9218 0.0145,0.0141 0.0309,0.0266 0.0489,0.0368 0.057,0.0355 0.1156,0.0394 0.1668,0.0226 0.0519,-0.0133 0.0988,-0.0484 0.1277,-0.1094 0.0098,-0.0179 0.0168,-0.0367 0.0211,-0.057 l 2.023,-5.9379 c 0.0207,-0.0469 0.0254,-0.1 0.0079,-0.15 -0.0168,-0.0496 -0.0532,-0.0887 -0.0981,-0.1133 -0.066,-0.0433 -0.1312,-0.0867 -0.1965,-0.1312 0.4156,-1.2524 3.3156,-9.9723 4.2094,-12.3199 0.2805,-0.7352 0.8973,-2.0731 0.9082,-2.8524 0.0109,-0.7949 -0.5398,-1.1621 -1.6723,-1.2437 -0.5629,-0.5414 -0.648,-0.7379 -0.3441,-1.1407 0.6035,-0.7988 0.2699,-1.1597 -0.4024,-1.6972 0.6524,-0.527 0.5047,-1.477 0.1825,-1.4922 -0.4715,-0.0219 -0.6508,-0.1691 -0.9188,-0.5449 2.0676,-2.0328 0.3586,-3.7672 -2.3937,-4.3481 -0.8707,-0.184 -1.875,-0.2687 -2.9578,-0.2308 -0.002,-0.011 -0.0047,-0.0223 -0.0082,-0.034 -0.3715,-1.1649 -0.5821,-2.2887 -0.67,-3.3168 1.8457,-0.5153 4.0266,-1.1953 4.6,-1.6766 0.0196,-0.0133 0.0371,-0.0304 0.0516,-0.0496 0.0437,-0.0512 0.0555,-0.109 0.0461,-0.1621 -0.0063,-0.0535 -0.0344,-0.1055 -0.0902,-0.1426 -0.0176,-0.0125 -0.0372,-0.023 -0.0579,-0.0301 -0.5414,-0.2636 -1.0875,-0.5035 -1.6363,-0.7203 z"
       id="path22"
       style="fill:none;stroke:#231f20;stroke-width:0.0292;stroke-linecap:butt;stroke-linejoin:miter;stroke-miterlimit:3.86370993;stroke-opacity:1;stroke-dasharray:none" /><path
       d="m 27.1305,18.3746 c 0.0105,-0.0234 0.0179,-0.0484 0.0199,-0.0742 0.132,-0.5016 0.1914,-1.0426 0.1523,-1.6434 1.2817,0.8782 0.9645,2.3461 0.5864,3.0399 -0.3286,-0.2199 -0.6641,-0.4297 -1.0063,-0.6297 0.0973,-0.2234 0.1809,-0.4539 0.2477,-0.6926 z"
       id="path24"
       style="fill:none;stroke:#231f20;stroke-width:0.0292;stroke-linecap:butt;stroke-linejoin:miter;stroke-miterlimit:3.86370993;stroke-opacity:1;stroke-dasharray:none" /><path
       d="m 26.7953,17.957 c -0.9301,-0.5898 -1.3644,-1.2652 -1.4387,-1.9406 0.6168,0.0758 1.1102,0.2121 1.5012,0.3914 0.0645,0.5645 0.036,1.075 -0.0625,1.5492 z"
       id="path26"
       style="fill:none;stroke:#231f20;stroke-width:0.0292;stroke-linecap:butt;stroke-linejoin:miter;stroke-miterlimit:3.86370993;stroke-opacity:1;stroke-dasharray:none" /><path
       d="m 25.3566,15.593 c 0.0286,-0.2711 0.1114,-0.5387 0.2387,-0.7977 2.9391,0.0508 5.1422,2.9785 3.5551,5.8176 -0.2988,-0.234 -0.6031,-0.4606 -0.9137,-0.6777 0.5906,-1.0688 1.0844,-3.8852 -2.8801,-4.3422 z"
       id="path28"
       style="fill:none;stroke:#231f20;stroke-width:0.0292;stroke-linecap:butt;stroke-linejoin:miter;stroke-miterlimit:3.86370993;stroke-opacity:1;stroke-dasharray:none" /><path
       d="m 25.8398,14.3844 c 0.2352,-0.336 0.5442,-0.6504 0.9047,-0.9293 4.2907,1.216 5.1836,4.8109 3.491,8.0629 -0.2464,-0.2188 -0.4972,-0.4317 -0.7519,-0.6391 1.7977,-3.1101 -0.5492,-6.2855 -3.6438,-6.4945 z"
       id="path30"
       style="fill:none;stroke:#231f20;stroke-width:0.0292;stroke-linecap:butt;stroke-linejoin:miter;stroke-miterlimit:3.86370993;stroke-opacity:1;stroke-dasharray:none" /><path
       d="m 27.1848,13.1484 c 0.407,-0.2554 0.8593,-0.4679 1.3324,-0.6211 5.2836,2.6723 4.0113,8.127 2.8043,10.0079 -0.2504,-0.2477 -0.5047,-0.4899 -0.7629,-0.7266 1.816,-3.3875 0.9785,-7.2559 -3.3738,-8.6602 z"
       id="path32"
       style="fill:none;stroke:#231f20;stroke-width:0.0292;stroke-linecap:butt;stroke-linejoin:miter;stroke-miterlimit:3.86370993;stroke-opacity:1;stroke-dasharray:none" /><path
       d="m 43.6949,34.6398 c 1.8453,0.7161 4.1141,1.0559 5.8836,0.5012 -0.7933,2.334 -1.6164,4.7957 -2.075,6.1723 C 47.4863,38.9371 46.407,36.6957 44.0793,35.7516 43.9926,35.3707 43.866,35 43.6949,34.6398 z"
       id="path34"
       style="fill:none;stroke:#231f20;stroke-width:0.0292;stroke-linecap:butt;stroke-linejoin:miter;stroke-miterlimit:3.86370993;stroke-opacity:1;stroke-dasharray:none" /><path
       d="m 43.0215,34.2887 c 0.0086,0.0234 0.0219,0.0453 0.0406,0.0652 0.3051,0.5 0.5074,1.0215 0.6238,1.566 8e-4,0.0235 0.0055,0.0465 0.0141,0.0684 0.098,0.4914 0.127,1.0008 0.0988,1.5308 -0.0054,0.0231 -0.0074,0.0473 -0.0039,0.0711 -0.0242,0.3832 -0.0777,0.7774 -0.1554,1.1817 -0.2661,-0.3051 -0.5278,-0.6164 -0.7852,-0.9336 0.1168,-1.3563 -0.2008,-2.8348 -1.634,-4.1551 0.0442,-0.4215 0.0469,-0.8336 0.0121,-1.2344 0.7961,0.5801 1.3805,1.1918 1.7891,1.8399 z"
       id="path36"
       style="fill:none;stroke:#231f20;stroke-width:0.0292;stroke-linecap:butt;stroke-linejoin:miter;stroke-miterlimit:3.86370993;stroke-opacity:1;stroke-dasharray:none" /><path
       d="m 32.1859,21.743 c 0.1227,0.448 0.361,0.8476 0.6809,1.1656 -0.148,0.3098 -0.2414,0.6258 -0.3055,0.9273 -0.3062,-0.3394 -0.6183,-0.6718 -0.9367,-0.9961 0.191,-0.2855 0.3863,-0.6585 0.5613,-1.0968 z"
       id="path38"
       style="fill:none;stroke:#231f20;stroke-width:0.0292;stroke-linecap:butt;stroke-linejoin:miter;stroke-miterlimit:3.86370993;stroke-opacity:1;stroke-dasharray:none" /><path
       d="m 33.2012,23.1898 c 0.2539,0.1793 0.5406,0.3145 0.8496,0.3954 -0.1649,0.4418 -0.3031,0.966 -0.368,1.5515 -0.2519,-0.3051 -0.5078,-0.6058 -0.7668,-0.9023 0.0547,-0.3442 0.136,-0.7012 0.2852,-1.0446 z"
       id="path40"
       style="fill:none;stroke:#231f20;stroke-width:0.0292;stroke-linecap:butt;stroke-linejoin:miter;stroke-miterlimit:3.86370993;stroke-opacity:1;stroke-dasharray:none" /><path
       d="m 23.1371,21.5867 c 0,0.4938 0.159,0.9934 0.3965,1.5793 -1.0457,1.5582 -2.0059,3.5406 -2.3215,6.5145 -0.0051,0.0207 -0.0078,0.0422 -0.0066,0.0633 -0.0289,0.282 -0.052,0.5734 -0.0688,0.8742 -0.0054,0.0222 -0.0074,0.0457 -0.0039,0.0703 -0.0055,0.1 -0.0098,0.2008 -0.0137,0.3031 -0.0367,0.9621 0.0247,1.9344 0.1786,2.8992 -0.0016,0.0282 0.0031,0.0551 0.0128,0.0797 0.0473,0.2875 0.1032,0.5746 0.1668,0.8602 -3e-4,0.0289 0.0055,0.0582 0.0192,0.0859 0.6234,2.7211 1.9805,5.3305 3.9512,7.4227 0.0136,0.0203 0.0308,0.0382 0.0507,0.0531 0.5817,0.6113 1.2161,1.1781 1.9004,1.6894 l 0.0129,0.0098 c 1.0711,0.7988 2.2645,1.4629 3.568,1.952 0.0137,0.0074 0.0281,0.0129 0.0422,0.016 1.5969,0.5945 3.3582,0.9269 5.2629,0.9269 0.1113,0.0114 0.223,0.0106 0.332,-0.0035 0.7027,-0.0144 1.4246,-0.0734 2.1648,-0.182 0.3286,0.4226 0.7348,0.6449 1.2286,0.7265 -0.043,0.0122 -0.086,0.0235 -0.1289,0.0352 -0.0083,0.0016 -0.0161,0.0035 -0.0235,0.0059 -0.9176,0.2418 -1.8371,0.3894 -2.7512,0.4507 l -0.0144,4e-4 c -4.8531,0.318 -9.5367,-1.8164 -12.7715,-5.3726 l -0.0094,-0.0102 c -0.6535,-0.7195 -1.2476,-1.4976 -1.7722,-2.3246 -0.0055,-0.0109 -0.0118,-0.0207 -0.0192,-0.0305 -0.4844,-0.7675 -0.9086,-1.5777 -1.264,-2.4238 -0.002,-0.0055 -0.0043,-0.0101 -0.0067,-0.0156 -0.3488,-0.8313 -0.6312,-1.6977 -0.8394,-2.5918 -0.8035,-3.4531 -0.5016,-7.3168 1.3617,-11.2274 l 0.0031,-0.0054 c 0.3859,-0.8098 0.8387,-1.6207 1.3625,-2.4309 z"
       id="path42"
       style="fill:none;stroke:#231f20;stroke-width:0.0292;stroke-linecap:butt;stroke-linejoin:miter;stroke-miterlimit:3.86370993;stroke-opacity:1;stroke-dasharray:none" /><path
       d="m 23.9258,23.3367 c 0.0183,-0.0183 0.0332,-0.0394 0.0433,-0.0633 0.152,-0.2222 0.3055,-0.4355 0.4586,-0.6421 0.8266,0.6378 1.6055,1.3156 2.3446,2.0273 -0.3645,0.1875 -0.6961,0.3555 -1.0016,0.5269 -0.5687,-0.5746 -0.9578,-0.8347 -1.9309,-0.823 -0.1589,0.0016 -0.2457,0.1219 -0.1984,0.2734 0.1746,0.5575 0.0106,1.8895 -4e-4,2.5809 -0.0793,0.1348 -0.1574,0.2785 -0.2351,0.4316 -0.2594,-0.0539 -0.5758,-0.0722 -1.0071,-0.0722 -0.2402,0 -0.3195,0.2035 -0.1418,0.3656 0.6516,0.5937 0.5539,1.4445 0.691,2.5391 -0.3726,-0.1965 -1.0468,-0.6661 -1.307,-0.852 0.3215,-2.8758 1.2621,-4.7828 2.2848,-6.2922 z"
       id="path44"
       style="fill:none;stroke:#231f20;stroke-width:0.0292;stroke-linecap:butt;stroke-linejoin:miter;stroke-miterlimit:3.86370993;stroke-opacity:1;stroke-dasharray:none" /><path
       d="m 25.9742,20.6102 c 8.6102,5.7617 12.0477,16.2527 19.7508,22.8628 l -1.1387,0.2293 c -0.2242,0.0497 -0.2242,0.0446 -0.2004,0.2981 l 0.1864,1.6004 c -7.116,-7.268 -11.0879,-19.193 -19.1524,-24.2547 0.1918,-0.2465 0.3781,-0.4902 0.5543,-0.7359 z"
       id="path46"
       style="fill:none;stroke:#231f20;stroke-width:0.0292;stroke-linecap:butt;stroke-linejoin:miter;stroke-miterlimit:3.86370993;stroke-opacity:1;stroke-dasharray:none" /><path
       d="M 46.0082,46.9609 C 45.6828,46.6762 45.3645,46.382 45.052,46.0781 l -0.2348,-1.9851 1.3207,-0.2727 c 0.2422,0.1996 0.4891,0.3953 0.7402,0.5875 l -0.1754,0.516 c -0.3781,-0.1289 -0.7886,0.0727 -0.9175,0.4512 -0.1289,0.3781 0.0726,0.7887 0.4511,0.9176 l -0.2281,0.6683 z"
       id="path48"
       style="fill:none;stroke:#231f20;stroke-width:0.0292;stroke-linecap:butt;stroke-linejoin:miter;stroke-miterlimit:3.86370993;stroke-opacity:1;stroke-dasharray:none" /><path
       d="m 27.2512,24.5449 c -0.8094,-0.7957 -1.6629,-1.5496 -2.5699,-2.2496 l 0.0605,-0.0789 c 0.1395,-0.182 0.2793,-0.3605 0.4176,-0.5367 4.2383,2.6449 7.3355,7.2484 10.4133,12.1207 2.6675,4.2226 5.4691,8.9449 9.1058,12.5027 0.0149,0.0215 0.0328,0.0387 0.0531,0.052 0.368,0.3578 0.7442,0.7039 1.1301,1.0359 l -0.3222,0.9465 c -1.4055,-1.1508 -2.6829,-2.4836 -3.868,-3.916 -0.0117,-0.0207 -0.027,-0.0391 -0.0453,-0.0547 -2.2805,-2.7672 -4.2211,-5.902 -6.0821,-8.818 C 34.5645,34.0137 33.5703,32.4695 32.5234,30.9641 32.5133,30.941 32.4992,30.9215 32.4824,30.9047 32.0586,30.2969 31.6262,29.6953 31.182,29.1035 31.1711,29.082 31.1574,29.0641 31.141,29.0492 30.8203,28.6227 30.4934,28.2008 30.1598,27.7852 30.1496,27.766 30.1352,27.7484 30.1172,27.7324 29.6293,27.127 29.1266,26.5348 28.6059,25.9594 28.593,25.9391 28.577,25.9215 28.5578,25.9066 28.1441,25.4512 27.7191,25.007 27.2813,24.5746 l -0.0301,-0.0297 z"
       id="path50"
       style="fill:none;stroke:#231f20;stroke-width:0.0292;stroke-linecap:butt;stroke-linejoin:miter;stroke-miterlimit:3.86370993;stroke-opacity:1;stroke-dasharray:none" /><path
       d="m 27.0898,24.9684 c 0.3149,0.3125 0.6235,0.6312 0.925,0.955 -1.9628,0.3207 -3.0437,1.2461 -3.4757,2.4063 -0.2703,-0.259 -0.484,-0.4336 -0.7282,-0.5488 0.0621,-0.1204 0.1246,-0.2336 0.1879,-0.3411 0.0246,-0.0226 0.0442,-0.0531 0.0543,-0.0906 0.7926,-1.3004 1.6758,-1.6793 3.0367,-2.3808 z"
       id="path52"
       style="fill:none;stroke:#231f20;stroke-width:0.0292;stroke-linecap:butt;stroke-linejoin:miter;stroke-miterlimit:3.86370993;stroke-opacity:1;stroke-dasharray:none" /><path
       d="m 28.3594,26.2988 c 0.3226,0.3571 0.6386,0.7207 0.9476,1.0895 -3.6015,-1.0235 -5.8781,4.6566 0.2762,6.9883 -0.4434,0.15 -0.8894,0.3129 -1.325,0.5023 -3.9996,-1.791 -5.3344,-7.8766 0.1012,-8.5801 z"
       id="path54"
       style="fill:none;stroke:#231f20;stroke-width:0.0292;stroke-linecap:butt;stroke-linejoin:miter;stroke-miterlimit:3.86370993;stroke-opacity:1;stroke-dasharray:none" /><path
       d="m 29.8633,28.0664 c 0.3156,0.393 0.6246,0.7922 0.9281,1.1953 0.1449,1.0625 -0.1293,2.2465 -1.4551,2.8399 -0.3769,-0.1938 -0.7179,-0.4262 -0.9953,-0.7039 1.9524,-0.3137 1.9121,-2.7704 0.1445,-2.7704 -1.4648,0 -1.3886,1.8149 -0.7539,2.7 0.009,0.0161 0.02,0.0313 0.0329,0.0442 l 0.0054,0.007 c 0.3137,0.4047 0.7813,0.7934 1.4348,1.1254 0.0207,0.0164 0.0449,0.0293 0.0719,0.0359 0.4761,0.2344 1.0476,0.4399 1.7257,0.6008 0.0243,0.011 0.0508,0.0176 0.0786,0.018 0.4074,0.0937 0.8523,0.1715 1.3375,0.2305 -0.3774,0.1703 -0.8016,0.3234 -1.2598,0.475 -0.2981,0.0988 -0.6055,0.1961 -0.9184,0.2964 -6.6367,-2.1441 -3.9711,-7.996 -0.3769,-6.0941 z"
       id="path56"
       style="fill:none;stroke:#231f20;stroke-width:0.0292;stroke-linecap:butt;stroke-linejoin:miter;stroke-miterlimit:3.86370993;stroke-opacity:1;stroke-dasharray:none" /><path
       d="m 31.2445,29.8727 c 0.2938,0.4011 0.5821,0.8066 0.8668,1.2156 -0.082,0.4121 -0.5312,1.1609 -1.0722,1.6226 -0.409,-0.0996 -0.8231,-0.2261 -1.2149,-0.3859 1.0262,-0.5898 1.3922,-1.5379 1.4203,-2.4523 z"
       id="path58"
       style="fill:none;stroke:#231f20;stroke-width:0.0292;stroke-linecap:butt;stroke-linejoin:miter;stroke-miterlimit:3.86370993;stroke-opacity:1;stroke-dasharray:none" /><path
       d="m 32.4121,31.5238 c 0.3055,0.4453 0.6067,0.8942 0.9047,1.3453 -0.0738,0.0571 -0.1516,0.1118 -0.2336,0.1645 -0.4285,-0.0356 -0.9707,-0.1 -1.5461,-0.2133 0.3774,-0.3851 0.7024,-0.8769 0.875,-1.2965 z"
       id="path60"
       style="fill:none;stroke:#231f20;stroke-width:0.0292;stroke-linecap:butt;stroke-linejoin:miter;stroke-miterlimit:3.86370993;stroke-opacity:1;stroke-dasharray:none" /><path
       d="m 33.5488,33.2219 c 0.3078,0.4699 0.6133,0.9422 0.9168,1.4156 -1.1605,0.2695 -3.2683,0.1234 -4.5816,0.0949 0.457,-0.1574 0.9281,-0.3097 1.407,-0.4683 0.7055,-0.2336 1.3774,-0.4832 1.9266,-0.818 0.0234,-0.009 0.0441,-0.0219 0.0609,-0.0379 0.0942,-0.059 0.1844,-0.1211 0.2703,-0.1863 z"
       id="path62"
       style="fill:none;stroke:#231f20;stroke-width:0.0292;stroke-linecap:butt;stroke-linejoin:miter;stroke-miterlimit:3.86370993;stroke-opacity:1;stroke-dasharray:none" /><path
       d="m 34.7043,35.0109 c 0.2168,0.3391 0.4328,0.6789 0.6492,1.0188 -1.2879,0.4023 -3.3711,0.307 -4.6383,0.2883 -1.5476,-0.0235 -3.1582,-0.036 -4.4172,0.2804 0.6536,-0.6023 1.4586,-1.0367 2.3528,-1.4066 0.6328,-0.1055 2.2133,-0.0098 2.7539,0.0051 1.1824,0.0316 2.4789,0.0394 3.2996,-0.186 z"
       id="path64"
       style="fill:none;stroke:#231f20;stroke-width:0.0292;stroke-linecap:butt;stroke-linejoin:miter;stroke-miterlimit:3.86370993;stroke-opacity:1;stroke-dasharray:none" /><path
       d="m 35.5863,36.3965 c 0.1832,0.2887 0.3668,0.5765 0.5504,0.8644 -1.6515,0.6332 -4.3047,0.4149 -6.0039,0.4106 -1.9726,-0.0055 -3.9609,0.1273 -5.2426,1.209 0.1957,-0.6485 0.4774,-1.1891 0.8286,-1.6485 1.8902,-0.8105 5.5292,-0.3918 7.757,-0.5011 0.7871,-0.0387 1.5168,-0.1297 2.1105,-0.3344 z"
       id="path66"
       style="fill:none;stroke:#231f20;stroke-width:0.0292;stroke-linecap:butt;stroke-linejoin:miter;stroke-miterlimit:3.86370993;stroke-opacity:1;stroke-dasharray:none" /><path
       d="m 36.3672,37.6219 c 0.1906,0.2976 0.3812,0.5945 0.5726,0.8902 -0.6578,0.2152 -1.2988,0.3613 -1.9339,0.459 -0.0219,0 -0.0434,0.0035 -0.0641,0.0098 -1.6668,0.2492 -3.2961,0.173 -5.0879,0.1605 -1.1125,-0.0082 -2.1523,0.0328 -3.0656,0.3227 -0.0246,0.0027 -0.0488,0.0105 -0.0715,0.0226 -0.7527,0.2512 -1.4168,0.6774 -1.9617,1.3926 -0.0547,-0.0711 -0.1086,-0.1426 -0.1621,-0.2148 0.0199,-0.3485 0.0566,-0.6747 0.1093,-0.9809 1.0676,-1.3965 3.125,-1.5973 5.4297,-1.5914 1.82,0.0047 4.4989,0.2363 6.2352,-0.4703 z"
       id="path68"
       style="fill:none;stroke:#231f20;stroke-width:0.0292;stroke-linecap:butt;stroke-linejoin:miter;stroke-miterlimit:3.86370993;stroke-opacity:1;stroke-dasharray:none" /><path
       d="m 41.4879,44.8559 c 0.2019,0.2421 0.407,0.4808 0.6141,0.7164 -1.1094,0.3675 -2.1856,0.6269 -3.2258,0.7875 -0.0176,4e-4 -0.0344,0.0031 -0.0516,0.0078 -0.4848,0.0738 -0.9621,0.1254 -1.4312,0.1574 0.182,-0.257 0.2894,-0.6285 0.2671,-1.1383 0.2481,-0.2109 0.3907,-0.5148 0.4223,-0.8297 0.3059,0.1887 0.7141,0.2473 1.175,0.0957 0.3805,0.8473 1.5168,0.9782 2.2301,0.2032 z"
       id="path70"
       style="fill:none;stroke:#231f20;stroke-width:0.0292;stroke-linecap:butt;stroke-linejoin:miter;stroke-miterlimit:3.86370993;stroke-opacity:1;stroke-dasharray:none" /><path
       d="m 18.1582,19.7633 3.8527,2.8793 c -0.1836,0.3297 -0.3562,0.659 -0.5179,0.9887 l -3.2203,-1.9637 c -0.2395,-0.1461 -0.4586,0.2133 -0.2192,0.3594 l 3.257,1.9863 c -0.1296,0.2789 -0.2519,0.5574 -0.3664,0.8359 l -4.4238,-2.0578 c 0.4559,-1.0234 1.0004,-2.0351 1.6379,-3.0281 z"
       id="path72"
       style="fill:none;stroke:#231f20;stroke-width:0.0292;stroke-linecap:butt;stroke-linejoin:miter;stroke-miterlimit:3.86370993;stroke-opacity:1;stroke-dasharray:none" /><path
       d="m 22.2207,22.2742 -3.8316,-2.864 c 0.6414,-0.9602 1.3707,-1.9024 2.1929,-2.82 l 3.0059,3.6012 c -0.1988,0.2715 -0.3895,0.5434 -0.5723,0.8156 l -2.8672,-2.8359 c -0.1996,-0.1977 -0.4957,0.1019 -0.2961,0.2992 l 2.927,2.8949 c -0.1961,0.3028 -0.382,0.6059 -0.5586,0.909 z"
       id="path74"
       style="fill:none;stroke:#231f20;stroke-width:0.0292;stroke-linecap:butt;stroke-linejoin:miter;stroke-miterlimit:3.86370993;stroke-opacity:1;stroke-dasharray:none" /><path
       d="m 16.3527,23.1777 4.4348,2.0629 c -0.1117,0.2903 -0.216,0.5797 -0.3117,0.8688 l -3.6227,-1.0641 c -0.2691,-0.0785 -0.3879,0.3254 -0.1183,0.4043 l 3.6129,1.0613 c -0.1207,0.3922 -0.2266,0.784 -0.3184,1.1743 l -4.8086,-1.0266 c 0.2711,-1.168 0.6465,-2.3309 1.132,-3.4809 z"
       id="path76"
       style="fill:none;stroke:#231f20;stroke-width:0.0292;stroke-linecap:butt;stroke-linejoin:miter;stroke-miterlimit:3.86370993;stroke-opacity:1;stroke-dasharray:none" /><path
       d="m 15.1293,27.0695 4.8082,1.0266 c -0.0719,0.3418 -0.1328,0.6832 -0.1836,1.0219 L 15.925,28.7594 c -0.2793,-0.0266 -0.3187,0.3926 -0.0395,0.4187 l 3.8118,0.3574 c -0.0477,0.3829 -0.0817,0.7633 -0.1024,1.1407 l -4.9121,0.0988 c 0.0391,-1.2312 0.1852,-2.4703 0.4465,-3.7055 z"
       id="path78"
       style="fill:none;stroke:#231f20;stroke-width:0.0292;stroke-linecap:butt;stroke-linejoin:miter;stroke-miterlimit:3.86370993;stroke-opacity:1;stroke-dasharray:none" /><path
       d="m 14.6738,31.1961 4.9028,-0.0984 c -0.0102,0.3351 -0.0102,0.6675 -4e-4,0.9976 l -3.7942,0.4188 c -0.2789,0.0308 -0.2328,0.4492 0.0461,0.4187 l 3.766,-0.4164 c 0.0235,0.4215 0.0625,0.8391 0.1172,1.2516 l -4.7836,0.9851 c -0.1812,-1.1707 -0.2679,-2.3593 -0.2539,-3.557 z"
       id="path80"
       style="fill:none;stroke:#231f20;stroke-width:0.0292;stroke-linecap:butt;stroke-linejoin:miter;stroke-miterlimit:3.86370993;stroke-opacity:1;stroke-dasharray:none" /><path
       d="m 14.9961,35.1684 4.7758,-0.9832 c 0.0515,0.3257 0.1129,0.6472 0.1832,0.9664 l -3.6586,1.1523 c -0.2676,0.0836 -0.141,0.4856 0.1265,0.4012 l 3.6282,-1.1426 c 0.0785,0.3168 0.166,0.6305 0.2625,0.9406 L 15.9125,38.7 c -0.3992,-1.1484 -0.7074,-2.3289 -0.9164,-3.5316 z"
       id="path82"
       style="fill:none;stroke:#231f20;stroke-width:0.0292;stroke-linecap:butt;stroke-linejoin:miter;stroke-miterlimit:3.86370993;stroke-opacity:1;stroke-dasharray:none" /><path
       d="m 16.0555,39.0996 4.3898,-2.1918 c 0.107,0.3156 0.2235,0.6274 0.3485,0.9352 l -3.3551,2.0562 c -0.2391,0.1469 -0.0188,0.5055 0.2199,0.3586 l 3.3008,-2.023 c 0.1465,0.3355 0.3035,0.6652 0.4707,0.9882 l -3.9485,3.0098 c -0.5515,-1.007 -1.0289,-2.0551 -1.4261,-3.1332 z"
       id="path84"
       style="fill:none;stroke:#231f20;stroke-width:0.0292;stroke-linecap:butt;stroke-linejoin:miter;stroke-miterlimit:3.86370993;stroke-opacity:1;stroke-dasharray:none" /><path
       d="M 17.6891,42.6047 21.6305,39.6 c 0.1433,0.2613 0.2933,0.5188 0.4496,0.7715 l -2.8934,2.775 c -0.2023,0.1941 0.0891,0.498 0.2918,0.3035 l 2.832,-2.7156 c 0.2122,0.3246 0.4352,0.6422 0.668,0.9515 l -3.323,3.8375 c -0.7266,-0.9234 -1.3848,-1.9 -1.9664,-2.9187 z"
       id="path86"
       style="fill:none;stroke:#231f20;stroke-width:0.0292;stroke-linecap:butt;stroke-linejoin:miter;stroke-miterlimit:3.86370993;stroke-opacity:1;stroke-dasharray:none" /><path
       d="m 19.9234,45.8574 3.3172,-3.832 c 0.2082,0.2629 0.4239,0.5191 0.6461,0.7684 l -2.4594,3.3812 c -0.1652,0.2266 0.1754,0.4742 0.3403,0.2473 l 2.4086,-3.311 c 0.2449,0.2621 0.498,0.5168 0.7582,0.7629 l -2.6176,4.5094 C 21.457,47.6012 20.657,46.7559 19.9234,45.8574 z"
       id="path88"
       style="fill:none;stroke:#231f20;stroke-width:0.0292;stroke-linecap:butt;stroke-linejoin:miter;stroke-miterlimit:3.86370993;stroke-opacity:1;stroke-dasharray:none" /><path
       d="m 22.6371,48.6703 2.6145,-4.5039 c 0.2265,0.2043 0.4582,0.402 0.6949,0.5938 l -1.7227,3.9664 c -0.1121,0.2578 0.2742,0.4254 0.386,0.1679 l 1.6785,-3.8648 c 0.3004,0.2316 0.6082,0.4527 0.9226,0.6633 l -1.7214,5.1152 c -1.0067,-0.6394 -1.9602,-1.3551 -2.8524,-2.1379 z"
       id="path90"
       style="fill:none;stroke:#231f20;stroke-width:0.0292;stroke-linecap:butt;stroke-linejoin:miter;stroke-miterlimit:3.86370993;stroke-opacity:1;stroke-dasharray:none" /><path
       d="m 25.857,51.0359 1.7184,-5.1058 c 0.2711,0.1719 0.5469,0.3359 0.8269,0.4918 l -1.0171,4.2636 c -0.0653,0.2731 0.3441,0.3708 0.4093,0.0977 l 0.991,-4.1539 c 0.3,0.1566 0.6043,0.3047 0.9129,0.4434 l -0.7425,5.5328 C 27.8781,52.1621 26.843,51.6359 25.857,51.0359 z"
       id="path92"
       style="fill:none;stroke:#231f20;stroke-width:0.0292;stroke-linecap:butt;stroke-linejoin:miter;stroke-miterlimit:3.86370993;stroke-opacity:1;stroke-dasharray:none" /><path
       d="M 29.359,52.7664 30.1,47.2465 c 0.3219,0.1344 0.648,0.2582 0.9781,0.3723 l -0.1511,4.6054 c -0.009,0.2801 0.4113,0.2946 0.4207,0.0137 l 0.1468,-4.4824 c 0.3231,0.1015 0.6496,0.1929 0.9789,0.2734 l 0.3922,5.7703 c -1.209,-0.2476 -2.3801,-0.5953 -3.5066,-1.0328 z"
       id="path94"
       style="fill:none;stroke:#231f20;stroke-width:0.0292;stroke-linecap:butt;stroke-linejoin:miter;stroke-miterlimit:3.86370993;stroke-opacity:1;stroke-dasharray:none" /><path
       d="M 33.2934,53.8824 32.902,48.1273 c 0.3769,0.0817 0.7574,0.1493 1.1402,0.2024 l 0.6953,4.5484 c 0.0422,0.2774 0.4586,0.2133 0.416,-0.064 l -0.6769,-4.4309 c 0.2961,0.0328 0.5937,0.0566 0.8925,0.0719 l 1.4887,5.7808 c -1.2172,-0.0203 -2.4074,-0.1414 -3.5644,-0.3535 z"
       id="path96"
       style="fill:none;stroke:#231f20;stroke-width:0.0292;stroke-linecap:butt;stroke-linejoin:miter;stroke-miterlimit:3.86370993;stroke-opacity:1;stroke-dasharray:none" /><path
       d="m 37.2934,54.2387 -1.4856,-5.768 c 0.3817,0.0082 0.7645,0.002 1.1488,-0.0195 l 1.4223,4.5504 c 0.0836,0.2675 0.4856,0.1422 0.4016,-0.1258 l -1.3922,-4.4543 c 0.3484,-0.0293 0.698,-0.0707 1.048,-0.1254 l 2.4242,5.6461 c -1.2093,0.1969 -2.4003,0.293 -3.5671,0.2965 z"
       id="path98"
       style="fill:none;stroke:#231f20;stroke-width:0.0292;stroke-linecap:butt;stroke-linejoin:miter;stroke-miterlimit:3.86370993;stroke-opacity:1;stroke-dasharray:none" /><path
       d="M 41.2871,53.8691 38.8633,48.223 c 0.3152,-0.0585 0.6305,-0.1273 0.9453,-0.2066 l 2.3789,4.5922 c 0.1289,0.2488 0.5027,0.0555 0.3738,-0.1938 L 40.225,47.9047 c 0.4113,-0.116 0.8223,-0.2508 1.2316,-0.4047 l 3.3016,5.4711 c -1.1699,0.3937 -2.3281,0.6906 -3.4711,0.898 z"
       id="path100"
       style="fill:none;stroke:#231f20;stroke-width:0.0292;stroke-linecap:butt;stroke-linejoin:miter;stroke-miterlimit:3.86370993;stroke-opacity:1;stroke-dasharray:none" /><path
       d="m 33.6523,41.184 c -0.0039,-0.0356 -0.016,-0.0703 -0.0375,-0.0996 -0.023,-0.0317 -0.0562,-0.0571 -0.1007,-0.0711 -0.011,-0.0039 -0.0227,-0.0063 -0.0352,-0.009 -0.3535,-0.0613 -0.7121,-0.052 -1.0586,0.0168 -0.0375,-0.0348 -0.0789,-0.068 -0.1242,-0.0996 0.0598,-0.3996 0.2644,-0.9121 0.7375,-1.3555 0.3164,-0.0105 0.6312,-0.0273 0.9461,-0.0527 l 0.9519,3.8637 c -1.0347,0.3046 -1.3207,2.141 0.0735,2.3777 -0.011,0.3008 0.1164,0.5691 0.3215,0.7785 -0.7348,-0.0453 -1.4457,-0.1426 -2.1313,-0.2867 l 0.1961,-2.1567 c 0.0074,-0.0242 0.009,-0.0492 0.007,-0.0738 l 0.0207,-0.2289 C 33.4445,43.5078 33.0254,43.4695 33,43.7492 l -0.0152,0.1653 -0.8672,0.6152 c -0.2258,-0.1914 -0.3692,-0.4766 -0.3692,-0.7957 0,-0.5746 0.4668,-1.0422 1.0426,-1.0422 0.1047,0 0.2059,0.0156 0.3012,0.0445 l -0.007,0.0758 c -0.0254,0.2793 0.3937,0.3172 0.4191,0.0379 l 0.0199,-0.2152 c 0.0035,-0.0168 0.0051,-0.0332 0.0043,-0.0496 l 0.1231,-1.3504 c 0.0019,-0.0203 0.0019,-0.036 7e-4,-0.0508 z"
       id="path102"
       style="fill:none;stroke:#231f20;stroke-width:0.0292;stroke-linecap:butt;stroke-linejoin:miter;stroke-miterlimit:3.86370993;stroke-opacity:1;stroke-dasharray:none" /><path
       d="m 32.0871,45.0672 0.1238,-0.0875 c 0.0149,-0.0078 0.0286,-0.018 0.0414,-0.0297 l 0.6821,-0.4836 -0.1531,1.6867 c -0.5489,-0.132 -1.0805,-0.2945 -1.5946,-0.4851 -1.0922,-1.1914 -0.9679,-2.4512 -0.2879,-3.2938 0.0231,-0.0187 0.0418,-0.0418 0.0559,-0.0672 0.5391,-0.6234 1.3891,-0.9988 2.2601,-0.914 l -0.0839,0.9179 c -0.1094,-0.0257 -0.2231,-0.0398 -0.3399,-0.0398 -0.8082,0 -1.4633,0.6555 -1.4633,1.4629 0,0.4164 0.1735,0.7914 0.4516,1.0574 -0.1039,0.1727 0.1074,0.418 0.3078,0.2758 z"
       id="path104"
       style="fill:none;stroke:#231f20;stroke-width:0.0292;stroke-linecap:butt;stroke-linejoin:miter;stroke-miterlimit:3.86370993;stroke-opacity:1;stroke-dasharray:none" /><path
       d="m 31.9012,41.1715 c -0.4516,0.173 -0.8641,0.4476 -1.1938,0.7937 -1.4801,-0.3789 -2.7633,0.7262 -3.2511,1.6309 -0.5079,-0.3926 -0.9868,-0.8168 -1.4348,-1.268 l 0.9008,-0.239 c 0.0109,-0.0024 0.0218,-0.0051 0.0324,-0.0086 l 0.2285,-0.0606 c 0.0332,-0.0023 0.0668,-0.0125 0.0981,-0.034 0.032,-0.0191 0.0558,-0.0441 0.0722,-0.0722 1.0692,-1.2102 3.5942,-1.2305 4.5477,-0.7422 z"
       id="path106"
       style="fill:none;stroke:#231f20;stroke-width:0.0292;stroke-linecap:butt;stroke-linejoin:miter;stroke-miterlimit:3.86370993;stroke-opacity:1;stroke-dasharray:none" /><path
       d="m 30.4086,42.334 c -0.5625,0.8187 -0.6957,1.9129 0.007,3.0223 -0.9386,-0.4125 -1.8133,-0.9196 -2.6183,-1.5047 0.3789,-0.7672 1.4332,-1.695 2.6113,-1.5176 z"
       id="path108"
       style="fill:none;stroke:#231f20;stroke-width:0.0292;stroke-linecap:butt;stroke-linejoin:miter;stroke-miterlimit:3.86370993;stroke-opacity:1;stroke-dasharray:none" /><path
       d="m 27.052,41.6191 -0.045,0.0118 c -0.1457,-0.4313 -0.1281,-1.3344 -0.0148,-1.7895 0.8211,-0.2445 1.7773,-0.2867 2.8586,-0.2789 0.9004,0.0059 1.7578,0.0273 2.5988,0.0164 -0.3027,0.3801 -0.4687,0.7824 -0.5437,1.1363 -1.2543,-0.5011 -3.734,-0.3382 -4.8539,0.9039 z"
       id="path110"
       style="fill:none;stroke:#231f20;stroke-width:0.0292;stroke-linecap:butt;stroke-linejoin:miter;stroke-miterlimit:3.86370993;stroke-opacity:1;stroke-dasharray:none" /><path
       d="m 27.768,35.1059 c -0.2707,0.1343 -0.5356,0.2812 -0.791,0.4441 -0.3133,-0.2254 -0.5989,-0.4461 -0.8594,-0.6617 -0.0098,-0.0098 -0.0199,-0.0188 -0.0313,-0.0266 -0.5547,-0.4617 -0.9941,-0.9023 -1.3437,-1.3211 -0.009,-0.014 -0.0196,-0.0265 -0.0313,-0.0383 -0.1582,-0.1914 -0.2968,-0.3781 -0.4199,-0.5609 -0.009,-0.0219 -0.0223,-0.0426 -0.0398,-0.0601 -0.4953,-0.7547 -0.7133,-1.4325 -0.825,-2.0372 -0.1657,-0.8945 -0.0411,-2.0476 -0.561,-2.8355 0.8153,0.0484 1.0422,0.2769 1.5391,0.7769 -0.4977,2.2387 1.1098,5.1168 3.3633,6.3204 z"
       id="path112"
       style="fill:none;stroke:#231f20;stroke-width:0.0292;stroke-linecap:butt;stroke-linejoin:miter;stroke-miterlimit:3.86370993;stroke-opacity:1;stroke-dasharray:none" /><path
       d="m 28.018,31.007 c -0.0555,-0.082 -0.1059,-0.1675 -0.1508,-0.257 -0.4844,-0.9617 0.0367,-1.7012 0.6183,-1.7012 1.3137,0 1.236,1.8844 -0.4675,1.9582 z"
       id="path114"
       style="fill:none;stroke:#231f20;stroke-width:0.0292;stroke-linecap:butt;stroke-linejoin:miter;stroke-miterlimit:3.86370993;stroke-opacity:1;stroke-dasharray:none" /><path
       d="m 25.6379,35.0328 c -0.7324,0.5719 -1.5184,1.2078 -1.9266,2.0449 -0.0691,-0.4738 -0.0308,-0.9195 0.0676,-1.3297 l 0.0035,-0.0152 c 0.1707,-0.6957 0.5145,-1.2875 0.802,-1.7332 0.2941,0.3328 0.6422,0.6777 1.0535,1.0332 z"
       id="path116"
       style="fill:none;stroke:#231f20;stroke-width:0.0292;stroke-linecap:butt;stroke-linejoin:miter;stroke-miterlimit:3.86370993;stroke-opacity:1;stroke-dasharray:none" /><path
       d="m 24.0918,26.5523 c 0.0395,-0.5882 0.0941,-1.1812 0.0117,-1.7617 0.6738,0.0469 0.9285,0.243 1.2949,0.6149 -0.4921,0.307 -0.9156,0.6511 -1.3066,1.1468 z"
       id="path118"
       style="fill:none;stroke:#231f20;stroke-width:0.0292;stroke-linecap:butt;stroke-linejoin:miter;stroke-miterlimit:3.86370993;stroke-opacity:1;stroke-dasharray:none" /><path
       d="M 23.8832,34.3641 23.0637,33.95 23.4914,33.0359 c 0.1582,0.077 0.3191,0.1379 0.4801,0.1797 0.1,0.1469 0.2098,0.2957 0.3305,0.4469 -0.1504,0.232 -0.2915,0.4656 -0.4188,0.7016 z"
       id="path120"
       style="fill:none;stroke:#231f20;stroke-width:0.0292;stroke-linecap:butt;stroke-linejoin:miter;stroke-miterlimit:3.86370993;stroke-opacity:1;stroke-dasharray:none" /><path
       d="m 21.5574,30.6285 c 0.0102,-0.1734 0.0219,-0.3437 0.0364,-0.5113 0.3957,0.2851 1.039,0.7223 1.4289,0.8418 0.0976,0.5098 0.2668,1.0664 0.5906,1.6683 -0.0332,-0.0171 -0.0664,-0.0351 -0.0996,-0.0531 -0.0094,-0.0062 -0.0192,-0.0117 -0.0293,-0.0164 -0.9063,-0.5195 -1.7387,-1.566 -1.927,-1.9293 z"
       id="path122"
       style="fill:none;stroke:#231f20;stroke-width:0.0292;stroke-linecap:butt;stroke-linejoin:miter;stroke-miterlimit:3.86370993;stroke-opacity:1;stroke-dasharray:none" /><path
       d="m 21.6379,33.2977 c -0.0801,-0.6539 -0.1164,-1.3102 -0.107,-1.9633 0.2054,0.2656 0.4781,0.5754 0.7925,0.8683 l -0.6855,1.095 z"
       id="path124"
       style="fill:none;stroke:#231f20;stroke-width:0.0292;stroke-linecap:butt;stroke-linejoin:miter;stroke-miterlimit:3.86370993;stroke-opacity:1;stroke-dasharray:none" /><path
       d="M 21.8785,34.7031 C 21.823,34.45 21.7738,34.1961 21.7313,33.9418 l 0.9132,-1.4582 c 0.1532,0.1242 0.3129,0.2414 0.477,0.3461 -0.7328,1.5183 -0.8793,1.1996 0.573,1.9121 -0.1074,0.2316 -0.1992,0.4668 -0.2715,0.7059 -0.3902,-0.0918 -1.0179,-0.3735 -1.5445,-0.7446 z"
       id="path126"
       style="fill:none;stroke:#231f20;stroke-width:0.0292;stroke-linecap:butt;stroke-linejoin:miter;stroke-miterlimit:3.86370993;stroke-opacity:1;stroke-dasharray:none" /><path
       d="m 24.216,40.1324 c -1.0066,-1.4855 -1.7488,-3.1332 -2.1949,-4.8375 0.4527,0.2672 0.9363,0.4742 1.3008,0.561 -0.1266,0.6441 -0.0973,1.3214 0.1676,2.0523 0.091,0.252 0.3652,0.225 0.4054,-0.0394 0.1656,-1.0719 1.2379,-1.9102 2.0731,-2.5598 0.1992,0.1621 0.4125,0.3269 0.6394,0.4926 -1.2125,0.8867 -2.1523,2.2015 -2.3914,4.3308 z"
       id="path128"
       style="fill:none;stroke:#231f20;stroke-width:0.0292;stroke-linecap:butt;stroke-linejoin:miter;stroke-miterlimit:3.86370993;stroke-opacity:1;stroke-dasharray:none" /><path
       d="m 25.6875,41.9809 c -0.2293,-0.2461 -0.45,-0.4996 -0.6621,-0.7598 0.4211,-0.5836 0.925,-0.9664 1.5082,-1.2152 -0.0762,0.5175 -0.0809,1.2597 0.0676,1.7328 l -0.9137,0.2422 z"
       id="path130"
       style="fill:none;stroke:#231f20;stroke-width:0.0292;stroke-linecap:butt;stroke-linejoin:miter;stroke-miterlimit:3.86370993;stroke-opacity:1;stroke-dasharray:none" /><path
       d="m 37.516,43.3734 c -0.1902,-0.1136 -0.4285,-0.1843 -0.7168,-0.1918 -0.082,-0.5957 -0.1558,-1.2332 -0.0691,-1.823 l 1.1148,1.2008 c -0.1996,0.2668 -0.3039,0.5469 -0.3289,0.814 z"
       id="path132"
       style="fill:none;stroke:#231f20;stroke-width:0.0292;stroke-linecap:butt;stroke-linejoin:miter;stroke-miterlimit:3.86370993;stroke-opacity:1;stroke-dasharray:none" /><path
       d="m 36.2723,42.0941 c -0.3149,0.0778 -0.6239,0.1762 -0.7547,0.5016 -0.0582,0.1449 0.4066,0.0727 0.4637,0.0715 0.1136,-0.0031 0.2257,0.025 0.3371,0.059 0.0254,0.2324 0.057,0.4636 0.0886,0.6918 8e-4,0.0058 0.0016,0.0121 0.0028,0.0187 0.0105,0.075 0.0211,0.1496 0.0308,0.2242 0.0379,0.2774 0.4524,0.2219 0.4176,-0.0539 1.241,0.1032 0.9973,1.877 -0.3156,1.6164 -0.275,-0.055 -0.3571,0.3582 -0.0817,0.4129 0.2977,0.059 0.5563,0.0457 0.7746,-0.0195 -0.1371,1.7801 -2.8664,0.6934 -1.3117,-0.6418 0.2133,-0.1824 -0.0609,-0.502 -0.2738,-0.3191 -0.2727,0.2339 -0.448,0.466 -0.5465,0.6879 -0.9683,-0.1485 -0.6871,-1.3403 -0.0703,-1.5551 l 0.0082,0.0347 c 0.0672,0.2723 0.4762,0.1719 0.409,-0.1011 l -0.0539,-0.2176 c -0.0016,-0.009 -0.0039,-0.0184 -0.0067,-0.0277 l -0.9863,-4.0036 c 0.1723,-0.0179 0.3445,-0.0394 0.5172,-0.064 l 1.4555,1.5679 c -0.0907,0.3633 -0.1145,0.7391 -0.1039,1.1168 z"
       id="path134"
       style="fill:none;stroke:#231f20;stroke-width:0.0292;stroke-linecap:butt;stroke-linejoin:miter;stroke-miterlimit:3.86370993;stroke-opacity:1;stroke-dasharray:none" /><path
       d="m 38.3508,40.6441 c -0.232,0.3223 -0.3156,0.7965 -0.2375,1.17 0.0398,0.1922 0.2285,-0.1145 0.2656,-0.1504 0.1297,-0.127 0.307,-0.2059 0.4816,-0.2793 0.3543,0.5078 0.7145,1.0101 1.0829,1.5054 0.4152,0.559 0.8386,1.1059 1.2734,1.6379 -0.7211,0.8629 -1.9438,0.3723 -1.6043,-0.991 0.0676,-0.2726 -0.341,-0.3742 -0.4086,-0.1015 -0.0758,0.3035 -0.091,0.5746 -0.0594,0.8105 -0.9218,0.3047 -1.58,-0.5348 -1.0074,-1.3723 0.1914,0.1809 0.4832,-0.0976 0.2961,-0.2992 l -1.6394,-1.766 C 36.7801,40.7867 36.7625,40.768 36.7422,40.7531 l -1.3219,-1.4246 c 0.5758,-0.1043 1.1582,-0.25 1.7567,-0.4515 0.3859,0.5937 0.7765,1.1832 1.1738,1.7671 z"
       id="path136"
       style="fill:none;stroke:#231f20;stroke-width:0.0292;stroke-linecap:butt;stroke-linejoin:miter;stroke-miterlimit:3.86370993;stroke-opacity:1;stroke-dasharray:none" /><path
       d="m 36.4918,28.85 c 2.3395,0.9309 3.0797,2.8254 2.9676,4.334 -0.5324,-0.7824 -1.0453,-1.5488 -1.5418,-2.2758 -0.4692,-0.6863 -0.943,-1.375 -1.4258,-2.0582 z"
       id="path138"
       style="fill:none;stroke:#231f20;stroke-width:0.0292;stroke-linecap:butt;stroke-linejoin:miter;stroke-miterlimit:3.86370993;stroke-opacity:1;stroke-dasharray:none" /><path
       d="m 41.1461,34.1973 c 0.9934,1.0113 1.3109,2.0992 1.3094,3.1425 -0.5446,-0.6914 -1.0703,-1.4015 -1.5785,-2.114 0.1179,-0.3465 0.207,-0.6899 0.2691,-1.0285 z"
       id="path140"
       style="fill:none;stroke:#231f20;stroke-width:0.0292;stroke-linecap:butt;stroke-linejoin:miter;stroke-miterlimit:3.86370993;stroke-opacity:1;stroke-dasharray:none" /><path
       d="m 44.1852,37.9656 c 1.066,0.8758 1.4867,1.7758 1.4597,2.8801 -0.5707,-0.523 -1.1222,-1.0875 -1.657,-1.6801 0.0898,-0.4082 0.157,-0.8082 0.1973,-1.2 z"
       id="path142"
       style="fill:none;stroke:#231f20;stroke-width:0.0292;stroke-linecap:butt;stroke-linejoin:miter;stroke-miterlimit:3.86370993;stroke-opacity:1;stroke-dasharray:none" /><path
       d="m 44.1699,36.25 c 2.1664,1.0176 3.0899,3.3418 2.8856,5.768 -0.3434,-0.2559 -0.6801,-0.5282 -1.011,-0.8153 0.1422,-1.4918 -0.3879,-2.6554 -1.8222,-3.7433 0.0175,-0.4129 0.0019,-0.8164 -0.0524,-1.2094 z"
       id="path144"
       style="fill:none;stroke:#231f20;stroke-width:0.0292;stroke-linecap:butt;stroke-linejoin:miter;stroke-miterlimit:3.86370993;stroke-opacity:1;stroke-dasharray:none" /><path
       d="m 35.6469,27.1883 c 0.0082,0.0015 0.0168,0.0023 0.0254,0.0027 2.4711,0.2403 4.6351,2.2059 5.0789,4.8207 0,0.0219 0.0031,0.0438 0.0109,0.0649 0.0828,0.5234 0.0965,1.0718 0.0309,1.6367 -0.0063,0.0215 -0.0094,0.0437 -0.0078,0.066 -0.043,0.3336 -0.1129,0.673 -0.2137,1.016 -0.2567,-0.3652 -0.509,-0.7293 -0.7574,-1.0918 0.3609,-1.859 -0.4938,-4.4613 -3.7446,-5.4457 -0.2625,-0.3664 -0.5285,-0.7301 -0.7976,-1.0902 0.1258,0.0023 0.2508,0.0097 0.375,0.0207 z"
       id="path146"
       style="fill:none;stroke:#231f20;stroke-width:0.0292;stroke-linecap:butt;stroke-linejoin:miter;stroke-miterlimit:3.86370993;stroke-opacity:1;stroke-dasharray:none" /><path
       d="m 26.5574,19.7133 c 0.0067,-0.0098 0.0129,-0.0203 0.018,-0.0313 0.0434,-0.0769 0.0855,-0.1547 0.1262,-0.2332 0.8261,0.484 1.6101,1.0301 2.3589,1.6278 0.0094,0.0093 0.0196,0.0175 0.0309,0.025 0.3524,0.282 0.6969,0.5761 1.034,0.8797 0.0144,0.0179 0.0312,0.0328 0.0504,0.0453 0.3418,0.3097 0.6762,0.6297 1.0039,0.9586 0.0121,0.0156 0.0266,0.0304 0.0422,0.0425 0.4386,0.4418 0.8652,0.9 1.2816,1.3715 0.0149,0.0289 0.036,0.0524 0.0613,0.0699 0.3743,0.4258 0.7399,0.8622 1.0993,1.3063 0.0136,0.0309 0.0343,0.0551 0.0589,0.0738 0.32,0.3977 0.6344,0.8024 0.9446,1.2117 0.0277,0.0375 0.025,0.027 0.0512,0.0676 0.3472,0.4606 0.6894,0.9266 1.0269,1.3973 0.0106,0.0254 0.0266,0.0484 0.0484,0.068 1.2375,1.7285 2.418,3.5097 3.6047,5.2328 0.0094,0.0207 0.0219,0.0386 0.0371,0.0543 0.3379,0.4902 0.6762,0.975 1.0164,1.4535 0.0102,0.0215 0.0243,0.0406 0.0411,0.0566 0.5855,0.8215 1.1777,1.6211 1.7839,2.386 0.0571,0.0722 0.1145,0.1441 0.1719,0.2156 0.0121,0.0238 0.0285,0.0441 0.0481,0.0601 0.3547,0.4395 0.714,0.8672 1.08,1.2793 0.0118,0.0192 0.0266,0.0352 0.0438,0.0489 0.6543,0.7343 1.3297,1.4199 2.0344,2.0414 0.014,0.0175 0.0312,0.0328 0.0504,0.0445 0.4429,0.3883 0.8972,0.7504 1.3652,1.084 0.0164,0.016 0.0355,0.0297 0.0562,0.0398 l 0.0672,0.0469 c 0.0106,0.009 0.0223,0.0172 0.0352,0.0246 0.0652,0.0453 0.1312,0.0902 0.1973,0.1348 l -0.4055,1.1898 C 46.7926,43.8102 46.5676,43.6297 46.3457,43.4469 46.3348,43.4352 46.3227,43.425 46.309,43.416 38.3789,36.8301 34.9883,26.1406 26.2145,20.2648 26.3359,20.0828 26.4508,19.9 26.5574,19.7133 z"
       id="path148"
       style="fill:none;stroke:#231f20;stroke-width:0.0292;stroke-linecap:butt;stroke-linejoin:miter;stroke-miterlimit:3.86370993;stroke-opacity:1;stroke-dasharray:none" /><path
       d="m 34.1289,18.9359 c 0.0141,-0.0023 0.0281,-0.0062 0.0414,-0.0109 0.1735,-0.0441 0.3543,-0.0672 0.541,-0.0672 0.5285,0 1.0133,0.1867 1.3922,0.4977 0.0074,0.0074 0.0156,0.0136 0.0238,0.0199 0.4766,0.4023 0.7793,1.0043 0.7793,1.6777 0,0.3254 -0.0707,0.6344 -0.1976,0.9117 -0.0098,0.0157 -0.0176,0.0317 -0.0235,0.0493 -0.3562,0.7304 -1.1062,1.2339 -1.9742,1.2339 -0.1097,0 -0.2172,-0.0082 -0.3226,-0.0234 L 34.3438,23.2172 C 33.9434,23.15 33.5793,22.9742 33.2836,22.7207 l -0.0305,-0.0262 c -0.4527,-0.4019 -0.7379,-0.9882 -0.7379,-1.6414 0,-1.0109 0.6836,-1.8621 1.6137,-2.1172 z"
       id="path150"
       style="fill:none;stroke:#231f20;stroke-width:0.0292;stroke-linecap:butt;stroke-linejoin:miter;stroke-miterlimit:3.86370993;stroke-opacity:1;stroke-dasharray:none" /><path
       d="m 28.4457,10.9664 c 0.6422,0.2258 1.2137,0.5039 1.7207,0.8195 0.0184,0.0172 0.0395,0.0309 0.0637,0.0403 0.4816,0.3058 0.9051,0.6461 1.2758,1.0082 0.0121,0.0164 0.0265,0.0308 0.0429,0.0426 1.8809,1.8675 2.391,4.3082 2.3383,5.6925 -0.4328,0.143 -0.8156,0.3969 -1.1152,0.727 0.2261,-2.4442 -0.5555,-5.3922 -4.1102,-7.1676 -0.0558,-0.0305 -0.0699,-0.0355 -0.0984,-0.0383 -0.0219,-0.0015 -0.0676,-8e-4 -0.1262,0.0203 -0.6039,0.1914 -1.2223,0.5082 -1.7703,0.9102 -0.0691,0.0473 -0.0691,0.0492 -0.1301,0.0984 -0.4887,0.3785 -0.9133,0.825 -1.2094,1.3086 -0.0351,0.0563 -0.0332,0.052 -0.0546,0.093 -0.7024,1.2258 -0.5696,2.6758 1.4125,3.8633 -0.0977,0.3164 -0.2258,0.6172 -0.3774,0.9082 -4.0457,-2.7649 -2.4426,-6.1914 2.1379,-8.3262 z"
       id="path152"
       style="fill:none;stroke:#231f20;stroke-width:0.0292;stroke-linecap:butt;stroke-linejoin:miter;stroke-miterlimit:3.86370993;stroke-opacity:1;stroke-dasharray:none" /><path
       d="M 30.3527,11.4055 C 29.9406,11.152 29.4887,10.9223 28.9941,10.723 31.4164,9.70234 34.5332,9.07461 37.8711,9.12969 35.9043,9.89414 32.2453,11.0465 30.3527,11.4055 z"
       id="path154"
       style="fill:none;stroke:#231f20;stroke-width:0.0292;stroke-linecap:butt;stroke-linejoin:miter;stroke-miterlimit:3.86370993;stroke-opacity:1;stroke-dasharray:none" /><path
       d="m 31.7355,12.4695 c -0.2695,-0.2582 -0.5652,-0.5047 -0.8878,-0.7355 2.3558,-0.5137 6.5382,-1.88673 8.0109,-2.56408 0.9,0.05196 1.8137,0.15352 2.7332,0.31055 -2.5191,0.85703 -7.602,2.44373 -9.8563,2.98903 z"
       id="path156"
       style="fill:none;stroke:#231f20;stroke-width:0.0292;stroke-linecap:butt;stroke-linejoin:miter;stroke-miterlimit:3.86370993;stroke-opacity:1;stroke-dasharray:none" /><path
       d="m 34.3109,18.4672 c 0.0215,-1.4274 -0.4933,-3.7723 -2.2316,-5.6488 2.6211,-0.6606 8.2687,-2.443 10.3437,-3.1809 0.2813,0.0582 0.5629,0.12227 0.8446,0.19102 -0.3602,1.65978 -0.3262,4.09178 0.4976,6.71918 -2.3523,0.1511 -5.0308,0.8734 -7.5066,2.3957 -0.4332,-0.3184 -0.9684,-0.5063 -1.5473,-0.5063 -0.1359,0 -0.2699,0.0102 -0.4004,0.0301 z"
       id="path158"
       style="fill:none;stroke:#231f20;stroke-width:0.0292;stroke-linecap:butt;stroke-linejoin:miter;stroke-miterlimit:3.86370993;stroke-opacity:1;stroke-dasharray:none" /><path
       d="m 34.2961,24.1871 c 0.0535,-0.1887 0.1133,-0.3652 0.1769,-0.5289 0.0786,0.0066 0.1579,0.0106 0.2383,0.0106 0.4153,0 0.8082,-0.0965 1.1571,-0.2688 0.2644,1.1277 -0.8477,1.6191 -1.5723,0.7871 z"
       id="path160"
       style="fill:none;stroke:#231f20;stroke-width:0.0292;stroke-linecap:butt;stroke-linejoin:miter;stroke-miterlimit:3.86370993;stroke-opacity:1;stroke-dasharray:none" /><path
       d="m 35.8043,26.293 c 1.8738,-0.4532 2.5145,-2.8598 1.3328,-4.2586 0.1227,-0.3035 0.1902,-0.6344 0.1902,-0.9813 0,-0.7074 -0.2804,-1.3492 -0.7359,-1.8195 3.6691,-2.2145 7.7676,-2.6363 10.4774,-2.0648 2.832,0.5984 3.8492,2.1117 2.0621,3.7535 -0.3102,0.2851 0.5351,1.0629 1.157,1.1359 0.0699,0.4059 -0.0973,0.6922 -0.4254,0.8598 -0.882,0.0828 -2.2922,-0.3809 -3.2246,-0.5907 -0.0547,-0.1828 -0.325,-0.23 -0.3965,-0.0066 -0.0969,0.3035 0.1551,0.7688 0.2211,0.9098 0.1281,0.2734 0.4754,0.0933 0.3543,-0.1489 -0.043,-0.0863 -0.0898,-0.1996 -0.125,-0.3101 0.9676,0.2281 2.2516,0.6394 3.1691,0.5687 0.227,0.1672 0.8313,0.6176 0.7028,0.9196 -0.036,0.0836 -0.1032,0.1824 -0.2117,0.3265 -0.452,0.5981 -0.2602,1.0172 0.157,1.4645 -0.7195,0.0918 -1.6328,-0.0016 -2.1172,-0.5399 -0.2793,-0.3109 -0.7785,0.5164 -0.8316,0.6379 -0.2,0.4575 -0.1676,1.0657 0.53,1.711 0.2059,0.191 0.4918,-0.118 0.286,-0.3086 -0.5567,-0.5153 -0.6992,-1.0727 -0.1742,-1.5985 l 0.0238,-0.0234 c 0.7523,0.6191 1.8055,0.6855 2.7265,0.4699 l 0.0079,-0.0015 0.007,3e-4 c 1.5945,0.1043 1.4676,0.7473 1.0539,1.9168 -0.1633,0.461 -0.3844,0.9977 -0.6184,1.6118 -0.3414,0.8972 -0.975,2.7226 -1.6519,4.7078 -1.8164,0.7133 -4.3988,0.2949 -6.3836,-0.5871 -0.4891,-0.7692 -1.2078,-1.4907 -2.2102,-2.1645 -0.4871,-2.7129 -2.7086,-4.7703 -5.2859,-5.0933 L 35.8043,26.293 z"
       id="path162"
       style="fill:none;stroke:#231f20;stroke-width:0.0292;stroke-linecap:butt;stroke-linejoin:miter;stroke-miterlimit:3.86370993;stroke-opacity:1;stroke-dasharray:none" /><path
       d="m 35.3887,26.359 0.0527,0.393 c -0.1601,-0.0079 -0.3219,-0.009 -0.4844,-0.0028 -0.2918,-0.384 -0.5875,-0.7644 -0.8886,-1.139 0.0136,-0.327 0.0523,-0.6372 0.1093,-0.927 0.8922,0.7422 2.5911,0.2473 2.0645,-1.5082 0.2719,-0.1965 0.5039,-0.4441 0.6832,-0.7277 0.9309,1.3144 0.1348,3.441 -1.6859,3.4984 -0.2805,0.009 -0.2676,0.4297 0.0128,0.4211 0.0461,-0.0016 0.0915,-0.0039 0.1364,-0.0078 z"
       id="path164"
       style="fill:none;stroke:#231f20;stroke-width:0.0292;stroke-linecap:butt;stroke-linejoin:miter;stroke-miterlimit:3.86370993;stroke-opacity:1;stroke-dasharray:none" /><path
       d="m 42.6965,41.4531 c 0,-0.2168 -0.1762,-0.3926 -0.393,-0.3926 -0.2172,0 -0.393,0.1758 -0.393,0.3926 0,0.2168 0.1758,0.393 0.393,0.393 0.2168,0 0.393,-0.1762 0.393,-0.393 z"
       id="path166"
       style="fill:none;stroke:#231f20;stroke-width:0.0292;stroke-linecap:butt;stroke-linejoin:miter;stroke-miterlimit:3.86370993;stroke-opacity:1;stroke-dasharray:none" /><path
       d="m 43.8285,42.7543 c 0,-0.2418 -0.1965,-0.4379 -0.4383,-0.4379 -0.2418,0 -0.4382,0.1961 -0.4382,0.4379 0,0.2422 0.1964,0.4387 0.4382,0.4387 0.2418,0 0.4383,-0.1965 0.4383,-0.4387 z"
       id="path168"
       style="fill:none;stroke:#231f20;stroke-width:0.0292;stroke-linecap:butt;stroke-linejoin:miter;stroke-miterlimit:3.86370993;stroke-opacity:1;stroke-dasharray:none" /><path
       d="m 41.6,40.0512 c 0,-0.1914 -0.1551,-0.3465 -0.3469,-0.3465 -0.1914,0 -0.3468,0.1551 -0.3468,0.3465 0,0.1918 0.1554,0.3472 0.3468,0.3472 0.1918,0 0.3469,-0.1554 0.3469,-0.3472 z"
       id="path170"
       style="fill:none;stroke:#231f20;stroke-width:0.0292;stroke-linecap:butt;stroke-linejoin:miter;stroke-miterlimit:3.86370993;stroke-opacity:1;stroke-dasharray:none" /><path
       d="m 29.575,43.8359 c 0,-0.2347 -0.1898,-0.425 -0.4242,-0.425 -0.234,0 -0.4242,0.1903 -0.4242,0.425 0,0.2344 0.1902,0.4239 0.4242,0.4239 0.2344,0 0.4242,-0.1895 0.4242,-0.4239 z"
       id="path172"
       style="fill:none;stroke:#231f20;stroke-width:0.0292;stroke-linecap:butt;stroke-linejoin:miter;stroke-miterlimit:3.86370993;stroke-opacity:1;stroke-dasharray:none" /><path
       d="m 34.7113,20.2961 c 0.4176,0 0.7567,0.3387 0.7567,0.757 0,0.418 -0.3391,0.7571 -0.7567,0.7571 -0.4179,0 -0.757,-0.3391 -0.757,-0.7571 0,-0.4183 0.3391,-0.757 0.757,-0.757 z"
       id="path174"
       style="fill:none;stroke:#231f20;stroke-width:0.0292;stroke-linecap:butt;stroke-linejoin:miter;stroke-miterlimit:3.86370993;stroke-opacity:1;stroke-dasharray:none" /><path
       d="m 34.7113,19.875 c -0.6504,0 -1.1781,0.5273 -1.1781,1.1781 0,0.6508 0.5277,1.1778 1.1781,1.1778 0.65,0 1.1778,-0.527 1.1778,-1.1778 0,-0.6508 -0.5278,-1.1781 -1.1778,-1.1781 z"
       id="path176"
       style="fill:none;stroke:#231f20;stroke-width:0.0292;stroke-linecap:butt;stroke-linejoin:miter;stroke-miterlimit:3.86370993;stroke-opacity:1;stroke-dasharray:none" /><path
       d="m 50.9523,26.3992 c 0.0047,-4e-4 0.0098,-8e-4 0.0149,-0.0012 l -0.007,-3e-4 -0.0079,0.0015 z"
       id="path178"
       style="fill:none;stroke:#231f20;stroke-width:0.0292;stroke-linecap:butt;stroke-linejoin:miter;stroke-miterlimit:3.86370993;stroke-opacity:1;stroke-dasharray:none" /><path
       d="m 44.7348,31.1348 c -0.1114,0.3566 -0.1555,0.7535 -0.125,1.2441 -0.6403,-0.1934 -1.2446,-0.482 -1.7618,-0.8883 0.1946,-0.0648 0.4727,-0.1453 0.8192,-0.2152 0.3066,-0.0613 0.6656,-0.1145 1.0676,-0.1406 z"
       id="path180"
       style="fill:none;stroke:#231f20;stroke-width:0.0292;stroke-linecap:butt;stroke-linejoin:miter;stroke-miterlimit:3.86370993;stroke-opacity:1;stroke-dasharray:none" /><path
       d="m 45.041,32.4941 c -0.0535,-0.5921 0.0051,-1.0117 0.1449,-1.3761 0.2684,-0.0024 0.5524,0.0078 0.8485,0.0363 -0.1371,0.1918 -0.2332,0.4504 -0.2578,0.7371 -0.0239,0.2785 0.0218,0.5418 0.1164,0.7508 -0.286,-0.0336 -0.5715,-0.0832 -0.852,-0.1481 z"
       id="path182"
       style="fill:none;stroke:#231f20;stroke-width:0.0292;stroke-linecap:butt;stroke-linejoin:miter;stroke-miterlimit:3.86370993;stroke-opacity:1;stroke-dasharray:none" /><path
       d="m 46.8031,33.1258 c 0.2836,0.0164 0.5864,0.0347 0.7789,-0.0188 0.1391,-0.009 0.2032,-0.1129 0.2004,-0.2156 -0.0039,-0.2523 -0.3293,-0.3859 -0.582,-0.4687 0.041,-0.1204 0.0691,-0.2524 0.0809,-0.3911 0.0503,-0.5933 -0.1993,-1.1253 -0.5778,-1.2105 -0.0125,-0.0043 -0.0265,-0.0078 -0.041,-0.0102 -0.4656,-0.0765 -1.0078,-0.1148 -1.5668,-0.1054 -0.0402,-0.011 -0.0836,-0.011 -0.1234,0.0031 -0.8696,0.025 -1.7703,0.1664 -2.4832,0.4594 -0.0133,-0.0141 -0.02,-0.0219 -0.02,-0.0219 -0.1796,-0.216 -0.5027,0.0535 -0.3234,0.2695 0.0047,0.0055 0.0488,0.0574 0.1344,0.1399 0.0121,0.0152 0.0262,0.0285 0.0418,0.0398 0.4644,0.4324 1.8687,1.4949 4.4812,1.5305 z"
       id="path184"
       style="fill:none;stroke:#231f20;stroke-width:0.0292;stroke-linecap:butt;stroke-linejoin:miter;stroke-miterlimit:3.86370993;stroke-opacity:1;stroke-dasharray:none" /><path
       d="m 58.014145,49.971023 v -0.784814 h 2.496975 v -7.712032 h 0.937234 v 7.712032 h 2.510544 v 0.784814 z m 7.850566,0 v -8.496846 h 4.619687 v 0.785551 h -3.668884 v 3.223094 h 3.322076 v 0.785235 h -3.322076 v 2.918152 h 3.668884 v 0.784814 z m 10.880427,-0.534149 c 0.815215,0 1.533024,-0.16399 2.201605,-0.607677 l 0.360377,0.681204 c -0.797542,0.417074 -1.587301,0.646807 -2.561982,0.646807 -2.511806,0 -4.4902,-1.810091 -4.4902,-4.402788 0,-2.765312 1.975975,-4.402367 4.4902,-4.402367 0.860025,0 1.771803,0.33124 2.523693,0.754835 l -0.337341,0.605678 c -0.663531,-0.368582 -1.43362,-0.641442 -2.186352,-0.641442 -2.063912,0 -3.520568,1.643262 -3.520568,3.683296 0,2.040139 1.456656,3.682454 3.520568,3.682454 z m 4.714253,0.534149 v -8.496846 h 0.951539 v 4.071127 h 4.630837 v -4.071127 h 0.945018 v 8.496846 H 87.041767 V 46.316129 H 82.41093 v 3.654894 z m 10.544769,0.195126 -0.987408,-0.251402 v -8.44057 h 0.907675 l -0.0037,7.294537 4.995632,-7.481142 1.002135,0.276541 v 8.40691 h -0.883797 l -0.01641,-7.289277 z m 9.35645,-0.195126 v -8.496846 h 0.9446 v 8.496846 z m 5.78855,-7.977949 c -0.66059,0 -1.33906,0.288112 -1.80925,0.599472 l -0.37763,-0.617144 c 0.68478,-0.411709 1.3643,-0.627031 2.24894,-0.627031 1.84712,0 2.70651,1.15834 2.70651,2.394731 0,1.294771 -0.91935,1.840806 -1.8913,2.30753 l -0.71318,0.341864 c -0.61956,0.312306 -1.27804,0.718651 -1.27804,1.519138 0,1.10196 0.90778,1.599188 1.68723,1.599188 0.79417,0 1.31065,-0.278961 1.80083,-0.597053 l 0.32714,0.623771 c -0.65638,0.380468 -1.37798,0.618405 -2.17741,0.618405 -1.49894,0 -2.5319,-0.907675 -2.5319,-2.181828 0,-1.777588 1.30014,-2.099256 2.55188,-2.702514 0.68794,-0.332397 1.25491,-0.747789 1.25491,-1.616018 0,-1.01865 -0.74789,-1.662511 -1.79873,-1.662511 z m 9.33026,7.4438 c 0.81626,0 1.53365,-0.16399 2.20265,-0.607677 l 0.35975,0.681204 c -0.79733,0.417074 -1.5873,0.646807 -2.5624,0.646807 -2.51086,0 -4.48947,-1.810091 -4.48947,-4.402788 0,-2.765312 1.9765,-4.402367 4.48947,-4.402367 0.86044,0 1.77243,0.33124 2.52453,0.754835 l -0.33766,0.605678 c -0.66374,-0.368582 -1.43372,-0.641442 -2.18687,-0.641442 -2.06276,0 -3.51963,1.643262 -3.51963,3.683296 0,2.040139 1.45687,3.682454 3.51963,3.682454 z m 4.99647,0.534149 v -8.496846 h 0.95091 v 4.071127 h 4.63147 v -4.071127 h 0.94459 v 8.496846 h -0.94459 v -3.654894 h -4.63147 v 3.654894 z m 9.55536,0 v -8.496846 h 4.62726 v 0.785551 h -3.66899 v 3.223094 h 3.32292 v 0.784815 h -3.32292 v 2.918572 h 3.66899 v 0.784814 z M 65.595112,30.341822 v 5.572489 h -0.950803 l -4.21e-4,-5.434902 c 0,-1.906129 -0.919141,-2.507704 -2.386,-2.507704 -1.607498,0 -2.286703,0.877276 -2.286703,2.507704 v 5.434902 h -0.977941 l 0.02472,-5.654326 c 0,-1.937791 1.140669,-2.990837 3.239925,-2.990837 1.595821,0 3.337224,0.511113 3.337223,3.072674 z m 3.676668,5.760672 -0.987303,-0.250981 v -8.440676 h 0.907991 l -0.0041,7.294222 4.995632,-7.481142 1.00224,0.276541 v 8.407331 h -0.883481 l -0.01683,-7.289277 z m 8.895933,-0.188183 v -8.503474 h 0.951224 v 8.503474 z m 3.71317,0.130644 -0.922823,-0.291689 3.244448,-8.342429 h 0.938811 l 3.264644,8.330122 -0.901995,0.302419 -2.807178,-7.626198 z m 8.360101,-0.130644 v -8.503474 h 4.619266 v 0.784815 h -3.668043 v 3.223094 h 3.315134 v 0.785656 h -3.315134 v 2.925094 h 3.668043 v 0.784815 z m 8.934853,-4.146758 h -1.132359 v 3.410435 h 1.369034 c 1.465278,0 1.902868,-0.716126 1.902868,-1.694909 0,-1.353045 -1.05715,-1.715526 -2.139543,-1.715526 z m 0.477557,4.139815 -2.568187,0.0065 v -8.509574 h 0.958271 v 3.661416 h 0.778924 c 0.627978,0 0.95196,-0.23089 1.321168,-0.682886 l 0.36606,-0.467565 1.99544,-2.718503 0.82994,0.496807 -1.68197,2.225798 c -0.3303,0.410447 -0.78261,1.20515 -1.32538,1.334532 l 0.008,0.175455 c 1.17181,0.157784 1.85659,0.837409 1.85659,2.208231 0,1.384287 -0.93829,2.269767 -2.539266,2.269767 z m 7.077116,-8.035487 c -0.66059,0 -1.33801,0.287691 -1.8082,0.598735 l -0.37868,-0.616828 c 0.68583,-0.411709 1.3643,-0.62661 2.24894,-0.62661 1.84817,0 2.70651,1.157499 2.70651,2.39431 0,1.29435 -0.9183,1.840806 -1.89025,2.30753 l -0.71423,0.342284 c -0.61956,0.311886 -1.27805,0.717915 -1.27805,1.518298 0,1.102064 0.90884,1.600028 1.68829,1.600028 0.79312,0 1.3096,-0.279381 1.80083,-0.597473 l 0.32714,0.623771 c -0.65638,0.380468 -1.37903,0.617985 -2.17846,0.617985 -1.49789,0 -2.5319,-0.907255 -2.5319,-2.181829 0,-1.776747 1.30119,-2.098519 2.55188,-2.702514 0.68794,-0.331556 1.25491,-0.747368 1.25491,-1.616018 0,-1.018229 -0.74685,-1.661669 -1.79873,-1.661669 z m 5.3194,8.04243 v -8.503474 h 0.95091 v 8.503474 z m 2.80854,0 v -0.784815 h 2.49824 v -7.718659 h 0.93723 v 7.718659 h 2.51086 v 0.784815 z m 10.25172,-0.856659 1.56416,-4.205559 h -3.17671 z m 3.86359,-7.544466 -3.36289,8.401125 h -0.99614 l -3.46387,-8.400704 0.93933,-0.328715 1.14236,2.97895 h 3.69844 l 1.10974,-2.984736 z m -1.40953,8.940639 h -0.85519 v -1.111006 h 0.85519 z m -4.02558,-1.111006 v 1.111006 h -0.84783 v -1.111006 z m 6.30712,0.571492 v -0.784815 h 2.49614 v -7.718659 h 0.93828 v 7.718659 H 135.79 v 0.784815 z M 61.214624,14.090553 h -1.243018 v 7.024622 l 1.43646,-0.0058 c 2.35781,0 3.904403,-1.206412 3.904403,-3.45188 0,-2.230741 -1.575415,-3.566956 -4.097845,-3.566956 z m 0.394879,7.768307 -2.596484,-0.0082 v -8.49643 h 2.30753 c 2.943712,0 4.892127,1.492736 4.892127,4.365656 0,2.077903 -1.189056,4.138974 -4.603173,4.138974 z m 9.87703,-0.857079 1.563844,-4.2064 h -3.177863 z m 3.862853,-7.545307 -3.362785,8.401124 h -0.996034 l -3.463871,-8.400703 0.938916,-0.328716 1.143088,2.978951 h 3.697707 l 1.109848,-2.984736 z m 4.351772,4.254051 h -1.132885 v 3.41033 h 1.369981 c 1.464019,0 1.901605,-0.715706 1.901605,-1.69533 0,-1.352625 -1.056833,-1.715 -2.138701,-1.715 z m 0.477452,4.139289 -2.568503,0.0074 v -8.509995 h 0.958166 v 3.661101 h 0.778714 c 0.628609,0 0.95238,-0.230574 1.321804,-0.68215 l 0.365321,-0.467986 1.996065,-2.718082 0.829204,0.496808 -1.68176,2.225798 c -0.330399,0.410131 -0.781975,1.205149 -1.32517,1.334216 l 0.0086,0.175455 c 1.172331,0.157784 1.856059,0.836988 1.856059,2.208547 0,1.383866 -0.937654,2.268925 -2.538525,2.268925 z m 8.920442,8.42e-4 h -1.037899 l -2.376954,-8.404386 0.914618,-0.244985 2.002271,7.378899 2.155952,-7.225954 h 1.067142 l 2.191717,7.241943 1.974291,-7.394467 0.901469,0.244144 -2.364227,8.404806 h -1.043684 l -2.194557,-7.405511 z m 11.843958,-8.01161 c -0.66059,0 -1.338003,0.287586 -1.808197,0.599051 l -0.377628,-0.617564 c 0.68478,-0.410868 1.363245,-0.625769 2.247885,-0.625769 1.84817,0 2.70651,1.157499 2.70651,2.393889 0,1.294666 -0.9183,1.840807 -1.89024,2.30753 l -0.71423,0.342706 c -0.61852,0.311464 -1.276998,0.717809 -1.276998,1.518297 0,1.101959 0.907778,1.599187 1.687228,1.599187 0.79313,0 1.31066,-0.279066 1.80084,-0.597052 l 0.32713,0.62377 c -0.65637,0.380048 -1.37902,0.618406 -2.17846,0.618406 -1.497889,0 -2.531896,-0.907676 -2.531896,-2.181934 0,-1.777483 1.301186,-2.098414 2.551886,-2.702409 0.68793,-0.332397 1.2549,-0.747788 1.2549,-1.616018 0,-1.01907 -0.74684,-1.66209 -1.79873,-1.66209 z m 4.35061,8.01161 v -0.784394 h 2.49614 V 13.35423 h 0.93828 v 7.712032 h 2.50981 v 0.784394 z m 10.36427,-0.856343 1.56416,-4.205875 h -3.17776 z m 3.86254,-7.544782 -3.36289,8.401125 h -0.99614 l -3.46282,-8.401125 0.93934,-0.328294 1.14235,2.97895 h 3.69739 l 1.10974,-2.984736 z m 4.14023,0.641022 h -1.24333 v 7.024622 l 1.43688,-0.0058 c 2.35729,0 3.90356,-1.206412 3.90356,-3.45188 0,-2.230741 -1.57468,-3.566956 -4.09711,-3.566956 z m 0.39446,7.768307 -2.59606,-0.0082 v -8.49643 h 2.30679 c 2.94424,0 4.89234,1.492736 4.89234,4.365656 0,2.077903 -1.18863,4.138974 -4.60307,4.138974 z m 5.76015,-0.0082 v -0.784394 h 2.49613 V 13.35423 h 0.93829 v 7.712032 h 2.50981 v 0.784394 h -5.94423"
       id="path186"
       style="fill:#231f20;fill-opacity:1;fill-rule:nonzero;stroke:none;stroke-width:1.05189" /></g></svg>
